<?xml version="1.0" standalone="no"?>
<!DOCTYPE svg PUBLIC "-//W3C//DTD SVG 1.1//EN" "http://www.w3.org/Graphics/SVG/1.1/DTD/svg11.dtd">
<svg viewBox="0, 0, 1000, 1000" xmlns="http://www.w3.org/2000/svg" version="1.1">
  <!-- Shape 1 -->
  <!-- Shape 2 -->
  <!-- Shape 3 -->
  <!-- Shape 4 -->
  <!-- Shape 5 -->
  <polygon fill="#000000" points="0,502.019, 258.412,0, 720.054,0, 1000,506.057, 745.626,1000, 261.104,1000" />
  <polygon fill="#FFFFFF" points="58.2911,437.197, 330.04,25.14, 745.125,90.5226, 942.039,569.711, 670.649,975.14, 239.218,910.801" />
  <polygon fill="#000000" points="75.8021,374.049, 381.968,10.7702, 786.102,139.556, 924.809,631.985, 616.591,989.419, 199.993,862.389" />
  <polygon fill="#FFFFFF" points="137.851,331.871, 441.813,52.5753, 790.237,223.563, 862.227,673.314, 554.924,948.074, 198.268,779.066" />
  <polygon fill="#000000" points="165.566,281.362, 491.411,55.8057, 815.692,277.257, 834.251,723.184, 504.162,944.957, 174.216,725.671" />
  <polygon fill="#FFFFFF" points="227.236,261.195, 536.573,108.747, 802.352,350.175, 771.758,742.801, 458.193,892.478, 189.186,653.031" />
  <polygon fill="#000000" points="261.794,225.471, 579.828,126.608, 812.84,403.604, 736.743,778.107, 414.424,874.798, 179.683,599.697" />
  <polygon fill="#FFFFFF" points="319.019,225.159, 609.003,184.943, 786.199,462.021, 678.727,778.105, 385.037,816.84, 207.305,541.331" />
  <polygon fill="#000000" points="210.72,492.587, 356.621,204.882, 643.01,213.561, 783.393,510.751, 640.67,798.141, 350.9,788.396" />
  <polygon fill="#FFFFFF" points="246.569,450.618, 405.889,220.997, 656.43,271.78, 748.053,552.666, 590.786,781.877, 337.56,730.441" />
  <polygon fill="#000000" points="260.388,410.075, 442.769,215.374, 679.54,306.773, 734.558,593.152, 553.548,787.382, 314.508,695.581" />
  <polygon fill="#FFFFFF" points="299.964,385.051, 481.494,243.572, 678.8,360.039, 695.191,618.092, 514.41,759.134, 315.43,642.48" />
  <polygon fill="#000000" points="321.043,355.105, 514.339,250.538, 690.661,396.971, 674.249,647.974, 481.327,752.126, 303.69,605.634" />
  <polygon fill="#FFFFFF" points="360.128,346.051, 541.102,286.008, 678.433,441.492, 635.208,656.953, 454.324,716.657, 316.097,561.202" />
  <polygon fill="#000000" points="385.031,327.741, 567.391,302.534, 679.891,476.322, 610.337,675.211, 427.898,700.127, 314.757,526.419" />
  <polygon fill="#FFFFFF" points="335.217,493.157, 420.037,332.363, 582.023,340.479, 659.565,509.621, 575.301,670.536, 413.149,662.203" />
  <polygon fill="#000000" points="342.42,463.706, 445.417,325.377, 600.253,362.98, 652.449,539.093, 549.906,677.488, 394.856,639.714" />
  <polygon fill="#FFFFFF" points="367.24,442.672, 473.676,340.408, 603.764,399.079, 627.714,560.138, 521.598,662.425, 391.302,603.637" />
  <polygon fill="#000000" points="380.484,420.752, 496.633,343.25, 613.522,423.862, 614.524,582.063, 498.613,659.563, 381.524,578.867" />
  <polygon fill="#FFFFFF" points="406.11,411.59, 516.577,364.881, 607.893,454.671, 588.942,591.223, 478.626,637.917, 387.148,548.076" />
  <polygon fill="#000000" points="422.602,398.193, 534.941,375.177, 609.797,478.373, 572.477,604.618, 460.237,627.612, 385.244,524.385" />
  <polygon fill="#FFFFFF" points="397.389,501.177, 445.986,399.33, 546.156,399.526, 597.661,501.591, 549.111,603.476, 448.994,603.257" />
  <polygon fill="#000000" points="401.893,481.233, 463.014,394.265, 558.667,414.409, 593.164,521.542, 532.094,608.538, 436.466,588.371" />
  <polygon fill="#FFFFFF" points="417.638,466.642, 481.897,403.234, 561.798,437.973, 577.43,536.138, 513.215,599.563, 433.319,564.806" />
  <polygon fill="#000000" points="426.543,452.175, 497.155,405.301, 568.149,454.51, 568.532,550.609, 497.958,597.494, 426.959,548.269" />
  <polygon fill="#FFFFFF" points="443.08,446.015, 510.232,419.156, 564.69,474.529, 552.003,556.771, 484.88,583.635, 430.412,528.252" />
  <polygon fill="#000000" points="454.177,437.718, 522.074,426.44, 565.436,490.111, 540.912,565.069, 473.037,576.35, 429.663,512.67" />
  <polygon fill="#FFFFFF" points="437.677,497.979, 469.143,438.776, 529.02,442.188, 557.419,504.803, 525.951,564.011, 466.087,560.599" />
  <polygon fill="#000000" points="441.318,485.326, 480.347,436.365, 536.581,452.43, 553.778,517.457, 514.749,566.423, 458.524,550.357" />
  <polygon fill="#FFFFFF" points="451.664,476.678, 492.062,442.717, 537.949,467.431, 543.432,526.106, 503.035,560.07, 457.154,535.355" />
  <polygon fill="#000000" points="458.091,468.111, 501.694,445.119, 541.153,478.399, 537.006,534.674, 493.405,557.668, 453.949,524.386" />
  <polygon fill="#FFFFFF" points="468.68,465.232, 509.284,454.509, 538.153,490.669, 526.417,537.554, 485.816,548.278, 456.947,512.117" />
  <polygon fill="#000000" points="476.206,461.055, 516.249,460.153, 537.591,500.49, 518.891,541.731, 478.851,542.633, 457.509,502.295" />
  <polygon fill="#FFFFFF" points="463.291,493.913, 485.368,462.889, 519.628,470.37, 531.808,508.873, 509.729,539.896, 475.472,532.417" />
  <polygon fill="#000000" points="466.567,486.529, 492.501,462.654, 523.484,477.519, 528.532,516.257, 502.598,540.131, 471.615,525.267" />
  <polygon fill="#FFFFFF" points="473.477,482.337, 499.158,467.664, 523.231,486.72, 521.622,520.449, 495.94,535.122, 471.868,516.066" />
  <polygon fill="#000000" points="478.206,477.994, 504.799,470.38, 524.143,493.778, 516.893,524.791, 490.299,532.406, 470.956,509.008" />
  <polygon fill="#FFFFFF" points="484.792,477.556, 508.524,476.874, 521.282,500.711, 510.307,525.23, 486.575,525.912, 473.817,502.075" />
  <polygon fill="#000000" points="475.221,496.321, 489.755,476.203, 512.084,481.275, 519.878,506.465, 505.343,526.583, 483.015,521.511" />
  <polygon fill="#FFFFFF" points="479.475,492.232, 494.965,478.557, 513.04,487.717, 515.624,510.553, 500.134,524.229, 482.059,515.068" />
  <polygon fill="#000000" points="482.305,488.478, 499.193,479.624, 514.437,492.539, 512.794,514.308, 495.906,523.162, 480.662,510.247" />
  <polygon fill="#FFFFFF" points="486.789,487.172, 502.471,483.559, 513.231,497.78, 508.31,515.614, 492.628,519.227, 481.868,505.006" />
  <polygon fill="#000000" points="482.295,500.797, 490.111,485.572, 505.365,486.167, 512.804,501.988, 504.988,517.214, 489.734,516.619" />
  <polygon fill="#FFFFFF" points="484.816,497.402, 493.914,486.497, 506.647,490.487, 510.283,505.384, 501.185,516.289, 488.451,512.298" />
  <polygon fill="#000000" points="486.465,494.463, 496.931,486.754, 508.015,493.684, 508.634,508.322, 498.168,516.032, 487.084,509.102" />
  <polygon fill="#FFFFFF" points="489.421,493.04, 499.506,489.076, 507.634,497.429, 505.678,509.745, 495.593,513.709, 487.465,505.357" />
  <polygon fill="#000000" points="491.598,491.607, 501.686,490.601, 507.637,500.386, 503.501,511.179, 493.413,512.185, 487.462,502.4" />
  <polygon fill="#FFFFFF" points="488.934,499.823, 494.257,491.861, 502.872,493.431, 506.165,502.963, 500.842,510.925, 492.227,509.355" />
  <polygon fill="#000000" points="489.894,497.665, 496.343,491.794, 503.998,495.523, 505.205,505.121, 498.756,510.991, 491.101,507.263" />
  <polygon fill="#FFFFFF" points="491.816,496.45, 498.23,493.164, 503.964,498.107, 503.283,506.336, 496.869,509.622, 491.135,504.679" />
</svg>
