<?xml version="1.0" standalone="no"?>
<!DOCTYPE svg PUBLIC "-//W3C//DTD SVG 1.1//EN" "http://www.w3.org/Graphics/SVG/1.1/DTD/svg11.dtd">
<svg viewBox="0, 0, 1000, 300" xmlns="http://www.w3.org/2000/svg" version="1.1">
  <!-- Shape 1 -->
  <polygon fill="#000000" points="598.739,29.467, 956.944,300, 647.222,300" />
  <polygon fill="#FFFFFF" points="620.589,45.9695, 938.051,300, 644.265,283.497" />
  <polygon fill="#000000" points="642.685,63.6501, 917.604,298.851, 642.617,266.966" />
  <polygon fill="#FFFFFF" points="664.183,82.0428, 896.1,296.358, 642.622,251.066" />
  <polygon fill="#000000" points="684.314,100.645, 874.098,292.427, 644.494,236.395" />
  <polygon fill="#FFFFFF" points="702.419,118.941, 852.194,287.081, 648.293,223.445" />
  <polygon fill="#000000" points="717.996,136.428, 830.988,280.463, 653.922,212.576" />
  <polygon fill="#FFFFFF" points="661.136,204.002, 730.719,152.646, 811.05,272.819" />
  <polygon fill="#000000" points="669.57,197.778, 740.455,167.211, 792.881,264.478" />
  <polygon fill="#FFFFFF" points="678.771,193.81, 747.26,179.836, 776.875,255.821" />
  <polygon fill="#000000" points="688.25,191.876, 751.358,190.353, 763.297,247.238" />
  <polygon fill="#FFFFFF" points="697.527,191.652, 753.113,198.715, 752.265,239.1" />
  <!-- Shape 2 -->
  <polygon fill="#000000" points="570.192,214.436, 613.266,110.528, 647.222,300, 593.056,300" />
  <polygon fill="#FFFFFF" points="575.899,200.668, 617.765,135.633, 640.045,300, 590.026,288.663" />
  <polygon fill="#000000" points="581.991,191.206, 621.007,159.549, 632.767,298.35, 587.971,275.86" />
  <polygon fill="#FFFFFF" points="588.175,186.188, 622.871,181.549, 625.667,294.786, 587.023,262.442" />
  <polygon fill="#000000" points="594.125,185.392, 623.351,200.969, 619.04,289.239, 587.22,249.364" />
  <polygon fill="#FFFFFF" points="599.517,188.266, 622.555,217.255, 613.169,281.882, 588.494,237.562" />
  <polygon fill="#000000" points="590.671,227.826, 604.067,193.991, 620.701,230.019, 608.296,273.129" />
  <polygon fill="#FFFFFF" points="593.491,220.704, 607.569,201.575, 618.09,239.093, 604.586,263.592" />
  <polygon fill="#000000" points="596.638,216.428, 609.92,209.96, 615.072,244.569, 602.106,254.007" />
  <polygon fill="#FFFFFF" points="599.779,214.899, 611.139,218.145, 612.005,246.801, 600.813,245.119" />
  <!-- Shape 3 -->
  <!-- Shape 4 -->
  <polygon fill="#000000" points="0,0, 343.056,0, 396.429,120.753, 275.711,300, 0,300" />
  <polygon fill="#FFFFFF" points="22.8132,0, 346.605,8.03007, 388.402,132.673, 257.376,300, 0,280.05" />
  <polygon fill="#000000" points="45.511,0.562908, 349.535,16.7675, 379.217,144.402, 239.334,298.602, 1.5992,260.418" />
  <polygon fill="#FFFFFF" points="67.9176,1.75719, 351.722,26.1742, 368.907,155.767, 221.813,295.787, 4.8355,241.267" />
  <polygon fill="#000000" points="89.8557,3.64463, 353.051,36.1917, 357.537,166.591, 205.041,291.573, 9.71175,222.753" />
  <polygon fill="#FFFFFF" points="111.148,6.27769, 353.414,46.741, 345.2,176.702, 189.239,286.005, 16.1954,205.027" />
  <polygon fill="#000000" points="131.62,9.69684, 352.72,57.7227, 332.021,185.938, 174.617,279.163, 24.2189,188.233" />
  <polygon fill="#FFFFFF" points="151.099,13.9279, 350.896,69.0184, 318.154,194.151, 161.367,271.152, 33.6809,172.504" />
  <polygon fill="#000000" points="169.42,18.9797, 347.894,80.4931, 303.777,201.212, 149.658,262.106, 44.4481,157.962" />
  <polygon fill="#FFFFFF" points="186.429,24.8419, 343.689,91.9976, 289.089,207.015, 139.631,252.181, 56.3579,144.717" />
  <polygon fill="#000000" points="69.2219,132.862, 201.982,31.4836, 338.289,103.373, 274.308,211.482, 131.396,241.553" />
  <polygon fill="#FFFFFF" points="82.8298,122.47, 215.953,38.8523, 331.731,114.454, 259.659,214.564, 125.023,230.412" />
  <polygon fill="#000000" points="96.9542,113.599, 228.237,46.8736, 324.084,125.076, 245.374,216.246, 120.546,218.959" />
  <polygon fill="#FFFFFF" points="111.356,106.279, 238.752,55.4524, 315.45,135.077, 231.681,216.543, 117.958,207.401" />
  <polygon fill="#000000" points="125.79,100.52, 247.442,64.4739, 305.959,144.307, 218.796,215.508, 117.21,195.944" />
  <polygon fill="#FFFFFF" points="140.011,96.3064, 254.282,73.8064, 295.77,152.631, 206.92,213.221, 118.213,184.789" />
  <!-- Shape 5 -->
  <polygon fill="#000000" points="343.056,0, 461.806,0, 367.416,55.1133" />
  <polygon fill="#FFFFFF" points="357.306,0, 450.479,6.6136, 364.493,48.4997" />
  <polygon fill="#000000" points="369.814,0.887875, 438.935,12.2368, 363.528,41.9886" />
  <polygon fill="#FFFFFF" points="380.079,2.57319, 427.737,16.6549, 364.461,35.8852" />
  <polygon fill="#000000" points="387.835,4.865, 417.439,19.7847, 367.003,30.4636" />
  <polygon fill="#FFFFFF" points="393.075,7.50578, 408.512,21.6748, 370.69,25.9327" />
  <polygon fill="#000000" points="396.027,10.2156, 401.279,22.4892, 374.971,22.4085" />
  <polygon fill="#FFFFFF" points="397.106,12.7378, 395.872,22.4726, 379.298,19.9029" />
  <!-- Shape 6 -->
  <!-- Shape 7 -->
  <polygon fill="#000000" points="367.416,55.1133, 413.629,28.1302, 388.091,101.888" />
  <polygon fill="#FFFFFF" points="376.22,49.973, 408.764,42.181, 384.152,92.977" />
  <polygon fill="#000000" points="382.419,48.4886, 404.075,51.8576, 382.641,84.7848" />
  <polygon fill="#FFFFFF" points="386.545,49.1304, 399.992,58.1302, 382.599,77.8704" />
  <polygon fill="#000000" points="389.106,50.8449, 396.679,61.8907, 383.351,72.3954" />
  <polygon fill="#FFFFFF" points="390.549,52.9491, 394.14,63.8919, 384.447,68.29" />
  <!-- Shape 8 -->
  <!-- Shape 9 -->
  <!-- Shape 10 -->
  <polygon fill="#000000" points="414.148,250.777, 450.817,248.58, 467.361,300, 431.944,300" />
  <polygon fill="#FFFFFF" points="425.332,250.107, 455.863,264.263, 456.559,300, 426.517,284.987" />
  <polygon fill="#000000" points="426.155,274.349, 434.644,254.424, 456.075,275.163, 447.396,295.421" />
  <polygon fill="#FFFFFF" points="428.744,268.272, 441.181,260.75, 453.428,281.342, 440.918,288.994" />
  <polygon fill="#000000" points="432.538,265.977, 444.916,267.03, 449.613,283.676, 437.205,282.674" />
  <polygon fill="#FFFFFF" points="436.313,266.299, 446.349,272.107, 445.828,283.37, 435.781,277.581" />
  <!-- Shape 11 -->
  <!-- Shape 12 -->
  <polygon fill="#000000" points="363.643,169.435, 386.54,174.416, 431.944,300, 275.711,300" />
  <polygon fill="#FFFFFF" points="367.708,170.319, 394.599,196.708, 404.213,300, 291.319,276.825" />
  <polygon fill="#000000" points="372.856,175.371, 396.44,216.483, 382.599,295.563, 305.944,256.434" />
  <polygon fill="#FFFFFF" points="377.7,183.816, 393.597,232.726, 366.854,287.526, 319.687,239.784" />
  <polygon fill="#000000" points="332.413,227.507, 381.187,194.544, 387.731,244.746, 356.508,277.054" />
  <polygon fill="#FFFFFF" points="343.792,219.817, 382.714,206.256, 380.447,252.284, 350.887,265.495" />
  <polygon fill="#000000" points="353.415,216.464, 382.153,217.637, 373.138,255.55, 349.133,254.201" />
  <polygon fill="#FFFFFF" points="360.922,216.77, 379.799,227.54, 366.868,255.198, 350.251,244.344" />
  <!-- Shape 13 -->
  <polygon fill="#FFFFFF" points="1000,249.306, 1000,300, 956.944,300" />
  <polygon fill="#000000" points="1000,259.52, 991.324,300, 965.62,289.785" />
  <polygon fill="#FFFFFF" points="998.252,267.677, 986.145,297.942, 972.548,283.687" />
  <polygon fill="#000000" points="977.727,280.461, 995.812,273.775, 983.405,295.069" />
  <polygon fill="#FFFFFF" points="981.371,279.114, 993.312,278.066, 982.261,292.126" />
  <!-- Shape 14 -->
  <polygon fill="#FFFFFF" points="559.722,0, 1000,0, 1000,163.889, 842.304,213.418" />
  <polygon fill="#000000" points="577.949,13.7655, 971.602,0, 1000,153.318, 852.475,210.224" />
  <polygon fill="#FFFFFF" points="599.252,29.0106, 941.055,1.0682, 997.796,141.421, 863.923,205.808" />
  <polygon fill="#000000" points="623.258,45.0461, 910.053,3.60258, 992.65,128.691, 876.065,199.968" />
  <polygon fill="#FFFFFF" points="649.499,61.127, 880.284,7.90442, 984.076,115.706, 888.167,192.569" />
  <polygon fill="#000000" points="677.399,76.4926, 853.305,14.1261, 971.943,103.104, 899.379,183.584" />
  <polygon fill="#FFFFFF" points="706.257,90.4145, 830.437,22.2338, 956.52,91.5372, 908.812,173.122" />
  <polygon fill="#000000" points="812.667,31.9904, 938.478,81.6199, 915.639,161.447, 735.242,102.25" />
  <polygon fill="#FFFFFF" points="800.573,42.965, 918.826,73.8678, 919.206,148.978, 763.42,111.496" />
  <polygon fill="#000000" points="794.283,54.5673, 898.806,68.6359, 919.142,136.262, 789.795,117.842" />
  <polygon fill="#FFFFFF" points="793.465,66.1086, 879.741,66.0698, 915.433,123.927, 813.388,121.202" />
  <!-- Shape 15 -->
  <polygon fill="#FFFFFF" points="842.304,213.418, 1000,163.889, 1000,249.306, 956.944,300" />
  <polygon fill="#000000" points="854.57,222.682, 983.127,169.189, 1000,240.166, 961.551,294.576" />
  <polygon fill="#FFFFFF" points="867.199,231.169, 967.95,175.503, 998.008,231.787, 966.09,288.153" />
  <polygon fill="#000000" points="954.943,182.69, 994.128,224.521, 970.211,280.876, 879.966,238.526" />
  <polygon fill="#FFFFFF" points="944.435,190.515, 988.636,218.658, 973.563,272.978, 892.614,244.461" />
  <polygon fill="#000000" points="936.6,198.672, 981.953,214.403, 975.842,264.765, 904.853,248.773" />
  <polygon fill="#FFFFFF" points="931.449,206.801, 974.594,211.851, 976.833,256.593, 916.371,251.368" />
</svg>
