<?xml version="1.0" standalone="no"?>
<!DOCTYPE svg PUBLIC "-//W3C//DTD SVG 1.1//EN" "http://www.w3.org/Graphics/SVG/1.1/DTD/svg11.dtd">
<svg viewBox="0, 0, 1000, 300" xmlns="http://www.w3.org/2000/svg" version="1.1">
  <!-- Shape 1 -->
  <polygon fill="#000000" points="598.739,29.467, 956.944,300, 647.222,300" />
  <polygon fill="#FFFFFF" points="620.589,45.9695, 938.051,300, 644.265,283.497" />
  <polygon fill="#000000" points="642.685,63.6501, 917.604,298.851, 642.617,266.966" />
  <polygon fill="#FFFFFF" points="664.183,82.0428, 896.1,296.358, 642.622,251.066" />
  <polygon fill="#000000" points="684.314,100.645, 874.098,292.427, 644.494,236.395" />
  <polygon fill="#FFFFFF" points="702.419,118.941, 852.194,287.081, 648.293,223.445" />
  <polygon fill="#000000" points="717.996,136.428, 830.988,280.463, 653.922,212.576" />
  <polygon fill="#FFFFFF" points="661.136,204.002, 730.719,152.646, 811.05,272.819" />
  <polygon fill="#000000" points="669.57,197.778, 740.455,167.211, 792.881,264.478" />
  <polygon fill="#FFFFFF" points="678.771,193.81, 747.26,179.836, 776.875,255.821" />
  <polygon fill="#000000" points="688.25,191.876, 751.358,190.353, 763.297,247.238" />
  <polygon fill="#FFFFFF" points="697.527,191.652, 753.113,198.715, 752.265,239.1" />
  <polygon fill="#000000" points="706.176,192.751, 752.982,204.999, 743.748,231.717" />
  <polygon fill="#FFFFFF" points="713.861,194.762, 751.465,209.386, 737.579,225.319" />
  <polygon fill="#000000" points="720.359,197.289, 749.066,212.139, 733.48,220.039" />
  <polygon fill="#FFFFFF" points="725.567,199.983, 746.239,213.572, 731.1,215.912" />
  <polygon fill="#000000" points="729.494,202.565, 743.362,214.017, 730.049,212.885" />
  <polygon fill="#FFFFFF" points="732.249,204.839, 740.718,213.792, 729.939,210.836" />
  <polygon fill="#000000" points="730.417,209.593, 734.003,206.694, 738.485,213.179" />
  <polygon fill="#FFFFFF" points="731.191,208.968, 734.97,208.094, 736.744,212.406" />
  <polygon fill="#000000" points="732.039,208.772, 735.368,209.061, 735.498,211.634" />
  <polygon fill="#FFFFFF" points="732.815,208.839, 735.399,209.661, 734.692,210.967" />
  <polygon fill="#000000" points="733.439,209.038, 735.228,209.976, 734.238,210.453" />
  <polygon fill="#FFFFFF" points="733.887,209.273, 734.98,210.096, 734.038,210.099" />
  <polygon fill="#000000" points="734.17,209.486, 734.737,210.096, 733.999,209.885" />
  <polygon fill="#FFFFFF" points="734.045,209.778, 734.321,209.649, 734.539,210.04" />
  <polygon fill="#000000" points="734.121,209.743, 734.381,209.757, 734.403,209.968" />
  <polygon fill="#FFFFFF" points="734.195,209.747, 734.388,209.817, 734.323,209.904" />
  <polygon fill="#000000" points="734.252,209.767, 734.369,209.842, 734.285,209.858" />
  <polygon fill="#FFFFFF" points="734.287,209.79, 734.343,209.847, 734.275,209.83" />
  <polygon fill="#000000" points="734.279,209.818, 734.304,209.808, 734.322,209.842" />
  <polygon fill="#FFFFFF" points="734.287,209.814, 734.31,209.818, 734.308,209.834" />
  <polygon fill="#000000" points="734.295,209.816, 734.31,209.824, 734.301,209.828" />
  <polygon fill="#FFFFFF" points="734.3,209.818, 734.307,209.825, 734.299,209.824" />
  <polygon fill="#000000" points="734.299,209.822, 734.302,209.821, 734.304,209.825" />
  <polygon fill="#FFFFFF" points="734.3,209.821, 734.303,209.822, 734.302,209.824" />
  <polygon fill="#000000" points="734.302,209.823, 734.303,209.823, 734.301,209.822" />
  <polygon fill="#FFFFFF" points="734.302,209.823, 734.301,209.822, 734.302,209.822" />
  <polygon fill="#000000" points="734.302,209.822, 734.302,209.822, 734.302,209.822" />
  <polygon fill="#FFFFFF" points="734.302,209.822, 734.302,209.822, 734.302,209.822" />
  <polygon fill="#000000" points="734.302,209.822, 734.302,209.822, 734.302,209.822" />
  <polygon fill="#FFFFFF" points="734.302,209.822, 734.302,209.822, 734.302,209.822" />
  <polygon fill="#000000" points="734.302,209.822, 734.302,209.822, 734.302,209.822" />
  <polygon fill="#FFFFFF" points="734.302,209.822, 734.302,209.822, 734.302,209.822" />
  <polygon fill="#000000" points="734.302,209.822, 734.302,209.822, 734.302,209.822" />
  <!-- Shape 2 -->
  <polygon fill="#000000" points="570.192,214.436, 613.266,110.528, 647.222,300, 593.056,300" />
  <polygon fill="#FFFFFF" points="575.899,200.668, 617.765,135.633, 640.045,300, 590.026,288.663" />
  <polygon fill="#000000" points="581.991,191.206, 621.007,159.549, 632.767,298.35, 587.971,275.86" />
  <polygon fill="#FFFFFF" points="588.175,186.188, 622.871,181.549, 625.667,294.786, 587.023,262.442" />
  <polygon fill="#000000" points="594.125,185.392, 623.351,200.969, 619.04,289.239, 587.22,249.364" />
  <polygon fill="#FFFFFF" points="599.517,188.266, 622.555,217.255, 613.169,281.882, 588.494,237.562" />
  <polygon fill="#000000" points="590.671,227.826, 604.067,193.991, 620.701,230.019, 608.296,273.129" />
  <polygon fill="#FFFFFF" points="593.491,220.704, 607.569,201.575, 618.09,239.093, 604.586,263.592" />
  <polygon fill="#000000" points="596.638,216.428, 609.92,209.96, 615.072,244.569, 602.106,254.007" />
  <polygon fill="#FFFFFF" points="599.779,214.899, 611.139,218.145, 612.005,246.801, 600.813,245.119" />
  <polygon fill="#000000" points="602.613,215.709, 611.355,225.295, 609.213,246.381, 600.555,237.579" />
  <polygon fill="#FFFFFF" points="604.908,218.225, 610.793,230.83, 606.94,244.071, 601.095,231.838" />
  <polygon fill="#000000" points="602.146,228.088, 606.529,221.698, 609.731,234.478, 605.33,240.701" />
  <polygon fill="#FFFFFF" points="603.41,226.244, 607.453,225.385, 608.461,236.273, 604.411,237.062" />
  <polygon fill="#000000" points="604.629,225.985, 607.757,228.668, 607.24,236.511, 604.109,233.8" />
  <polygon fill="#FFFFFF" points="605.613,226.829, 607.595,231.134, 606.256,235.659, 604.273,231.343" />
  <polygon fill="#000000" points="604.712,229.864, 606.262,228.239, 607.156,232.616, 605.606,234.245" />
  <polygon fill="#FFFFFF" points="605.24,229.311, 606.566,229.729, 606.628,233.171, 605.302,232.753" />
  <polygon fill="#000000" points="605.709,229.459, 606.588,230.946, 606.159,233.023, 605.28,231.536" />
  <polygon fill="#FFFFFF" points="605.437,230.775, 606.031,230.004, 606.431,231.707, 605.837,232.478" />
  <polygon fill="#000000" points="605.662,230.482, 606.183,230.65, 606.206,232, 605.685,231.832" />
  <polygon fill="#FFFFFF" points="605.867,230.548, 606.192,231.18, 606.001,231.934, 605.676,231.302" />
  <polygon fill="#000000" points="605.753,230.996, 605.998,230.804, 606.115,231.486, 605.869,231.678" />
  <polygon fill="#FFFFFF" points="605.856,230.916, 606.047,231.09, 606.012,231.566, 605.821,231.393" />
  <polygon fill="#000000" points="605.836,231.187, 605.938,230.991, 606.032,231.295, 605.93,231.491" />
  <polygon fill="#FFFFFF" points="605.882,231.1, 605.98,231.126, 605.986,231.382, 605.888,231.356" />
  <polygon fill="#000000" points="605.885,231.239, 605.927,231.112, 605.983,231.243, 605.941,231.37" />
  <polygon fill="#FFFFFF" points="605.905,231.179, 605.953,231.174, 605.963,231.303, 605.915,231.308" />
  <polygon fill="#000000" points="605.928,231.177, 605.958,231.236, 605.94,231.306, 605.91,231.246" />
  <polygon fill="#FFFFFF" points="605.919,231.211, 605.943,231.206, 605.949,231.271, 605.925,231.276" />
  <polygon fill="#000000" points="605.931,231.209, 605.946,231.239, 605.937,231.273, 605.922,231.243" />
  <polygon fill="#FFFFFF" points="605.927,231.225, 605.939,231.225, 605.941,231.257, 605.929,231.258" />
  <polygon fill="#000000" points="605.928,231.24, 605.933,231.225, 605.94,231.242, 605.935,231.257" />
  <polygon fill="#FFFFFF" points="605.931,231.232, 605.937,231.234, 605.937,231.25, 605.931,231.248" />
  <polygon fill="#000000" points="605.931,231.239, 605.934,231.233, 605.937,231.243, 605.934,231.249" />
  <polygon fill="#FFFFFF" points="605.933,231.236, 605.936,231.239, 605.935,231.247, 605.932,231.243" />
  <polygon fill="#000000" points="605.932,231.239, 605.935,231.238, 605.935,231.243, 605.933,231.245" />
  <polygon fill="#FFFFFF" points="605.933,231.241, 605.934,231.238, 605.935,231.241, 605.934,231.244" />
  <polygon fill="#000000" points="605.933,231.239, 605.935,231.24, 605.935,231.243, 605.933,231.242" />
  <polygon fill="#FFFFFF" points="605.934,231.24, 605.933,231.24, 605.935,231.242, 605.934,231.243" />
  <polygon fill="#000000" points="605.934,231.242, 605.934,231.241, 605.934,231.241, 605.934,231.24" />
  <polygon fill="#FFFFFF" points="605.934,231.24, 605.934,231.241, 605.934,231.242, 605.934,231.242" />
  <polygon fill="#000000" points="605.934,231.242, 605.934,231.241, 605.934,231.241, 605.934,231.241" />
  <polygon fill="#FFFFFF" points="605.934,231.241, 605.934,231.241, 605.934,231.241, 605.934,231.241" />
  <polygon fill="#000000" points="605.934,231.241, 605.934,231.241, 605.934,231.241, 605.934,231.241" />
  <polygon fill="#FFFFFF" points="605.934,231.241, 605.934,231.241, 605.934,231.241, 605.934,231.241" />
  <polygon fill="#000000" points="605.934,231.241, 605.934,231.241, 605.934,231.241, 605.934,231.241" />
  <polygon fill="#FFFFFF" points="605.934,231.241, 605.934,231.241, 605.934,231.241, 605.934,231.241" />
  <polygon fill="#000000" points="605.934,231.241, 605.934,231.241, 605.934,231.241, 605.934,231.241" />
  <!-- Shape 3 -->
  <!-- Shape 4 -->
  <polygon fill="#000000" points="0,0, 343.056,0, 396.429,120.753, 275.711,300, 0,300" />
  <polygon fill="#FFFFFF" points="22.8132,0, 346.605,8.03007, 388.402,132.673, 257.376,300, 0,280.05" />
  <polygon fill="#000000" points="45.511,0.562908, 349.535,16.7675, 379.217,144.402, 239.334,298.602, 1.5992,260.418" />
  <polygon fill="#FFFFFF" points="67.9176,1.75719, 351.722,26.1742, 368.907,155.767, 221.813,295.787, 4.8355,241.267" />
  <polygon fill="#000000" points="89.8557,3.64463, 353.051,36.1917, 357.537,166.591, 205.041,291.573, 9.71175,222.753" />
  <polygon fill="#FFFFFF" points="111.148,6.27769, 353.414,46.741, 345.2,176.702, 189.239,286.005, 16.1954,205.027" />
  <polygon fill="#000000" points="131.62,9.69684, 352.72,57.7227, 332.021,185.938, 174.617,279.163, 24.2189,188.233" />
  <polygon fill="#FFFFFF" points="151.099,13.9279, 350.896,69.0184, 318.154,194.151, 161.367,271.152, 33.6809,172.504" />
  <polygon fill="#000000" points="169.42,18.9797, 347.894,80.4931, 303.777,201.212, 149.658,262.106, 44.4481,157.962" />
  <polygon fill="#FFFFFF" points="186.429,24.8419, 343.689,91.9976, 289.089,207.015, 139.631,252.181, 56.3579,144.717" />
  <polygon fill="#000000" points="69.2219,132.862, 201.982,31.4836, 338.289,103.373, 274.308,211.482, 131.396,241.553" />
  <polygon fill="#FFFFFF" points="82.8298,122.47, 215.953,38.8523, 331.731,114.454, 259.659,214.564, 125.023,230.412" />
  <polygon fill="#000000" points="96.9542,113.599, 228.237,46.8736, 324.084,125.076, 245.374,216.246, 120.546,218.959" />
  <polygon fill="#FFFFFF" points="111.356,106.279, 238.752,55.4524, 315.45,135.077, 231.681,216.543, 117.958,207.401" />
  <polygon fill="#000000" points="125.79,100.52, 247.442,64.4739, 305.959,144.307, 218.796,215.508, 117.21,195.944" />
  <polygon fill="#FFFFFF" points="140.011,96.3064, 254.282,73.8064, 295.77,152.631, 206.92,213.221, 118.213,184.789" />
  <polygon fill="#000000" points="153.781,93.5951, 259.281,83.3047, 285.063,159.932, 196.231,209.795, 120.84,174.127" />
  <polygon fill="#FFFFFF" points="166.873,92.3181, 262.481,92.8141, 274.039,166.12, 186.875,205.368, 124.928,164.133" />
  <polygon fill="#000000" points="179.082,92.3814, 263.957,102.175, 262.908,171.132, 178.964,200.102, 130.284,154.962" />
  <polygon fill="#FFFFFF" points="190.226,93.6673, 263.819,111.229, 251.886,174.936, 172.573,194.176, 136.691,146.745" />
  <polygon fill="#000000" points="143.913,139.585, 200.154,96.0364, 262.21,119.823, 241.187,177.531, 167.732,187.777" />
  <polygon fill="#FFFFFF" points="151.703,133.554, 208.749,99.3309, 259.298,127.816, 231.014,178.95, 164.433,181.103" />
  <polygon fill="#000000" points="159.809,128.691, 215.932,103.379, 255.279,135.082, 221.553,179.256, 162.624,174.346" />
  <polygon fill="#FFFFFF" points="167.986,125.003, 221.665,107.998, 250.365,141.518, 212.967,178.541, 162.214,167.694" />
  <polygon fill="#000000" points="176,122.464, 225.95,113.002, 244.781,147.046, 205.389,176.921, 163.076,161.32" />
  <polygon fill="#FFFFFF" points="183.637,121.017, 228.829,118.208, 238.758,151.614, 198.92,174.536, 165.052,155.379" />
  <polygon fill="#000000" points="190.71,120.577, 230.383,123.436, 232.523,155.201, 193.619,171.538, 167.961,150.001" />
  <polygon fill="#FFFFFF" points="197.062,121.035, 230.726,128.521, 226.295,157.816, 189.511,168.09, 171.603,145.291" />
  <polygon fill="#000000" points="175.77,141.32, 202.572,122.261, 230,133.317, 220.273,159.498, 186.58,164.358" />
  <polygon fill="#FFFFFF" points="180.254,138.131, 207.161,124.11, 228.373,137.697, 214.636,160.311, 184.771,160.503" />
  <polygon fill="#000000" points="184.853,135.735, 210.786,126.432, 226.025,141.562, 209.533,160.344, 183.999,156.68" />
  <polygon fill="#FFFFFF" points="189.378,134.112, 213.445,129.072, 223.147,144.839, 205.077,159.705, 184.148,153.025" />
  <polygon fill="#000000" points="193.664,133.214, 215.173,131.88, 219.929,147.487, 201.35,158.515, 185.08,149.657" />
  <polygon fill="#FFFFFF" points="197.573,132.972, 216.037,134.716, 216.553,149.491, 198.393,156.905, 186.64,146.669" />
  <polygon fill="#000000" points="188.665,144.131, 200.994,133.295, 216.133,137.454, 213.188,150.865, 196.215,155.009" />
  <polygon fill="#FFFFFF" points="190.994,142.084, 203.854,134.081, 215.577,139.987, 209.982,151.647, 194.789,152.954" />
  <polygon fill="#000000" points="193.47,140.543, 206.111,135.218, 214.5,142.232, 207.057,151.899, 194.059,150.861" />
  <polygon fill="#FFFFFF" points="195.949,139.499, 207.756,136.593, 213.04,144.127, 204.508,151.695, 193.943,148.838" />
  <polygon fill="#000000" points="198.307,138.919, 208.811,138.098, 211.336,145.639, 202.398,151.125, 194.344,146.973" />
  <polygon fill="#FFFFFF" points="200.442,138.752, 209.324,139.631, 209.519,146.754, 200.761,150.281, 195.149,145.336" />
  <polygon fill="#000000" points="196.244,143.973, 202.28,138.934, 209.365,141.105, 207.707,147.484, 199.6,149.258" />
  <polygon fill="#FFFFFF" points="197.515,142.913, 203.771,139.391, 209.016,142.447, 206.001,147.857, 198.894,148.145" />
  <polygon fill="#000000" points="198.854,142.158, 204.894,140.045, 208.37,143.606, 204.479,147.919, 198.598,147.025" />
  <polygon fill="#FFFFFF" points="200.169,141.698, 205.651,140.82, 207.523,144.545, 203.199,147.724, 198.654,145.966" />
  <polygon fill="#000000" points="201.382,141.504, 206.065,141.644, 206.566,145.248, 202.193,147.335, 198.989,145.021" />
  <polygon fill="#FFFFFF" points="202.435,141.536, 206.178,142.455, 205.583,145.718, 201.473,146.815, 199.528,144.23" />
  <polygon fill="#000000" points="200.192,143.614, 203.291,141.746, 206.042,143.2, 204.644,145.968, 201.028,146.224" />
  <polygon fill="#FFFFFF" points="200.911,143.181, 203.929,142.083, 205.717,143.843, 203.804,146.028, 200.834,145.618" />
  <polygon fill="#000000" points="201.623,142.922, 204.351,142.498, 205.266,144.358, 203.104,145.931, 200.852,145.044" />
  <polygon fill="#FFFFFF" points="202.275,142.821, 204.57,142.943, 204.749,144.734, 202.565,145.719, 201.037,144.536" />
  <polygon fill="#000000" points="201.337,144.119, 202.833,142.85, 204.613,143.378, 204.219,144.973, 202.194,145.432" />
  <polygon fill="#FFFFFF" points="201.706,143.807, 203.272,142.98, 204.516,143.771, 203.72,145.086, 201.983,145.108" />
  <polygon fill="#000000" points="202.098,143.6, 203.583,143.178, 204.317,144.1, 203.285,145.092, 201.914,144.783" />
  <polygon fill="#FFFFFF" points="202.474,143.493, 203.769,143.412, 204.055,144.352, 202.937,145.013, 201.96,144.483" />
  <polygon fill="#000000" points="202.808,143.472, 203.843,143.654, 203.767,144.522, 202.686,144.877, 202.093,144.228" />
  <polygon fill="#FFFFFF" points="202.279,144.031, 203.078,143.52, 203.823,143.88, 203.485,144.615, 202.531,144.708" />
  <polygon fill="#000000" points="202.49,143.896, 203.275,143.615, 203.734,144.075, 203.233,144.639, 202.464,144.529" />
  <polygon fill="#FFFFFF" points="202.701,143.82, 203.398,143.738, 203.599,144.226, 203.027,144.61, 202.471,144.359" />
  <polygon fill="#000000" points="202.89,143.798, 203.453,143.871, 203.444,144.33, 202.876,144.541, 202.534,144.213" />
  <polygon fill="#FFFFFF" points="202.632,144.098, 203.045,143.818, 203.45,143.997, 203.288,144.388, 202.782,144.451" />
  <polygon fill="#000000" points="202.747,144.02, 203.158,143.868, 203.405,144.106, 203.146,144.406, 202.74,144.353" />
  <polygon fill="#FFFFFF" points="202.863,143.977, 203.228,143.935, 203.332,144.191, 203.032,144.391, 202.742,144.259" />
  <polygon fill="#000000" points="202.967,143.965, 203.257,144.008, 203.246,144.248, 202.949,144.353, 202.777,144.178" />
  <polygon fill="#FFFFFF" points="202.832,144.116, 203.051,143.978, 203.254,144.078, 203.16,144.278, 202.899,144.302" />
  <polygon fill="#000000" points="202.896,144.076, 203.111,144.007, 203.226,144.137, 203.083,144.285, 202.879,144.248" />
  <polygon fill="#FFFFFF" points="202.96,144.055, 203.145,144.046, 203.184,144.181, 203.023,144.274, 202.884,144.197" />
  <polygon fill="#000000" points="203.016,144.052, 203.157,144.086, 203.136,144.209, 202.981,144.251, 202.907,144.154" />
  <polygon fill="#FFFFFF" points="202.94,144.123, 203.059,144.063, 203.15,144.124, 203.089,144.222, 202.959,144.222" />
  <polygon fill="#000000" points="202.977,144.105, 203.087,144.081, 203.131,144.154, 203.049,144.222, 202.953,144.191" />
  <polygon fill="#FFFFFF" points="203.011,144.097, 203.101,144.104, 203.106,144.175, 203.019,144.212, 202.96,144.164" />
  <polygon fill="#000000" points="202.976,144.143, 203.039,144.1, 203.102,144.126, 203.078,144.187, 203,144.197" />
  <polygon fill="#FFFFFF" points="202.996,144.129, 203.059,144.108, 203.095,144.146, 203.053,144.19, 202.993,144.18" />
  <polygon fill="#000000" points="203.017,144.122, 203.071,144.12, 203.081,144.16, 203.034,144.187, 202.994,144.164" />
  <polygon fill="#FFFFFF" points="203.001,144.15, 203.034,144.122, 203.074,144.133, 203.066,144.169, 203.021,144.179" />
  <polygon fill="#000000" points="203.012,144.141, 203.047,144.125, 203.071,144.145, 203.051,144.172, 203.014,144.17" />
  <polygon fill="#FFFFFF" points="203.024,144.136, 203.055,144.132, 203.065,144.154, 203.039,144.171, 203.014,144.16" />
  <polygon fill="#000000" points="203.034,144.134, 203.058,144.139, 203.056,144.16, 203.03,144.168, 203.017,144.152" />
  <polygon fill="#FFFFFF" points="203.023,144.146, 203.043,144.136, 203.058,144.146, 203.047,144.162, 203.026,144.162" />
  <polygon fill="#000000" points="203.03,144.143, 203.048,144.14, 203.054,144.152, 203.04,144.162, 203.025,144.157" />
  <polygon fill="#FFFFFF" points="203.036,144.142, 203.05,144.144, 203.049,144.155, 203.035,144.16, 203.027,144.152" />
  <polygon fill="#000000" points="203.03,144.148, 203.041,144.142, 203.05,144.148, 203.044,144.157, 203.032,144.157" />
  <polygon fill="#FFFFFF" points="203.034,144.146, 203.044,144.144, 203.048,144.151, 203.04,144.157, 203.031,144.154" />
  <polygon fill="#000000" points="203.037,144.145, 203.045,144.147, 203.045,144.153, 203.037,144.156, 203.032,144.151" />
  <polygon fill="#FFFFFF" points="203.034,144.149, 203.04,144.146, 203.045,144.149, 203.042,144.154, 203.035,144.154" />
  <polygon fill="#000000" points="203.036,144.148, 203.042,144.147, 203.044,144.151, 203.039,144.154, 203.035,144.152" />
  <polygon fill="#FFFFFF" points="203.038,144.148, 203.043,144.149, 203.042,144.152, 203.038,144.154, 203.035,144.151" />
  <polygon fill="#000000" points="203.036,144.15, 203.04,144.148, 203.043,144.15, 203.041,144.153, 203.037,144.153" />
  <polygon fill="#FFFFFF" points="203.038,144.149, 203.041,144.149, 203.042,144.151, 203.039,144.153, 203.037,144.151" />
  <polygon fill="#000000" points="203.037,144.151, 203.039,144.149, 203.041,144.15, 203.041,144.152, 203.038,144.152" />
  <polygon fill="#FFFFFF" points="203.038,144.15, 203.04,144.149, 203.041,144.15, 203.04,144.152, 203.038,144.152" />
  <polygon fill="#000000" points="203.039,144.15, 203.04,144.15, 203.041,144.151, 203.039,144.152, 203.038,144.151" />
  <polygon fill="#FFFFFF" points="203.038,144.15, 203.039,144.15, 203.04,144.15, 203.04,144.151, 203.038,144.151" />
  <polygon fill="#000000" points="203.039,144.15, 203.04,144.15, 203.04,144.151, 203.039,144.151, 203.038,144.151" />
  <polygon fill="#FFFFFF" points="203.039,144.15, 203.04,144.15, 203.04,144.151, 203.039,144.151, 203.038,144.151" />
  <polygon fill="#000000" points="203.039,144.15, 203.039,144.15, 203.04,144.15, 203.04,144.151, 203.039,144.151" />
  <polygon fill="#FFFFFF" points="203.039,144.15, 203.04,144.15, 203.04,144.151, 203.039,144.151, 203.039,144.151" />
  <polygon fill="#000000" points="203.039,144.15, 203.04,144.15, 203.04,144.151, 203.039,144.151, 203.039,144.151" />
  <polygon fill="#FFFFFF" points="203.039,144.151, 203.039,144.151, 203.039,144.15, 203.04,144.151, 203.039,144.15" />
  <polygon fill="#000000" points="203.04,144.15, 203.039,144.151, 203.039,144.15, 203.039,144.151, 203.039,144.151" />
  <polygon fill="#FFFFFF" points="203.039,144.151, 203.039,144.151, 203.039,144.151, 203.039,144.151, 203.039,144.15" />
  <polygon fill="#000000" points="203.039,144.151, 203.039,144.151, 203.039,144.151, 203.039,144.151, 203.039,144.151" />
  <polygon fill="#FFFFFF" points="203.039,144.151, 203.039,144.151, 203.039,144.151, 203.039,144.151, 203.039,144.151" />
  <polygon fill="#000000" points="203.039,144.151, 203.039,144.151, 203.039,144.151, 203.039,144.151, 203.039,144.151" />
  <polygon fill="#FFFFFF" points="203.039,144.151, 203.039,144.151, 203.039,144.151, 203.039,144.151, 203.039,144.151" />
  <polygon fill="#000000" points="203.039,144.151, 203.039,144.151, 203.039,144.151, 203.039,144.151, 203.039,144.151" />
  <polygon fill="#FFFFFF" points="203.039,144.151, 203.039,144.151, 203.039,144.151, 203.039,144.151, 203.039,144.151" />
  <polygon fill="#000000" points="203.039,144.151, 203.039,144.151, 203.039,144.151, 203.039,144.151, 203.039,144.151" />
  <!-- Shape 5 -->
  <polygon fill="#000000" points="343.056,0, 461.806,0, 367.416,55.1133" />
  <polygon fill="#FFFFFF" points="357.306,0, 450.479,6.6136, 364.493,48.4997" />
  <polygon fill="#000000" points="369.814,0.887875, 438.935,12.2368, 363.528,41.9886" />
  <polygon fill="#FFFFFF" points="380.079,2.57319, 427.737,16.6549, 364.461,35.8852" />
  <polygon fill="#000000" points="387.835,4.865, 417.439,19.7847, 367.003,30.4636" />
  <polygon fill="#FFFFFF" points="393.075,7.50578, 408.512,21.6748, 370.69,25.9327" />
  <polygon fill="#000000" points="396.027,10.2156, 401.279,22.4892, 374.971,22.4085" />
  <polygon fill="#FFFFFF" points="397.106,12.7378, 395.872,22.4726, 379.298,19.9029" />
  <polygon fill="#000000" points="383.212,18.3284, 396.835,14.877, 392.23,21.9079" />
  <polygon fill="#FFFFFF" points="386.4,17.5208, 395.758,16.5223, 390.12,21.0703" />
  <polygon fill="#000000" points="388.723,17.2729, 394.358,17.6513, 389.196,20.1891" />
  <polygon fill="#FFFFFF" points="390.202,17.3722, 393.003,18.3175, 389.072,19.4236" />
  <polygon fill="#000000" points="390.977,17.6338, 391.915,18.6236, 389.385,18.8559" />
  <polygon fill="#FFFFFF" points="391.25,17.9218, 391.179,18.6912, 389.848,18.5003" />
  <polygon fill="#000000" points="390.276,18.3237, 391.228,18.1567, 390.773,18.6329" />
  <polygon fill="#FFFFFF" points="390.58,18.2703, 391.083,18.3088, 390.614,18.5341" />
  <polygon fill="#000000" points="390.748,18.2832, 390.926,18.384, 390.603,18.4461" />
  <polygon fill="#FFFFFF" points="390.81,18.3183, 390.814,18.4056, 390.653,18.3894" />
  <polygon fill="#000000" points="390.71,18.3636, 390.811,18.3499, 390.756,18.3997" />
  <polygon fill="#FFFFFF" points="390.748,18.3585, 390.79,18.3687, 390.739,18.3861" />
  <polygon fill="#000000" points="390.765,18.3625, 390.77,18.3755, 390.742,18.3753" />
  <polygon fill="#FFFFFF" points="390.751,18.3701, 390.767,18.3677, 390.759,18.3754" />
  <polygon fill="#000000" points="390.758,18.3691, 390.764,18.371, 390.756,18.3732" />
  <polygon fill="#FFFFFF" points="390.76,18.3699, 390.76,18.3719, 390.757,18.3714" />
  <polygon fill="#000000" points="390.758,18.3708, 390.76,18.3708, 390.759,18.3717" />
  <polygon fill="#FFFFFF" points="390.759,18.3708, 390.76,18.3712, 390.758,18.3713" />
  <polygon fill="#000000" points="390.759,18.371, 390.759,18.371, 390.759,18.3713" />
  <polygon fill="#FFFFFF" points="390.759,18.3712, 390.759,18.3711, 390.759,18.371" />
  <polygon fill="#000000" points="390.759,18.3711, 390.759,18.3711, 390.759,18.3711" />
  <polygon fill="#FFFFFF" points="390.759,18.3711, 390.759,18.3711, 390.759,18.3711" />
  <polygon fill="#000000" points="390.759,18.3711, 390.759,18.3711, 390.759,18.3711" />
  <polygon fill="#FFFFFF" points="390.759,18.3711, 390.759,18.3711, 390.759,18.3711" />
  <polygon fill="#000000" points="390.759,18.3711, 390.759,18.3711, 390.759,18.3711" />
  <polygon fill="#FFFFFF" points="390.759,18.3711, 390.759,18.3711, 390.759,18.3711" />
  <polygon fill="#000000" points="390.759,18.3711, 390.759,18.3711, 390.759,18.3711" />
  <!-- Shape 6 -->
  <!-- Shape 7 -->
  <polygon fill="#000000" points="367.416,55.1133, 413.629,28.1302, 388.091,101.888" />
  <polygon fill="#FFFFFF" points="376.22,49.973, 408.764,42.181, 384.152,92.977" />
  <polygon fill="#000000" points="382.419,48.4886, 404.075,51.8576, 382.641,84.7848" />
  <polygon fill="#FFFFFF" points="386.545,49.1304, 399.992,58.1302, 382.599,77.8704" />
  <polygon fill="#000000" points="389.106,50.8449, 396.679,61.8907, 383.351,72.3954" />
  <polygon fill="#FFFFFF" points="390.549,52.9491, 394.14,63.8919, 384.447,68.29" />
  <polygon fill="#000000" points="391.233,55.0337, 392.293,64.7297, 385.609,65.3676" />
  <polygon fill="#FFFFFF" points="391.435,56.8808, 391.02,64.8512, 386.681,63.399" />
  <polygon fill="#000000" points="391.356,58.3992, 390.193,64.5746, 387.586,62.1573" />
  <polygon fill="#FFFFFF" points="388.304,61.4413, 391.134,59.5756, 389.697,64.1141" />
  <polygon fill="#000000" points="388.844,61.0859, 390.86,60.4402, 389.431,63.6049" />
  <polygon fill="#FFFFFF" points="389.228,60.9629, 390.588,61.0431, 389.319,63.1251" />
  <polygon fill="#000000" points="389.487,60.9782, 390.347,61.4397, 389.302,62.7132" />
  <polygon fill="#FFFFFF" points="389.651,61.0661, 390.148,61.6823, 389.337,62.3826" />
  <polygon fill="#000000" points="389.745,61.1835, 389.993,61.8157, 389.397,62.1318" />
  <polygon fill="#FFFFFF" points="389.793,61.3039, 389.88,61.8759, 389.463,61.9512" />
  <polygon fill="#000000" points="389.809,61.4129, 389.8,61.8903, 389.526,61.8279" />
  <polygon fill="#FFFFFF" points="389.807,61.5038, 389.748,61.8784, 389.58,61.7488" />
  <polygon fill="#000000" points="389.623,61.7021, 389.796,61.5752, 389.716,61.8537" />
  <polygon fill="#FFFFFF" points="389.656,61.678, 389.781,61.6282, 389.698,61.8248" />
  <polygon fill="#000000" points="389.68,61.6685, 389.765,61.6657, 389.69,61.7968" />
  <polygon fill="#FFFFFF" points="389.696,61.6679, 389.751,61.6907, 389.688,61.7724" />
  <polygon fill="#000000" points="389.707,61.6723, 389.739,61.7062, 389.69,61.7525" />
  <polygon fill="#FFFFFF" points="389.713,61.6787, 389.73,61.715, 389.693,61.7372" />
  <polygon fill="#000000" points="389.716,61.6857, 389.723,61.7193, 389.697,61.7261" />
  <polygon fill="#FFFFFF" points="389.717,61.6921, 389.718,61.7206, 389.7,61.7184" />
  <polygon fill="#000000" points="389.717,61.6975, 389.714,61.7202, 389.704,61.7134" />
  <polygon fill="#FFFFFF" points="389.717,61.7018, 389.712,61.7189, 389.706,61.7103" />
  <polygon fill="#000000" points="389.708,61.7087, 389.716,61.7051, 389.711,61.7172" />
  <polygon fill="#FFFFFF" points="389.71,61.708, 389.715,61.7074, 389.711,61.7156" />
  <polygon fill="#000000" points="389.711,61.7079, 389.714,61.7089, 389.711,61.7142" />
  <polygon fill="#FFFFFF" points="389.711,61.7081, 389.714,61.7099, 389.711,61.713" />
  <polygon fill="#000000" points="389.712,61.7084, 389.713,61.7105, 389.711,61.712" />
  <polygon fill="#FFFFFF" points="389.712,61.7088, 389.713,61.7108, 389.711,61.7114" />
  <polygon fill="#000000" points="389.712,61.7092, 389.712,61.7109, 389.711,61.7109" />
  <polygon fill="#FFFFFF" points="389.712,61.7095, 389.712,61.7109, 389.711,61.7106" />
  <polygon fill="#000000" points="389.712,61.7098, 389.712,61.7108, 389.711,61.7104" />
  <polygon fill="#FFFFFF" points="389.712,61.71, 389.712,61.7103, 389.712,61.7108" />
  <polygon fill="#000000" points="389.712,61.71, 389.712,61.7104, 389.712,61.7106" />
  <polygon fill="#FFFFFF" points="389.712,61.7105, 389.712,61.7104, 389.712,61.7101" />
  <polygon fill="#000000" points="389.712,61.7103, 389.712,61.7102, 389.712,61.7105" />
  <polygon fill="#FFFFFF" points="389.712,61.7105, 389.712,61.7103, 389.712,61.7102" />
  <polygon fill="#000000" points="389.712,61.7104, 389.712,61.7103, 389.712,61.7103" />
  <polygon fill="#FFFFFF" points="389.712,61.7103, 389.712,61.7103, 389.712,61.7104" />
  <polygon fill="#000000" points="389.712,61.7104, 389.712,61.7103, 389.712,61.7103" />
  <polygon fill="#FFFFFF" points="389.712,61.7104, 389.712,61.7103, 389.712,61.7103" />
  <polygon fill="#000000" points="389.712,61.7104, 389.712,61.7103, 389.712,61.7103" />
  <polygon fill="#FFFFFF" points="389.712,61.7103, 389.712,61.7103, 389.712,61.7104" />
  <polygon fill="#000000" points="389.712,61.7103, 389.712,61.7103, 389.712,61.7104" />
  <polygon fill="#FFFFFF" points="389.712,61.7103, 389.712,61.7103, 389.712,61.7103" />
  <!-- Shape 8 -->
  <!-- Shape 9 -->
  <!-- Shape 10 -->
  <polygon fill="#000000" points="414.148,250.777, 450.817,248.58, 467.361,300, 431.944,300" />
  <polygon fill="#FFFFFF" points="425.332,250.107, 455.863,264.263, 456.559,300, 426.517,284.987" />
  <polygon fill="#000000" points="426.155,274.349, 434.644,254.424, 456.075,275.163, 447.396,295.421" />
  <polygon fill="#FFFFFF" points="428.744,268.272, 441.181,260.75, 453.428,281.342, 440.918,288.994" />
  <polygon fill="#000000" points="432.538,265.977, 444.916,267.03, 449.613,283.676, 437.205,282.674" />
  <polygon fill="#FFFFFF" points="436.313,266.299, 446.349,272.107, 445.828,283.37, 435.781,277.581" />
  <polygon fill="#000000" points="435.943,274.14, 439.374,268.07, 446.19,275.542, 442.764,281.604" />
  <polygon fill="#FFFFFF" points="436.99,272.289, 441.453,270.349, 445.145,277.391, 440.684,279.328" />
  <polygon fill="#000000" points="438.351,271.697, 442.579,272.497, 443.784,277.982, 439.557,277.181" />
  <polygon fill="#FFFFFF" points="439.64,271.941, 442.946,274.17, 442.495,277.738, 439.189,275.508" />
  <polygon fill="#000000" points="439.327,274.42, 440.649,272.621, 442.809,275.258, 441.487,277.058" />
  <polygon fill="#FFFFFF" points="439.73,273.871, 441.308,273.425, 442.406,275.807, 440.828,276.253" />
  <polygon fill="#000000" points="440.211,273.735, 441.642,274.152, 441.924,275.943, 440.493,275.527" />
  <polygon fill="#FFFFFF" points="440.648,273.862, 441.728,274.698, 441.488,275.816, 440.407,274.98" />
  <polygon fill="#000000" points="440.48,274.639, 440.977,274.117, 441.655,275.039, 441.158,275.561" />
  <polygon fill="#FFFFFF" points="440.632,274.48, 441.184,274.398, 441.504,275.198, 440.951,275.28" />
  <polygon fill="#000000" points="440.8,274.455, 441.281,274.642, 441.335,275.223, 440.854,275.036" />
  <polygon fill="#FFFFFF" points="440.947,274.512, 441.298,274.82, 441.188,275.166, 440.838,274.859" />
  <polygon fill="#000000" points="440.871,274.753, 441.054,274.606, 441.264,274.925, 441.081,275.072" />
  <polygon fill="#FFFFFF" points="440.927,274.708, 441.118,274.703, 441.209,274.97, 441.017,274.975" />
  <polygon fill="#000000" points="440.985,274.707, 441.146,274.785, 441.15,274.972, 440.99,274.894" />
  <polygon fill="#FFFFFF" points="440.988,274.837, 441.034,274.731, 441.147,274.842, 441.101,274.948" />
  <polygon fill="#000000" points="441.002,274.804, 441.069,274.764, 441.133,274.874, 441.067,274.914" />
  <polygon fill="#FFFFFF" points="441.023,274.792, 441.088,274.798, 441.113,274.886, 441.047,274.881" />
  <polygon fill="#000000" points="441.043,274.794, 441.096,274.825, 441.093,274.885, 441.04,274.854" />
  <polygon fill="#FFFFFF" points="441.041,274.835, 441.059,274.803, 441.095,274.843, 441.077,274.875" />
  <polygon fill="#000000" points="441.046,274.826, 441.07,274.815, 441.089,274.853, 441.066,274.863" />
  <polygon fill="#FFFFFF" points="441.053,274.823, 441.076,274.827, 441.082,274.856, 441.06,274.852" />
  <polygon fill="#000000" points="441.06,274.824, 441.078,274.836, 441.075,274.855, 441.058,274.843" />
  <polygon fill="#FFFFFF" points="441.059,274.837, 441.066,274.827, 441.077,274.841, 441.07,274.851" />
  <polygon fill="#000000" points="441.061,274.834, 441.069,274.832, 441.075,274.844, 441.066,274.847" />
  <polygon fill="#FFFFFF" points="441.063,274.833, 441.071,274.836, 441.072,274.845, 441.065,274.843" />
  <polygon fill="#000000" points="441.066,274.834, 441.071,274.838, 441.07,274.844, 441.064,274.84" />
  <polygon fill="#FFFFFF" points="441.065,274.838, 441.067,274.835, 441.071,274.84, 441.068,274.843" />
  <polygon fill="#000000" points="441.065,274.837, 441.068,274.837, 441.07,274.841, 441.067,274.842" />
  <polygon fill="#FFFFFF" points="441.066,274.837, 441.069,274.838, 441.069,274.841, 441.067,274.84" />
  <polygon fill="#000000" points="441.067,274.837, 441.069,274.839, 441.068,274.841, 441.067,274.839" />
  <polygon fill="#FFFFFF" points="441.067,274.839, 441.068,274.838, 441.069,274.84, 441.068,274.84" />
  <polygon fill="#000000" points="441.067,274.839, 441.068,274.838, 441.069,274.84, 441.067,274.84" />
  <polygon fill="#FFFFFF" points="441.067,274.839, 441.068,274.839, 441.068,274.84, 441.067,274.839" />
  <polygon fill="#000000" points="441.067,274.839, 441.068,274.839, 441.068,274.839, 441.068,274.84" />
  <polygon fill="#FFFFFF" points="441.067,274.839, 441.068,274.839, 441.068,274.839, 441.068,274.84" />
  <!-- Shape 11 -->
  <!-- Shape 12 -->
  <polygon fill="#000000" points="363.643,169.435, 386.54,174.416, 431.944,300, 275.711,300" />
  <polygon fill="#FFFFFF" points="367.708,170.319, 394.599,196.708, 404.213,300, 291.319,276.825" />
  <polygon fill="#000000" points="372.856,175.371, 396.44,216.483, 382.599,295.563, 305.944,256.434" />
  <polygon fill="#FFFFFF" points="377.7,183.816, 393.597,232.726, 366.854,287.526, 319.687,239.784" />
  <polygon fill="#000000" points="332.413,227.507, 381.187,194.544, 387.731,244.746, 356.508,277.054" />
  <polygon fill="#FFFFFF" points="343.792,219.817, 382.714,206.256, 380.447,252.284, 350.887,265.495" />
  <polygon fill="#000000" points="353.415,216.464, 382.153,217.637, 373.138,255.55, 349.133,254.201" />
  <polygon fill="#FFFFFF" points="360.922,216.77, 379.799,227.54, 366.868,255.198, 350.251,244.344" />
  <polygon fill="#000000" points="366.116,219.733, 376.241,235.15, 362.296,252.211, 353.187,236.757" />
  <polygon fill="#FFFFFF" points="356.925,231.836, 369.043,224.19, 372.209,240.082, 359.662,247.743" />
  <polygon fill="#000000" points="360.597,229.519, 370.002,229.006, 368.407,242.404, 358.833,242.923" />
  <polygon fill="#FFFFFF" points="363.579,229.356, 369.497,233.253, 365.372,242.568, 359.392,238.674" />
  <polygon fill="#000000" points="360.778,235.59, 365.537,230.646, 368.132,236.336, 363.393,241.279" />
  <polygon fill="#FFFFFF" points="362.419,233.885, 366.432,232.609, 366.497,238.041, 362.491,239.317" />
  <polygon fill="#000000" points="363.859,233.427, 366.455,234.558, 365.06,238.499, 362.465,237.368" />
  <polygon fill="#FFFFFF" points="362.985,235.899, 364.827,233.849, 365.935,236.027, 364.092,238.077" />
  <polygon fill="#000000" points="363.697,235.106, 365.256,234.691, 365.222,236.82, 363.664,237.235" />
  <polygon fill="#FFFFFF" points="364.322,234.94, 365.242,235.544, 364.598,236.986, 363.677,236.382" />
  <polygon fill="#000000" points="363.945,235.784, 364.703,235.19, 364.975,236.142, 364.216,236.735" />
  <polygon fill="#FFFFFF" points="364.27,235.529, 364.82,235.598, 364.65,236.396, 364.1,236.328" />
  <polygon fill="#000000" points="364.513,235.56, 364.745,235.951, 364.406,236.366, 364.175,235.974" />
  <polygon fill="#FFFFFF" points="364.329,235.785, 364.619,235.739, 364.59,236.141, 364.301,236.187" />
  <polygon fill="#000000" points="364.466,235.763, 364.605,235.928, 364.454,236.163, 364.314,235.998" />
  <polygon fill="#FFFFFF" points="364.388,235.884, 364.533,235.843, 364.532,236.041, 364.386,236.083" />
  <polygon fill="#000000" points="364.46,235.864, 364.533,235.942, 364.459,236.062, 364.387,235.984" />
  <polygon fill="#FFFFFF" points="364.424,235.922, 364.497,235.904, 364.495,236.003, 364.422,236.022" />
  <polygon fill="#000000" points="364.463,235.913, 364.496,235.956, 364.457,236.013, 364.423,235.97" />
  <polygon fill="#FFFFFF" points="364.445,235.939, 364.481,235.936, 364.475,235.987, 364.439,235.99" />
  <polygon fill="#000000" points="364.442,235.961, 364.465,235.937, 364.478,235.964, 364.455,235.988" />
  <polygon fill="#FFFFFF" points="364.455,235.948, 364.472,235.953, 364.465,235.978, 364.448,235.973" />
  <polygon fill="#000000" points="364.452,235.958, 364.465,235.951, 364.468,235.967, 364.455,235.975" />
  <polygon fill="#FFFFFF" points="364.46,235.954, 364.467,235.961, 364.46,235.972, 364.453,235.965" />
  <polygon fill="#000000" points="364.457,235.958, 364.464,235.958, 364.463,235.968, 364.456,235.968" />
  <polygon fill="#FFFFFF" points="364.457,235.962, 364.461,235.958, 364.463,235.964, 364.458,235.968" />
  <polygon fill="#000000" points="364.46,235.959, 364.462,235.962, 364.46,235.966, 364.457,235.964" />
  <polygon fill="#FFFFFF" points="364.459,235.961, 364.461,235.961, 364.461,235.965, 364.458,235.965" />
  <polygon fill="#000000" points="364.459,235.962, 364.461,235.961, 364.461,235.963, 364.459,235.965" />
  <polygon fill="#FFFFFF" points="364.46,235.961, 364.461,235.963, 364.46,235.964, 364.459,235.963" />
  <polygon fill="#000000" points="364.46,235.962, 364.461,235.962, 364.46,235.964, 364.459,235.963" />
  <!-- Shape 13 -->
  <polygon fill="#FFFFFF" points="1000,249.306, 1000,300, 956.944,300" />
  <polygon fill="#000000" points="1000,259.52, 991.324,300, 965.62,289.785" />
  <polygon fill="#FFFFFF" points="998.252,267.677, 986.145,297.942, 972.548,283.687" />
  <polygon fill="#000000" points="977.727,280.461, 995.812,273.775, 983.405,295.069" />
  <polygon fill="#FFFFFF" points="981.371,279.114, 993.312,278.066, 982.261,292.126" />
  <polygon fill="#000000" points="983.777,278.903, 991.085,280.899, 982.082,289.504" />
  <polygon fill="#FFFFFF" points="985.25,279.305, 989.271,282.633, 982.423,287.368" />
  <polygon fill="#000000" points="986.06,279.976, 987.891,283.587, 982.993,285.743" />
  <polygon fill="#FFFFFF" points="986.429,280.703, 986.904,284.021, 983.611,284.581" />
  <polygon fill="#000000" points="986.525,281.372, 986.241,284.134, 984.179,283.8" />
  <polygon fill="#FFFFFF" points="986.468,281.928, 985.825,284.067, 984.652,283.31" />
  <polygon fill="#000000" points="985.018,283.032, 986.338,282.359, 985.589,283.914" />
  <polygon fill="#FFFFFF" points="985.284,282.896, 986.187,282.673, 985.474,283.737" />
  <polygon fill="#000000" points="985.466,282.851, 986.043,282.887, 985.435,283.567" />
  <polygon fill="#FFFFFF" points="985.582,282.858, 985.921,283.024, 985.441,283.423" />
  <polygon fill="#000000" points="985.65,282.892, 985.824,283.104, 985.47,283.309" />
  <polygon fill="#FFFFFF" points="985.685,282.935, 985.753,283.146, 985.506,283.225" />
  <polygon fill="#000000" points="985.699,282.977, 985.703,283.162, 985.542,283.167" />
  <polygon fill="#FFFFFF" points="985.7,283.014, 985.671,283.163, 985.574,283.128" />
  <polygon fill="#000000" points="985.694,283.044, 985.651,283.156, 985.599,283.105" />
  <polygon fill="#FFFFFF" points="985.618,283.093, 985.685,283.067, 985.641,283.146" />
  <polygon fill="#000000" points="985.632,283.088, 985.676,283.083, 985.636,283.135" />
  <polygon fill="#FFFFFF" points="985.641,283.087, 985.668,283.093, 985.635,283.126" />
  <polygon fill="#000000" points="985.646,283.088, 985.662,283.1, 985.636,283.118" />
  <polygon fill="#FFFFFF" points="985.649,283.09, 985.657,283.103, 985.638,283.112" />
  <polygon fill="#000000" points="985.651,283.093, 985.653,283.105, 985.641,283.107" />
  <polygon fill="#FFFFFF" points="985.651,283.095, 985.65,283.106, 985.643,283.105" />
  <polygon fill="#000000" points="985.651,283.097, 985.649,283.105, 985.644,283.103" />
  <polygon fill="#FFFFFF" points="985.646,283.102, 985.651,283.099, 985.648,283.105" />
  <polygon fill="#000000" points="985.647,283.101, 985.65,283.1, 985.648,283.104" />
  <polygon fill="#FFFFFF" points="985.647,283.101, 985.65,283.101, 985.647,283.104" />
  <polygon fill="#000000" points="985.648,283.101, 985.649,283.102, 985.647,283.103" />
  <polygon fill="#FFFFFF" points="985.648,283.101, 985.649,283.102, 985.647,283.103" />
  <polygon fill="#000000" points="985.648,283.102, 985.649,283.102, 985.648,283.101" />
  <polygon fill="#FFFFFF" points="985.648,283.102, 985.648,283.102, 985.648,283.101" />
  <polygon fill="#000000" points="985.648,283.102, 985.648,283.102, 985.648,283.102" />
  <polygon fill="#FFFFFF" points="985.648,283.102, 985.648,283.102, 985.648,283.102" />
  <polygon fill="#000000" points="985.648,283.102, 985.648,283.102, 985.648,283.102" />
  <polygon fill="#FFFFFF" points="985.648,283.102, 985.648,283.102, 985.648,283.102" />
  <polygon fill="#000000" points="985.648,283.102, 985.648,283.102, 985.648,283.102" />
  <polygon fill="#FFFFFF" points="985.648,283.102, 985.648,283.102, 985.648,283.102" />
  <polygon fill="#000000" points="985.648,283.102, 985.648,283.102, 985.648,283.102" />
  <polygon fill="#FFFFFF" points="985.648,283.102, 985.648,283.102, 985.648,283.102" />
  <polygon fill="#000000" points="985.648,283.102, 985.648,283.102, 985.648,283.102" />
  <polygon fill="#FFFFFF" points="985.648,283.102, 985.648,283.102, 985.648,283.102" />
  <polygon fill="#000000" points="985.648,283.102, 985.648,283.102, 985.648,283.102" />
  <polygon fill="#FFFFFF" points="985.648,283.102, 985.648,283.102, 985.648,283.102" />
  <polygon fill="#000000" points="985.648,283.102, 985.648,283.102, 985.648,283.102" />
  <!-- Shape 14 -->
  <polygon fill="#FFFFFF" points="559.722,0, 1000,0, 1000,163.889, 842.304,213.418" />
  <polygon fill="#000000" points="577.949,13.7655, 971.602,0, 1000,153.318, 852.475,210.224" />
  <polygon fill="#FFFFFF" points="599.252,29.0106, 941.055,1.0682, 997.796,141.421, 863.923,205.808" />
  <polygon fill="#000000" points="623.258,45.0461, 910.053,3.60258, 992.65,128.691, 876.065,199.968" />
  <polygon fill="#FFFFFF" points="649.499,61.127, 880.284,7.90442, 984.076,115.706, 888.167,192.569" />
  <polygon fill="#000000" points="677.399,76.4926, 853.305,14.1261, 971.943,103.104, 899.379,183.584" />
  <polygon fill="#FFFFFF" points="706.257,90.4145, 830.437,22.2338, 956.52,91.5372, 908.812,173.122" />
  <polygon fill="#000000" points="812.667,31.9904, 938.478,81.6199, 915.639,161.447, 735.242,102.25" />
  <polygon fill="#FFFFFF" points="800.573,42.965, 918.826,73.8678, 919.206,148.978, 763.42,111.496" />
  <polygon fill="#000000" points="794.283,54.5673, 898.806,68.6359, 919.142,136.262, 789.795,117.842" />
  <polygon fill="#FFFFFF" points="793.465,66.1086, 879.741,66.0698, 915.433,123.927, 813.388,121.202" />
  <polygon fill="#000000" points="797.36,76.8794, 862.874,66.0774, 908.455,112.616, 833.338,121.735" />
  <polygon fill="#FFFFFF" points="804.865,86.2362, 849.208,68.3307, 898.947,102.908, 849.007,119.832" />
  <polygon fill="#000000" points="814.651,93.6844, 839.377,72.3003, 887.92,95.2421, 860.079,116.08" />
  <polygon fill="#FFFFFF" points="833.571,77.3213, 876.522,89.8554, 866.616,111.187, 825.317,98.943" />
  <polygon fill="#000000" points="831.525,82.6813, 865.874,86.7482, 869.071,105.899, 835.555,101.978" />
  <polygon fill="#FFFFFF" points="832.577,87.7179, 856.909,85.6867, 868.237,100.901, 844.303,103.002" />
  <polygon fill="#000000" points="835.791,91.9072, 850.24,86.2435, 865.132,96.7306, 850.863,102.426" />
  <polygon fill="#FFFFFF" points="846.09,87.8701, 860.855,93.7187, 854.961,100.79, 840.12,94.9281" />
  <polygon fill="#000000" points="844.297,89.9896, 856.421,91.9624, 856.731,98.6666, 844.577,96.6885" />
  <polygon fill="#FFFFFF" points="844.385,92.0891, 852.621,91.3441, 856.634,96.5655, 848.386,97.3085" />
  <polygon fill="#000000" points="845.691,93.7932, 849.932,91.5873, 855.324,94.8607, 851.079,97.0659" />
  <polygon fill="#FFFFFF" points="848.492,92.3364, 853.493,93.7491, 852.52,96.317, 847.521,94.9046" />
  <polygon fill="#000000" points="848.149,93.2422, 851.729,93.2508, 852.863,95.4113, 849.284,95.4028" />
  <polygon fill="#FFFFFF" points="848.565,94.0325, 850.42,93.2477, 852.448,94.621, 850.593,95.4059" />
  <polygon fill="#000000" points="849.717,93.5451, 851.68,94.1007, 851.296,95.1085, 849.333,94.5529" />
  <polygon fill="#FFFFFF" points="849.566,93.9401, 850.91,93.8829, 851.447,94.7134, 850.103,94.7707" />
  <polygon fill="#000000" points="849.784,94.2766, 850.366,93.9061, 851.229,94.377, 850.647,94.7475" />
  <polygon fill="#FFFFFF" points="850.122,94.061, 850.868,94.18, 850.891,94.5925, 850.145,94.4735" />
  <polygon fill="#000000" points="850.132,94.2389, 850.547,94.1287, 850.881,94.4146, 850.466,94.5249" />
  <polygon fill="#FFFFFF" points="850.362,94.1777, 850.732,94.2876, 850.651,94.4759, 850.281,94.366" />
  <polygon fill="#000000" points="850.325,94.2638, 850.563,94.2373, 850.688,94.3897, 850.45,94.4163" />
  <polygon fill="#FFFFFF" points="850.451,94.2498, 850.629,94.318, 850.562,94.4038, 850.384,94.3356" />
  <polygon fill="#000000" points="850.418,94.2913, 850.543,94.285, 850.595,94.3623, 850.47,94.3686" />
  <polygon fill="#FFFFFF" points="850.481,94.2881, 850.569,94.3239, 850.532,94.3654, 850.444,94.3297" />
  <polygon fill="#000000" points="850.462,94.3093, 850.524,94.3057, 850.551,94.3443, 850.489,94.3479" />
  <polygon fill="#FFFFFF" points="850.492,94.3076, 850.537,94.3241, 850.521,94.346, 850.476,94.3295" />
  <polygon fill="#000000" points="850.483,94.3193, 850.513,94.3152, 850.53,94.3342, 850.5,94.3383" />
  <polygon fill="#FFFFFF" points="850.497,94.3175, 850.52,94.3238, 850.516,94.3361, 850.493,94.3298" />
  <polygon fill="#000000" points="850.494,94.3244, 850.507,94.3202, 850.519,94.3292, 850.506,94.3333" />
  <polygon fill="#FFFFFF" points="850.5,94.3226, 850.512,94.324, 850.513,94.3309, 850.501,94.3295" />
  <polygon fill="#000000" points="850.501,94.3267, 850.505,94.3232, 850.512,94.3269, 850.508,94.3304" />
  <polygon fill="#FFFFFF" points="850.502,94.3253, 850.508,94.3247, 850.511,94.3283, 850.505,94.3289" />
  <polygon fill="#000000" points="850.504,94.3251, 850.509,94.3261, 850.509,94.3285, 850.504,94.3275" />
  <polygon fill="#FFFFFF" points="850.504,94.3266, 850.506,94.3254, 850.509,94.327, 850.507,94.3281" />
  <polygon fill="#000000" points="850.505,94.3262, 850.507,94.326, 850.508,94.3274, 850.506,94.3276" />
  <polygon fill="#FFFFFF" points="850.506,94.3261, 850.507,94.3265, 850.507,94.3275, 850.506,94.3271" />
  <polygon fill="#000000" points="850.506,94.3262, 850.507,94.3268, 850.507,94.3273, 850.506,94.3268" />
  <!-- Shape 15 -->
  <polygon fill="#FFFFFF" points="842.304,213.418, 1000,163.889, 1000,249.306, 956.944,300" />
  <polygon fill="#000000" points="854.57,222.682, 983.127,169.189, 1000,240.166, 961.551,294.576" />
  <polygon fill="#FFFFFF" points="867.199,231.169, 967.95,175.503, 998.008,231.787, 966.09,288.153" />
  <polygon fill="#000000" points="954.943,182.69, 994.128,224.521, 970.211,280.876, 879.966,238.526" />
  <polygon fill="#FFFFFF" points="944.435,190.515, 988.636,218.658, 973.563,272.978, 892.614,244.461" />
  <polygon fill="#000000" points="936.6,198.672, 981.953,214.403, 975.842,264.765, 904.853,248.773" />
  <polygon fill="#FFFFFF" points="931.449,206.801, 974.594,211.851, 976.833,256.593, 916.371,251.368" />
  <polygon fill="#000000" points="928.836,214.524, 967.117,210.976, 976.445,248.84, 926.849,252.273" />
  <polygon fill="#FFFFFF" points="928.47,221.483, 960.06,211.63, 974.726,241.859, 935.992,251.64" />
  <polygon fill="#000000" points="929.94,227.376, 953.887,213.555, 971.86,235.952, 943.561,249.729" />
  <polygon fill="#FFFFFF" points="948.943,216.408, 968.15,231.329, 949.403,246.885, 932.752,231.991" />
  <polygon fill="#000000" points="945.422,219.798, 963.972,228.083, 953.481,243.501, 936.374,235.23" />
  <polygon fill="#FFFFFF" points="943.354,223.325, 959.733,226.19, 955.878,239.978, 940.283,237.121" />
  <polygon fill="#000000" points="942.618,226.63, 955.808,225.503, 956.802,236.674, 944.02,237.805" />
  <polygon fill="#FFFFFF" points="942.97,229.431, 952.502,225.786, 956.553,233.874, 947.224,237.522" />
  <polygon fill="#000000" points="944.083,231.548, 950.007,226.74, 955.493,231.757, 949.665,236.567" />
  <polygon fill="#FFFFFF" points="948.392,228.051, 953.997,230.389, 951.255,235.255, 945.605,232.917" />
  <polygon fill="#000000" points="947.601,229.432, 952.406,229.725, 952.033,233.874, 947.209,233.581" />
  <polygon fill="#FFFFFF" points="947.485,230.655, 950.989,229.639, 952.143,232.651, 948.631,233.667" />
  <polygon fill="#000000" points="947.836,231.577, 949.917,229.95, 951.79,231.73, 949.705,233.356" />
  <polygon fill="#FFFFFF" points="949.258,230.466, 951.196,231.166, 950.366,232.841, 948.428,232.141" />
  <polygon fill="#000000" points="948.986,231.015, 950.56,230.936, 950.638,232.291, 949.064,232.37" />
  <polygon fill="#FFFFFF" points="949.012,231.475, 950.026,230.963, 950.612,231.832, 949.598,232.344" />
  <polygon fill="#000000" points="949.671,231.142, 950.407,231.528, 949.953,232.164, 949.217,231.779" />
  <polygon fill="#FFFFFF" points="949.507,231.372, 950.141,231.388, 950.117,231.934, 949.483,231.918" />
  <polygon fill="#000000" points="949.498,231.575, 949.905,231.382, 950.126,231.731, 949.719,231.924" />
  <polygon fill="#FFFFFF" points="949.749,231.456, 950.041,231.597, 949.875,231.85, 949.583,231.709" />
  <polygon fill="#000000" points="949.684,231.556, 949.926,231.542, 949.941,231.75, 949.698,231.765" />
  <polygon fill="#FFFFFF" points="949.689,231.64, 949.828,231.547, 949.935,231.666, 949.796,231.759" />
  <polygon fill="#000000" points="949.77,231.586, 949.89,231.617, 949.854,231.72, 949.734,231.69" />
  <polygon fill="#FFFFFF" points="949.755,231.63, 949.839,231.604, 949.869,231.676, 949.785,231.703" />
  <polygon fill="#000000" points="949.802,231.615, 949.856,231.644, 949.822,231.691, 949.768,231.662" />
  <polygon fill="#FFFFFF" points="949.787,231.636, 949.832,231.631, 949.837,231.67, 949.792,231.675" />
  <polygon fill="#000000" points="949.811,231.634, 949.835,231.652, 949.813,231.673, 949.789,231.654" />
  <polygon fill="#FFFFFF" points="949.801,231.643, 949.824,231.643, 949.823,231.663, 949.801,231.663" />
  <polygon fill="#000000" points="949.801,231.653, 949.813,231.643, 949.823,231.654, 949.812,231.663" />
  <polygon fill="#FFFFFF" points="949.807,231.648, 949.818,231.649, 949.817,231.658, 949.806,231.658" />
  <polygon fill="#000000" points="949.806,231.653, 949.812,231.648, 949.818,231.653, 949.812,231.658" />
  <polygon fill="#FFFFFF" points="949.809,231.651, 949.815,231.651, 949.815,231.656, 949.809,231.656" />
  <polygon fill="#000000" points="949.812,231.651, 949.815,231.653, 949.812,231.656, 949.809,231.653" />
  <polygon fill="#FFFFFF" points="949.81,231.652, 949.813,231.652, 949.814,231.654, 949.811,231.655" />
  <polygon fill="#000000" points="949.812,231.652, 949.813,231.653, 949.812,231.654, 949.811,231.653" />
  <polygon fill="#FFFFFF" points="949.813,231.652, 949.811,231.653, 949.813,231.654, 949.812,231.654" />
  <polygon fill="#000000" points="949.812,231.653, 949.812,231.653, 949.812,231.653, 949.812,231.654" />
  <polygon fill="#FFFFFF" points="949.812,231.653, 949.812,231.653, 949.812,231.653, 949.812,231.653" />
  <polygon fill="#000000" points="949.812,231.653, 949.812,231.653, 949.812,231.653, 949.812,231.653" />
  <polygon fill="#FFFFFF" points="949.812,231.653, 949.812,231.653, 949.812,231.653, 949.812,231.653" />
  <polygon fill="#000000" points="949.812,231.653, 949.812,231.653, 949.812,231.653, 949.812,231.653" />
  <polygon fill="#FFFFFF" points="949.812,231.653, 949.812,231.653, 949.812,231.653, 949.812,231.653" />
  <polygon fill="#000000" points="949.812,231.653, 949.812,231.653, 949.812,231.653, 949.812,231.653" />
  <polygon fill="#FFFFFF" points="949.812,231.653, 949.812,231.653, 949.812,231.653, 949.812,231.653" />
</svg>
