<?xml version="1.0" standalone="no"?>
<!DOCTYPE svg PUBLIC "-//W3C//DTD SVG 1.1//EN" "http://www.w3.org/Graphics/SVG/1.1/DTD/svg11.dtd">
<svg viewBox="0, 0, 154, 100" xmlns="http://www.w3.org/2000/svg" version="1.1">
  <!-- Shape 1 -->
  <polygon fill="#FFFFFF" points="0,0, 95.1093,0, 94.9667,100, 0,100" />
  <polygon fill="#000000" points="0.0475546,0, 95.1092,0.05, 94.9192,100, 0,99.95" />
  <polygon fill="#FFFFFF" points="0.171135,6.5e-05, 95.1089,0.179935, 94.7958,99.9999, 6.1821e-05,99.8201" />
  <polygon fill="#000000" points="0.370504,0.000442727, 95.1083,0.389557, 94.5967,99.9996, 0.000421074,99.6104" />
  <polygon fill="#FFFFFF" points="0.645244,0.00157116, 95.1068,0.678426, 94.3224,99.9984, 0.00149432,99.3216" />
  <polygon fill="#000000" points="0.994751,0.00407552, 95.1039,1.04591, 93.9734,99.9959, 0.00387619,98.9541" />
  <polygon fill="#FFFFFF" points="1.41824,0.00876378, 95.0988,1.49119, 93.5505,99.9912, 0.00833513,98.5088" />
  <polygon fill="#000000" points="1.91475,0.0166206, 95.0906,2.01324, 93.0548,99.9834, 0.0158076,97.9868" />
  <polygon fill="#FFFFFF" points="2.48312,0.0288, 95.0782,2.61085, 92.4872,99.9712, 0.0273912,97.3891" />
  <polygon fill="#000000" points="3.12203,0.0466161, 95.0603,3.28264, 91.8493,99.9534, 0.0443357,96.7174" />
  <polygon fill="#FFFFFF" points="3.82995,0.0715335, 95.0356,4.027, 91.1424,99.9285, 0.068034,95.973" />
  <polygon fill="#000000" points="4.6052,0.105155, 95.0025,4.84217, 90.3682,99.8948, 0.10001,95.1578" />
  <polygon fill="#FFFFFF" points="5.4459,0.149209, 94.9594,5.72616, 89.5287,99.8508, 0.141909,94.2738" />
  <polygon fill="#000000" points="6.34998,0.205536, 94.9045,6.67682, 88.6259,99.7945, 0.195479,93.3232" />
  <polygon fill="#FFFFFF" points="7.31523,0.276073, 94.8361,7.6918, 87.662,99.7239, 0.262563,92.3082" />
  <polygon fill="#000000" points="8.33922,0.362837, 94.7522,8.76857, 86.6395,99.6372, 0.345079,91.2314" />
  <polygon fill="#FFFFFF" points="9.41938,0.467909, 94.6508,9.90443, 85.5608,99.5321, 0.445006,90.0956" />
  <polygon fill="#000000" points="10.553,0.593415, 94.5299,11.0965, 84.4287,99.4066, 0.564365,88.9035" />
  <polygon fill="#FFFFFF" points="11.737,0.741508, 94.3874,12.3417, 83.2463,99.2585, 0.705204,87.6583" />
  <polygon fill="#000000" points="12.9685,0.91435, 94.2214,13.6367, 82.0164,99.0856, 0.869579,86.3633" />
  <polygon fill="#FFFFFF" points="14.2442,1.11409, 94.0298,14.9783, 80.7424,98.8859, 1.05953,85.0217" />
  <polygon fill="#000000" points="15.5607,1.34285, 93.8106,16.3627, 79.4276,98.6572, 1.27708,83.6373" />
  <polygon fill="#FFFFFF" points="16.9144,1.60269, 93.5617,17.7864, 78.0756,98.3973, 1.52418,82.2136" />
  <polygon fill="#000000" points="18.3017,1.89562, 93.2814,19.2455, 76.69,98.1044, 1.80275,80.7545" />
  <polygon fill="#FFFFFF" points="19.7188,2.22353, 92.9679,20.7359, 75.2747,97.7765, 2.11458,79.2641" />
  <polygon fill="#000000" points="21.1618,2.58823, 92.6193,22.2536, 73.8334,97.4118, 2.46138,77.7464" />
  <polygon fill="#FFFFFF" points="22.6267,2.99137, 92.2342,23.7944, 72.3703,97.0086, 2.84474,76.2056" />
  <polygon fill="#000000" points="24.1093,3.43447, 91.8111,25.3538, 70.8894,96.5655, 3.2661,74.6462" />
  <polygon fill="#FFFFFF" points="25.6056,3.91889, 91.3487,26.9276, 69.3949,96.0811, 3.72673,73.0724" />
  <polygon fill="#000000" points="27.1111,4.44579, 90.846,28.5112, 67.8911,95.5542, 4.22776,71.4888" />
  <polygon fill="#FFFFFF" points="28.6216,5.01614, 90.302,30.1001, 66.3823,94.9839, 4.77009,69.8999" />
  <polygon fill="#000000" points="30.1328,5.6307, 89.7159,31.6898, 64.8728,94.3693, 5.35445,68.3102" />
  <polygon fill="#FFFFFF" points="31.6402,6.28999, 89.0874,33.2756, 63.367,93.71, 5.98134,66.7244" />
  <polygon fill="#000000" points="33.1396,6.99432, 88.4161,34.8529, 61.8692,93.0057, 6.65104,65.1471" />
  <polygon fill="#FFFFFF" points="34.6265,7.74371, 87.702,36.4172, 60.3838,92.2563, 7.36358,63.5828" />
  <polygon fill="#000000" points="36.0967,8.53797, 86.9453,37.964, 58.9152,91.462, 8.11877,62.036" />
  <polygon fill="#FFFFFF" points="37.5459,9.37661, 86.1464,39.4887, 57.4675,90.6234, 8.91614,60.5113" />
  <polygon fill="#000000" points="38.9699,10.2589, 85.3061,40.9869, 56.0449,89.7411, 9.75499,59.0131" />
  <polygon fill="#FFFFFF" points="40.3646,11.1838, 84.4254,42.4544, 54.6516,88.8162, 10.6344,57.5456" />
  <polygon fill="#000000" points="41.7261,12.1501, 83.5053,43.887, 53.2915,87.8499, 11.553,56.113" />
  <polygon fill="#FFFFFF" points="43.0505,13.1561, 82.5476,45.2806, 51.9684,86.8439, 12.5095,54.7194" />
  <polygon fill="#000000" points="44.3341,14.2002, 81.5537,46.6314, 50.6859,85.7998, 13.5021,53.3686" />
  <polygon fill="#FFFFFF" points="45.5736,15.2801, 80.5258,47.9357, 49.4477,84.7199, 14.5288,52.0643" />
  <polygon fill="#000000" points="46.7654,16.3937, 79.4661,49.1901, 48.257,83.6063, 15.5874,50.8099" />
  <polygon fill="#FFFFFF" points="16.6755,49.6088, 47.9067,17.5383, 78.3769,50.3912, 47.1168,82.4617" />
  <polygon fill="#000000" points="17.7905,48.4639, 48.9945,18.7111, 77.2609,51.5361, 46.0301,81.2889" />
  <polygon fill="#FFFFFF" points="18.9294,47.3779, 50.0262,19.9092, 76.121,52.6221, 44.9993,80.0908" />
  <polygon fill="#000000" points="20.0893,46.3533, 50.9995,21.1294, 74.9601,53.6467, 44.0269,78.8706" />
  <polygon fill="#FFFFFF" points="21.267,45.3923, 51.9124,22.3683, 73.7816,54.6077, 43.1149,77.6317" />
  <polygon fill="#000000" points="22.4591,44.4967, 52.7631,23.6225, 72.5886,55.5033, 42.265,76.3775" />
  <polygon fill="#FFFFFF" points="23.6622,43.668, 53.5502,24.8881, 71.3848,56.332, 41.4787,75.1119" />
  <!-- Shape 2 -->
  <polygon fill="#000000" points="95.1093,0, 154,0, 154,61.6, 95.0214,61.5936" />
  <polygon fill="#FFFFFF" points="95.1092,0.0307968, 153.971,0, 154,61.5692, 95.0509,61.5936" />
  <polygon fill="#000000" points="95.1091,0.144688, 153.862,5.69741e-05, 154,61.4553, 95.16,61.5935" />
  <polygon fill="#FFFFFF" points="95.1093,0.341324, 153.674,0.000519793, 154,61.2586, 95.3483,61.5931" />
  <polygon fill="#000000" points="95.1104,0.62002, 153.407,0.00207045, 153.998,60.9799, 95.6151,61.5916" />
  <polygon fill="#FFFFFF" points="95.1133,0.979752, 153.063,0.00571635, 153.995,60.6201, 95.9596,61.588" />
  <polygon fill="#000000" points="95.1195,1.41916, 152.643,0.0127781, 153.988,60.1807, 96.3803,61.5809" />
  <polygon fill="#FFFFFF" points="95.1303,1.93655, 152.148,0.024873, 153.976,59.6632, 96.8758,61.5689" />
  <polygon fill="#000000" points="95.1477,2.52989, 151.581,0.0438942, 153.958,59.0698, 97.4439,61.5499" />
  <polygon fill="#FFFFFF" points="95.1736,3.19682, 150.943,0.071986, 153.931,58.4029, 98.0825,61.5219" />
  <polygon fill="#000000" points="95.2104,3.93463, 150.238,0.111515, 153.893,57.665, 98.789,61.4825" />
  <polygon fill="#FFFFFF" points="95.2605,4.7403, 149.467,0.165039, 153.842,56.8592, 99.5605,61.429" />
  <polygon fill="#000000" points="95.3265,5.61047, 148.635,0.235269, 153.775,55.989, 100.394,61.3589" />
  <polygon fill="#FFFFFF" points="95.4112,6.54147, 147.745,0.325035, 153.689,55.0579, 101.285,61.2692" />
  <polygon fill="#000000" points="95.5172,7.52931, 146.801,0.437242, 153.582,54.0699, 102.231,61.1571" />
  <polygon fill="#FFFFFF" points="95.6474,8.56969, 145.806,0.574828, 153.45,53.0295, 103.227,61.0196" />
  <polygon fill="#000000" points="95.8047,9.65802, 144.765,0.740721, 153.292,51.941, 104.269,60.8538" />
  <polygon fill="#FFFFFF" points="95.9918,10.7894, 143.683,0.937794, 153.103,50.8095, 105.353,60.6568" />
  <polygon fill="#000000" points="96.2113,11.9588, 142.564,1.16881, 152.882,49.64, 106.473,60.4259" />
  <polygon fill="#FFFFFF" points="96.4658,13.1608, 141.415,1.43641, 152.626,48.4379, 107.623,60.1584" />
  <polygon fill="#000000" points="96.7575,14.3898, 140.239,1.743, 152.333,47.2088, 108.8,59.8519" />
  <polygon fill="#FFFFFF" points="97.0887,15.64, 139.044,2.09079, 152.001,45.9585, 109.997,59.5042" />
  <polygon fill="#000000" points="97.4611,16.9055, 137.833,2.48168, 151.627,44.693, 111.209,59.1134" />
  <polygon fill="#FFFFFF" points="97.8763,18.1802, 136.614,2.91728, 151.21,43.4182, 112.43,58.6779" />
  <polygon fill="#000000" points="98.3355,19.4579, 135.392,3.39883, 150.75,42.1404, 113.653,58.1965" />
  <polygon fill="#FFFFFF" points="98.8395,20.7324, 134.173,3.92717, 150.245,40.8658, 114.874,57.6682" />
  <polygon fill="#000000" points="99.3886,21.9974, 132.963,4.50275, 149.694,39.6006, 116.085,57.0928" />
  <polygon fill="#FFFFFF" points="99.983,23.2468, 131.767,5.12556, 149.098,38.3511, 117.282,56.47" />
  <polygon fill="#000000" points="100.622,24.4744, 130.593,5.79514, 148.458,37.1235, 118.457,55.8005" />
  <polygon fill="#FFFFFF" points="101.305,25.6742, 129.445,6.51056, 147.774,35.9236, 119.606,55.0852" />
  <polygon fill="#000000" points="102.031,26.8404, 128.329,7.2704, 147.047,34.7574, 120.723,54.3255" />
  <polygon fill="#FFFFFF" points="102.797,27.9673, 127.251,8.07276, 146.28,33.6304, 121.803,53.5232" />
  <polygon fill="#000000" points="103.602,29.0495, 126.215,8.9153, 145.474,32.548, 122.839,52.6807" />
  <polygon fill="#FFFFFF" points="104.443,30.0822, 125.227,9.79516, 144.632,31.5153, 123.828,51.8009" />
  <polygon fill="#000000" points="124.291,10.7091, 143.758,30.5368, 124.766,50.887, 105.316,31.0607" />
  <polygon fill="#FFFFFF" points="123.411,11.6534, 142.855,29.6168, 125.647,49.9428, 106.219,31.9806" />
  <polygon fill="#000000" points="122.59,12.624, 141.926,28.759, 126.468,48.9722, 107.146,32.8383" />
  <polygon fill="#FFFFFF" points="121.831,13.6166, 140.977,27.9668, 127.227,47.9798, 108.095,33.6305" />
  <polygon fill="#000000" points="121.138,14.6263, 140.011,27.2428, 127.921,46.9701, 109.06,34.3544" />
  <polygon fill="#FFFFFF" points="120.513,15.6482, 139.033,26.5893, 128.547,45.9482, 110.037,35.0079" />
  <polygon fill="#000000" points="119.956,16.6771, 138.049,26.0078, 129.105,44.9193, 111.021,35.5894" />
  <polygon fill="#FFFFFF" points="119.469,17.7079, 137.063,25.4992, 129.592,43.8886, 112.007,36.0978" />
  <!-- Shape 3 -->
  <polygon fill="#FFFFFF" points="117.496,61.596, 154,61.6, 154,100, 117.354,100" />
  <polygon fill="#000000" points="117.515,61.596, 154,61.6192, 153.982,100, 117.354,99.9808" />
  <polygon fill="#FFFFFF" points="117.637,61.5961, 154,61.7478, 153.859,99.9999, 117.354,99.8522" />
  <polygon fill="#000000" points="117.862,61.597, 153.999,61.9849, 153.633,99.999, 117.356,99.615" />
  <polygon fill="#FFFFFF" points="118.189,61.6006, 153.996,62.329, 153.304,99.9955, 117.361,99.271" />
  <polygon fill="#000000" points="118.616,61.6092, 153.988,62.7772, 152.877,99.9869, 117.371,98.8227" />
  <polygon fill="#FFFFFF" points="119.137,61.6264, 153.971,63.326, 152.353,99.9697, 117.389,98.2738" />
  <polygon fill="#000000" points="119.75,61.6564, 153.943,63.971, 151.738,99.9399, 117.42,97.6288" />
  <polygon fill="#FFFFFF" points="120.45,61.7037, 153.898,64.7065, 151.036,99.8926, 117.467,96.8932" />
  <polygon fill="#000000" points="121.229,61.7737, 153.831,65.5264, 150.254,99.8228, 117.537,96.0732" />
  <polygon fill="#FFFFFF" points="122.081,61.8718, 153.737,66.4232, 149.398,99.7247, 117.633,95.1763" />
  <polygon fill="#000000" points="122.999,62.0038, 153.611,67.389, 148.477,99.5928, 117.762,94.2105" />
  <polygon fill="#FFFFFF" points="123.974,62.1753, 153.448,68.4147, 147.499,99.4214, 117.929,93.1847" />
  <polygon fill="#000000" points="124.997,62.3918, 153.242,69.4906, 146.473,99.205, 118.139,92.1087" />
  <polygon fill="#FFFFFF" points="126.058,62.6584, 152.987,70.6064, 145.409,98.9385, 118.396,90.9928" />
  <polygon fill="#000000" points="127.146,62.9795, 152.681,71.751, 144.317,98.6175, 118.706,89.8481" />
  <polygon fill="#FFFFFF" points="128.25,63.3588, 152.319,72.913, 143.21,98.2382, 119.071,88.686" />
  <polygon fill="#000000" points="129.36,63.7993, 151.899,74.0805, 142.097,97.7979, 119.494,87.5184" />
  <polygon fill="#FFFFFF" points="130.463,64.3025, 151.42,75.2414, 140.99,97.2947, 119.977,86.3574" />
  <polygon fill="#000000" points="131.549,64.8692, 150.879,76.3838, 139.902,96.7281, 120.52,85.2149" />
  <polygon fill="#FFFFFF" points="132.605,65.4985, 150.279,77.4956, 138.843,96.0989, 121.123,84.103" />
  <polygon fill="#000000" points="133.621,66.1883, 149.622,78.5653, 137.824,95.4092, 121.783,83.0333" />
  <polygon fill="#FFFFFF" points="134.587,66.9352, 148.91,79.5818, 136.856,94.6623, 122.498,82.0167" />
  <polygon fill="#000000" points="135.492,67.7345, 148.148,80.5349, 135.948,93.8631, 123.262,81.0635" />
  <polygon fill="#FFFFFF" points="124.069,80.1832, 136.328,68.58, 147.342,81.4152, 135.11,93.0177" />
  <polygon fill="#000000" points="124.914,79.3837, 137.087,69.4643, 146.499,82.2146, 134.35,92.1334" />
  <polygon fill="#FFFFFF" points="125.787,78.672, 137.762,70.3792, 145.628,82.9263, 133.673,91.2186" />
  <polygon fill="#000000" points="126.681,78.0533, 138.349,71.3152, 144.736,83.5449, 133.084,90.2826" />
  <polygon fill="#FFFFFF" points="127.585,77.5315, 138.844,72.2624, 143.833,84.0667, 132.588,89.3354" />
  <!-- Shape 4 -->
  <polygon fill="#000000" points="95.0007,76.1309, 117.442,76.29, 117.354,100, 94.9667,100" />
  <polygon fill="#FFFFFF" points="95.0007,76.1428, 117.431,76.2899, 117.354,99.9881, 94.9779,100" />
  <polygon fill="#000000" points="95.0005,76.311, 117.273,76.2889, 117.354,99.8211, 95.1356,99.9999" />
  <polygon fill="#FFFFFF" points="95.0024,76.6332, 116.97,76.2892, 117.353,99.501, 95.4378,99.9975" />
  <polygon fill="#000000" points="95.0111,77.104, 116.527,76.2961, 117.345,99.0333, 95.8794,99.9875" />
  <polygon fill="#FFFFFF" points="95.0343,77.7149, 115.952,76.3177, 117.324,98.4262, 96.4525,99.962" />
  <polygon fill="#000000" points="95.0815,78.4547, 115.257,76.3642, 117.278,97.6911, 97.1465,99.9109" />
  <polygon fill="#FFFFFF" points="95.1637,79.3086, 114.454,76.4474, 117.198,96.8423, 97.9477,99.8226" />
  <polygon fill="#000000" points="95.2927,80.2594, 113.56,76.58, 117.07,95.897, 98.84,99.6845" />
  <polygon fill="#FFFFFF" points="95.4804,81.287, 112.594,76.7746, 116.885,94.8751, 99.8043,99.4841" />
  <polygon fill="#000000" points="95.7374,82.3688, 111.576,77.0429, 116.63,93.7991, 100.82,99.2101" />
  <polygon fill="#FFFFFF" points="96.0728,83.4804, 110.531,77.3944, 116.296,92.6932, 101.863,98.853" />
  <polygon fill="#000000" points="96.4929,84.5956, 109.482,77.8359, 115.878,91.5832, 102.91,98.4061" />
  <polygon fill="#FFFFFF" points="97.0006,85.6881, 108.454,78.3706, 115.372,90.4958, 103.936,97.8664" />
  <polygon fill="#000000" points="97.5946,86.7311, 107.473,78.9974, 114.779,89.4573, 104.916,97.2351" />
  <polygon fill="#FFFFFF" points="98.2696,87.6996, 106.563,79.7104, 114.106,88.4929, 105.825,96.518" />
  <polygon fill="#000000" points="105.744,80.4994, 113.361,87.6256, 106.643,95.7255, 99.0157,88.5704" />
  <polygon fill="#FFFFFF" points="105.035,81.3492, 112.559,86.8752, 107.35,94.8726, 99.8188,89.3238" />
  <polygon fill="#000000" points="104.452,82.2412, 111.717,86.2571, 107.933,93.9781, 100.661,89.9445" />
  <polygon fill="#FFFFFF" points="104.003,83.1533, 110.857,85.7817, 108.381,93.0639, 101.522,90.422" />
  <!-- Shape 5 -->
  <polygon fill="#FFFFFF" points="95.0214,61.5936, 108.941,61.5951, 108.95,76.2298, 95.0007,76.1309" />
  <polygon fill="#000000" points="95.0284,61.5936, 108.941,61.6024, 108.943,76.2297, 95.0007,76.1236" />
  <polygon fill="#FFFFFF" points="95.1738,61.5937, 108.941,61.7553, 108.798,76.2286, 95.001,75.9718" />
  <polygon fill="#000000" points="95.4546,61.597, 108.938,62.0505, 108.516,76.2234, 95.0045,75.6784" />
  <polygon fill="#FFFFFF" points="95.8639,61.6107, 108.926,62.4807, 108.106,76.2069, 95.0182,75.2511" />
  <polygon fill="#000000" points="96.3903,61.6458, 108.893,63.0338, 107.579,76.1683, 95.0523,74.7014" />
  <polygon fill="#FFFFFF" points="97.0185,61.7155, 108.827,63.6938, 106.949,76.0946, 95.1195,74.0453" />
  <polygon fill="#000000" points="97.7293,61.8346, 108.713,64.4404, 106.237,75.9713, 95.2338,73.3031" />
  <polygon fill="#FFFFFF" points="98.4999,62.0174, 108.54,65.2493, 105.465,75.7841, 95.4089,72.4986" />
  <polygon fill="#000000" points="99.3041,62.2763, 108.293,66.0931, 104.66,75.5209, 95.6565,71.659" />
  <polygon fill="#FFFFFF" points="100.114,62.62, 107.966,66.9421, 103.849,75.1732, 95.9849,70.8141" />
  <polygon fill="#000000" points="100.899,63.0522, 107.555,67.7652, 103.063,74.7372, 96.3978,69.9947" />
  <polygon fill="#FFFFFF" points="101.631,63.5704, 107.061,68.5318, 102.33,74.2158, 96.8927,69.2314" />
  <polygon fill="#000000" points="97.4608,68.5526, 102.282,64.1653, 106.493,69.2133, 101.678,73.6182" />
  <polygon fill="#FFFFFF" points="98.0868,67.9829, 102.829,64.8207, 105.868,69.7853, 101.13,72.9604" />
  <polygon fill="#000000" points="98.7497,67.5408, 103.254,65.5148, 105.206,70.2291, 100.705,72.2646" />
  <polygon fill="#FFFFFF" points="99.4241,67.2374, 103.546,66.2208, 104.532,70.5339, 100.412,71.5572" />
  <!-- Shape 6 -->
  <polygon fill="#000000" points="108.941,61.5951, 117.496,61.596, 117.463,70.73, 108.947,70.5848" />
  <polygon fill="#FFFFFF" points="108.941,61.5996, 117.492,61.596, 117.463,70.7255, 108.951,70.5849" />
  <polygon fill="#000000" points="108.941,61.7375, 117.361,61.5961, 117.463,70.5853, 109.082,70.587" />
  <polygon fill="#FFFFFF" points="108.946,62.0048, 117.107,61.6003, 117.46,70.3139, 109.335,70.587" />
  <polygon fill="#000000" points="108.963,62.3914, 116.739,61.6186, 117.444,69.9213, 109.701,70.5747" />
  <polygon fill="#FFFFFF" points="109.007,62.8816, 116.273,61.6649, 117.402,69.424, 110.165,70.5356" />
  <polygon fill="#000000" points="109.094,63.4537, 115.73,61.7558, 117.317,68.844, 110.706,70.4525" />
  <polygon fill="#FFFFFF" points="109.238,64.0808, 115.136,61.9079, 117.175,68.2089, 111.298,70.3083" />
  <polygon fill="#000000" points="109.453,64.7313, 114.52,62.1349, 116.962,67.5508, 111.912,70.0891" />
  <polygon fill="#FFFFFF" points="109.747,65.3704, 113.915,62.4446, 116.671,66.9046, 112.514,69.7862" />
  <polygon fill="#000000" points="110.118,65.9628, 113.356,62.8371, 116.301,66.3063, 113.072,69.3997" />
  <polygon fill="#FFFFFF" points="112.874,63.3029, 115.862,65.7894, 113.553,68.9388, 110.558,66.4749" />
  <polygon fill="#000000" points="112.494,63.8226, 115.373,65.382, 113.931,68.4227, 111.049,66.8786" />
  <polygon fill="#FFFFFF" points="112.236,64.3687, 114.858,65.1033, 114.189,67.8794, 111.564,67.1546" />
  <!-- Shape 7 -->
  <polygon fill="#FFFFFF" points="112.529,70.6459, 117.463,70.73, 117.442,76.29, 112.502,76.255" />
  <polygon fill="#000000" points="112.531,70.6459, 117.463,70.7328, 117.439,76.29, 112.502,76.2522" />
  <polygon fill="#FFFFFF" points="112.662,70.6483, 117.462,70.8806, 117.308,76.289, 112.503,76.1031" />
  <polygon fill="#000000" points="112.915,70.6605, 117.454,71.1657, 117.055,76.2792, 112.511,75.8156" />
  <polygon fill="#FFFFFF" points="113.273,70.7003, 117.422,71.5686, 116.697,76.2427, 112.543,75.4094" />
  <polygon fill="#000000" points="113.708,70.7914, 117.346,72.0589, 116.261,76.1552, 112.619,74.9154" />
  <polygon fill="#FFFFFF" points="114.185,70.9574, 117.204,72.5955, 115.784,75.9928, 112.762,74.3751" />
  <polygon fill="#000000" points="114.659,71.2148, 116.981,73.1293, 115.309,75.7387, 112.986,73.8382" />
  <polygon fill="#FFFFFF" points="113.292,73.3576, 115.085,71.5655, 116.675,73.6073, 114.884,75.3905" />
  <polygon fill="#000000" points="113.667,72.9825, 115.417,71.9929, 116.3,73.9805, 114.55,74.965" />
  <polygon fill="#FFFFFF" points="114.079,72.7496, 115.625,72.4608, 115.888,74.2123, 114.343,74.4983" />
  <!-- Shape 8 -->
  <polygon fill="#FFFFFF" points="108.947,70.5848, 112.529,70.6459, 112.518,72.8635, 108.948,72.8652" />
  <polygon fill="#000000" points="108.949,70.5848, 112.529,70.647, 112.516,72.8635, 108.948,72.864" />
  <polygon fill="#FFFFFF" points="109.127,70.5879, 112.528,70.7576, 112.338,72.8635, 108.948,72.7503" />
  <polygon fill="#000000" points="109.465,70.6048, 112.509,70.9667, 112.002,72.8523, 108.966,72.5356" />
  <polygon fill="#FFFFFF" points="109.918,70.6586, 112.434,71.2471, 111.55,72.8052, 109.04,72.2485" />
  <polygon fill="#000000" points="110.416,70.7752, 112.259,71.5558, 111.053,72.6949, 109.214,71.9335" />
  <polygon fill="#FFFFFF" points="109.512,71.6468, 110.872,70.9684, 111.96,71.8377, 110.598,72.5065" />
  <polygon fill="#000000" points="109.915,71.4454, 111.195,71.2265, 111.556,72.0363, 110.275,72.2512" />
  <polygon fill="#FFFFFF" points="110.359,71.3696, 111.32,71.5069, 111.112,72.1107, 110.151,71.9722" />
  <!-- Shape 9 -->
  <polygon fill="#000000" points="108.948,72.8652, 112.518,72.8635, 112.502,76.255, 108.95,76.2298" />
  <polygon fill="#FFFFFF" points="108.948,72.8668, 112.516,72.8635, 112.502,76.2533, 108.952,76.2298" />
  <polygon fill="#000000" points="108.948,72.9977, 112.378,72.8636, 112.502,76.1214, 109.09,76.2307" />
  <polygon fill="#FFFFFF" points="108.959,73.2476, 112.112,72.874, 112.493,75.8696, 109.354,76.2223" />
  <polygon fill="#000000" points="109.005,73.5917, 111.748,72.9172, 112.449,75.523, 109.717,76.1815" />
  <polygon fill="#FFFFFF" points="109.115,73.9908, 111.325,73.0212, 112.341,75.1215, 110.138,76.08" />
  <polygon fill="#000000" points="109.312,74.393, 110.899,73.2078, 112.145,74.7171, 110.562,75.8955" />
  <polygon fill="#FFFFFF" points="110.533,73.4815, 111.858,74.3686, 110.928,75.6234, 109.6,74.7399" />
  <polygon fill="#000000" points="110.282,73.8204, 111.501,74.1297, 111.178,75.2855, 109.958,74.9778" />
  <polygon fill="#FFFFFF" points="110.182,74.1765, 111.126,74.0345, 111.277,74.9299, 110.333,75.0725" />
</svg>
