<?xml version="1.0" standalone="no"?>
<!DOCTYPE svg PUBLIC "-//W3C//DTD SVG 1.1//EN" "http://www.w3.org/Graphics/SVG/1.1/DTD/svg11.dtd">
<svg viewBox="0, 0, 154, 100" xmlns="http://www.w3.org/2000/svg" version="1.1">
  <!-- Shape 1 -->
  <polygon fill="#FFFFFF" points="0,0, 95.1093,0, 94.9667,100, 0,100" />
  <polygon fill="#000000" points="3.99459,0, 95.1033,4.2, 90.9781,100, 0,95.8" />
  <polygon fill="#FFFFFF" points="8.31314,0.19908, 94.9077,8.74092, 86.6657,99.8009, 0.189344,91.2591" />
  <polygon fill="#000000" points="12.8853,0.650089, 94.4726,13.5489, 82.0998,99.3499, 0.61828,86.4511" />
  <polygon fill="#FFFFFF" points="17.6337,1.4008, 93.7525,18.5425, 77.3575,98.5992, 1.33222,81.4575" />
  <polygon fill="#000000" points="22.4749,2.49101, 92.7097,23.6341, 72.5223,97.509, 2.369,76.3659" />
  <polygon fill="#FFFFFF" points="27.3211,3.94989, 91.3168,28.7315, 67.6817,96.0501, 3.7563,71.2685" />
  <polygon fill="#000000" points="32.0824,5.79364, 89.5584,33.74, 62.9257,94.2064, 5.50952,66.26" />
  <polygon fill="#FFFFFF" points="36.6689,8.02376, 87.4331,38.5652, 58.3439,91.9762, 7.63003,61.4348" />
  <polygon fill="#000000" points="40.994,10.6259, 84.9547,43.1158, 54.0231,89.3741, 10.1041,56.8842" />
  <polygon fill="#FFFFFF" points="44.9769,13.5695, 82.1523,47.3068, 50.044,86.4305, 12.9028,52.6932" />
  <polygon fill="#000000" points="15.9819,48.9373, 48.5457,16.8083, 79.0699,51.0627, 46.4784,83.1917" />
  <polygon fill="#FFFFFF" points="19.2839,45.6794, 51.6409,20.2817, 75.7651,54.3206, 43.3861,79.7183" />
  <polygon fill="#000000" points="22.7396,42.9669, 54.2173,23.917, 72.307,57.0331, 40.812,76.083" />
  <polygon fill="#FFFFFF" points="26.2714,40.8295, 56.247,27.6326, 68.7733,59.1705, 38.7843,72.3674" />
  <polygon fill="#000000" points="29.7965,39.2776, 57.7201,31.3415, 65.2466,60.7224, 37.3127,68.6585" />
  <polygon fill="#FFFFFF" points="33.2311,38.3014, 58.6458,34.9553, 61.8107,61.6986, 36.3882,65.0447" />
  <polygon fill="#000000" points="36.4944,37.8718, 59.0522,38.3892, 58.5465,62.1282, 35.9829,61.6108" />
  <polygon fill="#FFFFFF" points="39.5126,37.941, 58.9845,41.5655, 55.5275,62.059, 36.0513,58.4345" />
  <polygon fill="#000000" points="42.2231,38.4455, 58.5033,44.4182, 52.8164,61.5545, 36.5331,55.5818" />
  <polygon fill="#FFFFFF" points="44.5772,39.3092, 57.681,46.8961, 50.4618,60.6908, 37.3559,53.1039" />
  <polygon fill="#000000" points="46.5428,40.4472, 56.5981,48.9653, 48.4959,59.5528, 38.4391,51.0347" />
  <polygon fill="#FFFFFF" points="39.6984,49.3894, 48.1054,41.7709, 55.339,50.6106, 46.9331,58.2291" />
  <polygon fill="#000000" points="41.0502,48.1644, 49.2686,43.1923, 53.9874,51.8356, 45.7698,56.8077" />
  <polygon fill="#FFFFFF" points="42.4161,47.338, 50.0528,44.6289, 52.6216,52.662, 44.9854,55.3711" />
  <polygon fill="#000000" points="43.7266,46.8731, 50.4936,46.0073, 51.3112,53.1269, 44.5445,53.9927" />
  <polygon fill="#FFFFFF" points="44.9244,46.7199, 50.6383,47.2675, 50.1135,53.2801, 44.3997,52.7325" />
  <polygon fill="#000000" points="45.9666,46.8198, 50.5426,48.3642, 49.0713,53.1802, 44.4954,51.6358" />
  <polygon fill="#FFFFFF" points="46.826,47.1098, 50.2663,49.2686, 48.212,52.8902, 44.7717,50.7314" />
  <polygon fill="#000000" points="47.4906,47.5269, 49.8694,49.9683, 47.5473,52.4731, 45.1686,50.0317" />
  <polygon fill="#FFFFFF" points="45.6297,49.5342, 47.9631,48.0118, 49.4082,50.4658, 47.0749,51.9882" />
  <polygon fill="#000000" points="46.1057,49.2236, 48.2579,48.5124, 48.9322,50.7764, 46.7801,51.4876" />
  <polygon fill="#FFFFFF" points="46.5564,49.0747, 48.3991,48.9865, 48.4816,50.9253, 46.6389,51.0135" />
  <polygon fill="#000000" points="46.9522,49.0557, 48.4168,49.4029, 48.0858,50.9443, 46.6212,50.5971" />
  <polygon fill="#FFFFFF" points="47.2747,49.1322, 48.3439,49.7423, 47.7633,50.8678, 46.6941,50.2577" />
  <polygon fill="#000000" points="47.5159,49.2698, 48.2129,49.9962, 47.522,50.7302, 46.8251,50.0038" />
  <polygon fill="#FFFFFF" points="46.9846,49.8342, 47.6769,49.4376, 48.0533,50.1658, 47.361,50.5624" />
  <polygon fill="#000000" points="47.1483,49.7405, 47.7659,49.6098, 47.8897,50.2595, 47.2721,50.3902" />
  <polygon fill="#FFFFFF" points="47.2976,49.7089, 47.7958,49.7669, 47.7403,50.2911, 47.2421,50.2331" />
  <polygon fill="#000000" points="47.4208,49.7232, 47.7821,49.8965, 47.6172,50.2768, 47.2559,50.1035" />
  <polygon fill="#FFFFFF" points="47.5121,49.767, 47.7404,49.9925, 47.5259,50.233, 47.2975,50.0075" />
  <polygon fill="#000000" points="47.3529,49.9454, 47.571,49.8252, 47.6851,50.0546, 47.467,50.1748" />
  <polygon fill="#FFFFFF" points="47.4103,49.9137, 47.601,49.8856, 47.6276,50.0863, 47.4369,50.1144" />
  <polygon fill="#000000" points="47.4616,49.9062, 47.6082,49.9395, 47.5764,50.0938, 47.4298,50.0605" />
  <polygon fill="#FFFFFF" points="47.5018,49.9153, 47.5995,49.9818, 47.5362,50.0847, 47.4385,50.0182" />
  <polygon fill="#000000" points="47.4562,49.9894, 47.5291,49.9339, 47.5818,50.0106, 47.5089,50.0661" />
  <polygon fill="#FFFFFF" points="47.477,49.9736, 47.5441,49.9558, 47.561,50.0264, 47.4939,50.0442" />
  <polygon fill="#000000" points="47.4965,49.9684, 47.549,49.9763, 47.5415,50.0316, 47.489,50.0237" />
  <polygon fill="#FFFFFF" points="47.512,49.9707, 47.5468,49.9926, 47.526,50.0293, 47.4912,50.0074" />
  <polygon fill="#000000" points="47.4974,49.9963, 47.5225,49.9773, 47.5405,50.0037, 47.5155,50.0227" />
  <polygon fill="#FFFFFF" points="47.5051,49.9905, 47.528,49.9854, 47.5328,50.0095, 47.51,50.0146" />
  <polygon fill="#000000" points="47.5123,49.9889, 47.5295,49.9929, 47.5257,50.0111, 47.5084,50.0071" />
  <polygon fill="#FFFFFF" points="47.5177,49.9902, 47.5283,49.9987, 47.5202,50.0098, 47.5097,50.0013" />
  <polygon fill="#000000" points="47.5123,49.9977, 47.5212,49.9929, 47.5257,50.0023, 47.5168,50.0071" />
  <polygon fill="#FFFFFF" points="47.5152,49.9962, 47.5226,49.996, 47.5228,50.0038, 47.5153,50.004" />
  <polygon fill="#000000" points="47.5177,49.9961, 47.5227,49.9986, 47.5203,50.0039, 47.5153,50.0014" />
  <polygon fill="#FFFFFF" points="47.5161,49.9996, 47.5194,49.997, 47.5219,50.0004, 47.5186,50.003" />
  <polygon fill="#000000" points="47.5172,49.9987, 47.5202,49.9981, 47.5207,50.0013, 47.5177,50.0019" />
  <polygon fill="#FFFFFF" points="47.5183,49.9985, 47.5204,49.9993, 47.5197,50.0015, 47.5175,50.0007" />
  <polygon fill="#000000" points="47.5178,49.9999, 47.519,49.9988, 47.5202,50.0001, 47.5189,50.0012" />
  <polygon fill="#FFFFFF" points="47.5182,49.9995, 47.5194,49.9992, 47.5197,50.0005, 47.5185,50.0008" />
  <polygon fill="#000000" points="47.5187,49.9994, 47.5195,49.9997, 47.5193,50.0006, 47.5184,50.0003" />
  <polygon fill="#FFFFFF" points="47.5185,50, 47.519,49.9995, 47.5194,50, 47.519,50.0005" />
  <polygon fill="#000000" points="47.5187,49.9998, 47.5192,49.9997, 47.5193,50.0002, 47.5188,50.0003" />
  <polygon fill="#FFFFFF" points="47.5189,49.9998, 47.5192,49.9999, 47.5191,50.0002, 47.5188,50.0001" />
  <polygon fill="#000000" points="47.5188,50, 47.519,49.9998, 47.5192,50, 47.519,50.0002" />
  <polygon fill="#FFFFFF" points="47.5189,49.9999, 47.5191,49.9999, 47.5191,50.0001, 47.5189,50.0001" />
  <polygon fill="#000000" points="47.519,49.9999, 47.5191,50, 47.519,50.0001, 47.5189,50" />
  <!-- Shape 2 -->
  <polygon fill="#000000" points="95.1093,0, 154,0, 154,61.6, 95.0214,61.5936" />
  <polygon fill="#FFFFFF" points="95.1056,2.58693, 151.527,0, 154,59.0128, 97.4985,61.5938" />
  <polygon fill="#000000" points="95.219,5.38386, 148.852,0.12262, 153.883,56.2156, 100.177,61.4715" />
  <polygon fill="#FFFFFF" points="95.4808,8.34529, 146.02,0.400414, 153.617,53.2539, 103.012,61.194" />
  <polygon fill="#000000" points="95.9191,11.4211, 143.079,0.862805, 153.175,50.1778, 105.958,60.7319" />
  <polygon fill="#FFFFFF" points="96.5576,14.5572, 140.08,1.53431, 152.533,47.0414, 108.961,60.0606" />
  <polygon fill="#000000" points="97.4134,17.697, 137.077,2.43289, 151.674,43.9014, 111.967,59.1623" />
  <polygon fill="#FFFFFF" points="98.4962,20.782, 134.126,3.56854, 150.588,40.8161, 114.921,58.0269" />
  <polygon fill="#000000" points="99.8069,23.7541, 131.282,4.94218, 149.274,37.8438, 117.767,56.6535" />
  <polygon fill="#FFFFFF" points="101.337,26.5572, 128.601,6.54496, 147.741,35.0406, 120.452,55.0509" />
  <polygon fill="#000000" points="103.069,29.1387, 126.131,8.35806, 146.007,32.4589, 122.924,53.238" />
  <polygon fill="#FFFFFF" points="123.917,10.353, 144.099,30.1452, 125.14,51.2432, 104.975,31.4522" />
  <polygon fill="#000000" points="121.996,12.4925, 142.052,28.1383, 127.063,49.1038, 107.02,33.459" />
  <polygon fill="#FFFFFF" points="120.397,14.7317, 139.91,26.4673, 128.663,46.8647, 109.16,35.1299" />
  <polygon fill="#000000" points="119.136,17.0204, 137.721,25.1506, 129.925,44.5761, 111.349,36.4465" />
  <polygon fill="#FFFFFF" points="118.22,19.3049, 135.535,24.1944, 130.842,42.2917, 113.533,37.4026" />
  <polygon fill="#000000" points="117.644,21.5309, 133.406,23.593, 131.419,40.0657, 115.662,38.0039" />
  <polygon fill="#FFFFFF" points="117.389,23.646, 131.382,23.3283, 131.674,37.9506, 117.685,38.2687" />
  <polygon fill="#000000" points="117.429,25.6025, 129.509,23.3708, 131.635,35.9941, 119.557,38.2261" />
  <polygon fill="#FFFFFF" points="117.725,27.3597, 127.828,23.6814, 131.339,34.237, 121.238,37.9154" />
  <polygon fill="#000000" points="118.233,28.8861, 126.367,24.2133, 130.832,32.7106, 122.699,37.3835" />
  <polygon fill="#FFFFFF" points="118.903,30.1607, 125.147,24.9142, 130.162,31.436, 123.919,36.6826" />
  <polygon fill="#000000" points="124.177,25.7295, 129.383,30.4226, 124.889,35.8673, 119.682,31.1742" />
  <polygon fill="#FFFFFF" points="123.454,26.605, 128.545,29.6679, 125.612,34.9918, 120.52,31.9289" />
  <polygon fill="#000000" points="122.966,27.4899, 127.699,29.1589, 126.099,34.1069, 121.366,32.4379" />
  <polygon fill="#FFFFFF" points="122.692,28.3389, 126.887,28.8725, 126.374,33.2578, 122.178,32.7243" />
  <polygon fill="#000000" points="122.601,29.1152, 126.144,28.778, 126.465,32.4816, 122.921,32.8188" />
  <polygon fill="#FFFFFF" points="122.659,29.7907, 125.498,28.8395, 126.406,31.8061, 123.567,32.7573" />
  <polygon fill="#000000" points="122.83,30.3478, 124.965,29.0182, 126.236,31.249, 124.1,32.5786" />
  <polygon fill="#FFFFFF" points="123.075,30.7788, 124.552,29.275, 125.99,30.818, 124.513,32.3217" />
  <polygon fill="#000000" points="124.259,29.5737, 125.705,30.5116, 124.806,32.0231, 123.361,31.0852" />
  <polygon fill="#FFFFFF" points="124.076,29.882, 125.41,30.3202, 124.99,31.7147, 123.656,31.2766" />
  <polygon fill="#000000" points="123.988,30.1741, 125.13,30.2285, 125.078,31.4227, 123.935,31.3683" />
  <polygon fill="#FFFFFF" points="123.976,30.4306, 124.885,30.2168, 125.089,31.1662, 124.18,31.38" />
  <polygon fill="#000000" points="124.021,30.6396, 124.685,30.2639, 125.044,30.9571, 124.38,31.3329" />
  <polygon fill="#FFFFFF" points="124.102,30.796, 124.535,30.3486, 124.963,30.8007, 124.53,31.2481" />
  <polygon fill="#000000" points="124.435,30.452, 124.864,30.6963, 124.63,31.1448, 124.201,30.9005" />
  <polygon fill="#FFFFFF" points="124.38,30.558, 124.763,30.6385, 124.685,31.0388, 124.303,30.9582" />
  <polygon fill="#000000" points="124.361,30.6548, 124.67,30.6191, 124.704,30.942, 124.395,30.9777" />
  <polygon fill="#FFFFFF" points="124.37,30.7346, 124.594,30.6279, 124.696,30.8622, 124.472,30.9689" />
  <polygon fill="#000000" points="124.395,30.7938, 124.537,30.6549, 124.67,30.803, 124.528,30.9419" />
  <polygon fill="#FFFFFF" points="124.501,30.6907, 124.636,30.7648, 124.565,30.9061, 124.43,30.832" />
  <polygon fill="#000000" points="124.482,30.7279, 124.6,30.7453, 124.583,30.8689, 124.465,30.8515" />
  <polygon fill="#FFFFFF" points="124.477,30.7611, 124.568,30.7406, 124.588,30.8356, 124.497,30.8562" />
  <polygon fill="#000000" points="124.483,30.7872, 124.543,30.7462, 124.583,30.8096, 124.522,30.8505" />
  <polygon fill="#FFFFFF" points="124.526,30.7577, 124.572,30.7919, 124.539,30.8391, 124.494,30.8049" />
  <polygon fill="#000000" points="124.517,30.7712, 124.559,30.7821, 124.548,30.8256, 124.507,30.8147" />
  <polygon fill="#FFFFFF" points="124.514,30.7838, 124.547,30.7789, 124.551,30.813, 124.519,30.8178" />
  <polygon fill="#000000" points="124.515,30.7939, 124.537,30.7804, 124.55,30.8029, 124.528,30.8164" />
  <polygon fill="#FFFFFF" points="124.531,30.7844, 124.546,30.7961, 124.535,30.8124, 124.519,30.8007" />
  <!-- Shape 3 -->
  <polygon fill="#FFFFFF" points="117.496,61.596, 154,61.6, 154,100, 117.354,100" />
  <polygon fill="#000000" points="119.03,61.5962, 154,63.2128, 152.461,100, 117.36,98.387" />
  <polygon fill="#FFFFFF" points="120.687,61.6728, 153.927,64.9565, 150.797,99.9235, 117.439,96.6431" />
  <polygon fill="#000000" points="122.442,61.8462, 153.762,66.8028, 149.036,99.7503, 117.61,94.7967" />
  <polygon fill="#FFFFFF" points="124.265,62.1347, 153.487,68.7203, 147.207,99.462, 117.892,92.879" />
  <polygon fill="#000000" points="126.124,62.5535, 153.087,70.6755, 145.342,99.0434, 118.297,90.9237" />
  <polygon fill="#FFFFFF" points="127.984,63.1139, 152.553,72.6329, 143.476,98.4831, 118.837,88.9661" />
  <polygon fill="#000000" points="129.812,63.8221, 151.878,74.5561, 141.643,97.775, 119.518,87.0427" />
  <polygon fill="#FFFFFF" points="131.573,64.6787, 151.061,76.409, 139.877,96.9186, 120.339,85.1897" />
  <polygon fill="#000000" points="133.233,65.6781, 150.108,78.1564, 138.213,95.9193, 121.296,83.4422" />
  <polygon fill="#FFFFFF" points="134.762,66.8087, 149.03,79.7657, 136.68,94.7889, 122.378,81.8328" />
  <polygon fill="#000000" points="123.567,80.3904, 136.132,68.0525, 147.845,81.208, 135.307,93.5451" />
  <polygon fill="#FFFFFF" points="124.841,79.1394, 137.32,69.3865, 146.573,82.4589, 134.117,92.2112" />
  <polygon fill="#000000" points="126.173,78.0978, 138.308,70.7826, 145.243,83.5005, 133.126,90.8151" />
  <polygon fill="#FFFFFF" points="127.535,77.277, 139.086,72.2096, 143.883,84.3212, 132.346,89.3882" />
  <polygon fill="#000000" points="128.893,76.6811, 139.65,73.6339, 142.527,84.9171, 131.78,87.964" />
  <polygon fill="#FFFFFF" points="130.216,76.3063, 140.004,75.0217, 141.205,85.2918, 131.425,86.5762" />
  <polygon fill="#000000" points="131.473,76.1413, 140.158,76.3404, 139.949,85.4567, 131.27,85.2575" />
  <polygon fill="#FFFFFF" points="132.635,76.168, 140.13,77.5602, 138.788,85.4301, 131.297,84.0378" />
  <polygon fill="#000000" points="133.678,76.3618, 139.943,78.6557, 137.745,85.2363, 131.483,82.9423" />
  <polygon fill="#FFFFFF" points="134.584,76.6935, 139.625,79.6072, 136.84,84.9046, 131.801,81.9908" />
  <polygon fill="#000000" points="135.341,77.1305, 139.208,80.4018, 136.084,84.4675, 132.218,81.1962" />
  <polygon fill="#FFFFFF" points="132.703,80.5644, 135.941,77.6389, 138.722,81.0336, 135.483,83.9591" />
  <polygon fill="#000000" points="133.224,80.0939, 136.389,78.1848, 138.201,81.5041, 135.036,83.4133" />
  <polygon fill="#FFFFFF" points="133.75,79.7766, 136.69,78.7364, 137.675,81.8214, 134.735,82.8616" />
  <polygon fill="#000000" points="134.255,79.5981, 136.859,79.2658, 137.171,81.9999, 134.566,82.3322" />
  <polygon fill="#FFFFFF" points="134.716,79.5393, 136.914,79.7497, 136.71,82.0587, 134.511,81.8483" />
  <polygon fill="#000000" points="135.117,79.5777, 136.877,80.1709, 136.309,82.0203, 134.548,81.4271" />
  <polygon fill="#FFFFFF" points="135.447,79.6891, 136.77,80.5182, 135.978,81.9089, 134.655,81.0798" />
  <polygon fill="#000000" points="135.703,79.8493, 136.617,80.7869, 135.722,81.7487, 134.808,80.8111" />
  <polygon fill="#FFFFFF" points="134.986,80.6201, 135.884,80.0355, 136.439,80.9779, 135.541,81.5625" />
  <polygon fill="#000000" points="135.169,80.5008, 135.998,80.2277, 136.256,81.0972, 135.428,81.3703" />
  <polygon fill="#FFFFFF" points="135.343,80.4437, 136.052,80.4098, 136.083,81.1544, 135.373,81.1882" />
  <polygon fill="#000000" points="135.495,80.4364, 136.058,80.5697, 135.93,81.1616, 135.367,81.0283" />
  <polygon fill="#FFFFFF" points="135.619,80.4657, 136.03,80.7001, 135.806,81.1323, 135.395,80.8979" />
  <polygon fill="#000000" points="135.712,80.5186, 135.98,80.7976, 135.713,81.0794, 135.445,80.8004" />
  <polygon fill="#FFFFFF" points="135.507,80.7353, 135.774,80.5831, 135.918,80.8627, 135.652,81.015" />
  <polygon fill="#000000" points="135.57,80.6993, 135.808,80.6492, 135.855,80.8987, 135.617,80.9489" />
  <polygon fill="#FFFFFF" points="135.627,80.6872, 135.819,80.7095, 135.798,80.9108, 135.606,80.8885" />
  <polygon fill="#000000" points="135.675,80.6927, 135.814,80.7593, 135.75,80.9053, 135.611,80.8388" />
  <polygon fill="#FFFFFF" points="135.71,80.7095, 135.798,80.7961, 135.715,80.8885, 135.627,80.8019" />
  <polygon fill="#000000" points="135.649,80.778, 135.733,80.7319, 135.776,80.82, 135.692,80.8661" />
  <polygon fill="#FFFFFF" points="135.671,80.7659, 135.744,80.7551, 135.754,80.8321, 135.681,80.8429" />
  <polygon fill="#000000" points="135.691,80.763, 135.747,80.7758, 135.735,80.835, 135.678,80.8222" />
  <polygon fill="#FFFFFF" points="135.706,80.7665, 135.744,80.792, 135.719,80.8315, 135.682,80.806" />
  <polygon fill="#000000" points="135.688,80.7949, 135.716,80.7736, 135.737,80.8031, 135.709,80.8244" />
  <polygon fill="#FFFFFF" points="135.696,80.7889, 135.722,80.782, 135.729,80.8091, 135.703,80.816" />
  <polygon fill="#000000" points="135.704,80.7869, 135.724,80.7899, 135.721,80.8111, 135.701,80.8081" />
  <polygon fill="#FFFFFF" points="135.71,80.7878, 135.723,80.7962, 135.715,80.8102, 135.702,80.8018" />
  <polygon fill="#000000" points="135.704,80.7976, 135.714,80.7903, 135.721,80.8004, 135.711,80.8077" />
  <!-- Shape 4 -->
  <polygon fill="#000000" points="95.0007,76.1309, 117.442,76.29, 117.354,100, 94.9667,100" />
  <polygon fill="#FFFFFF" points="94.9983,77.8136, 115.86,76.2788, 117.36,98.3284, 96.545,100" />
  <polygon fill="#000000" points="95.1211,79.5752, 114.203,76.4007, 117.241,96.5777, 98.1977,99.8673" />
  <polygon fill="#FFFFFF" points="95.3928,81.367, 112.518,76.681, 116.973,94.7961, 99.8792,99.5768" />
  <polygon fill="#000000" points="95.8288,83.137, 110.854,77.1365, 116.54,93.0353, 101.541,99.1121" />
  <polygon fill="#FFFFFF" points="96.4349,84.832, 109.26,77.7731, 115.936,91.3484, 103.132,98.4674" />
  <polygon fill="#000000" points="97.205,86.4, 107.785,78.5849, 115.169,89.7873, 104.605,97.6487" />
  <polygon fill="#FFFFFF" points="98.1218,87.7938, 106.474,79.5532, 114.254,88.3993, 105.913,96.6747" />
  <polygon fill="#000000" points="105.365,80.6475, 113.221,87.2245, 107.021,95.5757, 99.1566,88.9731" />
  <polygon fill="#FFFFFF" points="104.485,81.8273, 112.107,86.2926, 107.899,94.3923, 100.271,89.9087" />
  <polygon fill="#000000" points="103.85,83.0443, 110.959,85.6201, 108.533,93.1725, 101.42,90.584" />
  <polygon fill="#FFFFFF" points="103.463,84.2469, 109.826,85.2093, 108.92,91.9679, 102.554,90.9968" />
  <polygon fill="#000000" points="103.31,85.3836, 108.754,85.0472, 109.073,90.8297, 103.626,91.1604" />
  <polygon fill="#FFFFFF" points="103.366,86.4078, 107.789,85.1068, 109.016,89.8045, 104.592,91.1017" />
  <polygon fill="#000000" points="103.594,87.2818, 106.965,85.3491, 108.788,88.9298, 105.416,90.8602" />
  <polygon fill="#FFFFFF" points="103.95,87.98, 106.308,85.7262, 108.432,88.2312, 106.074,90.4836" />
  <polygon fill="#000000" points="105.827,86.1859, 107.999,87.7202, 106.555,90.0241, 104.383,88.4907" />
  <polygon fill="#FFFFFF" points="105.519,86.6766, 107.536,87.3935, 106.862,89.5336, 104.845,88.8172" />
  <polygon fill="#000000" points="105.37,87.1514, 107.089,87.2345, 107.012,89.0589, 105.293,88.9761" />
  <polygon fill="#FFFFFF" points="105.352,87.5723, 106.692,87.2153, 107.029,88.638, 105.689,88.9952" />
  <polygon fill="#000000" points="105.433,87.9133, 106.371,87.3009, 106.949,88.2972, 106.01,88.9096" />
  <polygon fill="#FFFFFF" points="106.138,87.4531, 106.805,88.0496, 106.244,88.7574, 105.576,88.1608" />
  <polygon fill="#000000" points="105.993,87.6352, 106.633,87.896, 106.388,88.5752, 105.748,88.3144" />
  <polygon fill="#FFFFFF" points="105.928,87.8161, 106.463,87.8266, 106.453,88.3943, 105.918,88.3839" />
  <polygon fill="#000000" points="105.925,87.9723, 106.316,87.8237, 106.456,88.2381, 106.066,88.3867" />
  <polygon fill="#FFFFFF" points="105.965,88.0901, 106.205,87.8659, 106.416,88.1204, 106.177,88.3445" />
  <polygon fill="#000000" points="106.135,87.9316, 106.354,88.0458, 106.247,88.2788, 106.027,88.1646" />
  <polygon fill="#FFFFFF" points="106.102,88.002, 106.288,88.0113, 106.279,88.2085, 106.093,88.1991" />
  <polygon fill="#000000" points="106.1,88.0632, 106.23,88.0084, 106.282,88.1472, 106.151,88.202" />
  <polygon fill="#FFFFFF" points="106.188,88.0259, 106.265,88.1028, 106.193,88.1845, 106.116,88.1076" />
  <polygon fill="#000000" points="106.165,88.0528, 106.24,88.0776, 106.217,88.1577, 106.141,88.1329" />
  <polygon fill="#FFFFFF" points="106.157,88.0798, 106.215,88.0692, 106.225,88.1306, 106.167,88.1412" />
  <polygon fill="#000000" points="106.16,88.1011, 106.195,88.0729, 106.221,88.1094, 106.187,88.1376" />
  <polygon fill="#FFFFFF" points="106.182,88.0829, 106.212,88.0964, 106.199,88.1275, 106.17,88.114" />
  <polygon fill="#000000" points="106.178,88.0942, 106.201,88.0915, 106.204,88.1162, 106.18,88.119" />
  <polygon fill="#FFFFFF" points="106.179,88.1035, 106.192,88.0925, 106.203,88.107, 106.189,88.1179" />
  <polygon fill="#000000" points="106.187,88.0967, 106.199,88.1015, 106.194,88.1137, 106.183,88.109" />
  <polygon fill="#FFFFFF" points="106.185,88.1015, 106.194,88.0996, 106.196,88.1089, 106.187,88.1109" />
  <polygon fill="#000000" points="106.191,88.1004, 106.195,88.1052, 106.191,88.1101, 106.186,88.1052" />
  <polygon fill="#FFFFFF" points="106.189,88.1024, 106.193,88.1032, 106.193,88.1081, 106.188,88.1072" />
  <polygon fill="#000000" points="106.189,88.1044, 106.192,88.1029, 106.193,88.1061, 106.19,88.1076" />
  <polygon fill="#FFFFFF" points="106.19,88.1035, 106.192,88.1047, 106.191,88.1069, 106.189,88.1057" />
  <polygon fill="#000000" points="106.19,88.1045, 106.191,88.1042, 106.192,88.106, 106.19,88.1063" />
  <polygon fill="#FFFFFF" points="106.191,88.1043, 106.192,88.1052, 106.191,88.1061, 106.19,88.1053" />
  <polygon fill="#000000" points="106.19,88.1048, 106.191,88.1048, 106.191,88.1057, 106.19,88.1057" />
  <polygon fill="#FFFFFF" points="106.191,88.1048, 106.191,88.1053, 106.191,88.1057, 106.19,88.1052" />
  <polygon fill="#000000" points="106.191,88.105, 106.191,88.105, 106.191,88.1055, 106.19,88.1054" />
  <polygon fill="#FFFFFF" points="106.191,88.105, 106.191,88.1053, 106.191,88.1052, 106.191,88.1054" />
  <polygon fill="#000000" points="106.191,88.1051, 106.191,88.1052, 106.191,88.1052, 106.191,88.1053" />
  <polygon fill="#FFFFFF" points="106.191,88.1053, 106.191,88.1052, 106.191,88.1052, 106.191,88.1052" />
  <!-- Shape 5 -->
  <polygon fill="#FFFFFF" points="95.0214,61.5936, 108.941,61.5951, 108.95,76.2298, 95.0007,76.1309" />
  <polygon fill="#000000" points="96.7197,61.5938, 108.942,63.3805, 107.248,76.2177, 95.0032,74.3573" />
  <polygon fill="#FFFFFF" points="98.3324,61.8295, 108.719,65.0744, 105.633,75.9722, 95.2297,72.6732" />
  <polygon fill="#000000" points="99.8063,62.29, 108.281,66.6208, 104.156,75.5041, 95.67,71.1345" />
  <polygon fill="#FFFFFF" points="101.093,62.9476, 107.655,67.9697, 102.868,74.8406, 96.2981,69.7914" />
  <polygon fill="#000000" points="97.0739,68.6841, 102.155,63.7602, 106.88,69.0814, 101.805,74.0236" />
  <polygon fill="#FFFFFF" points="97.9466,67.8384, 102.966,64.6741, 106.008,69.9303, 100.992,73.1066" />
  <polygon fill="#000000" points="98.8587,67.2635, 103.519,65.6291, 105.097,70.5074, 100.439,72.1493" />
  <polygon fill="#FFFFFF" points="99.7518,66.9502, 103.822,66.5641, 104.204,70.8221, 100.136,71.213" />
  <polygon fill="#000000" points="100.572,66.8724, 103.899,67.4225, 103.384,70.9009, 100.059,70.3536" />
  <polygon fill="#FFFFFF" points="101.276,66.9888, 103.79,68.1583, 102.681,70.7851, 100.167,69.6171" />
  <polygon fill="#000000" points="101.833,67.2478, 103.544,68.7402, 102.124,70.5264, 100.413,69.035" />
  <polygon fill="#FFFFFF" points="100.741,68.6213, 102.229,67.5932, 103.215,69.1536, 101.728,70.1812" />
  <polygon fill="#000000" points="101.101,68.3731, 102.467,67.9699, 102.856,69.4016, 101.49,69.8046" />
  <polygon fill="#FFFFFF" points="101.444,68.2718, 102.565,68.3298, 102.513,69.5029, 101.392,69.4448" />
  <polygon fill="#000000" points="101.737,68.2869, 102.551,68.6363, 102.22,69.4878, 101.406,69.1383" />
  <polygon fill="#FFFFFF" points="101.958,68.3817, 102.461,68.8673, 101.999,69.393, 101.495,68.9074" />
  <polygon fill="#000000" points="101.625,68.7596, 102.099,68.5182, 102.331,69.0151, 101.857,69.2564" />
  <polygon fill="#FFFFFF" points="101.763,68.6893, 102.167,68.6629, 102.193,69.0854, 101.79,69.1118" />
  <polygon fill="#000000" points="101.885,68.6814, 102.175,68.7901, 102.072,69.0933, 101.782,68.9846" />
  <polygon fill="#FFFFFF" points="101.975,68.7152, 102.143,68.8844, 101.982,69.0595, 101.814,68.8902" />
  <polygon fill="#000000" points="101.866,68.8341, 102.029,68.7695, 102.091,68.9406, 101.928,69.0052" />
  <polygon fill="#FFFFFF" points="101.92,68.8127, 102.05,68.8261, 102.037,68.962, 101.907,68.9485" />
  <polygon fill="#000000" points="101.964,68.8173, 102.045,68.8724, 101.993,68.9574, 101.912,68.9022" />
  <polygon fill="#FFFFFF" points="101.93,68.8724, 101.993,68.8366, 102.027,68.9022, 101.964,68.938" />
  <polygon fill="#000000" points="101.953,68.8595, 102.005,68.8603, 102.004,68.9152, 101.952,68.9144" />
  <polygon fill="#FFFFFF" points="101.972,68.8598, 102.005,68.8806, 101.985,68.9149, 101.952,68.894" />
  <polygon fill="#000000" points="101.96,68.881, 101.984,68.8677, 101.997,68.8937, 101.972,68.9069" />
  <polygon fill="#FFFFFF" points="101.969,68.8758, 101.989,68.8779, 101.987,68.8988, 101.967,68.8968" />
  <polygon fill="#000000" points="101.977,68.8766, 101.989,68.8863, 101.979,68.898, 101.968,68.8884" />
  <polygon fill="#FFFFFF" points="101.972,68.8836, 101.982,68.8806, 101.985,68.8911, 101.975,68.8941" />
  <polygon fill="#000000" points="101.976,68.8823, 101.983,68.885, 101.981,68.8923, 101.974,68.8897" />
  <polygon fill="#FFFFFF" points="101.975,68.8865, 101.979,68.8835, 101.982,68.8882, 101.978,68.8912" />
  <polygon fill="#000000" points="101.977,68.8852, 101.98,68.8855, 101.98,68.8895, 101.976,68.8891" />
  <polygon fill="#FFFFFF" points="101.978,68.8853, 101.98,68.8873, 101.978,68.8893, 101.977,68.8873" />
  <polygon fill="#000000" points="101.977,68.8864, 101.979,68.8863, 101.979,68.8882, 101.978,68.8884" />
  <polygon fill="#FFFFFF" points="101.978,68.8863, 101.979,68.8872, 101.979,68.8883, 101.977,68.8875" />
  <polygon fill="#000000" points="101.978,68.8869, 101.979,68.8867, 101.979,68.8877, 101.978,68.8879" />
  <polygon fill="#FFFFFF" points="101.978,68.8868, 101.979,68.8872, 101.979,68.8878, 101.978,68.8874" />
  <polygon fill="#000000" points="101.978,68.8871, 101.979,68.887, 101.979,68.8875, 101.978,68.8876" />
  <polygon fill="#FFFFFF" points="101.978,68.8874, 101.978,68.8871, 101.979,68.8873, 101.978,68.8876" />
  <polygon fill="#000000" points="101.979,68.8872, 101.978,68.8872, 101.979,68.8874, 101.978,68.8875" />
  <!-- Shape 6 -->
  <polygon fill="#000000" points="108.941,61.5951, 117.496,61.596, 117.463,70.73, 108.947,70.5848" />
  <polygon fill="#FFFFFF" points="108.942,62.9435, 116.213,61.5959, 117.468,69.3599, 110.224,70.6066" />
  <polygon fill="#000000" points="109.153,64.2068, 115.015,61.818, 117.261,68.08, 111.418,70.4011" />
  <polygon fill="#FFFFFF" points="109.56,65.3199, 113.961,62.2473, 116.857,66.9548, 112.468,69.984" />
  <polygon fill="#000000" points="113.105,62.8451, 116.294,66.0389, 113.322,69.3947, 110.126,66.2273" />
  <polygon fill="#FFFFFF" points="112.481,63.5533, 115.626,65.3701, 113.944,68.692, 110.795,66.8906" />
  <polygon fill="#000000" points="112.103,64.3017, 114.921,64.9627, 114.321,67.947, 111.502,67.2945" />
  <polygon fill="#FFFFFF" points="111.959,65.0173, 114.247,64.8047, 114.465,67.2335, 112.176,67.4505" />
  <polygon fill="#000000" points="112.014,65.6352, 113.666,64.8587, 114.41,66.6167, 112.757,67.3954" />
  <polygon fill="#FFFFFF" points="112.214,66.1084, 113.222,65.0674, 114.21,66.1441, 113.201,67.1861" />
  <polygon fill="#000000" points="112.936,65.3627, 113.93,65.8387, 113.487,66.8905, 112.494,66.4141" />
  <polygon fill="#FFFFFF" points="112.804,65.6765, 113.633,65.6966, 113.619,66.5766, 112.791,66.5563" />
  <polygon fill="#000000" points="112.8,65.9522, 113.373,65.6903, 113.624,66.3008, 113.05,66.5626" />
  <polygon fill="#FFFFFF" points="113.185,65.7763, 113.541,66.1005, 113.238,66.4767, 112.882,66.1525" />
  <polygon fill="#000000" points="113.081,65.9053, 113.419,65.9892, 113.342,66.3476, 113.004,66.2637" />
  <polygon fill="#FFFFFF" points="113.054,66.0336, 113.298,65.9592, 113.37,66.2194, 113.125,66.2938" />
  <polygon fill="#000000" points="113.207,65.9869, 113.343,66.1224, 113.216,66.266, 113.08,66.1306" />
  <polygon fill="#FFFFFF" points="113.158,66.0426, 113.29,66.0699, 113.266,66.2104, 113.133,66.1831" />
  <polygon fill="#000000" points="113.148,66.0992, 113.237,66.0589, 113.276,66.1538, 113.186,66.1941" />
  <polygon fill="#FFFFFF" points="113.2,66.0757, 113.26,66.1142, 113.224,66.1773, 113.164,66.1388" />
  <polygon fill="#000000" points="113.184,66.103, 113.234,66.0976, 113.239,66.15, 113.19,66.1554" />
  <polygon fill="#FFFFFF" points="113.187,66.1264, 113.212,66.1, 113.237,66.1266, 113.212,66.153" />
  <polygon fill="#000000" points="113.2,66.1122, 113.225,66.1143, 113.223,66.1408, 113.198,66.1387" />
  <polygon fill="#FFFFFF" points="113.199,66.1248, 113.213,66.1133, 113.224,66.1282, 113.21,66.1397" />
  <polygon fill="#000000" points="113.206,66.119, 113.219,66.1209, 113.217,66.134, 113.205,66.1321" />
  <polygon fill="#FFFFFF" points="113.206,66.1256, 113.213,66.1199, 113.218,66.1274, 113.211,66.1331" />
  <polygon fill="#000000" points="113.209,66.1229, 113.215,66.1235, 113.215,66.1301, 113.208,66.1295" />
  <polygon fill="#FFFFFF" points="113.209,66.1264, 113.212,66.1232, 113.215,66.1265, 113.212,66.1298" />
  <polygon fill="#000000" points="113.21,66.125, 113.213,66.1247, 113.213,66.128, 113.21,66.1283" />
  <polygon fill="#FFFFFF" points="113.211,66.1248, 113.213,66.1261, 113.212,66.1281, 113.21,66.1269" />
  <polygon fill="#000000" points="113.211,66.126, 113.212,66.1254, 113.213,66.127, 113.211,66.1276" />
  <polygon fill="#FFFFFF" points="113.211,66.1258, 113.212,66.126, 113.212,66.1272, 113.211,66.127" />
  <polygon fill="#000000" points="113.212,66.1259, 113.212,66.1265, 113.212,66.1271, 113.211,66.1265" />
  <polygon fill="#FFFFFF" points="113.211,66.1263, 113.212,66.1261, 113.212,66.1267, 113.212,66.1269" />
  <polygon fill="#000000" points="113.212,66.1262, 113.212,66.1263, 113.212,66.1268, 113.212,66.1267" />
  <polygon fill="#FFFFFF" points="113.212,66.1265, 113.212,66.1262, 113.212,66.1265, 113.212,66.1267" />
  <polygon fill="#000000" points="113.212,66.1264, 113.212,66.1263, 113.212,66.1266, 113.212,66.1267" />
  <polygon fill="#FFFFFF" points="113.212,66.1264, 113.212,66.1264, 113.212,66.1266, 113.212,66.1266" />
  <!-- Shape 7 -->
  <polygon fill="#FFFFFF" points="112.529,70.6459, 117.463,70.73, 117.442,76.29, 112.502,76.255" />
  <polygon fill="#000000" points="113.511,70.6626, 117.458,71.8365, 116.459,76.283, 112.507,75.1388" />
  <polygon fill="#FFFFFF" points="114.351,70.9126, 117.246,72.7834, 115.617,76.0394, 112.721,74.1856" />
  <polygon fill="#000000" points="113.091,73.4429, 115.008,71.3371, 116.876,73.5222, 114.96,75.6187" />
  <polygon fill="#FFFFFF" points="113.553,72.9358, 115.458,71.8634, 116.415,74.0271, 114.51,75.0947" />
  <polygon fill="#000000" points="114.038,72.6625, 115.702,72.4147, 115.929,74.2991, 114.266,74.5446" />
  <polygon fill="#FFFFFF" points="114.485,72.5959, 115.763,72.9211, 115.482,74.3651, 114.205,74.0388" />
  <polygon fill="#000000" points="114.846,72.6878, 115.684,73.3293, 115.121,74.2729, 114.284,73.6309" />
  <polygon fill="#FFFFFF" points="114.451,73.3511, 115.095,72.8781, 115.517,73.6092, 114.873,74.0824" />
  <polygon fill="#000000" points="114.651,73.2042, 115.226,73.1052, 115.317,73.7562, 114.742,73.8553" />
  <polygon fill="#FFFFFF" points="114.837,73.1721, 115.255,73.3165, 115.13,73.7884, 114.712,73.644" />
  <polygon fill="#000000" points="114.979,73.221, 115.213,73.4762, 114.989,73.7395, 114.755,73.4842" />
  <polygon fill="#FFFFFF" points="114.834,73.3915, 115.061,73.3109, 115.134,73.569, 114.906,73.6495" />
  <polygon fill="#000000" points="114.917,73.362, 115.088,73.4055, 115.05,73.5985, 114.88,73.555" />
  <polygon fill="#FFFFFF" points="114.982,73.3785, 115.074,73.4789, 114.985,73.582, 114.894,73.4816" />
  <polygon fill="#000000" points="114.929,73.4409, 115.018,73.4181, 115.039,73.5195, 114.949,73.5424" />
  <polygon fill="#FFFFFF" points="114.965,73.4316, 115.027,73.4595, 115.002,73.5289, 114.941,73.501" />
  <polygon fill="#000000" points="114.951,73.4717, 114.991,73.4434, 115.016,73.4888, 114.976,73.5171" />
  <polygon fill="#FFFFFF" points="114.969,73.4593, 115.002,73.4632, 114.999,73.5011, 114.965,73.4973" />
  <polygon fill="#000000" points="114.967,73.4802, 114.984,73.4611, 115.001,73.4803, 114.984,73.4994" />
  <polygon fill="#FFFFFF" points="114.975,73.4713, 114.992,73.47, 114.993,73.4891, 114.976,73.4905" />
  <polygon fill="#000000" points="114.983,73.4707, 114.992,73.4791, 114.985,73.4898, 114.975,73.4813" />
  <polygon fill="#FFFFFF" points="114.979,73.4761, 114.987,73.4748, 114.989,73.4844, 114.98,73.4856" />
  <polygon fill="#000000" points="114.983,73.4755, 114.988,73.4797, 114.984,73.485, 114.98,73.4808" />
  <polygon fill="#FFFFFF" points="114.981,73.478, 114.986,73.4776, 114.986,73.4824, 114.982,73.4828" />
  <polygon fill="#000000" points="114.984,73.4778, 114.986,73.4802, 114.984,73.4826, 114.982,73.4803" />
  <polygon fill="#FFFFFF" points="114.983,73.4789, 114.985,73.4791, 114.985,73.4815, 114.983,73.4813" />
  <polygon fill="#000000" points="114.983,73.48, 114.984,73.479, 114.985,73.4805, 114.984,73.4814" />
  <polygon fill="#FFFFFF" points="114.983,73.4794, 114.984,73.4799, 114.984,73.481, 114.983,73.4806" />
  <polygon fill="#000000" points="114.983,73.4799, 114.984,73.4797, 114.984,73.4806, 114.983,73.4808" />
  <polygon fill="#FFFFFF" points="114.984,73.4798, 114.984,73.4802, 114.984,73.4807, 114.983,73.4803" />
  <polygon fill="#000000" points="114.984,73.48, 114.984,73.48, 114.984,73.4805, 114.983,73.4804" />
  <polygon fill="#FFFFFF" points="114.984,73.4801, 114.984,73.48, 114.984,73.4803, 114.984,73.4805" />
  <!-- Shape 8 -->
  <polygon fill="#FFFFFF" points="108.947,70.5848, 112.529,70.6459, 112.518,72.8635, 108.948,72.8652" />
  <polygon fill="#000000" points="109.66,70.597, 112.527,71.0872, 111.808,72.8638, 108.948,72.4114" />
  <polygon fill="#FFFFFF" points="110.272,70.7018, 112.373,71.467, 111.196,72.7671, 109.1,72.0235" />
  <polygon fill="#000000" points="109.368,71.7215, 110.752,70.8766, 112.104,71.764, 110.717,72.5972" />
  <polygon fill="#FFFFFF" points="109.705,71.516, 111.081,71.0925, 111.767,71.9667, 110.389,72.3842" />
  <polygon fill="#000000" points="110.06,71.4067, 111.258,71.318, 111.411,72.0744, 110.213,72.1602" />
  <polygon fill="#FFFFFF" points="110.387,71.3825, 111.3,71.5243, 111.084,72.0978, 110.171,71.9547" />
  <polygon fill="#000000" points="110.649,71.4233, 111.238,71.6892, 110.822,72.0567, 110.233,71.7902" />
  <polygon fill="#FFFFFF" points="110.359,71.6793, 110.827,71.5037, 111.112,71.8003, 110.644,71.9761" />
  <polygon fill="#000000" points="110.507,71.6236, 110.918,71.5977, 110.964,71.856, 110.553,71.882" />
  <polygon fill="#FFFFFF" points="110.643,71.615, 110.933,71.6834, 110.828,71.8647, 110.538,71.7963" />
  <polygon fill="#000000" points="110.575,71.7335, 110.744,71.6387, 110.896,71.7462, 110.727,71.841" />
  <polygon fill="#FFFFFF" points="110.636,71.6993, 110.799,71.6775, 110.835,71.7804, 110.672,71.8021" />
  <polygon fill="#000000" points="110.697,71.6911, 110.813,71.7162, 110.774,71.7886, 110.658,71.7635" />
  <polygon fill="#FFFFFF" points="110.673,71.7352, 110.742,71.7009, 110.797,71.7445, 110.729,71.7788" />
  <polygon fill="#000000" points="110.701,71.7213, 110.765,71.7186, 110.77,71.7584, 110.706,71.7611" />
  <polygon fill="#FFFFFF" points="110.728,71.7202, 110.767,71.7353, 110.743,71.7595, 110.704,71.7444" />
  <polygon fill="#000000" points="110.715,71.7338, 110.745,71.7268, 110.756,71.7459, 110.726,71.7529" />
  <polygon fill="#FFFFFF" points="110.728,71.7306, 110.75,71.7353, 110.743,71.749, 110.721,71.7443" />
  <polygon fill="#000000" points="110.724,71.738, 110.738,71.7328, 110.747,71.7417, 110.733,71.7469" />
  <polygon fill="#FFFFFF" points="110.731,71.7355, 110.742,71.7371, 110.74,71.7442, 110.729,71.7426" />
  <polygon fill="#000000" points="110.73,71.7391, 110.737,71.7363, 110.741,71.7406, 110.734,71.7434" />
  <polygon fill="#FFFFFF" points="110.733,71.7377, 110.739,71.7385, 110.738,71.742, 110.732,71.7412" />
  <polygon fill="#000000" points="110.733,71.7394, 110.736,71.7381, 110.738,71.7403, 110.735,71.7416" />
  <polygon fill="#FFFFFF" points="110.735,71.7387, 110.737,71.7393, 110.736,71.741, 110.734,71.7404" />
  <polygon fill="#000000" points="110.734,71.7394, 110.736,71.739, 110.737,71.7402, 110.735,71.7407" />
  <polygon fill="#FFFFFF" points="110.735,71.7392, 110.736,71.7397, 110.736,71.7405, 110.734,71.74" />
  <polygon fill="#000000" points="110.735,71.7395, 110.736,71.7395, 110.736,71.7402, 110.735,71.7402" />
  <polygon fill="#FFFFFF" points="110.735,71.7398, 110.736,71.7395, 110.736,71.7399, 110.735,71.7402" />
  <polygon fill="#000000" points="110.735,71.7396, 110.736,71.7397, 110.736,71.7401, 110.735,71.7399" />
  <polygon fill="#FFFFFF" points="110.735,71.7397, 110.736,71.7397, 110.736,71.7399, 110.735,71.74" />
  <polygon fill="#000000" points="110.735,71.7397, 110.736,71.7399, 110.735,71.74, 110.735,71.7398" />
  <polygon fill="#FFFFFF" points="110.735,71.7399, 110.735,71.7398, 110.736,71.7398, 110.736,71.7399" />
  <!-- Shape 9 -->
  <polygon fill="#000000" points="108.948,72.8652, 112.518,72.8635, 112.502,76.255, 108.95,76.2298" />
  <polygon fill="#FFFFFF" points="108.949,73.7231, 111.608,72.8639, 112.506,75.3902, 109.856,76.2362" />
  <polygon fill="#000000" points="109.191,74.3954, 110.896,73.0938, 112.266,74.7144, 110.565,76.0099" />
  <polygon fill="#FFFFFF" points="110.419,73.4582, 111.882,74.2606, 111.041,75.6472, 109.576,74.8475" />
  <polygon fill="#000000" points="110.172,73.8646, 111.454,74.0259, 111.287,75.2416, 110.004,75.0814" />
  <polygon fill="#FFFFFF" points="110.121,74.2357, 111.063,73.9767, 111.338,74.8708, 110.396,75.1302" />
  <polygon fill="#000000" points="110.208,74.5197, 110.764,74.0589, 111.251,74.5869, 110.695,75.0479" />
  <polygon fill="#FFFFFF" points="110.581,74.211, 111.09,74.4127, 110.878,74.8958, 110.369,74.694" />
  <polygon fill="#000000" points="110.508,74.3764, 110.916,74.3436, 110.951,74.7303, 110.543,74.7631" />
  <polygon fill="#FFFFFF" points="110.521,74.5137, 110.771,74.3553, 110.938,74.593, 110.688,74.7515" />
  <polygon fill="#000000" points="110.679,74.4135, 110.877,74.5056, 110.78,74.6932, 110.582,74.6011" />
  <polygon fill="#FFFFFF" points="110.642,74.4848, 110.802,74.4706, 110.817,74.622, 110.657,74.6361" />
  <polygon fill="#000000" points="110.648,74.5442, 110.739,74.4762, 110.811,74.5626, 110.72,74.6305" />
  <polygon fill="#FFFFFF" points="110.702,74.5037, 110.782,74.5276, 110.757,74.603, 110.677,74.5791" />
  <polygon fill="#000000" points="110.692,74.5352, 110.749,74.5176, 110.767,74.5715, 110.71,74.5891" />
  <polygon fill="#FFFFFF" points="110.724,74.5252, 110.759,74.5483, 110.735,74.5815, 110.7,74.5584" />
  <polygon fill="#000000" points="110.713,74.5399, 110.744,74.5381, 110.746,74.5668, 110.715,74.5686" />
  <polygon fill="#FFFFFF" points="110.714,74.553, 110.73,74.5389, 110.745,74.5538, 110.729,74.5678" />
  <polygon fill="#000000" points="110.723,74.5455, 110.738,74.5468, 110.736,74.5612, 110.721,74.5599" />
  <polygon fill="#FFFFFF" points="110.722,74.5524, 110.731,74.5462, 110.737,74.5543, 110.729,74.5605" />
  <polygon fill="#000000" points="110.726,74.5492, 110.734,74.5503, 110.733,74.5575, 110.725,74.5564" />
  <polygon fill="#FFFFFF" points="110.726,74.5529, 110.73,74.5498, 110.733,74.5539, 110.729,74.557" />
  <polygon fill="#000000" points="110.728,74.5514, 110.732,74.5517, 110.731,74.5554, 110.727,74.555" />
  <polygon fill="#FFFFFF" points="110.728,74.5533, 110.73,74.5515, 110.731,74.5534, 110.729,74.5552" />
  <polygon fill="#000000" points="110.729,74.5525, 110.73,74.5524, 110.731,74.5542, 110.729,74.5543" />
  <polygon fill="#FFFFFF" points="110.729,74.5525, 110.731,74.5532, 110.73,74.5543, 110.729,74.5535" />
  <polygon fill="#000000" points="110.729,74.553, 110.73,74.5528, 110.73,74.5537, 110.729,74.5539" />
  <polygon fill="#FFFFFF" points="110.729,74.5529, 110.73,74.5532, 110.73,74.5538, 110.729,74.5536" />
  <polygon fill="#000000" points="110.73,74.553, 110.73,74.5534, 110.73,74.5537, 110.729,74.5533" />
  <polygon fill="#FFFFFF" points="110.729,74.5532, 110.73,74.5532, 110.73,74.5535, 110.729,74.5535" />
  <polygon fill="#000000" points="110.73,74.5535, 110.729,74.5534, 110.73,74.5532, 110.73,74.5533" />
</svg>
