<?xml version="1.0" standalone="no"?>
<!DOCTYPE svg PUBLIC "-//W3C//DTD SVG 1.1//EN" "http://www.w3.org/Graphics/SVG/1.1/DTD/svg11.dtd">
<svg viewBox="0, 0, 154, 100" xmlns="http://www.w3.org/2000/svg" version="1.1">
  <!-- Shape 1 -->
  <polygon fill="#FFFFFF" points="0,0, 95.1093,0, 94.9667,100, 0,100" />
  <polygon fill="#000000" points="0.0475546,0, 95.1092,0.05, 94.9192,100, 0,99.95" />
  <polygon fill="#FFFFFF" points="0.171135,6.5e-05, 95.1089,0.179935, 94.7958,99.9999, 6.1821e-05,99.8201" />
  <polygon fill="#000000" points="0.370504,0.000442727, 95.1083,0.389557, 94.5967,99.9996, 0.000421074,99.6104" />
  <polygon fill="#FFFFFF" points="0.645244,0.00157116, 95.1068,0.678426, 94.3224,99.9984, 0.00149432,99.3216" />
  <polygon fill="#000000" points="0.994751,0.00407552, 95.1039,1.04591, 93.9734,99.9959, 0.00387619,98.9541" />
  <polygon fill="#FFFFFF" points="1.41824,0.00876378, 95.0988,1.49119, 93.5505,99.9912, 0.00833513,98.5088" />
  <polygon fill="#000000" points="1.91475,0.0166206, 95.0906,2.01324, 93.0548,99.9834, 0.0158076,97.9868" />
  <polygon fill="#FFFFFF" points="2.48312,0.0288, 95.0782,2.61085, 92.4872,99.9712, 0.0273912,97.3891" />
  <polygon fill="#000000" points="3.12203,0.0466161, 95.0603,3.28264, 91.8493,99.9534, 0.0443357,96.7174" />
  <polygon fill="#FFFFFF" points="3.82995,0.0715335, 95.0356,4.027, 91.1424,99.9285, 0.068034,95.973" />
  <polygon fill="#000000" points="4.6052,0.105155, 95.0025,4.84217, 90.3682,99.8948, 0.10001,95.1578" />
  <polygon fill="#FFFFFF" points="5.4459,0.149209, 94.9594,5.72616, 89.5287,99.8508, 0.141909,94.2738" />
  <polygon fill="#000000" points="6.34998,0.205536, 94.9045,6.67682, 88.6259,99.7945, 0.195479,93.3232" />
  <polygon fill="#FFFFFF" points="7.31523,0.276073, 94.8361,7.6918, 87.662,99.7239, 0.262563,92.3082" />
  <polygon fill="#000000" points="8.33922,0.362837, 94.7522,8.76857, 86.6395,99.6372, 0.345079,91.2314" />
  <polygon fill="#FFFFFF" points="9.41938,0.467909, 94.6508,9.90443, 85.5608,99.5321, 0.445006,90.0956" />
  <polygon fill="#000000" points="10.553,0.593415, 94.5299,11.0965, 84.4287,99.4066, 0.564365,88.9035" />
  <polygon fill="#FFFFFF" points="11.737,0.741508, 94.3874,12.3417, 83.2463,99.2585, 0.705204,87.6583" />
  <polygon fill="#000000" points="12.9685,0.91435, 94.2214,13.6367, 82.0164,99.0856, 0.869579,86.3633" />
  <polygon fill="#FFFFFF" points="14.2442,1.11409, 94.0298,14.9783, 80.7424,98.8859, 1.05953,85.0217" />
  <polygon fill="#000000" points="15.5607,1.34285, 93.8106,16.3627, 79.4276,98.6572, 1.27708,83.6373" />
  <polygon fill="#FFFFFF" points="16.9144,1.60269, 93.5617,17.7864, 78.0756,98.3973, 1.52418,82.2136" />
  <polygon fill="#000000" points="18.3017,1.89562, 93.2814,19.2455, 76.69,98.1044, 1.80275,80.7545" />
  <polygon fill="#FFFFFF" points="19.7188,2.22353, 92.9679,20.7359, 75.2747,97.7765, 2.11458,79.2641" />
  <polygon fill="#000000" points="21.1618,2.58823, 92.6193,22.2536, 73.8334,97.4118, 2.46138,77.7464" />
  <polygon fill="#FFFFFF" points="22.6267,2.99137, 92.2342,23.7944, 72.3703,97.0086, 2.84474,76.2056" />
  <polygon fill="#000000" points="24.1093,3.43447, 91.8111,25.3538, 70.8894,96.5655, 3.2661,74.6462" />
  <polygon fill="#FFFFFF" points="25.6056,3.91889, 91.3487,26.9276, 69.3949,96.0811, 3.72673,73.0724" />
  <polygon fill="#000000" points="27.1111,4.44579, 90.846,28.5112, 67.8911,95.5542, 4.22776,71.4888" />
  <polygon fill="#FFFFFF" points="28.6216,5.01614, 90.302,30.1001, 66.3823,94.9839, 4.77009,69.8999" />
  <polygon fill="#000000" points="30.1328,5.6307, 89.7159,31.6898, 64.8728,94.3693, 5.35445,68.3102" />
  <polygon fill="#FFFFFF" points="31.6402,6.28999, 89.0874,33.2756, 63.367,93.71, 5.98134,66.7244" />
  <polygon fill="#000000" points="33.1396,6.99432, 88.4161,34.8529, 61.8692,93.0057, 6.65104,65.1471" />
  <polygon fill="#FFFFFF" points="34.6265,7.74371, 87.702,36.4172, 60.3838,92.2563, 7.36358,63.5828" />
  <polygon fill="#000000" points="36.0967,8.53797, 86.9453,37.964, 58.9152,91.462, 8.11877,62.036" />
  <polygon fill="#FFFFFF" points="37.5459,9.37661, 86.1464,39.4887, 57.4675,90.6234, 8.91614,60.5113" />
  <polygon fill="#000000" points="38.9699,10.2589, 85.3061,40.9869, 56.0449,89.7411, 9.75499,59.0131" />
  <polygon fill="#FFFFFF" points="40.3646,11.1838, 84.4254,42.4544, 54.6516,88.8162, 10.6344,57.5456" />
  <polygon fill="#000000" points="41.7261,12.1501, 83.5053,43.887, 53.2915,87.8499, 11.553,56.113" />
  <polygon fill="#FFFFFF" points="43.0505,13.1561, 82.5476,45.2806, 51.9684,86.8439, 12.5095,54.7194" />
  <polygon fill="#000000" points="44.3341,14.2002, 81.5537,46.6314, 50.6859,85.7998, 13.5021,53.3686" />
  <polygon fill="#FFFFFF" points="45.5736,15.2801, 80.5258,47.9357, 49.4477,84.7199, 14.5288,52.0643" />
  <polygon fill="#000000" points="46.7654,16.3937, 79.4661,49.1901, 48.257,83.6063, 15.5874,50.8099" />
  <polygon fill="#FFFFFF" points="16.6755,49.6088, 47.9067,17.5383, 78.3769,50.3912, 47.1168,82.4617" />
  <polygon fill="#000000" points="17.7905,48.4639, 48.9945,18.7111, 77.2609,51.5361, 46.0301,81.2889" />
  <polygon fill="#FFFFFF" points="18.9294,47.3779, 50.0262,19.9092, 76.121,52.6221, 44.9993,80.0908" />
  <polygon fill="#000000" points="20.0893,46.3533, 50.9995,21.1294, 74.9601,53.6467, 44.0269,78.8706" />
  <polygon fill="#FFFFFF" points="21.267,45.3923, 51.9124,22.3683, 73.7816,54.6077, 43.1149,77.6317" />
  <polygon fill="#000000" points="22.4591,44.4967, 52.7631,23.6225, 72.5886,55.5033, 42.265,76.3775" />
  <polygon fill="#FFFFFF" points="23.6622,43.668, 53.5502,24.8881, 71.3848,56.332, 41.4787,75.1119" />
  <polygon fill="#000000" points="24.8727,42.9074, 54.2725,26.1616, 70.1736,57.0926, 40.7572,73.8384" />
  <polygon fill="#FFFFFF" points="26.0869,42.2158, 54.9292,27.4391, 68.9587,57.7842, 40.1011,72.5609" />
  <polygon fill="#000000" points="27.3011,41.5937, 55.5199,28.7166, 67.7438,58.4063, 39.5111,71.2834" />
  <polygon fill="#FFFFFF" points="28.5117,41.0412, 56.0443,29.9903, 66.5326,58.9588, 38.9873,70.0097" />
  <polygon fill="#000000" points="29.7149,40.5583, 56.5026,31.2562, 65.3289,59.4417, 38.5295,68.7438" />
  <polygon fill="#FFFFFF" points="30.9069,40.1444, 56.8954,32.5105, 64.1363,59.8556, 38.1373,67.4895" />
  <polygon fill="#000000" points="32.0842,39.7986, 57.2234,33.7492, 62.9586,60.2014, 37.8097,66.2508" />
  <polygon fill="#FFFFFF" points="33.2431,39.5197, 57.4878,34.9686, 61.7992,60.4803, 37.5458,65.0314" />
  <polygon fill="#000000" points="34.3802,39.3062, 57.69,36.1651, 60.6617,60.6938, 37.344,63.8349" />
  <polygon fill="#FFFFFF" points="35.4921,39.1564, 57.8317,37.3351, 59.5495,60.8436, 37.2026,62.6649" />
  <polygon fill="#000000" points="36.5756,39.0681, 57.9151,38.4753, 58.4656,60.9319, 37.1197,61.5247" />
  <polygon fill="#FFFFFF" points="37.6276,39.0389, 57.9422,39.5824, 57.4133,60.9611, 37.0928,60.4176" />
  <polygon fill="#000000" points="38.6454,39.0661, 57.9157,40.6535, 56.3952,60.9339, 37.1196,59.3465" />
  <polygon fill="#FFFFFF" points="39.6262,39.1469, 57.8383,41.6858, 55.4141,60.8531, 37.1973,58.3142" />
  <polygon fill="#000000" points="40.5678,39.2781, 57.713,42.6767, 54.4723,60.7219, 37.3229,57.3233" />
  <polygon fill="#FFFFFF" points="41.4679,39.4566, 57.5428,43.6241, 53.5719,60.5434, 37.4932,56.3759" />
  <polygon fill="#000000" points="42.3247,39.6787, 57.3312,44.5259, 52.715,60.3213, 37.7051,55.4741" />
  <polygon fill="#FFFFFF" points="43.1366,39.9409, 57.0815,45.3804, 51.9029,60.0591, 37.955,54.6196" />
  <polygon fill="#000000" points="43.9021,40.2396, 56.7972,46.1863, 51.1372,59.7604, 38.2395,53.8137" />
  <polygon fill="#FFFFFF" points="44.6204,40.5708, 56.4819,46.9424, 50.4188,59.4292, 38.5549,53.0576" />
  <polygon fill="#000000" points="45.2906,40.9308, 56.1393,47.6479, 49.7485,59.0692, 38.8976,52.3521" />
  <polygon fill="#FFFFFF" points="45.9122,41.3157, 55.7731,48.3023, 49.1267,58.6843, 39.2639,51.6977" />
  <polygon fill="#000000" points="46.4851,41.7216, 55.387,48.9055, 48.5537,58.2784, 39.6502,51.0945" />
  <polygon fill="#FFFFFF" points="47.0094,42.1447, 54.9845,49.4576, 48.0293,57.8553, 40.0527,50.5424" />
  <polygon fill="#000000" points="47.4855,42.5813, 54.5693,49.9589, 47.5531,57.4187, 40.4681,50.0411" />
  <polygon fill="#FFFFFF" points="40.8926,49.5898, 47.9141,43.0277, 54.1448,50.4102, 47.1244,56.9723" />
  <polygon fill="#000000" points="41.323,49.1875, 48.296,43.4802, 53.7144,50.8125, 46.7424,56.5198" />
  <polygon fill="#FFFFFF" points="41.7561,48.8331, 48.6325,43.9355, 53.2815,51.1669, 46.4059,56.0645" />
  <polygon fill="#000000" points="42.1886,48.525, 48.9249,44.3904, 52.849,51.475, 46.1134,55.6096" />
  <polygon fill="#FFFFFF" points="42.6177,48.2617, 49.1749,44.8417, 52.4199,51.7383, 45.8634,55.1583" />
  <polygon fill="#000000" points="43.0406,48.0411, 49.3842,45.2865, 51.997,51.9589, 45.654,54.7135" />
  <polygon fill="#FFFFFF" points="43.4549,47.8612, 49.5548,45.7222, 51.5828,52.1388, 45.4834,54.2778" />
  <polygon fill="#000000" points="43.8581,47.7198, 49.6889,46.1464, 51.1797,52.2802, 45.3493,53.8536" />
  <polygon fill="#FFFFFF" points="44.2482,47.6145, 49.7886,46.5567, 50.7896,52.3855, 45.2495,53.4433" />
  <polygon fill="#000000" points="44.6232,47.5429, 49.8564,46.9513, 50.4146,52.4571, 45.1817,53.0487" />
  <polygon fill="#FFFFFF" points="44.9817,47.5024, 49.8946,47.3285, 50.0561,52.4976, 45.1435,52.6715" />
  <polygon fill="#000000" points="45.3222,47.4904, 49.9058,47.6867, 49.7157,52.5096, 45.1323,52.3133" />
  <polygon fill="#FFFFFF" points="45.6435,47.5041, 49.8925,48.0248, 49.3944,52.4959, 45.1456,51.9752" />
  <polygon fill="#000000" points="45.9447,47.541, 49.8572,48.3418, 49.0931,52.459, 45.1809,51.6582" />
  <polygon fill="#FFFFFF" points="46.2253,47.5984, 49.8024,48.637, 48.8126,52.4016, 45.2357,51.363" />
  <polygon fill="#000000" points="46.4846,47.6737, 49.7306,48.9099, 48.5533,52.3263, 45.3074,51.0901" />
  <polygon fill="#FFFFFF" points="46.7225,47.7643, 49.6443,49.1603, 48.3154,52.2357, 45.3937,50.8397" />
  <polygon fill="#000000" points="46.939,47.8678, 49.5459,49.3882, 48.0989,52.1322, 45.4922,50.6118" />
  <polygon fill="#FFFFFF" points="47.1343,47.9817, 49.4375,49.5937, 47.9036,52.0183, 45.6005,50.4063" />
  <polygon fill="#000000" points="47.3086,48.1037, 49.3214,49.7773, 47.7293,51.8963, 45.7166,50.2227" />
  <polygon fill="#FFFFFF" points="47.4626,48.2317, 49.1996,49.9394, 47.5753,51.7683, 45.8384,50.0606" />
  <polygon fill="#000000" points="45.964,49.9192, 47.5969,48.3637, 49.074,50.0808, 47.4411,51.6363" />
  <polygon fill="#FFFFFF" points="46.0915,49.7978, 47.7122,48.4978, 48.9465,50.2022, 47.3257,51.5022" />
  <polygon fill="#000000" points="46.2194,49.6952, 47.8096,48.6323, 48.8186,50.3048, 47.2283,51.3677" />
  <polygon fill="#FFFFFF" points="46.3461,49.6105, 47.89,48.7656, 48.6919,50.3895, 47.1479,51.2344" />
  <polygon fill="#000000" points="46.4704,49.5425, 47.9546,48.8963, 48.5676,50.4575, 47.0834,51.1037" />
  <polygon fill="#FFFFFF" points="46.5911,49.4899, 48.0044,49.0233, 48.4469,50.5101, 47.0335,50.9767" />
  <polygon fill="#000000" points="46.7071,49.4516, 48.0408,49.1453, 48.3309,50.5484, 46.9972,50.8547" />
  <polygon fill="#FFFFFF" points="46.8177,49.4262, 48.0648,49.2616, 48.2203,50.5738, 46.9732,50.7384" />
  <polygon fill="#000000" points="46.9221,49.4125, 48.0778,49.3715, 48.1159,50.5875, 46.9601,50.6285" />
  <polygon fill="#FFFFFF" points="47.0197,49.409, 48.081,49.4742, 48.0183,50.591, 46.9569,50.5258" />
  <polygon fill="#000000" points="47.1102,49.4146, 48.0757,49.5695, 47.9277,50.5854, 46.9623,50.4305" />
  <polygon fill="#FFFFFF" points="47.1934,49.4279, 48.0629,49.657, 47.8446,50.5721, 46.975,50.343" />
  <polygon fill="#000000" points="47.2689,49.4478, 48.044,49.7365, 47.769,50.5522, 46.994,50.2635" />
  <polygon fill="#FFFFFF" points="47.3369,49.4731, 48.0199,49.808, 47.7011,50.5269, 47.0181,50.192" />
  <polygon fill="#000000" points="47.3973,49.5028, 47.9916,49.8716, 47.6406,50.4972, 47.0463,50.1284" />
  <polygon fill="#FFFFFF" points="47.4504,49.5357, 47.9603,49.9275, 47.5875,50.4643, 47.0777,50.0725" />
  <polygon fill="#000000" points="47.4964,49.571, 47.9267,49.9759, 47.5416,50.429, 47.1113,50.0241" />
  <polygon fill="#FFFFFF" points="47.1463,49.9829, 47.5355,49.6078, 47.8917,50.0171, 47.5025,50.3922" />
  <polygon fill="#000000" points="47.1819,49.9485, 47.5681,49.6453, 47.856,50.0515, 47.4698,50.3547" />
  <polygon fill="#FFFFFF" points="47.2177,49.9205, 47.5948,49.6829, 47.8203,50.0795, 47.4432,50.3171" />
  <polygon fill="#000000" points="47.2529,49.8983, 47.6158,49.7199, 47.7851,50.1017, 47.4222,50.2801" />
  <polygon fill="#FFFFFF" points="47.287,49.8815, 47.6317,49.7558, 47.751,50.1185, 47.4062,50.2442" />
  <polygon fill="#000000" points="47.3197,49.8696, 47.6431,49.7902, 47.7182,50.1304, 47.3949,50.2098" />
  <polygon fill="#FFFFFF" points="47.3507,49.862, 47.6503,49.8228, 47.6873,50.138, 47.3877,50.1772" />
  <polygon fill="#000000" points="47.3796,49.8582, 47.6538,49.8532, 47.6584,50.1418, 47.3841,50.1468" />
  <polygon fill="#FFFFFF" points="47.4063,49.8577, 47.6543,49.8813, 47.6317,50.1423, 47.3837,50.1187" />
  <polygon fill="#000000" points="47.4306,49.86, 47.6521,49.9069, 47.6074,50.14, 47.3859,50.0931" />
  <polygon fill="#FFFFFF" points="47.4525,49.8647, 47.6476,49.9299, 47.5855,50.1353, 47.3903,50.0701" />
  <polygon fill="#000000" points="47.4719,49.8712, 47.6414,49.9504, 47.566,50.1288, 47.3965,50.0496" />
  <polygon fill="#FFFFFF" points="47.489,49.8791, 47.6339,49.9683, 47.549,50.1209, 47.4041,50.0317" />
  <polygon fill="#000000" points="47.5037,49.8882, 47.6253,49.9838, 47.5343,50.1118, 47.4127,50.0162" />
  <polygon fill="#FFFFFF" points="47.5161,49.8979, 47.616,49.9969, 47.5219,50.1021, 47.422,50.0031" />
  <polygon fill="#000000" points="47.4317,49.9923, 47.5264,49.9081, 47.6063,50.0077, 47.5116,50.0919" />
  <polygon fill="#FFFFFF" points="47.4415,49.9836, 47.5346,49.9185, 47.5965,50.0164, 47.5033,50.0815" />
  <polygon fill="#000000" points="47.4512,49.9768, 47.5411,49.9287, 47.5867,50.0232, 47.4969,50.0713" />
  <polygon fill="#FFFFFF" points="47.4607,49.9717, 47.5459,49.9386, 47.5773,50.0283, 47.4921,50.0614" />
  <polygon fill="#000000" points="47.4697,49.9682, 47.5492,49.9482, 47.5682,50.0318, 47.4887,50.0518" />
  <polygon fill="#FFFFFF" points="47.4782,49.9661, 47.5513,49.9571, 47.5597,50.0339, 47.4867,50.0429" />
  <polygon fill="#000000" points="47.4861,49.9651, 47.5522,49.9654, 47.5519,50.0349, 47.4858,50.0346" />
  <polygon fill="#FFFFFF" points="47.4933,49.9651, 47.5521,49.9729, 47.5447,50.0349, 47.4858,50.0271" />
  <polygon fill="#000000" points="47.4997,49.966, 47.5513,49.9797, 47.5383,50.034, 47.4866,50.0203" />
  <polygon fill="#FFFFFF" points="47.5054,49.9675, 47.5499,49.9857, 47.5326,50.0325, 47.4881,50.0143" />
  <polygon fill="#000000" points="47.5103,49.9695, 47.548,49.9909, 47.5276,50.0305, 47.49,50.0091" />
  <polygon fill="#FFFFFF" points="47.5145,49.9719, 47.5457,49.9953, 47.5234,50.0281, 47.4923,50.0047" />
  <!-- Shape 2 -->
  <polygon fill="#000000" points="95.1093,0, 154,0, 154,61.6, 95.0214,61.5936" />
  <polygon fill="#FFFFFF" points="95.1092,0.0307968, 153.971,0, 154,61.5692, 95.0509,61.5936" />
  <polygon fill="#000000" points="95.1091,0.144688, 153.862,5.69741e-05, 154,61.4553, 95.16,61.5935" />
  <polygon fill="#FFFFFF" points="95.1093,0.341324, 153.674,0.000519793, 154,61.2586, 95.3483,61.5931" />
  <polygon fill="#000000" points="95.1104,0.62002, 153.407,0.00207045, 153.998,60.9799, 95.6151,61.5916" />
  <polygon fill="#FFFFFF" points="95.1133,0.979752, 153.063,0.00571635, 153.995,60.6201, 95.9596,61.588" />
  <polygon fill="#000000" points="95.1195,1.41916, 152.643,0.0127781, 153.988,60.1807, 96.3803,61.5809" />
  <polygon fill="#FFFFFF" points="95.1303,1.93655, 152.148,0.024873, 153.976,59.6632, 96.8758,61.5689" />
  <polygon fill="#000000" points="95.1477,2.52989, 151.581,0.0438942, 153.958,59.0698, 97.4439,61.5499" />
  <polygon fill="#FFFFFF" points="95.1736,3.19682, 150.943,0.071986, 153.931,58.4029, 98.0825,61.5219" />
  <polygon fill="#000000" points="95.2104,3.93463, 150.238,0.111515, 153.893,57.665, 98.789,61.4825" />
  <polygon fill="#FFFFFF" points="95.2605,4.7403, 149.467,0.165039, 153.842,56.8592, 99.5605,61.429" />
  <polygon fill="#000000" points="95.3265,5.61047, 148.635,0.235269, 153.775,55.989, 100.394,61.3589" />
  <polygon fill="#FFFFFF" points="95.4112,6.54147, 147.745,0.325035, 153.689,55.0579, 101.285,61.2692" />
  <polygon fill="#000000" points="95.5172,7.52931, 146.801,0.437242, 153.582,54.0699, 102.231,61.1571" />
  <polygon fill="#FFFFFF" points="95.6474,8.56969, 145.806,0.574828, 153.45,53.0295, 103.227,61.0196" />
  <polygon fill="#000000" points="95.8047,9.65802, 144.765,0.740721, 153.292,51.941, 104.269,60.8538" />
  <polygon fill="#FFFFFF" points="95.9918,10.7894, 143.683,0.937794, 153.103,50.8095, 105.353,60.6568" />
  <polygon fill="#000000" points="96.2113,11.9588, 142.564,1.16881, 152.882,49.64, 106.473,60.4259" />
  <polygon fill="#FFFFFF" points="96.4658,13.1608, 141.415,1.43641, 152.626,48.4379, 107.623,60.1584" />
  <polygon fill="#000000" points="96.7575,14.3898, 140.239,1.743, 152.333,47.2088, 108.8,59.8519" />
  <polygon fill="#FFFFFF" points="97.0887,15.64, 139.044,2.09079, 152.001,45.9585, 109.997,59.5042" />
  <polygon fill="#000000" points="97.4611,16.9055, 137.833,2.48168, 151.627,44.693, 111.209,59.1134" />
  <polygon fill="#FFFFFF" points="97.8763,18.1802, 136.614,2.91728, 151.21,43.4182, 112.43,58.6779" />
  <polygon fill="#000000" points="98.3355,19.4579, 135.392,3.39883, 150.75,42.1404, 113.653,58.1965" />
  <polygon fill="#FFFFFF" points="98.8395,20.7324, 134.173,3.92717, 150.245,40.8658, 114.874,57.6682" />
  <polygon fill="#000000" points="99.3886,21.9974, 132.963,4.50275, 149.694,39.6006, 116.085,57.0928" />
  <polygon fill="#FFFFFF" points="99.983,23.2468, 131.767,5.12556, 149.098,38.3511, 117.282,56.47" />
  <polygon fill="#000000" points="100.622,24.4744, 130.593,5.79514, 148.458,37.1235, 118.457,55.8005" />
  <polygon fill="#FFFFFF" points="101.305,25.6742, 129.445,6.51056, 147.774,35.9236, 119.606,55.0852" />
  <polygon fill="#000000" points="102.031,26.8404, 128.329,7.2704, 147.047,34.7574, 120.723,54.3255" />
  <polygon fill="#FFFFFF" points="102.797,27.9673, 127.251,8.07276, 146.28,33.6304, 121.803,53.5232" />
  <polygon fill="#000000" points="103.602,29.0495, 126.215,8.9153, 145.474,32.548, 122.839,52.6807" />
  <polygon fill="#FFFFFF" points="104.443,30.0822, 125.227,9.79516, 144.632,31.5153, 123.828,51.8009" />
  <polygon fill="#000000" points="124.291,10.7091, 143.758,30.5368, 124.766,50.887, 105.316,31.0607" />
  <polygon fill="#FFFFFF" points="123.411,11.6534, 142.855,29.6168, 125.647,49.9428, 106.219,31.9806" />
  <polygon fill="#000000" points="122.59,12.624, 141.926,28.759, 126.468,48.9722, 107.146,32.8383" />
  <polygon fill="#FFFFFF" points="121.831,13.6166, 140.977,27.9668, 127.227,47.9798, 108.095,33.6305" />
  <polygon fill="#000000" points="121.138,14.6263, 140.011,27.2428, 127.921,46.9701, 109.06,34.3544" />
  <polygon fill="#FFFFFF" points="120.513,15.6482, 139.033,26.5893, 128.547,45.9482, 110.037,35.0079" />
  <polygon fill="#000000" points="119.956,16.6771, 138.049,26.0078, 129.105,44.9193, 111.021,35.5894" />
  <polygon fill="#FFFFFF" points="119.469,17.7079, 137.063,25.4992, 129.592,43.8886, 112.007,36.0978" />
  <polygon fill="#000000" points="119.052,18.7349, 136.08,25.0641, 130.009,42.8616, 112.989,36.533" />
  <polygon fill="#FFFFFF" points="118.705,19.753, 135.106,24.7021, 130.357,41.8436, 113.962,36.895" />
  <polygon fill="#000000" points="118.428,20.7566, 134.146,24.4123, 130.635,40.8399, 114.922,37.1847" />
  <polygon fill="#FFFFFF" points="118.218,21.7407, 133.204,24.1933, 130.845,39.8559, 115.863,37.4036" />
  <polygon fill="#000000" points="118.073,22.7, 132.287,24.0431, 130.99,38.8966, 116.781,37.5538" />
  <polygon fill="#FFFFFF" points="117.993,23.6299, 131.397,23.959, 131.071,37.9668, 117.671,37.6379" />
  <polygon fill="#000000" points="117.972,24.5257, 130.54,23.938, 131.092,37.071, 118.527,37.6589" />
  <polygon fill="#FFFFFF" points="118.008,25.3833, 129.719,23.9764, 131.056,36.2134, 119.348,37.6205" />
  <polygon fill="#000000" points="118.098,26.1989, 128.938,24.0701, 130.966,35.3978, 120.128,37.5267" />
  <polygon fill="#FFFFFF" points="118.236,26.9692, 128.201,24.2149, 130.829,34.6275, 120.865,37.382" />
  <polygon fill="#000000" points="118.418,27.6913, 127.51,24.4059, 130.646,33.9054, 121.556,37.191" />
  <polygon fill="#FFFFFF" points="118.64,28.363, 126.867,24.6382, 130.425,33.2338, 122.199,36.9587" />
  <polygon fill="#000000" points="118.896,28.9823, 126.275,24.9066, 130.168,32.6145, 122.792,36.6903" />
  <polygon fill="#FFFFFF" points="119.182,29.548, 125.733,25.2057, 129.883,32.0487, 123.333,36.3911" />
  <polygon fill="#000000" points="119.492,30.0596, 125.243,25.5303, 129.572,31.5372, 123.823,36.0665" />
  <polygon fill="#FFFFFF" points="119.822,30.5167, 124.806,25.875, 129.243,31.0801, 124.26,35.7218" />
  <polygon fill="#000000" points="124.42,26.2345, 128.899,30.6769, 124.646,35.3623, 120.166,30.9198" />
  <polygon fill="#FFFFFF" points="124.084,26.6037, 128.546,30.3269, 124.981,34.9931, 120.519,31.2699" />
  <polygon fill="#000000" points="123.799,26.9777, 128.189,30.0284, 125.267,34.6191, 120.876,31.5683" />
  <polygon fill="#FFFFFF" points="123.561,27.3518, 127.831,29.7798, 125.505,34.245, 121.234,31.817" />
  <polygon fill="#000000" points="123.368,27.7218, 127.477,29.5787, 125.698,33.875, 121.588,32.0181" />
  <polygon fill="#FFFFFF" points="123.218,28.0835, 127.131,29.4223, 125.848,33.5133, 121.934,32.1745" />
  <polygon fill="#000000" points="123.108,28.4335, 126.796,29.3078, 125.957,33.1633, 122.269,32.289" />
  <polygon fill="#FFFFFF" points="123.035,28.7685, 126.476,29.2318, 126.03,32.8283, 122.589,32.365" />
  <polygon fill="#000000" points="122.996,29.0859, 126.172,29.1909, 126.07,32.5109, 122.893,32.4059" />
  <polygon fill="#FFFFFF" points="122.987,29.3834, 125.888,29.1815, 126.079,32.2134, 123.178,32.4153" />
  <polygon fill="#000000" points="123.004,29.6591, 125.624,29.1999, 126.061,31.9377, 123.442,32.3969" />
  <polygon fill="#FFFFFF" points="123.044,29.9118, 125.382,29.2423, 126.021,31.685, 123.683,32.3545" />
  <polygon fill="#000000" points="123.104,30.1406, 125.163,29.305, 125.961,31.4562, 123.902,32.2918" />
  <polygon fill="#FFFFFF" points="123.18,30.345, 124.967,29.3843, 125.885,31.2518, 124.098,32.2124" />
  <polygon fill="#000000" points="123.268,30.5249, 124.795,29.4769, 125.797,31.0719, 124.27,32.1199" />
  <polygon fill="#FFFFFF" points="123.366,30.6807, 124.646,29.5793, 125.699,30.9161, 124.419,32.0175" />
  <polygon fill="#000000" points="124.519,29.6884, 125.595,30.7837, 124.546,31.9084, 123.471,30.8131" />
  <polygon fill="#FFFFFF" points="124.414,29.8013, 125.487,30.6737, 124.651,31.7955, 123.579,30.9231" />
  <polygon fill="#000000" points="124.329,29.9155, 125.378,30.5849, 124.736,31.6813, 123.688,31.0119" />
  <polygon fill="#FFFFFF" points="124.263,30.0285, 125.269,30.5159, 124.802,31.5683, 123.796,31.0809" />
  <polygon fill="#000000" points="124.214,30.1384, 125.164,30.465, 124.851,31.4584, 123.901,31.1318" />
  <polygon fill="#FFFFFF" points="124.181,30.2435, 125.064,30.4304, 124.884,31.3533, 124.002,31.1663" />
  <polygon fill="#000000" points="124.162,30.3424, 124.969,30.4104, 124.904,31.2544, 124.096,31.1864" />
  <polygon fill="#FFFFFF" points="124.155,30.434, 124.882,30.403, 124.911,31.1628, 124.184,31.1938" />
  <polygon fill="#000000" points="124.158,30.5174, 124.802,30.4064, 124.908,31.0794, 124.264,31.1904" />
  <polygon fill="#FFFFFF" points="124.17,30.5923, 124.73,30.4188, 124.896,31.0045, 124.335,31.178" />
  <polygon fill="#000000" points="124.188,30.6582, 124.667,30.4383, 124.877,30.9386, 124.398,31.1585" />
  <polygon fill="#FFFFFF" points="124.212,30.7152, 124.613,30.4633, 124.853,30.8816, 124.453,31.1334" />
  <polygon fill="#000000" points="124.24,30.7634, 124.566,30.4924, 124.825,30.8334, 124.499,31.1044" />
  <polygon fill="#FFFFFF" points="124.528,30.524, 124.795,30.7936, 124.537,31.0728, 124.27,30.8031" />
  <polygon fill="#000000" points="124.498,30.5569, 124.764,30.7618, 124.567,31.0399, 124.302,30.8349" />
  <polygon fill="#FFFFFF" points="124.474,30.5901, 124.732,30.7374, 124.591,31.0067, 124.333,30.8594" />
  <polygon fill="#000000" points="124.457,30.6226, 124.701,30.7196, 124.608,30.9742, 124.364,30.8772" />
  <polygon fill="#FFFFFF" points="124.446,30.6536, 124.671,30.7078, 124.619,30.9432, 124.394,30.889" />
  <polygon fill="#000000" points="124.44,30.6827, 124.643,30.7011, 124.626,30.9141, 124.422,30.8957" />
  <polygon fill="#FFFFFF" points="124.437,30.7092, 124.618,30.6988, 124.628,30.8876, 124.447,30.898" />
  <polygon fill="#000000" points="124.439,30.733, 124.595,30.7001, 124.627,30.8638, 124.47,30.8967" />
  <polygon fill="#FFFFFF" points="124.443,30.7539, 124.575,30.7043, 124.623,30.8429, 124.49,30.8925" />
  <polygon fill="#000000" points="124.449,30.7717, 124.558,30.7107, 124.617,30.8251, 124.507,30.8861" />
  <polygon fill="#FFFFFF" points="124.456,30.7866, 124.544,30.7186, 124.609,30.8102, 124.521,30.8782" />
  <polygon fill="#000000" points="124.532,30.7276, 124.6,30.7982, 124.533,30.8692, 124.465,30.7986" />
  <polygon fill="#FFFFFF" points="124.524,30.737, 124.591,30.7888, 124.542,30.8598, 124.474,30.808" />
  <!-- Shape 3 -->
  <polygon fill="#FFFFFF" points="117.496,61.596, 154,61.6, 154,100, 117.354,100" />
  <polygon fill="#000000" points="117.515,61.596, 154,61.6192, 153.982,100, 117.354,99.9808" />
  <polygon fill="#FFFFFF" points="117.637,61.5961, 154,61.7478, 153.859,99.9999, 117.354,99.8522" />
  <polygon fill="#000000" points="117.862,61.597, 153.999,61.9849, 153.633,99.999, 117.356,99.615" />
  <polygon fill="#FFFFFF" points="118.189,61.6006, 153.996,62.329, 153.304,99.9955, 117.361,99.271" />
  <polygon fill="#000000" points="118.616,61.6092, 153.988,62.7772, 152.877,99.9869, 117.371,98.8227" />
  <polygon fill="#FFFFFF" points="119.137,61.6264, 153.971,63.326, 152.353,99.9697, 117.389,98.2738" />
  <polygon fill="#000000" points="119.75,61.6564, 153.943,63.971, 151.738,99.9399, 117.42,97.6288" />
  <polygon fill="#FFFFFF" points="120.45,61.7037, 153.898,64.7065, 151.036,99.8926, 117.467,96.8932" />
  <polygon fill="#000000" points="121.229,61.7737, 153.831,65.5264, 150.254,99.8228, 117.537,96.0732" />
  <polygon fill="#FFFFFF" points="122.081,61.8718, 153.737,66.4232, 149.398,99.7247, 117.633,95.1763" />
  <polygon fill="#000000" points="122.999,62.0038, 153.611,67.389, 148.477,99.5928, 117.762,94.2105" />
  <polygon fill="#FFFFFF" points="123.974,62.1753, 153.448,68.4147, 147.499,99.4214, 117.929,93.1847" />
  <polygon fill="#000000" points="124.997,62.3918, 153.242,69.4906, 146.473,99.205, 118.139,92.1087" />
  <polygon fill="#FFFFFF" points="126.058,62.6584, 152.987,70.6064, 145.409,98.9385, 118.396,90.9928" />
  <polygon fill="#000000" points="127.146,62.9795, 152.681,71.751, 144.317,98.6175, 118.706,89.8481" />
  <polygon fill="#FFFFFF" points="128.25,63.3588, 152.319,72.913, 143.21,98.2382, 119.071,88.686" />
  <polygon fill="#000000" points="129.36,63.7993, 151.899,74.0805, 142.097,97.7979, 119.494,87.5184" />
  <polygon fill="#FFFFFF" points="130.463,64.3025, 151.42,75.2414, 140.99,97.2947, 119.977,86.3574" />
  <polygon fill="#000000" points="131.549,64.8692, 150.879,76.3838, 139.902,96.7281, 120.52,85.2149" />
  <polygon fill="#FFFFFF" points="132.605,65.4985, 150.279,77.4956, 138.843,96.0989, 121.123,84.103" />
  <polygon fill="#000000" points="133.621,66.1883, 149.622,78.5653, 137.824,95.4092, 121.783,83.0333" />
  <polygon fill="#FFFFFF" points="134.587,66.9352, 148.91,79.5818, 136.856,94.6623, 122.498,82.0167" />
  <polygon fill="#000000" points="135.492,67.7345, 148.148,80.5349, 135.948,93.8631, 123.262,81.0635" />
  <polygon fill="#FFFFFF" points="124.069,80.1832, 136.328,68.58, 147.342,81.4152, 135.11,93.0177" />
  <polygon fill="#000000" points="124.914,79.3837, 137.087,69.4643, 146.499,82.2146, 134.35,92.1334" />
  <polygon fill="#FFFFFF" points="125.787,78.672, 137.762,70.3792, 145.628,82.9263, 133.673,91.2186" />
  <polygon fill="#000000" points="126.681,78.0533, 138.349,71.3152, 144.736,83.5449, 133.084,90.2826" />
  <polygon fill="#FFFFFF" points="127.585,77.5315, 138.844,72.2624, 143.833,84.0667, 132.588,89.3354" />
  <polygon fill="#000000" points="128.489,77.1084, 139.244,73.2103, 142.931,84.4898, 132.187,88.3876" />
  <polygon fill="#FFFFFF" points="129.383,76.7842, 139.551,74.1482, 142.037,84.8139, 131.879,87.4497" />
  <polygon fill="#000000" points="130.257,76.5575, 139.765,75.0654, 141.164,85.0406, 131.664,86.5325" />
  <polygon fill="#FFFFFF" points="131.102,76.425, 139.889,75.9517, 140.32,85.1732, 131.539,85.6462" />
  <polygon fill="#000000" points="131.908,76.3816, 139.928,76.7973, 139.514,85.2165, 131.499,84.8006" />
  <polygon fill="#FFFFFF" points="132.666,76.4209, 139.889,77.5933, 138.757,85.1772, 131.538,84.0046" />
  <polygon fill="#000000" points="133.37,76.5351, 139.779,78.332, 138.054,85.063, 131.648,83.2659" />
  <polygon fill="#FFFFFF" points="134.012,76.7152, 139.606,79.0068, 137.411,84.8828, 131.821,82.5912" />
  <polygon fill="#000000" points="134.589,76.9515, 139.38,79.6126, 136.835,84.6466, 132.046,81.9854" />
  <polygon fill="#FFFFFF" points="135.097,77.2334, 139.11,80.146, 136.328,84.3646, 132.316,81.452" />
  <polygon fill="#000000" points="135.533,77.5503, 138.807,80.605, 135.891,84.0477, 132.618,80.993" />
  <polygon fill="#FFFFFF" points="132.944,80.6087, 135.899,77.8914, 138.482,80.9893, 135.526,83.7067" />
  <polygon fill="#000000" points="133.282,80.2975, 136.195,78.2461, 138.143,81.3005, 135.23,83.3519" />
  <polygon fill="#FFFFFF" points="133.624,80.0568, 136.423,78.6045, 137.801,81.5412, 135.002,82.9935" />
  <polygon fill="#000000" points="133.96,79.8822, 136.589,78.9575, 137.465,81.7158, 134.836,82.6405" />
  <polygon fill="#FFFFFF" points="134.284,79.7684, 136.697,79.2969, 137.141,81.8296, 134.728,82.3011" />
  <polygon fill="#000000" points="134.588,79.7091, 136.753,79.6158, 136.838,81.8889, 134.672,81.9822" />
  <polygon fill="#FFFFFF" points="134.866,79.6971, 136.764,79.9084, 136.559,81.9009, 134.661,81.6896" />
  <polygon fill="#000000" points="135.116,79.7249, 136.737,80.1707, 136.309,81.8731, 134.688,81.4274" />
  <polygon fill="#FFFFFF" points="135.334,79.7848, 136.679,80.3996, 136.091,81.8132, 134.746,81.1985" />
  <polygon fill="#000000" points="135.519,79.8692, 136.598,80.5936, 135.906,81.7288, 134.827,81.0044" />
  <polygon fill="#FFFFFF" points="135.67,79.9707, 136.501,80.7527, 135.755,81.6273, 134.924,80.8453" />
  <polygon fill="#000000" points="135.03,80.7202, 135.789,80.0826, 136.395,80.8778, 135.636,81.5154" />
  <polygon fill="#FFFFFF" points="135.141,80.6272, 135.877,80.1986, 136.284,80.9708, 135.548,81.3995" />
  <polygon fill="#000000" points="135.25,80.5635, 135.938,80.3134, 136.175,81.0345, 135.487,81.2846" />
  <polygon fill="#FFFFFF" points="135.355,80.5256, 135.974,80.4227, 136.07,81.0724, 135.451,81.1753" />
  <polygon fill="#000000" points="135.45,80.5097, 135.989,80.523, 135.975,81.0883, 135.436,81.075" />
  <polygon fill="#FFFFFF" points="135.535,80.5118, 135.986,80.6119, 135.89,81.0862, 135.439,80.9861" />
  <polygon fill="#000000" points="135.607,80.5278, 135.971,80.6878, 135.818,81.0702, 135.454,80.9102" />
  <polygon fill="#FFFFFF" points="135.666,80.5539, 135.946,80.7501, 135.759,81.0441, 135.479,80.8479" />
  <polygon fill="#000000" points="135.713,80.5864, 135.915,80.7989, 135.712,81.0116, 135.51,80.7991" />
  <polygon fill="#FFFFFF" points="135.544,80.7633, 135.747,80.6223, 135.881,80.8348, 135.678,80.9758" />
  <polygon fill="#000000" points="135.579,80.7391, 135.77,80.6587, 135.846,80.8589, 135.655,80.9393" />
  <polygon fill="#FFFFFF" points="135.612,80.7251, 135.783,80.6936, 135.813,80.873, 135.642,80.9044" />
  <polygon fill="#000000" points="135.643,80.7195, 135.788,80.7254, 135.783,80.8785, 135.637,80.8726" />
  <polygon fill="#FFFFFF" points="135.669,80.7205, 135.787,80.753, 135.756,80.8775, 135.638,80.845" />
  <polygon fill="#000000" points="135.691,80.7265, 135.782,80.7757, 135.735,80.8715, 135.643,80.8223" />
  <polygon fill="#FFFFFF" points="135.707,80.7356, 135.773,80.7935, 135.718,80.8624, 135.652,80.8045" />
  <polygon fill="#000000" points="135.663,80.7915, 135.72,80.7465, 135.762,80.8065, 135.705,80.8515" />
  <polygon fill="#FFFFFF" points="135.674,80.7829, 135.728,80.758, 135.752,80.8151, 135.697,80.84" />
  <!-- Shape 4 -->
  <polygon fill="#000000" points="95.0007,76.1309, 117.442,76.29, 117.354,100, 94.9667,100" />
  <polygon fill="#FFFFFF" points="95.0007,76.1428, 117.431,76.2899, 117.354,99.9881, 94.9779,100" />
  <polygon fill="#000000" points="95.0005,76.311, 117.273,76.2889, 117.354,99.8211, 95.1356,99.9999" />
  <polygon fill="#FFFFFF" points="95.0024,76.6332, 116.97,76.2892, 117.353,99.501, 95.4378,99.9975" />
  <polygon fill="#000000" points="95.0111,77.104, 116.527,76.2961, 117.345,99.0333, 95.8794,99.9875" />
  <polygon fill="#FFFFFF" points="95.0343,77.7149, 115.952,76.3177, 117.324,98.4262, 96.4525,99.962" />
  <polygon fill="#000000" points="95.0815,78.4547, 115.257,76.3642, 117.278,97.6911, 97.1465,99.9109" />
  <polygon fill="#FFFFFF" points="95.1637,79.3086, 114.454,76.4474, 117.198,96.8423, 97.9477,99.8226" />
  <polygon fill="#000000" points="95.2927,80.2594, 113.56,76.58, 117.07,95.897, 98.84,99.6845" />
  <polygon fill="#FFFFFF" points="95.4804,81.287, 112.594,76.7746, 116.885,94.8751, 99.8043,99.4841" />
  <polygon fill="#000000" points="95.7374,82.3688, 111.576,77.0429, 116.63,93.7991, 100.82,99.2101" />
  <polygon fill="#FFFFFF" points="96.0728,83.4804, 110.531,77.3944, 116.296,92.6932, 101.863,98.853" />
  <polygon fill="#000000" points="96.4929,84.5956, 109.482,77.8359, 115.878,91.5832, 102.91,98.4061" />
  <polygon fill="#FFFFFF" points="97.0006,85.6881, 108.454,78.3706, 115.372,90.4958, 103.936,97.8664" />
  <polygon fill="#000000" points="97.5946,86.7311, 107.473,78.9974, 114.779,89.4573, 104.916,97.2351" />
  <polygon fill="#FFFFFF" points="98.2696,87.6996, 106.563,79.7104, 114.106,88.4929, 105.825,96.518" />
  <polygon fill="#000000" points="105.744,80.4994, 113.361,87.6256, 106.643,95.7255, 99.0157,88.5704" />
  <polygon fill="#FFFFFF" points="105.035,81.3492, 112.559,86.8752, 107.35,94.8726, 99.8188,89.3238" />
  <polygon fill="#000000" points="104.452,82.2412, 111.717,86.2571, 107.933,93.9781, 100.661,89.9445" />
  <polygon fill="#FFFFFF" points="104.003,83.1533, 110.857,85.7817, 108.381,93.0639, 101.522,90.422" />
  <polygon fill="#000000" points="103.693,84.0615, 110.001,85.4532, 108.69,92.154, 102.379,90.7522" />
  <polygon fill="#FFFFFF" points="103.52,84.9413, 109.171,85.2702, 108.863,91.2729, 103.209,90.9365" />
  <polygon fill="#000000" points="103.477,85.769, 108.391,85.2248, 108.905,90.4442, 103.989,90.9829" />
  <polygon fill="#FFFFFF" points="103.551,86.5229, 107.681,85.3035, 108.831,89.6895, 104.7,90.905" />
  <polygon fill="#000000" points="103.725,87.1853, 107.056,85.4878, 108.657,89.0265, 105.325,90.7213" />
  <polygon fill="#FFFFFF" points="103.977,87.7429, 106.531,85.7555, 108.405,88.4685, 105.85,90.454" />
  <polygon fill="#000000" points="106.112,86.0819, 108.097,88.0229, 106.27,90.1279, 104.285,88.1882" />
  <polygon fill="#FFFFFF" points="105.8,86.4417, 107.758,87.6914, 106.582,89.7684, 104.624,88.5195" />
  <polygon fill="#000000" points="105.591,86.8102, 107.41,87.4697, 106.79,89.4, 104.971,88.741" />
  <polygon fill="#FFFFFF" points="105.477,87.1653, 107.076,87.3484, 106.904,89.045, 105.306,88.8622" />
  <polygon fill="#000000" points="105.444,87.4884, 106.771,87.3135, 106.937,88.7219, 105.61,88.897" />
  <polygon fill="#FFFFFF" points="105.477,87.7659, 106.51,87.348, 106.904,88.4445, 105.872,88.8625" />
  <polygon fill="#000000" points="105.557,87.9891, 106.3,87.4331, 106.824,88.2213, 106.082,88.7774" />
  <polygon fill="#FFFFFF" points="106.144,87.5499, 106.714,88.0557, 106.238,88.6606, 105.668,88.1547" />
  <polygon fill="#000000" points="106.041,87.6809, 106.59,87.9461, 106.341,88.5295, 105.791,88.2643" />
  <polygon fill="#FFFFFF" points="105.985,87.8112, 106.468,87.8869, 106.397,88.3993, 105.914,88.3235" />
  <polygon fill="#000000" points="105.969,87.9289, 106.357,87.8695, 106.413,88.2816, 106.025,88.3409" />
  <polygon fill="#FFFFFF" points="105.982,88.0262, 106.265,87.8835, 106.4,88.1842, 106.116,88.3269" />
  <polygon fill="#000000" points="106.015,88.0993, 106.196,87.9182, 106.367,88.1112, 106.185,88.2923" />
  <polygon fill="#FFFFFF" points="106.151,87.9633, 106.324,88.0631, 106.231,88.2471, 106.057,88.1474" />
  <polygon fill="#000000" points="106.127,88.0105, 106.28,88.0375, 106.255,88.2, 106.101,88.1729" />
  <polygon fill="#FFFFFF" points="106.12,88.0531, 106.24,88.0304, 106.261,88.1573, 106.142,88.18" />
  <polygon fill="#000000" points="106.126,88.0872, 106.208,88.0365, 106.255,88.1232, 106.174,88.1739" />
  <polygon fill="#FFFFFF" points="106.185,88.0505, 106.242,88.0993, 106.196,88.1599, 106.139,88.1111" />
  <polygon fill="#000000" points="106.172,88.0676, 106.226,88.0855, 106.209,88.1428, 106.155,88.1249" />
  <polygon fill="#FFFFFF" points="106.167,88.0842, 106.211,88.0804, 106.214,88.1263, 106.171,88.1301" />
  <polygon fill="#000000" points="106.168,88.0977, 106.198,88.0815, 106.213,88.1127, 106.184,88.129" />
  <polygon fill="#FFFFFF" points="106.189,88.0864, 106.208,88.1033, 106.193,88.1241, 106.173,88.1071" />
  <polygon fill="#000000" points="106.184,88.0928, 106.202,88.0981, 106.197,88.1177, 106.179,88.1124" />
  <polygon fill="#FFFFFF" points="106.182,88.0989, 106.197,88.0964, 106.199,88.1115, 106.185,88.114" />
  <!-- Shape 5 -->
  <polygon fill="#FFFFFF" points="95.0214,61.5936, 108.941,61.5951, 108.95,76.2298, 95.0007,76.1309" />
  <polygon fill="#000000" points="95.0284,61.5936, 108.941,61.6024, 108.943,76.2297, 95.0007,76.1236" />
  <polygon fill="#FFFFFF" points="95.1738,61.5937, 108.941,61.7553, 108.798,76.2286, 95.001,75.9718" />
  <polygon fill="#000000" points="95.4546,61.597, 108.938,62.0505, 108.516,76.2234, 95.0045,75.6784" />
  <polygon fill="#FFFFFF" points="95.8639,61.6107, 108.926,62.4807, 108.106,76.2069, 95.0182,75.2511" />
  <polygon fill="#000000" points="96.3903,61.6458, 108.893,63.0338, 107.579,76.1683, 95.0523,74.7014" />
  <polygon fill="#FFFFFF" points="97.0185,61.7155, 108.827,63.6938, 106.949,76.0946, 95.1195,74.0453" />
  <polygon fill="#000000" points="97.7293,61.8346, 108.713,64.4404, 106.237,75.9713, 95.2338,73.3031" />
  <polygon fill="#FFFFFF" points="98.4999,62.0174, 108.54,65.2493, 105.465,75.7841, 95.4089,72.4986" />
  <polygon fill="#000000" points="99.3041,62.2763, 108.293,66.0931, 104.66,75.5209, 95.6565,71.659" />
  <polygon fill="#FFFFFF" points="100.114,62.62, 107.966,66.9421, 103.849,75.1732, 95.9849,70.8141" />
  <polygon fill="#000000" points="100.899,63.0522, 107.555,67.7652, 103.063,74.7372, 96.3978,69.9947" />
  <polygon fill="#FFFFFF" points="101.631,63.5704, 107.061,68.5318, 102.33,74.2158, 96.8927,69.2314" />
  <polygon fill="#000000" points="97.4608,68.5526, 102.282,64.1653, 106.493,69.2133, 101.678,73.6182" />
  <polygon fill="#FFFFFF" points="98.0868,67.9829, 102.829,64.8207, 105.868,69.7853, 101.13,72.9604" />
  <polygon fill="#000000" points="98.7497,67.5408, 103.254,65.5148, 105.206,70.2291, 100.705,72.2646" />
  <polygon fill="#FFFFFF" points="99.4241,67.2374, 103.546,66.2208, 104.532,70.5339, 100.412,71.5572" />
  <polygon fill="#000000" points="100.082,67.0751, 103.703,66.9096, 103.874,70.6974, 100.254,70.8673" />
  <polygon fill="#FFFFFF" points="100.697,67.047, 103.732,67.5522, 103.26,70.7262, 100.225,70.224" />
  <polygon fill="#000000" points="101.242,67.1377, 103.647,68.1222, 102.715,70.636, 100.31,69.6534" />
  <polygon fill="#FFFFFF" points="101.698,67.3243, 103.471,68.5987, 102.259,70.4497, 100.486,69.1765" />
  <polygon fill="#000000" points="100.728,68.807, 102.051,67.5786, 103.229,68.968, 101.905,70.1957" />
  <polygon fill="#FFFFFF" points="101.005,68.5497, 102.298,67.8696, 102.952,69.2251, 101.659,69.9049" />
  <polygon fill="#000000" points="101.289,68.4005, 102.441,68.167, 102.668,69.3743, 101.515,69.6076" />
  <polygon fill="#FFFFFF" points="101.553,68.347, 102.493,68.4439, 102.404,69.4278, 101.463,69.3307" />
  <polygon fill="#000000" points="101.778,68.3701, 102.472,68.6793, 102.179,69.4045, 101.485,69.0953" />
  <polygon fill="#FFFFFF" points="101.951,68.4472, 102.399,68.8601, 102.006,69.3275, 101.558,68.9146" />
  <polygon fill="#000000" points="101.66,68.7934, 102.067,68.5542, 102.297,68.9812, 101.89,69.2204" />
  <polygon fill="#FFFFFF" points="101.77,68.729, 102.129,68.6692, 102.187,69.0456, 101.828,69.1055" />
  <polygon fill="#000000" points="101.87,68.7123, 102.145,68.7742, 102.087,69.0623, 101.812,69.0004" />
  <polygon fill="#FFFFFF" points="101.949,68.7302, 102.128,68.8575, 102.007,69.0444, 101.828,68.9172" />
  <polygon fill="#000000" points="101.865,68.8613, 102.003,68.7683, 102.092,68.9134, 101.954,69.0064" />
  <polygon fill="#FFFFFF" points="101.907,68.8325, 102.031,68.8131, 102.049,68.9421, 101.926,68.9615" />
  <polygon fill="#000000" points="101.947,68.8263, 102.037,68.8543, 102.01,68.9483, 101.92,68.9204" />
  <polygon fill="#FFFFFF" points="101.976,68.8355, 102.028,68.8852, 101.981,68.9391, 101.929,68.8895" />
  <polygon fill="#000000" points="101.945,68.8712, 101.994,68.8523, 102.012,68.9035, 101.963,68.9223" />
  <polygon fill="#FFFFFF" points="101.962,68.8646, 102,68.8702, 101.995,68.91, 101.957,68.9045" />
  <polygon fill="#000000" points="101.976,68.8666, 101.998,68.8845, 101.981,68.908, 101.959,68.8902" />
  <polygon fill="#FFFFFF" points="101.965,68.8815, 101.984,68.8732, 101.992,68.8932, 101.973,68.9015" />
  <polygon fill="#000000" points="101.972,68.8784, 101.987,68.8808, 101.985,68.8963, 101.97,68.8939" />
  <polygon fill="#FFFFFF" points="101.978,68.8793, 101.986,68.8868, 101.979,68.8954, 101.971,68.8879" />
  <polygon fill="#000000" points="101.974,68.8844, 101.981,68.8823, 101.983,68.8902, 101.976,68.8924" />
  <polygon fill="#FFFFFF" points="101.977,68.8836, 101.982,68.8855, 101.98,68.8911, 101.975,68.8891" />
  <polygon fill="#000000" points="101.976,68.8868, 101.979,68.8844, 101.981,68.8879, 101.978,68.8903" />
  <polygon fill="#FFFFFF" points="101.977,68.8858, 101.98,68.8859, 101.98,68.8889, 101.977,68.8888" />
  <polygon fill="#000000" points="101.978,68.8858, 101.98,68.8872, 101.979,68.8888, 101.977,68.8875" />
  <polygon fill="#FFFFFF" points="101.978,68.8867, 101.979,68.8864, 101.979,68.8879, 101.978,68.8882" />
  <polygon fill="#000000" points="101.978,68.8866, 101.979,68.8871, 101.979,68.8881, 101.978,68.8875" />
  <polygon fill="#FFFFFF" points="101.978,68.8871, 101.979,68.8868, 101.979,68.8876, 101.978,68.8878" />
  <polygon fill="#000000" points="101.978,68.887, 101.979,68.8872, 101.979,68.8877, 101.978,68.8875" />
  <!-- Shape 6 -->
  <polygon fill="#000000" points="108.941,61.5951, 117.496,61.596, 117.463,70.73, 108.947,70.5848" />
  <polygon fill="#FFFFFF" points="108.941,61.5996, 117.492,61.596, 117.463,70.7255, 108.951,70.5849" />
  <polygon fill="#000000" points="108.941,61.7375, 117.361,61.5961, 117.463,70.5853, 109.082,70.587" />
  <polygon fill="#FFFFFF" points="108.946,62.0048, 117.107,61.6003, 117.46,70.3139, 109.335,70.587" />
  <polygon fill="#000000" points="108.963,62.3914, 116.739,61.6186, 117.444,69.9213, 109.701,70.5747" />
  <polygon fill="#FFFFFF" points="109.007,62.8816, 116.273,61.6649, 117.402,69.424, 110.165,70.5356" />
  <polygon fill="#000000" points="109.094,63.4537, 115.73,61.7558, 117.317,68.844, 110.706,70.4525" />
  <polygon fill="#FFFFFF" points="109.238,64.0808, 115.136,61.9079, 117.175,68.2089, 111.298,70.3083" />
  <polygon fill="#000000" points="109.453,64.7313, 114.52,62.1349, 116.962,67.5508, 111.912,70.0891" />
  <polygon fill="#FFFFFF" points="109.747,65.3704, 113.915,62.4446, 116.671,66.9046, 112.514,69.7862" />
  <polygon fill="#000000" points="110.118,65.9628, 113.356,62.8371, 116.301,66.3063, 113.072,69.3997" />
  <polygon fill="#FFFFFF" points="112.874,63.3029, 115.862,65.7894, 113.553,68.9388, 110.558,66.4749" />
  <polygon fill="#000000" points="112.494,63.8226, 115.373,65.382, 113.931,68.4227, 111.049,66.8786" />
  <polygon fill="#FFFFFF" points="112.236,64.3687, 114.858,65.1033, 114.189,67.8794, 111.564,67.1546" />
  <polygon fill="#000000" points="112.106,64.9079, 114.351,64.9612, 114.319,67.3421, 112.072,67.2948" />
  <polygon fill="#FFFFFF" points="112.099,65.4053, 113.883,64.9501, 114.325,66.8459, 112.54,67.3047" />
  <polygon fill="#000000" points="112.197,65.8294, 113.485,65.0517, 114.226,66.4226, 112.939,67.2023" />
  <polygon fill="#FFFFFF" points="113.178,65.2369, 114.05,66.0962, 113.245,67.0166, 112.374,66.1563" />
  <polygon fill="#000000" points="112.975,65.4694, 113.829,65.8788, 113.449,66.7838, 112.594,66.3739" />
  <polygon fill="#FFFFFF" points="112.873,65.7116, 113.6,65.7692, 113.551,66.5415, 112.823,66.4837" />
  <polygon fill="#000000" points="112.859,65.9299, 113.395,65.7529, 113.565,66.3232, 113.029,66.5" />
  <polygon fill="#FFFFFF" points="112.909,66.0995, 113.235,65.8056, 113.514,66.1535, 113.188,66.4474" />
  <polygon fill="#000000" points="113.133,65.8974, 113.427,66.0448, 113.29,66.3556, 112.996,66.2081" />
  <polygon fill="#FFFFFF" points="113.089,65.9991, 113.331,65.9966, 113.335,66.2539, 113.093,66.2564" />
  <polygon fill="#000000" points="113.09,66.0871, 113.248,65.9974, 113.334,66.1659, 113.175,66.2556" />
  <polygon fill="#FFFFFF" points="113.192,66.0294, 113.303,66.1058, 113.232,66.2236, 113.12,66.1472" />
  <polygon fill="#000000" points="113.165,66.0732, 113.262,66.0774, 113.258,66.1798, 113.162,66.1756" />
  <polygon fill="#FFFFFF" points="113.164,66.1128, 113.224,66.0758, 113.26,66.1402, 113.199,66.1772" />
  <polygon fill="#000000" points="113.2,66.0906, 113.245,66.1143, 113.223,66.1623, 113.178,66.1387" />
  <polygon fill="#FFFFFF" points="113.191,66.1106, 113.227,66.1045, 113.233,66.1424, 113.197,66.1485" />
  <polygon fill="#000000" points="113.211,66.1071, 113.23,66.126, 113.212,66.1459, 113.194,66.127" />
  <polygon fill="#FFFFFF" points="113.203,66.116, 113.222,66.1176, 113.22,66.137, 113.202,66.1354" />
  <polygon fill="#000000" points="113.203,66.1249, 113.213,66.1168, 113.221,66.1281, 113.21,66.1361" />
  <polygon fill="#FFFFFF" points="113.208,66.1207, 113.217,66.1227, 113.215,66.1323, 113.206,66.1303" />
  <polygon fill="#000000" points="113.207,66.1254, 113.213,66.1217, 113.216,66.1276, 113.211,66.1313" />
  <polygon fill="#FFFFFF" points="113.21,66.1236, 113.215,66.1246, 113.214,66.1294, 113.209,66.1284" />
  <polygon fill="#000000" points="113.21,66.1261, 113.212,66.1241, 113.214,66.1269, 113.211,66.1289" />
  <polygon fill="#FFFFFF" points="113.211,66.1251, 113.213,66.1254, 113.213,66.1278, 113.211,66.1276" />
  <polygon fill="#000000" points="113.211,66.1265, 113.212,66.1253, 113.213,66.1265, 113.212,66.1277" />
  <polygon fill="#FFFFFF" points="113.211,66.1259, 113.212,66.1258, 113.212,66.127, 113.211,66.1272" />
  <polygon fill="#000000" points="113.212,66.1259, 113.212,66.1263, 113.212,66.1271, 113.211,66.1267" />
  <polygon fill="#FFFFFF" points="113.211,66.1263, 113.212,66.1261, 113.212,66.1266, 113.212,66.1269" />
  <polygon fill="#000000" points="113.212,66.1262, 113.212,66.1263, 113.212,66.1267, 113.212,66.1267" />
  <polygon fill="#FFFFFF" points="113.212,66.1263, 113.212,66.1265, 113.212,66.1267, 113.212,66.1265" />
  <polygon fill="#000000" points="113.212,66.1264, 113.212,66.1263, 113.212,66.1266, 113.212,66.1267" />
  <polygon fill="#FFFFFF" points="113.212,66.1264, 113.212,66.1264, 113.212,66.1266, 113.212,66.1266" />
  <polygon fill="#000000" points="113.212,66.1266, 113.212,66.1265, 113.212,66.1265, 113.212,66.1264" />
  <polygon fill="#FFFFFF" points="113.212,66.1266, 113.212,66.1265, 113.212,66.1264, 113.212,66.1265" />
  <polygon fill="#000000" points="113.212,66.1264, 113.212,66.1265, 113.212,66.1265, 113.212,66.1265" />
  <polygon fill="#FFFFFF" points="113.212,66.1265, 113.212,66.1265, 113.212,66.1265, 113.212,66.1265" />
  <!-- Shape 7 -->
  <polygon fill="#FFFFFF" points="112.529,70.6459, 117.463,70.73, 117.442,76.29, 112.502,76.255" />
  <polygon fill="#000000" points="112.531,70.6459, 117.463,70.7328, 117.439,76.29, 112.502,76.2522" />
  <polygon fill="#FFFFFF" points="112.662,70.6483, 117.462,70.8806, 117.308,76.289, 112.503,76.1031" />
  <polygon fill="#000000" points="112.915,70.6605, 117.454,71.1657, 117.055,76.2792, 112.511,75.8156" />
  <polygon fill="#FFFFFF" points="113.273,70.7003, 117.422,71.5686, 116.697,76.2427, 112.543,75.4094" />
  <polygon fill="#000000" points="113.708,70.7914, 117.346,72.0589, 116.261,76.1552, 112.619,74.9154" />
  <polygon fill="#FFFFFF" points="114.185,70.9574, 117.204,72.5955, 115.784,75.9928, 112.762,74.3751" />
  <polygon fill="#000000" points="114.659,71.2148, 116.981,73.1293, 115.309,75.7387, 112.986,73.8382" />
  <polygon fill="#FFFFFF" points="113.292,73.3576, 115.085,71.5655, 116.675,73.6073, 114.884,75.3905" />
  <polygon fill="#000000" points="113.667,72.9825, 115.417,71.9929, 116.3,73.9805, 114.55,74.965" />
  <polygon fill="#FFFFFF" points="114.079,72.7496, 115.625,72.4608, 115.888,74.2123, 114.343,74.4983" />
  <polygon fill="#000000" points="114.484,72.674, 115.694,72.9188, 115.484,74.2871, 114.274,74.041" />
  <polygon fill="#FFFFFF" points="114.832,72.7444, 115.633,73.3123, 115.136,74.2163, 114.334,73.6479" />
  <polygon fill="#000000" points="114.49,73.3645, 115.083,72.9226, 115.477,73.5959, 114.884,74.038" />
  <polygon fill="#FFFFFF" points="114.692,73.2143, 115.217,73.1514, 115.276,73.7461, 114.75,73.8091" />
  <polygon fill="#000000" points="114.884,73.1913, 115.239,73.369, 115.084,73.7692, 114.729,73.5915" />
  <polygon fill="#FFFFFF" points="114.79,73.4346, 115.023,73.2609, 115.178,73.5259, 114.945,73.6995" />
  <polygon fill="#000000" points="114.887,73.362, 115.088,73.3717, 115.08,73.5985, 114.88,73.5888" />
  <polygon fill="#FFFFFF" points="114.976,73.3663, 115.084,73.4724, 114.991,73.5942, 114.883,73.488" />
  <polygon fill="#000000" points="114.927,73.4308, 115.027,73.4162, 115.041,73.5297, 114.94,73.5442" />
  <polygon fill="#FFFFFF" points="114.977,73.4236, 115.034,73.4725, 114.991,73.5369, 114.934,73.4879" />
  <polygon fill="#000000" points="114.956,73.4543, 115.007,73.4492, 115.011,73.5062, 114.961,73.5113" />
  <polygon fill="#FFFFFF" points="114.958,73.48, 114.984,73.4515, 115.009,73.4804, 114.984,73.509" />
  <polygon fill="#000000" points="114.973,73.4636, 114.998,73.4681, 114.995,73.4969, 114.969,73.4924" />
  <polygon fill="#FFFFFF" points="114.971,73.4751, 114.988,73.4663, 114.996,73.4854, 114.979,73.4941" />
  <polygon fill="#000000" points="114.982,73.4696, 114.993,73.4783, 114.986,73.4909, 114.974,73.4822" />
  <polygon fill="#FFFFFF" points="114.979,73.474, 114.989,73.4753, 114.988,73.4865, 114.978,73.4852" />
  <polygon fill="#000000" points="114.979,73.4776, 114.986,73.4748, 114.989,73.4829, 114.981,73.4856" />
  <polygon fill="#FFFFFF" points="114.98,73.4799, 114.984,73.4757, 114.988,73.4805, 114.984,73.4848" />
  <polygon fill="#000000" points="114.983,73.4768, 114.987,73.4792, 114.985,73.4837, 114.981,73.4813" />
  <polygon fill="#FFFFFF" points="114.982,73.4779, 114.986,73.4786, 114.985,73.4826, 114.982,73.4818" />
  <polygon fill="#000000" points="114.982,73.4787, 114.985,73.4785, 114.985,73.4817, 114.982,73.482" />
  <polygon fill="#FFFFFF" points="114.982,73.4794, 114.984,73.4785, 114.985,73.4811, 114.983,73.482" />
  <polygon fill="#000000" points="114.982,73.4798, 114.984,73.4787, 114.985,73.4807, 114.983,73.4818" />
  <polygon fill="#FFFFFF" points="114.982,73.4801, 114.984,73.4788, 114.985,73.4804, 114.984,73.4817" />
  <polygon fill="#000000" points="114.984,73.479, 114.985,73.4802, 114.984,73.4815, 114.983,73.4802" />
  <polygon fill="#FFFFFF" points="114.984,73.4791, 114.985,73.4801, 114.984,73.4814, 114.983,73.4804" />
  <polygon fill="#000000" points="114.984,73.4791, 114.985,73.4801, 114.984,73.4813, 114.983,73.4804" />
  <polygon fill="#FFFFFF" points="114.984,73.4792, 114.985,73.48, 114.984,73.4813, 114.983,73.4804" />
  <!-- Shape 8 -->
  <polygon fill="#FFFFFF" points="108.947,70.5848, 112.529,70.6459, 112.518,72.8635, 108.948,72.8652" />
  <polygon fill="#000000" points="108.949,70.5848, 112.529,70.647, 112.516,72.8635, 108.948,72.864" />
  <polygon fill="#FFFFFF" points="109.127,70.5879, 112.528,70.7576, 112.338,72.8635, 108.948,72.7503" />
  <polygon fill="#000000" points="109.465,70.6048, 112.509,70.9667, 112.002,72.8523, 108.966,72.5356" />
  <polygon fill="#FFFFFF" points="109.918,70.6586, 112.434,71.2471, 111.55,72.8052, 109.04,72.2485" />
  <polygon fill="#000000" points="110.416,70.7752, 112.259,71.5558, 111.053,72.6949, 109.214,71.9335" />
  <polygon fill="#FFFFFF" points="109.512,71.6468, 110.872,70.9684, 111.96,71.8377, 110.598,72.5065" />
  <polygon fill="#000000" points="109.915,71.4454, 111.195,71.2265, 111.556,72.0363, 110.275,72.2512" />
  <polygon fill="#FFFFFF" points="110.359,71.3696, 111.32,71.5069, 111.112,72.1107, 110.151,71.9722" />
  <polygon fill="#000000" points="110.233,71.7337, 110.739,71.4239, 111.238,71.7458, 110.732,72.0559" />
  <polygon fill="#FFFFFF" points="110.458,71.5958, 110.961,71.5672, 111.013,71.8838, 110.51,71.9125" />
  <polygon fill="#000000" points="110.707,71.5817, 110.987,71.7238, 110.764,71.898, 110.484,71.7559" />
  <polygon fill="#FFFFFF" points="110.605,71.6611, 110.859,71.659, 110.866,71.8185, 110.612,71.8207" />
  <polygon fill="#000000" points="110.608,71.726, 110.756,71.6599, 110.863,71.7536, 110.715,71.8198" />
  <polygon fill="#FFFFFF" points="110.703,71.6835, 110.825,71.7201, 110.768,71.7962, 110.646,71.7596" />
  <polygon fill="#000000" points="110.686,71.7069, 110.787,71.7089, 110.785,71.7728, 110.684,71.7708" />
  <polygon fill="#FFFFFF" points="110.685,71.7234, 110.761,71.7084, 110.786,71.7562, 110.71,71.7713" />
  <polygon fill="#000000" points="110.69,71.7335, 110.745,71.7115, 110.781,71.7462, 110.726,71.7682" />
  <polygon fill="#FFFFFF" points="110.696,71.739, 110.736,71.715, 110.775,71.7407, 110.735,71.7647" />
  <polygon fill="#000000" points="110.732,71.7177, 110.771,71.7379, 110.739,71.762, 110.7,71.7418" />
  <polygon fill="#FFFFFF" points="110.73,71.7191, 110.768,71.7366, 110.741,71.7606, 110.703,71.7431" />
  <!-- Shape 9 -->
  <polygon fill="#000000" points="108.948,72.8652, 112.518,72.8635, 112.502,76.255, 108.95,76.2298" />
  <polygon fill="#FFFFFF" points="108.948,72.8668, 112.516,72.8635, 112.502,76.2533, 108.952,76.2298" />
  <polygon fill="#000000" points="108.948,72.9977, 112.378,72.8636, 112.502,76.1214, 109.09,76.2307" />
  <polygon fill="#FFFFFF" points="108.959,73.2476, 112.112,72.874, 112.493,75.8696, 109.354,76.2223" />
  <polygon fill="#000000" points="109.005,73.5917, 111.748,72.9172, 112.449,75.523, 109.717,76.1815" />
  <polygon fill="#FFFFFF" points="109.115,73.9908, 111.325,73.0212, 112.341,75.1215, 110.138,76.08" />
  <polygon fill="#000000" points="109.312,74.393, 110.899,73.2078, 112.145,74.7171, 110.562,75.8955" />
  <polygon fill="#FFFFFF" points="110.533,73.4815, 111.858,74.3686, 110.928,75.6234, 109.6,74.7399" />
  <polygon fill="#000000" points="110.282,73.8204, 111.501,74.1297, 111.178,75.2855, 109.958,74.9778" />
  <polygon fill="#FFFFFF" points="110.182,74.1765, 111.126,74.0345, 111.277,74.9299, 110.333,75.0725" />
  <polygon fill="#000000" points="110.234,74.4866, 110.799,74.0837, 111.225,74.62, 110.66,75.0231" />
  <polygon fill="#FFFFFF" points="110.582,74.2386, 111.061,74.4138, 110.877,74.8681, 110.398,74.6929" />
  <polygon fill="#000000" points="110.504,74.4307, 110.858,74.3397, 110.955,74.676, 110.601,74.767" />
  <polygon fill="#FFFFFF" points="110.695,74.3817, 110.91,74.5209, 110.764,74.725, 110.549,74.5859" />
  <polygon fill="#000000" points="110.622,74.4837, 110.803,74.4513, 110.837,74.623, 110.656,74.6554" />
  <polygon fill="#FFFFFF" points="110.705,74.4688, 110.819,74.5306, 110.754,74.638, 110.64,74.5761" />
  <polygon fill="#000000" points="110.668,74.5306, 110.753,74.495, 110.791,74.5761, 110.706,74.6118" />
  <polygon fill="#FFFFFF" points="110.701,74.5169, 110.768,74.5262, 110.758,74.5898, 110.691,74.5805" />
  <polygon fill="#000000" points="110.724,74.5201, 110.765,74.5483, 110.735,74.5866, 110.695,74.5585" />
  <polygon fill="#FFFFFF" points="110.704,74.5466, 110.737,74.5288, 110.755,74.5601, 110.723,74.5779" />
  <polygon fill="#000000" points="110.713,74.5418, 110.742,74.5372, 110.747,74.5649, 110.717,74.5695" />
  <polygon fill="#FFFFFF" points="110.719,74.5408, 110.743,74.5436, 110.74,74.566, 110.716,74.5631" />
  <polygon fill="#000000" points="110.724,74.5413, 110.742,74.5479, 110.735,74.5654, 110.717,74.5588" />
  <polygon fill="#FFFFFF" points="110.727,74.5423, 110.741,74.5506, 110.732,74.5644, 110.718,74.5561" />
  <polygon fill="#000000" points="110.728,74.5433, 110.74,74.5522, 110.731,74.5634, 110.719,74.5545" />
  <polygon fill="#FFFFFF" points="110.729,74.544, 110.739,74.5531, 110.73,74.5627, 110.72,74.5536" />
  <polygon fill="#000000" points="110.72,74.5532, 110.73,74.5444, 110.739,74.5535, 110.729,74.5624" />
</svg>
