<?xml version="1.0" standalone="no"?>
<!DOCTYPE svg PUBLIC "-//W3C//DTD SVG 1.1//EN" "http://www.w3.org/Graphics/SVG/1.1/DTD/svg11.dtd">
<svg viewBox="0, 0, 154, 100" xmlns="http://www.w3.org/2000/svg" version="1.1">
  <!-- Shape 1 -->
  <polygon fill="#FFFFFF" points="0,0, 95.1093,0, 94.9667,100, 0,100" />
  <polygon fill="#000000" points="3.99459,0, 95.1033,4.2, 90.9781,100, 0,95.8" />
  <polygon fill="#FFFFFF" points="8.31314,0.19908, 94.9077,8.74092, 86.6657,99.8009, 0.189344,91.2591" />
  <polygon fill="#000000" points="12.8853,0.650089, 94.4726,13.5489, 82.0998,99.3499, 0.61828,86.4511" />
  <polygon fill="#FFFFFF" points="17.6337,1.4008, 93.7525,18.5425, 77.3575,98.5992, 1.33222,81.4575" />
  <polygon fill="#000000" points="22.4749,2.49101, 92.7097,23.6341, 72.5223,97.509, 2.369,76.3659" />
  <polygon fill="#FFFFFF" points="27.3211,3.94989, 91.3168,28.7315, 67.6817,96.0501, 3.7563,71.2685" />
  <polygon fill="#000000" points="32.0824,5.79364, 89.5584,33.74, 62.9257,94.2064, 5.50952,66.26" />
  <polygon fill="#FFFFFF" points="36.6689,8.02376, 87.4331,38.5652, 58.3439,91.9762, 7.63003,61.4348" />
  <polygon fill="#000000" points="40.994,10.6259, 84.9547,43.1158, 54.0231,89.3741, 10.1041,56.8842" />
  <polygon fill="#FFFFFF" points="44.9769,13.5695, 82.1523,47.3068, 50.044,86.4305, 12.9028,52.6932" />
  <polygon fill="#000000" points="15.9819,48.9373, 48.5457,16.8083, 79.0699,51.0627, 46.4784,83.1917" />
  <polygon fill="#FFFFFF" points="19.2839,45.6794, 51.6409,20.2817, 75.7651,54.3206, 43.3861,79.7183" />
  <polygon fill="#000000" points="22.7396,42.9669, 54.2173,23.917, 72.307,57.0331, 40.812,76.083" />
  <polygon fill="#FFFFFF" points="26.2714,40.8295, 56.247,27.6326, 68.7733,59.1705, 38.7843,72.3674" />
  <!-- Shape 2 -->
  <polygon fill="#000000" points="95.1093,0, 154,0, 154,61.6, 95.0214,61.5936" />
  <polygon fill="#FFFFFF" points="95.1056,2.58693, 151.527,0, 154,59.0128, 97.4985,61.5938" />
  <polygon fill="#000000" points="95.219,5.38386, 148.852,0.12262, 153.883,56.2156, 100.177,61.4715" />
  <polygon fill="#FFFFFF" points="95.4808,8.34529, 146.02,0.400414, 153.617,53.2539, 103.012,61.194" />
  <polygon fill="#000000" points="95.9191,11.4211, 143.079,0.862805, 153.175,50.1778, 105.958,60.7319" />
  <polygon fill="#FFFFFF" points="96.5576,14.5572, 140.08,1.53431, 152.533,47.0414, 108.961,60.0606" />
  <polygon fill="#000000" points="97.4134,17.697, 137.077,2.43289, 151.674,43.9014, 111.967,59.1623" />
  <polygon fill="#FFFFFF" points="98.4962,20.782, 134.126,3.56854, 150.588,40.8161, 114.921,58.0269" />
  <polygon fill="#000000" points="99.8069,23.7541, 131.282,4.94218, 149.274,37.8438, 117.767,56.6535" />
  <polygon fill="#FFFFFF" points="101.337,26.5572, 128.601,6.54496, 147.741,35.0406, 120.452,55.0509" />
  <polygon fill="#000000" points="103.069,29.1387, 126.131,8.35806, 146.007,32.4589, 122.924,53.238" />
  <polygon fill="#FFFFFF" points="123.917,10.353, 144.099,30.1452, 125.14,51.2432, 104.975,31.4522" />
  <polygon fill="#000000" points="121.996,12.4925, 142.052,28.1383, 127.063,49.1038, 107.02,33.459" />
  <polygon fill="#FFFFFF" points="120.397,14.7317, 139.91,26.4673, 128.663,46.8647, 109.16,35.1299" />
  <polygon fill="#000000" points="119.136,17.0204, 137.721,25.1506, 129.925,44.5761, 111.349,36.4465" />
  <polygon fill="#FFFFFF" points="118.22,19.3049, 135.535,24.1944, 130.842,42.2917, 113.533,37.4026" />
  <!-- Shape 3 -->
  <polygon fill="#FFFFFF" points="117.496,61.596, 154,61.6, 154,100, 117.354,100" />
  <polygon fill="#000000" points="119.03,61.5962, 154,63.2128, 152.461,100, 117.36,98.387" />
  <polygon fill="#FFFFFF" points="120.687,61.6728, 153.927,64.9565, 150.797,99.9235, 117.439,96.6431" />
  <polygon fill="#000000" points="122.442,61.8462, 153.762,66.8028, 149.036,99.7503, 117.61,94.7967" />
  <polygon fill="#FFFFFF" points="124.265,62.1347, 153.487,68.7203, 147.207,99.462, 117.892,92.879" />
  <polygon fill="#000000" points="126.124,62.5535, 153.087,70.6755, 145.342,99.0434, 118.297,90.9237" />
  <polygon fill="#FFFFFF" points="127.984,63.1139, 152.553,72.6329, 143.476,98.4831, 118.837,88.9661" />
  <polygon fill="#000000" points="129.812,63.8221, 151.878,74.5561, 141.643,97.775, 119.518,87.0427" />
  <polygon fill="#FFFFFF" points="131.573,64.6787, 151.061,76.409, 139.877,96.9186, 120.339,85.1897" />
  <polygon fill="#000000" points="133.233,65.6781, 150.108,78.1564, 138.213,95.9193, 121.296,83.4422" />
  <polygon fill="#FFFFFF" points="134.762,66.8087, 149.03,79.7657, 136.68,94.7889, 122.378,81.8328" />
  <polygon fill="#000000" points="123.567,80.3904, 136.132,68.0525, 147.845,81.208, 135.307,93.5451" />
  <polygon fill="#FFFFFF" points="124.841,79.1394, 137.32,69.3865, 146.573,82.4589, 134.117,92.2112" />
  <polygon fill="#000000" points="126.173,78.0978, 138.308,70.7826, 145.243,83.5005, 133.126,90.8151" />
  <polygon fill="#FFFFFF" points="127.535,77.277, 139.086,72.2096, 143.883,84.3212, 132.346,89.3882" />
  <polygon fill="#000000" points="128.893,76.6811, 139.65,73.6339, 142.527,84.9171, 131.78,87.964" />
  <polygon fill="#FFFFFF" points="130.216,76.3063, 140.004,75.0217, 141.205,85.2918, 131.425,86.5762" />
  <!-- Shape 4 -->
  <polygon fill="#000000" points="95.0007,76.1309, 117.442,76.29, 117.354,100, 94.9667,100" />
  <polygon fill="#FFFFFF" points="94.9983,77.8136, 115.86,76.2788, 117.36,98.3284, 96.545,100" />
  <polygon fill="#000000" points="95.1211,79.5752, 114.203,76.4007, 117.241,96.5777, 98.1977,99.8673" />
  <polygon fill="#FFFFFF" points="95.3928,81.367, 112.518,76.681, 116.973,94.7961, 99.8792,99.5768" />
  <polygon fill="#000000" points="95.8288,83.137, 110.854,77.1365, 116.54,93.0353, 101.541,99.1121" />
  <polygon fill="#FFFFFF" points="96.4349,84.832, 109.26,77.7731, 115.936,91.3484, 103.132,98.4674" />
  <polygon fill="#000000" points="97.205,86.4, 107.785,78.5849, 115.169,89.7873, 104.605,97.6487" />
  <polygon fill="#FFFFFF" points="98.1218,87.7938, 106.474,79.5532, 114.254,88.3993, 105.913,96.6747" />
  <polygon fill="#000000" points="105.365,80.6475, 113.221,87.2245, 107.021,95.5757, 99.1566,88.9731" />
  <polygon fill="#FFFFFF" points="104.485,81.8273, 112.107,86.2926, 107.899,94.3923, 100.271,89.9087" />
  <polygon fill="#000000" points="103.85,83.0443, 110.959,85.6201, 108.533,93.1725, 101.42,90.584" />
  <polygon fill="#FFFFFF" points="103.463,84.2469, 109.826,85.2093, 108.92,91.9679, 102.554,90.9968" />
  <!-- Shape 5 -->
  <polygon fill="#FFFFFF" points="95.0214,61.5936, 108.941,61.5951, 108.95,76.2298, 95.0007,76.1309" />
  <polygon fill="#000000" points="96.7197,61.5938, 108.942,63.3805, 107.248,76.2177, 95.0032,74.3573" />
  <polygon fill="#FFFFFF" points="98.3324,61.8295, 108.719,65.0744, 105.633,75.9722, 95.2297,72.6732" />
  <polygon fill="#000000" points="99.8063,62.29, 108.281,66.6208, 104.156,75.5041, 95.67,71.1345" />
  <polygon fill="#FFFFFF" points="101.093,62.9476, 107.655,67.9697, 102.868,74.8406, 96.2981,69.7914" />
  <polygon fill="#000000" points="97.0739,68.6841, 102.155,63.7602, 106.88,69.0814, 101.805,74.0236" />
  <polygon fill="#FFFFFF" points="97.9466,67.8384, 102.966,64.6741, 106.008,69.9303, 100.992,73.1066" />
  <polygon fill="#000000" points="98.8587,67.2635, 103.519,65.6291, 105.097,70.5074, 100.439,72.1493" />
  <polygon fill="#FFFFFF" points="99.7518,66.9502, 103.822,66.5641, 104.204,70.8221, 100.136,71.213" />
  <!-- Shape 6 -->
  <polygon fill="#000000" points="108.941,61.5951, 117.496,61.596, 117.463,70.73, 108.947,70.5848" />
  <polygon fill="#FFFFFF" points="108.942,62.9435, 116.213,61.5959, 117.468,69.3599, 110.224,70.6066" />
  <polygon fill="#000000" points="109.153,64.2068, 115.015,61.818, 117.261,68.08, 111.418,70.4011" />
  <polygon fill="#FFFFFF" points="109.56,65.3199, 113.961,62.2473, 116.857,66.9548, 112.468,69.984" />
  <polygon fill="#000000" points="113.105,62.8451, 116.294,66.0389, 113.322,69.3947, 110.126,66.2273" />
  <polygon fill="#FFFFFF" points="112.481,63.5533, 115.626,65.3701, 113.944,68.692, 110.795,66.8906" />
  <polygon fill="#000000" points="112.103,64.3017, 114.921,64.9627, 114.321,67.947, 111.502,67.2945" />
  <polygon fill="#FFFFFF" points="111.959,65.0173, 114.247,64.8047, 114.465,67.2335, 112.176,67.4505" />
  <!-- Shape 7 -->
  <polygon fill="#FFFFFF" points="112.529,70.6459, 117.463,70.73, 117.442,76.29, 112.502,76.255" />
  <polygon fill="#000000" points="113.511,70.6626, 117.458,71.8365, 116.459,76.283, 112.507,75.1388" />
  <polygon fill="#FFFFFF" points="114.351,70.9126, 117.246,72.7834, 115.617,76.0394, 112.721,74.1856" />
  <polygon fill="#000000" points="113.091,73.4429, 115.008,71.3371, 116.876,73.5222, 114.96,75.6187" />
  <polygon fill="#FFFFFF" points="113.553,72.9358, 115.458,71.8634, 116.415,74.0271, 114.51,75.0947" />
  <polygon fill="#000000" points="114.038,72.6625, 115.702,72.4147, 115.929,74.2991, 114.266,74.5446" />
  <polygon fill="#FFFFFF" points="114.485,72.5959, 115.763,72.9211, 115.482,74.3651, 114.205,74.0388" />
  <!-- Shape 8 -->
  <polygon fill="#FFFFFF" points="108.947,70.5848, 112.529,70.6459, 112.518,72.8635, 108.948,72.8652" />
  <polygon fill="#000000" points="109.66,70.597, 112.527,71.0872, 111.808,72.8638, 108.948,72.4114" />
  <polygon fill="#FFFFFF" points="110.272,70.7018, 112.373,71.467, 111.196,72.7671, 109.1,72.0235" />
  <polygon fill="#000000" points="109.368,71.7215, 110.752,70.8766, 112.104,71.764, 110.717,72.5972" />
  <polygon fill="#FFFFFF" points="109.705,71.516, 111.081,71.0925, 111.767,71.9667, 110.389,72.3842" />
  <polygon fill="#000000" points="110.06,71.4067, 111.258,71.318, 111.411,72.0744, 110.213,72.1602" />
  <polygon fill="#FFFFFF" points="110.387,71.3825, 111.3,71.5243, 111.084,72.0978, 110.171,71.9547" />
  <!-- Shape 9 -->
  <polygon fill="#000000" points="108.948,72.8652, 112.518,72.8635, 112.502,76.255, 108.95,76.2298" />
  <polygon fill="#FFFFFF" points="108.949,73.7231, 111.608,72.8639, 112.506,75.3902, 109.856,76.2362" />
  <polygon fill="#000000" points="109.191,74.3954, 110.896,73.0938, 112.266,74.7144, 110.565,76.0099" />
  <polygon fill="#FFFFFF" points="110.419,73.4582, 111.882,74.2606, 111.041,75.6472, 109.576,74.8475" />
  <polygon fill="#000000" points="110.172,73.8646, 111.454,74.0259, 111.287,75.2416, 110.004,75.0814" />
  <polygon fill="#FFFFFF" points="110.121,74.2357, 111.063,73.9767, 111.338,74.8708, 110.396,75.1302" />
</svg>
