<?xml version="1.0" standalone="no"?>
<!DOCTYPE svg PUBLIC "-//W3C//DTD SVG 1.1//EN" "http://www.w3.org/Graphics/SVG/1.1/DTD/svg11.dtd">
<svg viewBox="0, 0, 900, 240" xmlns="http://www.w3.org/2000/svg" version="1.1">
  <!-- Shape 1 -->
  <polygon fill="#000000" points="0,81.6598, 109.948,184.639, 86.9707,240, 0,240" />
  <polygon fill="#FFFFFF" points="0,89.1809, 104.726,179.748, 88.0621,237.37, 4.13111,240" />
  <polygon fill="#000000" points="0.231755,97.6419, 98.8508,174.667, 88.997,234.138, 8.83964,239.852" />
  <polygon fill="#FFFFFF" points="0.788685,106.843, 92.4701,169.684, 89.6345,230.29, 14.0258,239.483" />
  <polygon fill="#000000" points="1.75897,116.565, 85.7499,165.077, 89.8424,225.848, 19.5679,238.809" />
  <polygon fill="#FFFFFF" points="3.21752,126.577, 78.871,161.104, 89.5072,220.87, 25.3234,237.747" />
  <polygon fill="#000000" points="5.2181,136.638, 72.0244,157.979, 88.5446,215.462, 31.132,236.22" />
  <polygon fill="#FFFFFF" points="7.78618,146.507, 65.4039,155.865, 86.9074,209.765, 36.8216,234.163" />
  <polygon fill="#000000" points="10.9133,155.947, 59.1984,154.857, 84.5915,203.96, 42.2159,231.535" />
  <polygon fill="#FFFFFF" points="14.5538,164.738, 53.5829,154.984, 81.6383,198.249, 47.1442,228.328" />
  <polygon fill="#000000" points="18.6243,172.68, 48.7081,156.202, 78.1342,192.845, 51.4525,224.571" />
  <polygon fill="#FFFFFF" points="23.0069,179.608, 44.692,158.402, 74.2058,187.954, 55.0145,220.336" />
  <polygon fill="#000000" points="27.5552,185.395, 41.6105,161.415, 70.0119,183.754, 57.7416,215.734" />
  <polygon fill="#FFFFFF" points="39.4924,165.029, 65.7318,180.388, 59.5907,210.915, 32.1043,189.967" />
  <polygon fill="#000000" points="38.3154,169.002, 61.5519,177.941, 60.569,206.052, 36.4828,193.304" />
  <polygon fill="#FFFFFF" points="38.0077,173.082, 57.6505,176.44, 60.734,201.332, 40.5269,195.445" />
  <polygon fill="#000000" points="38.4524,177.029, 54.1835,175.847, 60.1898,196.939, 44.0935,196.484" />
  <polygon fill="#FFFFFF" points="39.4965,180.63, 51.2717,176.066, 59.078,193.035, 47.0729,196.568" />
  <polygon fill="#000000" points="40.9641,183.717, 48.9908,176.95, 57.5659,189.748, 49.3983,195.884" />
  <polygon fill="#FFFFFF" points="42.6703,186.179, 47.367,178.319, 55.8312,187.159, 51.0506,194.642" />
  <polygon fill="#000000" points="46.3765,179.977, 54.0461,185.295, 52.0588,193.064, 44.4377,187.964" />
  <polygon fill="#FFFFFF" points="45.9509,181.73, 52.3626,184.127, 52.495,191.359, 46.1105,189.083" />
  <polygon fill="#000000" points="45.9873,183.407, 50.9001,183.58, 52.4648,189.709, 47.5668,189.602" />
  <polygon fill="#FFFFFF" points="46.3612,184.874, 49.7373,183.539, 52.0945,188.259, 48.7262,189.628" />
  <!-- Shape 2 -->
  <polygon fill="#FFFFFF" points="109.948,184.639, 169.055,240, 86.9707,240" />
  <polygon fill="#000000" points="115.859,190.175, 160.847,240, 89.2685,234.464" />
  <polygon fill="#FFFFFF" points="120.756,195.599, 153.056,239.397, 92.1629,229.643" />
  <polygon fill="#000000" points="124.558,200.754, 145.889,238.249, 95.5283,225.636" />
  <polygon fill="#FFFFFF" points="127.257,205.499, 139.515,236.653, 99.2019,222.487" />
  <polygon fill="#000000" points="103.001,220.187, 128.917,209.717, 134.057,234.735" />
  <polygon fill="#FFFFFF" points="106.739,218.677, 129.658,213.326, 129.577,232.637" />
  <polygon fill="#000000" points="110.248,217.858, 129.646,216.283, 126.081,230.499" />
  <polygon fill="#FFFFFF" points="113.389,217.603, 129.069,218.585, 123.517,228.452" />
  <polygon fill="#000000" points="116.067,217.77, 128.12,220.27, 121.787,226.599" />
  <polygon fill="#FFFFFF" points="118.233,218.219, 126.982,221.407, 120.759,225.013" />
  <polygon fill="#000000" points="119.882,218.82, 125.809,222.087, 120.283,223.732" />
  <polygon fill="#FFFFFF" points="121.052,219.465, 124.719,222.412, 120.204,222.763" />
  <!-- Shape 3 -->
  <polygon fill="#000000" points="0,0, 105.537,0, 107.132,66.7292, 42.931,121.87, 0,81.6598" />
  <polygon fill="#FFFFFF" points="10.5537,0, 105.697,6.67292, 100.712,72.2433, 38.6379,117.849, 0,73.4938" />
  <polygon fill="#000000" points="20.9101,0.726348, 105.154,13.8103, 93.9548,77.2074, 34.4322,113.021, 1.14878,65.494" />
  <polygon fill="#FFFFFF" points="30.8256,2.26632, 103.836,21.2721, 86.949,81.4227, 30.5147,107.427, 3.47468,57.8708" />
  <polygon fill="#000000" points="6.93594,50.8341, 40.0651,4.67151, 101.699,28.8842, 79.8073,84.7135, 27.0928,101.155" />
  <polygon fill="#FFFFFF" points="11.4216,44.5837, 48.4103,7.9499, 98.7349,36.4435, 72.6697,86.9397, 24.3636,94.342" />
  <polygon fill="#000000" points="16.7572,39.2992, 55.6696,12.0601, 94.975,43.7275, 65.7016,88.0075, 22.4967,87.1643" />
  <polygon fill="#FFFFFF" points="22.7147,35.1289, 61.6873,16.9084, 90.4932,50.5068, 59.0869,87.8784, 21.618,79.8362" />
  <polygon fill="#000000" points="29.0263,32.1781, 66.3524,22.3496, 85.407,56.5591, 53.0188,86.576, 21.7956,72.5958" />
  <polygon fill="#FFFFFF" points="35.4016,30.4994, 69.6069,28.1926, 79.8751,61.686, 47.6859,84.1882, 23.0306,65.6925" />
  <polygon fill="#000000" points="41.5466,30.085, 71.4516,34.2097, 74.0923,65.7285, 43.2566,80.8654, 25.2531,59.3701" />
  <polygon fill="#FFFFFF" points="28.3244,53.8498, 47.1837,30.8625, 71.9494,40.151, 68.2797,68.5818, 39.8629,76.8135" />
  <polygon fill="#000000" points="32.0463,49.3133, 52.0712,32.6956, 71.2252,45.7618, 62.6717,70.2064, 37.5858,72.2817" />
  <polygon fill="#FFFFFF" points="36.1754,45.8867, 56.0207,35.3899, 69.4614,50.8023, 57.499,70.6343, 36.4435,67.5456" />
  <polygon fill="#000000" points="40.4432,43.6294, 58.9112,38.7043, 66.8889,55.0672, 52.971,69.9701, 36.3859,62.8878" />
  <polygon fill="#FFFFFF" points="44.5781,42.5266, 60.6974,42.3679, 63.7727,58.4039, 49.2576,68.3844, 37.2943,58.5759" />
  <polygon fill="#000000" points="48.3299,42.4897, 61.4132,46.1003, 60.3943,60.7269, 46.4731,66.1014, 38.9896,54.8404" />
  <polygon fill="#FFFFFF" points="41.2462,51.8565, 51.4908,43.362, 61.167,49.6341, 57.0309,62.0254, 44.6651,63.3808" />
  <polygon fill="#000000" points="43.812,49.729, 53.9142,44.9329, 60.1311,52.7375, 53.9339,62.3648, 43.8089,60.4945" />
  <polygon fill="#FFFFFF" points="46.4315,48.4854, 55.5263,46.9566, 58.5242,55.2339, 51.3085,61.8798, 43.8097,57.703" />
  <polygon fill="#000000" points="48.8703,48.0754, 56.3302,49.1761, 56.5893,57.016, 49.2977,60.7598, 44.5127,55.2313" />
  <polygon fill="#FFFFFF" points="45.7197,53.2491, 50.9366,48.3803, 56.4019,51.3478, 54.5695,58.053, 47.9722,59.2284" />
  <polygon fill="#000000" points="47.211,51.8574, 52.4989,49.2286, 55.8781,53.2645, 52.6837,58.389, 47.3284,57.5193" />
  <polygon fill="#FFFFFF" points="48.7693,51.0827, 53.4948,50.418, 54.9367,54.7747, 51.1055,58.1327, 47.2938,55.8507" />
  <!-- Shape 4 -->
  <polygon fill="#FFFFFF" points="42.931,121.87, 107.132,66.7292, 109.948,184.639" />
  <polygon fill="#000000" points="100.712,72.2433, 109.667,172.848, 49.6328,128.147" />
  <polygon fill="#FFFFFF" points="95.1491,78.3312, 108.692,161.892, 56.1705,133.015" />
  <polygon fill="#000000" points="90.5574,84.7729, 107.096,152.049, 62.3575,136.417" />
  <polygon fill="#FFFFFF" points="86.9845,91.3161, 105.001,143.525, 68.0259,138.397" />
  <polygon fill="#000000" points="84.4137,97.7003, 102.558,136.446, 73.0397,139.092" />
  <polygon fill="#FFFFFF" points="82.7701,103.681, 99.9359,130.847, 77.305,138.71" />
  <!-- Shape 5 -->
  <polygon fill="#FFFFFF" points="105.537,0, 181.759,0, 107.132,66.7292" />
  <polygon fill="#000000" points="105.697,6.67292, 174.137,0, 114.594,60.0563" />
  <polygon fill="#FFFFFF" points="106.664,12.4784, 166.694,0.725681, 121.07,53.5252" />
  <polygon fill="#000000" points="108.357,17.3014, 159.64,2.10662, 126.43,47.3213" />
  <polygon fill="#FFFFFF" points="110.639,21.0914, 153.166,4.02496, 130.623,41.6129" />
  <polygon fill="#000000" points="147.425,6.32893, 133.666,36.5385, 113.337,23.8618" />
  <polygon fill="#FFFFFF" points="142.525,8.84927, 135.644,32.1959, 116.259,25.6841" />
  <polygon fill="#000000" points="138.519,11.4166, 136.694,28.6355, 119.215,26.6771" />
  <polygon fill="#FFFFFF" points="135.406,13.8773, 136.988,25.859, 122.034,26.9929" />
  <polygon fill="#000000" points="133.133,16.107, 136.719,23.8221, 124.576,26.8001" />
  <polygon fill="#FFFFFF" points="131.603,18.0184, 136.078,22.443, 126.747,26.2678" />
  <!-- Shape 6 -->
  <polygon fill="#000000" points="107.132,66.7292, 181.759,0, 280.456,0, 109.948,184.639" />
  <polygon fill="#FFFFFF" points="110.676,63.5596, 186.447,0, 272.357,8.77037, 109.815,179.039" />
  <polygon fill="#000000" points="114.927,59.9939, 191.267,0.492018, 263.238,18.3224, 109.863,172.56" />
  <polygon fill="#FFFFFF" points="119.866,56.1441, 195.923,1.64564, 253.315,28.3016, 110.191,165.277" />
  <polygon fill="#000000" points="125.441,52.1494, 200.13,3.59953, 242.824,38.3419, 110.9,157.278" />
  <polygon fill="#FFFFFF" points="131.558,48.1732, 203.627,6.44493, 232.019,48.0828, 112.091,148.668" />
  <polygon fill="#000000" points="138.08,44.3968, 206.196,10.2132, 221.166,57.1857, 113.853,139.573" />
  <polygon fill="#FFFFFF" points="144.831,41.0092, 207.68,14.8681, 210.531,65.3503, 116.254,130.141" />
  <polygon fill="#000000" points="151.6,38.1938, 207.987,20.3051, 200.377,72.3283, 119.331,120.542" />
  <polygon fill="#FFFFFF" points="158.157,36.1133, 207.102,26.3554, 190.952,77.9355, 123.084,110.964" />
  <polygon fill="#000000" points="164.271,34.8945, 205.085,32.7977, 182.475,82.0608, 127.465,101.616" />
  <polygon fill="#FFFFFF" points="169.719,34.6146, 202.066,39.3743, 175.131,84.6714, 132.378,92.7083" />
  <polygon fill="#000000" points="174.316,35.291, 198.239,45.811, 169.056,85.8134, 137.684,84.4532" />
  <polygon fill="#FFFFFF" points="177.921,36.8764, 193.841,51.8394, 164.328,85.6084, 143.205,77.0445" />
  <polygon fill="#000000" points="180.457,39.26, 189.14,57.2188, 160.963,84.2442, 148.735,70.6457" />
  <polygon fill="#FFFFFF" points="181.915,42.2753, 184.409,61.7564, 158.91,81.961, 154.061,65.376" />
  <polygon fill="#000000" points="158.977,61.2987, 182.355,45.7137, 179.908,65.3225, 158.054,79.0337" />
  <polygon fill="#FFFFFF" points="163.305,58.4139, 181.902,49.3433, 175.863,67.8604, 158.225,75.751" />
  <polygon fill="#000000" points="166.907,56.6569, 180.732,52.93, 172.447,69.3888, 159.209,72.3928" />
  <polygon fill="#FFFFFF" points="169.704,55.903, 179.056,56.2597, 169.769,69.9965, 160.766,69.2094" />
  <polygon fill="#000000" points="171.676,55.9782, 177.097,59.1568, 167.87,69.8305, 162.651,66.4031" />
  <polygon fill="#FFFFFF" points="172.866,56.6759, 175.072,61.4997, 166.725,69.0782, 164.632,64.1148" />
  <polygon fill="#000000" points="166.51,62.418, 173.369,57.7762, 173.168,63.2283, 166.247,67.9461" />
  <polygon fill="#FFFFFF" points="168.134,61.3193, 173.322,59.0667, 171.53,64.345, 166.31,66.6376" />
  <!-- Shape 7 -->
  <polygon fill="#FFFFFF" points="280.456,0, 278.502,240, 169.055,240, 109.948,184.639" />
  <polygon fill="#000000" points="272.357,8.77037, 278.594,228.6, 174.254,240, 112.756,187.269" />
  <polygon fill="#FFFFFF" points="263.403,18.7841, 278.245,216.268, 180.108,239.36, 116.206,190.227" />
  <polygon fill="#000000" points="253.88,29.8765, 277.284,203.49, 186.457,237.866, 120.34,193.406" />
  <polygon fill="#FFFFFF" points="244.091,41.8632, 275.569,190.764, 193.115,235.347, 125.187,196.665" />
  <polygon fill="#000000" points="234.353,54.5415, 272.991,178.569, 199.868,231.695, 130.75,199.833" />
  <polygon fill="#FFFFFF" points="224.977,67.6904, 269.494,167.345, 206.485,226.887, 137.005,202.717" />
  <polygon fill="#000000" points="216.259,81.0715, 265.082,157.469, 212.729,220.987, 143.891,205.112" />
  <polygon fill="#FFFFFF" points="208.465,94.4307, 259.824,149.241, 218.368,214.146, 151.305,206.822" />
  <polygon fill="#000000" points="201.817,107.502, 253.851,142.867, 223.189,206.597, 159.104,207.673" />
  <polygon fill="#FFFFFF" points="196.482,120.013, 247.352,138.45, 227.019,198.638, 167.108,207.539" />
  <!-- Shape 8 -->
  <polygon fill="#FFFFFF" points="280.456,0, 369.381,0, 440.946,77.0888, 278.502,240" />
  <polygon fill="#000000" points="284.68,0, 372.78,3.66172, 433.229,84.827, 278.594,228.6" />
  <polygon fill="#FFFFFF" points="289.653,0.206704, 376.193,8.2435, 424.5,92.943, 278.938,215.696" />
  <polygon fill="#000000" points="295.313,0.73231, 379.352,13.7828, 414.981,100.971, 279.639,201.603" />
  <polygon fill="#FFFFFF" points="301.561,1.70262, 382.001,20.2653, 404.918,108.453, 280.804,186.668" />
  <polygon fill="#000000" points="308.262,3.24889, 383.91,27.6113, 394.579,114.968, 282.533,171.26" />
  <polygon fill="#FFFFFF" points="315.24,5.49632, 384.894,35.67, 384.243,120.161, 284.907,155.761" />
  <polygon fill="#000000" points="322.289,8.5499, 384.828,44.2205, 374.19,123.764, 287.976,140.554" />
  <polygon fill="#FFFFFF" points="329.178,12.479, 383.657,52.9822, 364.694,125.613, 291.756,126.014" />
  <polygon fill="#000000" points="335.666,17.3029, 381.398,61.6326, 356.007,125.661, 296.213,112.492" />
  <polygon fill="#FFFFFF" points="341.522,22.9794, 378.147,69.8315, 348.35,123.975, 301.265,100.303" />
  <polygon fill="#000000" points="346.54,29.3981, 374.065,77.2491, 341.9,120.732, 306.78,89.7098" />
  <polygon fill="#FFFFFF" points="350.557,36.3819, 369.37,83.5954, 336.774,116.204, 312.583,80.9073" />
  <polygon fill="#000000" points="318.465,74.0103, 353.471,43.6953, 364.321,88.6465, 333.027,110.737" />
  <polygon fill="#FFFFFF" points="324.201,69.0432, 355.249,51.0606, 359.193,92.266, 330.641,104.719" />
  <polygon fill="#000000" points="329.566,65.9358, 355.931,58.1809, 354.26,94.4179, 329.528,98.5543" />
  <polygon fill="#FFFFFF" points="334.358,64.5263, 355.627,64.7669, 349.765,95.1696, 329.535,92.6258" />
  <!-- Shape 9 -->
  <polygon fill="#000000" points="440.946,77.0888, 592.182,240, 278.502,240" />
  <polygon fill="#FFFFFF" points="433.229,84.827, 584.999,232.262, 293.401,240" />
  <polygon fill="#000000" points="425.455,93.4547, 576.56,224.064, 309.614,239.57" />
  <polygon fill="#FFFFFF" points="418.076,102.762, 566.935,215.745, 326.619,238.582" />
  <polygon fill="#000000" points="411.509,112.514, 556.247,207.632, 343.873,236.942" />
  <polygon fill="#FFFFFF" points="406.105,122.456, 544.682,200.032, 360.842,234.6" />
  <polygon fill="#000000" points="402.122,132.325, 532.488,193.206, 377.02,231.558" />
  <polygon fill="#FFFFFF" points="399.71,141.861, 519.959,187.355, 391.96,227.873" />
  <polygon fill="#000000" points="398.902,150.823, 507.429,182.615, 405.298,223.651" />
  <polygon fill="#FFFFFF" points="399.621,159.002, 495.242,179.044, 416.767,219.042" />
  <polygon fill="#000000" points="401.685,166.231, 483.729,176.631, 426.216,214.227" />
  <polygon fill="#FFFFFF" points="404.837,172.398, 473.186,175.295, 433.606,209.396" />
  <polygon fill="#000000" points="408.767,177.452, 463.85,174.899, 439.013,204.737" />
  <polygon fill="#FFFFFF" points="413.144,181.4, 455.879,175.269, 442.607,200.42" />
  <polygon fill="#000000" points="417.646,184.306, 449.349,176.205, 444.635,196.577" />
  <polygon fill="#FFFFFF" points="444.248,177.509, 445.393,193.299, 421.988,186.281" />
  <polygon fill="#000000" points="440.486,178.991, 445.2,190.631, 425.944,187.467" />
  <polygon fill="#FFFFFF" points="437.911,180.492, 444.365,188.569, 429.354,188.027" />
  <polygon fill="#000000" points="436.326,181.888, 443.17,187.073, 432.134,188.128" />
  <polygon fill="#FFFFFF" points="435.516,183.094, 441.847,186.071, 434.267,187.924" />
  <!-- Shape 10 -->
  <polygon fill="#000000" points="369.381,0, 488.599,0, 487.609,46.7976, 440.946,77.0888" />
  <polygon fill="#FFFFFF" points="376.538,7.70888, 476.678,0, 487.708,42.1178, 445.612,74.0596" />
  <polygon fill="#000000" points="384.036,14.9113, 465.807,0.836798, 486.511,37.546, 450.182,70.5924" />
  <polygon fill="#FFFFFF" points="391.781,21.4315, 456.232,2.48492, 484.087,33.2473, 454.436,66.7226" />
  <polygon fill="#000000" points="399.654,27.1223, 448.134,4.86556, 480.587,29.382, 458.161,62.5164" />
  <polygon fill="#FFFFFF" points="441.628,7.85242, 476.231,26.0919, 461.171,58.0698, 407.506,31.8722" />
  <polygon fill="#000000" points="436.757,11.2812, 471.292,23.4882, 463.321,53.505, 415.166,35.6119" />
  <polygon fill="#FFFFFF" points="433.49,14.9625, 466.067,21.6413, 464.527,48.9634, 422.452,38.3191" />
  <polygon fill="#000000" points="431.726,18.696, 460.859,20.5737, 464.773,44.596, 429.178,40.0206" />
  <polygon fill="#FFFFFF" points="431.297,22.2871, 455.953,20.2575, 464.114,40.5506, 435.172,40.7911" />
  <polygon fill="#000000" points="431.982,25.5614, 451.59,20.6166, 462.67,36.9598, 440.293,40.7486" />
  <polygon fill="#FFFFFF" points="433.524,28.3786, 447.953,21.5339, 460.615,33.9281, 444.444,40.0457" />
  <polygon fill="#000000" points="435.643,30.6426, 445.153,22.8621, 458.158,31.523, 447.582,38.8586" />
  <polygon fill="#FFFFFF" points="443.226,24.4384, 455.523,29.7683, 449.725,37.3724, 438.062,32.3072" />
  <polygon fill="#000000" points="442.136,26.0999, 452.926,28.6429, 450.949,35.7668, 440.524,33.3767" />
  <polygon fill="#FFFFFF" points="441.782,27.6986, 450.556,28.0842, 451.383,34.2017, 442.815,33.9018" />
  <polygon fill="#000000" points="442.018,29.1145, 448.553,27.9962, 451.194,32.8054, 444.77,33.9703" />
  <polygon fill="#FFFFFF" points="442.669,30.2644, 447.005,28.261, 450.569,31.6666, 446.292,33.6944" />
  <!-- Shape 11 -->
  <polygon fill="#FFFFFF" points="440.946,77.0888, 487.609,46.7976, 485.943,125.56" />
  <polygon fill="#000000" points="445.612,74.0596, 487.443,54.6738, 481.443,120.713" />
  <polygon fill="#FFFFFF" points="450.176,71.9446, 486.788,61.8787, 477.534,115.623" />
  <polygon fill="#000000" points="454.503,70.7548, 485.694,68.2312, 474.3,110.46" />
  <polygon fill="#FFFFFF" points="458.474,70.4336, 484.244,73.607, 471.78,105.406" />
  <polygon fill="#000000" points="461.989,70.8664, 482.544,77.9443, 469.965,100.635" />
  <polygon fill="#FFFFFF" points="464.98,71.8963, 480.714,81.2459, 468.805,96.304" />
  <polygon fill="#000000" points="467.412,73.3417, 478.873,83.5739, 468.213,92.5306" />
  <polygon fill="#FFFFFF" points="469.288,75.0167, 477.128,85.0401, 468.082,89.3894" />
  <polygon fill="#000000" points="470.643,76.7488, 475.565,85.7916, 468.291,86.9058" />
  <polygon fill="#FFFFFF" points="471.538,78.3937, 474.241,85.9943, 468.718,85.0582" />
  <!-- Shape 12 -->
  <polygon fill="#FFFFFF" points="485.943,125.56, 533.482,75.0545, 592.705,111.535, 592.182,240" />
  <polygon fill="#000000" points="490.697,120.509, 539.405,78.7026, 592.653,124.381, 581.558,228.556" />
  <polygon fill="#FFFFFF" points="496.006,115.952, 545.209,83.6816, 591.444,135.736, 571.655,216.779" />
  <polygon fill="#000000" points="501.812,112.144, 550.665,89.824, 589.109,145.299, 562.728,204.881" />
  <polygon fill="#FFFFFF" points="508.016,109.31, 555.547,96.8694, 585.758,152.866, 554.992,193.104" />
  <polygon fill="#000000" points="514.481,107.618, 559.656,104.485, 581.574,158.339, 548.603,181.708" />
  <polygon fill="#FFFFFF" points="521.031,107.164, 562.834,112.294, 576.793,161.727, 543.655,170.965" />
  <polygon fill="#000000" points="527.469,107.954, 564.984,119.907, 571.69,163.15, 540.171,161.139" />
  <polygon fill="#FFFFFF" points="533.584,109.902, 566.077,126.955, 566.552,162.822, 538.101,152.47" />
  <polygon fill="#000000" points="539.172,112.835, 566.159,133.124, 561.659,161.042, 537.324,145.148" />
  <polygon fill="#FFFFFF" points="544.057,116.507, 565.344,138.177, 557.254,158.165, 537.658,139.3" />
  <polygon fill="#000000" points="538.874,134.969, 548.101,120.625, 563.807,141.975, 553.531,154.58" />
  <polygon fill="#FFFFFF" points="540.71,132.115, 551.227,124.873, 561.762,144.483, 550.614,150.678" />
  <polygon fill="#000000" points="542.898,130.608, 553.418,128.952, 559.443,145.772, 548.554,146.817" />
  <polygon fill="#FFFFFF" points="545.181,130.249, 554.726,132.602, 557.08,145.999, 547.327,143.299" />
  <polygon fill="#000000" points="547.338,130.781, 555.258,135.63, 554.876,145.389, 546.842,140.35" />
  <polygon fill="#FFFFFF" points="549.199,131.92, 555.168,137.923, 552.988,144.205, 546.958,138.101" />
  <!-- Shape 13 -->
  <polygon fill="#000000" points="487.609,46.7976, 533.482,75.0545, 485.943,125.56" />
  <polygon fill="#FFFFFF" points="487.443,54.6738, 528.895,72.2289, 490.697,120.509" />
  <polygon fill="#000000" points="487.797,61.8334, 524.387,70.3197, 494.851,115.259" />
  <polygon fill="#FFFFFF" points="488.626,68.1109, 520.088,69.3226, 498.322,109.978" />
  <polygon fill="#000000" points="489.85,73.3967, 516.116,69.1696, 501.07,104.846" />
  <polygon fill="#FFFFFF" points="491.364,77.6423, 512.57,69.7403, 503.101,100.029" />
  <polygon fill="#000000" points="493.051,80.8604, 509.521,70.8762, 504.462,95.6753" />
  <polygon fill="#FFFFFF" points="507.01,72.3988, 505.234,91.8935, 494.792,83.1197" />
  <polygon fill="#000000" points="505.04,74.1275, 505.52,88.7499, 496.475,84.5345" />
  <polygon fill="#FFFFFF" points="503.584,75.8967, 505.438,86.2641, 498.013,85.2511" />
  <polygon fill="#000000" points="502.588,77.5688, 505.107,84.411, 499.34,85.4322" />
  <polygon fill="#FFFFFF" points="501.979,79.0432, 504.634,83.1281, 500.421,85.2407" />
  <!-- Shape 14 -->
  <polygon fill="#FFFFFF" points="488.599,0, 593.16,0, 533.482,75.0545, 487.609,46.7976" />
  <polygon fill="#000000" points="499.055,0, 587.192,7.50545, 528.895,72.2289, 487.708,42.1178" />
  <polygon fill="#FFFFFF" points="508.609,0.813591, 580.873,14.5215, 524.43,68.9648, 488.938,37.5523" />
  <polygon fill="#000000" points="517.05,2.41467, 574.28,20.8805, 520.285,65.2958, 491.236,33.2612" />
  <polygon fill="#FFFFFF" points="494.468,29.3992, 524.215,4.72659, 567.52,26.4413, 516.648,61.2851" />
  <polygon fill="#000000" points="498.442,26.1029, 530,7.62767, 560.723,31.0964, 513.685,57.0251" />
  <polygon fill="#FFFFFF" points="502.923,23.4795, 534.363,10.9602, 554.044,34.7783, 511.52,52.6342" />
  <polygon fill="#000000" points="507.652,21.5966, 537.323,14.5425, 547.648,37.4638, 510.227,48.2493" />
  <polygon fill="#FFFFFF" points="512.364,20.4764, 538.963,18.1824, 541.706,39.1765, 509.818,44.0169" />
  <polygon fill="#000000" points="516.811,20.0928, 539.421,21.6926, 536.374,39.9858, 510.244,40.0809" />
  <polygon fill="#FFFFFF" points="520.781,20.3737, 538.886,24.9049, 531.786,40.0025, 511.397,36.571" />
  <polygon fill="#000000" points="524.113,21.2075, 537.58,27.6829, 528.034,39.3711, 513.124,33.5907" />
  <polygon fill="#FFFFFF" points="526.704,22.4533, 535.743,29.9317, 525.166,38.259, 515.238,31.2082" />
  <polygon fill="#000000" points="517.54,29.4502, 528.519,23.955, 533.619,31.6038, 523.172,36.8432" />
  <polygon fill="#FFFFFF" points="519.837,28.3006, 529.586,25.5551, 531.434,32.6999, 521.994,35.2966" />
  <polygon fill="#000000" points="521.958,27.7032, 529.988,27.1098, 529.38,33.2649, 521.525,33.7742" />
  <polygon fill="#FFFFFF" points="523.773,27.5691, 529.851,28.5009, 527.604,33.38, 521.623,32.4022" />
  <polygon fill="#000000" points="525.198,27.7875, 529.324,29.6445, 526.202,33.1508, 522.127,31.2693" />
  <polygon fill="#FFFFFF" points="522.872,30.4239, 526.2,28.2384, 528.566,30.4959, 525.213,32.694" />
  <!-- Shape 15 -->
  <polygon fill="#000000" points="593.16,0, 592.705,111.535, 533.482,75.0545" />
  <polygon fill="#FFFFFF" points="593.114,11.1535, 586.783,107.887, 539.45,67.5491" />
  <polygon fill="#000000" points="545.291,61.4104, 592.425,21.6829, 581.631,103.496" />
  <polygon fill="#FFFFFF" points="550.839,56.7345, 591.155,31.3123, 577.354,98.5426" />
  <polygon fill="#000000" points="555.941,53.5173, 589.408,39.8203, 573.998,93.2518" />
  <polygon fill="#FFFFFF" points="560.472,51.6627, 587.322,47.0549, 571.553,87.8717" />
  <polygon fill="#000000" points="564.345,50.9981, 585.047,52.9428, 569.955,82.6486" />
  <polygon fill="#FFFFFF" points="567.515,51.2958, 582.736,57.4907, 569.096,77.8029" />
  <polygon fill="#000000" points="569.98,52.2991, 580.527,60.7803, 568.84,73.5101" />
  <polygon fill="#FFFFFF" points="571.781,53.7477, 578.531,62.9545, 569.035,69.8872" />
  <polygon fill="#000000" points="572.994,55.4017, 576.825,64.2, 569.528,66.9878" />
  <polygon fill="#FFFFFF" points="573.716,57.0601, 575.45,64.7255, 570.182,64.8038" />
  <!-- Shape 16 -->
  <polygon fill="#FFFFFF" points="593.16,0, 728.013,0, 592.705,111.535" />
  <polygon fill="#000000" points="593.138,5.29791, 721.607,0, 599.133,106.237" />
  <polygon fill="#FFFFFF" points="593.474,10.9555, 714.407,0.296948, 605.997,100.282" />
  <polygon fill="#000000" points="594.283,16.7261, 706.595,0.985493, 613.001,93.8233" />
  <polygon fill="#FFFFFF" points="595.652,22.3657, 698.379,2.13691, 619.847,87.0322" />
  <polygon fill="#000000" points="597.629,27.649, 689.986,3.78961, 626.263,80.0963" />
  <polygon fill="#FFFFFF" points="600.213,32.3823, 681.651,5.94292, 632.014,73.2096" />
  <polygon fill="#000000" points="603.355,36.4161, 673.605,8.55513, 636.918,66.5637" />
  <polygon fill="#FFFFFF" points="666.064,11.546, 640.856,60.3364, 606.958,39.6524" />
  <polygon fill="#000000" points="659.213,14.8035, 643.778,54.6816, 610.887,42.0497" />
  <polygon fill="#FFFFFF" points="653.199,18.1943, 645.699,49.7188, 614.98,43.6217" />
  <polygon fill="#000000" points="648.116,21.5762, 646.696,45.526, 619.066,44.4326" />
  <polygon fill="#FFFFFF" points="644.004,24.8115, 646.897,42.1359, 622.977,44.5874" />
  <polygon fill="#000000" points="640.848,27.7799, 646.463,39.5355, 626.567,44.2194" />
  <polygon fill="#FFFFFF" points="638.582,30.388, 645.572,37.6705, 629.724,43.4763" />
  <!-- Shape 17 -->
  <polygon fill="#000000" points="592.705,111.535, 778.827,240, 592.182,240" />
  <polygon fill="#FFFFFF" points="592.681,117.637, 769.987,233.898, 601.048,240" />
  <polygon fill="#000000" points="593.15,124.502, 760.04,227.376, 610.525,239.658" />
  <polygon fill="#FFFFFF" points="594.274,131.952, 749.242,220.72, 620.199,238.863" />
  <polygon fill="#000000" points="596.175,139.789, 737.883,214.213, 629.658,237.533" />
  <polygon fill="#FFFFFF" points="598.917,147.794, 726.277,208.118, 638.522,235.623" />
  <polygon fill="#000000" points="602.501,155.743, 714.751,202.658, 646.463,233.134" />
  <polygon fill="#FFFFFF" points="606.858,163.412, 703.627,198.009, 653.231,230.114" />
  <polygon fill="#000000" points="611.852,170.596, 693.205,194.283, 658.658,226.656" />
  <polygon fill="#FFFFFF" points="617.296,177.116, 683.744,191.528, 662.676,222.891" />
  <polygon fill="#000000" points="622.964,182.833, 675.444,189.728, 665.307,218.974" />
  <polygon fill="#FFFFFF" points="628.617,187.658, 668.438,188.808, 666.661,215.07" />
  <polygon fill="#000000" points="634.023,191.553, 662.779,188.644, 666.913,211.338" />
  <polygon fill="#FFFFFF" points="638.979,194.535, 658.446,189.082, 666.29,207.918" />
  <polygon fill="#000000" points="643.33,196.667, 655.345,189.951, 665.041,204.917" />
  <polygon fill="#FFFFFF" points="653.327,191.079, 663.413,202.404, 646.975,198.052" />
  <polygon fill="#000000" points="652.206,192.309, 661.633,200.405, 649.876,198.82" />
  <polygon fill="#FFFFFF" points="651.775,193.514, 659.888,198.907, 652.052,199.114" />
  <!-- Shape 18 -->
  <polygon fill="#FFFFFF" points="900,0, 900,240, 778.827,240" />
  <polygon fill="#000000" points="894.244,11.4, 900,228.6, 784.583,240" />
  <polygon fill="#FFFFFF" points="888.142,24.1216, 899.68,216.513, 791.006,239.366" />
  <polygon fill="#000000" points="881.944,37.8542, 898.944,204.238, 797.939,237.908" />
  <polygon fill="#FFFFFF" points="875.9,52.248, 897.72,192.267, 805.207,235.485" />
  <polygon fill="#000000" points="870.238,66.9253, 895.973,181.051, 812.617,232.023" />
  <polygon fill="#FFFFFF" points="865.153,81.4952, 893.702,170.98, 819.973,227.525" />
  <polygon fill="#000000" points="860.797,95.5725, 890.949,162.353, 827.081,222.074" />
  <polygon fill="#FFFFFF" points="857.272,108.798, 887.797,155.372, 833.758,215.83" />
  <polygon fill="#000000" points="854.622,120.861, 884.357,150.123, 839.848,209.017" />
  <polygon fill="#FFFFFF" points="852.837,131.514, 880.763,146.586, 845.227,201.899" />
  <polygon fill="#000000" points="851.855,140.594, 877.161,144.642, 849.811,194.764" />
  <polygon fill="#FFFFFF" points="851.575,148.023, 873.69,144.087, 853.562,187.89" />
  <polygon fill="#000000" points="851.864,153.816, 870.477,144.659, 856.487,181.525" />
  <polygon fill="#FFFFFF" points="852.573,158.068, 867.621,146.064, 858.634,175.868" />
  <polygon fill="#000000" points="865.189,148.004, 860.086,171.052, 853.552,160.944" />
  <polygon fill="#FFFFFF" points="863.214,150.201, 860.952,167.139, 854.662,162.66" />
  <polygon fill="#000000" points="861.692,152.417, 861.355,164.126, 855.781,163.457" />
  <polygon fill="#FFFFFF" points="860.592,154.471, 861.417,161.947, 856.818,163.581" />
  <!-- Shape 19 -->
  <polygon fill="#000000" points="592.705,111.535, 728.013,0, 847.875,103.241, 778.827,240" />
  <polygon fill="#FFFFFF" points="599.133,106.237, 733.706,4.90394, 844.595,109.737, 769.987,233.898" />
  <polygon fill="#000000" points="606.709,100.532, 739.95,10.806, 840.395,116.727, 760.367,226.711" />
  <polygon fill="#FFFFFF" points="615.383,94.6907, 746.489,17.7015, 835.185,123.887, 750.364,218.496" />
  <polygon fill="#000000" points="625.072,89.0012, 753.043,25.5486, 828.917,130.879, 740.389,209.347" />
  <polygon fill="#FFFFFF" points="635.655,83.7537, 759.318,34.2594, 821.596,137.368, 730.852,199.395" />
  <polygon fill="#000000" points="646.97,79.225, 765.016,43.6938, 813.293,143.043, 722.142,188.813" />
  <polygon fill="#FFFFFF" points="658.81,75.6612, 769.858,53.6586, 804.15,147.634, 714.602,177.822" />
  <polygon fill="#000000" points="670.926,73.2607, 773.6,63.9113, 794.381,150.928, 708.515,166.676" />
  <polygon fill="#FFFFFF" points="683.031,72.1584, 776.05,74.1705, 784.257,152.784, 704.083,155.662" />
  <polygon fill="#000000" points="694.816,72.4134, 777.09,84.1309, 774.099,153.149, 701.416,145.082" />
  <polygon fill="#FFFFFF" points="705.964,74.0011, 776.684,93.4829, 764.25,152.056, 700.522,135.236" />
  <!-- Shape 20 -->
  <polygon fill="#FFFFFF" points="728.013,0, 900,0, 847.875,103.241" />
  <polygon fill="#000000" points="736.182,0, 897.524,4.90394, 842.182,98.3368" />
  <polygon fill="#FFFFFF" points="745.226,0.274866, 894.422,10.1408, 836.24,92.825" />
  <polygon fill="#000000" points="754.864,0.912208, 890.664,15.4822, 830.361,86.8463" />
  <polygon fill="#FFFFFF" points="764.797,1.97801, 886.252,20.7025, 824.838,80.5602" />
  <polygon fill="#000000" points="774.72,3.5078, 881.235,25.5929, 819.933,74.14" />
  <polygon fill="#FFFFFF" points="784.333,5.50098, 875.702,29.9743, 815.853,67.7655" />
  <polygon fill="#000000" points="793.361,7.91894, 869.789,33.708, 812.738,61.6137" />
  <polygon fill="#FFFFFF" points="801.565,10.6874, 863.665,36.7037, 810.658,55.8496" />
  <polygon fill="#000000" points="808.763,13.7027, 857.521,38.9227, 809.604,50.6153" />
  <polygon fill="#FFFFFF" points="814.831,16.8413, 851.558,40.3779, 809.5,46.0215" />
  <polygon fill="#000000" points="819.715,19.9717, 845.964,41.1285, 810.209,42.1406" />
  <polygon fill="#FFFFFF" points="823.431,22.9664, 840.903,41.2717, 811.554,39.0026" />
  <polygon fill="#000000" points="826.053,25.7141, 836.498,40.9311, 813.337,36.5955" />
  <polygon fill="#FFFFFF" points="827.71,28.1282, 832.823,40.2433, 815.354,34.8692" />
  <polygon fill="#000000" points="817.42,33.7421, 828.565,30.1539, 829.903,39.3447" />
  <polygon fill="#FFFFFF" points="819.379,33.1115, 828.8,31.7692, 827.709,38.3601" />
</svg>
