<?xml version="1.0" standalone="no"?>
<!DOCTYPE svg PUBLIC "-//W3C//DTD SVG 1.1//EN" "http://www.w3.org/Graphics/SVG/1.1/DTD/svg11.dtd">
<svg viewBox="0, 0, 900, 240" xmlns="http://www.w3.org/2000/svg" version="1.1">
  <!-- Shape 1 -->
  <polygon fill="#000000" points="0,81.6598, 109.948,184.639, 86.9707,240, 0,240" />
  <polygon fill="#FFFFFF" points="0,89.1809, 104.726,179.748, 88.0621,237.37, 4.13111,240" />
  <polygon fill="#000000" points="0.231755,97.6419, 98.8508,174.667, 88.997,234.138, 8.83964,239.852" />
  <polygon fill="#FFFFFF" points="0.788685,106.843, 92.4701,169.684, 89.6345,230.29, 14.0258,239.483" />
  <polygon fill="#000000" points="1.75897,116.565, 85.7499,165.077, 89.8424,225.848, 19.5679,238.809" />
  <polygon fill="#FFFFFF" points="3.21752,126.577, 78.871,161.104, 89.5072,220.87, 25.3234,237.747" />
  <polygon fill="#000000" points="5.2181,136.638, 72.0244,157.979, 88.5446,215.462, 31.132,236.22" />
  <polygon fill="#FFFFFF" points="7.78618,146.507, 65.4039,155.865, 86.9074,209.765, 36.8216,234.163" />
  <polygon fill="#000000" points="10.9133,155.947, 59.1984,154.857, 84.5915,203.96, 42.2159,231.535" />
  <polygon fill="#FFFFFF" points="14.5538,164.738, 53.5829,154.984, 81.6383,198.249, 47.1442,228.328" />
  <polygon fill="#000000" points="18.6243,172.68, 48.7081,156.202, 78.1342,192.845, 51.4525,224.571" />
  <polygon fill="#FFFFFF" points="23.0069,179.608, 44.692,158.402, 74.2058,187.954, 55.0145,220.336" />
  <polygon fill="#000000" points="27.5552,185.395, 41.6105,161.415, 70.0119,183.754, 57.7416,215.734" />
  <polygon fill="#FFFFFF" points="39.4924,165.029, 65.7318,180.388, 59.5907,210.915, 32.1043,189.967" />
  <polygon fill="#000000" points="38.3154,169.002, 61.5519,177.941, 60.569,206.052, 36.4828,193.304" />
  <polygon fill="#FFFFFF" points="38.0077,173.082, 57.6505,176.44, 60.734,201.332, 40.5269,195.445" />
  <polygon fill="#000000" points="38.4524,177.029, 54.1835,175.847, 60.1898,196.939, 44.0935,196.484" />
  <polygon fill="#FFFFFF" points="39.4965,180.63, 51.2717,176.066, 59.078,193.035, 47.0729,196.568" />
  <polygon fill="#000000" points="40.9641,183.717, 48.9908,176.95, 57.5659,189.748, 49.3983,195.884" />
  <polygon fill="#FFFFFF" points="42.6703,186.179, 47.367,178.319, 55.8312,187.159, 51.0506,194.642" />
  <polygon fill="#000000" points="46.3765,179.977, 54.0461,185.295, 52.0588,193.064, 44.4377,187.964" />
  <polygon fill="#FFFFFF" points="45.9509,181.73, 52.3626,184.127, 52.495,191.359, 46.1105,189.083" />
  <polygon fill="#000000" points="45.9873,183.407, 50.9001,183.58, 52.4648,189.709, 47.5668,189.602" />
  <polygon fill="#FFFFFF" points="46.3612,184.874, 49.7373,183.539, 52.0945,188.259, 48.7262,189.628" />
  <polygon fill="#000000" points="46.9413,186.04, 48.9091,183.867, 51.5162,187.101, 49.5524,189.292" />
  <polygon fill="#FFFFFF" points="48.4095,184.418, 50.8543,186.28, 50.051,188.736, 47.6043,186.865" />
  <polygon fill="#000000" points="48.1981,185.061, 50.2125,185.791, 50.2619,188.091, 48.2466,187.356" />
  <polygon fill="#FFFFFF" points="48.2113,185.683, 49.6664,185.593, 50.2485,187.467, 48.7929,187.555" />
  <polygon fill="#000000" points="48.374,186.207, 49.2594,185.618, 50.0857,186.943, 49.2,187.531" />
  <polygon fill="#FFFFFF" points="49.0041,185.788, 49.8475,186.561, 49.4554,187.361, 48.6121,186.589" />
  <polygon fill="#000000" points="48.8877,186.026, 49.5971,186.332, 49.5718,187.124, 48.8625,186.818" />
  <polygon fill="#FFFFFF" points="48.88,186.268, 49.3804,186.238, 49.5795,186.882, 49.0792,186.911" />
  <polygon fill="#000000" points="48.9426,186.47, 49.2232,186.247, 49.517,186.68, 49.2363,186.902" />
  <polygon fill="#FFFFFF" points="49.1327,186.319, 49.4222,186.54, 49.3269,186.83, 49.0374,186.609" />
  <polygon fill="#000000" points="49.1011,186.415, 49.3263,186.467, 49.3585,186.734, 49.1333,186.683" />
  <polygon fill="#FFFFFF" points="49.112,186.506, 49.2497,186.449, 49.3475,186.643, 49.2098,186.7" />
  <polygon fill="#000000" points="49.1461,186.574, 49.2017,186.469, 49.3134,186.576, 49.2578,186.68" />
  <polygon fill="#FFFFFF" points="49.1819,186.507, 49.2736,186.538, 49.2777,186.643, 49.186,186.612" />
  <!-- Shape 2 -->
  <polygon fill="#FFFFFF" points="109.948,184.639, 169.055,240, 86.9707,240" />
  <polygon fill="#000000" points="115.859,190.175, 160.847,240, 89.2685,234.464" />
  <polygon fill="#FFFFFF" points="120.756,195.599, 153.056,239.397, 92.1629,229.643" />
  <polygon fill="#000000" points="124.558,200.754, 145.889,238.249, 95.5283,225.636" />
  <polygon fill="#FFFFFF" points="127.257,205.499, 139.515,236.653, 99.2019,222.487" />
  <polygon fill="#000000" points="103.001,220.187, 128.917,209.717, 134.057,234.735" />
  <polygon fill="#FFFFFF" points="106.739,218.677, 129.658,213.326, 129.577,232.637" />
  <polygon fill="#000000" points="110.248,217.858, 129.646,216.283, 126.081,230.499" />
  <polygon fill="#FFFFFF" points="113.389,217.603, 129.069,218.585, 123.517,228.452" />
  <polygon fill="#000000" points="116.067,217.77, 128.12,220.27, 121.787,226.599" />
  <polygon fill="#FFFFFF" points="118.233,218.219, 126.982,221.407, 120.759,225.013" />
  <polygon fill="#000000" points="119.882,218.82, 125.809,222.087, 120.283,223.732" />
  <polygon fill="#FFFFFF" points="121.052,219.465, 124.719,222.412, 120.204,222.763" />
  <polygon fill="#000000" points="121.808,220.073, 123.788,222.484, 120.379,222.083" />
  <polygon fill="#FFFFFF" points="122.234,220.591, 123.055,222.398, 120.686,221.651" />
  <polygon fill="#000000" points="121.033,221.413, 122.418,220.996, 122.524,222.23" />
  <polygon fill="#FFFFFF" points="121.355,221.316, 122.442,221.283, 122.177,222.04" />
  <polygon fill="#000000" points="121.618,221.308, 122.378,221.466, 121.979,221.865" />
  <polygon fill="#FFFFFF" points="121.808,221.348, 122.278,221.566, 121.888,221.726" />
  <polygon fill="#000000" points="121.93,221.404, 122.177,221.607, 121.867,221.628" />
  <polygon fill="#FFFFFF" points="121.996,221.459, 122.094,221.613, 121.884,221.568" />
  <polygon fill="#000000" points="121.915,221.538, 122.023,221.501, 122.036,221.6" />
  <polygon fill="#FFFFFF" points="121.946,221.527, 122.027,221.53, 122.001,221.582" />
  <polygon fill="#000000" points="121.97,221.528, 122.019,221.545, 121.985,221.566" />
  <polygon fill="#FFFFFF" points="121.985,221.533, 122.009,221.552, 121.981,221.555" />
  <!-- Shape 3 -->
  <polygon fill="#000000" points="0,0, 105.537,0, 107.132,66.7292, 42.931,121.87, 0,81.6598" />
  <polygon fill="#FFFFFF" points="10.5537,0, 105.697,6.67292, 100.712,72.2433, 38.6379,117.849, 0,73.4938" />
  <polygon fill="#000000" points="20.9101,0.726348, 105.154,13.8103, 93.9548,77.2074, 34.4322,113.021, 1.14878,65.494" />
  <polygon fill="#FFFFFF" points="30.8256,2.26632, 103.836,21.2721, 86.949,81.4227, 30.5147,107.427, 3.47468,57.8708" />
  <polygon fill="#000000" points="6.93594,50.8341, 40.0651,4.67151, 101.699,28.8842, 79.8073,84.7135, 27.0928,101.155" />
  <polygon fill="#FFFFFF" points="11.4216,44.5837, 48.4103,7.9499, 98.7349,36.4435, 72.6697,86.9397, 24.3636,94.342" />
  <polygon fill="#000000" points="16.7572,39.2992, 55.6696,12.0601, 94.975,43.7275, 65.7016,88.0075, 22.4967,87.1643" />
  <polygon fill="#FFFFFF" points="22.7147,35.1289, 61.6873,16.9084, 90.4932,50.5068, 59.0869,87.8784, 21.618,79.8362" />
  <polygon fill="#000000" points="29.0263,32.1781, 66.3524,22.3496, 85.407,56.5591, 53.0188,86.576, 21.7956,72.5958" />
  <polygon fill="#FFFFFF" points="35.4016,30.4994, 69.6069,28.1926, 79.8751,61.686, 47.6859,84.1882, 23.0306,65.6925" />
  <polygon fill="#000000" points="41.5466,30.085, 71.4516,34.2097, 74.0923,65.7285, 43.2566,80.8654, 25.2531,59.3701" />
  <polygon fill="#FFFFFF" points="28.3244,53.8498, 47.1837,30.8625, 71.9494,40.151, 68.2797,68.5818, 39.8629,76.8135" />
  <polygon fill="#000000" points="32.0463,49.3133, 52.0712,32.6956, 71.2252,45.7618, 62.6717,70.2064, 37.5858,72.2817" />
  <polygon fill="#FFFFFF" points="36.1754,45.8867, 56.0207,35.3899, 69.4614,50.8023, 57.499,70.6343, 36.4435,67.5456" />
  <polygon fill="#000000" points="40.4432,43.6294, 58.9112,38.7043, 66.8889,55.0672, 52.971,69.9701, 36.3859,62.8878" />
  <polygon fill="#FFFFFF" points="44.5781,42.5266, 60.6974,42.3679, 63.7727,58.4039, 49.2576,68.3844, 37.2943,58.5759" />
  <polygon fill="#000000" points="48.3299,42.4897, 61.4132,46.1003, 60.3943,60.7269, 46.4731,66.1014, 38.9896,54.8404" />
  <polygon fill="#FFFFFF" points="41.2462,51.8565, 51.4908,43.362, 61.167,49.6341, 57.0309,62.0254, 44.6651,63.3808" />
  <polygon fill="#000000" points="43.812,49.729, 53.9142,44.9329, 60.1311,52.7375, 53.9339,62.3648, 43.8089,60.4945" />
  <polygon fill="#FFFFFF" points="46.4315,48.4854, 55.5263,46.9566, 58.5242,55.2339, 51.3085,61.8798, 43.8097,57.703" />
  <polygon fill="#000000" points="48.8703,48.0754, 56.3302,49.1761, 56.5893,57.016, 49.2977,60.7598, 44.5127,55.2313" />
  <polygon fill="#FFFFFF" points="45.7197,53.2491, 50.9366,48.3803, 56.4019,51.3478, 54.5695,58.053, 47.9722,59.2284" />
  <polygon fill="#000000" points="47.211,51.8574, 52.4989,49.2286, 55.8781,53.2645, 52.6837,58.389, 47.3284,57.5193" />
  <polygon fill="#FFFFFF" points="48.7693,51.0827, 53.4948,50.418, 54.9367,54.7747, 51.1055,58.1327, 47.2938,55.8507" />
  <polygon fill="#000000" points="50.2037,50.8809, 53.9325,51.7404, 53.7738,55.794, 49.9484,57.44, 47.7417,54.4034" />
  <polygon fill="#FFFFFF" points="48.5108,53.303, 51.3686,51.1494, 53.8829,53.0068, 52.5787,56.3082, 49.259,56.4914" />
  <polygon fill="#000000" points="49.4289,52.6111, 52.1763,51.7461, 53.4639,54.0674, 51.5123,56.367, 49.0187,55.4671" />
  <polygon fill="#FFFFFF" points="50.3358,52.3256, 52.6014,52.5123, 52.8197,54.8265, 50.6891,56.07, 49.1541,54.5243" />
  <polygon fill="#000000" points="49.5546,53.7791, 51.1037,52.3889, 52.6754,53.2967, 52.0975,55.248, 50.1688,55.5461" />
  <polygon fill="#FFFFFF" points="50.0934,53.2956, 51.6503,52.7046, 52.4744,53.9754, 51.4267,55.3516, 49.9552,54.9315" />
  <polygon fill="#000000" points="50.6487,53.0848, 51.9442,53.1578, 52.1007,54.4662, 50.9019,55.2018, 50.0045,54.348" />
  <polygon fill="#FFFFFF" points="50.24,53.8863, 51.1222,53.1115, 52.0014,53.6361, 51.6626,54.7351, 50.5739,54.8898" />
  <polygon fill="#000000" points="50.5702,53.5963, 51.4514,53.3079, 51.8746,54.0475, 51.255,54.793, 50.4489,54.5141" />
  <polygon fill="#FFFFFF" points="50.9079,53.4858, 51.6135,53.5913, 51.6372,54.3332, 50.9461,54.6861, 50.4954,54.1624" />
  <polygon fill="#000000" points="50.6571,53.8971, 51.1845,53.5271, 51.6228,53.8821, 51.3662,54.4715, 50.7694,54.4808" />
  <polygon fill="#FFFFFF" points="50.8685,53.7488, 51.3602,53.6694, 51.52,54.1184, 51.127,54.4752, 50.7244,54.2468" />
  <polygon fill="#000000" points="50.7835,54.0427, 51.07,53.7163, 51.4257,53.8534, 51.3589,54.2646, 50.962,54.3816" />
  <polygon fill="#FFFFFF" points="50.9034,53.9061, 51.2189,53.7737, 51.3977,54.0256, 51.1928,54.3136, 50.8873,54.2398" />
  <polygon fill="#000000" points="51.0383,53.8495, 51.2953,53.8813, 51.3101,54.1487, 51.0622,54.2821, 50.8942,54.0971" />
  <polygon fill="#FFFFFF" points="50.957,53.9891, 51.1504,53.8634, 51.3018,53.998, 51.202,54.2069, 50.9889,54.2014" />
  <polygon fill="#000000" points="51.0431,53.9331, 51.2178,53.9233, 51.2574,54.091, 51.1071,54.2044, 50.9747,54.1069" />
  <polygon fill="#FFFFFF" points="51.0058,54.028, 51.1224,53.9287, 51.2358,53.9994, 51.1891,54.1425, 51.047,54.1601" />
  <polygon fill="#000000" points="51.0598,53.982, 51.1749,53.9614, 51.2142,54.0656, 51.1233,54.1507, 51.0279,54.099" />
  <polygon fill="#FFFFFF" points="51.0429,54.0438, 51.1141,53.9723, 51.1934,54.0106, 51.1713,54.1057, 51.0783,54.1263" />
  <polygon fill="#000000" points="51.0771,54.0095, 51.1522,53.9907, 51.1828,54.0563, 51.1266,54.1156, 51.0613,54.0866" />
  <polygon fill="#FFFFFF" points="51.0691,54.0489, 51.1139,54.0003, 51.1672,54.0228, 51.1553,54.0853, 51.0947,54.1014" />
  <polygon fill="#000000" points="51.0914,54.0247, 51.1404,54.0115, 51.1613,54.054, 51.1251,54.0934, 51.0819,54.0752" />
  <polygon fill="#FFFFFF" points="51.0867,54.0496, 51.1163,54.018, 51.151,54.033, 51.1429,54.0739, 51.1032,54.0842" />
  <polygon fill="#000000" points="51.102,54.0333, 51.1342,54.0257, 51.1468,54.0541, 51.1224,54.0792, 51.0947,54.0663" />
  <polygon fill="#FFFFFF" points="51.0985,54.049, 51.1189,54.0293, 51.1408,54.0406, 51.134,54.0673, 51.1079,54.0725" />
  <polygon fill="#000000" points="51.1094,54.0385, 51.1306,54.0354, 51.1372,54.0549, 51.1201,54.0701, 51.1029,54.0599" />
  <polygon fill="#FFFFFF" points="51.1064,54.0483, 51.1209,54.0368, 51.1342,54.0459, 51.1279,54.0631, 51.1107,54.0646" />
  <polygon fill="#000000" points="51.1144,54.042, 51.1282,54.0418, 51.1307,54.0554, 51.1184,54.0639, 51.1083,54.0556" />
  <polygon fill="#FFFFFF" points="51.1117,54.048, 51.1221,54.0419, 51.1296,54.0494, 51.1238,54.0602, 51.1128,54.0593" />
  <polygon fill="#000000" points="51.1176,54.0445, 51.1264,54.0462, 51.1263,54.0555, 51.1176,54.0596, 51.1122,54.0528" />
  <polygon fill="#FFFFFF" points="51.1153,54.048, 51.1227,54.0455, 51.1264,54.0516, 51.1213,54.0579, 51.1145,54.0557" />
  <polygon fill="#000000" points="51.115,54.0512, 51.1197,54.0465, 51.1248,54.0491, 51.1234,54.0553, 51.1173,54.0566" />
  <polygon fill="#FFFFFF" points="51.1178,54.0484, 51.1227,54.048, 51.124,54.0528, 51.1197,54.0561, 51.1159,54.0534" />
  <polygon fill="#000000" points="51.117,54.0504, 51.1208,54.0482, 51.1235,54.0509, 51.1214,54.0548, 51.1174,54.0545" />
  <polygon fill="#FFFFFF" points="51.1193,54.049, 51.1224,54.0499, 51.1222,54.0533, 51.119,54.0546, 51.1172,54.052" />
  <polygon fill="#000000" points="51.1185,54.0501, 51.1213,54.0495, 51.1223,54.052, 51.1202,54.0541, 51.1178,54.0529" />
  <!-- Shape 4 -->
  <polygon fill="#FFFFFF" points="42.931,121.87, 107.132,66.7292, 109.948,184.639" />
  <polygon fill="#000000" points="100.712,72.2433, 109.667,172.848, 49.6328,128.147" />
  <polygon fill="#FFFFFF" points="95.1491,78.3312, 108.692,161.892, 56.1705,133.015" />
  <polygon fill="#000000" points="90.5574,84.7729, 107.096,152.049, 62.3575,136.417" />
  <polygon fill="#FFFFFF" points="86.9845,91.3161, 105.001,143.525, 68.0259,138.397" />
  <polygon fill="#000000" points="84.4137,97.7003, 102.558,136.446, 73.0397,139.092" />
  <polygon fill="#FFFFFF" points="82.7701,103.681, 99.9359,130.847, 77.305,138.71" />
  <polygon fill="#000000" points="81.9318,109.055, 97.3027,126.68, 80.7766,137.504" />
  <polygon fill="#FFFFFF" points="81.7443,113.672, 94.808,123.819, 83.4588,135.747" />
  <polygon fill="#000000" points="82.0378,117.451, 92.5715,122.082, 85.4018,133.705" />
  <polygon fill="#FFFFFF" points="82.6437,120.379, 90.6744,121.248, 86.693,131.612" />
  <polygon fill="#000000" points="83.409,122.502, 89.1566,121.084, 87.4455,129.653" />
  <polygon fill="#FFFFFF" points="84.2078,123.917, 88.0191,121.364, 87.7841,127.957" />
  <polygon fill="#000000" points="87.2309,121.892, 87.8327,126.594, 84.9474,124.752" />
  <polygon fill="#FFFFFF" points="86.7384,122.509, 87.7029,125.58, 85.5698,125.15" />
  <polygon fill="#000000" points="86.4759,123.102, 87.4863,124.89, 86.0489,125.246" />
  <polygon fill="#FFFFFF" points="86.3762,123.603, 87.2504,124.473, 86.3845,125.163" />
  <polygon fill="#000000" points="86.3782,123.981, 87.0385,124.262, 86.5944,124.996" />
  <polygon fill="#FFFFFF" points="86.4325,124.236, 86.8725,124.191, 86.706,124.811" />
  <polygon fill="#000000" points="86.5037,124.386, 86.7581,124.203, 86.7493,124.65" />
  <polygon fill="#FFFFFF" points="86.6896,124.252, 86.7517,124.53, 86.5698,124.457" />
  <polygon fill="#000000" points="86.6563,124.309, 86.7344,124.452, 86.6204,124.477" />
  <polygon fill="#FFFFFF" points="86.646,124.357, 86.712,124.411, 86.6531,124.47" />
  <polygon fill="#000000" points="86.6481,124.391, 86.6925,124.395, 86.6705,124.453" />
  <polygon fill="#FFFFFF" points="86.6549,124.409, 86.679,124.394, 86.6772,124.435" />
  <!-- Shape 5 -->
  <polygon fill="#FFFFFF" points="105.537,0, 181.759,0, 107.132,66.7292" />
  <polygon fill="#000000" points="105.697,6.67292, 174.137,0, 114.594,60.0563" />
  <polygon fill="#FFFFFF" points="106.664,12.4784, 166.694,0.725681, 121.07,53.5252" />
  <polygon fill="#000000" points="108.357,17.3014, 159.64,2.10662, 126.43,47.3213" />
  <polygon fill="#FFFFFF" points="110.639,21.0914, 153.166,4.02496, 130.623,41.6129" />
  <polygon fill="#000000" points="147.425,6.32893, 133.666,36.5385, 113.337,23.8618" />
  <polygon fill="#FFFFFF" points="142.525,8.84927, 135.644,32.1959, 116.259,25.6841" />
  <polygon fill="#000000" points="138.519,11.4166, 136.694,28.6355, 119.215,26.6771" />
  <polygon fill="#FFFFFF" points="135.406,13.8773, 136.988,25.859, 122.034,26.9929" />
  <polygon fill="#000000" points="133.133,16.107, 136.719,23.8221, 124.576,26.8001" />
  <polygon fill="#FFFFFF" points="131.603,18.0184, 136.078,22.443, 126.747,26.2678" />
  <polygon fill="#000000" points="130.693,19.5652, 135.239,21.6134, 128.496,25.5507" />
  <polygon fill="#FFFFFF" points="130.262,20.7398, 134.347,21.2114, 129.819,24.778" />
  <polygon fill="#000000" points="130.171,21.5676, 133.509,21.1148, 130.748,24.0468" />
  <polygon fill="#FFFFFF" points="130.294,22.0976, 132.796,21.2116, 131.338,23.4201" />
  <polygon fill="#000000" points="132.239,21.4087, 131.662,22.9287, 130.526,22.3918" />
  <polygon fill="#FFFFFF" points="131.843,21.636, 131.796,22.5772, 130.789,22.516" />
  <polygon fill="#000000" points="131.59,21.8472, 131.807,22.3513, 131.031,22.5307" />
  <polygon fill="#FFFFFF" points="131.451,22.0172, 131.753,22.2259, 131.224,22.4861" />
  <polygon fill="#000000" points="131.393,22.138, 131.675,22.1722, 131.36,22.4191" />
  <polygon fill="#FFFFFF" points="131.384,22.2128, 131.6,22.1631, 131.444,22.3533" />
  <polygon fill="#000000" points="131.541,22.1768, 131.487,22.301, 131.4,22.2515" />
  <polygon fill="#FFFFFF" points="131.501,22.198, 131.502,22.2658, 131.425,22.2655" />
  <polygon fill="#000000" points="131.479,22.2177, 131.502,22.2459, 131.448,22.2656" />
  <polygon fill="#FFFFFF" points="131.469,22.2321, 131.495,22.2374, 131.464,22.2597" />
  <!-- Shape 6 -->
  <polygon fill="#000000" points="107.132,66.7292, 181.759,0, 280.456,0, 109.948,184.639" />
  <polygon fill="#FFFFFF" points="110.676,63.5596, 186.447,0, 272.357,8.77037, 109.815,179.039" />
  <polygon fill="#000000" points="114.927,59.9939, 191.267,0.492018, 263.238,18.3224, 109.863,172.56" />
  <polygon fill="#FFFFFF" points="119.866,56.1441, 195.923,1.64564, 253.315,28.3016, 110.191,165.277" />
  <polygon fill="#000000" points="125.441,52.1494, 200.13,3.59953, 242.824,38.3419, 110.9,157.278" />
  <polygon fill="#FFFFFF" points="131.558,48.1732, 203.627,6.44493, 232.019,48.0828, 112.091,148.668" />
  <polygon fill="#000000" points="138.08,44.3968, 206.196,10.2132, 221.166,57.1857, 113.853,139.573" />
  <polygon fill="#FFFFFF" points="144.831,41.0092, 207.68,14.8681, 210.531,65.3503, 116.254,130.141" />
  <polygon fill="#000000" points="151.6,38.1938, 207.987,20.3051, 200.377,72.3283, 119.331,120.542" />
  <polygon fill="#FFFFFF" points="158.157,36.1133, 207.102,26.3554, 190.952,77.9355, 123.084,110.964" />
  <polygon fill="#000000" points="164.271,34.8945, 205.085,32.7977, 182.475,82.0608, 127.465,101.616" />
  <polygon fill="#FFFFFF" points="169.719,34.6146, 202.066,39.3743, 175.131,84.6714, 132.378,92.7083" />
  <polygon fill="#000000" points="174.316,35.291, 198.239,45.811, 169.056,85.8134, 137.684,84.4532" />
  <polygon fill="#FFFFFF" points="177.921,36.8764, 193.841,51.8394, 164.328,85.6084, 143.205,77.0445" />
  <polygon fill="#000000" points="180.457,39.26, 189.14,57.2188, 160.963,84.2442, 148.735,70.6457" />
  <polygon fill="#FFFFFF" points="181.915,42.2753, 184.409,61.7564, 158.91,81.961, 154.061,65.376" />
  <polygon fill="#000000" points="158.977,61.2987, 182.355,45.7137, 179.908,65.3225, 158.054,79.0337" />
  <polygon fill="#FFFFFF" points="163.305,58.4139, 181.902,49.3433, 175.863,67.8604, 158.225,75.751" />
  <polygon fill="#000000" points="166.907,56.6569, 180.732,52.93, 172.447,69.3888, 159.209,72.3928" />
  <polygon fill="#FFFFFF" points="169.704,55.903, 179.056,56.2597, 169.769,69.9965, 160.766,69.2094" />
  <polygon fill="#000000" points="171.676,55.9782, 177.097,59.1568, 167.87,69.8305, 162.651,66.4031" />
  <polygon fill="#FFFFFF" points="172.866,56.6759, 175.072,61.4997, 166.725,69.0782, 164.632,64.1148" />
  <polygon fill="#000000" points="166.51,62.418, 173.369,57.7762, 173.168,63.2283, 166.247,67.9461" />
  <polygon fill="#FFFFFF" points="168.134,61.3193, 173.322,59.0667, 171.53,64.345, 166.31,66.6376" />
  <polygon fill="#000000" points="169.406,60.7667, 172.882,60.3615, 170.249,64.9074, 166.757,65.333" />
  <polygon fill="#FFFFFF" points="170.289,60.6639, 172.214,61.5157, 169.363,65.0155, 167.43,64.1736" />
  <polygon fill="#000000" points="170.794,60.8875, 171.465,62.4344, 168.855,64.7945, 168.18,63.2523" />
  <polygon fill="#FFFFFF" points="168.889,62.6112, 170.976,61.3068, 170.758,63.0742, 168.672,64.3764" />
  <polygon fill="#000000" points="169.473,62.2464, 170.915,61.8012, 170.174,63.4384, 168.733,63.8827" />
  <polygon fill="#FFFFFF" points="169.889,62.118, 170.702,62.2732, 169.759,63.5665, 168.946,63.4109" />
  <polygon fill="#000000" points="170.13,62.1641, 170.422,62.6572, 169.518,63.5203, 169.226,63.0271" />
  <polygon fill="#FFFFFF" points="169.502,62.7634, 170.219,62.3147, 170.145,62.9209, 169.428,63.3696" />
  <polygon fill="#000000" points="169.727,62.6225, 170.196,62.5051, 169.92,63.0618, 169.452,63.1792" />
  <polygon fill="#FFFFFF" points="169.879,62.5846, 170.107,62.6848, 169.769,63.0997, 169.541,62.9996" />
  <polygon fill="#000000" points="169.954,62.6178, 169.995,62.8222, 169.693,63.0665, 169.653,62.8621" />
  <polygon fill="#FFFFFF" points="169.755,62.7791, 169.968,62.6873, 169.892,62.9053, 169.679,62.997" />
  <polygon fill="#000000" points="169.829,62.7471, 169.942,62.7632, 169.818,62.9372, 169.706,62.9211" />
  <polygon fill="#FFFFFF" points="169.869,62.7528, 169.898,62.8254, 169.778,62.9315, 169.75,62.8589" />
  <polygon fill="#000000" points="169.794,62.8201, 169.88,62.7794, 169.854,62.8642, 169.768,62.9049" />
  <polygon fill="#FFFFFF" points="169.826,62.8049, 169.87,62.8111, 169.822,62.8794, 169.777,62.8732" />
  <polygon fill="#000000" points="169.843,62.8073, 169.852,62.8373, 169.805,62.877, 169.796,62.847" />
  <polygon fill="#FFFFFF" points="169.814,62.8315, 169.846,62.819, 169.833,62.8528, 169.801,62.8653" />
  <polygon fill="#000000" points="169.827,62.8265, 169.841,62.8326, 169.82,62.8578, 169.807,62.8518" />
  <polygon fill="#FFFFFF" points="169.815,62.8414, 169.833,62.829, 169.833,62.8429, 169.815,62.8554" />
  <polygon fill="#000000" points="169.822,62.8362, 169.833,62.8348, 169.825,62.8481, 169.815,62.8495" />
  <polygon fill="#FFFFFF" points="169.827,62.8356, 169.829,62.8404, 169.821,62.8487, 169.818,62.8439" />
  <polygon fill="#000000" points="169.822,62.8403, 169.828,62.8377, 169.826,62.844, 169.82,62.8466" />
  <polygon fill="#FFFFFF" points="169.825,62.8391, 169.827,62.8405, 169.823,62.8452, 169.821,62.8438" />
  <polygon fill="#000000" points="169.822,62.8417, 169.826,62.8398, 169.825,62.8426, 169.822,62.8446" />
  <polygon fill="#FFFFFF" points="169.824,62.8408, 169.825,62.8411, 169.824,62.8435, 169.822,62.8432" />
  <polygon fill="#000000" points="169.823,62.8421, 169.825,62.8409, 169.825,62.8422, 169.823,62.8434" />
  <polygon fill="#FFFFFF" points="169.824,62.8415, 169.825,62.8415, 169.824,62.8428, 169.823,62.8428" />
  <polygon fill="#000000" points="169.824,62.8415, 169.824,62.8421, 169.823,62.8428, 169.823,62.8422" />
  <polygon fill="#FFFFFF" points="169.824,62.8419, 169.824,62.8418, 169.824,62.8425, 169.823,62.8425" />
  <polygon fill="#000000" points="169.824,62.8419, 169.824,62.8422, 169.824,62.8422, 169.824,62.8425" />
  <polygon fill="#FFFFFF" points="169.824,62.842, 169.824,62.8422, 169.824,62.8422, 169.824,62.8423" />
  <polygon fill="#000000" points="169.824,62.8421, 169.824,62.8422, 169.824,62.8422, 169.824,62.8422" />
  <polygon fill="#FFFFFF" points="169.824,62.8421, 169.824,62.8422, 169.824,62.8422, 169.824,62.8422" />
  <polygon fill="#000000" points="169.824,62.8422, 169.824,62.8422, 169.824,62.8422, 169.824,62.8421" />
  <!-- Shape 7 -->
  <polygon fill="#FFFFFF" points="280.456,0, 278.502,240, 169.055,240, 109.948,184.639" />
  <polygon fill="#000000" points="272.357,8.77037, 278.594,228.6, 174.254,240, 112.756,187.269" />
  <polygon fill="#FFFFFF" points="263.403,18.7841, 278.245,216.268, 180.108,239.36, 116.206,190.227" />
  <polygon fill="#000000" points="253.88,29.8765, 277.284,203.49, 186.457,237.866, 120.34,193.406" />
  <polygon fill="#FFFFFF" points="244.091,41.8632, 275.569,190.764, 193.115,235.347, 125.187,196.665" />
  <polygon fill="#000000" points="234.353,54.5415, 272.991,178.569, 199.868,231.695, 130.75,199.833" />
  <polygon fill="#FFFFFF" points="224.977,67.6904, 269.494,167.345, 206.485,226.887, 137.005,202.717" />
  <polygon fill="#000000" points="216.259,81.0715, 265.082,157.469, 212.729,220.987, 143.891,205.112" />
  <polygon fill="#FFFFFF" points="208.465,94.4307, 259.824,149.241, 218.368,214.146, 151.305,206.822" />
  <polygon fill="#000000" points="201.817,107.502, 253.851,142.867, 223.189,206.597, 159.104,207.673" />
  <polygon fill="#FFFFFF" points="196.482,120.013, 247.352,138.45, 227.019,198.638, 167.108,207.539" />
  <polygon fill="#000000" points="192.561,131.698, 240.561,135.988, 229.733,190.602, 175.106,206.351" />
  <polygon fill="#FFFFFF" points="190.081,142.306, 233.74,135.379, 231.272,182.842, 182.869,204.113" />
  <polygon fill="#000000" points="188.994,151.62, 227.161,136.423, 231.644,175.689, 190.163,200.907" />
  <polygon fill="#FFFFFF" points="189.18,159.472, 221.081,138.844, 230.93,169.434, 196.771,196.89" />
  <polygon fill="#000000" points="190.455,165.754, 215.725,142.307, 229.276,164.298, 202.506,192.28" />
  <polygon fill="#FFFFFF" points="211.264,146.446, 226.884,160.416, 207.231,187.341, 192.582,170.436" />
  <polygon fill="#000000" points="207.806,150.886, 223.993,157.83, 210.869,182.358, 195.293,173.565" />
  <polygon fill="#FFFFFF" points="205.382,155.279, 220.858,156.485, 213.411,177.607, 198.31,175.268" />
  <polygon fill="#000000" points="203.952,159.323, 217.727,156.241, 214.918,173.334, 201.365,175.741" />
  <polygon fill="#FFFFFF" points="203.406,162.786, 214.822,156.891, 215.51,169.729, 204.223,175.234" />
  <polygon fill="#000000" points="203.586,165.518, 212.316,158.185, 215.359,166.911, 206.701,174.025" />
  <polygon fill="#FFFFFF" points="210.325,159.858, 214.665,164.921, 208.676,172.403, 204.296,167.458" />
  <polygon fill="#000000" points="208.898,161.657, 213.638,163.722, 210.093,170.632, 205.333,168.629" />
  <polygon fill="#FFFFFF" points="208.023,163.367, 212.475,163.216, 210.963,168.937, 206.501,169.12" />
  <polygon fill="#000000" points="207.637,164.828, 211.345,163.254, 211.347,167.484, 207.634,169.074" />
  <polygon fill="#FFFFFF" points="207.636,165.942, 210.371,163.667, 211.346,166.374, 208.608,168.656" />
  <polygon fill="#000000" points="209.63,164.284, 211.082,165.64, 209.35,168.037, 207.899,166.678" />
  <polygon fill="#FFFFFF" points="209.146,164.954, 210.676,165.261, 209.835,167.367, 208.305,167.058" />
  <polygon fill="#000000" points="208.903,165.56, 210.235,165.172, 210.077,166.76, 208.746,167.147" />
  <polygon fill="#FFFFFF" points="208.857,166.031, 209.839,165.287, 210.124,166.288, 209.141,167.032" />
  <polygon fill="#000000" points="209.539,165.515, 210.037,165.983, 209.442,166.805, 208.944,166.337" />
  <polygon fill="#FFFFFF" points="209.352,165.773, 209.881,165.836, 209.629,166.547, 209.1,166.484" />
  <polygon fill="#000000" points="209.271,166.003, 209.71,165.815, 209.71,166.317, 209.271,166.504" />
  <polygon fill="#FFFFFF" points="209.565,165.877, 209.71,166.151, 209.416,166.442, 209.271,166.169" />
  <polygon fill="#000000" points="209.465,165.976, 209.661,166.058, 209.516,166.343, 209.32,166.262" />
  <polygon fill="#FFFFFF" points="209.414,166.076, 209.592,166.03, 209.566,166.244, 209.388,166.29" />
  <polygon fill="#000000" points="209.405,166.152, 209.529,166.046, 209.576,166.167, 209.452,166.274" />
  <polygon fill="#FFFFFF" points="209.484,166.085, 209.558,166.123, 209.497,166.235, 209.422,166.197" />
  <!-- Shape 8 -->
  <polygon fill="#FFFFFF" points="280.456,0, 369.381,0, 440.946,77.0888, 278.502,240" />
  <polygon fill="#000000" points="284.68,0, 372.78,3.66172, 433.229,84.827, 278.594,228.6" />
  <polygon fill="#FFFFFF" points="289.653,0.206704, 376.193,8.2435, 424.5,92.943, 278.938,215.696" />
  <polygon fill="#000000" points="295.313,0.73231, 379.352,13.7828, 414.981,100.971, 279.639,201.603" />
  <polygon fill="#FFFFFF" points="301.561,1.70262, 382.001,20.2653, 404.918,108.453, 280.804,186.668" />
  <polygon fill="#000000" points="308.262,3.24889, 383.91,27.6113, 394.579,114.968, 282.533,171.26" />
  <polygon fill="#FFFFFF" points="315.24,5.49632, 384.894,35.67, 384.243,120.161, 284.907,155.761" />
  <polygon fill="#000000" points="322.289,8.5499, 384.828,44.2205, 374.19,123.764, 287.976,140.554" />
  <polygon fill="#FFFFFF" points="329.178,12.479, 383.657,52.9822, 364.694,125.613, 291.756,126.014" />
  <polygon fill="#000000" points="335.666,17.3029, 381.398,61.6326, 356.007,125.661, 296.213,112.492" />
  <polygon fill="#FFFFFF" points="341.522,22.9794, 378.147,69.8315, 348.35,123.975, 301.265,100.303" />
  <polygon fill="#000000" points="346.54,29.3981, 374.065,77.2491, 341.9,120.732, 306.78,89.7098" />
  <polygon fill="#FFFFFF" points="350.557,36.3819, 369.37,83.5954, 336.774,116.204, 312.583,80.9073" />
  <polygon fill="#000000" points="318.465,74.0103, 353.471,43.6953, 364.321,88.6465, 333.027,110.737" />
  <polygon fill="#FFFFFF" points="324.201,69.0432, 355.249,51.0606, 359.193,92.266, 330.641,104.719" />
  <polygon fill="#000000" points="329.566,65.9358, 355.931,58.1809, 354.26,94.4179, 329.528,98.5543" />
  <polygon fill="#FFFFFF" points="334.358,64.5263, 355.627,64.7669, 349.765,95.1696, 329.535,92.6258" />
  <polygon fill="#000000" points="338.414,64.5722, 354.509,70.5647, 345.907,94.6845, 330.455,87.2673" />
  <polygon fill="#FFFFFF" points="341.627,65.7686, 352.792,75.3802, 342.822,93.2037, 332.044,82.7362" />
  <polygon fill="#000000" points="334.043,79.1968, 343.956,67.7736, 350.712,79.0982, 340.573,91.0202" />
  <polygon fill="#FFFFFF" points="336.2,76.7117, 345.426,70.2373, 348.506,81.6918, 339.153,88.448" />
  <polygon fill="#000000" points="338.289,75.2452, 346.124,72.8317, 346.388,83.2221, 338.484,85.7897" />
  <polygon fill="#FFFFFF" points="340.134,74.677, 346.186,75.2781, 344.527,83.8266, 338.438,83.307" />
  <polygon fill="#000000" points="341.613,74.8239, 345.78,77.3674, 343.039,83.6996, 338.852,81.1978" />
  <polygon fill="#FFFFFF" points="342.669,75.4683, 345.086,78.9717, 341.978,83.0658, 339.552,79.583" />
  <polygon fill="#000000" points="340.369,78.5037, 343.303,76.3872, 344.271,80.0456, 341.342,82.1523" />
  <polygon fill="#FFFFFF" points="341.165,77.9296, 343.565,77.3795, 343.476,80.617, 341.078,81.1626" />
  <polygon fill="#000000" points="341.838,77.7755, 343.54,78.2867, 342.804,80.7699, 341.102,80.2567" />
  <polygon fill="#FFFFFF" points="342.33,77.9233, 343.327,79.0047, 342.312,80.6215, 341.315,79.5393" />
  <polygon fill="#000000" points="341.618,79.0575, 342.627,78.2457, 343.025,79.4867, 342.015,80.2989" />
  <polygon fill="#FFFFFF" points="341.928,78.8083, 342.749,78.6267, 342.715,79.7361, 341.893,79.9177" />
  <polygon fill="#000000" points="342.187,78.7509, 342.738,78.9773, 342.455,79.7935, 341.904,79.5671" />
  <polygon fill="#FFFFFF" points="342.366,78.8244, 342.646,79.2425, 342.276,79.7199, 341.996,79.3019" />
  <polygon fill="#000000" points="342.12,79.1425, 342.46,78.964, 342.523,79.4019, 342.182,79.5803" />
  <polygon fill="#FFFFFF" points="342.236,79.0813, 342.481,79.1142, 342.406,79.4631, 342.161,79.4302" />
  <polygon fill="#000000" points="342.322,79.0929, 342.455,79.2369, 342.32,79.4515, 342.187,79.3075" />
  <polygon fill="#FFFFFF" points="342.236,79.23, 342.37,79.1448, 342.406,79.3143, 342.272,79.3996" />
  <polygon fill="#000000" points="342.286,79.1985, 342.383,79.2075, 342.356,79.3458, 342.259,79.3369" />
  <polygon fill="#FFFFFF" points="342.323,79.2019, 342.373,79.2599, 342.319,79.3424, 342.269,79.2845" />
  <polygon fill="#000000" points="342.29,79.2525, 342.342,79.2244, 342.352,79.2919, 342.3,79.32" />
  <polygon fill="#FFFFFF" points="342.311,79.2413, 342.346,79.2512, 342.332,79.303, 342.296,79.2932" />
  <polygon fill="#000000" points="342.325,79.2453, 342.34,79.2722, 342.317,79.2991, 342.302,79.2722" />
  <polygon fill="#FFFFFF" points="342.311,79.2611, 342.331,79.2565, 342.331,79.2833, 342.311,79.2879" />
  <polygon fill="#000000" points="342.32,79.2591, 342.331,79.2678, 342.322,79.2853, 342.311,79.2765" />
  <!-- Shape 9 -->
  <polygon fill="#000000" points="440.946,77.0888, 592.182,240, 278.502,240" />
  <polygon fill="#FFFFFF" points="433.229,84.827, 584.999,232.262, 293.401,240" />
  <polygon fill="#000000" points="425.455,93.4547, 576.56,224.064, 309.614,239.57" />
  <polygon fill="#FFFFFF" points="418.076,102.762, 566.935,215.745, 326.619,238.582" />
  <polygon fill="#000000" points="411.509,112.514, 556.247,207.632, 343.873,236.942" />
  <polygon fill="#FFFFFF" points="406.105,122.456, 544.682,200.032, 360.842,234.6" />
  <polygon fill="#000000" points="402.122,132.325, 532.488,193.206, 377.02,231.558" />
  <polygon fill="#FFFFFF" points="399.71,141.861, 519.959,187.355, 391.96,227.873" />
  <polygon fill="#000000" points="398.902,150.823, 507.429,182.615, 405.298,223.651" />
  <polygon fill="#FFFFFF" points="399.621,159.002, 495.242,179.044, 416.767,219.042" />
  <polygon fill="#000000" points="401.685,166.231, 483.729,176.631, 426.216,214.227" />
  <polygon fill="#FFFFFF" points="404.837,172.398, 473.186,175.295, 433.606,209.396" />
  <polygon fill="#000000" points="408.767,177.452, 463.85,174.899, 439.013,204.737" />
  <polygon fill="#FFFFFF" points="413.144,181.4, 455.879,175.269, 442.607,200.42" />
  <polygon fill="#000000" points="417.646,184.306, 449.349,176.205, 444.635,196.577" />
  <polygon fill="#FFFFFF" points="444.248,177.509, 445.393,193.299, 421.988,186.281" />
  <polygon fill="#000000" points="440.486,178.991, 445.2,190.631, 425.944,187.467" />
  <polygon fill="#FFFFFF" points="437.911,180.492, 444.365,188.569, 429.354,188.027" />
  <polygon fill="#000000" points="436.326,181.888, 443.17,187.073, 432.134,188.128" />
  <polygon fill="#FFFFFF" points="435.516,183.094, 441.847,186.071, 434.267,187.924" />
  <polygon fill="#000000" points="435.264,184.067, 440.572,185.471, 435.794,187.551" />
  <polygon fill="#FFFFFF" points="435.375,184.797, 439.46,185.177, 436.795,187.115" />
  <polygon fill="#000000" points="435.684,185.301, 438.571,185.094, 437.375,186.693" />
  <polygon fill="#FFFFFF" points="436.066,185.615, 437.919,185.141, 437.645,186.332" />
  <polygon fill="#000000" points="437.486,185.252, 437.709,186.054, 436.435,185.783" />
  <!-- Shape 10 -->
  <polygon fill="#000000" points="369.381,0, 488.599,0, 487.609,46.7976, 440.946,77.0888" />
  <polygon fill="#FFFFFF" points="376.538,7.70888, 476.678,0, 487.708,42.1178, 445.612,74.0596" />
  <polygon fill="#000000" points="384.036,14.9113, 465.807,0.836798, 486.511,37.546, 450.182,70.5924" />
  <polygon fill="#FFFFFF" points="391.781,21.4315, 456.232,2.48492, 484.087,33.2473, 454.436,66.7226" />
  <polygon fill="#000000" points="399.654,27.1223, 448.134,4.86556, 480.587,29.382, 458.161,62.5164" />
  <polygon fill="#FFFFFF" points="441.628,7.85242, 476.231,26.0919, 461.171,58.0698, 407.506,31.8722" />
  <polygon fill="#000000" points="436.757,11.2812, 471.292,23.4882, 463.321,53.505, 415.166,35.6119" />
  <polygon fill="#FFFFFF" points="433.49,14.9625, 466.067,21.6413, 464.527,48.9634, 422.452,38.3191" />
  <polygon fill="#000000" points="431.726,18.696, 460.859,20.5737, 464.773,44.596, 429.178,40.0206" />
  <polygon fill="#FFFFFF" points="431.297,22.2871, 455.953,20.2575, 464.114,40.5506, 435.172,40.7911" />
  <polygon fill="#000000" points="431.982,25.5614, 451.59,20.6166, 462.67,36.9598, 440.293,40.7486" />
  <polygon fill="#FFFFFF" points="433.524,28.3786, 447.953,21.5339, 460.615,33.9281, 444.444,40.0457" />
  <polygon fill="#000000" points="435.643,30.6426, 445.153,22.8621, 458.158,31.523, 447.582,38.8586" />
  <polygon fill="#FFFFFF" points="443.226,24.4384, 455.523,29.7683, 449.725,37.3724, 438.062,32.3072" />
  <polygon fill="#000000" points="442.136,26.0999, 452.926,28.6429, 450.949,35.7668, 440.524,33.3767" />
  <polygon fill="#FFFFFF" points="441.782,27.6986, 450.556,28.0842, 451.383,34.2017, 442.815,33.9018" />
  <polygon fill="#000000" points="442.018,29.1145, 448.553,27.9962, 451.194,32.8054, 444.77,33.9703" />
  <polygon fill="#FFFFFF" points="442.669,30.2644, 447.005,28.261, 450.569,31.6666, 446.292,33.6944" />
  <polygon fill="#000000" points="445.942,28.7525, 449.695,30.831, 447.341,33.1969, 443.558,31.1059" />
  <polygon fill="#FFFFFF" points="445.336,29.3501, 448.742,30.3033, 447.939,32.5962, 444.519,31.6368" />
  <polygon fill="#000000" points="445.122,29.9502, 447.848,30.0531, 448.149,31.9944, 445.416,31.8886" />
  <polygon fill="#FFFFFF" points="445.202,30.4755, 447.109,30.0252, 448.068,31.4683, 446.157,31.9173" />
  <polygon fill="#000000" points="445.469,30.8786, 446.576,30.1511, 447.8,31.0649, 446.691,31.7918" />
  <polygon fill="#FFFFFF" points="446.257,30.3607, 447.447,30.8016, 447.01,31.5824, 445.821,31.1417" />
  <polygon fill="#000000" points="446.128,30.5924, 447.094,30.6708, 447.14,31.3508, 446.174,31.2724" />
  <!-- Shape 11 -->
  <polygon fill="#FFFFFF" points="440.946,77.0888, 487.609,46.7976, 485.943,125.56" />
  <polygon fill="#000000" points="445.612,74.0596, 487.443,54.6738, 481.443,120.713" />
  <polygon fill="#FFFFFF" points="450.176,71.9446, 486.788,61.8787, 477.534,115.623" />
  <polygon fill="#000000" points="454.503,70.7548, 485.694,68.2312, 474.3,110.46" />
  <polygon fill="#FFFFFF" points="458.474,70.4336, 484.244,73.607, 471.78,105.406" />
  <polygon fill="#000000" points="461.989,70.8664, 482.544,77.9443, 469.965,100.635" />
  <polygon fill="#FFFFFF" points="464.98,71.8963, 480.714,81.2459, 468.805,96.304" />
  <polygon fill="#000000" points="467.412,73.3417, 478.873,83.5739, 468.213,92.5306" />
  <polygon fill="#FFFFFF" points="469.288,75.0167, 477.128,85.0401, 468.082,89.3894" />
  <polygon fill="#000000" points="470.643,76.7488, 475.565,85.7916, 468.291,86.9058" />
  <polygon fill="#FFFFFF" points="471.538,78.3937, 474.241,85.9943, 468.718,85.0582" />
  <polygon fill="#000000" points="472.054,79.8454, 473.187,85.8155, 469.257,83.7853" />
  <polygon fill="#FFFFFF" points="469.817,82.9969, 472.281,81.04, 472.4,85.4093" />
  <polygon fill="#000000" points="470.332,82.5875, 472.306,81.9541, 471.86,84.9046" />
  <polygon fill="#FFFFFF" points="470.763,82.4492, 472.209,82.5982, 471.526,84.3988" />
  <polygon fill="#000000" points="471.092,82.4831, 472.053,83.0076, 471.353,83.9555" />
  <polygon fill="#FFFFFF" points="471.319,82.6072, 471.888,83.2318, 471.291,83.6072" />
  <polygon fill="#000000" points="471.459,82.7606, 471.741,83.324, 471.298,83.3616" />
  <polygon fill="#FFFFFF" points="471.531,82.9041, 471.628,83.3336, 471.339,83.2085" />
  <polygon fill="#000000" points="471.39,83.1282, 471.557,83.0174, 471.552,83.3006" />
  <polygon fill="#FFFFFF" points="471.435,83.098, 471.555,83.0947, 471.508,83.2535" />
  <polygon fill="#000000" points="471.469,83.097, 471.542,83.1395, 471.487,83.2097" />
  <polygon fill="#FFFFFF" points="471.49,83.1094, 471.526,83.1599, 471.482,83.1769" />
  <polygon fill="#000000" points="471.501,83.1246, 471.513,83.165, 471.484,83.1566" />
  <polygon fill="#FFFFFF" points="471.49,83.1467, 471.505,83.1371, 471.504,83.1624" />
  <!-- Shape 12 -->
  <polygon fill="#FFFFFF" points="485.943,125.56, 533.482,75.0545, 592.705,111.535, 592.182,240" />
  <polygon fill="#000000" points="490.697,120.509, 539.405,78.7026, 592.653,124.381, 581.558,228.556" />
  <polygon fill="#FFFFFF" points="496.006,115.952, 545.209,83.6816, 591.444,135.736, 571.655,216.779" />
  <polygon fill="#000000" points="501.812,112.144, 550.665,89.824, 589.109,145.299, 562.728,204.881" />
  <polygon fill="#FFFFFF" points="508.016,109.31, 555.547,96.8694, 585.758,152.866, 554.992,193.104" />
  <polygon fill="#000000" points="514.481,107.618, 559.656,104.485, 581.574,158.339, 548.603,181.708" />
  <polygon fill="#FFFFFF" points="521.031,107.164, 562.834,112.294, 576.793,161.727, 543.655,170.965" />
  <polygon fill="#000000" points="527.469,107.954, 564.984,119.907, 571.69,163.15, 540.171,161.139" />
  <polygon fill="#FFFFFF" points="533.584,109.902, 566.077,126.955, 566.552,162.822, 538.101,152.47" />
  <polygon fill="#000000" points="539.172,112.835, 566.159,133.124, 561.659,161.042, 537.324,145.148" />
  <polygon fill="#FFFFFF" points="544.057,116.507, 565.344,138.177, 557.254,158.165, 537.658,139.3" />
  <polygon fill="#000000" points="538.874,134.969, 548.101,120.625, 563.807,141.975, 553.531,154.58" />
  <polygon fill="#FFFFFF" points="540.71,132.115, 551.227,124.873, 561.762,144.483, 550.614,150.678" />
  <polygon fill="#000000" points="542.898,130.608, 553.418,128.952, 559.443,145.772, 548.554,146.817" />
  <polygon fill="#FFFFFF" points="545.181,130.249, 554.726,132.602, 557.08,145.999, 547.327,143.299" />
  <polygon fill="#000000" points="547.338,130.781, 555.258,135.63, 554.876,145.389, 546.842,140.35" />
  <polygon fill="#FFFFFF" points="549.199,131.92, 555.168,137.923, 552.988,144.205, 546.958,138.101" />
  <polygon fill="#000000" points="547.505,136.593, 550.655,133.385, 554.636,139.456, 551.517,142.715" />
  <polygon fill="#FFFFFF" points="548.302,135.781, 551.663,134.921, 553.847,140.28, 550.502,141.166" />
  <polygon fill="#000000" points="549.183,135.556, 552.235,136.325, 552.971,140.513, 549.925,139.756" />
  <polygon fill="#FFFFFF" points="550.01,135.764, 552.434,137.46, 552.145,140.307, 549.724,138.617" />
  <polygon fill="#000000" points="549.804,137.819, 550.689,136.239, 552.353,138.257, 551.467,139.834" />
  <polygon fill="#FFFFFF" points="550.06,137.362, 551.17,136.822, 552.097,138.713, 550.987,139.252" />
  <polygon fill="#000000" points="550.391,137.201, 551.446,137.386, 551.766,138.874, 550.71,138.689" />
  <polygon fill="#FFFFFF" points="550.715,137.258, 551.544,137.843, 551.442,138.817, 550.612,138.232" />
  <!-- Shape 13 -->
  <polygon fill="#000000" points="487.609,46.7976, 533.482,75.0545, 485.943,125.56" />
  <polygon fill="#FFFFFF" points="487.443,54.6738, 528.895,72.2289, 490.697,120.509" />
  <polygon fill="#000000" points="487.797,61.8334, 524.387,70.3197, 494.851,115.259" />
  <polygon fill="#FFFFFF" points="488.626,68.1109, 520.088,69.3226, 498.322,109.978" />
  <polygon fill="#000000" points="489.85,73.3967, 516.116,69.1696, 501.07,104.846" />
  <polygon fill="#FFFFFF" points="491.364,77.6423, 512.57,69.7403, 503.101,100.029" />
  <polygon fill="#000000" points="493.051,80.8604, 509.521,70.8762, 504.462,95.6753" />
  <polygon fill="#FFFFFF" points="507.01,72.3988, 505.234,91.8935, 494.792,83.1197" />
  <polygon fill="#000000" points="505.04,74.1275, 505.52,88.7499, 496.475,84.5345" />
  <polygon fill="#FFFFFF" points="503.584,75.8967, 505.438,86.2641, 498.013,85.2511" />
  <polygon fill="#000000" points="502.588,77.5688, 505.107,84.411, 499.34,85.4322" />
  <polygon fill="#FFFFFF" points="501.979,79.0432, 504.634,83.1281, 500.421,85.2407" />
  <polygon fill="#000000" points="501.673,80.2595, 504.113,82.3264, 501.248,84.8261" />
  <polygon fill="#FFFFFF" points="501.586,81.1956, 503.613,81.9027, 501.836,84.3137" />
  <polygon fill="#000000" points="501.639,81.8621, 503.18,81.7515, 502.216,83.7983" />
  <polygon fill="#FFFFFF" points="501.768,82.2929, 502.837,81.7761, 502.43,83.3429" />
  <polygon fill="#000000" points="502.59,81.8956, 502.524,82.9806, 501.921,82.5357" />
  <polygon fill="#FFFFFF" points="502.429,82.0493, 502.54,82.7202, 502.066,82.6425" />
  <polygon fill="#000000" points="502.339,82.1968, 502.512,82.5533, 502.184,82.6618" />
  <polygon fill="#FFFFFF" points="502.299,82.3166, 502.468,82.4615, 502.268,82.6339" />
  <polygon fill="#000000" points="502.291,82.4011, 502.423,82.4229, 502.321,82.588" />
  <polygon fill="#FFFFFF" points="502.299,82.4525, 502.386,82.4169, 502.349,82.5426" />
  <polygon fill="#000000" points="502.362,82.427, 502.36,82.5069, 502.313,82.478" />
  <polygon fill="#FFFFFF" points="502.348,82.4419, 502.36,82.4836, 502.327,82.4865" />
  <polygon fill="#000000" points="502.341,82.4554, 502.357,82.471, 502.337,82.4856" />
  <!-- Shape 14 -->
  <polygon fill="#FFFFFF" points="488.599,0, 593.16,0, 533.482,75.0545, 487.609,46.7976" />
  <polygon fill="#000000" points="499.055,0, 587.192,7.50545, 528.895,72.2289, 487.708,42.1178" />
  <polygon fill="#FFFFFF" points="508.609,0.813591, 580.873,14.5215, 524.43,68.9648, 488.938,37.5523" />
  <polygon fill="#000000" points="517.05,2.41467, 574.28,20.8805, 520.285,65.2958, 491.236,33.2612" />
  <polygon fill="#FFFFFF" points="494.468,29.3992, 524.215,4.72659, 567.52,26.4413, 516.648,61.2851" />
  <polygon fill="#000000" points="498.442,26.1029, 530,7.62767, 560.723,31.0964, 513.685,57.0251" />
  <polygon fill="#FFFFFF" points="502.923,23.4795, 534.363,10.9602, 554.044,34.7783, 511.52,52.6342" />
  <polygon fill="#000000" points="507.652,21.5966, 537.323,14.5425, 547.648,37.4638, 510.227,48.2493" />
  <polygon fill="#FFFFFF" points="512.364,20.4764, 538.963,18.1824, 541.706,39.1765, 509.818,44.0169" />
  <polygon fill="#000000" points="516.811,20.0928, 539.421,21.6926, 536.374,39.9858, 510.244,40.0809" />
  <polygon fill="#FFFFFF" points="520.781,20.3737, 538.886,24.9049, 531.786,40.0025, 511.397,36.571" />
  <polygon fill="#000000" points="524.113,21.2075, 537.58,27.6829, 528.034,39.3711, 513.124,33.5907" />
  <polygon fill="#FFFFFF" points="526.704,22.4533, 535.743,29.9317, 525.166,38.259, 515.238,31.2082" />
  <polygon fill="#000000" points="517.54,29.4502, 528.519,23.955, 533.619,31.6038, 523.172,36.8432" />
  <polygon fill="#FFFFFF" points="519.837,28.3006, 529.586,25.5551, 531.434,32.6999, 521.994,35.2966" />
  <polygon fill="#000000" points="521.958,27.7032, 529.988,27.1098, 529.38,33.2649, 521.525,33.7742" />
  <polygon fill="#FFFFFF" points="523.773,27.5691, 529.851,28.5009, 527.604,33.38, 521.623,32.4022" />
  <polygon fill="#000000" points="525.198,27.7875, 529.324,29.6445, 526.202,33.1508, 522.127,31.2693" />
  <polygon fill="#FFFFFF" points="522.872,30.4239, 526.2,28.2384, 528.566,30.4959, 525.213,32.694" />
  <polygon fill="#000000" points="523.708,29.8749, 526.794,28.8055, 527.724,31.048, 524.625,32.1237" />
  <polygon fill="#FFFFFF" points="524.509,29.5973, 527.035,29.3876, 526.919,31.3273, 524.387,31.5399" />
  <polygon fill="#000000" points="525.186,29.5411, 527.004,29.9075, 526.241,31.3843, 524.42,31.0193" />
  <polygon fill="#FFFFFF" points="525.689,29.6424, 526.793,30.3157, 525.737,31.2834, 524.632,30.6107" />
  <polygon fill="#000000" points="524.933,30.3349, 526.003,29.8341, 526.492,30.5913, 525.422,31.0918" />
  <polygon fill="#FFFFFF" points="525.247,30.1881, 526.147,30.0561, 526.179,30.738, 525.279,30.8699" />
  <!-- Shape 15 -->
  <polygon fill="#000000" points="593.16,0, 592.705,111.535, 533.482,75.0545" />
  <polygon fill="#FFFFFF" points="593.114,11.1535, 586.783,107.887, 539.45,67.5491" />
  <polygon fill="#000000" points="545.291,61.4104, 592.425,21.6829, 581.631,103.496" />
  <polygon fill="#FFFFFF" points="550.839,56.7345, 591.155,31.3123, 577.354,98.5426" />
  <polygon fill="#000000" points="555.941,53.5173, 589.408,39.8203, 573.998,93.2518" />
  <polygon fill="#FFFFFF" points="560.472,51.6627, 587.322,47.0549, 571.553,87.8717" />
  <polygon fill="#000000" points="564.345,50.9981, 585.047,52.9428, 569.955,82.6486" />
  <polygon fill="#FFFFFF" points="567.515,51.2958, 582.736,57.4907, 569.096,77.8029" />
  <polygon fill="#000000" points="569.98,52.2991, 580.527,60.7803, 568.84,73.5101" />
  <polygon fill="#FFFFFF" points="571.781,53.7477, 578.531,62.9545, 569.035,69.8872" />
  <polygon fill="#000000" points="572.994,55.4017, 576.825,64.2, 569.528,66.9878" />
  <polygon fill="#FFFFFF" points="573.716,57.0601, 575.45,64.7255, 570.182,64.8038" />
  <polygon fill="#000000" points="574.058,58.5729, 574.41,64.7409, 570.879,63.2756" />
  <polygon fill="#FFFFFF" points="574.131,59.8447, 573.682,64.4388, 571.535,62.3059" />
  <polygon fill="#000000" points="572.093,61.7766, 574.034,60.8327, 573.22,63.9801" />
  <polygon fill="#FFFFFF" points="572.528,61.5653, 573.852,61.5374, 572.968,63.4867" />
  <polygon fill="#000000" points="572.836,61.5588, 573.646,61.9911, 572.865,63.0395" />
  <polygon fill="#FFFFFF" points="573.032,61.6632, 573.458,62.2444, 572.858,62.6818" />
  <polygon fill="#000000" points="573.138,61.8088, 573.307,62.3539, 572.902,62.4267" />
  <polygon fill="#FFFFFF" points="573.182,61.9501, 573.202,62.3728, 572.963,62.2665" />
  <polygon fill="#000000" points="573.022,62.1816, 573.188,62.0635, 573.138,62.3443" />
  <polygon fill="#FFFFFF" points="573.068,62.1489, 573.174,62.1413, 573.106,62.2992" />
  <polygon fill="#000000" points="573.098,62.1467, 573.154,62.1864, 573.095,62.2563" />
  <polygon fill="#FFFFFF" points="573.115,62.1584, 573.137,62.207, 573.096,62.224" />
  <polygon fill="#000000" points="573.121,62.1732, 573.124,62.2122, 573.102,62.2041" />
  <!-- Shape 16 -->
  <polygon fill="#FFFFFF" points="593.16,0, 728.013,0, 592.705,111.535" />
  <polygon fill="#000000" points="593.138,5.29791, 721.607,0, 599.133,106.237" />
  <polygon fill="#FFFFFF" points="593.474,10.9555, 714.407,0.296948, 605.997,100.282" />
  <polygon fill="#000000" points="594.283,16.7261, 706.595,0.985493, 613.001,93.8233" />
  <polygon fill="#FFFFFF" points="595.652,22.3657, 698.379,2.13691, 619.847,87.0322" />
  <polygon fill="#000000" points="597.629,27.649, 689.986,3.78961, 626.263,80.0963" />
  <polygon fill="#FFFFFF" points="600.213,32.3823, 681.651,5.94292, 632.014,73.2096" />
  <polygon fill="#000000" points="603.355,36.4161, 673.605,8.55513, 636.918,66.5637" />
  <polygon fill="#FFFFFF" points="666.064,11.546, 640.856,60.3364, 606.958,39.6524" />
  <polygon fill="#000000" points="659.213,14.8035, 643.778,54.6816, 610.887,42.0497" />
  <polygon fill="#FFFFFF" points="653.199,18.1943, 645.699,49.7188, 614.98,43.6217" />
  <polygon fill="#000000" points="648.116,21.5762, 646.696,45.526, 619.066,44.4326" />
  <polygon fill="#FFFFFF" points="644.004,24.8115, 646.897,42.1359, 622.977,44.5874" />
  <polygon fill="#000000" points="640.848,27.7799, 646.463,39.5355, 626.567,44.2194" />
  <polygon fill="#FFFFFF" points="638.582,30.388, 645.572,37.6705, 629.724,43.4763" />
  <polygon fill="#000000" points="637.101,32.5764, 644.403,36.4529, 632.374,42.5056" />
  <polygon fill="#FFFFFF" points="636.27,34.3214, 643.12,35.7716, 634.488,41.4418" />
  <polygon fill="#000000" points="635.942,35.6337, 641.858,35.5043, 636.079,40.3968" />
  <polygon fill="#FFFFFF" points="635.968,36.5523, 640.717,35.5293, 637.193,39.4533" />
  <polygon fill="#000000" points="636.215,37.1366, 639.76,35.7353, 637.903,38.663" />
  <polygon fill="#FFFFFF" points="639.016,36.0295, 638.293,38.0483, 636.569,37.457" />
  <polygon fill="#000000" points="638.481,36.3414, 638.451,37.6072, 636.946,37.5862" />
  <polygon fill="#FFFFFF" points="638.133,36.624, 638.458,37.3198, 637.288,37.591" />
  <polygon fill="#000000" points="637.934,36.8519, 638.381,37.1559, 637.563,37.5271" />
  <polygon fill="#FFFFFF" points="637.843,37.0167, 638.272,37.0817, 637.763,37.4365" />
  <!-- Shape 17 -->
  <polygon fill="#000000" points="592.705,111.535, 778.827,240, 592.182,240" />
  <polygon fill="#FFFFFF" points="592.681,117.637, 769.987,233.898, 601.048,240" />
  <polygon fill="#000000" points="593.15,124.502, 760.04,227.376, 610.525,239.658" />
  <polygon fill="#FFFFFF" points="594.274,131.952, 749.242,220.72, 620.199,238.863" />
  <polygon fill="#000000" points="596.175,139.789, 737.883,214.213, 629.658,237.533" />
  <polygon fill="#FFFFFF" points="598.917,147.794, 726.277,208.118, 638.522,235.623" />
  <polygon fill="#000000" points="602.501,155.743, 714.751,202.658, 646.463,233.134" />
  <polygon fill="#FFFFFF" points="606.858,163.412, 703.627,198.009, 653.231,230.114" />
  <polygon fill="#000000" points="611.852,170.596, 693.205,194.283, 658.658,226.656" />
  <polygon fill="#FFFFFF" points="617.296,177.116, 683.744,191.528, 662.676,222.891" />
  <polygon fill="#000000" points="622.964,182.833, 675.444,189.728, 665.307,218.974" />
  <polygon fill="#FFFFFF" points="628.617,187.658, 668.438,188.808, 666.661,215.07" />
  <polygon fill="#000000" points="634.023,191.553, 662.779,188.644, 666.913,211.338" />
  <polygon fill="#FFFFFF" points="638.979,194.535, 658.446,189.082, 666.29,207.918" />
  <polygon fill="#000000" points="643.33,196.667, 655.345,189.951, 665.041,204.917" />
  <polygon fill="#FFFFFF" points="653.327,191.079, 663.413,202.404, 646.975,198.052" />
  <polygon fill="#000000" points="652.206,192.309, 661.633,200.405, 649.876,198.82" />
  <polygon fill="#FFFFFF" points="651.775,193.514, 659.888,198.907, 652.052,199.114" />
  <polygon fill="#000000" points="651.829,194.599, 658.316,197.862, 653.57,199.073" />
  <polygon fill="#FFFFFF" points="652.181,195.504, 657.004,197.202, 654.53,198.828" />
  <polygon fill="#000000" points="652.676,196.205, 655.987,196.844, 655.052,198.485" />
  <polygon fill="#FFFFFF" points="653.198,196.706, 655.26,196.704, 655.257,198.125" />
  <polygon fill="#000000" points="653.668,197.03, 654.79,196.704, 655.258,197.801" />
  <polygon fill="#FFFFFF" points="654.524,196.781, 655.147,197.541, 654.044,197.212" />
  <polygon fill="#000000" points="654.406,196.887, 654.994,197.355, 654.315,197.293" />
  <!-- Shape 18 -->
  <polygon fill="#FFFFFF" points="900,0, 900,240, 778.827,240" />
  <polygon fill="#000000" points="894.244,11.4, 900,228.6, 784.583,240" />
  <polygon fill="#FFFFFF" points="888.142,24.1216, 899.68,216.513, 791.006,239.366" />
  <polygon fill="#000000" points="881.944,37.8542, 898.944,204.238, 797.939,237.908" />
  <polygon fill="#FFFFFF" points="875.9,52.248, 897.72,192.267, 805.207,235.485" />
  <polygon fill="#000000" points="870.238,66.9253, 895.973,181.051, 812.617,232.023" />
  <polygon fill="#FFFFFF" points="865.153,81.4952, 893.702,170.98, 819.973,227.525" />
  <polygon fill="#000000" points="860.797,95.5725, 890.949,162.353, 827.081,222.074" />
  <polygon fill="#FFFFFF" points="857.272,108.798, 887.797,155.372, 833.758,215.83" />
  <polygon fill="#000000" points="854.622,120.861, 884.357,150.123, 839.848,209.017" />
  <polygon fill="#FFFFFF" points="852.837,131.514, 880.763,146.586, 845.227,201.899" />
  <polygon fill="#000000" points="851.855,140.594, 877.161,144.642, 849.811,194.764" />
  <polygon fill="#FFFFFF" points="851.575,148.023, 873.69,144.087, 853.562,187.89" />
  <polygon fill="#000000" points="851.864,153.816, 870.477,144.659, 856.487,181.525" />
  <polygon fill="#FFFFFF" points="852.573,158.068, 867.621,146.064, 858.634,175.868" />
  <polygon fill="#000000" points="865.189,148.004, 860.086,171.052, 853.552,160.944" />
  <polygon fill="#FFFFFF" points="863.214,150.201, 860.952,167.139, 854.662,162.66" />
  <polygon fill="#000000" points="861.692,152.417, 861.355,164.126, 855.781,163.457" />
  <polygon fill="#FFFFFF" points="860.592,154.471, 861.417,161.947, 856.818,163.581" />
  <polygon fill="#000000" points="859.859,156.24, 861.257,160.496, 857.711,163.264" />
  <polygon fill="#FFFFFF" points="859.425,157.662, 860.974,159.635, 858.428,162.704" />
  <polygon fill="#000000" points="859.215,158.723, 860.648,159.219, 858.964,162.058" />
  <polygon fill="#FFFFFF" points="859.16,159.452, 860.335,159.111, 859.333,161.437" />
  <polygon fill="#000000" points="859.199,159.902, 860.068,159.188, 859.56,160.91" />
  <polygon fill="#FFFFFF" points="859.864,159.356, 859.679,160.505, 859.284,160.139" />
  <!-- Shape 19 -->
  <polygon fill="#000000" points="592.705,111.535, 728.013,0, 847.875,103.241, 778.827,240" />
  <polygon fill="#FFFFFF" points="599.133,106.237, 733.706,4.90394, 844.595,109.737, 769.987,233.898" />
  <polygon fill="#000000" points="606.709,100.532, 739.95,10.806, 840.395,116.727, 760.367,226.711" />
  <polygon fill="#FFFFFF" points="615.383,94.6907, 746.489,17.7015, 835.185,123.887, 750.364,218.496" />
  <polygon fill="#000000" points="625.072,89.0012, 753.043,25.5486, 828.917,130.879, 740.389,209.347" />
  <polygon fill="#FFFFFF" points="635.655,83.7537, 759.318,34.2594, 821.596,137.368, 730.852,199.395" />
  <polygon fill="#000000" points="646.97,79.225, 765.016,43.6938, 813.293,143.043, 722.142,188.813" />
  <polygon fill="#FFFFFF" points="658.81,75.6612, 769.858,53.6586, 804.15,147.634, 714.602,177.822" />
  <polygon fill="#000000" points="670.926,73.2607, 773.6,63.9113, 794.381,150.928, 708.515,166.676" />
  <polygon fill="#FFFFFF" points="683.031,72.1584, 776.05,74.1705, 784.257,152.784, 704.083,155.662" />
  <polygon fill="#000000" points="694.816,72.4134, 777.09,84.1309, 774.099,153.149, 701.416,145.082" />
  <polygon fill="#FFFFFF" points="705.964,74.0011, 776.684,93.4829, 764.25,152.056, 700.522,135.236" />
  <polygon fill="#000000" points="716.169,76.8123, 774.89,101.935, 755.054,149.629, 701.307,126.4" />
  <polygon fill="#FFFFFF" points="725.159,80.6586, 771.853,109.237, 746.826,146.072, 703.583,118.808" />
  <polygon fill="#000000" points="707.076,112.631, 732.719,85.2854, 767.801,115.201, 739.825,141.658" />
  <polygon fill="#FFFFFF" points="711.453,107.963, 738.708,90.3919, 763.026,119.717, 734.234,136.703" />
  <polygon fill="#000000" points="716.345,104.809, 743.073,95.6558, 757.858,122.766, 730.145,131.545" />
  <polygon fill="#FFFFFF" points="721.378,103.086, 745.857,100.761, 752.639,124.419, 727.547,126.51" />
  <polygon fill="#000000" points="726.203,102.627, 747.194,105.424, 747.694,124.831, 726.331,121.893" />
  <polygon fill="#FFFFFF" points="730.525,103.203, 747.297,109.42, 743.295,124.226, 726.305,117.926" />
  <polygon fill="#000000" points="734.126,104.538, 746.437,112.599, 739.647,122.874, 727.211,114.765" />
  <polygon fill="#FFFFFF" points="728.756,112.48, 736.877,106.339, 744.92,114.895, 736.868,121.061" />
  <polygon fill="#000000" points="730.643,111.053, 738.746,108.327, 743.049,116.328, 734.983,119.068" />
  <polygon fill="#FFFFFF" points="732.596,110.396, 739.783,110.256, 741.105,116.988, 733.937,117.136" />
  <polygon fill="#000000" points="734.392,110.361, 740.113,111.938, 739.313,117.025, 733.602,115.451" />
  <polygon fill="#FFFFFF" points="735.872,110.769, 739.906,113.254, 737.836,116.618, 733.806,114.134" />
  <polygon fill="#000000" points="734.359,113.234, 736.952,111.434, 739.353,114.154, 736.758,115.954" />
  <polygon fill="#FFFFFF" points="735.075,112.737, 737.615,112.185, 738.636,114.651, 736.095,115.202" />
  <polygon fill="#000000" points="735.799,112.58, 737.906,112.888, 737.911,114.808, 735.804,114.499" />
  <polygon fill="#FFFFFF" points="736.419,112.67, 737.908,113.453, 737.292,114.718, 735.803,113.935" />
  <polygon fill="#000000" points="735.989,113.552, 736.869,112.907, 737.721,113.836, 736.841,114.481" />
  <polygon fill="#FFFFFF" points="736.263,113.351, 737.135,113.196, 737.447,114.037, 736.576,114.191" />
  <polygon fill="#000000" points="736.542,113.302, 737.235,113.465, 737.168,114.086, 736.476,113.922" />
  <polygon fill="#FFFFFF" points="736.77,113.356, 737.213,113.67, 736.94,114.032, 736.498,113.718" />
  <polygon fill="#000000" points="736.59,113.596, 736.92,113.462, 737.121,113.792, 736.791,113.926" />
  <polygon fill="#FFFFFF" points="736.704,113.549, 736.989,113.576, 737.006,113.839, 736.721,113.812" />
  <polygon fill="#000000" points="736.806,113.559, 736.995,113.67, 736.905,113.829, 736.715,113.718" />
  <polygon fill="#FFFFFF" points="736.748,113.66, 736.875,113.599, 736.962,113.728, 736.836,113.789" />
  <polygon fill="#000000" points="736.795,113.637, 736.907,113.647, 736.915,113.75, 736.803,113.741" />
  <!-- Shape 20 -->
  <polygon fill="#FFFFFF" points="728.013,0, 900,0, 847.875,103.241" />
  <polygon fill="#000000" points="736.182,0, 897.524,4.90394, 842.182,98.3368" />
  <polygon fill="#FFFFFF" points="745.226,0.274866, 894.422,10.1408, 836.24,92.825" />
  <polygon fill="#000000" points="754.864,0.912208, 890.664,15.4822, 830.361,86.8463" />
  <polygon fill="#FFFFFF" points="764.797,1.97801, 886.252,20.7025, 824.838,80.5602" />
  <polygon fill="#000000" points="774.72,3.5078, 881.235,25.5929, 819.933,74.14" />
  <polygon fill="#FFFFFF" points="784.333,5.50098, 875.702,29.9743, 815.853,67.7655" />
  <polygon fill="#000000" points="793.361,7.91894, 869.789,33.708, 812.738,61.6137" />
  <polygon fill="#FFFFFF" points="801.565,10.6874, 863.665,36.7037, 810.658,55.8496" />
  <polygon fill="#000000" points="808.763,13.7027, 857.521,38.9227, 809.604,50.6153" />
  <polygon fill="#FFFFFF" points="814.831,16.8413, 851.558,40.3779, 809.5,46.0215" />
  <polygon fill="#000000" points="819.715,19.9717, 845.964,41.1285, 810.209,42.1406" />
  <polygon fill="#FFFFFF" points="823.431,22.9664, 840.903,41.2717, 811.554,39.0026" />
  <polygon fill="#000000" points="826.053,25.7141, 836.498,40.9311, 813.337,36.5955" />
  <polygon fill="#FFFFFF" points="827.71,28.1282, 832.823,40.2433, 815.354,34.8692" />
  <polygon fill="#000000" points="817.42,33.7421, 828.565,30.1539, 829.903,39.3447" />
  <polygon fill="#FFFFFF" points="819.379,33.1115, 828.8,31.7692, 827.709,38.3601" />
  <polygon fill="#000000" points="821.115,32.8641, 828.599,32.9839, 826.174,37.3928" />
  <polygon fill="#FFFFFF" points="822.559,32.8872, 828.131,33.8341, 825.198,36.5194" />
  <polygon fill="#000000" points="823.681,33.0779, 827.541,34.375, 824.667,35.7879" />
  <polygon fill="#FFFFFF" points="824.491,33.3502, 826.937,34.6716, 824.46,35.2189" />
  <polygon fill="#000000" points="825.026,33.6389, 826.396,34.7912, 824.467,34.8106" />
  <polygon fill="#FFFFFF" points="825.337,33.9006, 825.958,34.7956, 824.594,34.5446" />
  <polygon fill="#000000" points="824.769,34.3929, 825.483,34.1114, 825.636,34.7365" />
  <polygon fill="#FFFFFF" points="824.943,34.3241, 825.521,34.264, 825.425,34.6526" />
</svg>
