<?xml version="1.0" standalone="no"?>
<!DOCTYPE svg PUBLIC "-//W3C//DTD SVG 1.1//EN" "http://www.w3.org/Graphics/SVG/1.1/DTD/svg11.dtd">
<svg viewBox="0, 0, 2400, 300" xmlns="http://www.w3.org/2000/svg" version="1.1">
  <!-- Shape 1 -->
  <polygon fill="#000000" points="0,102.075, 293.196,230.799, 231.922,300, 0,300" />
  <polygon fill="#FFFFFF" points="0,111.476, 279.269,224.685, 234.832,296.713, 11.0163,300" />
  <polygon fill="#000000" points="0.618014,122.052, 263.602,218.334, 237.325,292.672, 23.5724,299.816" />
  <polygon fill="#FFFFFF" points="2.10316,133.554, 246.587,212.104, 239.025,287.862, 37.4022,299.353" />
  <polygon fill="#000000" points="4.69058,145.707, 228.666,206.347, 239.58,282.309, 52.1812,298.511" />
  <polygon fill="#FFFFFF" points="8.58006,158.221, 210.323,201.38, 238.686,276.088, 67.5291,297.184" />
  <polygon fill="#000000" points="13.9149,170.798, 192.065,197.474, 236.119,269.327, 83.0188,295.275" />
  <polygon fill="#FFFFFF" points="20.7631,183.133, 174.41,194.831, 231.753,262.206, 98.191,292.704" />
  <polygon fill="#000000" points="29.1021,194.934, 157.863,193.571, 225.577,254.95, 112.576,289.419" />
  <polygon fill="#FFFFFF" points="38.8101,205.923, 142.888,193.729, 217.702,247.812, 125.718,285.41" />
  <polygon fill="#000000" points="49.6649,215.851, 129.888,195.252, 208.358,241.057, 137.207,280.714" />
  <polygon fill="#FFFFFF" points="61.3517,224.51, 119.179,198.002, 197.882,234.942, 146.705,275.42" />
  <polygon fill="#000000" points="73.4804,231.744, 110.961,201.769, 186.698,229.693, 153.978,269.668" />
  <polygon fill="#FFFFFF" points="105.313,206.286, 175.285,225.485, 158.909,263.644, 85.6113,237.459" />
  <polygon fill="#000000" points="102.174,211.252, 164.138,222.426, 161.517,257.565, 97.2876,241.631" />
  <polygon fill="#FFFFFF" points="101.354,216.353, 153.735,220.55, 161.957,251.665, 108.072,244.306" />
  <polygon fill="#000000" points="102.54,221.286, 144.489,219.809, 160.506,246.173, 117.583,245.605" />
  <polygon fill="#FFFFFF" points="105.324,225.788, 136.724,220.083, 157.541,241.293, 125.528,245.71" />
  <polygon fill="#000000" points="109.238,229.647, 130.642,221.188, 153.509,237.185, 131.729,244.855" />
  <polygon fill="#FFFFFF" points="113.788,232.723, 126.312,222.899, 148.883,233.949, 136.135,243.303" />
  <polygon fill="#000000" points="123.671,224.971, 144.123,231.618, 138.824,241.33, 118.501,234.955" />
  <polygon fill="#FFFFFF" points="122.536,227.162, 139.634,230.159, 139.987,239.198, 122.961,236.354" />
  <polygon fill="#000000" points="122.633,229.259, 135.734,229.476, 139.906,237.137, 126.845,237.003" />
  <polygon fill="#FFFFFF" points="123.63,231.092, 132.633,229.424, 138.919,235.323, 129.937,237.034" />
  <!-- Shape 2 -->
  <polygon fill="#FFFFFF" points="293.196,230.799, 450.814,300, 231.922,300" />
  <polygon fill="#000000" points="308.958,237.719, 428.925,300, 238.049,293.08" />
  <polygon fill="#FFFFFF" points="322.016,244.499, 408.148,299.247, 245.768,287.054" />
  <polygon fill="#000000" points="332.154,250.942, 389.036,297.812, 254.742,282.045" />
  <polygon fill="#FFFFFF" points="339.352,256.874, 372.041,295.816, 264.539,278.109" />
  <polygon fill="#000000" points="274.668,275.234, 343.778,262.147, 357.485,293.419" />
  <polygon fill="#FFFFFF" points="284.637,273.346, 345.756,266.658, 345.539,290.796" />
  <polygon fill="#000000" points="293.995,272.322, 345.722,270.353, 336.215,288.124" />
  <polygon fill="#FFFFFF" points="302.372,272.003, 344.183,273.231, 329.377,285.565" />
  <polygon fill="#000000" points="309.513,272.213, 341.654,275.338, 324.765,283.249" />
  <polygon fill="#FFFFFF" points="315.287,272.774, 338.62,276.759, 322.025,281.266" />
  <polygon fill="#000000" points="319.685,273.525, 335.492,277.609, 320.755,279.665" />
  <polygon fill="#FFFFFF" points="322.805,274.331, 332.583,278.014, 320.544,278.454" />
  <!-- Shape 3 -->
  <polygon fill="#000000" points="0,0, 281.433,0, 285.684,83.4116, 114.483,152.337, 0,102.075" />
  <polygon fill="#FFFFFF" points="28.1433,0, 281.858,8.34116, 268.564,90.3041, 103.035,147.311, 0,91.8672" />
  <polygon fill="#000000" points="55.7602,0.907935, 280.411,17.2628, 250.546,96.5093, 91.8192,141.276, 3.0634,81.8675" />
  <polygon fill="#FFFFFF" points="82.2016,2.83291, 276.896,26.5901, 231.864,101.778, 81.3726,134.283, 9.26581,72.3385" />
  <polygon fill="#000000" points="18.4958,63.5426, 106.84,5.83938, 271.197,36.1052, 212.819,105.892, 72.2475,126.444" />
  <polygon fill="#FFFFFF" points="30.4577,55.7296, 129.094,9.93737, 263.293,45.5543, 193.786,108.675, 64.9695,117.927" />
  <polygon fill="#000000" points="44.686,49.1241, 148.452,15.0751, 253.267,54.6594, 175.204,110.009, 59.9912,108.955" />
  <polygon fill="#FFFFFF" points="60.5726,43.9112, 164.499,21.1355, 241.315,63.1335, 157.565,109.848, 57.648,99.7952" />
  <polygon fill="#000000" points="77.4036,40.2226, 176.94,27.9371, 227.752,70.6989, 141.383,108.22, 58.1216,90.7448" />
  <polygon fill="#FFFFFF" points="94.4043,38.1243, 185.618,35.2408, 213,77.1075, 127.162,105.235, 61.415,82.1156" />
  <polygon fill="#000000" points="110.791,37.6062, 190.538,42.7621, 197.579,82.1607, 115.351,101.082, 67.3415,74.2126" />
  <polygon fill="#FFFFFF" points="75.5317,67.3123, 125.823,38.5781, 191.865,50.1888, 182.079,85.7273, 106.301,96.0169" />
  <polygon fill="#000000" points="85.4568,61.6416, 138.857,40.8695, 189.934,57.2023, 167.124,87.758, 100.229,90.3521" />
  <polygon fill="#FFFFFF" points="96.4678,57.3584, 149.389,44.2373, 185.23,63.5029, 153.331,88.2929, 97.1828,84.432" />
  <polygon fill="#000000" points="107.848,54.5367, 157.096,48.3804, 178.37,68.834, 141.256,87.4626, 97.029,78.6098" />
  <polygon fill="#FFFFFF" points="118.875,53.1583, 161.86,52.9599, 170.06,73.0049, 131.354,85.4804, 99.4515,73.2198" />
  <polygon fill="#000000" points="128.88,53.1121, 163.768,57.6254, 161.051,75.9086, 123.928,82.6268, 103.972,68.5505" />
  <polygon fill="#FFFFFF" points="109.99,64.8206, 137.309,54.2025, 163.112,62.0426, 152.083,77.5317, 119.107,79.226" />
  <polygon fill="#000000" points="116.832,62.1613, 143.771,56.1661, 160.35,65.9219, 143.824,77.956, 116.824,75.6181" />
  <polygon fill="#FFFFFF" points="123.817,60.6067, 148.07,58.6958, 156.065,69.0423, 136.823,77.3498, 116.826,72.1288" />
  <polygon fill="#000000" points="130.321,60.0943, 150.214,61.4702, 150.905,71.27, 131.46,75.9498, 118.701,69.0391" />
  <polygon fill="#FFFFFF" points="121.919,66.5614, 135.831,60.4754, 150.405,64.1847, 145.519,72.5663, 127.926,74.0355" />
  <polygon fill="#000000" points="125.896,64.8217, 139.997,61.5357, 149.008,66.5806, 140.49,72.9863, 126.209,71.8991" />
  <polygon fill="#FFFFFF" points="130.052,63.8534, 142.653,63.0225, 146.498,68.4683, 136.281,72.6659, 126.117,69.8134" />
  <!-- Shape 4 -->
  <polygon fill="#FFFFFF" points="114.483,152.337, 285.684,83.4116, 293.196,230.799" />
  <polygon fill="#000000" points="268.564,90.3041, 292.445,216.06, 132.354,160.183" />
  <polygon fill="#FFFFFF" points="253.731,97.914, 289.844,202.366, 149.788,166.268" />
  <polygon fill="#000000" points="241.486,105.966, 285.59,190.061, 166.287,170.521" />
  <polygon fill="#FFFFFF" points="231.959,114.145, 280.002,179.406, 181.402,172.996" />
  <polygon fill="#000000" points="225.103,122.125, 273.487,170.557, 194.772,173.866" />
  <polygon fill="#FFFFFF" points="220.72,129.602, 266.496,163.559, 206.147,173.388" />
  <!-- Shape 5 -->
  <polygon fill="#FFFFFF" points="281.433,0, 484.691,0, 285.684,83.4116" />
  <polygon fill="#000000" points="281.858,8.34116, 464.365,0, 305.585,75.0704" />
  <polygon fill="#FFFFFF" points="284.439,15.598, 444.517,0.907101, 322.852,66.9065" />
  <polygon fill="#000000" points="288.952,21.6267, 425.708,2.63328, 337.148,59.1516" />
  <polygon fill="#FFFFFF" points="295.037,26.3642, 408.443,5.0312, 348.329,52.0161" />
  <polygon fill="#000000" points="393.133,7.91116, 356.444,45.6732, 302.231,29.8272" />
  <polygon fill="#FFFFFF" points="380.066,11.0616, 361.718,40.2449, 310.024,32.1051" />
  <polygon fill="#000000" points="369.384,14.2707, 364.516,35.7944, 317.908,33.3464" />
  <polygon fill="#FFFFFF" points="361.084,17.3467, 365.301,32.3237, 325.423,33.7411" />
  <polygon fill="#000000" points="355.021,20.1337, 364.584,29.7776, 332.202,33.5002" />
  <polygon fill="#FFFFFF" points="350.943,22.523, 362.875,28.0538, 337.991,32.8348" />
  <!-- Shape 6 -->
  <polygon fill="#000000" points="285.684,83.4116, 484.691,0, 747.883,0, 293.196,230.799" />
  <polygon fill="#FFFFFF" points="295.137,79.4495, 497.192,0, 726.285,10.963, 292.839,223.798" />
  <polygon fill="#000000" points="306.472,74.9924, 510.044,0.615022, 701.969,22.903, 292.968,215.7" />
  <polygon fill="#FFFFFF" points="319.643,70.1802, 522.462,2.05706, 675.506,35.377, 293.842,206.597" />
  <polygon fill="#000000" points="334.51,65.1867, 533.68,4.49941, 647.53,47.9274, 295.733,196.597" />
  <polygon fill="#FFFFFF" points="350.822,60.2165, 543.004,8.05616, 618.718,60.1035, 298.909,185.835" />
  <polygon fill="#000000" points="368.215,55.4959, 549.856,12.7664, 589.775,71.4821, 303.607,174.466" />
  <polygon fill="#FFFFFF" points="386.215,51.2615, 553.812,18.5852, 561.416,81.6879, 310.01,162.676" />
  <polygon fill="#000000" points="404.265,47.7422, 554.631,25.3813, 534.34,90.4103, 318.217,150.677" />
  <polygon fill="#FFFFFF" points="421.753,45.1416, 552.271,32.9442, 509.205,97.4193, 328.224,138.706" />
  <polygon fill="#000000" points="438.055,43.6182, 546.892,40.9971, 486.6,102.576, 339.906,127.019" />
  <polygon fill="#FFFFFF" points="452.585,43.2683, 538.843,49.2179, 467.016,105.839, 353.009,115.885" />
  <polygon fill="#000000" points="464.842,44.1137, 528.637,57.2638, 450.816,107.267, 367.159,105.567" />
  <polygon fill="#FFFFFF" points="474.456,46.0954, 516.909,64.7992, 438.209,107.011, 381.88,96.3056" />
  <polygon fill="#000000" points="481.219,49.075, 504.372,71.5235, 429.236,105.305, 396.627,88.3071" />
  <polygon fill="#FFFFFF" points="485.106,52.8441, 491.757,77.1955, 423.761,102.451, 410.83,81.72" />
  <polygon fill="#000000" points="423.94,76.6234, 486.28,57.1421, 479.755,81.6531, 421.478,98.7922" />
  <polygon fill="#FFFFFF" points="435.479,73.0174, 485.072,61.6791, 468.968,84.8255, 421.934,94.6887" />
  <polygon fill="#000000" points="445.085,70.8212, 481.953,66.1625, 459.858,86.736, 424.558,90.491" />
  <polygon fill="#FFFFFF" points="452.543,69.8787, 477.483,70.3246, 452.717,87.4957, 428.71,86.5118" />
  <polygon fill="#000000" points="457.803,69.9728, 472.26,73.946, 447.654,87.2882, 433.737,83.0039" />
  <polygon fill="#FFFFFF" points="460.976,70.8449, 466.859,76.8746, 444.599,86.3478, 439.019,80.1436" />
  <polygon fill="#000000" points="444.028,78.0225, 462.318,72.2203, 461.781,79.0354, 443.326,84.9326" />
  <polygon fill="#FFFFFF" points="448.357,76.6491, 462.191,73.8334, 457.413,80.4313, 443.492,83.297" />
  <!-- Shape 7 -->
  <polygon fill="#FFFFFF" points="747.883,0, 742.671,300, 450.814,300, 293.196,230.799" />
  <polygon fill="#000000" points="726.285,10.963, 742.919,285.75, 464.678,300, 300.683,234.086" />
  <polygon fill="#FFFFFF" points="702.409,23.4802, 741.985,270.334, 480.287,299.201, 309.883,237.784" />
  <polygon fill="#000000" points="677.012,37.3456, 739.425,254.363, 497.219,297.333, 320.908,241.758" />
  <polygon fill="#FFFFFF" points="650.91,52.329, 734.85,238.456, 514.972,294.183, 333.832,245.831" />
  <polygon fill="#000000" points="624.941,68.1769, 727.975,223.212, 532.98,289.619, 348.667,249.791" />
  <polygon fill="#FFFFFF" points="599.938,84.613, 718.651,209.181, 550.627,283.609, 365.347,253.396" />
  <polygon fill="#000000" points="576.69,101.339, 706.886,196.836, 567.279,276.233, 383.709,256.39" />
  <polygon fill="#FFFFFF" points="555.906,118.038, 692.864,186.551, 582.314,267.682, 403.479,258.527" />
  <polygon fill="#000000" points="538.179,134.377, 676.936,178.583, 595.171,258.247, 424.278,259.592" />
  <polygon fill="#FFFFFF" points="523.953,150.016, 659.605,173.062, 605.384,248.297, 445.622,259.424" />
  <!-- Shape 8 -->
  <polygon fill="#FFFFFF" points="747.883,0, 985.016,0, 1175.85,96.3609, 742.671,300" />
  <polygon fill="#000000" points="759.147,0, 994.081,4.57714, 1155.28,106.034, 742.919,285.75" />
  <polygon fill="#FFFFFF" points="772.409,0.25838, 1003.18,10.3044, 1132,116.179, 743.835,269.619" />
  <polygon fill="#000000" points="787.501,0.915388, 1011.61,17.2286, 1106.61,126.214, 745.703,252.003" />
  <polygon fill="#FFFFFF" points="804.163,2.12827, 1018.67,25.3316, 1079.78,135.566, 748.811,233.335" />
  <polygon fill="#000000" points="822.032,4.06111, 1023.76,34.5142, 1052.21,143.71, 753.422,214.075" />
  <polygon fill="#FFFFFF" points="840.641,6.8704, 1026.38,44.5875, 1024.65,150.202, 759.751,194.702" />
  <polygon fill="#000000" points="859.438,10.6874, 1026.21,55.2756, 997.84,154.705, 767.937,175.693" />
  <polygon fill="#FFFFFF" points="877.808,15.5988, 1023.08,66.2278, 972.517,157.017, 778.016,157.518" />
  <polygon fill="#000000" points="895.111,21.6287, 1017.06,77.0407, 949.352,157.076, 789.901,140.615" />
  <polygon fill="#FFFFFF" points="910.726,28.7242, 1008.39,87.2893, 928.934,154.969, 803.373,125.379" />
  <polygon fill="#000000" points="924.106,36.7476, 997.506,96.5614, 911.732,150.915, 818.081,112.137" />
  <polygon fill="#FFFFFF" points="934.819,45.4774, 984.987,104.494, 898.064,145.255, 833.555,101.134" />
  <polygon fill="#000000" points="849.241,92.5129, 942.59,54.6191, 971.523,110.808, 888.071,138.421" />
  <polygon fill="#FFFFFF" points="864.536,86.304, 947.331,63.8257, 957.849,115.332, 881.709,130.899" />
  <polygon fill="#000000" points="878.843,82.4197, 949.148,72.7261, 944.692,118.022, 878.742,123.193" />
  <polygon fill="#FFFFFF" points="891.621,80.6579, 948.338,80.9587, 932.706,118.962, 878.76,115.782" />
  <!-- Shape 9 -->
  <polygon fill="#000000" points="1175.85,96.3609, 1579.15,300, 742.671,300" />
  <polygon fill="#FFFFFF" points="1155.28,106.034, 1560,290.327, 782.404,300" />
  <polygon fill="#000000" points="1134.55,116.818, 1537.49,280.08, 825.638,299.462" />
  <polygon fill="#FFFFFF" points="1114.87,128.453, 1511.83,269.681, 870.983,298.228" />
  <polygon fill="#000000" points="1097.36,140.643, 1483.32,259.54, 916.996,296.178" />
  <polygon fill="#FFFFFF" points="1082.95,153.07, 1452.49,250.041, 962.246,293.251" />
  <polygon fill="#000000" points="1072.33,165.406, 1419.97,241.507, 1005.39,289.448" />
  <polygon fill="#FFFFFF" points="1065.89,177.326, 1386.56,234.194, 1045.23,284.841" />
  <polygon fill="#000000" points="1063.74,188.529, 1353.15,228.268, 1080.79,279.564" />
  <polygon fill="#FFFFFF" points="1065.65,198.752, 1320.64,223.805, 1111.38,273.803" />
  <polygon fill="#000000" points="1071.16,207.788, 1289.94,220.789, 1136.57,267.783" />
  <polygon fill="#FFFFFF" points="1079.57,215.498, 1261.83,219.119, 1156.28,261.745" />
  <polygon fill="#000000" points="1090.05,221.815, 1236.93,218.624, 1170.7,255.922" />
  <polygon fill="#FFFFFF" points="1101.72,226.75, 1215.68,219.086, 1180.28,250.525" />
  <polygon fill="#000000" points="1113.72,230.383, 1198.26,220.257, 1185.69,245.721" />
  <polygon fill="#FFFFFF" points="1184.66,221.886, 1187.72,241.624, 1125.3,232.851" />
  <polygon fill="#000000" points="1174.63,223.739, 1187.2,238.288, 1135.85,234.334" />
  <polygon fill="#FFFFFF" points="1167.76,225.615, 1184.97,235.712, 1144.94,235.034" />
  <polygon fill="#000000" points="1163.54,227.36, 1181.79,233.842, 1152.36,235.159" />
  <polygon fill="#FFFFFF" points="1161.38,228.867, 1178.26,232.589, 1158.05,234.905" />
  <!-- Shape 10 -->
  <polygon fill="#000000" points="985.016,0, 1302.93,0, 1300.29,58.497, 1175.85,96.3609" />
  <polygon fill="#FFFFFF" points="1004.1,9.63609, 1271.14,0, 1300.56,52.6473, 1188.3,92.5745" />
  <polygon fill="#000000" points="1024.09,18.6391, 1242.15,1.046, 1297.36,46.9324, 1200.48,88.2404" />
  <polygon fill="#FFFFFF" points="1044.75,26.7894, 1216.62,3.10615, 1290.9,41.5591, 1211.83,83.4033" />
  <polygon fill="#000000" points="1065.74,33.9029, 1195.02,6.08194, 1281.56,36.7275, 1221.76,78.1456" />
  <polygon fill="#FFFFFF" points="1177.67,9.81552, 1269.95,32.6149, 1229.79,72.5873, 1086.68,39.8403" />
  <polygon fill="#000000" points="1164.68,14.1016, 1256.78,29.3603, 1235.52,66.8812, 1107.11,44.5149" />
  <polygon fill="#FFFFFF" points="1155.97,18.7031, 1242.84,27.0516, 1238.74,61.2043, 1126.54,47.8989" />
  <polygon fill="#000000" points="1151.27,23.3701, 1228.96,25.7171, 1239.39,55.745, 1144.47,50.0258" />
  <polygon fill="#FFFFFF" points="1150.12,27.8589, 1215.88,25.3219, 1237.64,50.6883, 1160.46,50.9889" />
  <polygon fill="#000000" points="1151.95,31.9517, 1204.24,25.7708, 1233.79,46.1997, 1174.12,50.9357" />
  <polygon fill="#FFFFFF" points="1156.06,35.4733, 1194.54,26.9174, 1228.31,42.4101, 1185.18,50.0572" />
  <polygon fill="#000000" points="1161.71,38.3033, 1187.07,28.5776, 1221.75,39.4038, 1193.55,48.5733" />
  <polygon fill="#FFFFFF" points="1181.94,30.548, 1214.73,37.2104, 1199.27,46.7155, 1168.16,40.384" />
  <polygon fill="#000000" points="1179.03,32.6249, 1207.8,35.8036, 1202.53,44.7085, 1174.73,41.7209" />
  <polygon fill="#FFFFFF" points="1178.08,34.6233, 1201.48,35.1053, 1203.69,42.7521, 1180.84,42.3773" />
  <polygon fill="#000000" points="1178.71,36.3931, 1196.14,34.9953, 1203.19,41.0067, 1186.05,42.4628" />
  <polygon fill="#FFFFFF" points="1180.45,37.8304, 1192.01,35.3263, 1201.52,39.5832, 1190.11,42.118" />
  <!-- Shape 11 -->
  <polygon fill="#FFFFFF" points="1175.85,96.3609, 1300.29,58.497, 1295.85,156.95" />
  <polygon fill="#000000" points="1188.3,92.5745, 1299.85,68.3423, 1283.85,150.891" />
  <polygon fill="#FFFFFF" points="1200.47,89.9308, 1298.1,77.3483, 1273.42,144.529" />
  <polygon fill="#000000" points="1212.01,88.4436, 1295.19,85.289, 1264.8,138.075" />
  <polygon fill="#FFFFFF" points="1222.6,88.042, 1291.32,92.0087, 1258.08,131.757" />
  <polygon fill="#000000" points="1231.97,88.5831, 1286.78,97.4304, 1253.24,125.794" />
  <polygon fill="#FFFFFF" points="1239.95,89.8703, 1281.9,101.557, 1250.15,120.38" />
  <polygon fill="#000000" points="1246.43,91.6771, 1276.99,104.467, 1248.57,115.663" />
  <polygon fill="#FFFFFF" points="1251.44,93.7709, 1272.34,106.3, 1248.22,111.737" />
  <polygon fill="#000000" points="1255.05,95.9359, 1268.17,107.24, 1248.77,108.632" />
  <polygon fill="#FFFFFF" points="1257.44,97.9921, 1264.64,107.493, 1249.92,106.323" />
  <!-- Shape 12 -->
  <polygon fill="#FFFFFF" points="1295.85,156.95, 1422.62,93.8182, 1580.55,139.419, 1579.15,300" />
  <polygon fill="#000000" points="1308.53,150.637, 1438.41,98.3782, 1580.41,155.477, 1550.82,285.695" />
  <polygon fill="#FFFFFF" points="1322.68,144.94, 1453.89,104.602, 1577.18,169.671, 1524.41,270.974" />
  <polygon fill="#000000" points="1338.17,140.181, 1468.44,112.28, 1570.96,181.624, 1500.61,256.102" />
  <polygon fill="#FFFFFF" points="1354.71,136.637, 1481.46,121.087, 1562.02,191.083, 1479.98,241.38" />
  <polygon fill="#000000" points="1371.95,134.522, 1492.42,130.606, 1550.86,197.923, 1462.94,227.135" />
  <polygon fill="#FFFFFF" points="1389.42,133.954, 1500.89,140.367, 1538.12,202.159, 1449.75,213.706" />
  <polygon fill="#000000" points="1406.58,134.942, 1506.62,149.883, 1524.51,203.937, 1440.46,201.424" />
  <polygon fill="#FFFFFF" points="1422.89,137.377, 1509.54,158.694, 1510.81,203.528, 1434.94,190.588" />
  <polygon fill="#000000" points="1437.79,141.044, 1509.76,166.405, 1497.76,201.302, 1432.86,181.435" />
  <polygon fill="#FFFFFF" points="1450.82,145.634, 1507.58,172.722, 1486.01,197.706, 1433.76,174.125" />
  <polygon fill="#000000" points="1437,168.711, 1461.6,150.781, 1503.49,177.469, 1476.08,193.226" />
  <polygon fill="#FFFFFF" points="1441.89,165.143, 1469.94,156.092, 1498.03,180.604, 1468.3,188.347" />
  <polygon fill="#000000" points="1447.73,163.261, 1475.78,161.19, 1491.85,182.215, 1462.81,183.521" />
  <polygon fill="#FFFFFF" points="1453.82,162.811, 1479.27,165.753, 1485.55,182.498, 1459.54,179.124" />
  <polygon fill="#000000" points="1459.57,163.476, 1480.69,169.537, 1479.67,181.736, 1458.24,175.438" />
  <polygon fill="#FFFFFF" points="1464.53,164.9, 1480.45,172.404, 1474.63,180.256, 1458.56,172.627" />
  <!-- Shape 13 -->
  <polygon fill="#000000" points="1300.29,58.497, 1422.62,93.8182, 1295.85,156.95" />
  <polygon fill="#FFFFFF" points="1299.85,68.3423, 1410.39,90.2861, 1308.53,150.637" />
  <polygon fill="#000000" points="1300.79,77.2918, 1398.37,87.8997, 1319.6,144.073" />
  <polygon fill="#FFFFFF" points="1303,85.1386, 1386.9,86.6533, 1328.86,137.473" />
  <polygon fill="#000000" points="1306.27,91.7459, 1376.31,86.462, 1336.19,131.057" />
  <polygon fill="#FFFFFF" points="1310.3,97.0529, 1366.85,87.1753, 1341.6,125.037" />
  <polygon fill="#000000" points="1314.8,101.076, 1358.72,88.5952, 1345.23,119.594" />
  <polygon fill="#FFFFFF" points="1352.03,90.4985, 1347.29,114.867, 1319.44,103.9" />
  <polygon fill="#000000" points="1346.77,92.6594, 1348.05,110.937, 1323.93,105.668" />
  <polygon fill="#FFFFFF" points="1342.89,94.8709, 1347.84,107.83, 1328.03,106.564" />
  <polygon fill="#000000" points="1340.23,96.961, 1346.95,105.514, 1331.57,106.79" />
  <polygon fill="#FFFFFF" points="1338.61,98.804, 1345.69,103.91, 1334.46,106.551" />
  <!-- Shape 14 -->
  <polygon fill="#FFFFFF" points="1302.93,0, 1581.76,0, 1422.62,93.8182, 1300.29,58.497" />
  <polygon fill="#000000" points="1330.81,0, 1565.85,9.38182, 1410.39,90.2861, 1300.56,52.6473" />
  <polygon fill="#FFFFFF" points="1356.29,1.01699, 1548.99,18.1518, 1398.48,86.206, 1303.84,46.9403" />
  <polygon fill="#000000" points="1378.8,3.01834, 1531.41,26.1006, 1387.43,81.6198, 1309.96,41.5765" />
  <polygon fill="#FFFFFF" points="1318.58,36.749, 1397.91,5.90823, 1513.39,33.0516, 1377.73,76.6064" />
  <polygon fill="#000000" points="1329.18,32.6287, 1413.33,9.53458, 1495.26,38.8705, 1369.83,71.2814" />
  <polygon fill="#FFFFFF" points="1341.13,29.3493, 1424.97,13.7003, 1477.45,43.4728, 1364.05,65.7927" />
  <polygon fill="#000000" points="1353.74,26.9957, 1432.86,18.1781, 1460.4,46.8298, 1360.61,60.3116" />
  <polygon fill="#FFFFFF" points="1366.3,25.5955, 1437.23,22.728, 1444.55,48.9707, 1359.52,55.0211" />
  <polygon fill="#000000" points="1378.16,25.116, 1438.46,27.1157, 1430.33,49.9823, 1360.65,50.1011" />
  <polygon fill="#FFFFFF" points="1388.75,25.4672, 1437.03,31.1311, 1418.1,50.0032, 1363.73,45.7137" />
  <polygon fill="#000000" points="1397.63,26.5093, 1433.55,34.6036, 1408.09,49.2139, 1368.33,41.9884" />
  <polygon fill="#FFFFFF" points="1404.54,28.0667, 1428.65,37.4146, 1400.44,47.8237, 1373.97,39.0102" />
  <polygon fill="#000000" points="1380.11,36.8127, 1409.38,29.9437, 1422.98,39.5048, 1395.13,46.054" />
  <polygon fill="#FFFFFF" points="1386.23,35.3757, 1412.23,31.9439, 1417.16,40.8748, 1391.98,44.1207" />
  <polygon fill="#000000" points="1391.89,34.629, 1413.3,33.8873, 1411.68,41.5811, 1390.73,42.2178" />
  <polygon fill="#FFFFFF" points="1396.73,34.4614, 1412.93,35.6261, 1406.95,41.725, 1390.99,40.5027" />
  <polygon fill="#000000" points="1400.53,34.7344, 1411.53,37.0557, 1403.21,41.4385, 1392.34,39.0866" />
  <polygon fill="#FFFFFF" points="1394.33,38.0299, 1403.2,35.298, 1409.51,38.1198, 1400.57,40.8675" />
  <!-- Shape 15 -->
  <polygon fill="#000000" points="1581.76,0, 1580.55,139.419, 1422.62,93.8182" />
  <polygon fill="#FFFFFF" points="1581.64,13.9419, 1564.76,134.859, 1438.53,84.4364" />
  <polygon fill="#000000" points="1454.11,76.763, 1579.8,27.1036, 1551.02,129.37" />
  <polygon fill="#FFFFFF" points="1468.9,70.9181, 1576.41,39.1404, 1539.61,123.178" />
  <polygon fill="#000000" points="1482.51,66.8967, 1571.75,49.7754, 1530.66,116.565" />
  <polygon fill="#FFFFFF" points="1494.59,64.5784, 1566.19,58.8187, 1524.14,109.84" />
  <polygon fill="#000000" points="1504.92,63.7476, 1560.13,66.1784, 1519.88,103.311" />
  <polygon fill="#FFFFFF" points="1513.37,64.1197, 1553.96,71.8634, 1517.59,97.2536" />
  <polygon fill="#000000" points="1519.95,65.3738, 1548.07,75.9753, 1516.91,91.8876" />
  <polygon fill="#FFFFFF" points="1524.75,67.1846, 1542.75,78.6931, 1517.43,87.359" />
  <polygon fill="#000000" points="1527.98,69.2521, 1538.2,80.25, 1518.74,83.7347" />
  <polygon fill="#FFFFFF" points="1529.91,71.3252, 1534.53,80.9068, 1520.48,81.0047" />
  <!-- Shape 16 -->
  <polygon fill="#FFFFFF" points="1581.76,0, 1941.37,0, 1580.55,139.419" />
  <polygon fill="#000000" points="1581.7,6.62238, 1924.29,0, 1597.69,132.796" />
  <polygon fill="#FFFFFF" points="1582.6,13.6944, 1905.08,0.371185, 1615.99,125.353" />
  <polygon fill="#000000" points="1584.75,20.9076, 1884.25,1.23187, 1634.67,117.279" />
  <polygon fill="#FFFFFF" points="1588.41,27.9571, 1862.34,2.67114, 1652.93,108.79" />
  <polygon fill="#000000" points="1593.68,34.5612, 1839.96,4.73701, 1670.03,100.12" />
  <polygon fill="#FFFFFF" points="1600.57,40.4779, 1817.74,7.42864, 1685.37,91.512" />
  <polygon fill="#000000" points="1608.95,45.5201, 1796.28,10.6939, 1698.45,83.2046" />
  <polygon fill="#FFFFFF" points="1776.17,14.4325, 1708.95,75.4205, 1618.55,49.5655" />
  <polygon fill="#000000" points="1757.9,18.5044, 1716.74,68.352, 1629.03,52.5621" />
  <polygon fill="#FFFFFF" points="1741.86,22.7429, 1721.86,62.1485, 1639.95,54.5272" />
  <polygon fill="#000000" points="1728.31,26.9702, 1724.52,56.9076, 1650.84,55.5408" />
  <polygon fill="#FFFFFF" points="1717.34,31.0144, 1725.06,52.6699, 1661.27,55.7343" />
  <polygon fill="#000000" points="1708.93,34.7248, 1723.9,49.4194, 1670.85,55.2743" />
  <polygon fill="#FFFFFF" points="1702.89,37.985, 1721.53,47.0881, 1679.26,54.3454" />
  <!-- Shape 17 -->
  <polygon fill="#000000" points="1580.55,139.419, 2076.87,300, 1579.15,300" />
  <polygon fill="#FFFFFF" points="1580.48,147.046, 2053.3,292.372, 1602.79,300" />
  <polygon fill="#000000" points="1581.73,155.627, 2026.77,284.22, 1628.07,299.572" />
  <polygon fill="#FFFFFF" points="1584.73,164.94, 1997.98,275.9, 1653.86,298.579" />
  <polygon fill="#000000" points="1589.8,174.736, 1967.69,267.766, 1679.09,296.916" />
  <polygon fill="#FFFFFF" points="1597.11,184.742, 1936.74,260.147, 1702.72,294.529" />
  <polygon fill="#000000" points="1606.67,194.678, 1906,253.323, 1723.9,291.417" />
  <polygon fill="#FFFFFF" points="1618.29,204.265, 1876.34,247.511, 1741.95,287.642" />
  <polygon fill="#000000" points="1631.61,213.245, 1848.55,242.854, 1756.42,283.32" />
  <polygon fill="#FFFFFF" points="1646.12,221.395, 1823.32,239.41, 1767.14,278.614" />
  <polygon fill="#000000" points="1661.24,228.541, 1801.18,237.16, 1774.15,273.717" />
  <polygon fill="#FFFFFF" points="1676.31,234.572, 1782.5,236.009, 1777.76,268.837" />
  <polygon fill="#000000" points="1690.73,239.441, 1767.41,235.805, 1778.44,264.172" />
  <polygon fill="#FFFFFF" points="1703.94,243.168, 1755.86,236.353, 1776.77,259.897" />
  <polygon fill="#000000" points="1715.55,245.833, 1747.59,237.439, 1773.44,256.147" />
  <polygon fill="#FFFFFF" points="1742.21,238.848, 1769.1,253.006, 1725.27,247.565" />
  <polygon fill="#000000" points="1739.22,240.387, 1764.35,250.507, 1733,248.525" />
  <polygon fill="#FFFFFF" points="1738.07,241.893, 1759.7,248.634, 1738.81,248.892" />
  <!-- Shape 18 -->
  <polygon fill="#FFFFFF" points="2400,0, 2400,300, 2076.87,300" />
  <polygon fill="#000000" points="2384.65,14.25, 2400,285.75, 2092.22,300" />
  <polygon fill="#FFFFFF" points="2368.38,30.152, 2399.15,270.641, 2109.35,299.207" />
  <polygon fill="#000000" points="2351.85,47.3177, 2397.18,255.298, 2127.84,297.384" />
  <polygon fill="#FFFFFF" points="2335.73,65.31, 2393.92,240.334, 2147.22,294.356" />
  <polygon fill="#000000" points="2320.63,83.6566, 2389.26,226.314, 2166.98,290.029" />
  <polygon fill="#FFFFFF" points="2307.07,101.869, 2383.2,213.725, 2186.6,284.406" />
  <polygon fill="#000000" points="2295.46,119.466, 2375.87,202.942, 2205.55,277.593" />
  <polygon fill="#FFFFFF" points="2286.06,135.998, 2367.46,194.214, 2223.35,269.788" />
  <polygon fill="#000000" points="2278.99,151.076, 2358.29,187.653, 2239.6,261.271" />
  <polygon fill="#FFFFFF" points="2274.23,164.393, 2348.7,183.233, 2253.94,252.374" />
  <polygon fill="#000000" points="2271.61,175.743, 2339.1,180.803, 2266.16,243.455" />
  <polygon fill="#FFFFFF" points="2270.87,185.029, 2329.84,180.109, 2276.17,234.862" />
  <polygon fill="#000000" points="2271.64,192.27, 2321.27,180.824, 2283.97,226.906" />
  <polygon fill="#FFFFFF" points="2273.53,197.585, 2313.66,182.58, 2289.69,219.835" />
  <polygon fill="#000000" points="2307.17,185.005, 2293.56,213.815, 2276.14,201.181" />
  <polygon fill="#FFFFFF" points="2301.9,187.751, 2295.87,208.924, 2279.1,203.325" />
  <polygon fill="#000000" points="2297.85,190.521, 2296.95,205.157, 2282.08,204.321" />
  <polygon fill="#FFFFFF" points="2294.91,193.089, 2297.11,202.434, 2284.85,204.477" />
  <!-- Shape 19 -->
  <polygon fill="#000000" points="1580.55,139.419, 1941.37,0, 2261,129.051, 2076.87,300" />
  <polygon fill="#FFFFFF" points="1597.69,132.796, 1956.55,6.12992, 2252.25,137.171, 2053.3,292.372" />
  <polygon fill="#000000" points="1617.89,125.665, 1973.2,13.5075, 2241.05,145.909, 2027.65,283.388" />
  <polygon fill="#FFFFFF" points="1641.02,118.363, 1990.64,22.1269, 2227.16,154.859, 2000.97,273.12" />
  <polygon fill="#000000" points="1666.86,111.252, 2008.12,31.9357, 2210.45,163.598, 1974.37,261.684" />
  <polygon fill="#FFFFFF" points="1695.08,104.692, 2024.85,42.8242, 2190.92,171.71, 1948.94,249.243" />
  <polygon fill="#000000" points="1725.25,99.0312, 2040.04,54.6173, 2168.78,178.804, 1925.71,236.017" />
  <polygon fill="#FFFFFF" points="1756.83,94.5765, 2052.96,67.0732, 2144.4,184.543, 1905.61,222.277" />
  <polygon fill="#000000" points="1789.13,91.5759, 2062.93,79.8892, 2118.35,188.659, 1889.37,208.345" />
  <polygon fill="#FFFFFF" points="1821.42,90.198, 2069.47,92.7132, 2091.35,190.98, 1877.56,194.578" />
  <polygon fill="#000000" points="1852.84,90.5167, 2072.24,105.164, 2064.26,191.436, 1870.44,181.353" />
  <polygon fill="#FFFFFF" points="1882.57,92.5014, 2071.16,116.854, 2038,190.07, 1868.06,169.045" />
  <!-- Shape 20 -->
  <polygon fill="#FFFFFF" points="1941.37,0, 2400,0, 2261,129.051" />
  <polygon fill="#000000" points="1963.15,0, 2393.4,6.12992, 2245.82,122.921" />
  <polygon fill="#FFFFFF" points="1987.27,0.343582, 2385.13,12.6761, 2229.97,116.031" />
  <polygon fill="#000000" points="2012.97,1.14026, 2375.1,19.3528, 2214.3,108.558" />
  <polygon fill="#FFFFFF" points="2039.46,2.47251, 2363.34,25.8782, 2199.57,100.7" />
  <polygon fill="#000000" points="2065.92,4.38475, 2349.96,31.9911, 2186.49,92.6751" />
  <polygon fill="#FFFFFF" points="2091.56,6.87622, 2335.21,37.4678, 2175.61,84.7069" />
  <polygon fill="#000000" points="2115.63,9.89868, 2319.44,42.1351, 2167.3,77.0172" />
  <polygon fill="#FFFFFF" points="2137.51,13.3593, 2303.11,45.8797, 2161.76,69.812" />
  <polygon fill="#000000" points="2156.7,17.1284, 2286.72,48.6534, 2158.94,63.2691" />
  <polygon fill="#FFFFFF" points="2172.88,21.0517, 2270.82,50.4723, 2158.67,57.5269" />
  <polygon fill="#000000" points="2185.91,24.9646, 2255.9,51.4106, 2160.56,52.6757" />
  <polygon fill="#FFFFFF" points="2195.82,28.708, 2242.41,51.5897, 2164.14,48.7532" />
  <polygon fill="#000000" points="2202.81,32.1426, 2230.66,51.1639, 2168.9,45.7444" />
  <polygon fill="#FFFFFF" points="2207.23,35.1603, 2220.86,50.3041, 2174.28,43.5865" />
  <polygon fill="#000000" points="2179.79,42.1776, 2209.51,37.6924, 2213.07,49.1809" />
  <polygon fill="#FFFFFF" points="2185.01,41.3893, 2210.13,39.7115, 2207.22,47.9501" />
</svg>
