<?xml version="1.0" standalone="no"?>
<!DOCTYPE svg PUBLIC "-//W3C//DTD SVG 1.1//EN" "http://www.w3.org/Graphics/SVG/1.1/DTD/svg11.dtd">
<svg viewBox="0, 0, 1000, 1000" xmlns="http://www.w3.org/2000/svg" version="1.1">
  <!-- Shape 1 -->
  <!-- Shape 2 -->
  <!-- Shape 3 -->
  <!-- Shape 4 -->
  <!-- Shape 5 -->
  <polygon fill="#000000" points="273.839,0.831343, 666.681,0.831343, 263.235,21.4302" />
  <polygon fill="#000000" points="691.882,12.7158, 710.824,12.7158, 501.082,327.784" />
  <polygon fill="#000000" points="467.836,358.967, 457.723,374.159, 54.722,486.293" />
  <polygon fill="#000000" points="229.559,57.3573, 29.091,479.152, 9.65914,484.559" />
  <polygon fill="#FFFFFF" points="671.176,13.1375, 690.702,12.1405, 509.137,311.959" />
  <polygon fill="#FFFFFF" points="478.658,342.241, 469.424,357.49, 76.3045,478.653" />
  <polygon fill="#FFFFFF" points="221.056,78.1292, 50.2854,473.347, 30.2907,479.509" />
  <polygon fill="#FFFFFF" points="261.628,23.1257, 645.547,3.52383, 251.925,43.5406" />
  <polygon fill="#000000" points="488.42,325.553, 480.188,340.733, 98.2739,470.216" />
  <polygon fill="#000000" points="213.663,98.4881, 72.0067,466.699, 51.5671,473.629" />
  <polygon fill="#000000" points="624.002,7.27292, 241.701,65.3339, 250.376,45.2568" />
  <polygon fill="#000000" points="649.917,14.68, 669.913,12.6472, 516.106,296.289" />
  <polygon fill="#FFFFFF" points="207.485,118.277, 94.1209,459.203, 73.3651,466.899" />
  <polygon fill="#FFFFFF" points="602.189,12.0873, 232.69,86.6482, 240.226,67.0594" />
  <polygon fill="#FFFFFF" points="628.238,17.3709, 648.576,14.2821, 521.884,280.909" />
  <polygon fill="#FFFFFF" points="496.996,309.043, 489.877,324.025, 120.487,460.992" />
  <polygon fill="#000000" points="580.257,17.9558, 224.999,107.327, 231.302,88.3711" />
  <polygon fill="#000000" points="606.282,21.2171, 626.827,17.0715, 526.386,265.957" />
  <polygon fill="#000000" points="504.28,292.854, 498.367,307.506, 142.792,451.006" />
  <polygon fill="#000000" points="202.61,137.346, 116.483,450.868, 95.5491,459.317" />
  <polygon fill="#FFFFFF" points="584.204,26.2042, 604.809,21.0207, 529.546,251.566" />
  <polygon fill="#FFFFFF" points="510.186,277.124, 505.552,291.319, 165.03,440.299" />
  <polygon fill="#FFFFFF" points="199.104,155.553, 138.939,441.718, 117.972,450.891" />
  <polygon fill="#FFFFFF" points="558.364,24.8474, 218.716,127.219, 223.712,109.035" />
  <polygon fill="#000000" points="513.907,262.397, 510.628,275.917, 188.501,428.205" />
  <polygon fill="#000000" points="196.805,173.951, 161.36,431.233, 140.653,441.023" />
  <polygon fill="#000000" points="535.234,33.1818, 214.638,145.891, 218.248,128.723" />
  <polygon fill="#000000" points="562.14,32.7439, 582.516,26.6023, 531.506,236.928" />
  <polygon fill="#FFFFFF" points="196.144,191, 183.448,420.15, 163.151,430.492" />
  <polygon fill="#FFFFFF" points="512.625,42.5062, 211.987,163.47, 214.197,147.422" />
  <polygon fill="#FFFFFF" points="540.377,40.2391, 560.374,33.2089, 531.859,223.274" />
  <polygon fill="#FFFFFF" points="516.233,248.407, 514.322,261.143, 211.417,415.486" />
  <polygon fill="#000000" points="490.715,52.708, 210.772,179.853, 211.594,165.014" />
  <polygon fill="#000000" points="519.072,48.6146, 538.54,40.7815, 530.631,210.716" />
  <polygon fill="#000000" points="517.154,235.265, 516.602,247.118, 233.603,402.238" />
  <polygon fill="#000000" points="197.096,206.603, 205.047,408.533, 185.308,419.352" />
  <polygon fill="#FFFFFF" points="498.377,57.779, 517.171,49.243, 527.874,199.349" />
  <polygon fill="#FFFFFF" points="516.681,223.075, 517.457,233.958, 254.889,388.575" />
  <polygon fill="#FFFFFF" points="199.606,220.683, 226.005,396.46, 206.969,407.67" />
  <polygon fill="#FFFFFF" points="469.675,63.6589, 210.981,194.952, 210.448,181.395" />
  <polygon fill="#000000" points="514.85,211.924, 516.9,221.766, 275.117,374.617" />
  <polygon fill="#000000" points="203.597,233.182, 246.177,384.02, 227.979,395.525" />
  <polygon fill="#000000" points="449.664,75.2172, 212.578,208.695, 210.743,196.475" />
  <polygon fill="#000000" points="478.439,67.6267, 496.423,58.4997, 523.666,189.25" />
  <polygon fill="#FFFFFF" points="208.966,244.065, 265.424,371.311, 248.188,383.008" />
  <polygon fill="#FFFFFF" points="430.832,87.2314, 215.503,221.028, 212.442,210.183" />
  <polygon fill="#FFFFFF" points="459.401,78.0402, 476.447,68.4437, 518.107,180.476" />
  <polygon fill="#FFFFFF" points="511.717,201.886, 514.968,210.63, 294.14,360.493" />
  <polygon fill="#000000" points="413.31,99.5431, 219.677,231.915, 215.484,222.464" />
  <polygon fill="#000000" points="441.391,88.8925, 457.385,78.9547, 511.319,173.064" />
  <polygon fill="#000000" points="507.36,193.017, 511.72,200.626, 311.829,346.341" />
  <polygon fill="#000000" points="215.587,253.318, 283.616,358.44, 267.456,370.221" />
  <polygon fill="#FFFFFF" points="424.527,100.05, 439.37,89.9028, 503.444,167.028" />
  <polygon fill="#FFFFFF" points="501.876,185.357, 507.236,191.809, 328.074,332.297" />
  <polygon fill="#FFFFFF" points="223.317,260.95, 300.64,345.519, 285.652,357.272" />
  <polygon fill="#FFFFFF" points="397.209,111.991, 225.001,241.34, 219.786,233.281" />
  <polygon fill="#000000" points="495.38,178.925, 501.617,184.218, 342.787,318.5" />
  <polygon fill="#000000" points="231.997,266.993, 316.396,332.664, 302.659,344.277" />
  <polygon fill="#000000" points="382.621,124.413, 231.358,249.303, 225.247,242.619" />
  <polygon fill="#000000" points="408.911,111.374, 422.521,101.151, 494.639,162.36" />
  <polygon fill="#FFFFFF" points="241.455,271.5, 330.801,319.991, 318.378,331.354" />
  <polygon fill="#FFFFFF" points="369.612,136.651, 238.618,255.826, 231.747,250.48" />
  <polygon fill="#FFFFFF" points="394.625,122.727, 406.939,112.56, 485.075,159.029" />
  <polygon fill="#FFFFFF" points="488.001,173.721, 494.98,177.872, 355.903,305.085" />
  <polygon fill="#000000" points="358.223,148.556, 246.637,260.949, 239.15,256.886" />
  <polygon fill="#000000" points="381.734,133.972, 392.71,123.987, 474.93,156.985" />
  <polygon fill="#000000" points="479.88,169.73, 487.459,172.771, 367.382,292.181" />
  <polygon fill="#000000" points="251.51,274.544, 343.794,307.614, 332.725,318.622" />
  <polygon fill="#FFFFFF" points="370.283,144.978, 379.898,135.293, 464.386,156.155" />
  <polygon fill="#FFFFFF" points="471.166,166.912, 479.197,168.895, 377.21,279.905" />
  <polygon fill="#FFFFFF" points="261.977,276.217, 355.333,295.646, 345.639,306.198" />
  <polygon fill="#FFFFFF" points="348.471,159.988, 255.263,264.729, 247.311,261.879" />
  <polygon fill="#000000" points="462.016,165.216, 470.348,166.205, 385.399,268.367" />
  <polygon fill="#000000" points="272.672,276.629, 365.397,284.191, 357.078,294.196" />
  <polygon fill="#000000" points="340.346,170.819, 264.34,267.24, 256.073,265.52" />
  <polygon fill="#000000" points="368.545,146.345, 453.627,156.451, 360.292,155.619" />
  <polygon fill="#FFFFFF" points="283.412,275.903, 373.989,273.343, 367.023,282.722" />
  <polygon fill="#FFFFFF" points="333.812,180.94, 273.707,268.571, 265.276,267.883" />
  <polygon fill="#FFFFFF" points="358.673,157.016, 442.834,157.766, 351.762,165.783" />
  <polygon fill="#FFFFFF" points="452.586,164.569, 461.072,164.645, 391.987,257.656" />
  <polygon fill="#000000" points="328.808,190.258, 283.209,268.822, 274.758,269.061" />
  <polygon fill="#000000" points="350.279,167.192, 432.178,159.982, 344.672,175.368" />
  <polygon fill="#000000" points="443.033,164.889, 451.53,164.141, 397.035,247.851" />
  <polygon fill="#000000" points="381.131,263.186, 375.477,271.872, 294.024,274.174" />
  <polygon fill="#FFFFFF" points="421.819,162.972, 338.978,184.288, 343.34,176.771" />
  <polygon fill="#FFFFFF" points="433.507,166.077, 441.879,164.605, 400.627,239.009" />
  <polygon fill="#FFFFFF" points="386.868,253.793, 382.467,261.731, 304.346,271.586" />
  <polygon fill="#FFFFFF" points="325.253,198.699, 292.692,268.108, 284.357,269.159" />
  <polygon fill="#000000" points="424.152,168.027, 432.275,165.937, 402.867,231.168" />
  <polygon fill="#000000" points="391.264,245.22, 388.04,252.372, 314.231,268.285" />
  <polygon fill="#000000" points="323.042,206.213, 302.012,266.547, 293.92,268.292" />
  <polygon fill="#000000" points="411.905,166.6, 334.618,192.47, 337.81,185.664" />
  <polygon fill="#FFFFFF" points="394.399,237.509, 392.261,243.85, 323.55,264.423" />
  <polygon fill="#FFFFFF" points="322.057,212.767, 311.035,264.267, 303.298,266.584" />
  <polygon fill="#FFFFFF" points="402.562,170.727, 331.511,199.862, 333.623,193.803" />
  <polygon fill="#FFFFFF" points="415.1,170.627, 422.862,168.029, 403.876,224.349" />
  <polygon fill="#000000" points="322.163,218.352, 319.642,261.397, 312.358,264.164" />
  <polygon fill="#000000" points="393.898,175.216, 329.563,206.428, 330.696,201.133" />
  <polygon fill="#000000" points="406.469,173.758, 413.773,170.762, 403.789,218.55" />
  <polygon fill="#000000" points="396.371,230.684, 395.217,236.206, 332.194,260.148" />
  <polygon fill="#FFFFFF" points="386,179.932, 328.663,212.148, 328.928,207.62" />
  <polygon fill="#FFFFFF" points="398.362,177.3, 405.129,174.017, 402.752,213.752" />
  <polygon fill="#FFFFFF" points="397.29,224.754, 397.008,229.465, 340.076,255.603" />
  <polygon fill="#FFFFFF" points="323.216,222.978, 327.73,258.064, 320.98,261.164" />
  <polygon fill="#000000" points="390.864,181.136, 397.031,177.671, 400.915,209.92" />
  <polygon fill="#000000" points="397.276,219.712, 397.748,223.633, 347.133,250.924" />
  <polygon fill="#000000" points="325.066,226.675, 335.213,254.397, 329.059,257.715" />
  <polygon fill="#000000" points="378.931,184.747, 328.692,217.021, 328.207,213.247" />
  <polygon fill="#FFFFFF" points="396.456,215.536, 397.561,218.7, 353.323,246.237" />
  <polygon fill="#FFFFFF" points="327.559,229.489, 342.023,250.515, 336.511,253.946" />
  <polygon fill="#FFFFFF" points="372.732,189.542, 329.525,221.063, 328.409,218.015" />
  <polygon fill="#FFFFFF" points="384.041,185.153, 389.564,181.605, 398.432,206.998" />
  <polygon fill="#000000" points="330.543,231.482, 348.113,246.532, 343.269,249.98" />
  <polygon fill="#000000" points="367.418,194.21, 331.029,224.304, 329.405,221.942" />
  <polygon fill="#000000" points="377.942,189.242, 382.795,185.702, 395.455,204.922" />
  <polygon fill="#000000" points="394.961,212.188, 396.577,214.642, 358.629,241.652" />
  <polygon fill="#FFFFFF" points="362.986,198.659, 333.075,226.788, 331.06,225.062" />
  <polygon fill="#FFFFFF" points="372.594,193.305, 376.767,189.854, 392.132,203.611" />
  <polygon fill="#FFFFFF" points="392.923,209.62, 394.931,211.418, 363.055,237.269" />
  <polygon fill="#FFFFFF" points="333.872,232.727, 353.454,242.553, 349.287,245.932" />
  <polygon fill="#000000" points="368.005,197.254, 371.506,193.962, 388.601,202.979" />
  <polygon fill="#000000" points="390.47,207.771, 392.757,208.977, 366.625,233.168" />
  <polygon fill="#000000" points="337.408,233.308, 358.036,238.669, 354.54,241.905" />
  <polygon fill="#000000" points="359.411,202.811, 335.533,228.572, 333.241,227.421" />
  <polygon fill="#FFFFFF" points="387.728,206.571, 390.187,207.255, 369.383,229.413" />
  <polygon fill="#FFFFFF" points="341.023,233.316, 361.869,234.96, 359.021,237.993" />
  <polygon fill="#FFFFFF" points="356.65,206.604, 338.28,229.72, 335.817,229.08" />
  <polygon fill="#FFFFFF" points="367.02,197.938, 384.989,202.932, 364.168,201.014" />
  <!-- Shape 6 -->
  <polygon fill="#FFFFFF" points="6.77194,513.744, 26.9227,508.137, 237.183,953.188" />
  <polygon fill="#FFFFFF" points="462.889,373.546, 485.289,379.324, 44.9797,489.828" />
  <polygon fill="#FFFFFF" points="522.612,383.54, 987.152,503.385, 976.329,524.403" />
  <polygon fill="#FFFFFF" points="975.608,552.339, 751.135,988.219, 730.519,988.219" />
  <polygon fill="#FFFFFF" points="261.249,978.238, 699.926,999.427, 272.359,999.427" />
  <polygon fill="#000000" points="27.7683,507.259, 49.0792,501.911, 227.852,930.769" />
  <polygon fill="#000000" points="487.064,379.52, 509.023,386.338, 68.0656,484.675" />
  <polygon fill="#000000" points="544.552,391.68, 976.309,525.725, 964.447,546.822" />
  <polygon fill="#000000" points="962.294,573.978, 729.067,988.762, 707.835,987.736" />
  <polygon fill="#000000" points="249.924,955.515, 677.545,997.219, 260.1,977.056" />
  <polygon fill="#FFFFFF" points="50.0152,501.042, 72.4158,496.047, 219.706,908.115" />
  <polygon fill="#FFFFFF" points="510.799,386.6, 532.13,394.481, 92.2417,479.942" />
  <polygon fill="#FFFFFF" points="565.79,400.913, 964.353,548.173, 951.427,569.192" />
  <polygon fill="#FFFFFF" points="947.857,595.48, 706.325,988.219, 684.602,986.101" />
  <polygon fill="#FFFFFF" points="248.816,954.287, 239.734,932.501, 654.714,993.872" />
  <polygon fill="#000000" points="73.442,495.196, 96.844,490.65, 212.896,885.342" />
  <polygon fill="#000000" points="533.893,394.814, 554.409,403.766, 117.407,475.728" />
  <polygon fill="#000000" points="586.132,411.237, 951.253,570.564, 937.248,591.345" />
  <polygon fill="#000000" points="932.29,616.677, 683.04,986.517, 660.963,983.252" />
  <polygon fill="#000000" points="238.68,931.231, 230.845,909.309, 631.583,989.338" />
  <polygon fill="#FFFFFF" points="97.9588,489.826, 122.256,485.825, 207.559,862.573" />
  <polygon fill="#FFFFFF" points="556.148,404.17, 575.67,414.184, 143.443,472.131" />
  <polygon fill="#FFFFFF" points="605.395,422.634, 936.99,592.728, 921.904,613.109" />
  <polygon fill="#FFFFFF" points="915.597,637.401, 659.356,983.594, 637.075,979.145" />
  <polygon fill="#FFFFFF" points="229.856,908.004, 223.404,886.059, 608.314,983.582" />
  <polygon fill="#000000" points="123.457,485.035, 148.526,481.674, 203.812,839.932" />
  <polygon fill="#000000" points="577.371,414.663, 595.729,425.71, 170.214,469.249" />
  <polygon fill="#000000" points="623.405,435.067, 921.556,614.495, 905.401,634.316" />
  <polygon fill="#000000" points="897.801,657.485, 635.433,979.407, 613.108,973.751" />
  <polygon fill="#000000" points="222.492,884.722, 217.545,862.871, 585.077,976.59" />
  <polygon fill="#FFFFFF" points="149.808,480.927, 175.509,478.298, 201.754,817.547" />
  <polygon fill="#FFFFFF" points="597.38,426.263, 614.412,438.298, 197.566,467.172" />
  <polygon fill="#FFFFFF" points="639.996,448.479, 904.96,635.693, 887.765,654.795" />
  <polygon fill="#FFFFFF" points="878.937,676.765, 611.44,973.929, 589.241,967.06" />
  <polygon fill="#FFFFFF" points="216.721,861.51, 213.381,839.871, 562.055,968.36" />
  <polygon fill="#000000" points="176.866,477.602, 203.044,475.789, 201.464,795.546" />
  <polygon fill="#000000" points="616.001,438.924, 631.561,451.881, 225.332,465.985" />
  <polygon fill="#000000" points="655.02,462.795, 887.229,656.155, 869.036,674.385" />
  <polygon fill="#000000" points="859.061,695.085, 587.558,967.149, 565.661,959.08" />
  <polygon fill="#000000" points="212.655,838.492, 211.007,817.187, 539.431,958.912" />
  <polygon fill="#FFFFFF" points="204.47,475.151, 230.956,474.232, 202.993,774.06" />
  <polygon fill="#FFFFFF" points="633.074,452.579, 647.028,466.375, 253.332,465.763" />
  <polygon fill="#FFFFFF" points="668.343,477.921, 868.405,675.716, 849.275,692.928" />
  <polygon fill="#FFFFFF" points="838.244,712.295, 563.973,959.077, 542.56,949.837" />
  <polygon fill="#FFFFFF" points="210.386,815.798, 210.489,794.95, 517.397,948.283" />
  <polygon fill="#000000" points="232.443,473.66, 259.057,473.701, 206.369,753.22" />
  <polygon fill="#000000" points="281.373,466.572, 648.455,467.142, 660.686,481.676" />
  <polygon fill="#000000" points="679.847,493.748, 848.548,694.22, 828.56,710.278" />
  <polygon fill="#000000" points="816.576,728.257, 540.88,949.741, 520.133,939.376" />
  <polygon fill="#000000" points="209.982,793.559, 211.873,773.29, 496.144,936.526" />
  <polygon fill="#FFFFFF" points="260.512,474.143, 286.777,475.189, 212.043,731.285" />
  <polygon fill="#FFFFFF" points="311.834,468.616, 660.782,482.511, 671.079,497.505" />
  <polygon fill="#FFFFFF" points="690.359,511.652, 827.167,710.849, 806.64,725.468" />
  <polygon fill="#FFFFFF" points="792.107,744.219, 519.396,938.438, 499.712,927.135" />
  <polygon fill="#FFFFFF" points="212.452,772.381, 216.1,753.027, 473.966,922.549" />
  <polygon fill="#000000" points="288.406,475.585, 314.131,477.653, 219.84,710.544" />
  <polygon fill="#000000" points="341.687,471.967, 671.281,498.472, 679.607,513.783" />
  <polygon fill="#000000" points="698.456,529.968, 805.14,726.135, 784.202,739.234" />
  <polygon fill="#000000" points="767.05,758.334, 498.789,926.152, 480.323,914.013" />
  <polygon fill="#000000" points="216.693,751.978, 222.045,733.64, 453.275,907.509" />
  <polygon fill="#FFFFFF" points="315.934,478.031, 340.931,481.124, 229.66,691.12" />
  <polygon fill="#FFFFFF" points="370.69,476.631, 679.88,514.891, 686.223,530.371" />
  <polygon fill="#FFFFFF" points="704.117,548.504, 782.572,739.977, 761.362,751.493" />
  <polygon fill="#FFFFFF" points="741.583,770.519, 479.235,912.962, 462.13,900.1" />
  <polygon fill="#FFFFFF" points="222.688,732.462, 229.663,715.234, 434.258,891.548" />
  <polygon fill="#000000" points="342.905,481.511, 366.992,485.613, 241.372,673.13" />
  <polygon fill="#000000" points="398.608,482.588, 686.528,531.625, 690.898,547.121" />
  <polygon fill="#000000" points="707.349,567.061, 759.584,752.287, 738.252,762.179" />
  <polygon fill="#000000" points="715.9,780.719, 460.901,898.96, 445.283,885.501" />
  <polygon fill="#000000" points="230.389,713.94, 238.883,697.909, 417.08,874.824" />
  <polygon fill="#FFFFFF" points="369.129,486.036, 392.132,491.115, 254.814,656.676" />
  <polygon fill="#FFFFFF" points="425.214,489.797, 691.198,548.522, 693.63,563.878" />
  <polygon fill="#FFFFFF" points="708.191,585.439, 736.313,762.996, 715.015,771.243" />
  <polygon fill="#FFFFFF" points="690.205,788.901, 443.944,884.253, 429.92,870.329" />
  <polygon fill="#FFFFFF" points="239.725,696.515, 249.612,681.758, 401.884,857.508" />
  <polygon fill="#000000" points="394.415,491.602, 416.174,497.607, 269.798,641.85" />
  <polygon fill="#000000" points="450.294,498.194, 693.884,565.423, 694.437,580.484" />
  <polygon fill="#000000" points="706.713,603.437, 712.906,772.055, 691.807,778.655" />
  <polygon fill="#000000" points="664.715,795.062, 428.504,868.958, 416.16,854.711" />
  <polygon fill="#000000" points="250.599,680.285, 261.731,666.864, 388.788,839.78" />
  <polygon fill="#FFFFFF" points="418.583,498.183, 438.951,505.048, 286.111,628.725" />
  <polygon fill="#FFFFFF" points="473.653,507.691, 694.606,582.165, 693.362,596.783" />
  <polygon fill="#FFFFFF" points="703.015,620.855, 689.524,779.431, 668.789,784.407" />
  <polygon fill="#FFFFFF" points="639.65,799.222, 414.704,853.206, 404.105,838.781" />
  <polygon fill="#FFFFFF" points="262.891,665.337, 275.102,653.303, 377.88,821.828" />
  <polygon fill="#000000" points="441.46,505.737, 460.308,513.379, 303.52,617.358" />
  <polygon fill="#000000" points="495.117,518.18, 693.408,598.587, 690.472,612.617" />
  <polygon fill="#000000" points="697.225,637.508, 666.335,785.116, 646.129,788.51" />
  <polygon fill="#000000" points="615.233,801.432, 402.649,837.135, 393.832,822.678" />
  <polygon fill="#000000" points="276.456,651.747, 289.567,641.138, 369.214,803.844" />
  <polygon fill="#FFFFFF" points="462.887,514.202, 480.106,522.526, 321.773,607.784" />
  <polygon fill="#FFFFFF" points="514.535,529.532, 690.36,614.528, 685.856,627.838" />
  <polygon fill="#FFFFFF" points="689.5,653.217, 643.513,789.122, 623.997,790.995" />
  <polygon fill="#FFFFFF" points="385.398,806.547, 591.684,801.767, 392.419,820.889" />
  <polygon fill="#FFFFFF" points="291.131,639.582, 304.951,630.417, 362.815,786.022" />
  <polygon fill="#000000" points="482.718,523.498, 498.223,532.395, 340.611,600.019" />
  <polygon fill="#000000" points="531.789,541.601, 685.552,629.833, 679.624,642.302" />
  <polygon fill="#000000" points="680.024,667.822, 621.234,791.48, 602.565,791.913" />
  <polygon fill="#000000" points="378.832,790.535, 569.215,800.328, 384.069,804.618" />
  <polygon fill="#000000" points="306.735,628.893, 321.064,621.177, 358.669,768.552" />
  <polygon fill="#FFFFFF" points="500.829,533.53, 514.557,542.881, 359.763,594.055" />
  <polygon fill="#FFFFFF" points="546.787,554.227, 679.102,644.356, 671.909,655.879" />
  <polygon fill="#FFFFFF" points="669.003,681.181, 599.676,792.245, 581.997,791.336" />
  <polygon fill="#FFFFFF" points="374.137,774.79, 548.025,797.24, 377.629,788.475" />
  <polygon fill="#FFFFFF" points="323.073,619.717, 337.709,613.437, 356.73,751.619" />
  <polygon fill="#000000" points="517.114,544.186, 529.028,553.865, 378.959,589.859" />
  <polygon fill="#000000" points="559.473,567.238, 671.146,657.964, 662.862,668.453" />
  <polygon fill="#000000" points="656.664,693.176, 579.009,791.491, 562.452,789.353" />
  <polygon fill="#000000" points="373.101,772.611, 371.29,759.454, 528.298,792.648" />
  <polygon fill="#000000" points="339.938,612.071, 354.677,607.198, 356.914,735.401" />
  <polygon fill="#FFFFFF" points="531.494,555.342, 541.582,565.218, 397.932,587.377" />
  <polygon fill="#FFFFFF" points="569.825,580.454, 661.842,670.536, 652.649,679.92" />
  <polygon fill="#FFFFFF" points="643.247,703.713, 559.398,789.31, 544.078,786.071" />
  <polygon fill="#FFFFFF" points="370.458,757.175, 370.24,744.666, 510.197,786.718" />
  <polygon fill="#FFFFFF" points="357.116,605.959, 371.759,602.447, 359.107,720.06" />
  <polygon fill="#000000" points="543.913,566.865, 552.19,576.804, 416.425,586.531" />
  <polygon fill="#000000" points="577.857,593.693, 651.363,681.968, 641.453,690.198" />
  <polygon fill="#000000" points="629.008,712.722, 540.996,785.815, 527.01,781.613" />
  <polygon fill="#000000" points="369.647,742.31, 370.911,730.558, 493.857,779.632" />
  <polygon fill="#000000" points="374.39,601.363, 388.745,599.149, 363.162,705.744" />
  <polygon fill="#FFFFFF" points="554.342,578.612, 560.847,588.482, 434.192,587.22" />
  <polygon fill="#FFFFFF" points="583.617,606.772, 639.898,692.177, 629.466,699.223" />
  <polygon fill="#FFFFFF" points="614.206,720.166, 523.94,781.133, 511.365,776.114" />
  <polygon fill="#FFFFFF" points="370.584,728.152, 373.201,717.25, 479.39,771.582" />
  <polygon fill="#FFFFFF" points="391.544,598.248, 405.43,597.253, 368.904,692.582" />
  <!-- Shape 7 -->
  <polygon fill="#FFFFFF" points="714.181,11.3396, 723.785,28.7008, 630.435,137.141" />
  <polygon fill="#FFFFFF" points="745.907,48.2479, 838.474,215.58, 829.676,218.778" />
  <polygon fill="#FFFFFF" points="821.43,236.827, 736.636,267.653, 727.14,260.146" />
  <polygon fill="#FFFFFF" points="613.591,176.546, 622.28,163.494, 705.11,248.902" />
  <polygon fill="#000000" points="725.898,30.55, 733.974,46.9891, 641.547,128.537" />
  <polygon fill="#000000" points="753.205,66.4205, 828.899,220.512, 819.81,222.759" />
  <polygon fill="#000000" points="810.236,238.007, 725.036,259.077, 717.051,250.844" />
  <polygon fill="#000000" points="623.048,160.98, 632.047,150.526, 697.894,238.155" />
  <polygon fill="#FFFFFF" points="735.858,48.8765, 742.438,64.3228, 652.563,122.367" />
  <polygon fill="#FFFFFF" points="758.858,83.3688, 818.882,224.261, 809.675,225.53" />
  <polygon fill="#FFFFFF" points="708.668,240.949, 799.152,238.037, 715.174,249.606" />
  <polygon fill="#FFFFFF" points="632.968,148.374, 642.1,140.317, 692.309,227.345" />
  <polygon fill="#000000" points="744.087,66.2205, 749.23,80.6072, 663.307,118.391" />
  <polygon fill="#000000" points="762.953,99.0188, 808.628,226.793, 799.471,227.088" />
  <polygon fill="#000000" points="701.944,230.781, 788.352,236.972, 707.025,239.588" />
  <polygon fill="#000000" points="643.141,138.516, 652.237,132.642, 688.269,216.737" />
  <polygon fill="#FFFFFF" points="750.642,82.4876, 754.425,95.7556, 673.621,116.357" />
  <polygon fill="#FFFFFF" points="765.602,113.31, 798.336,228.111, 789.384,227.47" />
  <polygon fill="#FFFFFF" points="696.804,220.631, 777.993,234.892, 700.537,229.343" />
  <polygon fill="#FFFFFF" points="653.366,131.177, 662.268,127.262, 685.666,206.559" />
  <polygon fill="#000000" points="755.603,97.592, 758.124,109.693, 683.364,116.009" />
  <polygon fill="#000000" points="766.932,126.199, 788.193,228.258, 779.587,226.746" />
  <polygon fill="#000000" points="695.63,219.155, 693.15,210.75, 768.213,231.905" />
  <polygon fill="#000000" points="663.455,126.113, 672.02,123.93, 684.373,197.005" />
  <polygon fill="#FFFFFF" points="759.074,111.46, 760.446,122.36, 692.418,117.092" />
  <polygon fill="#FFFFFF" points="767.086,137.66, 778.37,227.308, 770.233,225.015" />
  <polygon fill="#FFFFFF" points="692.203,209.275, 690.864,201.353, 759.129,228.137" />
  <polygon fill="#FFFFFF" points="673.235,123.075, 681.339,122.39, 684.248,188.229" />
  <polygon fill="#000000" points="702.291,119.604, 760.385,124.102, 760.72,133.397" />
  <polygon fill="#000000" points="766.193,149.701, 768.88,224.3, 761.616,221.45" />
  <polygon fill="#000000" points="690.93,200.131, 690.621,193.125, 749.228,223.004" />
  <polygon fill="#000000" points="682.686,122.585, 689.925,123.146, 685.17,178.81" />
  <polygon fill="#FFFFFF" points="710.941,123.439, 760.62,135.167, 760.123,142.954" />
  <polygon fill="#FFFFFF" points="764.085,159.707, 760.193,220.711, 753.832,217.468" />
  <polygon fill="#FFFFFF" points="690.726,191.797, 691.242,185.755, 740.556,217.201" />
  <polygon fill="#FFFFFF" points="691.342,123.443, 697.684,124.941, 687.3,170.771" />
  <polygon fill="#000000" points="718.316,128.203, 759.942,144.72, 758.807,151.11" />
  <polygon fill="#000000" points="761.038,167.774, 752.361,216.66, 746.906,213.182" />
  <polygon fill="#000000" points="691.428,184.361, 692.576,179.291, 733.165,210.975" />
  <polygon fill="#000000" points="699.151,125.377, 704.592,127.536, 690.362,164.166" />
  <polygon fill="#FFFFFF" points="724.405,133.54, 758.514,152.836, 756.921,157.953" />
  <polygon fill="#FFFFFF" points="757.319,174.025, 745.415,212.275, 740.841,208.704" />
  <polygon fill="#FFFFFF" points="692.873,177.874, 694.477,173.746, 727.063,204.563" />
  <polygon fill="#FFFFFF" points="706.079,128.133, 710.643,130.714, 694.093,158.989" />
  <polygon fill="#000000" points="729.239,139.138, 756.494,159.601, 754.604,163.58" />
  <polygon fill="#000000" points="753.175,178.612, 739.362,207.68, 735.623,204.145" />
  <polygon fill="#000000" points="694.907,172.354, 696.805,169.11, 722.221,198.186" />
  <polygon fill="#000000" points="712.118,131.483, 715.849,134.284, 698.246,155.183" />
  <polygon fill="#FFFFFF" points="732.883,144.728, 754.033,165.11, 751.984,168.091" />
  <polygon fill="#FFFFFF" points="748.829,181.707, 734.193,202.998, 731.226,199.604" />
  <polygon fill="#FFFFFF" points="697.378,167.789, 699.433,165.349, 718.571,192.035" />
  <polygon fill="#FFFFFF" points="717.277,135.221, 720.238,138.074, 702.598,152.648" />
  <polygon fill="#000000" points="735.428,150.093, 751.27,169.468, 749.181,171.592" />
  <polygon fill="#000000" points="744.478,183.498, 729.879,198.341, 727.607,195.174" />
  <polygon fill="#000000" points="700.149,164.142, 702.243,162.412, 716.022,186.273" />
  <polygon fill="#000000" points="721.583,139.167, 723.85,141.94, 706.954,151.254" />
  <polygon fill="#FFFFFF" points="736.991,155.058, 748.332,172.787, 746.297,174.195" />
  <polygon fill="#FFFFFF" points="740.288,184.183, 726.376,193.811, 724.714,190.933" />
  <polygon fill="#FFFFFF" points="703.093,161.355, 705.131,160.231, 714.455,181.031" />
  <polygon fill="#FFFFFF" points="725.08,143.166, 726.739,145.759, 711.147,150.846" />
  <!-- Shape 8 -->
  <polygon fill="#000000" points="634.528,320.559, 643.375,316.294, 630.547,393.112" />
  <polygon fill="#000000" points="727.465,272.298, 738.096,268.433, 652.456,308.46" />
  <polygon fill="#000000" points="842.715,231.481, 856.803,256.949, 752.573,264.251" />
  <polygon fill="#000000" points="872.901,278.928, 992.355,494.864, 958.318,486.083" />
  <polygon fill="#000000" points="643.567,413.669, 644.037,405.112, 932.153,488.121" />
  <polygon fill="#FFFFFF" points="644.345,315.453, 653.585,311.134, 632.901,383.983" />
  <polygon fill="#FFFFFF" points="739.646,267.986, 750.893,267.198, 663.247,303.694" />
  <polygon fill="#FFFFFF" points="765.54,265.806, 858.524,259.292, 867.741,281.644" />
  <polygon fill="#FFFFFF" points="879.333,301.51, 955.534,486.313, 924.446,477.356" />
  <polygon fill="#FFFFFF" points="642.581,403.827, 643.965,395.538, 899.609,477.879" />
  <polygon fill="#000000" points="654.547,310.971, 663.903,307.075, 636.736,373.698" />
  <polygon fill="#000000" points="751.78,267.413, 762.69,269.103, 676.311,298.838" />
  <polygon fill="#000000" points="780.086,270.229, 868.087,283.867, 872.903,302.639" />
  <polygon fill="#000000" points="882.162,324.232, 921.008,475.648, 893.718,466.858" />
  <polygon fill="#000000" points="645.208,394.973, 647.416,387.196, 865.334,465.873" />
  <polygon fill="#FFFFFF" points="665.13,306.77, 674.541,303.53, 641.826,363.919" />
  <polygon fill="#FFFFFF" points="763.902,269.561, 774.015,273.092, 689.807,295.067" />
  <polygon fill="#FFFFFF" points="793.423,277.106, 873.041,304.906, 874.3,320.446" />
  <polygon fill="#FFFFFF" points="880.258,342.915, 890.17,465.258, 866.427,456.686" />
  <polygon fill="#FFFFFF" points="648.386,386.376, 651.346,379.117, 835.315,453.865" />
  <polygon fill="#000000" points="676.062,303.145, 685.421,300.703, 648.108,354.745" />
  <polygon fill="#000000" points="775.485,273.828, 784.473,278.645, 703.532,292.605" />
  <polygon fill="#000000" points="805.039,285.685, 874.145,322.717, 872.608,335.362" />
  <polygon fill="#000000" points="874.6,357.909, 862.782,455.122, 842.336,446.814" />
  <polygon fill="#000000" points="652.155,378.058, 655.791,371.347, 809.35,441.927" />
  <polygon fill="#FFFFFF" points="687.253,300.303, 696.425,298.721, 655.498,346.296" />
  <polygon fill="#FFFFFF" points="786.119,279.679, 793.776,285.308, 717.233,291.56" />
  <polygon fill="#FFFFFF" points="814.586,295.312, 872.092,337.591, 868.436,347.665" />
  <polygon fill="#FFFFFF" points="866.082,369.562, 838.623,445.226, 821.222,437.228" />
  <polygon fill="#FFFFFF" points="656.543,370.073, 660.771,363.949, 787.231,430.141" />
  <polygon fill="#000000" points="698.569,298.372, 707.408,297.65, 663.88,338.696" />
  <polygon fill="#000000" points="795.504,286.64, 801.722,292.685, 730.628,291.939" />
  <polygon fill="#000000" points="821.87,305.428, 867.512,349.801, 862.332,357.614" />
  <polygon fill="#000000" points="855.506,378.211, 817.484,435.565, 802.882,427.921" />
  <polygon fill="#000000" points="661.56,362.493, 666.286,356.999, 768.746,418.597" />
  <polygon fill="#FFFFFF" points="709.849,297.415, 718.21,297.503, 673.11,332.059" />
  <polygon fill="#FFFFFF" points="743.43,293.672, 803.436,294.302, 808.195,300.44" />
  <polygon fill="#FFFFFF" points="826.822,315.559, 860.974,359.606, 854.784,365.453" />
  <polygon fill="#FFFFFF" points="843.59,384.189, 799.173,426.146, 787.123,418.901" />
  <polygon fill="#FFFFFF" points="667.198,355.402, 672.318,350.574, 753.678,407.392" />
  <polygon fill="#000000" points="720.914,297.438, 728.668,298.249, 683.012,326.479" />
  <polygon fill="#000000" points="755.369,296.625, 809.797,302.312, 813.145,308.286" />
  <polygon fill="#000000" points="829.487,325.319, 852.987,367.25, 846.226,371.406" />
  <polygon fill="#000000" points="830.962,387.816, 783.508,416.988, 773.767,410.185" />
  <polygon fill="#000000" points="673.424,348.883, 678.823,344.745, 741.798,396.632" />
  <polygon fill="#FFFFFF" points="731.588,298.402, 738.626,299.822, 693.39,322.02" />
  <polygon fill="#FFFFFF" points="766.206,300.616, 814.543,310.372, 816.582,315.987" />
  <polygon fill="#FFFFFF" points="830,334.403, 844.004,372.961, 837.037,375.686" />
  <polygon fill="#FFFFFF" points="818.166,389.407, 770.315,408.122, 762.643,401.801" />
  <polygon fill="#FFFFFF" points="680.181,343.014, 685.742,339.575, 732.868,386.424" />
  <polygon fill="#000000" points="741.699,300.228, 747.94,302.132, 704.028,318.714" />
  <polygon fill="#000000" points="775.74,305.436, 817.692,318.236, 818.564,323.35" />
  <polygon fill="#000000" points="828.565,342.579, 834.424,376.957, 827.546,378.493" />
  <polygon fill="#000000" points="753.585,393.784, 805.662,389.267, 759.424,399.588" />
  <polygon fill="#000000" points="687.391,337.861, 692.995,335.111, 726.635,376.876" />
  <polygon fill="#FFFFFF" points="751.092,302.814, 756.485,305.07, 714.7,316.556" />
  <polygon fill="#FFFFFF" points="783.825,310.857, 819.316,325.704, 819.188,330.226" />
  <polygon fill="#FFFFFF" points="825.439,349.682, 824.595,379.446, 818.038,380.015" />
  <polygon fill="#FFFFFF" points="746.433,386.175, 793.828,387.69, 750.669,391.434" />
  <polygon fill="#FFFFFF" points="694.957,333.473, 700.487,331.385, 722.837,368.086" />
  <polygon fill="#000000" points="759.637,306.036, 764.161,308.514, 725.18,315.508" />
  <polygon fill="#000000" points="790.367,316.647, 819.528,332.619, 818.581,336.5" />
  <polygon fill="#000000" points="820.918,355.611, 814.815,380.625, 808.751,380.431" />
  <polygon fill="#000000" points="741.024,379.015, 782.966,384.96, 743.883,383.71" />
  <polygon fill="#000000" points="702.767,329.881, 708.113,328.411, 721.198,360.145" />
  <polygon fill="#FFFFFF" points="767.227,309.759, 770.892,312.338, 735.252,315.497" />
  <polygon fill="#FFFFFF" points="795.33,322.581, 818.473,338.866, 816.893,342.09" />
  <polygon fill="#FFFFFF" points="815.314,360.322, 805.334,380.682, 799.886,379.909" />
  <polygon fill="#FFFFFF" points="738.899,376.471, 737.199,372.349, 773.303,381.347" />
  <polygon fill="#FFFFFF" points="710.697,327.093, 715.76,326.185, 721.431,353.124" />
  <polygon fill="#000000" points="773.789,313.845, 776.631,316.416, 744.715,316.421" />
  <polygon fill="#000000" points="798.729,328.449, 816.319,344.364, 814.286,346.945" />
  <polygon fill="#000000" points="808.946,363.818, 796.361,379.797, 791.602,378.611" />
  <polygon fill="#000000" points="735.544,369.766, 734.796,366.215, 764.996,377.106" />
  <polygon fill="#000000" points="718.618,325.1, 723.315,324.684, 723.243,347.076" />
  <polygon fill="#FFFFFF" points="753.393,318.157, 779.277,318.153, 781.356,320.625" />
  <polygon fill="#FFFFFF" points="800.634,334.064, 813.25,349.064, 810.931,351.041" />
  <polygon fill="#FFFFFF" points="802.126,366.145, 788.06,378.142, 784.023,376.686" />
  <polygon fill="#FFFFFF" points="733.644,363.641, 733.654,360.648, 758.136,372.473" />
  <polygon fill="#FFFFFF" points="726.399,323.872, 730.665,323.871, 726.341,342.032" />
  <polygon fill="#000000" points="761.142,320.561, 783.679,322.55, 785.074,324.85" />
  <polygon fill="#000000" points="801.156,339.265, 809.456,352.948, 807.003,354.376" />
  <polygon fill="#000000" points="795.147,367.384, 780.557,375.879, 777.24,374.277" />
  <polygon fill="#000000" points="733.023,358.134, 733.609,355.674, 752.754,367.665" />
  <polygon fill="#000000" points="733.916,323.359, 737.704,323.694, 730.43,337.996" />
  <polygon fill="#FFFFFF" points="767.852,323.479, 787.011,326.913, 787.814,328.986" />
  <polygon fill="#FFFFFF" points="800.446,343.925, 805.127,356.023, 802.671,356.969" />
  <polygon fill="#FFFFFF" points="788.275,367.644, 773.939,373.162, 771.312,371.517" />
  <polygon fill="#FFFFFF" points="733.501,353.273, 734.499,351.311, 748.829,362.873" />
  <polygon fill="#FFFFFF" points="741.051,323.499, 744.334,324.088, 735.228,334.95" />
  <polygon fill="#000000" points="773.452,326.754, 789.318,331.131, 789.626,332.942" />
  <polygon fill="#000000" points="798.683,347.949, 800.451,358.316, 798.096,358.854" />
  <polygon fill="#000000" points="766.272,368.528, 781.743,367.054, 768.261,370.133" />
  <polygon fill="#000000" points="734.899,349.075, 736.164,347.567, 746.289,358.264" />
  <polygon fill="#000000" points="747.701,324.216, 750.472,324.98, 740.463,332.849" />
  <polygon fill="#FFFFFF" points="777.91,330.23, 790.665,335.109, 790.582,336.64" />
  <polygon fill="#FFFFFF" points="796.064,351.275, 795.601,359.875, 793.429,360.081" />
  <polygon fill="#FFFFFF" points="762.122,365.421, 775.744,365.76, 763.544,366.922" />
  <polygon fill="#FFFFFF" points="737.042,345.542, 738.447,344.438, 745.027,353.978" />
  <polygon fill="#FFFFFF" points="753.778,325.422, 756.049,326.291, 745.885,331.627" />
  <polygon fill="#000000" points="781.234,333.758, 791.141,338.769, 790.767,340.017" />
  <polygon fill="#000000" points="792.797,353.876, 790.738,360.76, 788.807,360.712" />
  <polygon fill="#000000" points="758.847,362.296, 770.428,363.914, 759.78,363.648" />
  <polygon fill="#000000" points="739.758,342.666, 741.199,341.91, 744.901,350.125" />
  <polygon fill="#000000" points="759.214,327.028, 761.01,327.936, 751.269,331.199" />
  <polygon fill="#FFFFFF" points="783.468,337.202, 790.848,342.048, 790.278,343.026" />
  <polygon fill="#FFFFFF" points="789.094,355.753, 786.005,361.045, 784.349,360.814" />
  <polygon fill="#FFFFFF" points="756.936,360.414, 756.407,359.24, 765.902,361.667" />
  <polygon fill="#FFFFFF" points="742.882,340.425, 744.275,339.959, 745.749,346.785" />
  <polygon fill="#FFFFFF" points="763.959,328.938, 765.322,329.833, 756.417,331.464" />
  <!-- Shape 9 -->
  <polygon fill="#FFFFFF" points="540.294,278.58, 545.999,270.009, 616.553,308.24" />
  <polygon fill="#FFFFFF" points="625.934,316.99, 633.599,321.144, 629.681,392.539" />
  <polygon fill="#FFFFFF" points="502.98,377.365, 622.557,400.348, 622.131,408.105" />
  <polygon fill="#FFFFFF" points="529.975,286.881, 490.405,369.108, 477.46,365.768" />
  <polygon fill="#000000" points="617.347,313.14, 625.003,316.118, 628.375,384.081" />
  <polygon fill="#000000" points="515.7,378.9, 622.895,391.99, 623.272,399.575" />
  <polygon fill="#000000" points="527.246,295.961, 503.655,372.239, 491.649,369.932" />
  <polygon fill="#000000" points="535.293,287.656, 539.266,279.401, 607.869,306.083" />
  <polygon fill="#FFFFFF" points="527.284,379.444, 622.325,383.895, 623.459,391.188" />
  <polygon fill="#FFFFFF" points="526.042,304.484, 515.895,374.266, 504.876,372.921" />
  <polygon fill="#FFFFFF" points="532.046,296.34, 534.472,288.498, 599.587,305.031" />
  <polygon fill="#FFFFFF" points="608.922,310.524, 616.383,312.419, 626.277,376.067" />
  <polygon fill="#000000" points="526.08,313.549, 526.974,374.68, 517.258,374.225" />
  <polygon fill="#000000" points="531.977,297.328, 590.704,304.885, 530.94,304.462" />
  <polygon fill="#000000" points="601.126,309.605, 608.03,310.493, 623.12,367.483" />
  <polygon fill="#000000" points="539.285,379.109, 620.15,376.279, 621.924,382.979" />
  <polygon fill="#FFFFFF" points="530.937,305.496, 582.719,305.862, 531.03,311.882" />
  <polygon fill="#FFFFFF" points="593.9,309.554, 600.143,309.599, 619.2,359.747" />
  <polygon fill="#FFFFFF" points="617.452,369.261, 619.75,375.307, 549.685,377.759" />
  <polygon fill="#FFFFFF" points="527.585,321.657, 536.807,374.329, 528.359,374.624" />
  <polygon fill="#000000" points="587.334,310.243, 592.85,309.601, 614.692,352.934" />
  <polygon fill="#000000" points="614.319,362.89, 617.018,368.246, 558.513,375.583" />
  <polygon fill="#000000" points="530.239,328.756, 545.432,373.322, 538.201,374.229" />
  <polygon fill="#000000" points="531.121,312.95, 575.745,307.753, 532.105,318.57" />
  <polygon fill="#FFFFFF" points="610.845,357.199, 613.825,361.849, 565.821,372.767" />
  <polygon fill="#FFFFFF" points="533.744,334.821, 552.892,371.774, 546.813,373.156" />
  <polygon fill="#FFFFFF" points="569.848,310.351, 533.964,324.51, 532.31,319.656" />
  <polygon fill="#FFFFFF" points="581.489,311.543, 586.243,310.365, 609.776,347.087" />
  <polygon fill="#000000" points="537.828,339.857, 559.241,369.794, 554.237,371.524" />
  <polygon fill="#000000" points="565.048,313.46, 536.424,329.702, 534.296,325.595" />
  <polygon fill="#000000" points="576.398,313.329, 580.386,311.755, 604.627,342.215" />
  <polygon fill="#000000" points="607.127,352.201, 610.271,356.152, 571.687,369.493" />
  <polygon fill="#FFFFFF" points="561.325,316.897, 539.315,334.155, 536.888,330.762" />
  <polygon fill="#FFFFFF" points="572.07,315.482, 575.315,313.641, 599.415,338.302" />
  <polygon fill="#FFFFFF" points="603.263,347.898, 606.463,351.172, 576.206,365.934" />
  <polygon fill="#FFFFFF" points="542.243,343.892, 564.541,367.491, 560.524,369.451" />
  <!-- Shape 10 -->
  <polygon fill="#000000" points="607.154,188.28, 613.223,179.164, 698.414,246.517" />
  <polygon fill="#000000" points="711.297,263.368, 723.245,272.815, 657.565,304.48" />
  <polygon fill="#000000" points="566.38,279.459, 638.373,309.037, 629.161,313.478" />
  <polygon fill="#000000" points="590.407,196.474, 555.942,266.244, 547.137,261.473" />
  <polygon fill="#FFFFFF" points="698.26,253.97, 709.704,261.273, 662.71,297.229" />
  <polygon fill="#FFFFFF" points="577.798,282.605, 647.5,303.319, 640.762,308.474" />
  <polygon fill="#FFFFFF" points="587.377,206.871, 566.262,271.601, 557.234,267.892" />
  <polygon fill="#FFFFFF" points="600.744,198.04, 605.065,189.291, 684.881,240.225" />
  <polygon fill="#000000" points="588.637,284.483, 653.975,297.021, 649.432,302.55" />
  <polygon fill="#000000" points="586.136,216.543, 576.628,275.648, 567.72,273.001" />
  <polygon fill="#000000" points="596.345,207.425, 599.043,199.152, 672.428,235.946" />
  <polygon fill="#000000" points="685.818,246.835, 696.571,252.227, 665.564,289.957" />
  <polygon fill="#FFFFFF" points="586.343,226.729, 586.57,277.722, 578.391,276.153" />
  <polygon fill="#FFFFFF" points="594.666,216.414, 595.856,209.016, 659.478,232.865" />
  <polygon fill="#FFFFFF" points="674.216,242.292, 683.74,245.862, 666.803,281.921" />
  <polygon fill="#FFFFFF" points="600.142,285.414, 657.313,290.501, 654.778,295.899" />
  <polygon fill="#000000" points="594.347,224.538, 594.318,218.048, 648.278,231.745" />
  <polygon fill="#000000" points="663.832,239.387, 672.081,241.481, 665.909,274.474" />
  <polygon fill="#000000" points="610.317,285.01, 658.859,284.201, 657.916,289.245" />
  <polygon fill="#000000" points="588.262,235.7, 595.728,278.803, 588.451,278.156" />
  <polygon fill="#FFFFFF" points="654.699,237.838, 661.675,238.77, 663.397,267.851" />
  <polygon fill="#FFFFFF" points="658.951,278.305, 659.219,282.844, 618.987,283.514" />
  <polygon fill="#FFFFFF" points="591.494,243.394, 603.96,279.014, 597.681,279.118" />
  <polygon fill="#FFFFFF" points="594.19,226.198, 638.889,232.171, 595.156,231.773" />
  <polygon fill="#000000" points="657.9,272.943, 659.043,276.887, 626.075,281.184" />
  <polygon fill="#000000" points="595.647,249.791, 611.183,278.49, 605.931,279.175" />
  <polygon fill="#000000" points="595.224,233.431, 631.301,233.759, 596.862,238.111" />
  <polygon fill="#000000" points="646.821,237.385, 652.567,237.438, 659.742,262.196" />
  <polygon fill="#FFFFFF" points="600.36,254.916, 617.359,277.376, 613.113,278.475" />
  <polygon fill="#FFFFFF" points="597.171,239.734, 625.443,236.161, 599.244,243.563" />
  <polygon fill="#FFFFFF" points="640.17,237.793, 644.764,237.213, 655.372,257.58" />
  <polygon fill="#FFFFFF" points="655.993,268.197, 657.717,271.508, 631.591,278.272" />
  <polygon fill="#000000" points="621.19,239.068, 602.094,248.155, 599.792,245.114" />
  <polygon fill="#000000" points="634.692,238.849, 638.24,237.847, 650.656,254.008" />
  <polygon fill="#000000" points="653.484,264.113, 655.542,266.792, 635.612,275.021" />
  <polygon fill="#000000" points="605.307,258.832, 622.495,275.813, 619.191,277.177" />
  <polygon fill="#FFFFFF" points="630.313,240.364, 632.936,239.116, 645.905,251.431" />
  <polygon fill="#FFFFFF" points="650.596,260.699, 652.788,262.781, 638.269,271.643" />
  <polygon fill="#FFFFFF" points="610.212,261.639, 626.631,273.936, 624.176,275.434" />
  <polygon fill="#FFFFFF" points="618.379,242.216, 605.226,251.93, 602.865,249.598" />
  <polygon fill="#000000" points="647.519,257.941, 649.69,259.482, 639.731,268.323" />
  <polygon fill="#000000" points="614.852,263.457, 629.832,271.868, 628.116,273.392" />
  <polygon fill="#000000" points="616.816,245.386, 608.475,254.945, 606.189,253.233" />
  <polygon fill="#000000" points="626.939,242.175, 628.771,240.823, 641.367,249.764" />
  <polygon fill="#FFFFFF" points="619.057,264.429, 632.186,269.719, 631.087,271.184" />
  <polygon fill="#FFFFFF" points="616.289,248.404, 611.704,257.267, 609.591,256.081" />
  <polygon fill="#FFFFFF" points="624.464,244.144, 625.641,242.795, 637.227,248.889" />
  <polygon fill="#FFFFFF" points="644.411,255.799, 646.446,256.87, 640.192,265.207" />
  <polygon fill="#000000" points="616.584,251.143, 614.8,258.971, 612.925,258.216" />
  <polygon fill="#000000" points="622.774,246.155, 623.429,244.889, 633.614,248.676" />
  <polygon fill="#000000" points="641.4,254.221, 643.223,254.899, 639.856,262.407" />
  <polygon fill="#000000" points="622.712,264.704, 633.791,267.582, 633.189,268.925" />
  <polygon fill="#FFFFFF" points="622.01,246.987, 630.602,248.985, 621.752,248.118" />
  <polygon fill="#FFFFFF" points="638.581,253.143, 640.147,253.507, 638.923,259.995" />
  <polygon fill="#FFFFFF" points="625.75,264.433, 634.754,265.531, 634.531,266.714" />
  <polygon fill="#FFFFFF" points="617.491,253.516, 617.678,260.137, 616.077,259.721" />
  <polygon fill="#000000" points="636.024,252.494, 637.317,252.62, 637.586,258.012" />
  <polygon fill="#000000" points="628.15,263.763, 635.185,263.626, 635.235,264.627" />
  <polygon fill="#000000" points="618.812,255.477, 620.275,260.847, 618.959,260.686" />
  <polygon fill="#000000" points="621.254,248.996, 628.217,249.678, 621.282,249.963" />
  <polygon fill="#FFFFFF" points="635.189,261.908, 635.419,262.722, 629.928,262.829" />
  <polygon fill="#FFFFFF" points="620.373,257.009, 622.553,261.18, 621.515,261.2" />
  <polygon fill="#FFFFFF" points="621.034,250.848, 626.447,250.625, 621.25,251.64" />
  <polygon fill="#FFFFFF" points="633.774,252.201, 634.797,252.159, 636.016,256.466" />
</svg>
