<?xml version="1.0" standalone="no"?>
<!DOCTYPE svg PUBLIC "-//W3C//DTD SVG 1.1//EN" "http://www.w3.org/Graphics/SVG/1.1/DTD/svg11.dtd">
<svg viewBox="0, 0, 1000, 1000" xmlns="http://www.w3.org/2000/svg" version="1.1">
  <!-- Shape 1 -->
  <!-- Shape 2 -->
  <!-- Shape 3 -->
  <!-- Shape 4 -->
  <!-- Shape 5 -->
  <polygon fill="#000000" points="258.412,0, 720.054,0, 473.579,370.247, 0,502.019" />
  <polygon fill="#FFFFFF" points="246.525,23.0929, 698.818,0, 484.917,353.215, 21.7846,495.957" />
  <polygon fill="#000000" points="235.647,45.9795, 676.927,1.11769, 495.27,336.12, 44.2002,489.049" />
  <polygon fill="#FFFFFF" points="225.922,68.4874, 654.51,3.39667, 504.498,319.102, 67.1146,481.28" />
  <polygon fill="#000000" points="217.473,90.448, 631.709,6.8595, 512.479,302.306, 90.3833,472.652" />
  <polygon fill="#FFFFFF" points="210.407,111.699, 608.678,11.507, 519.108,285.879, 113.852,463.181" />
  <polygon fill="#000000" points="204.807,132.084, 585.578,17.3181, 524.303,269.966, 137.357,452.897" />
  <polygon fill="#FFFFFF" points="200.733,151.462, 562.58,24.25, 528.004,254.706, 160.728,441.848" />
  <polygon fill="#000000" points="198.221,169.698, 539.856,32.2389, 530.175,240.233, 183.793,430.096" />
  <polygon fill="#FFFFFF" points="197.28,186.676, 517.581,41.2012, 530.806,226.672, 206.377,417.717" />
  <polygon fill="#000000" points="197.895,202.294, 495.929,51.0353, 529.912,214.134, 228.309,404.802" />
  <polygon fill="#FFFFFF" points="200.024,216.47, 475.066,61.6234, 527.533,202.717, 249.421,391.455" />
  <polygon fill="#000000" points="455.153,72.8343, 523.735,192.502, 269.556,377.791, 203.6,229.139" />
  <polygon fill="#FFFFFF" points="436.337,84.5259, 518.605,183.551, 288.569,363.931, 208.534,240.258" />
  <polygon fill="#000000" points="418.751,96.5484, 512.254,175.906, 306.328,350.006, 214.712,249.805" />
  <polygon fill="#FFFFFF" points="402.509,108.748, 504.811,169.589, 322.719,336.147, 222.005,257.781" />
  <polygon fill="#000000" points="387.708,120.968, 496.422,164.6, 337.651,322.49, 230.264,264.207" />
  <polygon fill="#FFFFFF" points="374.42,133.058, 487.247,160.918, 351.051,309.164, 239.327,269.126" />
  <polygon fill="#000000" points="362.694,144.869, 477.453,158.499, 362.873,296.296, 249.025,272.602" />
  <polygon fill="#FFFFFF" points="352.554,156.262, 467.217,157.284, 373.094,284.005, 259.18,274.715" />
  <polygon fill="#000000" points="344.001,167.113, 456.714,157.19, 381.715,272.397, 269.614,275.566" />
  <polygon fill="#FFFFFF" points="337.009,177.307, 446.119,158.123, 388.765,261.567, 280.152,275.268" />
  <polygon fill="#000000" points="331.528,186.751, 435.601,159.972, 394.294,251.595, 290.622,273.947" />
  <polygon fill="#FFFFFF" points="327.486,195.366, 425.318,162.618, 398.375,242.543, 300.865,271.739" />
  <polygon fill="#000000" points="324.792,203.095, 415.418,165.932, 401.102,234.455, 310.733,268.784" />
  <polygon fill="#FFFFFF" points="323.336,209.9, 406.029,169.782, 402.585,227.356, 320.095,265.228" />
  <polygon fill="#000000" points="322.992,215.765, 397.263,174.035, 402.95,221.253, 328.839,261.213" />
  <polygon fill="#FFFFFF" points="389.212,178.558, 402.333,216.134, 336.873,256.882, 323.626,220.691" />
  <polygon fill="#000000" points="381.945,183.226, 400.88,211.971, 344.126,252.367, 325.094,224.701" />
  <polygon fill="#FFFFFF" points="375.51,187.921, 398.736,208.717, 350.55,247.794, 327.248,227.833" />
  <polygon fill="#000000" points="369.931,192.535, 396.051,206.313, 356.121,243.277, 329.942,230.141" />
  <polygon fill="#FFFFFF" points="365.212,196.973, 392.969,204.687, 360.832,238.915, 333.031,231.691" />
  <!-- Shape 6 -->
  <polygon fill="#FFFFFF" points="0,502.019, 473.579,370.247, 1000,506.057, 745.626,1000, 261.104,1000" />
  <polygon fill="#000000" points="21.7846,495.957, 497.794,376.494, 988.299,528.778, 723.338,1000, 249.093,977.093" />
  <polygon fill="#FFFFFF" points="44.8235,490.175, 521.535,383.865, 975.475,551.585, 700.384,998.891, 238.091,953.806" />
  <polygon fill="#000000" points="69.0404,484.775, 544.595,392.385, 961.5,574.308, 676.9,996.601, 228.273,930.253" />
  <polygon fill="#FFFFFF" points="94.3399,479.86, 566.774,402.063, 946.359,596.774, 653.033,993.071, 219.802,906.554" />
  <polygon fill="#000000" points="120.607,475.534, 587.879,412.889, 930.05,618.808, 628.945,988.261, 212.826,882.83" />
  <polygon fill="#FFFFFF" points="147.709,471.901, 607.725,424.832, 912.586,640.237, 604.81,982.146, 207.478,859.207" />
  <polygon fill="#000000" points="175.494,469.058, 626.139,437.843, 893.997,660.888, 580.811,974.72, 203.868,835.813" />
  <polygon fill="#FFFFFF" points="203.795,467.097, 642.96,451.85, 874.329,680.597, 557.139,965.997, 202.086,812.781" />
  <polygon fill="#000000" points="232.428,466.103, 658.045,466.764, 853.648,699.205, 533.99,956.007, 202.197,790.243" />
  <polygon fill="#FFFFFF" points="261.2,466.148, 671.268,482.477, 832.039,716.565, 511.561,944.802, 204.241,768.331" />
  <polygon fill="#000000" points="289.905,467.291, 682.522,498.863, 809.606,732.541, 490.048,932.449, 208.228,747.178" />
  <polygon fill="#FFFFFF" points="318.33,469.577, 691.723,515.782, 786.47,747.014, 469.645,919.035, 214.141,726.914" />
  <polygon fill="#000000" points="346.26,473.033, 698.81,533.078, 762.771,759.882, 450.533,904.664, 221.935,707.665" />
  <polygon fill="#FFFFFF" points="373.477,477.668, 703.748,550.587, 738.666,771.059, 432.885,889.456, 231.533,689.552" />
  <polygon fill="#000000" points="242.831,672.686, 399.766,483.473, 706.527,568.137, 714.326,780.483, 416.857,873.544" />
  <polygon fill="#FFFFFF" points="255.7,657.17, 424.921,490.415, 707.167,585.549, 689.934,788.114, 402.587,857.073" />
  <polygon fill="#000000" points="269.982,643.096, 448.742,498.445, 705.712,602.646, 665.682,793.934, 390.19,840.202" />
  <polygon fill="#FFFFFF" points="285.499,630.54, 471.047,507.489, 702.238,619.249, 641.769,797.95, 379.756,823.093" />
  <polygon fill="#000000" points="302.05,619.564, 491.669,517.458, 696.844,635.19, 618.397,800.193, 371.348,805.917" />
  <polygon fill="#FFFFFF" points="319.419,610.211, 510.463,528.242, 689.658,650.304, 595.768,800.717, 365,788.847" />
  <polygon fill="#000000" points="337.377,602.506, 527.308,539.716, 680.832,664.443, 574.076,799.602, 360.716,772.055" />
  <polygon fill="#FFFFFF" points="355.686,596.453, 542.108,551.74, 670.541,677.472, 553.508,796.946, 358.466,755.711" />
  <polygon fill="#000000" points="374.105,592.036, 554.797,564.162, 658.978,689.276, 534.238,792.872, 358.191,739.976" />
  <polygon fill="#FFFFFF" points="392.391,589.215, 565.34,576.824, 646.354,699.76, 516.422,787.519, 359.802,725.005" />
  <!-- Shape 7 -->
  <polygon fill="#FFFFFF" points="720.054,0, 846.503,228.581, 730.671,270.689, 605.654,171.848" />
  <polygon fill="#000000" points="616.407,155.695, 731.94,21.4866, 835.615,232.539, 718.92,261.398" />
  <polygon fill="#FFFFFF" points="627.545,142.757, 741.934,41.832, 824.365,235.321, 709.037,251.208" />
  <polygon fill="#000000" points="638.846,132.786, 750.078,60.9487, 812.971,236.89, 700.986,240.493" />
  <polygon fill="#FFFFFF" points="650.103,125.516, 756.443,78.754, 801.638,237.255, 694.697,229.593" />
  <polygon fill="#000000" points="661.12,120.671, 761.125,95.1747, 790.559,236.461, 690.077,218.811" />
  <polygon fill="#FFFFFF" points="671.72,117.969, 764.245,110.151, 779.908,234.59, 687.008,208.408" />
  <polygon fill="#000000" points="681.75,117.121, 765.943,123.64, 769.837,231.752, 685.351,198.604" />
  <polygon fill="#FFFFFF" points="691.079,117.844, 766.375,135.619, 760.476,228.079, 684.952,189.576" />
  <polygon fill="#000000" points="699.602,119.856, 765.707,146.086, 751.927,223.721, 685.645,181.456" />
  <polygon fill="#FFFFFF" points="707.244,122.888, 764.114,155.06, 744.265,218.835, 687.259,174.335" />
  <polygon fill="#000000" points="689.617,168.264, 713.955,126.684, 761.772,162.586, 737.538,213.584" />
  <polygon fill="#FFFFFF" points="692.547,163.258, 719.712,131.007, 758.854,168.726, 731.768,208.128" />
  <polygon fill="#000000" points="695.883,159.298, 724.518,135.639, 755.528,173.564, 726.952,202.618" />
  <polygon fill="#FFFFFF" points="699.468,156.335, 728.401,140.387, 751.95,177.202, 723.062,197.194" />
  <!-- Shape 8 -->
  <polygon fill="#000000" points="634.286,317.157, 730.671,270.689, 846.503,228.581, 1000,506.057, 629.17,410.387" />
  <polygon fill="#FFFFFF" points="644.455,312.255, 742.891,266.247, 862.697,257.854, 960.877,495.963, 629.71,400.551" />
  <polygon fill="#000000" points="655.076,307.291, 755.818,265.341, 873.29,283.546, 925.144,485.668, 631.301,391.024" />
  <polygon fill="#FFFFFF" points="666.188,302.664, 768.776,267.349, 879.01,305.84, 892.733,475.229, 633.923,381.788" />
  <polygon fill="#000000" points="677.749,298.684, 781.199,271.687, 880.556,324.93, 863.566,464.698, 637.559,372.871" />
  <polygon fill="#FFFFFF" points="689.657,295.576, 792.635,277.815, 878.601,341.018, 837.552,454.129, 642.185,364.332" />
  <polygon fill="#000000" points="701.757,293.49, 802.736,285.242, 873.778,354.308, 814.597,443.578, 647.763,356.253" />
  <polygon fill="#FFFFFF" points="654.237,348.728, 713.864,292.501, 811.254,293.523, 866.682,365.012, 794.593,433.108" />
  <polygon fill="#000000" points="661.529,341.851, 725.775,292.626, 818.033,302.266, 857.865,373.34, 777.428,422.788" />
  <polygon fill="#FFFFFF" points="669.541,335.713, 737.279,293.828, 823,311.129, 847.835,379.506, 762.975,412.695" />
  <polygon fill="#000000" points="678.15,330.389, 748.174,296.027, 826.156,319.82, 837.049,383.724, 751.1,402.911" />
  <polygon fill="#FFFFFF" points="687.218,325.939, 758.273,299.108, 827.567,328.095, 825.919,386.209, 741.653,393.519" />
  <polygon fill="#000000" points="696.591,322.4, 767.413,302.931, 827.35,335.76, 814.804,387.173, 734.473,384.606" />
  <polygon fill="#FFFFFF" points="706.102,319.786, 775.462,307.34, 825.665,342.665, 804.016,386.828, 729.385,376.251" />
  <polygon fill="#000000" points="715.584,318.084, 782.325,312.169, 822.705,348.702, 793.814,385.383, 726.202,368.532" />
  <polygon fill="#FFFFFF" points="724.867,317.262, 787.942,317.251, 818.686,353.805, 784.409,383.039, 724.725,361.515" />
  <polygon fill="#000000" points="733.792,317.26, 792.292,322.423, 813.836,357.941, 775.964,379.993, 724.745,355.253" />
  <polygon fill="#FFFFFF" points="742.211,318.003, 795.392,327.534, 808.386,361.114, 768.593,376.433, 726.047,349.786" />
  <polygon fill="#000000" points="728.412,345.136, 749.991,319.397, 797.293,332.447, 802.565,363.356, 762.369,372.535" />
  <polygon fill="#FFFFFF" points="731.621,341.309, 757.025,321.338, 798.077,337.043, 796.587,364.72, 757.319,368.46" />
  <polygon fill="#000000" points="735.459,338.291, 763.228,323.711, 797.852,341.225, 790.654,365.286, 753.436,364.358" />
  <polygon fill="#FFFFFF" points="739.722,336.053, 768.543,326.399, 796.747,344.918, 784.941,365.143, 750.677,360.357" />
  <!-- Shape 9 -->
  <polygon fill="#FFFFFF" points="542.155,267.234, 634.286,317.157, 629.17,410.387, 473.579,370.247" />
  <polygon fill="#000000" points="535.434,277.33, 625.257,312.265, 629.671,401.251, 488.827,374.181" />
  <polygon fill="#FFFFFF" points="530.755,287.053, 616.239,308.757, 629.228,392.317, 502.968,376.898" />
  <polygon fill="#000000" points="527.898,296.29, 607.451,306.526, 627.893,383.727, 515.947,378.483" />
  <polygon fill="#FFFFFF" points="526.641,304.936, 599.082,305.449, 625.742,375.605, 527.724,379.035" />
  <polygon fill="#000000" points="526.758,312.909, 591.288,305.394, 622.874,368.056, 538.271,378.666" />
  <polygon fill="#FFFFFF" points="528.024,320.143, 584.189,306.221, 619.399,361.164, 547.577,377.499" />
  <polygon fill="#000000" points="530.222,326.589, 577.876,307.786, 615.442,354.988, 555.65,375.663" />
  <polygon fill="#FFFFFF" points="533.141,332.223, 572.406,309.944, 611.129,349.569, 562.514,373.289" />
  <!-- Shape 10 -->
  <polygon fill="#000000" points="605.654,171.848, 730.671,270.689, 634.286,317.157, 542.155,267.234" />
  <polygon fill="#FFFFFF" points="597.843,183.581, 715.294,258.532, 646.141,311.442, 553.487,273.375" />
  <polygon fill="#000000" points="592.281,194.841, 700.566,249.133, 654.813,304.807, 565.106,278.149" />
  <polygon fill="#FFFFFF" points="588.808,205.488, 686.727,242.194, 660.66,297.692, 576.57,281.555" />
  <polygon fill="#000000" points="587.215,215.392, 673.978,237.415, 664.054,290.466, 587.519,283.656" />
  <polygon fill="#FFFFFF" points="587.255,224.444, 662.473,234.495, 665.37,283.431, 597.667,284.559" />
  <polygon fill="#000000" points="588.661,232.559, 652.319,233.138, 664.979,276.825, 606.807,284.407" />
  <polygon fill="#FFFFFF" points="591.154,239.683, 643.572,233.058, 663.239,270.822, 614.8,283.365" />
  <polygon fill="#000000" points="594.46,245.79, 636.244,233.985, 660.49,265.543, 621.572,281.612" />
  <polygon fill="#FFFFFF" points="598.315,250.884, 630.302,235.663, 657.042,261.055, 627.106,279.327" />
  <polygon fill="#000000" points="602.478,254.997, 625.677,237.864, 653.176,257.384, 631.435,276.685" />
  <polygon fill="#FFFFFF" points="622.267,240.383, 649.133,254.514, 634.631,273.848, 606.735,258.185" />
  <polygon fill="#000000" points="619.946,243.042, 645.119,252.403, 636.797,270.959, 610.902,260.525" />
  <polygon fill="#FFFFFF" points="618.573,245.696, 641.298,250.982, 638.061,268.142, 614.833,262.109" />
  <polygon fill="#000000" points="617.997,248.227, 637.794,250.167, 638.56,265.496, 618.415,263.039" />
  <polygon fill="#FFFFFF" points="618.062,250.547, 634.694,249.863, 638.44,263.096, 621.57,263.424" />
</svg>
