<?xml version="1.0" standalone="no"?>
<!DOCTYPE svg PUBLIC "-//W3C//DTD SVG 1.1//EN" "http://www.w3.org/Graphics/SVG/1.1/DTD/svg11.dtd">
<svg viewBox="0, 0, 1000, 1000" xmlns="http://www.w3.org/2000/svg" version="1.1">
  <!-- Shape 1 -->
  <!-- Shape 2 -->
  <!-- Shape 3 -->
  <!-- Shape 4 -->
  <!-- Shape 5 -->
  <polygon fill="#000000" points="283.552,1.35478, 646.447,1.35478, 273.757,20.3833" />
  <polygon fill="#000000" points="687.515,20.722, 705.013,20.722, 511.26,311.771" />
  <polygon fill="#000000" points="457.081,362.589, 447.739,376.623, 75.4603,480.208" />
  <polygon fill="#000000" points="218.877,78.9312, 33.6914,468.572, 15.7408,473.566" />
  <polygon fill="#FFFFFF" points="667.554,20.7056, 685.593,19.7846, 517.868,296.747" />
  <polygon fill="#FFFFFF" points="468.2,346.095, 459.669,360.181, 96.5183,472.108" />
  <polygon fill="#FFFFFF" points="211.869,98.3716, 54.1168,463.461, 35.6463,469.153" />
  <polygon fill="#FFFFFF" points="271.137,23.1463, 625.789,5.0388, 262.174,42.0049" />
  <polygon fill="#000000" points="478.297,329.615, 470.693,343.637, 117.893,463.249" />
  <polygon fill="#000000" points="205.944,117.377, 75.0869,457.518, 56.2055,463.92" />
  <polygon fill="#000000" points="604.793,9.71352, 251.636,63.3483, 259.65,44.8018" />
  <polygon fill="#000000" points="647.025,21.7843, 665.496,19.9065, 523.414,281.925" />
  <polygon fill="#FFFFFF" points="201.196,135.799, 96.4742,450.735, 77.3007,457.845" />
  <polygon fill="#FFFFFF" points="583.601,15.3789, 242.271,84.2558, 249.232,66.1603" />
  <polygon fill="#FFFFFF" points="626.052,23.9892, 644.84,21.1359, 527.806,267.437" />
  <polygon fill="#FFFFFF" points="487.247,313.285, 480.671,327.125, 139.441,453.65" />
  <polygon fill="#000000" points="562.362,22.0161, 234.187,104.574, 240.01,87.0635" />
  <polygon fill="#000000" points="604.774,27.3309, 623.752,23.5013, 530.968,253.414" />
  <polygon fill="#000000" points="494.944,297.245, 489.481,310.78, 161.013,443.341" />
  <polygon fill="#000000" points="197.701,153.495, 118.14,443.116, 98.8016,450.92" />
  <polygon fill="#FFFFFF" points="583.339,31.7992, 602.373,27.0109, 532.848,239.981" />
  <polygon fill="#FFFFFF" points="501.297,281.631, 497.016,294.744, 182.454,432.367" />
  <polygon fill="#FFFFFF" points="195.514,170.33, 139.935,434.68, 120.567,443.153" />
  <polygon fill="#FFFFFF" points="541.23,29.5881, 227.474,124.156, 232.089,107.358" />
  <polygon fill="#000000" points="506.24,266.58, 503.19,279.154, 203.605,420.785" />
  <polygon fill="#000000" points="194.668,186.182, 161.704,425.46, 142.446,434.565" />
  <polygon fill="#000000" points="520.362,38.0394, 222.2,142.862, 225.557,126.895" />
  <polygon fill="#000000" points="561.9,37.3634, 580.851,31.6515, 533.41,227.259" />
  <polygon fill="#FFFFFF" points="195.175,200.941, 183.286,415.508, 164.281,425.193" />
  <polygon fill="#FFFFFF" points="499.918,47.2976, 218.411,160.564, 220.481,145.537" />
  <polygon fill="#FFFFFF" points="540.621,43.9726, 559.345,37.3897, 532.644,215.36" />
  <polygon fill="#FFFFFF" points="509.727,252.221, 507.938,264.146, 224.308,408.668" />
  <polygon fill="#000000" points="480.054,57.2742, 216.126,177.145, 216.901,163.155" />
  <polygon fill="#000000" points="519.664,51.5564, 538.018,44.1714, 530.561,204.384" />
  <polygon fill="#000000" points="511.736,238.676, 511.216,249.85, 244.407,396.096" />
  <polygon fill="#000000" points="197.022,214.511, 204.519,404.888, 185.909,415.089" />
  <polygon fill="#FFFFFF" points="499.193,60.0268, 517.034,51.9236, 527.195,194.42" />
  <polygon fill="#FFFFFF" points="512.271,226.056, 513.007,236.387, 263.749,383.166" />
  <polygon fill="#FFFFFF" points="200.177,226.813, 225.238,393.679, 207.166,404.321" />
  <polygon fill="#FFFFFF" points="460.923,67.8667, 215.344,192.504, 214.837,179.634" />
  <polygon fill="#000000" points="511.357,214.46, 513.317,223.867, 282.192,369.98" />
  <polygon fill="#000000" points="204.581,237.784, 245.284,381.972, 227.888,392.97" />
  <polygon fill="#000000" points="442.67,78.9604, 216.035,206.554, 214.281,194.873" />
  <polygon fill="#000000" points="479.368,69.2798, 496.559,60.5551, 522.601,185.541" />
  <polygon fill="#FFFFFF" points="210.158,247.382, 264.506,369.871, 247.914,381.131" />
  <polygon fill="#FFFFFF" points="425.428,90.4308, 218.148,219.226, 215.201,208.786" />
  <polygon fill="#FFFFFF" points="460.345,79.1971, 476.753,69.9593, 516.856,177.803" />
  <polygon fill="#FFFFFF" points="509.046,203.972, 512.176,212.389, 299.603,356.649" />
  <polygon fill="#000000" points="409.319,102.146, 221.609,230.469, 217.544,221.307" />
  <polygon fill="#000000" points="442.267,89.6494, 457.772,80.0156, 510.056,171.246" />
  <polygon fill="#000000" points="505.41,194.658, 509.637,202.034, 315.861,343.292" />
  <polygon fill="#000000" points="216.809,255.582, 282.758,357.489, 267.092,368.909" />
  <polygon fill="#FFFFFF" points="425.268,100.499, 439.759,90.5922, 502.315,165.89" />
  <polygon fill="#FFFFFF" points="500.545,186.568, 505.779,192.868, 330.862,330.026" />
  <polygon fill="#FFFFFF" points="224.42,262.379, 299.911,344.944, 285.278,356.419" />
  <polygon fill="#FFFFFF" points="394.448,113.97, 226.32,240.254, 221.229,232.387" />
  <polygon fill="#000000" points="494.565,179.731, 500.698,184.936, 344.521,316.975" />
  <polygon fill="#000000" points="232.861,267.789, 315.849,332.363, 302.342,343.782" />
  <polygon fill="#000000" points="380.902,125.766, 232.167,248.57, 226.158,241.998" />
  <polygon fill="#000000" points="409.464,111.601, 422.847,101.549, 493.76,161.735" />
  <polygon fill="#FFFFFF" points="241.988,271.847, 330.475,319.872, 318.171,331.126" />
  <polygon fill="#FFFFFF" points="368.75,137.398, 239.016,255.427, 232.211,250.132" />
  <polygon fill="#FFFFFF" points="394.954,122.811, 407.15,112.741, 484.535,158.764" />
  <polygon fill="#FFFFFF" points="487.6,174.156, 494.512,178.267, 356.772,304.257" />
  <polygon fill="#000000" points="358.037,148.735, 246.721,260.855, 239.252,256.802" />
  <polygon fill="#000000" points="381.818,133.983, 392.768,124.021, 474.788,156.94" />
  <polygon fill="#000000" points="479.795,169.831, 487.356,172.865, 367.57,291.986" />
  <polygon fill="#000000" points="251.65,274.606, 343.711,307.597, 332.669,318.577" />
  <polygon fill="#FFFFFF" points="370.114,144.975, 379.776,135.243, 464.676,156.207" />
  <polygon fill="#FFFFFF" points="471.306,166.725, 479.376,168.718, 376.892,280.27" />
  <polygon fill="#FFFFFF" points="261.689,276.137, 355.5,295.661, 345.759,306.264" />
  <polygon fill="#FFFFFF" points="348.787,159.652, 255.124,264.904, 247.134,262.04" />
  <polygon fill="#000000" points="462.295,164.789, 470.73,165.791, 384.738,269.207" />
  <polygon fill="#000000" points="271.946,276.526, 365.811,284.181, 357.389,294.309" />
  <polygon fill="#000000" points="341.003,170.037, 264.062,267.642, 255.694,265.9" />
  <polygon fill="#000000" points="368.231,146.265, 454.358,156.495, 359.876,155.654" />
  <polygon fill="#FFFFFF" points="282.262,275.875, 374.633,273.264, 367.529,282.828" />
  <polygon fill="#FFFFFF" points="334.661,179.788, 273.366,269.154, 264.768,268.452" />
  <polygon fill="#FFFFFF" points="358.163,156.953, 443.991,157.718, 351.115,165.894" />
  <polygon fill="#FFFFFF" points="452.93,163.954, 461.585,164.031, 391.131,258.885" />
  <polygon fill="#000000" points="329.719,188.819, 282.869,269.539, 274.186,269.784" />
  <polygon fill="#000000" points="349.582,167.183, 433.727,159.776, 343.82,175.584" />
  <polygon fill="#000000" points="443.376,164.137, 452.106,163.368, 396.116,249.375" />
  <polygon fill="#000000" points="381.98,263.007, 376.17,271.93, 292.482,274.296" />
  <polygon fill="#FFFFFF" points="423.711,162.56, 337.955,184.626, 342.471,176.844" />
  <polygon fill="#FFFFFF" points="433.794,165.239, 442.461,163.715, 399.758,240.736" />
  <polygon fill="#FFFFFF" points="387.888,253.492, 383.332,261.709, 302.462,271.91" />
  <polygon fill="#FFFFFF" points="326.114,197.059, 292.408,268.909, 283.78,269.998" />
  <polygon fill="#000000" points="424.341,167.152, 432.813,164.972, 402.14,233.01" />
  <polygon fill="#000000" points="392.415,244.787, 389.052,252.246, 312.067,268.844" />
  <polygon fill="#000000" points="323.762,204.456, 301.826,267.388, 293.386,269.208" />
  <polygon fill="#000000" points="414.076,165.955, 333.463,192.939, 336.793,185.84" />
  <polygon fill="#FFFFFF" points="395.64,236.943, 393.393,243.608, 321.176,265.231" />
  <polygon fill="#FFFFFF" points="322.564,210.976, 310.979,265.104, 302.848,267.539" />
  <polygon fill="#FFFFFF" points="404.942,169.839, 330.267,200.461, 332.487,194.092" />
  <polygon fill="#FFFFFF" points="415.159,169.758, 423.317,167.027, 403.362,226.22" />
  <polygon fill="#000000" points="322.406,216.601, 319.736,262.191, 312.022,265.121" />
  <polygon fill="#000000" points="396.412,174.09, 328.273,207.147, 329.473,201.54" />
  <polygon fill="#000000" points="406.378,172.934, 414.114,169.761, 403.54,220.374" />
  <polygon fill="#000000" points="397.658,229.994, 396.436,235.843, 329.687,261.201" />
  <polygon fill="#FFFFFF" points="388.569,178.587, 327.37,212.973, 327.653,208.14" />
  <polygon fill="#FFFFFF" points="398.111,176.555, 405.334,173.051, 402.797,215.463" />
  <polygon fill="#FFFFFF" points="398.581,223.955, 398.28,228.984, 337.513,256.883" />
  <polygon fill="#FFFFFF" points="323.165,221.333, 327.983,258.783, 320.778,262.09" />
  <polygon fill="#000000" points="390.454,180.497, 397.088,176.77, 401.266,211.46" />
  <polygon fill="#000000" points="398.529,218.825, 399.037,223.043, 344.59,252.401" />
  <polygon fill="#000000" points="324.709,225.192, 335.624,255.013, 329.005,258.582" />
  <polygon fill="#000000" points="381.48,183.213, 327.437,217.931, 326.914,213.871" />
  <polygon fill="#FFFFFF" points="397.635,214.585, 398.833,218.016, 350.87,247.871" />
  <polygon fill="#FFFFFF" points="326.901,228.212, 342.584,251.009, 336.607,254.729" />
  <polygon fill="#FFFFFF" points="375.189,187.858, 328.343,222.033, 327.134,218.729" />
  <polygon fill="#FFFFFF" points="383.483,184.639, 389.471,180.792, 399.084,208.324" />
  <polygon fill="#000000" points="329.605,230.443, 348.806,246.891, 343.513,250.659" />
  <polygon fill="#000000" points="369.721,192.421, 329.953,225.308, 328.178,222.727" />
  <polygon fill="#000000" points="377.25,188.866, 382.553,184.997, 396.389,206.002" />
  <polygon fill="#000000" points="396.035,211.2, 397.801,213.882, 356.33,243.4" />
  <polygon fill="#FFFFFF" points="365.081,196.812, 332.13,227.799, 329.91,225.898" />
  <polygon fill="#FFFFFF" points="371.79,193.073, 376.388,189.271, 393.314,204.426" />
  <polygon fill="#FFFFFF" points="393.866,208.623, 396.079,210.604, 360.963,239.081" />
  <polygon fill="#FFFFFF" points="332.687,231.947, 354.258,242.771, 349.668,246.493" />
  <polygon fill="#000000" points="367.117,197.165, 371.006,193.508, 389.989,203.522" />
  <polygon fill="#000000" points="391.265,206.791, 393.804,208.13, 364.784,234.994" />
  <polygon fill="#000000" points="336.017,232.794, 358.925,238.747, 355.042,242.341" />
  <polygon fill="#000000" points="361.255,200.955, 334.738,229.563, 332.192,228.286" />
  <polygon fill="#FFFFFF" points="388.361,205.634, 391.115,206.399, 367.822,231.207" />
  <polygon fill="#FFFFFF" points="339.475,233.064, 362.813,234.905, 359.625,238.3" />
  <polygon fill="#FFFFFF" points="358.213,204.787, 337.646,230.667, 334.888,229.95" />
  <polygon fill="#FFFFFF" points="366.417,197.616, 386.535,203.207, 363.224,201.06" />
  <!-- Shape 6 -->
  <polygon fill="#FFFFFF" points="12.2798,523.281, 31.1017,518.044, 227.496,933.745" />
  <polygon fill="#FFFFFF" points="454.195,376.229, 475.117,381.626, 63.8451,484.843" />
  <polygon fill="#FFFFFF" points="542.797,389.271, 976.703,501.213, 966.593,520.844" />
  <polygon fill="#FFFFFF" points="965.286,571.502, 755.617,978.638, 736.36,978.638" />
  <polygon fill="#FFFFFF" points="271.136,979.17, 680.884,998.962, 281.514,998.962" />
  <polygon fill="#000000" points="32.635,516.451, 52.5405,511.455, 219.524,912.032" />
  <polygon fill="#000000" points="478.336,381.982, 498.848,388.35, 86.9691,480.202" />
  <polygon fill="#000000" points="563.273,398.037, 966.557,523.242, 955.477,542.948" />
  <polygon fill="#000000" points="951.574,592.191, 733.727,979.622, 713.896,978.664" />
  <polygon fill="#000000" points="259.547,956.905, 658.969,995.859, 269.053,977.025" />
  <polygon fill="#FFFFFF" points="54.2377,509.881, 75.1611,505.215, 212.738,890.108" />
  <polygon fill="#FFFFFF" points="502.067,388.825, 521.991,396.187, 111.112,476.012" />
  <polygon fill="#FFFFFF" points="583.028,407.849, 955.308,545.398, 943.234,565.031" />
  <polygon fill="#FFFFFF" points="936.761,612.7, 711.157,979.54, 690.866,977.561" />
  <polygon fill="#FFFFFF" points="257.539,954.678, 249.056,934.329, 636.669,991.653" />
  <polygon fill="#000000" points="77.0219,503.673, 98.8806,499.426, 207.28,868.09" />
  <polygon fill="#000000" points="525.189,396.789, 544.352,405.151, 136.169,472.367" />
  <polygon fill="#000000" points="601.876,418.698, 942.919,567.518, 929.838,586.929" />
  <polygon fill="#000000" points="920.846,632.865, 688.033,978.315, 667.412,975.266" />
  <polygon fill="#000000" points="247.145,932.027, 239.826,911.55, 614.137,986.301" />
  <polygon fill="#FFFFFF" points="100.902,497.931, 123.597,494.194, 203.274,846.098" />
  <polygon fill="#FFFFFF" points="547.505,405.885, 565.739,415.238, 162.017,469.363" />
  <polygon fill="#FFFFFF" points="619.642,430.56, 929.369,589.437, 915.278,608.474" />
  <polygon fill="#FFFFFF" points="903.842,652.523, 664.499,975.887, 643.687,971.73" />
  <polygon fill="#FFFFFF" points="238.034,909.183, 232.007,888.685, 591.533,979.777" />
  <polygon fill="#000000" points="125.774,492.763, 149.19,489.623, 200.83,824.256" />
  <polygon fill="#000000" points="568.824,416.106, 585.971,426.425, 188.517,467.092" />
  <polygon fill="#000000" points="636.158,443.391, 914.647,610.986, 899.558,629.5" />
  <polygon fill="#000000" points="885.775,671.514, 640.71,972.207, 619.857,966.923" />
  <polygon fill="#000000" points="230.354,886.261, 225.732,865.851, 569.028,972.07" />
  <polygon fill="#FFFFFF" points="151.514,488.269, 175.521,485.813, 200.035,802.69" />
  <polygon fill="#FFFFFF" points="588.965,427.427, 604.875,438.668, 215.518,465.638" />
  <polygon fill="#FFFFFF" points="651.267,457.129, 898.758,631.998, 882.696,649.84" />
  <polygon fill="#FFFFFF" points="866.689,689.679, 616.832,967.246, 596.097,960.83" />
  <polygon fill="#FFFFFF" points="224.238,863.383, 221.119,843.171, 546.799,963.187" />
  <polygon fill="#000000" points="177.982,484.551, 202.434,482.857, 200.958,781.528" />
  <polygon fill="#000000" points="607.755,439.804, 622.289,451.906, 242.85,465.08" />
  <polygon fill="#000000" points="664.829,471.696, 881.725,652.305, 864.732,669.333" />
  <polygon fill="#000000" points="846.643,706.868, 593.044,960.991, 572.592,953.454" />
  <polygon fill="#000000" points="219.802,840.671, 218.262,820.771, 525.029,953.15" />
  <polygon fill="#FFFFFF" points="205.02,481.702, 229.76,480.843, 203.64,760.899" />
  <polygon fill="#FFFFFF" points="625.033,453.172, 638.067,466.058, 270.334,465.487" />
  <polygon fill="#FFFFFF" points="676.718,486.995, 863.586,671.746, 845.718,687.824" />
  <polygon fill="#FFFFFF" points="825.715,722.941, 569.532,953.45, 549.531,944.818" />
  <polygon fill="#FFFFFF" points="217.137,818.252, 217.233,798.779, 503.902,942" />
  <polygon fill="#000000" points="232.455,479.806, 257.313,479.845, 208.101,740.931" />
  <polygon fill="#000000" points="297.78,466.916, 640.655,467.449, 652.079,481.025" />
  <polygon fill="#000000" points="686.824,502.914, 844.4,690.167, 825.73,705.166" />
  <polygon fill="#000000" points="803.999,737.766, 546.485,944.645, 527.106,934.963" />
  <polygon fill="#000000" points="216.314,796.256, 218.08,777.324, 483.604,929.795" />
  <polygon fill="#FFFFFF" points="260.1,478.94, 284.901,479.927, 214.332,721.75" />
  <polygon fill="#FFFFFF" points="324.992,469.411, 654.49,482.532, 664.213,496.689" />
  <polygon fill="#FFFFFF" points="695.061,519.326, 824.244,707.42, 804.861,721.223" />
  <polygon fill="#FFFFFF" points="781.608,751.226, 524.097,934.619, 505.51,923.946" />
  <polygon fill="#FFFFFF" points="217.378,774.812, 220.823,756.536, 464.316,916.61" />
  <polygon fill="#000000" points="287.759,479.164, 312.318,481.139, 222.299,703.479" />
  <polygon fill="#000000" points="351.767,472.999, 666.429,498.303, 674.379,512.92" />
  <polygon fill="#000000" points="701.362,536.091, 803.213,723.371, 783.223,735.876" />
  <polygon fill="#000000" points="758.669,763.219, 502.561,923.434, 484.932,911.845" />
  <polygon fill="#000000" points="220.347,754.05, 225.456,736.542, 446.211,902.535" />
  <polygon fill="#FFFFFF" points="315.226,480.527, 339.358,483.513, 231.941,686.235" />
  <polygon fill="#FFFFFF" points="377.903,477.693, 676.383,514.628, 682.506,529.572" />
  <polygon fill="#FFFFFF" points="705.683,553.058, 781.421,737.899, 760.946,749.017" />
  <polygon fill="#FFFFFF" points="735.328,773.66, 482.067,911.169, 465.554,898.752" />
  <polygon fill="#FFFFFF" points="225.211,734.1, 231.944,717.469, 429.453,887.676" />
  <polygon fill="#000000" points="342.293,483.059, 365.808,487.064, 243.168,670.131" />
  <polygon fill="#000000" points="403.198,483.486, 684.285,531.36, 688.552,546.488" />
  <polygon fill="#000000" points="708.006,570.07, 759.003,750.9, 738.176,760.557" />
  <polygon fill="#000000" points="711.742,782.483, 462.795,897.918, 447.547,884.778" />
  <polygon fill="#000000" points="231.933,715.085, 240.225,699.435, 414.194,872.153" />
  <polygon fill="#FFFFFF" points="368.746,486.772, 391.46,491.787, 255.868,655.267" />
  <polygon fill="#FFFFFF" points="427.453,490.353, 690.093,548.34, 692.495,563.503" />
  <polygon fill="#FFFFFF" points="708.338,586.962, 736.106,762.287, 715.076,770.43" />
  <polygon fill="#FFFFFF" points="688.082,789.642, 444.917,883.795, 431.069,870.046" />
  <polygon fill="#FFFFFF" points="240.446,697.128, 250.208,682.556, 400.567,856.097" />
  <polygon fill="#000000" points="394.376,491.662, 416.109,497.66, 269.902,641.736" />
  <polygon fill="#000000" points="450.482,498.251, 693.79,565.403, 694.343,580.447" />
  <polygon fill="#000000" points="706.71,603.569, 712.896,771.992, 691.821,778.585" />
  <polygon fill="#000000" points="664.528,795.113, 428.59,868.924, 416.261,854.694" />
  <polygon fill="#000000" points="250.657,680.341, 261.775,666.936, 388.686,839.652" />
  <polygon fill="#FFFFFF" points="418.977,497.701, 439.559,504.638, 285.11,629.617" />
  <polygon fill="#FFFFFF" points="472.107,507.117, 695.386,582.375, 694.129,597.147" />
  <polygon fill="#FFFFFF" points="703.182,619.725, 689.55,779.97, 668.596,784.999" />
  <polygon fill="#FFFFFF" points="641.266,798.894, 413.952,853.446, 403.241,838.869" />
  <polygon fill="#FFFFFF" points="262.444,664.83, 274.784,652.67, 378.644,822.969" />
  <polygon fill="#000000" points="442.353,504.843, 461.625,512.657, 301.31,618.974" />
  <polygon fill="#000000" points="492.166,516.869, 694.917,599.085, 691.915,613.43" />
  <polygon fill="#000000" points="697.839,635.27, 666.255,786.197, 645.594,789.667" />
  <polygon fill="#000000" points="618.486,801.006, 401.122,837.511, 392.107,822.729" />
  <polygon fill="#000000" points="275.662,650.687, 289.068,639.839, 370.507,806.204" />
  <polygon fill="#FFFFFF" points="464.321,513.022, 482.139,521.635, 318.307,609.855" />
  <polygon fill="#FFFFFF" points="510.516,527.41, 692.447,615.358, 687.787,629.13" />
  <polygon fill="#FFFFFF" points="690.791,650.048, 643.206,790.674, 623.013,792.611" />
  <polygon fill="#FFFFFF" points="382.929,806.436, 596.379,801.491, 390.193,821.276" />
  <polygon fill="#FFFFFF" points="290.141,637.993, 304.441,628.51, 364.315,789.519" />
  <polygon fill="#000000" points="484.713,522.152, 500.951,531.469, 335.888,602.291" />
  <polygon fill="#000000" points="527.036,538.624, 688.069,631.026, 681.86,644.085" />
  <polygon fill="#000000" points="682.171,663.918, 620.602,793.422, 601.05,793.875" />
  <polygon fill="#000000" points="375.75,790.159, 575.133,800.415, 381.234,804.908" />
  <polygon fill="#000000" points="305.691,626.814, 320.698,618.733, 360.08,773.075" />
  <polygon fill="#FFFFFF" points="503.38,532.129, 517.934,542.042, 353.834,596.293" />
  <polygon fill="#FFFFFF" points="541.627,550.384, 681.898,645.932, 674.273,658.147" />
  <polygon fill="#FFFFFF" points="672.137,676.748, 598.641,794.489, 579.899,793.525" />
  <polygon fill="#FFFFFF" points="370.582,774.065, 554.925,797.865, 374.284,788.573" />
  <polygon fill="#FFFFFF" points="322.105,617.199, 337.621,610.542, 357.786,757.032" />
  <polygon fill="#000000" points="520.199,542.833, 532.986,553.222, 371.918,591.854" />
  <polygon fill="#000000" points="554.219,562.549, 674.077,659.924, 665.185,671.182" />
  <polygon fill="#000000" points="660.862,688.425, 577.516,793.945, 559.746,791.65" />
  <polygon fill="#000000" points="369.354,772.443, 367.41,758.321, 535.926,793.948" />
  <polygon fill="#000000" points="339.163,609.177, 354.982,603.947, 357.384,741.546" />
  <polygon fill="#FFFFFF" points="535.067,554.13, 546.03,564.863, 389.912,588.945" />
  <polygon fill="#FFFFFF" points="564.767,574.971, 664.77,672.87, 654.779,683.069" />
  <polygon fill="#FFFFFF" points="648.542,698.853, 557.415,791.88, 540.766,788.36" />
  <polygon fill="#FFFFFF" points="366.422,756.682, 366.184,743.087, 518.288,788.789" />
  <polygon fill="#FFFFFF" points="356.635,602.759, 372.548,598.942, 358.799,726.763" />
  <polygon fill="#000000" points="547.912,565.872, 557.022,576.811, 407.593,587.517" />
  <polygon fill="#000000" points="573.258,587.495, 654.161,684.654, 643.254,693.712" />
  <polygon fill="#000000" points="635.382,707.959, 538.513,788.408, 523.12,783.783" />
  <polygon fill="#000000" points="365.437,741.453, 366.829,728.517, 502.148,782.53" />
  <polygon fill="#000000" points="374.285,597.936, 390.084,595.498, 361.927,712.821" />
  <polygon fill="#FFFFFF" points="558.692,577.905, 565.944,588.909, 424.745,587.501" />
  <polygon fill="#FFFFFF" points="579.707,599.964, 642.452,695.176, 630.822,703.032" />
  <polygon fill="#FFFFFF" points="621.598,715.691, 520.966,783.659, 506.947,778.063" />
  <polygon fill="#FFFFFF" points="366.319,726.907, 369.236,714.753, 487.62,775.324" />
  <polygon fill="#FFFFFF" points="391.879,594.675, 407.359,593.566, 366.639,699.842" />
  <!-- Shape 7 -->
  <polygon fill="#FFFFFF" points="714.059,11.5758, 723.615,28.851, 630.727,136.754" />
  <polygon fill="#FFFFFF" points="746.198,48.8055, 838.307,215.309, 829.552,218.491" />
  <polygon fill="#FFFFFF" points="821.134,236.917, 736.76,267.59, 727.311,260.12" />
  <polygon fill="#FFFFFF" points="613.756,176.644, 622.402,163.656, 704.822,248.642" />
  <polygon fill="#000000" points="725.772,30.7388, 733.808,47.0965, 641.839,128.24" />
  <polygon fill="#000000" points="753.44,66.9328, 828.759,220.261, 819.715,222.498" />
  <polygon fill="#000000" points="809.941,238.063, 725.163,259.029, 717.218,250.836" />
  <polygon fill="#000000" points="623.187,161.09, 632.141,150.688, 697.661,237.883" />
  <polygon fill="#FFFFFF" points="735.731,49.0233, 742.279,64.3931, 652.848,122.15" />
  <polygon fill="#FFFFFF" points="759.041,83.8359, 818.767,224.031, 809.606,225.293" />
  <polygon fill="#FFFFFF" points="708.828,240.958, 798.864,238.061, 715.302,249.573" />
  <polygon fill="#FFFFFF" points="633.081,148.491, 642.168,140.474, 692.128,227.071" />
  <polygon fill="#000000" points="743.963,66.3304, 749.08,80.6458, 663.582,118.242" />
  <polygon fill="#000000" points="763.089,99.441, 808.537,226.583, 799.426,226.876" />
  <polygon fill="#000000" points="702.095,230.806, 788.075,236.966, 707.151,239.57" />
  <polygon fill="#000000" points="643.231,138.635, 652.281,132.79, 688.135,216.469" />
  <polygon fill="#FFFFFF" points="750.521,82.5654, 754.286,95.7677, 673.881,116.267" />
  <polygon fill="#FFFFFF" points="765.695,113.688, 798.267,227.921, 789.36,227.282" />
  <polygon fill="#FFFFFF" points="696.944,220.668, 777.731,234.859, 700.658,229.338" />
  <polygon fill="#FFFFFF" points="653.434,131.295, 662.292,127.4, 685.574,206.304" />
  <polygon fill="#000000" points="755.488,97.6424, 757.996,109.683, 683.606,115.969" />
  <polygon fill="#000000" points="766.988,126.533, 788.144,228.087, 779.58,226.583" />
  <polygon fill="#000000" points="695.746,219.162, 693.278,210.798, 767.969,231.849" />
  <polygon fill="#000000" points="663.504,126.227, 672.027,124.054, 684.318,196.767" />
  <polygon fill="#FFFFFF" points="758.966,111.488, 760.332,122.333, 692.64,117.092" />
  <polygon fill="#FFFFFF" points="767.11,137.952, 778.338,227.156, 770.241,224.874" />
  <polygon fill="#FFFFFF" points="692.311,209.293, 690.979,201.411, 758.906,228.061" />
  <polygon fill="#FFFFFF" points="673.266,123.181, 681.33,122.5, 684.225,188.013" />
  <polygon fill="#000000" points="700.889,119.384, 761.08,124.044, 761.427,133.675" />
  <polygon fill="#000000" points="766.215,147.941, 769,225.232, 761.473,222.279" />
  <polygon fill="#000000" points="690.233,199.94, 689.912,192.681, 750.634,223.638" />
  <polygon fill="#000000" points="682.569,121.902, 690.069,122.483, 685.143,180.156" />
  <polygon fill="#FFFFFF" points="708.283,122.599, 761.968,135.273, 761.432,143.688" />
  <polygon fill="#FFFFFF" points="764.465,156.515, 760.259,222.438, 753.386,218.933" />
  <polygon fill="#FFFFFF" points="689.373,191.276, 689.93,184.748, 743.221,218.729" />
  <polygon fill="#FFFFFF" points="691.281,122.131, 698.133,123.749, 686.912,173.275" />
  <polygon fill="#000000" points="714.779,126.505, 761.783,145.156, 760.502,152.372" />
  <polygon fill="#000000" points="762.021,163.713, 752.223,218.916, 746.062,214.988" />
  <polygon fill="#000000" points="689.581,183.433, 690.878,177.708, 736.711,213.486" />
  <polygon fill="#000000" points="699.295,123.613, 705.439,126.051, 689.371,167.414" />
  <polygon fill="#FFFFFF" points="720.356,130.884, 760.684,153.698, 758.801,159.748" />
  <polygon fill="#FFFFFF" points="759.045,169.593, 744.969,214.817, 739.561,210.595" />
  <polygon fill="#FFFFFF" points="690.698,176.503, 692.594,171.622, 731.122,208.059" />
  <polygon fill="#FFFFFF" points="706.531,126.101, 711.926,129.153, 692.359,162.583" />
  <polygon fill="#000000" points="725.017,135.534, 758.833,160.924, 756.487,165.86" />
  <polygon fill="#000000" points="755.692,174.231, 738.554,210.297, 733.915,205.91" />
  <polygon fill="#000000" points="692.562,170.542, 694.918,166.517, 726.452,202.592" />
  <polygon fill="#000000" points="712.932,129.356, 717.561,132.831, 695.721,158.761" />
  <polygon fill="#FFFFFF" points="728.788,140.278, 756.393,166.88, 753.719,170.77" />
  <polygon fill="#FFFFFF" points="752.109,177.721, 733.006,205.509, 729.134,201.079" />
  <polygon fill="#FFFFFF" points="695.013,165.571, 697.695,162.387, 722.674,197.216" />
  <polygon fill="#FFFFFF" points="718.469,133.158, 722.334,136.882, 699.311,155.903" />
  <polygon fill="#000000" points="731.712,144.96, 753.522,171.634, 750.645,174.559" />
  <polygon fill="#000000" points="748.43,180.169, 728.331,200.603, 725.204,196.242" />
  <polygon fill="#000000" points="697.893,161.58, 700.775,159.198, 719.745,192.049" />
  <polygon fill="#000000" points="723.135,137.301, 726.257,141.119, 702.995,153.941" />
  <polygon fill="#FFFFFF" points="733.849,149.448, 750.367,175.27, 747.403,177.321" />
  <polygon fill="#FFFFFF" points="744.774,181.691, 724.512,195.714, 722.091,191.522" />
  <polygon fill="#FFFFFF" points="701.054,158.531, 704.022,156.895, 717.603,187.19" />
  <polygon fill="#FFFFFF" points="726.948,141.603, 729.364,145.38, 706.654,152.789" />
  <!-- Shape 8 -->
  <polygon fill="#000000" points="634.702,322.992, 642.603,319.183, 631.146,387.789" />
  <polygon fill="#000000" points="725.171,273.449, 734.666,269.997, 658.181,305.745" />
  <polygon fill="#000000" points="840.005,233.556, 852.587,256.302, 759.499,262.823" />
  <polygon fill="#000000" points="880.201,294.003, 986.886,486.857, 956.487,479.014" />
  <polygon fill="#000000" points="653.867,416.017, 654.286,408.375, 911.604,482.51" />
  <polygon fill="#FFFFFF" points="644.266,317.741, 652.519,313.884, 634.046,378.945" />
  <polygon fill="#FFFFFF" points="737.325,269.23, 747.369,268.527, 669.092,301.122" />
  <polygon fill="#FFFFFF" points="772.495,266.138, 855.539,260.321, 863.771,280.283" />
  <polygon fill="#FFFFFF" points="883.655,314.36, 951.711,479.408, 923.946,471.409" />
  <polygon fill="#FFFFFF" points="651.789,406.17, 653.025,398.768, 881.341,472.306" />
  <polygon fill="#000000" points="654.33,312.484, 662.964,308.889, 637.894,370.369" />
  <polygon fill="#000000" points="750.119,268.265, 760.187,269.825, 680.476,297.264" />
  <polygon fill="#000000" points="784.739,271.414, 865.947,283.999, 870.391,301.322" />
  <polygon fill="#000000" points="883.459,331.799, 919.306,471.525, 894.123,463.414" />
  <polygon fill="#000000" points="650.929,396.597, 652.966,389.421, 854.062,462.024" />
  <polygon fill="#FFFFFF" points="664.919,307.587, 673.903,304.494, 642.675,362.138" />
  <polygon fill="#FFFFFF" points="762.933,270.001, 772.586,273.371, 692.206,294.348" />
  <polygon fill="#FFFFFF" points="795.855,278.184, 871.854,304.721, 873.056,319.554" />
  <polygon fill="#FFFFFF" points="880.199,346.492, 889.66,463.274, 866.997,455.092" />
  <polygon fill="#FFFFFF" points="651.263,387.289, 654.089,380.36, 829.696,451.71" />
  <polygon fill="#000000" points="675.991,303.333, 685.243,300.918, 648.358,354.341" />
  <polygon fill="#000000" points="775.244,273.918, 784.13,278.68, 704.116,292.48" />
  <polygon fill="#000000" points="805.561,286.016, 873.876,322.624, 872.356,335.124" />
  <polygon fill="#000000" points="874.432,358.619, 862.75,454.719, 842.537,446.507" />
  <polygon fill="#000000" points="652.769,378.277, 656.364,371.642, 808.164,441.414" />
  <polygon fill="#FFFFFF" points="687.442,299.932, 696.844,298.31, 654.891,347.078" />
  <polygon fill="#FFFFFF" points="786.631,279.533, 794.479,285.303, 716.018,291.711" />
  <polygon fill="#FFFFFF" points="813.656,294.522, 872.603,337.86, 868.855,348.186" />
  <polygon fill="#FFFFFF" points="866.686,368.364, 838.539,445.925, 820.702,437.727" />
  <polygon fill="#FFFFFF" points="655.416,369.622, 659.75,363.345, 789.379,431.196" />
  <polygon fill="#000000" points="699.124,297.522, 708.532,296.754, 662.201,340.442" />
  <polygon fill="#000000" points="796.763,286.397, 803.381,292.831, 727.709,292.037" />
  <polygon fill="#000000" points="820.022,303.355, 868.603,350.586, 863.089,358.902" />
  <polygon fill="#000000" points="857.452,375.914, 816.981,436.96, 801.439,428.824" />
  <polygon fill="#000000" points="659.159,361.407, 664.189,355.56, 773.246,421.123" />
  <polygon fill="#FFFFFF" points="710.859,296.178, 720.114,296.275, 670.195,334.524" />
  <polygon fill="#FFFFFF" points="738.987,293.409, 805.404,294.106, 810.671,300.899" />
  <polygon fill="#FFFFFF" points="824.61,312.213, 862.41,360.967, 855.56,367.438" />
  <polygon fill="#FFFFFF" points="847.183,381.458, 798.021,427.898, 784.683,419.88" />
  <polygon fill="#FFFFFF" points="663.936,353.722, 669.602,348.379, 759.655,411.267" />
  <polygon fill="#000000" points="722.45,295.918, 731.389,296.852, 678.756,329.397" />
  <polygon fill="#000000" points="749.654,295.741, 812.399,302.297, 816.259,309.184" />
  <polygon fill="#000000" points="827.438,320.836, 854.528,369.174, 846.734,373.965" />
  <polygon fill="#000000" points="836.293,385.19, 781.587,418.821, 770.357,410.978" />
  <polygon fill="#000000" points="669.666,346.661, 675.89,341.892, 748.489,401.707" />
  <polygon fill="#FFFFFF" points="733.694,296.709, 742.159,298.418, 687.751,325.117" />
  <polygon fill="#FFFFFF" points="759.533,298.918, 817.672,310.652, 820.125,317.405" />
  <polygon fill="#FFFFFF" points="828.578,329.007, 845.422,375.383, 837.041,378.661" />
  <polygon fill="#FFFFFF" points="825.154,387.304, 767.599,409.814, 758.371,402.212" />
  <polygon fill="#FFFFFF" points="676.243,340.312, 682.933,336.176, 739.615,392.525" />
  <polygon fill="#000000" points="744.394,298.479, 752.241,300.873, 697.031,321.721" />
  <polygon fill="#000000" points="768.47,302.802, 821.215,318.895, 822.311,325.325" />
  <polygon fill="#000000" points="828.149,336.55, 835.517,379.774, 826.869,381.705" />
  <polygon fill="#000000" points="748.619,393.674, 814.093,387.994, 755.959,400.971" />
  <polygon fill="#000000" points="683.545,334.751, 690.591,331.294, 732.886,383.803" />
  <polygon fill="#FFFFFF" points="754.367,301.124, 761.469,304.094, 706.44,319.222" />
  <polygon fill="#FFFFFF" points="776.34,307.242, 823.079,326.795, 822.91,332.75" />
  <polygon fill="#FFFFFF" points="826.311,343.332, 825.199,382.531, 816.563,383.28" />
  <polygon fill="#FFFFFF" points="740.978,385.459, 803.395,387.454, 746.557,392.385" />
  <polygon fill="#FFFFFF" points="691.428,330.037, 698.71,327.287, 728.144,375.621" />
  <polygon fill="#000000" points="763.454,304.512, 769.708,307.938, 715.815,317.608" />
  <polygon fill="#000000" points="783.051,312.079, 823.367,334.161, 822.058,339.526" />
  <polygon fill="#000000" points="823.248,349.256, 814.809,383.839, 806.427,383.571" />
  <polygon fill="#000000" points="735.311,377.659, 793.299,385.877, 739.264,384.15" />
  <polygon fill="#000000" points="699.735,326.209, 707.126,324.177, 725.217,368.051" />
  <polygon fill="#FFFFFF" points="771.522,308.498, 776.854,312.25, 724.996,316.846" />
  <polygon fill="#FFFFFF" points="788.548,317.152, 822.223,340.847, 819.924,345.538" />
  <polygon fill="#FFFFFF" points="819.168,354.263, 804.646,383.887, 796.72,382.763" />
  <polygon fill="#FFFFFF" points="733.938,376.356, 731.465,370.359, 783.999,383.451" />
  <polygon fill="#FFFFFF" points="708.301,323.283, 715.668,321.961, 723.919,361.159" />
  <polygon fill="#000000" points="778.472,312.925, 782.836,316.874, 733.827,316.882" />
  <polygon fill="#000000" points="792.811,322.306, 819.822,346.744, 816.7,350.708" />
  <polygon fill="#000000" points="814.29,358.325, 794.963,382.861, 787.656,381.04" />
  <polygon fill="#000000" points="730.419,369.089, 729.272,363.637, 775.646,380.36" />
  <polygon fill="#000000" points="716.953,321.252, 724.167,320.612, 724.056,354.997" />
  <polygon fill="#FFFFFF" points="742.166,317.643, 784.24,317.636, 787.62,321.655" />
  <polygon fill="#FFFFFF" points="795.856,327.396, 816.364,351.779, 812.595,354.994" />
  <polygon fill="#FFFFFF" points="808.834,361.446, 785.969,380.947, 779.407,378.58" />
  <polygon fill="#FFFFFF" points="728.536,362.423, 728.551,357.558, 768.348,376.781" />
  <polygon fill="#FFFFFF" points="725.522,320.085, 732.456,320.084, 725.427,349.605" />
  <polygon fill="#000000" points="749.886,319.04, 788.8,322.475, 791.209,326.446" />
  <polygon fill="#000000" points="797.729,332.291, 812.06,355.917, 807.826,358.382" />
  <polygon fill="#000000" points="803.018,363.656, 777.826,378.325, 772.099,375.559" />
  <polygon fill="#000000" points="728.102,356.421, 729.113,352.173, 762.171,372.878" />
  <polygon fill="#000000" points="733.842,319.733, 740.383,320.31, 727.824,345.006" />
  <polygon fill="#FFFFFF" points="756.882,320.972, 792.159,327.295, 793.636,331.112" />
  <polygon fill="#FFFFFF" points="798.51,336.876, 807.129,359.15, 802.606,360.891" />
  <polygon fill="#FFFFFF" points="797.052,365.01, 770.656,375.171, 765.819,372.142" />
  <polygon fill="#FFFFFF" points="728.923,351.131, 730.76,347.518, 757.145,368.807" />
  <polygon fill="#FFFFFF" points="741.763,320.124, 747.809,321.207, 731.042,341.206" />
  <polygon fill="#000000" points="763.07,323.331, 794.358,331.963, 794.967,335.534" />
  <polygon fill="#000000" points="798.3,341.056, 801.787,361.501, 797.143,362.562" />
  <polygon fill="#000000" points="760.614,368.485, 791.125,365.579, 764.537,371.651" />
  <polygon fill="#000000" points="730.799,346.585, 733.293,343.612, 753.26,364.708" />
  <polygon fill="#000000" points="749.148,321.17, 754.614,322.678, 734.875,338.196" />
  <polygon fill="#FFFFFF" points="768.392,326.004, 795.47,336.363, 795.295,339.612" />
  <polygon fill="#FFFFFF" points="797.223,344.76, 796.24,363.016, 791.63,363.455" />
  <polygon fill="#FFFFFF" points="756.492,364.732, 785.41,365.453, 759.509,367.919" />
  <polygon fill="#FFFFFF" points="733.528,342.798, 736.51,340.453, 750.478,360.707" />
  <polygon fill="#FFFFFF" points="755.883,322.775, 760.703,324.618, 739.127,335.947" />
  <polygon fill="#000000" points="772.818,328.878, 795.591,340.398, 794.733,343.267" />
  <polygon fill="#000000" points="795.417,347.936, 790.682,363.761, 786.243,363.65" />
  <polygon fill="#000000" points="753.429,361.01, 780.052,364.729, 755.573,364.119" />
  <polygon fill="#000000" points="736.907,339.765, 740.219,338.026, 748.731,356.91" />
  <polygon fill="#000000" points="761.876,324.828, 766.005,326.917, 743.611,334.418" />
  <polygon fill="#FFFFFF" points="776.342,331.845, 794.841,343.991, 793.411,346.441" />
  <polygon fill="#FFFFFF" points="793.028,350.554, 785.285,363.819, 781.134,363.239" />
  <polygon fill="#FFFFFF" points="752.7,360.375, 751.373,357.431, 775.173,363.515" />
  <polygon fill="#FFFFFF" points="740.743,337.466, 744.234,336.297, 747.928,353.406" />
  <polygon fill="#FFFFFF" points="767.061,327.22, 770.478,329.463, 748.159,333.551" />
  <!-- Shape 9 -->
  <polygon fill="#FFFFFF" points="542.321,279.102, 547.603,271.167, 612.922,306.561" />
  <polygon fill="#FFFFFF" points="626.216,318.962, 633.313,322.807, 629.686,388.904" />
  <polygon fill="#FFFFFF" points="508.885,378.694, 619.589,399.971, 619.195,407.153" />
  <polygon fill="#FFFFFF" points="527.697,290.866, 491.064,366.991, 479.079,363.899" />
  <polygon fill="#000000" points="617.809,314.968, 624.897,317.725, 628.018,380.646" />
  <polygon fill="#000000" points="521.012,379.735, 620.253,391.854, 620.602,398.876" />
  <polygon fill="#000000" points="525.782,299.677, 503.941,370.296, 492.826,368.159" />
  <polygon fill="#000000" points="537.187,287.908, 540.865,280.265, 604.377,304.967" />
  <polygon fill="#FFFFFF" points="532.013,379.844, 620.003,383.965, 621.052,390.717" />
  <polygon fill="#FFFFFF" points="525.267,307.903, 515.874,372.507, 505.672,371.261" />
  <polygon fill="#FFFFFF" points="533.777,296.361, 536.022,289.101, 596.305,304.407" />
  <polygon fill="#FFFFFF" points="609.536,312.192, 616.443,313.946, 625.603,372.872" />
  <polygon fill="#000000" points="525.956,315.468, 526.807,373.71, 517.55,373.276" />
  <polygon fill="#000000" points="532.886,297.56, 588.837,304.759, 531.898,304.356" />
  <polygon fill="#000000" points="601.581,310.531, 608.159,311.377, 622.536,365.673" />
  <polygon fill="#000000" points="541.861,379.125, 618.904,376.429, 620.594,382.813" />
  <polygon fill="#FFFFFF" points="531.261,305.538, 582.073,305.898, 531.352,311.804" />
  <polygon fill="#FFFFFF" points="594.097,309.868, 600.223,309.911, 618.923,359.121" />
  <polygon fill="#FFFFFF" points="617.043,369.352, 619.298,375.285, 550.545,377.691" />
  <polygon fill="#FFFFFF" points="527.648,322.317, 536.697,374.002, 528.407,374.292" />
  <polygon fill="#000000" points="587.207,310.081, 592.786,309.431, 614.882,353.266" />
  <polygon fill="#000000" points="614.524,362.821, 617.255,368.238, 558.072,375.66" />
  <polygon fill="#000000" points="530.15,328.409, 545.518,373.491, 538.204,374.408" />
  <polygon fill="#000000" points="530.945,312.948, 576.086,307.691, 531.94,318.633" />
  <polygon fill="#FFFFFF" points="611.459,356.903, 614.57,361.757, 564.462,373.154" />
  <polygon fill="#FFFFFF" points="533.274,333.721, 553.26,372.293, 546.915,373.736" />
  <polygon fill="#FFFFFF" points="570.921,310.008, 533.464,324.788, 531.737,319.721" />
  <polygon fill="#FFFFFF" points="581.006,311.041, 585.968,309.811, 610.533,348.142" />
  <polygon fill="#000000" points="536.842,338.251, 559.929,370.529, 554.534,372.395" />
  <polygon fill="#000000" points="566.596,312.721, 535.734,330.232, 533.439,325.804" />
  <polygon fill="#000000" points="575.558,312.617, 579.858,310.92, 605.995,343.762" />
  <polygon fill="#000000" points="607.969,351.648, 611.359,355.907, 569.757,370.292" />
  <polygon fill="#FFFFFF" points="563.104,315.705, 538.565,334.946, 535.859,331.163" />
  <polygon fill="#FFFFFF" points="570.899,314.678, 574.516,312.626, 601.385,340.121" />
  <polygon fill="#FFFFFF" points="604.177,347.081, 607.744,350.732, 574.011,367.191" />
  <polygon fill="#FFFFFF" points="540.689,342.01, 565.549,368.32, 561.071,370.505" />
  <!-- Shape 10 -->
  <polygon fill="#000000" points="606.528,187.964, 612.714,178.672, 699.549,247.325" />
  <polygon fill="#000000" points="711.566,263.043, 723.744,272.672, 656.797,304.948" />
  <polygon fill="#000000" points="565.513,279.05, 638.895,309.199, 629.506,313.726" />
  <polygon fill="#000000" points="590.907,195.607, 555.777,266.723, 546.801,261.86" />
  <polygon fill="#FFFFFF" points="698.415,253.645, 710.08,261.089, 662.179,297.738" />
  <polygon fill="#FFFFFF" points="576.944,282.305, 647.992,303.419, 641.124,308.674" />
  <polygon fill="#FFFFFF" points="587.707,206.062, 566.184,272.042, 556.982,268.261" />
  <polygon fill="#FFFFFF" points="600.174,197.825, 604.58,188.907, 685.936,240.824" />
  <polygon fill="#000000" points="587.825,284.286, 654.425,297.066, 649.794,302.702" />
  <polygon fill="#000000" points="586.316,215.8, 576.624,276.045, 567.544,273.347" />
  <polygon fill="#000000" points="595.838,207.295, 598.588,198.862, 673.39,236.366" />
  <polygon fill="#000000" points="685.879,246.523, 696.839,252.019, 665.234,290.477" />
  <polygon fill="#FFFFFF" points="586.498,224.712, 586.739,278.778, 578.067,277.114" />
  <polygon fill="#FFFFFF" points="593.341,216.232, 594.603,208.388, 662.057,233.675" />
  <polygon fill="#FFFFFF" points="674.174,241.425, 684.271,245.21, 666.314,283.441" />
  <polygon fill="#FFFFFF" points="597.896,285.102, 658.512,290.495, 655.824,296.218" />
  <polygon fill="#000000" points="592.467,224.513, 592.435,217.344, 652.04,232.474" />
  <polygon fill="#000000" points="663.472,238.09, 672.583,240.403, 665.766,276.848" />
  <polygon fill="#000000" points="606.964,284.891, 660.585,283.997, 659.543,289.569" />
  <polygon fill="#000000" points="587.995,232.717, 596.242,280.329, 588.204,279.614" />
  <polygon fill="#FFFFFF" points="653.9,236.261, 661.943,237.336, 663.927,270.861" />
  <polygon fill="#FFFFFF" points="660.973,277.809, 661.283,283.041, 614.901,283.814" />
  <polygon fill="#FFFFFF" points="590.543,239.759, 604.915,280.823, 597.677,280.943" />
  <polygon fill="#FFFFFF" points="591.863,225.609, 643.394,232.495, 592.977,232.037" />
  <polygon fill="#000000" points="660.002,272.108, 661.379,276.862, 621.638,282.042" />
  <polygon fill="#000000" points="593.879,245.813, 612.606,280.409, 606.276,281.234" />
  <polygon fill="#000000" points="592.641,233.088, 636.131,233.483, 594.615,238.73" />
  <polygon fill="#000000" points="645.542,235.682, 652.469,235.745, 661.119,265.591" />
  <polygon fill="#FFFFFF" points="597.75,250.879, 619.223,279.25, 613.859,280.639" />
  <polygon fill="#FFFFFF" points="594.509,239.712, 630.221,235.198, 597.128,244.548" />
  <polygon fill="#FFFFFF" points="638.433,236.108, 644.237,235.375, 657.636,261.103" />
  <polygon fill="#FFFFFF" points="657.982,267.023, 660.16,271.204, 627.159,279.75" />
  <polygon fill="#000000" points="625.599,237.421, 600.266,249.475, 597.212,245.441" />
  <polygon fill="#000000" points="632.568,237.307, 637.274,235.978, 653.746,257.418" />
  <polygon fill="#000000" points="655.206,262.633, 657.936,266.188, 631.496,277.104" />
  <polygon fill="#000000" points="601.924,254.986, 624.726,277.513, 620.343,279.323" />
  <polygon fill="#FFFFFF" points="627.904,239.065, 631.567,237.322, 649.683,254.524" />
  <polygon fill="#FFFFFF" points="651.936,258.977, 654.999,261.885, 634.718,274.263" />
  <polygon fill="#FFFFFF" points="606.193,258.187, 629.127,275.364, 625.699,277.457" />
  <polygon fill="#FFFFFF" points="622.171,239.955, 603.798,253.524, 600.501,250.266" />
  <polygon fill="#000000" points="648.408,256.054, 651.61,258.326, 636.922,271.366" />
  <polygon fill="#000000" points="610.381,260.553, 632.475,272.958, 629.944,275.205" />
  <polygon fill="#000000" points="619.818,242.63, 607.517,256.73, 604.145,254.205" />
  <polygon fill="#000000" points="624.366,241.188, 627.067,239.193, 645.644,252.38" />
  <polygon fill="#FFFFFF" points="614.343,262.172, 634.852,270.436, 633.136,272.724" />
  <polygon fill="#FFFFFF" points="618.403,245.304, 611.241,259.151, 607.94,257.297" />
  <polygon fill="#FFFFFF" points="621.852,243.507, 623.69,241.401, 641.79,250.921" />
  <polygon fill="#FFFFFF" points="644.821,253.836, 648,255.508, 638.23,268.532" />
  <polygon fill="#000000" points="617.782,247.862, 614.82,260.861, 611.707,259.607" />
  <polygon fill="#000000" points="620.244,245.879, 621.331,243.777, 638.242,250.065" />
  <polygon fill="#000000" points="641.339,252.27, 644.365,253.396, 638.775,265.861" />
  <polygon fill="#000000" points="617.967,263.141, 636.363,267.919, 635.362,270.15" />
  <polygon fill="#FFFFFF" points="619.866,246.182, 635.089,249.723, 619.409,248.186" />
  <polygon fill="#FFFFFF" points="638.09,251.286, 640.865,251.932, 638.697,263.427" />
  <polygon fill="#FFFFFF" points="621.174,263.563, 637.129,265.509, 636.733,267.605" />
  <polygon fill="#FFFFFF" points="617.806,250.216, 618.138,261.948, 615.301,261.211" />
  <polygon fill="#000000" points="635.168,250.802, 637.624,251.042, 638.135,261.282" />
  <polygon fill="#000000" points="623.917,263.545, 637.279,263.285, 637.374,265.186" />
  <polygon fill="#000000" points="618.33,252.306, 621.108,262.504, 618.609,262.2" />
  <polygon fill="#000000" points="619.159,248.501, 632.383,249.797, 619.211,250.338" />
  <polygon fill="#FFFFFF" points="636.943,261.303, 637.415,262.969, 626.178,263.188" />
  <polygon fill="#FFFFFF" points="619.215,254.092, 623.676,262.628, 621.551,262.669" />
  <polygon fill="#FFFFFF" points="619.071,250.649, 630.148,250.194, 619.512,252.27" />
  <polygon fill="#FFFFFF" points="632.634,250.728, 634.729,250.642, 637.224,259.456" />
</svg>
