<?xml version="1.0" standalone="no"?>
<!DOCTYPE svg PUBLIC "-//W3C//DTD SVG 1.1//EN" "http://www.w3.org/Graphics/SVG/1.1/DTD/svg11.dtd">
<svg viewBox="0, 0, 1000, 1000" xmlns="http://www.w3.org/2000/svg" version="1.1">
  <!-- Shape 1 -->
  <!-- Shape 2 -->
  <!-- Shape 3 -->
  <!-- Shape 4 -->
  <!-- Shape 5 -->
  <polygon fill="#FFFFFF" points="258.412,0, 261.104,1000, 0,502.019" />
  <polygon fill="#000000" points="239.677,36.3964, 260.908,927.5, 18.93,538.122" />
  <polygon fill="#FFFFFF" points="223.143,73.9757, 259.318,860.756, 37.0542,567.287" />
  <polygon fill="#000000" points="208.758,112.109, 256.522,799.938, 54.2352,589.972" />
  <polygon fill="#FFFFFF" points="196.443,150.194, 252.715,745.118, 70.3575,606.706" />
  <polygon fill="#000000" points="186.091,187.674, 248.095,696.275, 85.329,618.07" />
  <polygon fill="#FFFFFF" points="177.577,224.042, 242.856,653.298, 99.0828,624.678" />
  <polygon fill="#000000" points="170.756,258.858, 237.183,615.996, 111.577,627.165" />
  <polygon fill="#FFFFFF" points="165.471,291.748, 231.251,584.103, 122.793,626.168" />
  <polygon fill="#000000" points="161.557,322.414, 225.219,557.294, 132.739,622.311" />
  <polygon fill="#FFFFFF" points="158.846,350.634, 219.229,535.192, 141.441,616.193" />
  <polygon fill="#000000" points="157.166,376.261, 213.402,517.382, 148.948,608.376" />
  <polygon fill="#FFFFFF" points="156.353,399.217, 207.84,503.425, 155.322,599.377" />
  <polygon fill="#000000" points="156.249,419.493, 202.624,492.869, 160.642,589.657" />
  <polygon fill="#FFFFFF" points="156.704,437.139, 197.815,485.26, 164.996,579.62" />
  <!-- Shape 6 -->
  <polygon fill="#000000" points="258.412,0, 720.054,0, 261.104,1000" />
  <polygon fill="#FFFFFF" points="291.881,0, 686.78,72.5, 260.908,927.5" />
  <polygon fill="#000000" points="321.459,5.43025, 654.882,136.539, 263.228,858.03" />
  <polygon fill="#FFFFFF" points="347.232,15.565, 624.607,192.311, 267.73,792.124" />
  <polygon fill="#000000" points="369.339,29.6516, 596.164,240.116, 274.066,730.232" />
  <polygon fill="#FFFFFF" points="387.962,46.9307, 569.72,280.354, 281.888,672.715" />
  <polygon fill="#000000" points="403.32,66.655, 545.398,313.509, 290.851,619.836" />
  <polygon fill="#FFFFFF" points="415.667,88.1066, 523.278,340.129, 300.625,571.765" />
  <polygon fill="#000000" points="425.276,110.612, 503.395,360.814, 310.898,528.574" />
  <polygon fill="#FFFFFF" points="432.44,133.556, 485.743,376.197, 321.386,490.247" />
  <polygon fill="#000000" points="437.456,156.388, 470.277,386.929, 331.837,456.682" />
  <polygon fill="#FFFFFF" points="440.623,178.636, 456.918,393.661, 342.029,427.704" />
  <!-- Shape 7 -->
  <polygon fill="#000000" points="720.054,0, 1000,506.057, 491.444,498.115" />
  <polygon fill="#FFFFFF" points="740.35,36.6891, 963.13,505.481, 508.018,462.001" />
  <polygon fill="#000000" points="757.036,71.8016, 929.042,502.224, 525.42,430.145" />
  <polygon fill="#FFFFFF" points="770.332,105.073, 897.842,496.652, 543.324,402.446" />
  <polygon fill="#000000" points="780.495,136.282, 869.587,489.144, 561.416,378.745" />
  <polygon fill="#FFFFFF" points="787.809,165.252, 844.286,480.08, 579.403,358.839" />
  <polygon fill="#000000" points="792.581,191.855, 821.903,469.835, 597.013,342.481" />
  <polygon fill="#FFFFFF" points="614.008,329.391, 795.13,216.012, 802.36,458.768" />
  <polygon fill="#000000" points="630.182,319.267, 795.775,237.69, 785.541,447.215" />
  <polygon fill="#FFFFFF" points="645.367,311.786, 794.837,256.903, 771.294,435.482" />
  <polygon fill="#000000" points="659.432,306.621, 792.621,273.707, 759.444,423.842" />
  <polygon fill="#FFFFFF" points="672.285,303.445, 789.42,288.196, 749.793,412.53" />
  <polygon fill="#000000" points="683.869,301.937, 785.501,300.492, 742.128,401.742" />
  <polygon fill="#FFFFFF" points="694.165,301.791, 781.107,310.749, 736.226,391.632" />
  <!-- Shape 8 -->
  <polygon fill="#FFFFFF" points="491.444,498.115, 745.626,1000, 261.104,1000" />
  <polygon fill="#000000" points="509.872,534.501, 710.498,1000, 277.803,963.613" />
  <polygon fill="#FFFFFF" points="524.899,569.367, 678.089,997.275, 295.185,931.473" />
  <polygon fill="#000000" points="536.741,602.444, 648.491,992.188, 312.942,903.482" />
  <polygon fill="#FFFFFF" points="545.647,633.507, 621.747,985.118, 330.779,879.489" />
  <polygon fill="#000000" points="551.895,662.374, 597.859,976.446, 348.42,859.294" />
  <polygon fill="#FFFFFF" points="555.779,688.913, 576.781,966.547, 365.613,842.654" />
  <polygon fill="#000000" points="382.139,829.294, 557.604,713.04, 558.431,955.781" />
  <polygon fill="#FFFFFF" points="397.808,818.913, 557.678,734.716, 542.688,944.485" />
  <polygon fill="#000000" points="412.468,811.192, 556.303,753.952, 529.402,932.97" />
  <polygon fill="#FFFFFF" points="426.003,805.806, 553.772,770.798, 518.399,921.511" />
  <!-- Shape 9 -->
  <polygon fill="#000000" points="491.444,498.115, 1000,506.057, 601.516,715.454" />
  <polygon fill="#FFFFFF" points="499.424,513.872, 963.13,505.481, 630.406,700.273" />
  <polygon fill="#000000" points="509.235,527.833, 928.398,506.109, 655.327,685.683" />
  <polygon fill="#FFFFFF" points="520.528,540.035, 895.997,507.789, 676.436,671.802" />
  <polygon fill="#000000" points="532.954,550.537, 866.072,510.359, 693.935,658.73" />
  <polygon fill="#FFFFFF" points="546.17,559.419, 838.723,513.657, 708.067,646.549" />
  <polygon fill="#000000" points="559.85,566.782, 814.002,517.524, 719.108,635.319" />
  <polygon fill="#FFFFFF" points="573.69,572.738, 791.916,521.805, 727.354,625.083" />
  <polygon fill="#000000" points="772.429,526.353, 733.119,615.86, 587.412,577.412" />
  <polygon fill="#FFFFFF" points="755.463,531.035, 736.724,607.652, 600.773,580.938" />
  <polygon fill="#000000" points="740.907,535.731, 738.487,600.443, 613.566,583.452" />
  <polygon fill="#FFFFFF" points="728.618,540.336, 738.721,594.198, 625.621,585.091" />
  <polygon fill="#000000" points="718.432,544.762, 737.722,588.871, 636.807,585.992" />
  <polygon fill="#FFFFFF" points="710.163,548.939, 735.768,584.403, 647.03,586.284" />
  <polygon fill="#000000" points="703.616,552.811, 733.112,580.725, 656.232,586.089" />
  <polygon fill="#FFFFFF" points="698.589,556.342, 729.983,577.764, 664.389,585.52" />
  <!-- Shape 10 -->
  <polygon fill="#000000" points="601.516,715.454, 867.533,763.28, 745.626,1000" />
  <polygon fill="#FFFFFF" points="611.964,736.084, 848.247,759.813, 754.464,982.838" />
  <polygon fill="#000000" points="622.638,754.565, 830.549,758.036, 761.488,966.133" />
  <polygon fill="#FFFFFF" points="633.371,770.92, 814.478,757.767, 766.827,950.047" />
  <polygon fill="#000000" points="644.007,785.196, 800.044,758.816, 770.625,934.723" />
  <polygon fill="#FFFFFF" points="654.402,797.472, 787.233,760.982, 773.04,920.281" />
  <polygon fill="#000000" points="664.427,807.85, 776.009,764.065, 774.239,906.82" />
  <polygon fill="#FFFFFF" points="673.97,816.45, 766.312,767.87, 774.393,894.414" />
  <polygon fill="#000000" points="682.938,823.412, 758.066,772.208, 773.671,883.114" />
  <polygon fill="#FFFFFF" points="751.177,776.904, 772.24,872.944, 691.258,828.887" />
  <polygon fill="#000000" points="745.539,781.795, 770.258,863.907, 698.878,833.033" />
  <polygon fill="#FFFFFF" points="741.036,786.74, 767.873,855.983, 705.767,836.012" />
  <polygon fill="#000000" points="737.548,791.613, 765.219,849.135, 711.909,837.987" />
  <polygon fill="#FFFFFF" points="734.951,796.31, 762.416,843.308, 717.309,839.116" />
  <polygon fill="#000000" points="733.121,800.749, 759.568,838.434, 721.987,839.551" />
  <polygon fill="#FFFFFF" points="731.94,804.866, 756.762,834.436, 725.974,839.433" />
  <!-- Shape 11 -->
  <polygon fill="#FFFFFF" points="1000,506.057, 867.533,763.28, 601.516,715.454" />
  <polygon fill="#000000" points="990.396,524.705, 848.247,759.813, 630.406,700.273" />
  <polygon fill="#FFFFFF" points="979.749,542.315, 831.931,755.353, 657.37,687.123" />
  <polygon fill="#000000" points="968.323,558.783, 818.437,750.079, 682.29,675.929" />
  <polygon fill="#FFFFFF" points="956.377,574.029, 807.586,744.169, 705.086,666.592" />
  <polygon fill="#000000" points="725.717,658.993, 944.161,587.998, 799.171,737.8" />
  <polygon fill="#FFFFFF" points="744.176,652.994, 931.91,600.656, 792.964,731.141" />
  <polygon fill="#000000" points="760.49,648.446, 919.835,611.995, 788.724,724.35" />
  <polygon fill="#FFFFFF" points="774.719,645.191, 908.127,622.028, 786.203,717.572" />
  <polygon fill="#000000" points="786.953,643.067, 896.947,630.79, 785.15,710.935" />
  <polygon fill="#FFFFFF" points="797.303,641.911, 886.427,638.331, 785.32,704.548" />
  <polygon fill="#000000" points="805.904,641.566, 876.67,644.721, 786.476,698.504" />
  <polygon fill="#FFFFFF" points="812.902,641.878, 867.75,650.04, 788.398,692.873" />
  <polygon fill="#000000" points="818.458,642.705, 859.711,654.379, 790.88,687.707" />
  <polygon fill="#FFFFFF" points="822.736,643.916, 852.573,657.835, 793.74,683.04" />
  <polygon fill="#000000" points="825.902,645.392, 846.331,660.51, 796.816,678.889" />
  <polygon fill="#FFFFFF" points="828.119,647.033, 840.959,662.504, 799.972,675.255" />
</svg>
