<?xml version="1.0" standalone="no"?>
<!DOCTYPE svg PUBLIC "-//W3C//DTD SVG 1.1//EN" "http://www.w3.org/Graphics/SVG/1.1/DTD/svg11.dtd">
<svg viewBox="0, 0, 1000, 1000" xmlns="http://www.w3.org/2000/svg" version="1.1">
  <!-- Shape 1 -->
  <!-- Shape 2 -->
  <!-- Shape 3 -->
  <!-- Shape 4 -->
  <!-- Shape 5 -->
  <polygon fill="#000000" points="0,502.019, 374.405,576.473, 126.414,743.118" />
  <polygon fill="#FFFFFF" points="31.6372,508.31, 353.449,590.554, 115.732,722.745" />
  <polygon fill="#000000" points="59.6027,515.457, 332.792,602.042, 108.424,704.11" />
  <polygon fill="#FFFFFF" points="83.9985,523.189, 312.756,611.156, 104.064,687.264" />
  <polygon fill="#000000" points="104.976,531.256, 293.619,618.135, 102.224,672.218" />
  <polygon fill="#FFFFFF" points="122.727,539.431, 275.609,623.225, 102.483,658.953" />
  <polygon fill="#000000" points="137.48,547.517, 258.902,626.672, 104.437,647.42" />
  <polygon fill="#FFFFFF" points="149.489,555.346, 243.625,628.724, 107.705,637.539" />
  <polygon fill="#000000" points="159.025,562.779, 229.857,629.617, 111.937,629.213" />
  <polygon fill="#FFFFFF" points="166.37,569.71, 217.628,629.575, 116.82,622.324" />
  <!-- Shape 6 -->
  <polygon fill="#000000" points="258.412,0, 491.191,190.991, 493.248,496.613, 374.405,576.473, 0,502.019" />
  <polygon fill="#FFFFFF" points="250.401,15.5626, 483.975,185.07, 493.184,487.138, 378.089,573.997, 11.6065,504.327" />
  <polygon fill="#000000" points="242.425,31.8873, 476.174,179.408, 492.876,477.049, 381.933,571.096, 23.8471,506.654" />
  <polygon fill="#FFFFFF" points="234.6,48.884, 467.805,174.127, 492.278,466.394, 385.905,567.729, 36.6665,508.961" />
  <polygon fill="#000000" points="227.039,66.4589, 458.897,169.343, 491.344,455.229, 389.968,563.858, 50.0074,511.206" />
  <polygon fill="#FFFFFF" points="219.852,84.5156, 449.483,165.166, 490.026,443.622, 394.084,559.448, 63.8098,513.344" />
  <polygon fill="#000000" points="213.142,102.955, 439.609,161.698, 488.283,431.649, 398.21,554.467, 78.0116,515.326" />
  <polygon fill="#FFFFFF" points="207.007,121.677, 429.328,159.031, 486.073,419.393, 402.299,548.891, 92.5486,517.103" />
  <polygon fill="#000000" points="201.536,140.578, 418.701,157.245, 483.361,406.948, 406.303,542.701, 107.355,518.623" />
  <polygon fill="#FFFFFF" points="196.808,159.556, 407.799,156.409, 480.115,394.413, 410.172,535.887, 122.362,519.831" />
  <polygon fill="#000000" points="192.892,178.507, 396.701,156.574, 476.311,381.894, 413.851,528.445, 137.501,520.676" />
  <polygon fill="#FFFFFF" points="189.846,197.326, 385.491,157.781, 471.932,369.501, 417.286,520.385, 152.7,521.103" />
  <polygon fill="#000000" points="187.713,215.911, 374.261,160.05, 466.971,357.348, 420.423,511.724, 167.887,521.062" />
  <polygon fill="#FFFFFF" points="186.528,234.159, 363.106,163.391, 461.427,345.55, 423.206,502.492, 182.989,520.503" />
  <polygon fill="#000000" points="186.308,251.969, 352.123,167.793, 455.311,334.22, 425.584,492.73, 197.93,519.383" />
  <polygon fill="#FFFFFF" points="187.059,269.244, 341.411,173.23, 448.645,323.468, 427.504,482.491, 212.637,517.661" />
  <polygon fill="#000000" points="188.772,285.888, 331.069,179.663, 441.46,313.402, 428.92,471.836, 227.033,515.305" />
  <polygon fill="#FFFFFF" points="191.428,301.81, 321.194,187.035, 433.799,304.121, 429.791,460.841, 241.044,512.288" />
  <polygon fill="#000000" points="194.99,316.922, 311.877,195.276, 425.714,295.714, 430.079,449.588, 254.596,508.594" />
  <polygon fill="#FFFFFF" points="199.413,331.144, 303.204,204.302, 417.268,288.262, 429.755,438.171, 267.617,504.216" />
  <polygon fill="#000000" points="204.637,344.401, 295.253,214.018, 408.53,281.83, 428.798,426.688, 280.036,499.157" />
  <polygon fill="#FFFFFF" points="210.594,356.627, 288.095,224.319, 399.581,276.473, 427.197,415.244, 291.789,493.432" />
  <polygon fill="#000000" points="281.786,235.089, 390.506,272.228, 424.949,403.948, 302.811,487.067, 217.203,367.763" />
  <polygon fill="#FFFFFF" points="276.374,246.207, 381.396,269.116, 422.063,392.91, 313.046,480.102, 224.377,377.761" />
  <polygon fill="#000000" points="271.892,257.547, 372.343,267.141, 418.557,382.239, 322.443,472.586, 232.02,386.583" />
  <polygon fill="#FFFFFF" points="268.359,268.979, 363.443,266.291, 414.463,372.041, 330.959,464.581, 240.032,394.203" />
  <!-- Shape 7 -->
  <polygon fill="#FFFFFF" points="489.906,0, 720.054,0, 798.895,142.52, 657.691,306.106, 491.191,190.991" />
  <polygon fill="#000000" points="509.353,0, 726.716,12.043, 786.963,156.343, 643.621,296.378, 491.082,174.852" />
  <polygon fill="#FFFFFF" points="528.242,1.04653, 731.951,24.5827, 774.507,168.512, 630.366,285.818, 492.67,159.657" />
  <polygon fill="#000000" points="546.433,3.14831, 735.752,37.4356, 761.635,178.988, 618.07,274.552, 495.847,145.493" />
  <polygon fill="#FFFFFF" points="563.794,6.29245, 738.125,50.4159, 748.47,187.751, 606.862,262.717, 500.486,132.44" />
  <polygon fill="#000000" points="506.443,120.57, 580.198,10.4445, 739.099,63.3391, 735.145,194.805, 596.852,250.458" />
  <polygon fill="#FFFFFF" points="513.56,109.943, 595.532,15.5488, 738.717,76.0256, 721.799,200.176, 588.127,237.924" />
  <polygon fill="#000000" points="521.667,100.607, 609.693,21.53, 737.044,88.304, 708.579,203.909, 580.753,225.266" />
  <polygon fill="#FFFFFF" points="530.584,92.5967, 622.594,28.2942, 734.16,100.015, 695.63,206.072, 574.767,212.638" />
  <polygon fill="#000000" points="540.126,85.9285, 634.163,35.7316, 730.165,111.013, 683.097,206.753, 570.185,200.19" />
  <polygon fill="#FFFFFF" points="550.103,80.6026, 644.349,43.719, 725.171,121.171, 671.117,206.057, 566.996,188.067" />
  <polygon fill="#000000" points="560.329,76.6007, 653.118,52.1225, 719.306,130.381, 659.82,204.105, 565.163,176.407" />
  <polygon fill="#FFFFFF" points="570.619,73.8861, 660.458,60.8014, 712.709,138.557, 649.322,201.033, 564.627,165.339" />
  <polygon fill="#000000" points="580.798,72.4036, 666.378,69.6111, 705.527,145.636, 639.726,196.989, 565.306,154.977" />
  <polygon fill="#FFFFFF" points="590.7,72.0805, 670.908,78.4072, 697.914,151.577, 631.116,192.128, 567.098,145.423" />
  <polygon fill="#000000" points="600.172,72.8277, 674.097,87.0486, 690.025,156.366, 623.556,186.612, 569.886,136.761" />
  <polygon fill="#FFFFFF" points="609.08,74.5413, 676.017,95.4013, 682.016,160.011, 617.088,180.605, 573.535,129.057" />
  <polygon fill="#000000" points="577.904,122.357, 617.307,77.105, 676.754,103.342, 674.036,162.542, 611.736,174.27" />
  <polygon fill="#FFFFFF" points="582.841,116.687, 624.755,80.3925, 676.413,110.76, 666.23,164.012, 607.496,167.765" />
  <polygon fill="#000000" points="588.193,112.052, 631.352,84.2704, 675.113,117.56, 658.73,164.491, 604.348,161.243" />
  <polygon fill="#FFFFFF" points="593.808,108.438, 637.045,88.6013, 672.982,123.666, 651.655,164.068, 602.246,154.843" />
  <polygon fill="#000000" points="599.537,105.81, 641.807,93.2474, 670.156,129.019, 645.108,162.846, 601.128,148.694" />
  <polygon fill="#FFFFFF" points="605.239,104.115, 645.631,98.073, 666.777,133.582, 639.175,160.937, 600.914,142.909" />
  <polygon fill="#000000" points="610.785,103.285, 648.534,102.948, 662.987,137.338, 633.922,158.462, 601.508,137.583" />
  <polygon fill="#FFFFFF" points="616.059,103.238, 650.554,107.753, 658.927,140.289, 629.394,155.545, 602.804,132.791" />
  <polygon fill="#000000" points="620.96,103.88, 651.743,112.376, 654.73,142.457, 625.615,152.312, 604.687,128.592" />
  <polygon fill="#FFFFFF" points="607.039,125.021, 625.409,105.108, 652.175,116.723, 650.523,143.881, 622.591,148.884" />
  <polygon fill="#000000" points="609.737,122.096, 629.341,106.814, 651.932,120.712, 646.42,144.616, 620.306,145.379" />
  <polygon fill="#FFFFFF" points="612.664,119.814, 632.714,108.889, 651.109,124.281, 642.521,144.73, 618.728,141.903" />
  <polygon fill="#000000" points="615.706,118.157, 635.504,111.224, 649.806,127.383, 638.912,144.301, 617.808,138.552" />
  <polygon fill="#FFFFFF" points="618.756,117.088, 637.708,113.714, 648.127,129.99, 635.66,143.415, 617.484,135.409" />
  <!-- Shape 8 -->
  <polygon fill="#FFFFFF" points="812.626,396.607, 880.404,289.864, 1000,506.057" />
  <polygon fill="#000000" points="818.353,387.587, 890.51,308.133, 984.167,496.808" />
  <polygon fill="#FFFFFF" points="824.624,380.683, 898.649,324.528, 969.758,487.317" />
  <polygon fill="#000000" points="831.234,375.668, 904.999,339.065, 956.797,477.794" />
  <polygon fill="#FFFFFF" points="837.998,372.312, 909.749,351.787, 945.283,468.429" />
  <polygon fill="#000000" points="844.75,370.38, 913.093,362.763, 935.188,459.385" />
  <polygon fill="#FFFFFF" points="851.345,369.645, 915.225,372.087, 926.46,450.796" />
  <polygon fill="#000000" points="857.663,369.887, 916.336,379.871, 919.031,442.77" />
  <polygon fill="#FFFFFF" points="863.606,370.898, 916.609,386.243, 912.815,435.387" />
  <polygon fill="#000000" points="869.103,372.489, 916.216,391.339, 907.712,428.699" />
  <polygon fill="#FFFFFF" points="874.101,374.489, 915.313,395.303, 903.615,422.735" />
  <!-- Shape 9 -->
  <polygon fill="#000000" points="812.626,396.607, 1000,506.057, 872.099,754.414, 663.365,612.374" />
  <polygon fill="#FFFFFF" points="828.459,405.855, 989.192,527.043, 854.461,742.411, 675.977,594.142" />
  <polygon fill="#000000" points="842.427,416.387, 977.484,545.758, 838.951,729.527, 689.228,577.78" />
  <polygon fill="#FFFFFF" points="702.909,563.367, 854.487,427.94, 965.113,562.169, 825.581,715.976" />
  <polygon fill="#000000" points="716.808,550.948, 864.632,440.248, 952.318,576.273, 814.332,701.982" />
  <polygon fill="#FFFFFF" points="730.719,540.532, 872.883,453.048, 939.334,588.102, 805.155,687.769" />
  <polygon fill="#000000" points="744.437,532.089, 879.296,466.081, 926.385,597.72, 797.972,673.561" />
  <polygon fill="#FFFFFF" points="757.775,525.561, 883.953,479.1, 913.685,605.221, 792.677,659.569" />
  <!-- Shape 10 -->
  <polygon fill="#FFFFFF" points="529.229,753.112, 663.365,612.374, 872.099,754.414, 745.626,1000" />
  <polygon fill="#000000" points="540.564,741.22, 681.003,624.376, 861.412,775.166, 727.34,979.138" />
  <polygon fill="#FFFFFF" points="552.768,731.066, 696.68,637.48, 849.762,792.891, 711.109,958.463" />
  <polygon fill="#000000" points="565.619,722.709, 710.35,651.358, 837.38,807.677, 696.97,938.156" />
  <polygon fill="#FFFFFF" points="578.891,716.166, 721.999,665.692, 824.504,819.642, 684.925,918.4" />
  <polygon fill="#000000" points="592.357,711.417, 731.645,680.179, 811.37,828.935, 674.947,899.37" />
  <polygon fill="#FFFFFF" points="605.799,708.402, 739.338,694.534, 798.205,835.732, 666.977,881.232" />
  <polygon fill="#000000" points="619.006,707.031, 745.16,708.498, 785.227,840.232, 660.926,864.139" />
  <polygon fill="#FFFFFF" points="631.785,707.179, 749.219,721.843, 772.635,842.654, 656.68,848.224" />
  <polygon fill="#000000" points="643.963,708.7, 751.647,734.371, 760.61,843.231, 654.098,833.598" />
  <polygon fill="#FFFFFF" points="655.388,711.424, 752.598,745.921, 749.309,842.209, 653.023,820.346" />
  <polygon fill="#000000" points="665.936,715.167, 752.241,756.368, 738.862,839.837, 653.28,808.528" />
  <polygon fill="#FFFFFF" points="675.507,719.736, 750.758,765.625, 729.371,836.365, 654.683,798.174" />
  <polygon fill="#000000" points="684.033,724.935, 748.335,773.64, 720.909,832.038, 657.043,789.287" />
  <polygon fill="#FFFFFF" points="691.473,730.57, 745.161,780.397, 713.52,827.092, 660.165,781.842" />
  <polygon fill="#000000" points="663.863,775.787, 697.813,736.455, 741.425,785.911, 707.219,821.748" />
  <polygon fill="#FFFFFF" points="667.954,771.047, 703.068,742.414, 737.303,790.23, 701.994,816.209" />
  <polygon fill="#000000" points="672.269,767.528, 707.276,748.291, 732.963,793.422, 697.811,810.659" />
  <polygon fill="#FFFFFF" points="676.656,765.118, 710.494,753.946, 728.559,795.582, 694.61,805.255" />
  <polygon fill="#000000" points="680.977,763.691, 712.801,759.263, 724.223,796.817, 692.317,800.129" />
  <polygon fill="#FFFFFF" points="685.117,763.115, 714.287,764.149, 720.072,797.248, 690.842,795.388" />
  <!-- Shape 11 -->
  <polygon fill="#000000" points="529.229,753.112, 745.626,1000, 261.104,1000" />
  <polygon fill="#FFFFFF" points="506.573,773.974, 727.34,979.138, 302.046,1000" />
  <polygon fill="#000000" points="488.799,793.616, 708.156,961.309, 339.004,998.187" />
  <polygon fill="#FFFFFF" points="475.422,811.884, 688.567,946.334, 371.969,994.894" />
  <polygon fill="#000000" points="465.936,828.666, 669.022,934.005, 401.001,990.441" />
  <polygon fill="#FFFFFF" points="459.825,843.889, 649.911,924.093, 426.222,985.13" />
  <polygon fill="#000000" points="456.583,857.519, 631.568,916.353, 447.808,979.24" />
  <polygon fill="#FFFFFF" points="455.715,869.557, 614.262,910.534, 465.982,973.021" />
  <polygon fill="#000000" points="456.755,880.038, 598.201,906.383, 481.003,966.691" />
  <polygon fill="#FFFFFF" points="459.269,889.024, 583.533,903.651, 493.156,960.437" />
  <!-- Shape 12 -->
  <polygon fill="#FFFFFF" points="493.248,496.613, 589.507,478.08, 663.365,612.374, 529.229,753.112" />
  <polygon fill="#000000" points="501.382,495.047, 595.748,489.428, 652.03,624.266, 526.189,731.438" />
  <polygon fill="#FFFFFF" points="509.582,494.558, 600.639,501.145, 641.095,633.58, 524.033,710.896" />
  <polygon fill="#000000" points="517.713,495.147, 604.252,512.971, 630.641,640.484, 522.743,691.577" />
  <polygon fill="#FFFFFF" points="525.649,496.781, 606.671,524.664, 620.747,645.169, 522.281,673.564" />
  <polygon fill="#000000" points="533.273,499.405, 607.996,536.004, 611.481,647.841, 522.598,656.929" />
  <polygon fill="#FFFFFF" points="540.484,502.937, 608.332,546.796, 602.904,648.718, 523.628,641.728" />
  <polygon fill="#000000" points="547.194,507.274, 607.795,556.876, 595.064,648.027, 525.295,628.001" />
  <polygon fill="#FFFFFF" points="553.333,512.299, 606.506,566.11, 587.996,645.998, 527.514,615.772" />
  <polygon fill="#000000" points="558.847,517.879, 604.586,574.394, 581.724,642.864, 530.191,605.042" />
  <polygon fill="#FFFFFF" points="563.7,523.876, 602.161,581.659, 576.256,638.851, 533.232,595.794" />
  <polygon fill="#000000" points="567.873,530.145, 599.35,587.864, 571.588,634.179, 536.537,587.991" />
  <polygon fill="#FFFFFF" points="540.013,581.576, 571.364,536.546, 596.271,593, 567.701,629.057" />
  <!-- Shape 13 -->
  <polygon fill="#000000" points="657.691,306.106, 798.895,142.52, 880.404,289.864, 812.626,396.607, 660.623,464.388" />
  <polygon fill="#FFFFFF" points="669.622,292.283, 805.782,154.971, 874.677,298.884, 799.782,402.334, 660.375,451.013" />
  <polygon fill="#000000" points="681.455,280.35, 811.769,167.477, 868.169,307.874, 787.667,406.565, 661.179,437.219" />
  <polygon fill="#FFFFFF" points="693.092,270.271, 816.806,180.014, 860.98,316.687, 776.372,409.302, 662.989,423.211" />
  <polygon fill="#000000" points="704.436,261.994, 820.857,192.547, 853.221,325.18, 765.975,410.577, 665.75,409.186" />
  <polygon fill="#FFFFFF" points="715.391,255.459, 823.902,205.028, 845.011,333.216, 756.544,410.447, 669.39,395.335" />
  <polygon fill="#000000" points="725.863,250.593, 825.939,217.398, 836.474,340.668, 748.133,408.988, 673.829,381.837" />
  <polygon fill="#FFFFFF" points="735.76,247.31, 826.981,229.589, 827.737,347.425, 740.785,406.303, 678.975,368.857" />
  <polygon fill="#000000" points="745.001,245.515, 827.058,241.526, 818.929,353.39, 734.523,402.51, 684.728,356.544" />
  <polygon fill="#FFFFFF" points="753.51,245.101, 826.215,253.126, 810.176,358.483, 729.36,397.743, 690.978,345.031" />
  <polygon fill="#000000" points="761.224,245.952, 824.513,264.305, 801.601,362.649, 725.287,392.15, 697.613,334.428" />
  <polygon fill="#FFFFFF" points="768.091,247.944, 822.027,274.975, 793.321,365.85, 722.285,385.888, 704.515,324.828" />
  <polygon fill="#000000" points="711.565,316.302, 774.073,250.942, 818.844,285.053, 785.443,368.072, 720.314,379.116" />
  <polygon fill="#FFFFFF" points="718.647,308.897, 779.145,254.806, 815.059,294.459, 778.064,369.323, 719.323,371.999" />
  <polygon fill="#000000" points="725.647,302.638, 783.3,259.394, 810.779,303.121, 771.268,369.633, 719.244,364.698" />
  <polygon fill="#FFFFFF" points="732.456,297.531, 786.546,264.558, 806.113,310.976, 765.124,369.05, 720.001,357.369" />
  <polygon fill="#000000" points="738.974,293.558, 788.903,270.152, 801.174,317.974, 759.687,367.642, 721.501,350.159" />
  <polygon fill="#FFFFFF" points="745.11,290.681, 790.411,276.029, 796.075,324.078, 754.994,365.494, 723.649,343.202" />
  <!-- Shape 14 -->
  <polygon fill="#FFFFFF" points="660.623,464.388, 812.626,396.607, 663.365,612.374" />
  <polygon fill="#000000" points="660.834,475.783, 800.922,401.826, 674.858,595.76" />
  <polygon fill="#FFFFFF" points="661.948,485.309, 789.799,407.698, 684.867,580.362" />
  <polygon fill="#000000" points="779.341,414.047, 693.451,566.238, 663.822,493.084" />
  <polygon fill="#FFFFFF" points="769.614,420.702, 700.683,553.423, 666.317,499.244" />
  <polygon fill="#000000" points="760.668,427.503, 706.652,541.929, 669.293,503.936" />
  <polygon fill="#FFFFFF" points="752.536,434.306, 711.459,531.746, 672.618,507.317" />
  <polygon fill="#000000" points="745.232,440.979, 715.214,522.84, 676.168,509.55" />
  <polygon fill="#FFFFFF" points="738.753,447.411, 718.03,515.161, 679.831,510.796" />
  <polygon fill="#000000" points="733.085,453.509, 720.023,508.644, 683.505,511.216" />
  <polygon fill="#FFFFFF" points="728.196,459.199, 721.311,503.207, 687.106,510.963" />
  <!-- Shape 15 -->
  <polygon fill="#000000" points="589.507,478.08, 660.623,464.388, 663.365,612.374" />
  <polygon fill="#FFFFFF" points="600.103,476.04, 661.031,486.438, 652.36,592.364" />
  <polygon fill="#000000" points="609.328,477.614, 659.719,502.475, 644.448,574.753" />
  <polygon fill="#FFFFFF" points="617.078,481.437, 657.37,513.591, 639.047,559.813" />
  <polygon fill="#000000" points="623.372,486.46, 654.508,520.811, 635.615,547.57" />
  <polygon fill="#FFFFFF" points="628.31,491.908, 651.511,525.055, 633.673,537.878" />
  <!-- Shape 16 -->
  <polygon fill="#FFFFFF" points="575.097,401.79, 657.691,306.106, 660.623,464.388, 589.507,478.08" />
  <polygon fill="#000000" points="646.045,319.597, 660.209,442.07, 599.534,476.149, 577.129,412.547" />
  <polygon fill="#FFFFFF" points="636.162,332.926, 658.178,424.507, 608.235,471.262, 580.342,421.668" />
  <polygon fill="#000000" points="628.024,345.865, 654.968,411.155, 615.517,464.445, 584.409,428.898" />
  <polygon fill="#FFFFFF" points="621.56,358.17, 650.975,401.479, 621.364,456.548, 589.019,434.166" />
  <polygon fill="#000000" points="616.659,369.615, 646.545,394.956, 625.823,448.254, 593.89,437.537" />
  <polygon fill="#FFFFFF" points="613.176,380.007, 641.973,391.079, 628.994,440.1, 598.776,439.177" />
  <polygon fill="#000000" points="610.938,389.202, 637.498,389.359, 631.011,432.482, 603.472,439.32" />
  <polygon fill="#FFFFFF" points="609.76,397.111, 633.306,389.334, 632.034,425.677, 607.817,438.241" />
  <polygon fill="#000000" points="609.449,403.7, 629.534,390.58, 632.238,419.855, 611.697,436.228" />
  <polygon fill="#FFFFFF" points="609.814,408.989, 626.268,392.713, 631.798,415.095, 615.037,433.566" />
  <polygon fill="#000000" points="623.553,395.399, 630.886,411.402, 617.802,430.518, 610.676,413.044" />
  <polygon fill="#FFFFFF" points="621.398,398.353, 629.658,408.723, 619.993,427.318, 611.869,415.969" />
  <!-- Shape 17 -->
  <polygon fill="#000000" points="575.097,401.79, 589.507,478.08, 493.248,496.613" />
  <polygon fill="#FFFFFF" points="577.431,414.149, 573.913,481.082, 506.507,481.252" />
  <polygon fill="#000000" points="576.853,425.153, 562.832,481.11, 518.167,470.22" />
  <polygon fill="#FFFFFF" points="574.514,434.487, 555.382,479.293, 527.956,462.703" />
  <polygon fill="#000000" points="535.834,457.929, 571.277,442.068, 550.741,476.486" />
  <polygon fill="#FFFFFF" points="541.916,455.207, 567.753,447.974, 548.183,473.302" />
  <!-- Shape 18 -->
  <polygon fill="#000000" points="491.191,190.991, 657.691,306.106, 575.097,401.79" />
  <polygon fill="#FFFFFF" points="505.26,200.718, 650.711,314.191, 568.007,383.978" />
  <polygon fill="#000000" points="517.9,210.579, 643.524,320.255, 562.554,368.052" />
  <polygon fill="#FFFFFF" points="529.118,220.373, 636.294,324.524, 558.567,353.99" />
  <polygon fill="#000000" points="538.946,229.923, 629.166,327.226, 555.866,341.737" />
  <polygon fill="#FFFFFF" points="547.436,239.08, 622.269,328.591, 554.274,331.216" />
  <polygon fill="#000000" points="554.657,247.717, 615.707,328.844, 553.614,322.324" />
  <polygon fill="#FFFFFF" points="560.695,255.741, 609.566,328.2, 553.717,314.946" />
  <polygon fill="#000000" points="565.646,263.081, 603.909,326.857, 554.424,308.948" />
  <polygon fill="#FFFFFF" points="569.614,269.695, 598.777,325, 555.588,304.192" />
  <polygon fill="#000000" points="572.708,275.562, 594.195,322.792, 557.076,300.532" />
  <polygon fill="#FFFFFF" points="558.772,297.823, 575.039,280.687, 590.167,320.377" />
  <polygon fill="#000000" points="560.576,295.922, 576.717,285.089, 586.686,317.876" />
  <polygon fill="#FFFFFF" points="562.405,294.695, 577.846,288.803, 583.727,315.388" />
  <!-- Shape 19 -->
  <polygon fill="#000000" points="258.412,0, 393.001,0, 360.898,84.0877" />
  <polygon fill="#FFFFFF" points="274.428,0, 389.181,10.0064, 348.702,74.0813" />
  <polygon fill="#000000" points="288.359,1.21478, 384.267,17.7851, 339.685,65.0878" />
  <polygon fill="#FFFFFF" points="300.232,3.26619, 378.748,23.6412, 333.331,57.1803" />
  <polygon fill="#000000" points="310.141,5.83751, 373.016,27.8738, 329.154,50.3763" />
  <polygon fill="#FFFFFF" points="318.227,8.67138, 367.375,30.7676, 326.709,44.6487" />
  <polygon fill="#000000" points="324.665,11.566, 362.048,32.5861, 325.598,39.9356" />
  <polygon fill="#FFFFFF" points="329.652,14.3701, 357.186,33.5665, 325.473,36.1511" />
  <!-- Shape 20 -->
  <polygon fill="#000000" points="393.001,0, 489.906,0, 491.191,190.991, 360.898,84.0877" />
  <polygon fill="#FFFFFF" points="401.19,0, 490.014,16.1387, 480.181,181.957, 363.611,76.9823" />
  <polygon fill="#000000" points="366.876,70.2925, 408.909,1.40245, 489.16,30.5484, 470.051,172.835" />
  <polygon fill="#FFFFFF" points="370.63,64.1406, 416.075,4.00518, 487.453,43.2546, 460.838,163.678" />
  <polygon fill="#000000" points="374.797,58.6262, 422.62,7.60435, 485.013,54.2974, 452.566,154.55" />
  <polygon fill="#FFFFFF" points="379.297,53.8251, 428.492,11.9982, 481.96,63.7312, 445.248,145.524" />
  <polygon fill="#000000" points="384.044,49.7888, 433.651,16.9904, 478.417,71.6242, 438.883,136.675" />
  <polygon fill="#FFFFFF" points="388.951,46.545, 438.079,22.3937, 474.507,78.0577, 433.46,128.082" />
  <polygon fill="#000000" points="393.927,44.0985, 441.769,28.0325, 470.349,83.1252, 428.951,119.822" />
  <polygon fill="#FFFFFF" points="398.888,42.4324, 444.733,33.7456, 466.056,86.9307, 425.319,111.97" />
  <polygon fill="#000000" points="403.752,41.5108, 446.995,39.3885, 461.734,89.5873, 422.515,104.592" />
  <polygon fill="#FFFFFF" points="408.444,41.2805, 448.594,44.8351, 457.479,91.2153, 420.479,97.7475" />
  <!-- Shape 21 -->
  <polygon fill="#000000" points="493.248,496.613, 529.229,753.112, 377.107,893.185, 197.626,878.934, 126.414,743.118" />
  <polygon fill="#FFFFFF" points="157.411,722.288, 496.288,518.287, 516.375,764.949, 361.941,891.981, 191.608,867.458" />
  <polygon fill="#000000" points="186.86,704.56, 498.034,539.722, 502.954,775.988, 347.139,889.85, 188.637,854.842" />
  <polygon fill="#FFFFFF" points="214.648,689.84, 498.473,560.82, 489.04,786.156, 332.984,886.724, 188.478,841.422" />
  <polygon fill="#000000" points="240.674,678.009, 497.608,581.484, 474.73,795.378, 319.733,882.57, 190.878,827.522" />
  <polygon fill="#FFFFFF" points="264.852,668.926, 495.455,601.611, 460.145,803.583, 307.608,877.39, 195.564,813.453" />
  <polygon fill="#000000" points="287.105,662.43, 492.048,621.101, 445.425,810.705, 296.796,871.22, 202.25,799.506" />
  <polygon fill="#FFFFFF" points="307.374,658.343, 487.437,639.853, 430.725,816.69, 287.445,864.127, 210.642,785.949" />
  <polygon fill="#000000" points="325.614,656.47, 481.692,657.767, 416.211,821.495, 279.665,856.208, 220.441,773.023" />
  <polygon fill="#FFFFFF" points="341.8,656.604, 474.902,674.745, 402.051,825.095, 273.523,847.582, 231.348,760.936" />
  <polygon fill="#000000" points="243.067,749.867, 355.922,658.529, 467.172,690.697, 388.415,827.481, 269.049,838.389" />
  <polygon fill="#FFFFFF" points="255.311,739.956, 367.992,662.019, 458.627,705.538, 375.463,828.664, 266.23,828.784" />
  <polygon fill="#000000" points="267.808,731.313, 378.044,666.846, 449.404,719.193, 363.349,828.678, 265.019,818.933" />
  <polygon fill="#FFFFFF" points="280.297,724.009, 386.129,672.777, 439.654,731.598, 352.208,827.574, 265.335,809.006" />
  <!-- Shape 22 -->
  <polygon fill="#000000" points="197.626,878.934, 377.107,893.185, 261.104,1000" />
  <polygon fill="#FFFFFF" points="221.946,880.865, 361.388,907.659, 252.502,983.596" />
  <polygon fill="#000000" points="241.175,884.56, 346.373,918.13, 248.289,969.429" />
  <polygon fill="#FFFFFF" points="255.934,889.27, 332.612,925.328, 247.291,957.522" />
  <polygon fill="#000000" points="266.876,894.415, 320.436,929.922, 248.524,947.782" />
  <polygon fill="#FFFFFF" points="274.648,899.567, 310.002,932.513, 251.187,940.039" />
  <polygon fill="#000000" points="279.862,904.427, 301.327,933.623, 254.647,934.069" />
  <polygon fill="#FFFFFF" points="283.08,908.803, 294.329,933.69, 258.427,929.626" />
  <!-- Shape 23 -->
  <polygon fill="#FFFFFF" points="491.191,190.991, 575.097,401.79, 492.46,379.525" />
  <polygon fill="#000000" points="498.281,208.803, 568.114,399.909, 492.353,363.594" />
  <polygon fill="#FFFFFF" points="504.35,225.41, 561.531,396.753, 492.868,350.143" />
  <polygon fill="#000000" points="509.456,240.711, 555.399,392.591, 493.893,339.004" />
  <polygon fill="#FFFFFF" points="513.669,254.639, 549.759,387.677, 495.32,329.991" />
  <polygon fill="#000000" points="497.047,322.9, 517.065,267.157, 544.636,382.249" />
  <polygon fill="#FFFFFF" points="498.979,317.521, 519.726,278.264, 540.044,376.521" />
  <polygon fill="#000000" points="501.03,313.638, 521.735,287.981, 535.982,370.686" />
  <polygon fill="#FFFFFF" points="503.128,311.039, 523.178,296.359, 532.442,364.907" />
  <polygon fill="#000000" points="505.207,309.517, 524.139,303.468, 529.402,359.321" />
  <polygon fill="#FFFFFF" points="507.216,308.875, 524.697,309.394, 526.835,354.037" />
  <!-- Shape 24 -->
  <polygon fill="#000000" points="492.46,379.525, 575.097,401.79, 493.248,496.613" />
  <polygon fill="#FFFFFF" points="499.443,381.407, 568.181,409.803, 493.181,486.719" />
  <polygon fill="#000000" points="505.416,383.874, 561.663,416.487, 493.725,477.567" />
  <polygon fill="#FFFFFF" points="510.439,386.787, 555.596,421.941, 494.769,469.2" />
  <polygon fill="#000000" points="514.58,390.01, 550.019,426.275, 496.206,461.643" />
  <polygon fill="#FFFFFF" points="517.915,393.423, 544.955,429.603, 497.935,454.902" />
  <polygon fill="#000000" points="520.524,396.914, 540.417,432.044, 499.863,448.97" />
  <polygon fill="#FFFFFF" points="522.491,400.388, 536.407,433.718, 501.907,443.821" />
  <polygon fill="#000000" points="523.901,403.765, 532.912,434.742, 503.992,439.422" />
  <polygon fill="#FFFFFF" points="524.835,406.977, 529.913,435.227, 506.056,435.724" />
</svg>
