<?xml version="1.0" standalone="no"?>
<!DOCTYPE svg PUBLIC "-//W3C//DTD SVG 1.1//EN" "http://www.w3.org/Graphics/SVG/1.1/DTD/svg11.dtd">
<svg viewBox="0, 0, 1000, 1000" xmlns="http://www.w3.org/2000/svg" version="1.1">
  <!-- Shape 1 -->
  <!-- Shape 2 -->
  <!-- Shape 3 -->
  <!-- Shape 4 -->
  <!-- Shape 5 -->
  <polygon fill="#FFFFFF" points="258.412,0, 261.104,1000, 0,502.019" />
  <polygon fill="#000000" points="239.677,36.3964, 260.908,927.5, 18.93,538.122" />
  <polygon fill="#FFFFFF" points="223.143,73.9757, 259.318,860.756, 37.0542,567.287" />
  <polygon fill="#000000" points="208.758,112.109, 256.522,799.938, 54.2352,589.972" />
  <polygon fill="#FFFFFF" points="196.443,150.194, 252.715,745.118, 70.3575,606.706" />
  <polygon fill="#000000" points="186.091,187.674, 248.095,696.275, 85.329,618.07" />
  <polygon fill="#FFFFFF" points="177.577,224.042, 242.856,653.298, 99.0828,624.678" />
  <polygon fill="#000000" points="170.756,258.858, 237.183,615.996, 111.577,627.165" />
  <polygon fill="#FFFFFF" points="165.471,291.748, 231.251,584.103, 122.793,626.168" />
  <polygon fill="#000000" points="161.557,322.414, 225.219,557.294, 132.739,622.311" />
  <polygon fill="#FFFFFF" points="158.846,350.634, 219.229,535.192, 141.441,616.193" />
  <polygon fill="#000000" points="157.166,376.261, 213.402,517.382, 148.948,608.376" />
  <polygon fill="#FFFFFF" points="156.353,399.217, 207.84,503.425, 155.322,599.377" />
  <polygon fill="#000000" points="156.249,419.493, 202.624,492.869, 160.642,589.657" />
  <polygon fill="#FFFFFF" points="156.704,437.139, 197.815,485.26, 164.996,579.62" />
  <polygon fill="#000000" points="157.584,452.256, 193.453,480.154, 168.478,569.608" />
  <polygon fill="#FFFFFF" points="158.766,464.989, 189.562,477.127, 171.188,559.903" />
  <polygon fill="#000000" points="160.144,475.515, 186.146,475.781, 173.225,550.723" />
  <polygon fill="#FFFFFF" points="161.626,484.036, 183.2,475.751, 174.689,542.232" />
  <polygon fill="#000000" points="163.137,490.769, 180.704,476.71, 175.674,534.54" />
  <polygon fill="#FFFFFF" points="164.618,495.939, 178.629,478.37, 176.268,527.71" />
  <polygon fill="#000000" points="166.022,499.767, 176.941,480.487, 176.553,521.765" />
  <polygon fill="#FFFFFF" points="175.599,482.857, 176.6,516.692, 167.316,502.471" />
  <polygon fill="#000000" points="174.561,485.314, 176.475,512.452, 168.479,504.252" />
  <polygon fill="#FFFFFF" points="173.785,487.733, 176.231,508.987, 169.5,505.3" />
  <polygon fill="#000000" points="173.227,490.018, 175.912,506.222, 170.376,505.779" />
  <polygon fill="#FFFFFF" points="172.849,492.106, 175.557,504.075, 171.11,505.838" />
  <polygon fill="#000000" points="172.615,493.959, 175.191,502.46, 171.709,505.6" />
  <polygon fill="#FFFFFF" points="172.49,495.557, 174.838,501.293, 172.188,505.169" />
  <polygon fill="#000000" points="172.448,496.9, 174.51,500.492, 172.558,504.627" />
  <polygon fill="#FFFFFF" points="172.464,497.998, 174.217,499.981, 172.835,504.04" />
  <polygon fill="#000000" points="172.517,498.871, 173.963,499.695, 173.035,503.453" />
  <polygon fill="#FFFFFF" points="172.593,499.544, 173.751,499.574, 173.171,502.901" />
  <polygon fill="#000000" points="172.68,500.045, 173.578,499.569, 173.258,502.404" />
  <polygon fill="#FFFFFF" points="172.767,500.403, 173.442,499.641, 173.306,501.974" />
  <polygon fill="#000000" points="172.85,500.645, 173.338,499.759, 173.327,501.615" />
  <polygon fill="#FFFFFF" points="173.262,499.898, 173.329,501.324, 172.925,500.797" />
  <polygon fill="#000000" points="173.208,500.04, 173.318,501.098, 172.989,500.881" />
  <polygon fill="#FFFFFF" points="173.173,500.176, 173.3,500.927, 173.042,500.916" />
  <polygon fill="#000000" points="173.151,500.297, 173.28,500.804, 173.085,500.918" />
  <polygon fill="#FFFFFF" points="173.14,500.4, 173.258,500.72, 173.117,500.899" />
  <polygon fill="#000000" points="173.136,500.484, 173.238,500.666, 173.141,500.869" />
  <polygon fill="#FFFFFF" points="173.137,500.55, 173.221,500.635, 173.157,500.834" />
  <polygon fill="#000000" points="173.141,500.599, 173.206,500.62, 173.168,500.8" />
  <polygon fill="#FFFFFF" points="173.146,500.634, 173.195,500.617, 173.175,500.768" />
  <polygon fill="#000000" points="173.151,500.658, 173.186,500.62, 173.179,500.741" />
  <polygon fill="#FFFFFF" points="173.18,500.627, 173.18,500.719, 173.156,500.673" />
  <polygon fill="#000000" points="173.175,500.635, 173.18,500.702, 173.16,500.682" />
  <polygon fill="#FFFFFF" points="173.173,500.644, 173.179,500.69, 173.164,500.685" />
  <polygon fill="#000000" points="173.171,500.652, 173.178,500.681, 173.167,500.686" />
  <!-- Shape 6 -->
  <polygon fill="#000000" points="258.412,0, 720.054,0, 261.104,1000" />
  <polygon fill="#FFFFFF" points="291.881,0, 686.78,72.5, 260.908,927.5" />
  <polygon fill="#000000" points="321.459,5.43025, 654.882,136.539, 263.228,858.03" />
  <polygon fill="#FFFFFF" points="347.232,15.565, 624.607,192.311, 267.73,792.124" />
  <polygon fill="#000000" points="369.339,29.6516, 596.164,240.116, 274.066,730.232" />
  <polygon fill="#FFFFFF" points="387.962,46.9307, 569.72,280.354, 281.888,672.715" />
  <polygon fill="#000000" points="403.32,66.655, 545.398,313.509, 290.851,619.836" />
  <polygon fill="#FFFFFF" points="415.667,88.1066, 523.278,340.129, 300.625,571.765" />
  <polygon fill="#000000" points="425.276,110.612, 503.395,360.814, 310.898,528.574" />
  <polygon fill="#FFFFFF" points="432.44,133.556, 485.743,376.197, 321.386,490.247" />
  <polygon fill="#000000" points="437.456,156.388, 470.277,386.929, 331.837,456.682" />
  <polygon fill="#FFFFFF" points="440.623,178.636, 456.918,393.661, 342.029,427.704" />
  <polygon fill="#000000" points="442.234,199.901, 445.555,397.027, 351.78,403.071" />
  <polygon fill="#FFFFFF" points="442.571,219.87, 436.056,397.64, 360.943,382.49" />
  <polygon fill="#000000" points="441.895,238.305, 428.266,396.069, 369.408,365.626" />
  <polygon fill="#FFFFFF" points="440.449,255.044, 422.022,392.839, 377.099,352.118" />
  <polygon fill="#000000" points="438.45,269.995, 417.147,388.42, 383.972,341.585" />
  <polygon fill="#FFFFFF" points="436.087,283.128, 413.468,383.226, 390.014,333.646" />
  <polygon fill="#000000" points="395.234,327.922, 433.525,294.469, 410.811,377.609" />
  <polygon fill="#FFFFFF" points="399.664,324.051, 430.897,304.088, 409.009,371.86" />
  <polygon fill="#000000" points="403.353,321.694, 428.312,312.092, 407.905,366.214" />
  <polygon fill="#FFFFFF" points="406.36,320.537, 425.853,318.614, 407.356,360.849" />
  <polygon fill="#000000" points="408.756,320.301, 423.579,323.805, 407.234,355.895" />
  <polygon fill="#FFFFFF" points="410.613,320.74, 421.531,327.826, 407.425,351.435" />
  <polygon fill="#000000" points="412.007,321.644, 419.73,330.84, 407.832,347.515" />
  <polygon fill="#FFFFFF" points="413.012,322.841, 418.182,333.01, 408.375,344.149" />
  <polygon fill="#000000" points="413.697,324.188, 416.883,334.486, 408.99,341.326" />
  <polygon fill="#FFFFFF" points="414.127,325.577, 415.818,335.409, 409.625,339.014" />
  <polygon fill="#000000" points="414.359,326.927, 414.967,335.904, 410.243,337.169" />
  <polygon fill="#FFFFFF" points="414.444,328.181, 414.307,336.08, 410.818,335.738" />
  <polygon fill="#000000" points="414.425,329.304, 413.812,336.032, 411.333,334.665" />
  <polygon fill="#FFFFFF" points="414.336,330.276, 413.453,335.834, 411.78,333.89" />
  <polygon fill="#000000" points="414.206,331.092, 413.208,335.549, 412.155,333.359" />
  <polygon fill="#FFFFFF" points="412.462,333.021, 414.057,331.758, 413.05,335.222" />
  <polygon fill="#000000" points="412.704,332.829, 413.905,332.283, 412.961,334.888" />
  <polygon fill="#FFFFFF" points="412.889,332.745, 413.759,332.685, 412.921,334.571" />
  <polygon fill="#000000" points="413.025,332.735, 413.628,332.98, 412.916,334.285" />
  <polygon fill="#FFFFFF" points="413.121,332.774, 413.515,333.187, 412.934,334.039" />
  <polygon fill="#000000" points="413.184,332.841, 413.421,333.324, 412.964,333.835" />
  <polygon fill="#FFFFFF" points="413.223,332.92, 413.346,333.408, 413,333.672" />
  <polygon fill="#000000" points="413.244,333.001, 413.289,333.452, 413.037,333.547" />
  <polygon fill="#FFFFFF" points="413.251,333.077, 413.246,333.468, 413.072,333.455" />
  <polygon fill="#000000" points="413.25,333.144, 413.217,333.466, 413.102,333.39" />
  <polygon fill="#FFFFFF" points="413.244,333.2, 413.197,333.453, 413.128,333.348" />
  <polygon fill="#000000" points="413.149,333.322, 413.236,333.244, 413.185,333.434" />
  <polygon fill="#FFFFFF" points="413.164,333.308, 413.227,333.278, 413.178,333.414" />
  <polygon fill="#000000" points="413.175,333.302, 413.218,333.303, 413.176,333.395" />
  <polygon fill="#FFFFFF" points="413.183,333.302, 413.21,333.319, 413.176,333.378" />
  <polygon fill="#000000" points="413.188,333.306, 413.204,333.33, 413.177,333.364" />
  <polygon fill="#FFFFFF" points="413.191,333.31, 413.199,333.337, 413.179,333.353" />
  <!-- Shape 7 -->
  <polygon fill="#000000" points="720.054,0, 1000,506.057, 491.444,498.115" />
  <polygon fill="#FFFFFF" points="740.35,36.6891, 963.13,505.481, 508.018,462.001" />
  <polygon fill="#000000" points="757.036,71.8016, 929.042,502.224, 525.42,430.145" />
  <polygon fill="#FFFFFF" points="770.332,105.073, 897.842,496.652, 543.324,402.446" />
  <polygon fill="#000000" points="780.495,136.282, 869.587,489.144, 561.416,378.745" />
  <polygon fill="#FFFFFF" points="787.809,165.252, 844.286,480.08, 579.403,358.839" />
  <polygon fill="#000000" points="792.581,191.855, 821.903,469.835, 597.013,342.481" />
  <polygon fill="#FFFFFF" points="614.008,329.391, 795.13,216.012, 802.36,458.768" />
  <polygon fill="#000000" points="630.182,319.267, 795.775,237.69, 785.541,447.215" />
  <polygon fill="#FFFFFF" points="645.367,311.786, 794.837,256.903, 771.294,435.482" />
  <polygon fill="#000000" points="659.432,306.621, 792.621,273.707, 759.444,423.842" />
  <polygon fill="#FFFFFF" points="672.285,303.445, 789.42,288.196, 749.793,412.53" />
  <polygon fill="#000000" points="683.869,301.937, 785.501,300.492, 742.128,401.742" />
  <polygon fill="#FFFFFF" points="694.165,301.791, 781.107,310.749, 736.226,391.632" />
  <polygon fill="#000000" points="703.181,302.72, 776.453,319.136, 731.864,382.315" />
  <polygon fill="#FFFFFF" points="710.955,304.461, 771.722,325.84, 728.821,373.87" />
  <polygon fill="#000000" points="717.548,306.781, 767.067,331.051, 726.883,366.339" />
  <polygon fill="#FFFFFF" points="723.04,309.473, 762.611,334.964, 725.847,359.734" />
  <polygon fill="#000000" points="727.523,312.361, 758.445,337.771, 725.529,354.04" />
  <polygon fill="#FFFFFF" points="731.101,315.301, 754.637,339.653, 725.76,349.217" />
  <polygon fill="#000000" points="733.88,318.177, 751.227,340.783, 726.391,345.212" />
  <polygon fill="#FFFFFF" points="735.971,320.901, 748.234,341.316, 727.293,341.954" />
  <polygon fill="#000000" points="737.478,323.41, 745.66,341.395, 728.36,339.367" />
  <polygon fill="#FFFFFF" points="738.503,325.663, 743.493,341.141, 729.502,337.367" />
  <polygon fill="#000000" points="739.14,327.64, 741.706,340.659, 730.652,335.873" />
  <polygon fill="#FFFFFF" points="739.474,329.334, 740.268,340.036, 731.756,334.802" />
  <polygon fill="#000000" points="732.779,334.077, 739.579,330.752, 739.14,339.343" />
  <polygon fill="#FFFFFF" points="733.696,333.628, 739.52,331.911, 738.282,338.632" />
  <polygon fill="#000000" points="734.496,333.393, 739.35,332.833, 737.652,337.945" />
  <polygon fill="#FFFFFF" points="735.174,333.314, 739.113,333.548, 737.211,337.309" />
  <polygon fill="#000000" points="735.734,333.348, 738.843,334.082, 736.922,336.742" />
  <polygon fill="#FFFFFF" points="736.183,333.454, 738.565,334.466, 736.75,336.251" />
  <polygon fill="#000000" points="736.533,333.602, 738.298,334.729, 736.667,335.84" />
  <polygon fill="#FFFFFF" points="736.796,333.771, 738.055,334.895, 736.647,335.506" />
  <polygon fill="#000000" points="736.987,333.941, 737.841,334.987, 736.669,335.243" />
  <polygon fill="#FFFFFF" points="737.119,334.102, 737.661,335.027, 736.718,335.042" />
  <polygon fill="#000000" points="737.204,334.247, 737.513,335.029, 736.781,334.895" />
  <polygon fill="#FFFFFF" points="737.253,334.371, 737.397,335.008, 736.848,334.792" />
  <polygon fill="#000000" points="737.276,334.474, 737.308,334.973, 736.913,334.724" />
  <polygon fill="#FFFFFF" points="736.973,334.683, 737.281,334.556, 737.244,334.932" />
  <polygon fill="#000000" points="737.024,334.662, 737.275,334.618, 737.199,334.891" />
  <polygon fill="#FFFFFF" points="737.066,334.655, 737.262,334.664, 737.169,334.852" />
  <polygon fill="#000000" points="737.1,334.656, 737.246,334.696, 737.152,334.819" />
  <polygon fill="#FFFFFF" points="737.125,334.663, 737.23,334.718, 737.143,334.79" />
  <polygon fill="#000000" points="737.144,334.673, 737.215,334.73, 737.14,334.768" />
  <polygon fill="#FFFFFF" points="737.156,334.683, 737.201,334.737, 737.14,334.751" />
  <polygon fill="#000000" points="737.164,334.693, 737.19,334.74, 737.143,334.739" />
  <polygon fill="#FFFFFF" points="737.169,334.701, 737.182,334.739, 737.147,334.73" />
  <polygon fill="#000000" points="737.171,334.708, 737.175,334.738, 737.151,334.725" />
  <polygon fill="#FFFFFF" points="737.155,334.722, 737.172,334.714, 737.171,334.735" />
  <!-- Shape 8 -->
  <polygon fill="#FFFFFF" points="491.444,498.115, 745.626,1000, 261.104,1000" />
  <polygon fill="#000000" points="509.872,534.501, 710.498,1000, 277.803,963.613" />
  <polygon fill="#FFFFFF" points="524.899,569.367, 678.089,997.275, 295.185,931.473" />
  <polygon fill="#000000" points="536.741,602.444, 648.491,992.188, 312.942,903.482" />
  <polygon fill="#FFFFFF" points="545.647,633.507, 621.747,985.118, 330.779,879.489" />
  <polygon fill="#000000" points="551.895,662.374, 597.859,976.446, 348.42,859.294" />
  <polygon fill="#FFFFFF" points="555.779,688.913, 576.781,966.547, 365.613,842.654" />
  <polygon fill="#000000" points="382.139,829.294, 557.604,713.04, 558.431,955.781" />
  <polygon fill="#FFFFFF" points="397.808,818.913, 557.678,734.716, 542.688,944.485" />
  <polygon fill="#000000" points="412.468,811.192, 556.303,753.952, 529.402,932.97" />
  <polygon fill="#FFFFFF" points="426.003,805.806, 553.772,770.798, 518.399,921.511" />
  <polygon fill="#000000" points="438.332,802.428, 550.358,785.342, 509.483,910.345" />
  <polygon fill="#FFFFFF" points="449.412,800.738, 546.316,797.705, 502.446,899.672" />
  <polygon fill="#000000" points="459.228,800.43, 541.872,808.034, 497.074,889.65" />
  <polygon fill="#FFFFFF" points="467.798,801.219, 537.226,816.498, 493.149,880.398" />
  <polygon fill="#000000" points="475.165,802.84, 532.55,823.277, 490.459,871.997" />
  <polygon fill="#FFFFFF" points="481.391,805.057, 527.983,828.564, 488.8,864.494" />
  <polygon fill="#000000" points="486.558,807.664, 523.637,832.548, 487.978,857.902" />
  <polygon fill="#FFFFFF" points="490.759,810.484, 519.597,835.421, 487.817,852.21" />
  <polygon fill="#000000" points="494.096,813.369, 515.92,837.363, 488.158,847.383" />
  <polygon fill="#FFFFFF" points="496.673,816.203, 512.641,838.547, 488.859,843.365" />
  <polygon fill="#000000" points="498.597,818.895, 509.776,839.127, 489.8,840.092" />
  <polygon fill="#FFFFFF" points="499.971,821.382, 507.321,839.246, 490.882,837.487" />
  <polygon fill="#000000" points="500.892,823.62, 505.261,839.026, 492.021,835.469" />
  <polygon fill="#FFFFFF" points="501.45,825.587, 503.57,838.571, 493.153,833.956" />
  <polygon fill="#000000" points="501.726,827.277, 502.215,837.971, 494.233,832.867" />
  <polygon fill="#FFFFFF" points="495.226,832.126, 501.791,828.694, 501.157,837.295" />
  <polygon fill="#000000" points="496.111,831.663, 501.705,829.854, 500.357,836.597" />
  <polygon fill="#FFFFFF" points="496.879,831.415, 501.52,830.78, 499.774,835.92" />
  <polygon fill="#000000" points="497.528,831.326, 501.276,831.498, 499.37,835.291" />
  <polygon fill="#FFFFFF" points="498.06,831.351, 501.005,832.037, 499.108,834.727" />
  <polygon fill="#000000" points="498.486,831.45, 500.731,832.426, 498.957,834.239" />
  <polygon fill="#FFFFFF" points="498.816,831.593, 500.47,832.692, 498.887,833.83" />
  <polygon fill="#000000" points="499.063,831.757, 500.234,832.862, 498.877,833.496" />
  <polygon fill="#FFFFFF" points="499.24,831.925, 500.028,832.958, 498.905,833.232" />
  <polygon fill="#000000" points="499.362,832.084, 499.855,833, 498.957,833.031" />
  <polygon fill="#FFFFFF" points="499.439,832.227, 499.714,833.005, 499.02,832.882" />
  <polygon fill="#000000" points="499.483,832.351, 499.604,832.985, 499.087,832.778" />
  <polygon fill="#FFFFFF" points="499.502,832.453, 499.521,832.952, 499.15,832.709" />
  <polygon fill="#000000" points="499.208,832.667, 499.505,832.535, 499.46,832.912" />
  <polygon fill="#FFFFFF" points="499.257,832.645, 499.498,832.598, 499.418,832.872" />
  <polygon fill="#000000" points="499.298,832.637, 499.484,832.644, 499.391,832.834" />
  <polygon fill="#FFFFFF" points="499.33,832.638, 499.468,832.676, 499.375,832.8" />
  <polygon fill="#000000" points="499.354,832.645, 499.452,832.698, 499.367,832.772" />
  <polygon fill="#FFFFFF" points="499.371,832.654, 499.437,832.711, 499.365,832.75" />
  <polygon fill="#000000" points="499.383,832.664, 499.424,832.718, 499.366,832.733" />
  <polygon fill="#FFFFFF" points="499.39,832.674, 499.414,832.72, 499.369,832.72" />
  <polygon fill="#000000" points="499.395,832.682, 499.406,832.72, 499.373,832.712" />
  <polygon fill="#FFFFFF" points="499.397,832.689, 499.4,832.719, 499.377,832.706" />
  <polygon fill="#000000" points="499.381,832.703, 499.397,832.695, 499.395,832.716" />
  <!-- Shape 9 -->
  <polygon fill="#000000" points="491.444,498.115, 1000,506.057, 601.516,715.454" />
  <polygon fill="#FFFFFF" points="499.424,513.872, 963.13,505.481, 630.406,700.273" />
  <polygon fill="#000000" points="509.235,527.833, 928.398,506.109, 655.327,685.683" />
  <polygon fill="#FFFFFF" points="520.528,540.035, 895.997,507.789, 676.436,671.802" />
  <polygon fill="#000000" points="532.954,550.537, 866.072,510.359, 693.935,658.73" />
  <polygon fill="#FFFFFF" points="546.17,559.419, 838.723,513.657, 708.067,646.549" />
  <polygon fill="#000000" points="559.85,566.782, 814.002,517.524, 719.108,635.319" />
  <polygon fill="#FFFFFF" points="573.69,572.738, 791.916,521.805, 727.354,625.083" />
  <polygon fill="#000000" points="772.429,526.353, 733.119,615.86, 587.412,577.412" />
  <polygon fill="#FFFFFF" points="755.463,531.035, 736.724,607.652, 600.773,580.938" />
  <polygon fill="#000000" points="740.907,535.731, 738.487,600.443, 613.566,583.452" />
  <polygon fill="#FFFFFF" points="728.618,540.336, 738.721,594.198, 625.621,585.091" />
  <polygon fill="#000000" points="718.432,544.762, 737.722,588.871, 636.807,585.992" />
  <polygon fill="#FFFFFF" points="710.163,548.939, 735.768,584.403, 647.03,586.284" />
  <polygon fill="#000000" points="703.616,552.811, 733.112,580.725, 656.232,586.089" />
  <polygon fill="#FFFFFF" points="698.589,556.342, 729.983,577.764, 664.389,585.52" />
  <polygon fill="#000000" points="694.878,559.508, 726.577,575.439, 671.506,584.678" />
  <polygon fill="#FFFFFF" points="692.286,562.299, 723.061,573.673, 677.613,583.653" />
  <polygon fill="#000000" points="690.624,564.719, 719.574,572.384, 682.762,582.523" />
  <polygon fill="#FFFFFF" points="689.714,566.779, 716.225,571.497, 687.021,581.35" />
  <polygon fill="#000000" points="689.396,568.499, 713.094,570.94, 690.47,580.186" />
  <polygon fill="#FFFFFF" points="689.526,569.908, 710.238,570.646, 693.197,579.072" />
  <polygon fill="#000000" points="689.977,571.034, 707.693,570.555, 695.291,578.036" />
  <polygon fill="#FFFFFF" points="690.643,571.911, 705.473,570.615, 696.845,577.099" />
  <polygon fill="#000000" points="691.435,572.574, 703.579,570.781, 697.947,576.271" />
  <polygon fill="#FFFFFF" points="692.282,573.055, 701.999,571.014, 698.679,575.557" />
  <polygon fill="#000000" points="700.712,571.284, 699.119,574.955, 693.13,573.386" />
  <polygon fill="#FFFFFF" points="699.689,571.568, 699.334,574.46, 693.938,573.598" />
  <polygon fill="#000000" points="698.899,571.847, 699.383,574.063, 694.678,573.716" />
  <polygon fill="#FFFFFF" points="698.309,572.108, 699.315,573.753, 695.336,573.765" />
  <polygon fill="#000000" points="697.887,572.343, 699.172,573.519, 695.901,573.763" />
  <polygon fill="#FFFFFF" points="697.6,572.548, 698.987,573.349, 696.374,573.728" />
  <polygon fill="#000000" points="697.42,572.722, 698.783,573.232, 696.758,573.672" />
  <polygon fill="#FFFFFF" points="697.321,572.863, 698.579,573.155, 697.06,573.606" />
  <polygon fill="#000000" points="697.281,572.976, 698.388,573.111, 697.291,573.538" />
  <polygon fill="#FFFFFF" points="697.283,573.063, 698.218,573.09, 697.46,573.472" />
  <polygon fill="#000000" points="697.31,573.127, 698.072,573.086, 697.578,573.412" />
  <polygon fill="#FFFFFF" points="697.353,573.172, 697.951,573.093, 697.657,573.361" />
  <polygon fill="#000000" points="697.402,573.203, 697.854,573.105, 697.704,573.317" />
  <polygon fill="#FFFFFF" points="697.78,573.121, 697.729,573.283, 697.451,573.221" />
  <polygon fill="#000000" points="697.726,573.138, 697.737,573.256, 697.498,573.232" />
  <polygon fill="#FFFFFF" points="697.687,573.154, 697.735,573.236, 697.538,573.236" />
  <polygon fill="#000000" points="697.662,573.168, 697.727,573.222, 697.572,573.236" />
  <polygon fill="#FFFFFF" points="697.646,573.179, 697.716,573.212, 697.599,573.233" />
  <polygon fill="#000000" points="697.638,573.189, 697.703,573.207, 697.619,573.23" />
  <polygon fill="#FFFFFF" points="697.634,573.196, 697.692,573.204, 697.634,573.226" />
  <polygon fill="#000000" points="697.634,573.201, 697.681,573.202, 697.645,573.222" />
  <polygon fill="#FFFFFF" points="697.636,573.205, 697.673,573.202, 697.651,573.218" />
  <polygon fill="#000000" points="697.639,573.208, 697.666,573.203, 697.655,573.215" />
  <polygon fill="#FFFFFF" points="697.661,573.204, 697.657,573.213, 697.642,573.209" />
  <!-- Shape 10 -->
  <polygon fill="#000000" points="601.516,715.454, 867.533,763.28, 745.626,1000" />
  <polygon fill="#FFFFFF" points="611.964,736.084, 848.247,759.813, 754.464,982.838" />
  <polygon fill="#000000" points="622.638,754.565, 830.549,758.036, 761.488,966.133" />
  <polygon fill="#FFFFFF" points="633.371,770.92, 814.478,757.767, 766.827,950.047" />
  <polygon fill="#000000" points="644.007,785.196, 800.044,758.816, 770.625,934.723" />
  <polygon fill="#FFFFFF" points="654.402,797.472, 787.233,760.982, 773.04,920.281" />
  <polygon fill="#000000" points="664.427,807.85, 776.009,764.065, 774.239,906.82" />
  <polygon fill="#FFFFFF" points="673.97,816.45, 766.312,767.87, 774.393,894.414" />
  <polygon fill="#000000" points="682.938,823.412, 758.066,772.208, 773.671,883.114" />
  <polygon fill="#FFFFFF" points="751.177,776.904, 772.24,872.944, 691.258,828.887" />
  <polygon fill="#000000" points="745.539,781.795, 770.258,863.907, 698.878,833.033" />
  <polygon fill="#FFFFFF" points="741.036,786.74, 767.873,855.983, 705.767,836.012" />
  <polygon fill="#000000" points="737.548,791.613, 765.219,849.135, 711.909,837.987" />
  <polygon fill="#FFFFFF" points="734.951,796.31, 762.416,843.308, 717.309,839.116" />
  <polygon fill="#000000" points="733.121,800.749, 759.568,838.434, 721.987,839.551" />
  <polygon fill="#FFFFFF" points="731.94,804.866, 756.762,834.436, 725.974,839.433" />
  <polygon fill="#000000" points="731.292,808.617, 754.068,831.227, 729.315,838.89" />
  <polygon fill="#FFFFFF" points="731.073,811.974, 751.543,828.72, 732.06,838.041" />
  <polygon fill="#000000" points="731.185,814.927, 749.223,826.823, 734.267,836.985" />
  <polygon fill="#FFFFFF" points="731.542,817.479, 747.136,825.446, 735.998,835.809" />
  <polygon fill="#000000" points="732.068,819.644, 745.295,824.505, 737.313,834.585" />
  <polygon fill="#FFFFFF" points="732.7,821.444, 743.701,823.92, 738.275,833.37" />
  <polygon fill="#000000" points="733.385,822.91, 742.349,823.615, 738.942,832.209" />
  <polygon fill="#FFFFFF" points="734.081,824.075, 741.226,823.527, 739.369,831.132" />
  <polygon fill="#000000" points="734.756,824.976, 740.313,823.597, 739.606,830.161" />
  <polygon fill="#FFFFFF" points="735.387,825.651, 739.59,823.777, 739.698,829.307" />
  <polygon fill="#000000" points="735.958,826.135, 739.033,824.025, 739.684,828.574" />
  <polygon fill="#FFFFFF" points="738.619,824.31, 739.596,827.961, 736.461,826.464" />
  <polygon fill="#000000" points="738.322,824.605, 739.462,827.459, 736.891,826.67" />
  <polygon fill="#FFFFFF" points="738.122,824.894, 739.302,827.061, 737.25,826.78" />
  <polygon fill="#000000" points="737.999,825.162, 739.135,826.753, 737.542,826.82" />
  <polygon fill="#FFFFFF" points="737.933,825.401, 738.971,826.523, 737.772,826.81" />
  <polygon fill="#000000" points="737.909,825.608, 738.818,826.358, 737.948,826.768" />
  <polygon fill="#FFFFFF" points="737.915,825.782, 738.682,826.246, 738.078,826.707" />
  <polygon fill="#000000" points="737.94,825.922, 738.566,826.176, 738.17,826.637" />
  <polygon fill="#FFFFFF" points="737.975,826.032, 738.469,826.137, 738.231,826.566" />
  <polygon fill="#000000" points="738.015,826.116, 738.392,826.12, 738.268,826.499" />
  <polygon fill="#FFFFFF" points="738.055,826.176, 738.332,826.119, 738.288,826.439" />
  <polygon fill="#000000" points="738.093,826.219, 738.288,826.129, 738.295,826.387" />
  <polygon fill="#FFFFFF" points="738.256,826.143, 738.294,826.345, 738.126,826.246" />
  <polygon fill="#000000" points="738.234,826.161, 738.287,826.311, 738.154,826.263" />
  <polygon fill="#FFFFFF" points="738.221,826.178, 738.278,826.286, 738.176,826.271" />
  <polygon fill="#000000" points="738.213,826.194, 738.269,826.267, 738.194,826.273" />
  <polygon fill="#FFFFFF" points="738.21,826.207, 738.259,826.255, 738.207,826.272" />
  <polygon fill="#000000" points="738.209,826.219, 738.25,826.246, 738.216,826.269" />
  <polygon fill="#FFFFFF" points="738.21,826.228, 738.243,826.241, 738.222,826.265" />
  <polygon fill="#000000" points="738.212,826.235, 738.237,826.239, 738.226,826.261" />
  <polygon fill="#FFFFFF" points="738.215,826.239, 738.233,826.238, 738.228,826.257" />
  <polygon fill="#000000" points="738.217,826.243, 738.229,826.238, 738.229,826.253" />
  <polygon fill="#FFFFFF" points="738.219,826.245, 738.227,826.239, 738.229,826.251" />
  <!-- Shape 11 -->
  <polygon fill="#FFFFFF" points="1000,506.057, 867.533,763.28, 601.516,715.454" />
  <polygon fill="#000000" points="990.396,524.705, 848.247,759.813, 630.406,700.273" />
  <polygon fill="#FFFFFF" points="979.749,542.315, 831.931,755.353, 657.37,687.123" />
  <polygon fill="#000000" points="968.323,558.783, 818.437,750.079, 682.29,675.929" />
  <polygon fill="#FFFFFF" points="956.377,574.029, 807.586,744.169, 705.086,666.592" />
  <polygon fill="#000000" points="725.717,658.993, 944.161,587.998, 799.171,737.8" />
  <polygon fill="#FFFFFF" points="744.176,652.994, 931.91,600.656, 792.964,731.141" />
  <polygon fill="#000000" points="760.49,648.446, 919.835,611.995, 788.724,724.35" />
  <polygon fill="#FFFFFF" points="774.719,645.191, 908.127,622.028, 786.203,717.572" />
  <polygon fill="#000000" points="786.953,643.067, 896.947,630.79, 785.15,710.935" />
  <polygon fill="#FFFFFF" points="797.303,641.911, 886.427,638.331, 785.32,704.548" />
  <polygon fill="#000000" points="805.904,641.566, 876.67,644.721, 786.476,698.504" />
  <polygon fill="#FFFFFF" points="812.902,641.878, 867.75,650.04, 788.398,692.873" />
  <polygon fill="#000000" points="818.458,642.705, 859.711,654.379, 790.88,687.707" />
  <polygon fill="#FFFFFF" points="822.736,643.916, 852.573,657.835, 793.74,683.04" />
  <polygon fill="#000000" points="825.902,645.392, 846.331,660.51, 796.816,678.889" />
  <polygon fill="#FFFFFF" points="828.119,647.033, 840.959,662.504, 799.972,675.255" />
  <polygon fill="#000000" points="829.543,648.748, 836.413,663.918, 803.094,672.125" />
  <polygon fill="#FFFFFF" points="830.321,650.467, 832.638,664.848, 806.09,669.476" />
  <polygon fill="#000000" points="830.589,652.131, 829.567,665.383, 808.894,667.277" />
  <polygon fill="#FFFFFF" points="830.468,653.696, 827.125,665.607, 811.456,665.488" />
  <polygon fill="#000000" points="830.066,655.131, 825.237,665.593, 813.747,664.067" />
  <polygon fill="#FFFFFF" points="829.472,656.417, 823.825,665.405, 815.753,662.969" />
  <polygon fill="#000000" points="828.765,657.543, 822.813,665.1, 817.472,662.148" />
  <polygon fill="#FFFFFF" points="818.914,661.56, 828.005,658.508, 822.131,664.723" />
  <polygon fill="#000000" points="820.096,661.163, 827.24,659.317, 821.713,664.311" />
  <polygon fill="#FFFFFF" points="821.043,660.918, 826.508,659.978, 821.499,663.894" />
  <polygon fill="#000000" points="821.78,660.792, 825.832,660.507, 821.437,663.493" />
  <polygon fill="#FFFFFF" points="822.337,660.752, 825.229,660.917, 821.484,663.122" />
  <polygon fill="#000000" points="822.741,660.775, 824.706,661.225, 821.603,662.791" />
  <polygon fill="#FFFFFF" points="823.02,660.839, 824.265,661.447, 821.765,662.504" />
  <polygon fill="#000000" points="823.2,660.927, 823.904,661.6, 821.946,662.264" />
  <polygon fill="#FFFFFF" points="823.303,661.026, 823.616,661.698, 822.13,662.067" />
  <polygon fill="#000000" points="823.35,661.126, 823.394,661.753, 822.305,661.912" />
  <polygon fill="#FFFFFF" points="823.357,661.221, 823.229,661.777, 822.464,661.793" />
  <polygon fill="#000000" points="823.337,661.307, 823.111,661.779, 822.601,661.705" />
  <polygon fill="#FFFFFF" points="823.302,661.381, 823.031,661.768, 822.717,661.642" />
  <polygon fill="#000000" points="823.259,661.442, 822.981,661.748, 822.81,661.601" />
  <polygon fill="#FFFFFF" points="822.882,661.575, 823.214,661.492, 822.954,661.724" />
  <polygon fill="#000000" points="822.936,661.562, 823.171,661.53, 822.942,661.7" />
  <polygon fill="#FFFFFF" points="822.975,661.556, 823.133,661.558, 822.941,661.677" />
  <polygon fill="#000000" points="823.002,661.557, 823.101,661.578, 822.947,661.656" />
  <polygon fill="#FFFFFF" points="823.019,661.56, 823.074,661.591, 822.956,661.639" />
  <polygon fill="#000000" points="823.028,661.566, 823.054,661.6, 822.967,661.626" />
  <polygon fill="#FFFFFF" points="823.033,661.572, 823.039,661.604, 822.978,661.615" />
  <polygon fill="#000000" points="823.034,661.577, 823.028,661.606, 822.988,661.607" />
  <polygon fill="#FFFFFF" points="823.033,661.583, 823.021,661.606, 822.996,661.602" />
  <polygon fill="#000000" points="823.031,661.587, 823.016,661.606, 823.003,661.598" />
  <polygon fill="#FFFFFF" points="823.008,661.596, 823.028,661.59, 823.014,661.604" />
  <polygon fill="#000000" points="823.012,661.595, 823.025,661.593, 823.013,661.603" />
</svg>
