<?xml version="1.0" standalone="no"?>
<!DOCTYPE svg PUBLIC "-//W3C//DTD SVG 1.1//EN" "http://www.w3.org/Graphics/SVG/1.1/DTD/svg11.dtd">
<svg viewBox="0, 0, 1000, 1000" xmlns="http://www.w3.org/2000/svg" version="1.1">
  <!-- Shape 1 -->
  <!-- Shape 2 -->
  <!-- Shape 3 -->
  <!-- Shape 4 -->
  <!-- Shape 5 -->
  <polygon fill="#FFFFFF" points="172.023,167.829, 258.412,0, 720.054,0, 1000,506.057, 821.695,852.289" />
  <polygon fill="#000000" points="192.487,189.39, 255.691,5.28662, 705.512,0, 991.182,490.116, 827.311,841.383" />
  <polygon fill="#FFFFFF" points="214.008,211.492, 253.548,11.5277, 690.263,0.179217, 981.497,473.501, 832.867,829.475" />
  <polygon fill="#000000" points="236.472,233.925, 252.113,18.7864, 674.41,0.591167, 970.926,456.319, 838.262,816.553" />
  <polygon fill="#FFFFFF" points="259.762,256.473, 251.507,27.1123, 658.067,1.29532, 959.451,438.683, 843.396,802.612" />
  <polygon fill="#000000" points="283.749,278.919, 251.847,36.539, 641.358,2.3564, 947.064,420.706, 848.166,787.655" />
  <polygon fill="#FFFFFF" points="308.301,301.049, 253.234,47.0826, 624.414,3.84335, 933.766,402.508, 852.468,771.692" />
  <polygon fill="#000000" points="333.278,322.652, 255.762,58.7396, 607.377,5.82803, 919.566,384.209, 856.199,754.747" />
  <polygon fill="#FFFFFF" points="259.506,71.4866, 590.394,8.38366, 904.488,365.933, 859.26,736.85, 358.535,343.522" />
  <polygon fill="#000000" points="264.527,85.2788, 573.618,11.583, 888.563,347.805, 861.553,718.044, 383.922,363.464" />
  <polygon fill="#FFFFFF" points="270.867,100.05, 557.205,15.4962, 871.839,329.952, 862.987,698.385, 409.284,382.292" />
  <polygon fill="#000000" points="278.549,115.715, 541.313,20.189, 854.377,312.5, 863.479,677.937, 434.465,399.835" />
  <polygon fill="#FFFFFF" points="287.576,132.165, 526.099,25.7199, 836.251,295.575, 862.952,656.778, 459.305,415.937" />
  <polygon fill="#000000" points="297.932,149.277, 511.716,32.1386, 817.549,279.303, 861.342,634.997, 483.645,430.46" />
  <polygon fill="#FFFFFF" points="309.576,166.907, 498.312,39.4831, 798.373,263.806, 858.596,612.695, 507.326,443.284" />
  <polygon fill="#000000" points="322.449,184.899, 486.025,47.7784, 778.839,249.202, 854.675,589.983, 530.194,454.313" />
  <polygon fill="#FFFFFF" points="336.472,203.085, 474.984,57.0341, 759.074,235.606, 849.556,566.98, 552.096,463.471" />
  <polygon fill="#000000" points="351.544,221.286, 465.302,67.243, 739.216,223.124, 843.232,543.817, 572.889,470.706" />
  <polygon fill="#FFFFFF" points="367.547,239.319, 457.077,78.3803, 719.412,211.854, 835.711,520.631, 592.435,475.992" />
  <polygon fill="#000000" points="384.347,256.998, 450.389,90.4024, 699.816,201.883, 827.024,497.565, 610.607,479.326" />
  <polygon fill="#FFFFFF" points="401.791,274.14, 445.298,103.247, 680.585,193.288, 817.216,474.768, 627.293,480.733" />
  <polygon fill="#000000" points="419.719,290.564, 441.839,116.833, 661.88,186.13, 806.354,452.39, 642.392,480.258" />
  <polygon fill="#FFFFFF" points="440.027,131.061, 643.858,180.454, 794.521,430.584, 655.82,477.976, 437.956,306.1" />
  <!-- Shape 6 -->
  <polygon fill="#000000" points="0,502.019, 172.023,167.829, 567.585,584.573, 261.104,1000" />
  <polygon fill="#FFFFFF" points="2.83837,496.505, 178.549,174.706, 562.528,591.427, 256.795,991.783" />
  <polygon fill="#000000" points="6.15931,490.423, 185.806,182.582, 556.749,598.994, 251.996,982.423" />
  <polygon fill="#FFFFFF" points="9.98579,483.866, 193.708,191.451, 550.258,607.161, 246.759,971.943" />
  <polygon fill="#000000" points="14.34,476.935, 202.158,201.303, 543.065,615.806, 241.148,960.376" />
  <polygon fill="#FFFFFF" points="19.242,469.741, 211.055,212.122, 535.185,624.799, 235.228,947.758" />
  <polygon fill="#000000" points="24.7087,462.399, 220.293,223.883, 526.636,634.004, 229.073,934.134" />
  <polygon fill="#FFFFFF" points="30.7523,455.029, 229.759,236.556, 517.442,643.278, 222.758,919.558" />
  <polygon fill="#000000" points="37.3792,447.754, 239.339,250.1, 507.629,652.478, 216.364,904.089" />
  <polygon fill="#FFFFFF" points="44.5892,440.698, 248.917,264.465, 497.231,661.46, 209.974,887.798" />
  <polygon fill="#000000" points="52.3741,433.983, 258.378,279.59, 486.286,670.084, 203.673,870.763" />
  <polygon fill="#FFFFFF" points="60.7172,427.73, 267.608,295.405, 474.84,678.211, 197.545,853.074" />
  <polygon fill="#000000" points="69.5928,422.054, 276.498,311.828, 462.944,685.713, 191.675,834.826" />
  <polygon fill="#FFFFFF" points="78.9656,417.06, 284.944,328.765, 450.656,692.468, 186.145,816.128" />
  <polygon fill="#000000" points="88.7908,412.849, 292.849,346.113, 438.039,698.366, 181.033,797.092" />
  <polygon fill="#FFFFFF" points="99.0141,409.505, 300.123,363.761, 425.163,703.313, 176.411,777.842" />
  <polygon fill="#000000" points="109.572,407.104, 306.687,381.588, 412.103,707.225, 172.348,758.504" />
  <polygon fill="#FFFFFF" points="120.394,405.703, 312.475,399.465, 398.941,710.041, 168.902,739.212" />
  <polygon fill="#000000" points="131.4,405.345, 317.429,417.261, 385.759,711.712, 166.122,720.102" />
  <polygon fill="#FFFFFF" points="142.506,406.057, 321.508,434.84, 372.647,712.213, 164.049,701.311" />
  <polygon fill="#000000" points="153.622,407.844, 324.684,452.065, 359.693,711.536, 162.711,682.976" />
  <polygon fill="#FFFFFF" points="164.656,410.696, 326.942,468.801, 346.988,709.694, 162.125,665.23" />
  <polygon fill="#000000" points="175.513,414.584, 328.283,484.916, 334.621,706.719, 162.294,648.202" />
  <polygon fill="#FFFFFF" points="186.1,419.458, 328.722,500.287, 322.678,702.664, 163.21,632.012" />
  <polygon fill="#000000" points="196.326,425.253, 328.289,514.798, 311.244,697.598, 164.852,616.772" />
  <polygon fill="#FFFFFF" points="206.104,431.888, 327.026,528.343, 300.397,691.609, 167.184,602.58" />
  <polygon fill="#000000" points="215.355,439.267, 324.989,540.833, 290.206,684.798, 170.161,589.522" />
  <polygon fill="#FFFFFF" points="224.005,447.281, 322.245,552.192, 280.734,677.281, 173.727,577.667" />
  <polygon fill="#000000" points="231.992,455.81, 318.87,562.362, 272.035,669.182, 177.815,567.067" />
  <polygon fill="#FFFFFF" points="182.349,557.755, 239.263,464.728, 314.95,571.303, 264.148,660.635" />
  <polygon fill="#000000" points="187.25,549.745, 245.78,473.904, 310.576,578.994, 257.106,651.777" />
  <polygon fill="#FFFFFF" points="192.429,543.033, 251.514,483.205, 305.844,585.435, 250.923,642.747" />
  <!-- Shape 7 -->
  <polygon fill="#FFFFFF" points="567.585,584.573, 821.695,852.289, 745.626,1000, 261.104,1000" />
  <polygon fill="#000000" points="575.208,592.604, 819.413,856.721, 731.09,1000, 270.298,987.537" />
  <polygon fill="#FFFFFF" points="583.12,601.161, 816.551,861.363, 716.161,999.596, 280.177,974.741" />
  <polygon fill="#000000" points="591.244,610.216, 813.057,866.174, 700.988,998.731, 290.72,961.741" />
  <polygon fill="#FFFFFF" points="599.495,619.738, 808.888,871.105, 685.726,997.355, 301.899,948.664" />
  <polygon fill="#000000" points="607.787,629.692, 804.011,876.104, 670.527,995.427, 313.684,935.639" />
  <polygon fill="#FFFFFF" points="616.029,640.042, 798.405,881.116, 655.539,992.916, 326.036,922.789" />
  <polygon fill="#000000" points="624.126,650.745, 792.062,886.08, 640.909,989.802, 338.912,910.235" />
  <polygon fill="#FFFFFF" points="631.985,661.759, 784.988,890.934, 626.776,986.079, 352.26,898.091" />
  <polygon fill="#000000" points="639.513,673.034, 777.204,895.615, 613.27,981.75, 366.022,886.463" />
  <polygon fill="#FFFFFF" points="646.618,684.519, 768.745,900.06, 600.512,976.833, 380.135,875.45" />
  <polygon fill="#000000" points="653.213,696.159, 759.66,904.205, 588.611,971.358, 394.525,865.14" />
  <polygon fill="#FFFFFF" points="659.216,707.892, 750.013,907.993, 577.665,965.367, 409.115,855.609" />
  <polygon fill="#000000" points="423.821,846.924, 664.555,719.658, 739.879,911.366, 567.754,958.914" />
  <polygon fill="#FFFFFF" points="438.554,839.135, 669.165,731.391, 729.345,914.276, 558.945,952.06" />
  <polygon fill="#000000" points="453.22,832.283, 672.993,743.022, 718.507,916.679, 551.288,944.878" />
  <polygon fill="#FFFFFF" points="467.725,826.391, 675.997,754.484, 707.471,918.54, 544.816,937.447" />
  <polygon fill="#000000" points="481.971,821.473, 678.149,765.705, 696.345,919.834, 539.543,929.85" />
  <polygon fill="#FFFFFF" points="495.861,817.525, 679.438,776.617, 685.244,920.543, 535.467,922.177" />
  <polygon fill="#000000" points="509.298,814.53, 679.863,787.153, 674.28,920.662, 532.568,914.517" />
  <polygon fill="#FFFFFF" points="522.193,812.46, 679.441,797.246, 663.567,920.198, 530.809,906.958" />
</svg>
