<?xml version="1.0" standalone="no"?>
<!DOCTYPE svg PUBLIC "-//W3C//DTD SVG 1.1//EN" "http://www.w3.org/Graphics/SVG/1.1/DTD/svg11.dtd">
<svg viewBox="0, 0, 1500, 500" xmlns="http://www.w3.org/2000/svg" version="1.1">
  <!-- Shape 1 -->
  <polygon fill="#000000" points="1015.32,0, 1500,0, 1500,500, 1020.54,500" />
  <polygon fill="#FFFFFF" points="1043.92,0, 1500,29.5, 1471.71,500, 1020.24,470.5" />
  <polygon fill="#000000" points="1072.92,1.8762, 1498.2,59.4238, 1443,498.124, 1021.74,440.576" />
  <polygon fill="#FFFFFF" points="1101.93,5.80095, 1494.44,89.3431, 1414.27,494.199, 1025.23,410.657" />
  <polygon fill="#000000" points="1130.5,11.8828, 1488.6,118.817, 1385.95,488.117, 1030.82,381.183" />
  <polygon fill="#FFFFFF" points="1158.22,20.1595, 1480.65,147.401, 1358.46,479.841, 1038.53,352.599" />
  <polygon fill="#000000" points="1184.66,30.5933, 1470.63,174.661, 1332.23,469.407, 1048.35,325.339" />
  <polygon fill="#FFFFFF" points="1209.42,43.0695, 1458.65,200.186, 1307.64,456.931, 1060.15,299.814" />
  <polygon fill="#000000" points="1232.15,57.3985, 1444.88,223.601, 1285.07,442.602, 1073.76,276.399" />
  <polygon fill="#FFFFFF" points="1252.53,73.3207, 1429.57,244.581, 1264.83,426.679, 1088.94,255.419" />
  <polygon fill="#000000" points="1105.36,237.136, 1270.31,90.5152, 1413.03,262.864, 1247.17,409.485" />
  <polygon fill="#FFFFFF" points="1122.68,221.741, 1285.29,108.612, 1395.61,278.259, 1232.28,391.388" />
  <polygon fill="#000000" points="1140.5,209.342, 1297.38,127.205, 1377.71,290.658, 1220.27,372.795" />
  <polygon fill="#FFFFFF" points="1158.42,199.962, 1306.56,145.871, 1359.73,300.038, 1211.16,354.129" />
  <polygon fill="#000000" points="1176.02,193.536, 1312.87,164.186, 1342.08,306.464, 1204.89,335.814" />
  <polygon fill="#FFFFFF" points="1192.91,189.914, 1316.48,181.743, 1325.15,310.086, 1201.33,318.257" />
  <polygon fill="#000000" points="1208.72,188.868, 1317.59,198.171, 1309.3,311.132, 1200.25,301.829" />
  <polygon fill="#FFFFFF" points="1223.16,190.102, 1316.49,213.15, 1294.84,309.898, 1201.37,286.85" />
  <polygon fill="#000000" points="1235.96,193.264, 1313.52,226.424, 1282.02,306.736, 1204.36,273.576" />
  <polygon fill="#FFFFFF" points="1246.96,197.966, 1309.05,237.812, 1271.01,302.034, 1208.84,262.188" />
  <polygon fill="#000000" points="1256.05,203.8, 1303.48,247.214, 1261.91,296.2, 1214.42,252.786" />
  <polygon fill="#FFFFFF" points="1220.71,245.389, 1263.21,210.355, 1297.2,254.611, 1254.74,289.645" />
  <polygon fill="#000000" points="1227.32,239.938, 1268.5,217.241, 1290.6,260.062, 1249.44,282.759" />
  <polygon fill="#FFFFFF" points="1233.92,236.302, 1272.04,224.101, 1284,263.698, 1245.9,275.899" />
  <polygon fill="#000000" points="1240.2,234.291, 1274.01,230.627, 1277.72,265.709, 1243.92,269.373" />
  <polygon fill="#FFFFFF" points="1245.93,233.67, 1274.64,236.57, 1272,266.33, 1243.29,263.43" />
  <polygon fill="#000000" points="1250.93,234.175, 1274.18,241.748, 1267,265.825, 1243.75,258.252" />
  <polygon fill="#FFFFFF" points="1255.08,235.527, 1272.9,246.048, 1262.85,264.473, 1245.03,253.952" />
  <polygon fill="#000000" points="1258.34,237.455, 1271.06,249.423, 1259.59,262.545, 1246.87,250.577" />
  <polygon fill="#FFFFFF" points="1249.03,248.112, 1260.73,239.703, 1268.9,251.888, 1257.2,260.297" />
  <polygon fill="#000000" points="1251.28,246.494, 1262.3,242.047, 1266.65,253.506, 1255.63,257.953" />
  <polygon fill="#FFFFFF" points="1253.45,245.618, 1263.16,244.304, 1264.48,254.382, 1254.77,255.696" />
  <polygon fill="#000000" points="1255.41,245.353, 1263.43,246.336, 1262.52,254.647, 1254.5,253.664" />
  <polygon fill="#FFFFFF" points="1257.06,245.556, 1263.24,248.05, 1260.87,254.444, 1254.69,251.95" />
  <polygon fill="#000000" points="1258.36,246.082, 1262.74,249.398, 1259.57,253.918, 1255.19,250.602" />
  <polygon fill="#FFFFFF" points="1255.87,249.629, 1259.31,246.796, 1262.06,250.371, 1258.62,253.204" />
  <polygon fill="#000000" points="1256.63,249.005, 1259.91,247.582, 1261.3,250.995, 1258.02,252.418" />
  <polygon fill="#FFFFFF" points="1257.37,248.686, 1260.22,248.349, 1260.56,251.314, 1257.71,251.651" />
  <polygon fill="#000000" points="1258.02,248.609, 1260.3,249.028, 1259.91,251.391, 1257.63,250.972" />
  <polygon fill="#FFFFFF" points="1258.56,248.707, 1260.21,249.581, 1259.38,251.293, 1257.72,250.419" />
  <polygon fill="#000000" points="1258.95,248.915, 1260.01,249.989, 1258.98,251.085, 1257.92,250.011" />
  <polygon fill="#FFFFFF" points="1258.17,249.745, 1259.21,249.176, 1259.76,250.255, 1258.72,250.824" />
  <polygon fill="#000000" points="1258.43,249.604, 1259.34,249.443, 1259.5,250.396, 1258.59,250.557" />
  <polygon fill="#FFFFFF" points="1258.66,249.563, 1259.39,249.684, 1259.27,250.437, 1258.55,250.316" />
  <polygon fill="#000000" points="1258.85,249.594, 1259.36,249.877, 1259.09,250.406, 1258.58,250.123" />
  <polygon fill="#FFFFFF" points="1258.65,249.985, 1258.98,249.668, 1259.29,250.015, 1258.95,250.332" />
  <polygon fill="#000000" points="1258.73,249.901, 1259.06,249.76, 1259.2,250.099, 1258.87,250.24" />
  <polygon fill="#FFFFFF" points="1258.82,249.863, 1259.1,249.852, 1259.11,250.137, 1258.83,250.148" />
  <polygon fill="#000000" points="1258.9,249.86, 1259.1,249.931, 1259.03,250.14, 1258.83,250.069" />
  <polygon fill="#FFFFFF" points="1258.95,249.88, 1259.08,249.989, 1258.98,250.12, 1258.85,250.011" />
  <!-- Shape 2 -->
  <polygon fill="#000000" points="0,282.033, 1018.23,278.095, 1020.54,500, 0,500" />
  <polygon fill="#FFFFFF" points="0,287.374, 993.279,278.191, 1020.49,494.563, 25.0033,500" />
  <polygon fill="#000000" points="0.702593,293.348, 965.368,278.449, 1019.72,488.483, 52.9764,499.847" />
  <polygon fill="#FFFFFF" points="2.35967,299.894, 934.788,278.922, 1018,481.825, 83.6222,499.487" />
  <polygon fill="#000000" points="5.22824,306.94, 901.873,279.662, 1015.06,474.663, 116.606,498.864" />
  <polygon fill="#FFFFFF" points="9.56082,314.406, 866.994,280.723, 1010.66,467.077, 151.556,497.922" />
  <polygon fill="#000000" points="15.5956,322.205, 830.553,282.154, 1004.55,459.157, 188.068,496.611" />
  <polygon fill="#FFFFFF" points="23.5466,330.245, 792.983,284.001, 996.531,450.997, 225.707,494.885" />
  <polygon fill="#000000" points="33.594,338.428, 754.742,286.299, 986.415,442.698, 264.017,492.703" />
  <polygon fill="#FFFFFF" points="45.8755,346.651, 716.305,289.078, 974.067,434.362, 302.521,490.038" />
  <polygon fill="#000000" points="60.4787,354.81, 678.157,292.354, 959.4,426.095, 340.732,486.87" />
  <polygon fill="#FFFFFF" points="77.434,362.799, 640.788,296.132, 942.385,418.004, 378.162,483.193" />
  <polygon fill="#000000" points="96.7106,370.517, 604.677,300.406, 923.053,410.192, 414.328,479.015" />
  <polygon fill="#FFFFFF" points="118.213,377.862, 570.288,305.152, 901.499,402.759, 448.769,474.355" />
  <polygon fill="#000000" points="141.782,384.742, 538.055,310.336, 877.883,395.8, 481.049,469.25" />
  <polygon fill="#FFFFFF" points="508.374,315.909, 852.43,389.398, 510.771,463.749, 167.193,391.071" />
  <polygon fill="#000000" points="481.591,321.809, 825.422,383.63, 537.592,457.912, 194.164,396.777" />
  <polygon fill="#FFFFFF" points="457.993,327.964, 797.193,378.554, 561.222,451.814, 222.359,401.796" />
  <polygon fill="#000000" points="437.8,334.292, 768.124,374.219, 581.445,445.535, 251.4,406.082" />
  <polygon fill="#FFFFFF" points="421.154,340.703, 738.626,370.653, 598.116,439.167, 280.873,409.606" />
  <polygon fill="#000000" points="408.122,347.104, 709.133,367.871, 611.169,432.802, 310.345,412.352" />
  <polygon fill="#FFFFFF" points="398.686,353.4, 680.085,365.867, 620.622,426.536, 339.374,414.325" />
  <polygon fill="#000000" points="392.749,359.499, 651.917,364.619, 626.575,420.463, 367.527,415.548" />
  <polygon fill="#FFFFFF" points="390.134,365.311, 625.041,364.088, 629.203,414.672, 394.39,416.057" />
  <polygon fill="#000000" points="390.591,370.756, 599.836,364.219, 628.756,409.244, 419.586,415.909" />
  <polygon fill="#FFFFFF" points="393.806,375.763, 576.631,364.944, 625.549,404.251, 442.783,415.17" />
  <polygon fill="#000000" points="399.414,380.275, 555.697,366.183, 619.948,399.75, 463.71,413.919" />
  <polygon fill="#FFFFFF" points="407.007,384.249, 537.24,367.847, 612.36,395.786, 482.161,412.246" />
  <polygon fill="#000000" points="416.154,387.656, 521.391,369.843, 603.218,392.386, 498.006,410.243" />
  <polygon fill="#FFFFFF" points="508.205,372.075, 592.965,389.561, 511.189,408.005, 426.41,390.486" />
  <polygon fill="#000000" points="497.661,374.448, 582.039,387.307, 521.73,405.628, 437.338,392.744" />
  <polygon fill="#FFFFFF" points="489.668,376.873, 570.859,385.604, 529.721,403.2, 448.52,394.451" />
  <polygon fill="#000000" points="484.068,379.265, 559.809,384.415, 535.32,400.806, 459.571,395.642" />
  <polygon fill="#FFFFFF" points="480.646,381.553, 549.228,383.696, 538.741,398.516, 470.153,396.364" />
  <polygon fill="#000000" points="479.142,383.675, 539.4,383.389, 540.244,396.392, 479.982,396.672" />
  <polygon fill="#FFFFFF" points="479.266,385.585, 530.548,383.431, 540.12,394.482, 488.835,396.631" />
  <polygon fill="#000000" points="480.706,387.247, 522.83,383.755, 538.679,392.819, 496.553,396.307" />
  <polygon fill="#FFFFFF" points="483.148,388.643, 516.339,384.293, 536.237,391.422, 503.045,395.77" />
  <polygon fill="#000000" points="486.286,389.767, 511.105,384.979, 533.099,390.298, 508.279,395.084" />
  <polygon fill="#FFFFFF" points="507.101,385.751, 529.551,389.44, 512.283,394.312, 489.833,390.625" />
  <polygon fill="#000000" points="504.254,386.555, 525.849,388.832, 515.13,393.509, 493.535,391.233" />
  <polygon fill="#FFFFFF" points="502.448,387.343, 522.211,388.448, 516.936,392.721, 497.174,391.616" />
  <polygon fill="#000000" points="501.54,388.079, 518.809,388.258, 517.844,391.985, 500.575,391.806" />
  <polygon fill="#FFFFFF" points="501.37,388.734, 515.775,388.226, 518.014,391.33, 503.609,391.838" />
  <polygon fill="#000000" points="501.772,389.29, 513.192,388.317, 517.612,390.774, 506.192,391.747" />
  <polygon fill="#FFFFFF" points="502.58,389.739, 511.104,388.495, 516.804,390.325, 508.281,391.569" />
  <polygon fill="#000000" points="509.514,388.727, 515.741,389.983, 509.87,391.337, 503.643,390.081" />
  <polygon fill="#FFFFFF" points="508.398,388.985, 514.557,389.745, 510.986,391.079, 504.827,390.319" />
  <polygon fill="#000000" points="507.706,389.243, 513.364,389.597, 511.678,390.821, 506.02,390.467" />
  <polygon fill="#FFFFFF" points="507.374,389.485, 512.248,389.527, 512.011,390.58, 507.136,390.537" />
  <!-- Shape 3 -->
  <polygon fill="#FFFFFF" points="0,0, 721.797,0, 724.162,279.232, 0,282.033" />
  <polygon fill="#000000" points="42.586,0, 721.936,16.4747, 681.436,279.397, 0,265.393" />
  <polygon fill="#FFFFFF" points="86.3022,1.06015, 719.33,33.3938, 637.586,278.496, 2.74041,248.315" />
  <polygon fill="#000000" points="130.424,3.3138, 713.632,50.4774, 593.337,276.393, 8.56467,231.082" />
  <polygon fill="#FFFFFF" points="174.194,6.85343, 704.604,67.4324, 549.45,272.992, 17.7102,213.988" />
  <polygon fill="#000000" points="216.839,11.724, 692.13,83.9594, 506.698,268.248, 30.2915,197.334" />
  <polygon fill="#FFFFFF" points="257.595,17.9182, 676.229,99.7621, 465.846,262.167, 46.288,181.418" />
  <polygon fill="#000000" points="295.733,25.3741, 657.063,114.557, 427.624,254.811, 65.5381,166.523" />
  <polygon fill="#FFFFFF" points="330.583,33.9759, 634.934,128.085, 392.701,246.296, 87.7403,152.909" />
  <polygon fill="#000000" points="361.566,43.5561, 610.275,140.119, 361.656,236.789, 112.462,140.802" />
  <polygon fill="#FFFFFF" points="139.153,130.382, 388.215,53.9028, 583.635,150.477, 334.955,226.504" />
  <polygon fill="#000000" points="167.173,121.778, 410.2,64.7674, 555.659,159.03, 312.927,215.69" />
  <polygon fill="#FFFFFF" points="195.813,115.059, 427.342,75.8762, 527.053,165.707, 295.75,204.623" />
  <polygon fill="#000000" points="224.338,110.232, 439.627,86.9434, 498.556,170.502, 283.438,193.588" />
  <polygon fill="#FFFFFF" points="252.013,107.238, 447.202,97.6848, 470.903,173.469, 275.841,182.873" />
  <polygon fill="#000000" points="278.149,105.959, 450.375,107.832, 444.784,174.729, 272.65,172.746" />
  <polygon fill="#FFFFFF" points="302.131,106.22, 449.597,117.148, 420.814,174.452, 273.416,163.446" />
  <polygon fill="#000000" points="323.455,107.8, 445.435,125.434, 399.501,172.861, 277.568,155.171" />
  <polygon fill="#FFFFFF" points="341.746,110.444, 438.547,132.546, 381.217,170.208, 284.449,148.067" />
  <polygon fill="#000000" points="356.779,113.877, 429.644,138.395, 366.189,166.77, 293.347,142.225" />
  <polygon fill="#FFFFFF" points="303.537,137.67, 368.485,117.815, 419.45,142.953, 354.487,162.827" />
  <polygon fill="#000000" points="314.319,134.375, 376.945,121.988, 408.666,146.252, 346.029,158.651" />
  <polygon fill="#FFFFFF" points="325.05,132.252, 382.38,126.146, 397.933,148.377, 340.596,154.491" />
  <polygon fill="#000000" points="335.18,131.173, 385.128,130.074, 387.801,149.457, 337.849,150.561" />
  <polygon fill="#FFFFFF" points="344.273,130.973, 385.615,133.603, 378.708,149.658, 337.363,147.032" />
  <polygon fill="#000000" points="352.021,131.466, 384.321,136.611, 370.96,149.166, 338.658,144.022" />
  <polygon fill="#FFFFFF" points="358.246,132.458, 381.745,139.031, 364.733,148.174, 341.233,141.602" />
  <polygon fill="#000000" points="344.604,139.791, 362.902,133.76, 378.375,140.843, 360.078,146.872" />
  <polygon fill="#FFFFFF" points="348.326,138.564, 366.05,135.201, 374.653,142.069, 356.93,145.432" />
  <polygon fill="#000000" points="352.027,137.862, 367.846,136.635, 370.952,142.771, 355.133,143.998" />
  <polygon fill="#FFFFFF" points="355.415,137.599, 368.511,137.949, 367.565,143.034, 354.468,142.684" />
  <polygon fill="#000000" points="358.289,137.676, 368.303,139.065, 364.69,142.957, 354.676,141.567" />
  <polygon fill="#FFFFFF" points="360.541,137.988, 367.491,139.94, 362.438,142.645, 355.488,140.692" />
  <polygon fill="#000000" points="356.652,140.07, 362.141,138.438, 366.328,140.563, 360.838,142.195" />
  <polygon fill="#FFFFFF" points="357.945,139.685, 363.127,138.938, 365.035,140.947, 359.852,141.695" />
  <polygon fill="#000000" points="359.193,139.505, 363.587,139.422, 363.786,141.127, 359.393,141.211" />
  <polygon fill="#FFFFFF" points="360.275,139.485, 363.636,139.842, 362.704,141.148, 359.343,140.791" />
  <polygon fill="#000000" points="361.121,139.575, 363.401,140.171, 361.859,141.058, 359.578,140.462" />
  <polygon fill="#FFFFFF" points="359.974,140.234, 361.707,139.728, 363.005,140.399, 361.273,140.905" />
  <polygon fill="#000000" points="360.429,140.101, 362.047,139.904, 362.551,140.531, 360.932,140.729" />
  <polygon fill="#FFFFFF" points="360.862,140.048, 362.182,140.072, 362.117,140.584, 360.797,140.561" />
  <polygon fill="#000000" points="361.222,140.055, 362.164,140.212, 361.757,140.578, 360.815,140.421" />
  <polygon fill="#FFFFFF" points="361.484,140.099, 362.051,140.314, 361.495,140.534, 360.928,140.319" />
  <polygon fill="#000000" points="361.086,140.257, 361.645,140.16, 361.893,140.376, 361.334,140.473" />
  <polygon fill="#FFFFFF" points="361.248,140.229, 361.717,140.222, 361.732,140.404, 361.262,140.411" />
  <polygon fill="#000000" points="361.386,140.227, 361.721,140.276, 361.593,140.406, 361.258,140.357" />
  <polygon fill="#FFFFFF" points="361.486,140.241, 361.683,140.315, 361.493,140.391, 361.296,140.318" />
  <polygon fill="#000000" points="361.354,140.295, 361.546,140.264, 361.625,140.338, 361.433,140.369" />
  <polygon fill="#FFFFFF" points="361.414,140.285, 361.571,140.287, 361.565,140.348, 361.409,140.346" />
  <polygon fill="#000000" points="361.463,140.286, 361.569,140.306, 361.516,140.347, 361.41,140.327" />
  <!-- Shape 4 -->
  <polygon fill="#000000" points="721.797,0, 853.412,0, 855.618,278.724, 724.162,279.232" />
  <polygon fill="#FFFFFF" points="740.881,0, 853.732,40.4149, 836.557,278.797, 723.819,238.744" />
  <polygon fill="#000000" points="758.017,6.13701, 851.124,76.6133, 819.438,272.715, 726.41,202.49" />
  <polygon fill="#FFFFFF" points="772.793,17.3216, 846.095,107.735, 804.674,261.571, 731.426,171.329" />
  <polygon fill="#000000" points="784.929,32.2895, 839.238,133.202, 792.548,246.631, 738.274,145.833" />
  <polygon fill="#FFFFFF" points="746.317,126.258, 794.291,49.6868, 831.189,152.757, 783.191,229.253" />
  <polygon fill="#000000" points="754.917,112.533, 800.905,68.1622, 822.585,166.469, 776.581,210.792" />
  <polygon fill="#FFFFFF" points="763.475,104.275, 804.94,86.4572, 814.024,174.718, 772.55,192.506" />
  <polygon fill="#000000" points="771.476,100.837, 806.693,103.487, 806.021,178.15, 770.799,175.482" />
  <polygon fill="#FFFFFF" points="778.512,101.367, 806.559,118.405, 798.984,177.617, 770.934,160.568" />
  <polygon fill="#000000" points="784.308,104.888, 804.993,130.641, 793.187,174.094, 772.5,148.334" />
  <polygon fill="#FFFFFF" points="775.021,139.058, 788.724,110.386, 802.473,139.918, 788.771,168.594" />
  <polygon fill="#000000" points="778.041,132.74, 791.754,116.893, 799.453,146.237, 785.741,162.086" />
  <polygon fill="#FFFFFF" points="781.156,129.14, 793.503,123.56, 796.338,149.838, 783.991,155.418" />
  <polygon fill="#000000" points="784.046,127.834, 794.167,129.71, 793.448,151.144, 783.328,149.268" />
  <polygon fill="#FFFFFF" points="786.484,128.286, 793.994,134.874, 791.01,150.692, 783.501,144.104" />
  <polygon fill="#000000" points="788.345,129.918, 793.254,138.793, 789.15,149.06, 784.24,140.185" />
  <polygon fill="#FFFFFF" points="785.285,137.571, 789.595,132.178, 792.209,141.407, 787.9,146.8" />
  <polygon fill="#000000" points="786.412,136.161, 790.278,134.59, 791.083,142.817, 787.216,144.387" />
  <polygon fill="#FFFFFF" points="787.449,135.74, 790.494,136.798, 790.045,143.238, 787,142.18" />
  <polygon fill="#000000" points="788.287,136.031, 790.371,138.57, 789.207,142.947, 787.124,140.408" />
  <polygon fill="#FFFFFF" points="787.452,139.174, 788.874,136.747, 790.043,139.804, 788.62,142.231" />
  <polygon fill="#000000" points="787.863,138.473, 789.212,137.63, 789.632,140.505, 788.282,141.348" />
  <polygon fill="#FFFFFF" points="788.262,138.224, 789.336,138.48, 789.233,140.754, 788.158,140.498" />
  <polygon fill="#000000" points="788.587,138.301, 789.305,139.168, 788.908,140.677, 788.19,139.81" />
  <polygon fill="#FFFFFF" points="788.312,139.343, 788.809,138.569, 789.182,139.635, 788.685,140.409" />
  <polygon fill="#000000" points="788.469,139.098, 788.927,138.906, 789.025,139.88, 788.567,140.072" />
  <polygon fill="#FFFFFF" points="788.617,139.036, 788.959,139.221, 788.877,139.942, 788.536,139.757" />
  <polygon fill="#000000" points="788.73,139.097, 788.932,139.459, 788.764,139.881, 788.563,139.519" />
  <polygon fill="#FFFFFF" points="788.619,139.377, 788.798,139.219, 788.875,139.601, 788.697,139.759" />
  <polygon fill="#000000" points="788.68,139.323, 788.824,139.35, 788.814,139.655, 788.67,139.628" />
  <polygon fill="#FFFFFF" points="788.731,139.332, 788.821,139.457, 788.763,139.646, 788.674,139.521" />
  <polygon fill="#000000" points="788.694,139.454, 788.763,139.377, 788.8,139.524, 788.731,139.601" />
  <polygon fill="#FFFFFF" points="788.719,139.426, 788.777,139.431, 788.775,139.552, 788.718,139.547" />
  <polygon fill="#000000" points="788.74,139.427, 788.776,139.476, 788.754,139.55, 788.718,139.502" />
  <polygon fill="#FFFFFF" points="788.727,139.474, 788.754,139.446, 788.768,139.504, 788.74,139.532" />
  <polygon fill="#000000" points="788.737,139.463, 788.759,139.468, 788.757,139.515, 788.735,139.51" />
  <polygon fill="#FFFFFF" points="788.746,139.465, 788.758,139.486, 788.749,139.513, 788.736,139.491" />
  <polygon fill="#000000" points="788.74,139.481, 788.751,139.474, 788.754,139.497, 788.744,139.504" />
  <polygon fill="#FFFFFF" points="788.744,139.478, 788.752,139.483, 788.75,139.5, 788.742,139.495" />
  <polygon fill="#000000" points="788.743,139.488, 788.748,139.48, 788.751,139.49, 788.747,139.498" />
  <polygon fill="#FFFFFF" points="788.745,139.485, 788.749,139.484, 788.749,139.493, 788.745,139.494" />
  <polygon fill="#000000" points="788.747,139.484, 788.749,139.488, 788.748,139.493, 788.745,139.49" />
  <polygon fill="#FFFFFF" points="788.746,139.488, 788.748,139.486, 788.749,139.49, 788.746,139.492" />
  <polygon fill="#000000" points="788.747,139.487, 788.748,139.488, 788.748,139.491, 788.746,139.49" />
  <polygon fill="#FFFFFF" points="788.746,139.489, 788.747,139.487, 788.748,139.489, 788.747,139.491" />
  <polygon fill="#000000" points="788.747,139.488, 788.748,139.488, 788.748,139.49, 788.747,139.49" />
  <polygon fill="#FFFFFF" points="788.747,139.489, 788.747,139.488, 788.748,139.489, 788.747,139.49" />
  <!-- Shape 5 -->
  <polygon fill="#000000" points="853.412,0, 1015.32,0, 1015.89,54.2134, 853.861,56.6594" />
  <polygon fill="#FFFFFF" points="882.232,0, 1015.42,9.64999, 987.046,54.6488, 853.781,46.574" />
  <polygon fill="#000000" points="905.94,1.7177, 1010.37,17.6598, 963.325,53.2115, 858.845,38.2838" />
  <polygon fill="#FFFFFF" points="924.528,4.55539, 1002,23.988, 944.727,50.5544, 867.228,31.7751" />
  <polygon fill="#000000" points="877.427,26.93, 938.318,8.01439, 991.802,28.7168, 930.933,47.2117" />
  <polygon fill="#FFFFFF" points="888.266,23.563, 947.838,11.6994, 980.968,32.0089, 921.409,43.6015" />
  <polygon fill="#000000" points="898.87,21.4513, 953.735,15.3145, 970.366,34.0724, 915.509,40.0347" />
  <polygon fill="#FFFFFF" points="908.636,20.3589, 956.695,18.6534, 960.602,35.1337, 912.547,36.7268" />
  <polygon fill="#000000" points="917.19,20.0553, 957.391,21.5869, 952.048,35.4172, 911.851,33.8133" />
  <polygon fill="#FFFFFF" points="924.346,20.328, 956.44,24.0487, 944.893,35.1317, 912.801,31.3644" />
  <polygon fill="#000000" points="930.059,20.9903, 954.384,26.0215, 939.181,34.4612, 914.856,29.3999" />
  <polygon fill="#FFFFFF" points="934.389,21.8858, 951.678,27.5237, 934.851,33.5603, 917.562,27.903" />
  <polygon fill="#000000" points="920.557,26.8319, 937.466,22.8894, 948.683,28.5982, 931.774,32.5533" />
  <polygon fill="#FFFFFF" points="923.567,26.1302, 939.463,23.9055, 945.673,29.3022, 929.777,31.5349" />
  <polygon fill="#000000" points="926.397,25.7342, 940.568,24.8662, 942.843,29.6996, 928.672,30.5728" />
  <polygon fill="#FFFFFF" points="928.919,25.5797, 940.973,25.7265, 940.321,29.8551, 928.267,29.7116" />
  <polygon fill="#000000" points="931.065,25.6058, 940.857,26.4614, 938.175,29.8295, 928.383,28.9761" />
  <polygon fill="#FFFFFF" points="932.808,25.7581, 940.38,27.0609, 936.432,29.6776, 928.86,28.3762" />
  <polygon fill="#000000" points="934.156,25.99, 939.677,27.5267, 935.084,29.446, 929.563,27.9102" />
  <polygon fill="#FFFFFF" points="930.38,27.5684, 935.138,26.2635, 938.86,27.8683, 934.102,29.1726" />
  <polygon fill="#000000" points="931.227,27.3361, 935.801,26.5492, 938.013,28.1005, 933.439,28.887" />
  <polygon fill="#FFFFFF" points="932.041,27.196, 936.194,26.8253, 937.199,28.2405, 933.045,28.611" />
  <polygon fill="#000000" points="932.781,27.13, 936.373,27.0772, 936.459,28.3064, 932.867,28.3591" />
  <polygon fill="#FFFFFF" points="933.42,27.1206, 936.389,27.296, 935.82,28.3158, 932.851,28.1403" />
  <polygon fill="#000000" points="933.948,27.1519, 936.287,27.4775, 935.291,28.2846, 932.953,27.9588" />
  <polygon fill="#FFFFFF" points="934.365,27.2098, 936.11,27.6212, 934.875,28.2266, 933.13,27.8152" />
  <polygon fill="#000000" points="933.35,27.7074, 934.675,27.2831, 935.89,27.729, 934.564,28.1534" />
  <polygon fill="#FFFFFF" points="933.586,27.6319, 934.892,27.3624, 935.654,27.8045, 934.348,28.074" />
  <polygon fill="#000000" points="933.818,27.5839, 935.027,27.4411, 935.422,27.8525, 934.213,27.9953" />
  <polygon fill="#FFFFFF" points="934.033,27.5585, 935.098,27.5143, 935.207,27.8779, 934.142,27.9221" />
  <polygon fill="#000000" points="934.223,27.5506, 935.117,27.579, 935.017,27.8858, 934.123,27.8574" />
  <polygon fill="#FFFFFF" points="934.382,27.5557, 935.099,27.6336, 934.858,27.8807, 934.141,27.8028" />
  <polygon fill="#000000" points="934.51,27.5696, 935.056,27.6776, 934.73,27.8668, 934.184,27.7588" />
  <polygon fill="#FFFFFF" points="934.607,27.5888, 934.998,27.7113, 934.633,27.8476, 934.242,27.7251" />
  <polygon fill="#000000" points="934.307,27.7008, 934.677,27.6106, 934.933,27.7356, 934.563,27.8258" />
  <polygon fill="#FFFFFF" points="934.373,27.6848, 934.722,27.6329, 934.867,27.7516, 934.518,27.8036" />
  <polygon fill="#000000" points="934.435,27.6755, 934.748,27.654, 934.805,27.7609, 934.492,27.7824" />
  <polygon fill="#FFFFFF" points="934.491,27.6717, 934.758,27.673, 934.749,27.7647, 934.482,27.7634" />
  <polygon fill="#000000" points="934.538,27.6719, 934.757,27.6893, 934.702,27.7645, 934.483,27.7471" />
  <polygon fill="#FFFFFF" points="934.577,27.675, 934.747,27.7027, 934.663,27.7614, 934.493,27.7337" />
  <polygon fill="#000000" points="934.607,27.68, 934.732,27.7132, 934.633,27.7564, 934.508,27.7233" />
  <polygon fill="#FFFFFF" points="934.526,27.7155, 934.63,27.6859, 934.714,27.7209, 934.61,27.7505" />
  <polygon fill="#000000" points="934.544,27.7103, 934.645,27.6921, 934.696,27.7261, 934.595,27.7443" />
  <polygon fill="#FFFFFF" points="934.562,27.707, 934.654,27.6982, 934.678,27.7294, 934.586,27.7383" />
  <polygon fill="#000000" points="934.578,27.7055, 934.658,27.7037, 934.662,27.731, 934.582,27.7327" />
  <polygon fill="#FFFFFF" points="934.593,27.7051, 934.659,27.7086, 934.647,27.7313, 934.581,27.7278" />
  <polygon fill="#000000" points="934.604,27.7058, 934.657,27.7126, 934.636,27.7307, 934.583,27.7238" />
  <polygon fill="#FFFFFF" points="934.614,27.707, 934.653,27.7158, 934.626,27.7294, 934.587,27.7206" />
  <polygon fill="#000000" points="934.592,27.7182, 934.621,27.7085, 934.648,27.7182, 934.619,27.7279" />
  <polygon fill="#FFFFFF" points="934.597,27.7165, 934.626,27.7103, 934.643,27.72, 934.614,27.7261" />
  <!-- Shape 6 -->
  <polygon fill="#000000" points="854.39,123.615, 1016.58,120.928, 1018.23,278.095, 855.618,278.724" />
  <polygon fill="#FFFFFF" points="878.801,123.211, 1016.83,144.581, 993.753,278.189, 855.433,255.38" />
  <polygon fill="#000000" points="899.574,126.427, 1013.36,164.689, 972.936,274.757, 858.95,235.488" />
  <polygon fill="#FFFFFF" points="916.698,132.185, 1007.27,181.254, 955.781,268.847, 865.064,219.075" />
  <polygon fill="#000000" points="930.33,139.57, 999.524,194.437, 942.128,261.356, 872.835,205.998" />
  <polygon fill="#FFFFFF" points="881.488,196, 940.744,147.828, 990.886,204.508, 931.699,253.025" />
  <polygon fill="#000000" points="890.406,188.75, 948.29,156.358, 981.978,211.81, 924.143,244.442" />
  <polygon fill="#FFFFFF" points="899.117,183.875, 953.36,164.704, 973.274,216.721, 919.065,236.061" />
  <polygon fill="#000000" points="907.281,180.99, 956.357,172.532, 965.116,219.632, 916.063,228.207" />
  <polygon fill="#FFFFFF" points="914.667,179.717, 957.675,179.621, 957.733,220.922, 914.741,221.101" />
  <polygon fill="#000000" points="921.14,179.703, 957.684,185.837, 951.263,220.949, 914.73,214.873" />
  <polygon fill="#FFFFFF" points="926.64,180.626, 956.718,191.121, 945.765,220.035, 915.695,209.579" />
  <polygon fill="#000000" points="931.166,182.205, 955.069,195.473, 941.239,218.461, 917.342,205.222" />
  <polygon fill="#FFFFFF" points="934.764,184.202, 952.988,198.932, 937.643,216.469, 919.423,201.758" />
  <polygon fill="#000000" points="921.731,199.116, 937.507,186.419, 950.678,201.572, 934.901,214.255" />
  <polygon fill="#FFFFFF" points="924.106,197.205, 939.489,188.699, 948.304,203.48, 932.919,211.976" />
  <polygon fill="#000000" points="926.421,195.925, 940.816,190.924, 945.988,204.759, 931.592,209.753" />
  <polygon fill="#FFFFFF" points="928.587,195.172, 941.594,193.006, 943.822,205.511, 930.814,207.672" />
  <polygon fill="#000000" points="930.545,194.846, 941.929,194.888, 941.864,205.836, 930.479,205.791" />
  <polygon fill="#FFFFFF" points="932.258,194.853, 941.92,196.536, 940.151,205.829, 930.489,204.144" />
  <polygon fill="#000000" points="933.712,195.106, 941.653,197.934, 938.697,205.575, 930.755,202.745" />
  <polygon fill="#FFFFFF" points="934.907,195.532, 941.208,199.084, 937.501,205.15, 931.2,201.596" />
  <polygon fill="#000000" points="935.856,196.066, 940.65,199.997, 936.553,204.615, 931.758,200.683" />
  <polygon fill="#FFFFFF" points="932.375,199.988, 936.577,196.658, 940.034,200.692, 935.831,204.023" />
  <polygon fill="#000000" points="933.007,199.487, 937.097,197.265, 939.401,201.193, 935.311,203.416" />
  <polygon fill="#FFFFFF" points="933.623,199.153, 937.444,197.856, 938.786,201.528, 934.964,202.824" />
  <polygon fill="#000000" points="934.198,198.957, 937.646,198.409, 938.211,201.723, 934.762,202.272" />
  <polygon fill="#FFFFFF" points="934.717,198.875, 937.731,198.908, 937.692,201.806, 934.678,201.773" />
  <polygon fill="#000000" points="935.17,198.88, 937.725,199.344, 937.238,201.801, 934.683,201.337" />
  <polygon fill="#FFFFFF" points="935.555,198.95, 937.652,199.713, 936.854,201.731, 934.757,200.967" />
  <polygon fill="#000000" points="935.871,199.065, 937.532,200.017, 936.538,201.616, 934.877,200.663" />
  <polygon fill="#FFFFFF" points="936.121,199.208, 937.382,200.258, 936.288,201.473, 935.026,200.423" />
  <polygon fill="#000000" points="935.191,200.24, 936.31,199.366, 937.217,200.441, 936.098,201.315" />
  <polygon fill="#FFFFFF" points="935.36,200.108, 936.447,199.528, 937.049,200.572, 935.962,201.153" />
  <polygon fill="#000000" points="935.523,200.021, 936.538,199.685, 936.885,200.659, 935.871,200.996" />
  <polygon fill="#FFFFFF" points="935.676,199.97, 936.59,199.832, 936.733,200.71, 935.819,200.849" />
  <polygon fill="#000000" points="935.813,199.95, 936.611,199.964, 936.595,200.731, 935.797,200.717" />
  <polygon fill="#FFFFFF" points="935.934,199.952, 936.609,200.079, 936.475,200.729, 935.8,200.601" />
  <polygon fill="#000000" points="936.035,199.971, 936.589,200.177, 936.373,200.71, 935.82,200.503" />
  <polygon fill="#FFFFFF" points="936.118,200.002, 936.556,200.257, 936.29,200.679, 935.852,200.423" />
  <polygon fill="#000000" points="936.184,200.04, 936.516,200.321, 936.224,200.64, 935.892,200.36" />
  <polygon fill="#FFFFFF" points="935.936,200.312, 936.234,200.082, 936.472,200.369, 936.174,200.598" />
  <polygon fill="#000000" points="935.981,200.277, 936.27,200.126, 936.427,200.403, 936.138,200.555" />
  <polygon fill="#FFFFFF" points="936.025,200.254, 936.294,200.167, 936.384,200.426, 936.115,200.513" />
  <polygon fill="#000000" points="936.065,200.241, 936.307,200.206, 936.343,200.439, 936.101,200.474" />
  <polygon fill="#FFFFFF" points="936.102,200.236, 936.313,200.241, 936.307,200.444, 936.096,200.439" />
  <polygon fill="#000000" points="936.133,200.237, 936.312,200.272, 936.275,200.444, 936.097,200.409" />
  <polygon fill="#FFFFFF" points="936.16,200.242, 936.306,200.298, 936.248,200.438, 936.102,200.383" />
  <polygon fill="#000000" points="936.182,200.25, 936.298,200.319, 936.226,200.43, 936.111,200.362" />
  <polygon fill="#FFFFFF" points="936.2,200.261, 936.287,200.336, 936.209,200.42, 936.122,200.345" />
  <!-- Shape 7 -->
  <polygon fill="#000000" points="853.861,56.6594, 929.432,55.5186, 928.832,122.382, 854.39,123.615" />
  <polygon fill="#FFFFFF" points="853.952,68.1758, 916.433,55.7148, 928.935,110.881, 867.194,123.403" />
  <polygon fill="#000000" points="856.229,77.6748, 905.687,57.8581, 926.785,101.393, 877.814,121.249" />
  <polygon fill="#FFFFFF" points="859.942,85.1696, 897.18,61.2666, 923.156,93.9046, 886.237,117.834" />
  <polygon fill="#000000" points="890.775,65.3779, 918.688,88.2909, 892.587,113.718, 864.465,90.7878" />
  <polygon fill="#FFFFFF" points="886.25,69.7484, 913.887,84.3498, 897.076,109.345, 869.302,94.7318" />
  <polygon fill="#000000" points="883.335,74.0455, 909.133,81.8384, 899.968,105.045, 874.079,97.2452" />
  <polygon fill="#FFFFFF" points="881.743,78.0359, 904.696,80.498, 901.544,101.054, 878.532,98.5868" />
  <polygon fill="#000000" points="881.19,81.5706, 900.748,80.0745, 902.086,97.5182, 882.49,99.0112" />
  <polygon fill="#FFFFFF" points="881.414,84.5704, 897.384,80.3319, 901.856,94.5179, 885.86,98.7544" />
  <polygon fill="#000000" points="882.179,87.0101, 894.637,81.0609, 901.087,92.0779, 888.612,98.0257" />
  <polygon fill="#FFFFFF" points="883.285,88.9047, 892.494,82.0841, 899.977,90.183, 890.757,97.0027" />
  <polygon fill="#000000" points="890.91,83.2573, 898.69,88.79, 892.343,95.8297, 884.57,90.2976" />
  <polygon fill="#FFFFFF" points="889.82,84.4682, 897.352,87.8384, 893.435,94.6189, 885.907,91.2491" />
  <polygon fill="#000000" points="889.147,85.6345, 896.057,87.2587, 894.109,93.4526, 887.202,91.8287" />
  <polygon fill="#FFFFFF" points="888.812,86.6999, 894.868,86.9793, 894.444,92.3873, 888.39,92.108" />
  <polygon fill="#000000" points="888.74,87.6301, 893.827,86.9313, 894.517,91.4571, 889.431,92.156" />
  <polygon fill="#FFFFFF" points="888.859,88.4086, 892.952,87.0515, 894.398,90.6787, 890.306,92.0358" />
  <polygon fill="#000000" points="889.108,89.0325, 892.248,87.2849, 894.149,90.0548, 891.01,91.8024" />
  <polygon fill="#FFFFFF" points="889.435,89.5089, 891.708,87.5855, 893.822,89.5784, 891.55,91.5018" />
  <polygon fill="#000000" points="891.317,87.9163, 893.458,89.2356, 891.941,91.171, 889.799,89.8517" />
  <polygon fill="#FFFFFF" points="891.056,88.2492, 893.09,89.0087, 892.202,90.8381, 890.167,90.0786" />
  <polygon fill="#000000" points="890.903,88.5638, 892.74,88.878, 892.354,90.5234, 890.517,90.2092" />
  <polygon fill="#FFFFFF" points="890.836,88.8469, 892.424,88.824, 892.421,90.2404, 890.833,90.2633" />
  <polygon fill="#000000" points="890.836,89.0905, 892.151,88.8279, 892.421,89.9968, 891.106,90.2593" />
  <polygon fill="#FFFFFF" points="890.882,89.2915, 891.925,88.8731, 892.375,89.7957, 891.332,90.2142" />
  <polygon fill="#000000" points="890.96,89.4502, 891.745,88.9451, 892.297,89.6371, 891.512,90.1422" />
  <polygon fill="#FFFFFF" points="891.61,89.0319, 892.203,89.518, 891.647,90.0553, 891.055,89.5692" />
  <polygon fill="#000000" points="891.515,89.1244, 892.101,89.4344, 891.742,89.9629, 891.156,89.6528" />
  <polygon fill="#FFFFFF" points="891.453,89.2153, 892,89.3811, 891.804,89.872, 891.257,89.7062" />
  <polygon fill="#000000" points="891.419,89.2997, 891.906,89.3526, 891.838,89.7876, 891.351,89.7347" />
  <polygon fill="#FFFFFF" points="891.408,89.3745, 891.822,89.3435, 891.849,89.7128, 891.435,89.7438" />
  <polygon fill="#000000" points="891.412,89.438, 891.751,89.3488, 891.845,89.6492, 891.506,89.7385" />
  <polygon fill="#FFFFFF" points="891.429,89.4897, 891.693,89.3642, 891.829,89.5976, 891.564,89.7231" />
  <polygon fill="#000000" points="891.452,89.5299, 891.647,89.3858, 891.805,89.5574, 891.61,89.7015" />
  <polygon fill="#FFFFFF" points="891.614,89.4105, 891.778,89.5279, 891.643,89.6767, 891.479,89.5594" />
  <polygon fill="#000000" points="891.591,89.4361, 891.75,89.5077, 891.667,89.6511, 891.507,89.5796" />
  <polygon fill="#FFFFFF" points="891.576,89.4608, 891.722,89.4954, 891.681,89.6265, 891.535,89.5919" />
  <polygon fill="#000000" points="891.569,89.4834, 891.697,89.4894, 891.688,89.6039, 891.56,89.5978" />
  <polygon fill="#FFFFFF" points="891.567,89.503, 891.675,89.4884, 891.69,89.5842, 891.582,89.5989" />
  <polygon fill="#000000" points="891.57,89.5195, 891.657,89.4909, 891.687,89.5677, 891.6,89.5964" />
  <polygon fill="#FFFFFF" points="891.575,89.5327, 891.642,89.4958, 891.682,89.5545, 891.615,89.5914" />
  <polygon fill="#000000" points="891.582,89.5428, 891.63,89.5022, 891.675,89.5444, 891.627,89.5851" />
  <polygon fill="#FFFFFF" points="891.622,89.5092, 891.667,89.5372, 891.635,89.5781, 891.59,89.5501" />
  <polygon fill="#000000" points="891.616,89.5162, 891.66,89.5324, 891.641,89.5711, 891.598,89.5549" />
  <polygon fill="#FFFFFF" points="891.613,89.5229, 891.652,89.5296, 891.644,89.5644, 891.605,89.5577" />
  <polygon fill="#000000" points="891.612,89.5289, 891.645,89.5284, 891.645,89.5584, 891.612,89.5588" />
  <polygon fill="#FFFFFF" points="891.612,89.534, 891.64,89.5285, 891.645,89.5533, 891.617,89.5588" />
  <polygon fill="#000000" points="891.613,89.5383, 891.635,89.5294, 891.644,89.549, 891.622,89.5578" />
  <polygon fill="#FFFFFF" points="891.614,89.5416, 891.631,89.531, 891.643,89.5456, 891.626,89.5563" />
  <!-- Shape 8 -->
  <polygon fill="#000000" points="972.375,54.8703, 1015.89,54.2134, 1016.58,120.928, 972.709,121.655" />
  <polygon fill="#FFFFFF" points="983.732,54.6988, 1016.07,71.6258, 1005.13,121.117, 972.622,104.224" />
  <polygon fill="#000000" points="992.172,59.1168, 1013.21,84.5431, 996.647,116.708, 975.521,91.2978" />
  <polygon fill="#FFFFFF" points="979.867,82.8986, 997.664,65.7531, 1008.89,92.9382, 991.133,110.076" />
  <polygon fill="#000000" points="984.512,78.4236, 1000.59,72.8484, 1004.26,97.4112, 988.193,102.983" />
  <polygon fill="#FFFFFF" points="988.709,76.9685, 1001.55,79.2593, 1000.06,98.8653, 987.232,96.5728" />
  <polygon fill="#000000" points="992.061,77.5664, 1001.16,84.3764, 996.714,98.267, 987.618,91.4561" />
  <polygon fill="#FFFFFF" points="988.777,87.8309, 994.436,79.3438, 1000,88.0019, 994.34,96.4893" />
  <polygon fill="#000000" points="990.254,85.6157, 995.888,81.6036, 998.523,90.2171, 992.888,94.2295" />
  <polygon fill="#FFFFFF" points="991.725,84.5686, 996.576,83.8517, 997.053,91.2643, 992.201,91.9813" />
  <polygon fill="#000000" points="992.991,84.3815, 996.7,85.7864, 995.786,91.4515, 992.076,90.0466" />
  <polygon fill="#FFFFFF" points="993.959,84.7481, 996.462,87.265, 994.818,91.0848, 992.315,88.568" />
  <polygon fill="#000000" points="992.744,87.571, 994.612,85.405, 996.033,88.2619, 994.165,90.4279" />
  <polygon fill="#FFFFFF" points="993.232,87.0057, 994.983,86.1507, 995.545,88.8273, 993.794,89.6822" />
  <polygon fill="#000000" points="993.689,86.7825, 995.13,86.8493, 995.088,89.0504, 993.647,88.9837" />
  <polygon fill="#FFFFFF" points="994.065,86.7999, 995.119,87.4238, 994.712,89.033, 993.658,88.4092" />
  <polygon fill="#000000" points="994.34,86.9628, 995.013,87.8438, 994.437,88.8702, 993.764,87.9892" />
  <polygon fill="#FFFFFF" points="993.915,87.7213, 994.516,87.1927, 994.862,88.1117, 994.261,88.6402" />
  <polygon fill="#000000" points="994.071,87.5833, 994.606,87.4326, 994.706,88.2496, 994.171,88.4004" />
  <polygon fill="#FFFFFF" points="994.211,87.544, 994.632,87.6458, 994.566,88.289, 994.145,88.1871" />
  <polygon fill="#000000" points="994.321,87.5705, 994.615,87.8137, 994.456,88.2624, 994.162,88.0193" />
  <polygon fill="#FFFFFF" points="994.204,87.9021, 994.398,87.634, 994.573,87.9308, 994.379,88.1989" />
  <polygon fill="#000000" points="994.254,87.8322, 994.444,87.7115, 994.523,88.0008, 994.334,88.1215" />
  <polygon fill="#FFFFFF" points="994.304,87.8007, 994.464,87.787, 994.473,88.0323, 994.313,88.046" />
  <polygon fill="#000000" points="994.346,87.7971, 994.467,87.851, 994.431,88.0358, 994.31,87.9819" />
  <polygon fill="#FFFFFF" points="994.377,87.8112, 994.457,87.8992, 994.4,88.0218, 994.32,87.9337" />
  <polygon fill="#000000" points="994.335,87.9017, 994.398,87.8341, 994.442,87.9312, 994.379,87.9988" />
  <polygon fill="#FFFFFF" points="994.351,87.8841, 994.41,87.8595, 994.426,87.9489, 994.367,87.9734" />
  <polygon fill="#000000" points="994.366,87.8777, 994.414,87.8828, 994.411,87.9553, 994.363,87.9501" />
  <polygon fill="#FFFFFF" points="994.379,87.879, 994.413,87.9017, 994.398,87.9539, 994.364,87.9312" />
  <polygon fill="#000000" points="994.388,87.8849, 994.409,87.9153, 994.389,87.948, 994.368,87.9176" />
  <polygon fill="#FFFFFF" points="994.373,87.9091, 994.393,87.8929, 994.404,87.9239, 994.384,87.9401" />
  <polygon fill="#000000" points="994.378,87.9048, 994.396,87.901, 994.399,87.9281, 994.381,87.932" />
  <polygon fill="#FFFFFF" points="994.383,87.9038, 994.397,87.908, 994.394,87.9291, 994.38,87.9249" />
  <polygon fill="#000000" points="994.387,87.9049, 994.396,87.9135, 994.39,87.928, 994.381,87.9194" />
  <polygon fill="#FFFFFF" points="994.382,87.9156, 994.389,87.9072, 994.395,87.9173, 994.388,87.9258" />
  <polygon fill="#000000" points="994.384,87.9134, 994.391,87.9098, 994.393,87.9195, 994.387,87.9231" />
  <polygon fill="#FFFFFF" points="994.386,87.9125, 994.391,87.9124, 994.391,87.9205, 994.386,87.9206" />
  <polygon fill="#000000" points="994.387,87.9124, 994.391,87.9145, 994.39,87.9205, 994.386,87.9185" />
  <polygon fill="#FFFFFF" points="994.388,87.913, 994.391,87.916, 994.389,87.92, 994.386,87.9169" />
  <polygon fill="#000000" points="994.387,87.9159, 994.389,87.9138, 994.39,87.9171, 994.388,87.9192" />
  <polygon fill="#FFFFFF" points="994.387,87.9153, 994.389,87.9146, 994.39,87.9176, 994.388,87.9183" />
  <polygon fill="#000000" points="994.388,87.9151, 994.389,87.9154, 994.389,87.9178, 994.388,87.9175" />
  <polygon fill="#FFFFFF" points="994.388,87.9152, 994.389,87.916, 994.389,87.9177, 994.388,87.9169" />
  <polygon fill="#000000" points="994.389,87.9154, 994.388,87.9165, 994.389,87.9165, 994.389,87.9175" />
  <polygon fill="#FFFFFF" points="994.388,87.9157, 994.388,87.9165, 994.389,87.9167, 994.389,87.917" />
  <polygon fill="#000000" points="994.388,87.9159, 994.388,87.9165, 994.388,87.9166, 994.389,87.9168" />
  <polygon fill="#FFFFFF" points="994.389,87.9167, 994.388,87.9166, 994.389,87.9166, 994.388,87.9161" />
  <polygon fill="#000000" points="994.388,87.9162, 994.389,87.9164, 994.389,87.9166, 994.389,87.9166" />
  <polygon fill="#FFFFFF" points="994.388,87.9163, 994.389,87.9165, 994.389,87.9165, 994.389,87.9166" />
  <!-- Shape 9 -->
  <polygon fill="#000000" points="929.432,55.5186, 972.375,54.8703, 972.498,79.3611, 929.209,80.2777" />
  <polygon fill="#FFFFFF" points="938.793,55.3772, 972.402,60.2093, 963.061,79.5609, 929.258,74.8802" />
  <polygon fill="#000000" points="946.12,56.4306, 970.366,64.4279, 955.692,78.5405, 931.337,70.6286" />
  <polygon fill="#FFFFFF" points="951.405,58.174, 967.167,67.5045, 950.382,76.8157, 934.559,67.5334" />
  <polygon fill="#000000" points="938.232,65.4931, 954.841,60.2081, 963.508,69.5343, 946.933,74.7922" />
  <polygon fill="#FFFFFF" points="941.853,64.3409, 956.731,62.2412, 959.894,70.6805, 945.036,72.765" />
  <polygon fill="#000000" points="945.096,63.8832, 957.42,64.081, 956.655,71.1349, 944.342,70.9285" />
  <polygon fill="#FFFFFF" points="947.783,63.9263, 957.254,65.6187, 953.971,71.0899, 944.506,69.3926" />
  <polygon fill="#000000" points="949.847,64.2953, 956.538,66.8115, 951.908,70.7199, 945.221,68.201" />
  <polygon fill="#FFFFFF" points="946.229,67.3495, 951.306,64.8438, 955.529,67.6635, 950.45,70.1708" />
  <polygon fill="#000000" points="947.336,66.8033, 952.226,65.4585, 954.421,68.2101, 949.53,69.5558" />
  <polygon fill="#FFFFFF" points="948.402,66.5101, 952.705,66.0583, 953.355,68.5035, 949.052,68.9557" />
  <polygon fill="#000000" points="949.34,66.4116, 952.847,66.5914, 952.417,68.602, 948.91,68.4226" />
  <polygon fill="#FFFFFF" points="950.105,66.4508, 952.753,67.0297, 951.652,68.5629, 949.004,67.9842" />
  <polygon fill="#000000" points="950.682,66.577, 952.513,67.3639, 951.075,68.4368, 949.244,67.6499" />
  <polygon fill="#FFFFFF" points="949.557,67.416, 951.081,66.7486, 952.2,67.5978, 950.676,68.2652" />
  <polygon fill="#000000" points="949.889,67.2705, 951.325,66.9337, 951.867,67.7433, 950.432,68.0801" />
  <polygon fill="#FFFFFF" points="950.202,67.1971, 951.443,67.1102, 951.554,67.8167, 950.314,67.9036" />
  <polygon fill="#000000" points="950.473,67.1781, 951.467,67.2642, 951.284,67.8357, 950.289,67.7496" />
  <polygon fill="#FFFFFF" points="950.69,67.1969, 951.427,67.3888, 951.067,67.8169, 950.329,67.625" />
  <polygon fill="#000000" points="950.851,67.2387, 951.349,67.4821, 950.906,67.7751, 950.408,67.5317" />
  <polygon fill="#FFFFFF" points="950.504,67.4678, 950.959,67.2918, 951.252,67.546, 950.798,67.722" />
  <polygon fill="#000000" points="950.604,67.4295, 951.023,67.3472, 951.153,67.5844, 950.734,67.6666" />
  <polygon fill="#FFFFFF" points="950.695,67.4115, 951.051,67.3989, 951.062,67.6023, 950.705,67.6149" />
  <polygon fill="#000000" points="950.773,67.4088, 951.054,67.4432, 950.984,67.605, 950.703,67.5706" />
  <polygon fill="#FFFFFF" points="950.834,67.4163, 951.039,67.4785, 950.923,67.5975, 950.718,67.5353" />
  <polygon fill="#000000" points="950.879,67.4299, 951.013,67.5045, 950.878,67.584, 950.744,67.5094" />
  <polygon fill="#FFFFFF" points="950.773,67.492, 950.908,67.4461, 950.984,67.5218, 950.849,67.5677" />
  <polygon fill="#000000" points="950.802,67.482, 950.925,67.4626, 950.954,67.5318, 950.832,67.5512" />
  <polygon fill="#FFFFFF" points="950.829,67.4778, 950.931,67.4777, 950.928,67.536, 950.826,67.5361" />
  <polygon fill="#000000" points="950.851,67.4778, 950.93,67.4904, 950.906,67.536, 950.827,67.5234" />
  <polygon fill="#FFFFFF" points="950.869,67.4805, 950.925,67.5004, 950.888,67.5333, 950.832,67.5135" />
  <polygon fill="#000000" points="950.84,67.5063, 950.881,67.4848, 950.917,67.5075, 950.876,67.529" />
  <polygon fill="#FFFFFF" points="950.849,67.5016, 950.889,67.4898, 950.908,67.5122, 950.868,67.524" />
  <polygon fill="#000000" points="950.858,67.499, 950.893,67.4947, 950.899,67.5148, 950.864,67.5191" />
  <polygon fill="#FFFFFF" points="950.865,67.4981, 950.894,67.4991, 950.892,67.5157, 950.863,67.5147" />
  <polygon fill="#000000" points="950.872,67.4983, 950.894,67.5027, 950.885,67.5155, 950.863,67.5111" />
  <polygon fill="#FFFFFF" points="950.876,67.4993, 950.892,67.5055, 950.88,67.5146, 950.865,67.5083" />
  <polygon fill="#000000" points="950.867,67.5063, 950.88,67.5006, 950.889,67.5075, 950.877,67.5132" />
  <polygon fill="#FFFFFF" points="950.87,67.5051, 950.882,67.5021, 950.887,67.5087, 950.875,67.5117" />
  <polygon fill="#000000" points="950.873,67.5044, 950.883,67.5035, 950.884,67.5094, 950.874,67.5103" />
  <polygon fill="#FFFFFF" points="950.875,67.5042, 950.883,67.5048, 950.882,67.5096, 950.874,67.509" />
  <polygon fill="#000000" points="950.877,67.5044, 950.883,67.5059, 950.88,67.5094, 950.874,67.508" />
  <polygon fill="#FFFFFF" points="950.878,67.5047, 950.882,67.5066, 950.879,67.5091, 950.875,67.5072" />
  <polygon fill="#000000" points="950.875,67.5066, 950.879,67.5051, 950.882,67.5072, 950.878,67.5087" />
  <polygon fill="#FFFFFF" points="950.876,67.5063, 950.88,67.5056, 950.881,67.5075, 950.877,67.5082" />
  <polygon fill="#000000" points="950.877,67.5061, 950.88,67.506, 950.88,67.5077, 950.877,67.5078" />
  <polygon fill="#FFFFFF" points="950.878,67.5061, 950.88,67.5064, 950.879,67.5077, 950.877,67.5075" />
  <polygon fill="#000000" points="950.878,67.5062, 950.88,67.5066, 950.879,67.5076, 950.877,67.5072" />
  <polygon fill="#FFFFFF" points="950.878,67.5063, 950.88,67.5069, 950.878,67.5075, 950.877,67.5069" />
  <!-- Shape 10 -->
  <polygon fill="#000000" points="929.209,80.2777, 972.498,79.3611, 972.709,121.655, 928.832,122.382" />
  <polygon fill="#FFFFFF" points="939.274,80.0646, 972.547,89.1943, 962.507,121.824, 928.919,112.592" />
  <polygon fill="#000000" points="947.01,82.1872, 970.213,96.7806, 954.698,119.677, 931.327,105.03" />
  <polygon fill="#FFFFFF" points="934.973,99.7188, 952.404,85.5802, 966.605,102.104, 949.264,116.272" />
  <polygon fill="#000000" points="939.026,96.4316, 955.706,89.422, 962.574,105.398, 945.942,112.423" />
  <polygon fill="#FFFFFF" points="942.904,94.8019, 957.303,93.1365, 958.707,107.031, 944.334,108.705" />
  <polygon fill="#000000" points="946.252,94.4147, 957.629,96.367, 955.365,107.421, 944.001,105.473" />
  <polygon fill="#FFFFFF" points="948.897,94.8686, 957.103,98.937, 952.723,106.968, 944.525,102.902" />
  <polygon fill="#000000" points="950.805,95.8145, 956.084,100.804, 950.817,106.022, 945.541,101.034" />
  <polygon fill="#FFFFFF" points="946.765,99.8204, 952.032,96.9746, 954.86,102.017, 949.59,104.863" />
  <polygon fill="#000000" points="947.99,99.1588, 952.69,98.147, 953.635,102.679, 948.933,103.69" />
  <polygon fill="#FFFFFF" points="949.082,98.9235, 952.909,99.2007, 952.542,102.914, 948.714,102.637" />
  <polygon fill="#000000" points="949.972,98.988, 952.824,100.064, 951.652,102.85, 948.8,101.773" />
  <polygon fill="#FFFFFF" points="950.635,99.2382, 952.551,100.712, 950.989,102.599, 949.072,101.126" />
  <polygon fill="#000000" points="949.436,100.687, 951.081,99.5807, 952.188,101.151, 950.543,102.257" />
  <polygon fill="#FFFFFF" points="949.818,100.43, 951.338,99.9457, 951.806,101.408, 950.286,101.892" />
  <polygon fill="#000000" points="950.172,100.317, 951.447,100.286, 951.452,101.52, 950.177,101.552" />
  <polygon fill="#FFFFFF" points="950.468,100.31, 951.448,100.573, 951.156,101.528, 950.176,101.265" />
  <polygon fill="#000000" points="950.696,100.371, 951.38,100.795, 950.928,101.466, 950.244,101.043" />
  <polygon fill="#FFFFFF" points="950.349,100.887, 950.855,100.469, 951.275,100.951, 950.769,101.368" />
  <polygon fill="#000000" points="950.466,100.79, 950.953,100.581, 951.157,101.048, 950.671,101.256" />
  <polygon fill="#FFFFFF" points="950.579,100.741, 951,100.69, 951.044,101.096, 950.623,101.148" />
  <polygon fill="#000000" points="950.677,100.729, 951.01,100.784, 950.946,101.108, 950.613,101.053" />
  <polygon fill="#FFFFFF" points="950.755,100.742, 950.996,100.86, 950.869,101.095, 950.628,100.978" />
  <polygon fill="#000000" points="950.811,100.769, 950.966,100.914, 950.813,101.068, 950.658,100.923" />
  <polygon fill="#FFFFFF" points="950.693,100.887, 950.847,100.803, 950.93,100.95, 950.777,101.034" />
  <polygon fill="#000000" points="950.729,100.868, 950.866,100.837, 950.895,100.97, 950.757,101" />
  <polygon fill="#FFFFFF" points="950.761,100.861, 950.873,100.868, 950.863,100.977, 950.751,100.969" />
  <polygon fill="#000000" points="950.787,100.862, 950.871,100.893, 950.837,100.975, 950.753,100.944" />
  <polygon fill="#FFFFFF" points="950.806,100.87, 950.863,100.912, 950.817,100.968, 950.761,100.925" />
  <polygon fill="#000000" points="950.772,100.912, 950.819,100.88, 950.852,100.925, 950.804,100.958" />
  <polygon fill="#FFFFFF" points="950.783,100.905, 950.827,100.89, 950.841,100.933, 950.797,100.947" />
  <polygon fill="#000000" points="950.793,100.901, 950.83,100.9, 950.831,100.936, 950.793,100.937" />
  <polygon fill="#FFFFFF" points="950.802,100.901, 950.83,100.908, 950.822,100.936, 950.793,100.929" />
  <polygon fill="#000000" points="950.808,100.903, 950.828,100.915, 950.815,100.935, 950.795,100.922" />
  <polygon fill="#FFFFFF" points="950.798,100.918, 950.813,100.906, 950.825,100.92, 950.811,100.932" />
  <polygon fill="#000000" points="950.802,100.915, 950.816,100.909, 950.822,100.922, 950.808,100.929" />
  <polygon fill="#FFFFFF" points="950.805,100.914, 950.817,100.912, 950.819,100.924, 950.806,100.925" />
  <polygon fill="#000000" points="950.808,100.913, 950.818,100.915, 950.816,100.924, 950.806,100.923" />
  <polygon fill="#FFFFFF" points="950.81,100.914, 950.817,100.917, 950.814,100.924, 950.806,100.92" />
  <polygon fill="#000000" points="950.812,100.914, 950.816,100.919, 950.812,100.923, 950.807,100.919" />
  <polygon fill="#FFFFFF" points="950.808,100.918, 950.813,100.915, 950.815,100.92, 950.811,100.922" />
  <polygon fill="#000000" points="950.809,100.917, 950.813,100.916, 950.814,100.92, 950.81,100.921" />
  <polygon fill="#FFFFFF" points="950.81,100.917, 950.814,100.917, 950.813,100.92, 950.81,100.92" />
  <polygon fill="#000000" points="950.811,100.917, 950.814,100.918, 950.813,100.92, 950.81,100.919" />
  <polygon fill="#FFFFFF" points="950.812,100.917, 950.813,100.919, 950.812,100.92, 950.81,100.919" />
</svg>
