<?xml version="1.0" standalone="no"?>
<!DOCTYPE svg PUBLIC "-//W3C//DTD SVG 1.1//EN" "http://www.w3.org/Graphics/SVG/1.1/DTD/svg11.dtd">
<svg viewBox="0, 0, 1500, 600" xmlns="http://www.w3.org/2000/svg" version="1.1">
  <!-- Shape 1 -->
  <polygon fill="#000000" points="0,0, 311.79,0, 428.384,600, 0,600" />
  <polygon fill="#FFFFFF" points="27.5934,0, 322.109,53.1, 390.472,600, 0,546.9" />
  <polygon fill="#000000" points="54.792,4.90379, 328.422,103.606, 354.412,595.096, 2.54826,496.394" />
  <polygon fill="#FFFFFF" points="81.1152,14.399, 330.923,150.888, 320.563,585.601, 7.5741,449.112" />
  <polygon fill="#000000" points="106.108,28.0546, 329.886,194.381, 289.248,571.945, 14.9319,405.619" />
  <polygon fill="#FFFFFF" points="129.359,45.3359, 325.664,233.61, 260.747,554.664, 24.4051,366.39" />
  <polygon fill="#000000" points="150.511,65.6224, 318.669,268.203, 235.281,534.378, 35.7139,331.797" />
  <polygon fill="#FFFFFF" points="169.277,88.2304, 309.363,297.908, 213.009,511.77, 48.5252,302.092" />
  <polygon fill="#000000" points="62.466,277.401, 185.45,112.438, 298.239,322.599, 194.02,487.562" />
  <polygon fill="#FFFFFF" points="77.138,257.721, 198.906,137.51, 285.806,342.279, 178.325,462.49" />
  <polygon fill="#000000" points="92.1337,242.917, 209.608,162.727, 272.569,357.083, 165.864,437.273" />
  <polygon fill="#FFFFFF" points="107.053,232.733, 217.604,187.41, 259.018,367.267, 156.5,412.59" />
  <!-- Shape 2 -->
  <polygon fill="#000000" points="1164.63,0, 1500,0, 1500,600, 902.62,600" />
  <polygon fill="#FFFFFF" points="1141.97,51.9, 1470.99,0, 1500,548.1, 954.293,600" />
  <polygon fill="#000000" points="1125.22,100.818, 1441.62,4.63207, 1497.41,499.182, 1003,595.368" />
  <polygon fill="#FFFFFF" points="1113.97,146.317, 1412.52,13.4812, 1492.28,453.683, 1048.48,586.519" />
  <polygon fill="#000000" points="1107.77,188.026, 1384.23,26.0673, 1484.72,411.974, 1090.53,573.933" />
  <polygon fill="#FFFFFF" points="1106.09,225.652, 1357.27,41.8583, 1474.92,374.348, 1128.97,558.142" />
  <polygon fill="#000000" points="1108.38,258.984, 1332.09,60.2835, 1463.13,341.016, 1163.65,539.716" />
  <polygon fill="#FFFFFF" points="1114.07,287.899, 1309.05,80.7497, 1449.63,312.101, 1194.5,519.25" />
  <polygon fill="#000000" points="1288.43,102.656, 1434.77,287.635, 1221.48,497.344, 1122.58,312.365" />
  <polygon fill="#FFFFFF" points="1270.44,125.409, 1418.89,267.565, 1244.62,474.591, 1133.31,332.435" />
  <!-- Shape 3 -->
  <polygon fill="#FFFFFF" points="405.993,484.771, 992.62,393.9, 902.62,600, 428.384,600" />
  <polygon fill="#000000" points="457.323,476.82, 984.745,411.934, 861.124,600, 426.425,589.917" />
  <polygon fill="#FFFFFF" points="505.951,470.837, 973.347,429.273, 821.045,599.07, 429.274,579.49" />
  <polygon fill="#000000" points="551.242,466.81, 958.589,445.727, 783.083,597.173, 436.704,568.961" />
  <polygon fill="#FFFFFF" points="592.628,464.668, 940.758,461.114, 747.89,594.307, 448.341,558.583" />
  <polygon fill="#000000" points="629.634,464.29, 920.256,475.272, 716.048,590.509, 463.679,548.6" />
  <polygon fill="#FFFFFF" points="661.893,465.509, 897.589,488.063, 688.035,585.857, 482.1,539.241" />
  <polygon fill="#000000" points="689.163,468.119, 873.344,499.378, 664.209,580.464, 502.902,530.71" />
  <polygon fill="#FFFFFF" points="711.339,471.882, 848.164,509.141, 644.787,574.474, 525.328,523.174" />
  <polygon fill="#000000" points="548.598,516.758, 728.455,476.543, 822.721,517.314, 629.843,568.056" />
  <polygon fill="#FFFFFF" points="571.943,511.538, 740.691,481.835, 797.686,523.9, 619.297,561.397" />
  <polygon fill="#000000" points="594.64,507.543, 748.357,487.493, 773.692,528.944, 612.928,554.691" />
  <polygon fill="#FFFFFF" points="616.037,504.752, 751.884,493.263, 751.314,532.528, 610.382,548.128" />
  <polygon fill="#000000" points="635.585,503.099, 751.802,498.913, 731.034,534.773, 611.196,541.886" />
  <polygon fill="#FFFFFF" points="652.855,502.477, 748.716,504.242, 713.226,535.83, 614.82,536.123" />
  <polygon fill="#000000" points="667.551,502.747, 743.275,509.084, 698.14,535.875, 620.651,530.965" />
  <polygon fill="#FFFFFF" points="679.515,503.749, 736.144,513.317, 685.897,535.099, 628.061,526.506" />
  <polygon fill="#000000" points="688.729,505.305, 727.969,516.861, 676.487,533.701, 636.433,522.804" />
  <polygon fill="#FFFFFF" points="695.297,507.24, 719.351,519.68, 669.782,531.877, 645.187,519.874" />
  <!-- Shape 4 -->
  <polygon fill="#FFFFFF" points="311.79,0, 690.393,0, 365.961,278.764" />
  <polygon fill="#000000" points="315.853,20.9073, 661.998,0, 390.293,257.857" />
  <polygon fill="#FFFFFF" points="321.853,40.0055, 634.099,1.68513, 412.193,237.074" />
  <polygon fill="#000000" points="329.64,56.9927, 607.183,4.98834, 431.321,216.783" />
  <polygon fill="#FFFFFF" points="338.975,71.6615, 581.705,9.76235, 447.465,197.34" />
  <polygon fill="#000000" points="349.542,83.9026, 558.063,15.7913, 460.54,179.07" />
  <polygon fill="#FFFFFF" points="536.585,22.8068, 470.585,162.253, 360.974,93.7049" />
  <polygon fill="#000000" points="517.514,30.5063, 477.752,147.109, 372.878,101.149" />
  <polygon fill="#FFFFFF" points="500.996,38.5737, 482.293,133.793, 384.855,106.398" />
  <polygon fill="#000000" points="487.083,46.6991, 484.534,122.386, 396.528,109.68" />
  <polygon fill="#FFFFFF" points="475.727,54.5968, 484.853,112.894, 407.564,111.273" />
  <polygon fill="#000000" points="466.798,62.0214, 483.658,105.257, 417.689,111.485" />
  <polygon fill="#FFFFFF" points="460.089,68.7782, 481.355,99.3514, 426.7,110.635" />
  <!-- Shape 5 -->
  <polygon fill="#000000" points="830.568,0, 1164.63,0, 992.62,393.9, 885.492,410.494" />
  <polygon fill="#FFFFFF" points="872.993,0, 1142.78,50.0253, 979.015,396.007, 878.517,358.362" />
  <polygon fill="#000000" points="908.849,6.64836, 1121.02,96.0063, 965.659,391.004, 877.783,310.735" />
  <polygon fill="#FFFFFF" points="938.298,19.0512, 1099.45,136.952, 953.462,379.863, 882.095,268.528" />
  <polygon fill="#000000" points="961.617,36.1115, 1078.33,172.101, 943.135,363.753, 890.227,232.429" />
  <polygon fill="#FFFFFF" points="979.194,56.5915, 1057.97,200.964, 935.167,343.975, 900.979,202.863" />
  <polygon fill="#000000" points="913.219,179.972, 991.522,79.1858, 1038.75,223.345, 929.817,321.891" />
  <polygon fill="#FFFFFF" points="925.936,163.604, 999.192,102.597, 1021.06,239.349, 927.121,298.844" />
  <polygon fill="#000000" points="938.265,153.337, 1002.87,125.613, 1005.25,249.362, 926.922,276.083" />
  <polygon fill="#FFFFFF" points="949.52,148.507, 1003.29,147.17, 991.605,254.017, 928.898,254.7" />
  <polygon fill="#000000" points="959.203,148.266, 1001.18,166.413, 980.312,254.14, 932.612,235.575" />
  <polygon fill="#FFFFFF" points="967.011,151.642, 997.301,182.73, 971.439,250.687, 937.558,219.336" />
  <polygon fill="#000000" points="972.824,157.607, 992.338,195.771, 964.937,244.671, 943.21,206.345" />
  <polygon fill="#FFFFFF" points="949.067,196.705, 976.684,165.156, 986.918,205.443, 960.64,237.09" />
  <polygon fill="#000000" points="954.693,190.278, 978.769,173.363, 981.565,211.89, 958.282,228.863" />
  <polygon fill="#FFFFFF" points="959.739,186.733, 979.355,181.438, 976.685,215.447, 957.53,220.776" />
  <!-- Shape 6 -->
  <polygon fill="#FFFFFF" points="365.961,278.764, 462.093,196.164, 700.042,439.221, 405.993,484.771" />
  <polygon fill="#000000" points="370.424,301.734, 451.374,205.374, 673.511,412.121, 438.779,479.692" />
  <polygon fill="#FFFFFF" points="378.425,322.564, 441.899,216.653, 647.51,387.921, 466.255,471.783" />
  <polygon fill="#000000" points="389.193,340.858, 434.117,229.637, 622.302,366.923, 488.476,461.502" />
  <polygon fill="#FFFFFF" points="428.36,243.89, 598.186,349.33, 505.626,449.381, 401.916,356.319" />
  <polygon fill="#000000" points="424.825,258.922, 575.481,335.233, 518.002,436.004, 415.782,368.761" />
  <polygon fill="#FFFFFF" points="423.566,274.217, 554.502,324.607, 526.005,421.972, 430.016,378.125" />
  <polygon fill="#000000" points="424.5,289.263, 535.542,317.31, 530.132,407.874, 443.916,384.474" />
  <polygon fill="#FFFFFF" points="427.419,303.578, 518.847,313.093, 530.945,394.257, 456.878,387.992" />
  <polygon fill="#000000" points="432.012,316.738, 504.593,311.61, 529.059,381.604, 468.425,388.969" />
  <polygon fill="#FFFFFF" points="437.891,328.4, 492.875,312.438, 525.109,370.303, 478.215,387.78" />
  <polygon fill="#000000" points="444.625,338.316, 483.693,315.103, 519.726,360.64, 486.046,384.861" />
  <polygon fill="#FFFFFF" points="451.772,346.348, 476.951,319.109, 513.508,352.782, 491.857,380.682" />
  <polygon fill="#000000" points="472.467,323.96, 506.998,346.785, 495.713,375.713, 458.911,352.462" />
  <polygon fill="#FFFFFF" points="469.977,329.194, 500.656,342.593, 497.786,370.4, 465.67,356.732" />
  <polygon fill="#000000" points="469.162,334.405, 494.852,340.058, 498.329,365.139, 471.746,359.318" />
  <polygon fill="#FFFFFF" points="469.666,339.257, 489.849,338.957, 497.652,360.255, 476.923,360.452" />
  <!-- Shape 7 -->
  <polygon fill="#FFFFFF" points="690.393,0, 830.568,0, 863.998,249.851, 556.504,115.043" />
  <polygon fill="#000000" points="677.874,10.7565, 817.461,0, 860.872,226.49, 585.254,127.647" />
  <polygon fill="#FFFFFF" points="668.51,22.5741, 803.349,1.08748, 856.483,203.592, 613.119,137.64" />
  <polygon fill="#000000" points="662.489,35.0818, 788.692,3.42308, 850.708,181.579, 639.573,144.809" />
  <polygon fill="#FFFFFF" points="659.824,47.8431, 774.015,7.10499, 843.495,160.86, 664.128,149.085" />
  <polygon fill="#000000" points="660.358,60.387, 759.867,12.1524, 834.887,141.81, 686.352,150.544" />
  <polygon fill="#FFFFFF" points="663.776,72.2427, 746.781,18.4953, 825.022,124.76, 705.884,149.396" />
  <!-- Shape 8 -->
  <polygon fill="#000000" points="556.504,115.043, 642.377,152.69, 545.76,281.626, 462.093,196.164" />
  <polygon fill="#FFFFFF" points="473.234,186.591, 566.637,119.485, 630.976,167.905, 535.887,271.542" />
  <polygon fill="#000000" points="484.881,178.223, 574.66,125.523, 619.119,180.828, 528.074,260.948" />
  <polygon fill="#FFFFFF" points="496.678,171.298, 580.502,132.79, 607.155,191.356, 522.398,250.078" />
  <polygon fill="#000000" points="508.254,165.98, 584.183,140.878, 595.45,199.466, 518.846,239.199" />
  <polygon fill="#FFFFFF" points="519.249,162.346, 585.814,149.362, 584.358,205.219, 517.313,228.597" />
  <polygon fill="#000000" points="529.333,160.379, 585.594,157.824, 574.201,208.761, 517.606,218.56" />
  <polygon fill="#FFFFFF" points="538.234,159.974, 583.791,165.882, 565.248,210.311, 519.461,209.355" />
  <polygon fill="#000000" points="545.746,160.949, 580.733,173.208, 557.697,210.153, 522.557,201.213" />
  <polygon fill="#FFFFFF" points="551.75,163.052, 576.78,179.548, 551.667,208.619, 526.536,194.303" />
  <polygon fill="#000000" points="556.213,165.994, 572.303,184.732, 547.186,206.067, 531.032,188.731" />
  <polygon fill="#FFFFFF" points="535.69,184.525, 559.189,169.46, 567.656,188.679, 544.198,202.86" />
  <polygon fill="#000000" points="540.195,181.637, 560.813,173.144, 563.159,191.397, 542.567,199.345" />
  <polygon fill="#FFFFFF" points="544.286,179.952, 561.278,176.766, 559.074,192.974, 542.096,195.832" />
  <!-- Shape 9 -->
  <polygon fill="#000000" points="753.197,201.275, 863.998,249.851, 885.492,410.494, 700.042,439.221, 619.003,356.442" />
  <polygon fill="#FFFFFF" points="737.631,219.274, 851.145,244.216, 882.999,391.86, 721.555,435.889, 628.404,366.045" />
  <polygon fill="#000000" points="724.196,237.327, 837.183,241.148, 879.081,373.7, 741.412,430.474, 639.861,374.636" />
  <polygon fill="#FFFFFF" points="713.232,255.177, 822.495,240.651, 873.634,356.468, 759.309,423.093, 653.063,381.895" />
  <polygon fill="#000000" points="704.989,272.537, 807.526,242.641, 866.628,340.601, 774.972,413.965, 667.619,387.539" />
  <polygon fill="#FFFFFF" points="699.608,289.098, 792.76,246.946, 858.117,326.495, 788.17,403.401, 683.078,391.344" />
  <polygon fill="#000000" points="697.112,304.537, 778.694,253.311, 848.249,314.483, 798.732,391.788, 698.947,393.165" />
  <polygon fill="#FFFFFF" points="697.402,318.54, 765.804,261.405, 837.259,304.818, 806.556,379.574, 714.713,392.947" />
  <polygon fill="#000000" points="700.258,330.817, 754.518,270.832, 825.469,297.655, 811.622,367.239, 729.867,390.741" />
  <polygon fill="#FFFFFF" points="745.185,281.15, 813.265,293.041, 814.004,355.271, 743.929,386.698, 705.351,341.124" />
  <polygon fill="#000000" points="738.055,291.885, 801.079,290.913, 813.871,344.132, 756.472,381.073, 712.256,349.282" />
  <polygon fill="#FFFFFF" points="733.256,302.561, 789.357,291.094, 811.492,334.233, 767.148,374.202, 720.48,355.195" />
  <polygon fill="#000000" points="730.791,312.719, 778.529,293.307, 807.22,325.907, 775.707,366.488, 729.487,358.863" />
  <polygon fill="#FFFFFF" points="730.53,321.948, 768.981,297.189, 801.482,319.387, 782.009,358.372, 738.731,360.388" />
  <!-- Shape 10 -->
  <polygon fill="#000000" points="603.75,204.239, 642.377,152.69, 753.197,201.275, 702.108,260.349" />
  <polygon fill="#FFFFFF" points="608.076,198.465, 654.789,158.132, 747.475,207.891, 691.092,254.065" />
  <polygon fill="#000000" points="613.691,193.617, 665.93,164.113, 740.698,213.441, 681.113,247.382" />
  <polygon fill="#FFFFFF" points="620.398,189.829, 675.53,170.447, 733.047,217.799, 672.456,240.479" />
  <polygon fill="#000000" points="627.929,187.181, 683.387,176.915, 724.771,220.897, 665.345,233.56" />
  <polygon fill="#FFFFFF" points="635.96,185.695, 689.379,183.284, 716.166,222.731, 659.927,226.844" />
  <polygon fill="#000000" points="644.133,185.326, 693.478,189.319, 707.561,223.36, 656.26,220.548" />
  <polygon fill="#FFFFFF" points="652.087,185.969, 695.748,194.806, 699.291,222.907, 654.305,214.87" />
  <polygon fill="#000000" points="659.483,187.466, 696.348,199.567, 691.671,221.545, 653.93,209.975" />
  <polygon fill="#FFFFFF" points="666.031,189.615, 695.517,203.47, 684.968,219.49, 654.916,205.977" />
  <polygon fill="#000000" points="656.981,202.937, 671.509,192.19, 693.557,206.447, 679.384,216.98" />
  <polygon fill="#FFFFFF" points="659.799,200.852, 675.787,194.955, 690.808,208.49, 675.038,214.255" />
  <polygon fill="#000000" points="663.032,199.66, 678.824,197.692, 687.619,209.656, 671.957,211.545" />
  <polygon fill="#FFFFFF" points="666.355,199.246, 680.674,200.209, 684.324,210.053, 670.079,209.045" />
  <!-- Shape 11 -->
  <polygon fill="#FFFFFF" points="603.75,204.239, 647.264,229.063, 619.003,356.442, 545.76,281.626" />
  <polygon fill="#000000" points="608.515,206.957, 644.17,243.011, 610.983,348.25, 552.109,273.152" />
  <polygon fill="#FFFFFF" points="558.574,265.566, 612.601,211.089, 640.366,255.071, 604.236,339.644" />
  <polygon fill="#000000" points="565.041,259.045, 615.924,216.353, 636.042,265.194, 598.77,330.777" />
  <polygon fill="#FFFFFF" points="571.391,253.717, 618.435,222.449, 631.39,273.379, 594.561,321.825" />
  <polygon fill="#000000" points="577.502,249.656, 620.118,229.064, 626.606,279.672, 591.551,312.978" />
  <polygon fill="#FFFFFF" points="583.255,246.876, 620.994,235.897, 621.874,284.168, 589.654,304.429" />
  <polygon fill="#000000" points="588.542,245.338, 621.117,242.659, 617.36,287.007, 588.758,296.366" />
  <polygon fill="#FFFFFF" points="593.272,244.949, 620.571,249.099, 613.207,288.366, 588.727,288.957" />
  <polygon fill="#000000" points="597.375,245.572, 619.465,255.001, 609.527,288.455, 589.41,282.342" />
  <polygon fill="#FFFFFF" points="600.808,247.038, 617.92,260.199, 606.401,287.505, 590.648,276.628" />
  <polygon fill="#000000" points="603.554,249.15, 616.071,264.582, 603.873,285.759, 592.278,271.879" />
  <polygon fill="#FFFFFF" points="605.627,251.706, 614.051,268.089, 601.953,283.461, 594.146,268.115" />
  <polygon fill="#000000" points="596.106,265.314, 607.065,254.502, 611.986,270.713, 600.62,280.841" />
  <polygon fill="#FFFFFF" points="598.032,263.413, 607.93,257.352, 609.988,272.493, 599.826,278.111" />
  <!-- Shape 12 -->
  <polygon fill="#000000" points="647.264,229.063, 702.108,260.349, 636.169,279.073" />
  <polygon fill="#FFFFFF" points="654.312,233.083, 693.634,262.755, 637.594,272.647" />
  <polygon fill="#000000" points="659.64,237.104, 686.041,264.096, 639.86,267.286" />
  <polygon fill="#FFFFFF" points="663.402,240.95, 679.46,264.55, 642.678,262.985" />
  <polygon fill="#000000" points="665.803,244.478, 673.961,264.316, 645.776,259.691" />
  <polygon fill="#FFFFFF" points="667.08,247.583, 669.55,263.592, 648.911,257.31" />
  <polygon fill="#000000" points="651.881,255.719, 667.483,250.2, 666.176,262.565" />
  <polygon fill="#FFFFFF" points="654.541,254.778, 667.261,252.309, 663.739,261.398" />
  <!-- Shape 13 -->
  <polygon fill="#FFFFFF" points="636.169,279.073, 702.108,260.349, 619.003,356.442" />
  <polygon fill="#000000" points="644.147,276.807, 692.052,271.977, 621.08,347.081" />
  <polygon fill="#FFFFFF" points="650.32,276.185, 682.907,281.654, 624.053,338.026" />
  <polygon fill="#000000" points="654.775,276.933, 674.862,289.36, 627.643,329.572" />
  <polygon fill="#FFFFFF" points="657.678,278.729, 668.036,295.173, 631.565,321.963" />
</svg>
