<?xml version="1.0" standalone="no"?>
<!DOCTYPE svg PUBLIC "-//W3C//DTD SVG 1.1//EN" "http://www.w3.org/Graphics/SVG/1.1/DTD/svg11.dtd">
<svg viewBox="0, 0, 843, 398" xmlns="http://www.w3.org/2000/svg" version="1.1">
  <!-- Shape 1 -->
  <polygon fill="#FFFFFF" points="0,0, 285,0, 285,398, 0,398" />
  <polygon fill="#000000" points="0,14.925, 274.312,0, 285,383.075, 10.6875,398" />
  <polygon fill="#FFFFFF" points="0.507656,33.1211, 261.283,0.708937, 284.492,364.879, 23.7173,397.291" />
  <polygon fill="#000000" points="1.84221,54.0608, 246.288,2.57263, 283.158,343.939, 38.7119,395.427" />
  <polygon fill="#FFFFFF" points="4.33092,77.1031, 229.788,6.04809, 280.669,320.897, 55.212,391.952" />
  <polygon fill="#000000" points="8.2742,101.504, 212.315,11.5549, 276.726,296.496, 72.6849,386.445" />
  <polygon fill="#FFFFFF" points="13.9101,126.436, 194.461,19.4254, 271.09,271.564, 90.5385,378.575" />
  <polygon fill="#000000" points="21.3814,151.02, 176.858,29.8589, 263.619,246.98, 108.142,368.141" />
  <polygon fill="#FFFFFF" points="30.7082,174.36, 160.144,42.8837, 254.292,223.64, 124.856,355.116" />
  <polygon fill="#000000" points="41.7706,195.599, 144.935,58.3322, 243.229,202.401, 140.065,339.668" />
  <polygon fill="#FFFFFF" points="131.782,75.8337, 230.697,184.032, 153.218,322.166, 54.3031,213.968" />
  <polygon fill="#000000" points="121.128,94.8272, 217.096,169.155, 163.872,303.173, 67.9039,228.845" />
  <polygon fill="#FFFFFF" points="113.278,114.595, 202.941,158.192, 171.722,283.405, 82.0591,239.808" />
  <polygon fill="#000000" points="108.361,134.316, 188.819,151.325, 176.639,263.684, 96.181,246.675" />
  <polygon fill="#FFFFFF" points="106.321,153.136, 175.342,148.476, 178.679,244.864, 109.658,249.524" />
  <polygon fill="#000000" points="106.913,170.245, 163.091,149.303, 178.087,227.755, 121.909,248.697" />
  <polygon fill="#FFFFFF" points="109.725,184.955, 152.558,153.23, 175.275,213.045, 132.442,244.77" />
  <polygon fill="#000000" points="114.212,196.768, 144.098,159.495, 170.788,201.232, 140.902,238.505" />
  <polygon fill="#FFFFFF" points="137.897,167.23, 165.25,192.571, 147.103,230.77, 119.75,205.429" />
  <polygon fill="#000000" points="133.95,175.538, 159.301,187.06, 151.05,222.462, 125.699,210.94" />
  <polygon fill="#FFFFFF" points="132.073,183.592, 153.533,184.438, 152.927,214.408, 131.467,213.562" />
  <polygon fill="#000000" points="131.929,190.71, 148.437,184.237, 153.071,207.29, 136.563,213.763" />
  <polygon fill="#FFFFFF" points="133.076,196.415, 144.351,185.839, 151.924,201.585, 140.649,212.161" />
  <!-- Shape 2 -->
  <polygon fill="#FFFFFF" points="285,0, 498,0, 372,237, 285,161" />
  <polygon fill="#000000" points="285,11.914, 482.238,0, 381.324,219.462, 291.438,166.624" />
  <polygon fill="#FFFFFF" points="285.56,25.366, 465.088,1.03592, 390.098,200.38, 299.254,171.218" />
  <polygon fill="#000000" points="286.928,39.9367, 447.153,3.4665, 397.59,180.465, 308.329,174.131" />
  <polygon fill="#FFFFFF" points="289.343,55.0806, 429.072,7.58216, 403.183,160.491, 318.402,174.846" />
  <polygon fill="#000000" points="292.999,70.1471, 411.494,13.5575, 406.44,141.255, 329.068,173.04" />
  <polygon fill="#FFFFFF" points="298.003,84.4235, 395.053,21.4093, 407.141,123.537, 339.803,168.63" />
  <polygon fill="#000000" points="304.344,97.1977, 380.33,30.9685, 405.307,108.044, 350.018,161.79" />
  <polygon fill="#FFFFFF" points="367.819,41.8732, 401.195,95.3537, 359.122,152.94, 311.864,107.833" />
  <polygon fill="#000000" points="357.882,53.5876, 395.267,85.8556, 366.594,142.713, 320.257,115.844" />
  <polygon fill="#FFFFFF" points="350.712,65.4505, 388.144,79.7069, 372.058,131.879, 329.087,120.964" />
  <polygon fill="#000000" points="346.311,76.7475, 380.526,76.8057, 375.331,121.262, 337.831,123.185" />
  <polygon fill="#FFFFFF" points="344.476,86.7989, 373.12,76.7931, 376.456,111.639, 345.948,122.769" />
  <polygon fill="#000000" points="344.814,95.0503, 366.549,79.0884, 375.69,103.646, 352.946,120.216" />
  <polygon fill="#FFFFFF" points="361.282,82.9568, 373.475,97.6942, 358.458,116.2, 346.785,101.149" />
  <polygon fill="#000000" points="357.581,87.6013, 370.362,93.9317, 362.292,111.475, 349.765,104.992" />
  <polygon fill="#FFFFFF" points="355.484,92.2663, 366.934,92.2336, 364.457,106.769, 353.125,106.731" />
  <!-- Shape 3 -->
  <polygon fill="#000000" points="285,161, 372,237, 285,398" />
  <polygon fill="#FFFFFF" points="292.221,167.308, 364.779,250.363, 285,378.329" />
  <polygon fill="#000000" points="299.879,176.074, 356.358,263.87, 285.762,356.056" />
  <polygon fill="#FFFFFF" points="307.114,187.321, 347.315,275.679, 287.571,333" />
  <polygon fill="#000000" points="313.171,200.632, 338.314,284.314, 290.515,311.054" />
  <polygon fill="#FFFFFF" points="317.526,215.126, 330.036,288.946, 294.439,291.929" />
  <polygon fill="#000000" points="319.974,229.576, 323.068,289.529, 298.958,276.894" />
  <polygon fill="#FFFFFF" points="320.65,242.664, 317.804,286.771, 303.546,266.565" />
  <polygon fill="#000000" points="307.665,260.808, 319.964,253.287, 314.37,281.905" />
  <polygon fill="#FFFFFF" points="310.905,258.827, 318.491,260.825, 312.604,276.348" />
  <!-- Shape 4 -->
  <polygon fill="#FFFFFF" points="372,237, 554,398, 285,398" />
  <polygon fill="#000000" points="365.257,249.477, 539.895,385.523, 305.847,398" />
  <polygon fill="#FFFFFF" points="359.762,263.216, 523.741,372.938, 327.497,396.846" />
  <polygon fill="#000000" points="356.294,277.581, 506.113,361.143, 348.593,394.276" />
  <polygon fill="#FFFFFF" points="355.35,291.876, 487.76,350.907, 367.889,390.217" />
  <polygon fill="#000000" points="357.074,305.398, 469.554,342.79, 384.372,384.812" />
  <polygon fill="#FFFFFF" points="361.237,317.509, 452.401,337.088, 397.362,378.404" />
  <polygon fill="#000000" points="367.288,327.709, 437.131,333.808, 406.581,371.483" />
  <polygon fill="#FFFFFF" points="374.459,335.697, 424.385,332.695, 412.156,364.608" />
  <polygon fill="#000000" points="381.904,341.407, 414.524,333.288, 414.571,358.305" />
  <polygon fill="#FFFFFF" points="407.593,335.013, 414.561,352.989, 388.846,344.998" />
  <polygon fill="#000000" points="403.328,337.285, 412.976,348.899, 394.696,346.816" />
  <polygon fill="#FFFFFF" points="401.235,339.596, 410.636,346.083, 399.129,347.321" />
  <!-- Shape 5 -->
  <polygon fill="#FFFFFF" points="498,0, 843,0, 843,398, 554,398, 372,237" />
  <polygon fill="#000000" points="508.868,0, 843,12.537, 833.896,398, 548.267,392.928, 375.969,229.535" />
  <polygon fill="#FFFFFF" points="524.371,0.581717, 842.578,30.4225, 820.643,397.765, 540.272,385.347, 382.135,218.884" />
  <polygon fill="#000000" points="543.877,2.41096, 841.233,52.9406, 803.457,397.003, 530.579,375.143, 390.855,205.502" />
  <polygon fill="#FFFFFF" points="402.515,190.027, 566.536,6.26131, 838.354,79.1582, 782.663,395.338, 519.932,362.216" />
  <polygon fill="#000000" points="417.457,173.286, 591.298,12.9022, 833.281,107.962, 758.728,392.32, 509.235,346.53" />
  <polygon fill="#FFFFFF" points="435.884,156.285, 616.949,22.9786, 825.378,138.104, 732.282,387.467, 499.507,328.166" />
  <polygon fill="#000000" points="457.775,140.168, 642.148,36.8972, 814.123,168.252, 704.14,380.297, 491.815,307.385" />
  <polygon fill="#FFFFFF" points="482.813,126.144, 665.502,54.7352, 799.187,197.048, 675.306,370.396, 487.192,284.677" />
  <polygon fill="#000000" points="510.344,115.383, 685.648,76.1817, 780.518,223.171, 646.957,357.478, 486.532,260.786" />
  <polygon fill="#FFFFFF" points="539.375,108.891, 701.359,100.523, 758.401,245.412, 620.391,341.466, 490.475,236.708" />
  <polygon fill="#000000" points="568.613,107.381, 711.655,126.676, 733.49,262.75, 596.941,322.557, 499.302,213.637" />
  <polygon fill="#FFFFFF" points="512.845,192.874, 596.563,111.151, 715.921,153.265, 706.808,274.436, 577.862,301.274" />
  <polygon fill="#000000" points="530.451,175.688, 621.664,120.007, 714.005,178.747, 679.691,280.08, 564.189,278.477" />
  <polygon fill="#FFFFFF" points="550.992,163.149, 642.459,133.236, 706.277,201.567, 653.68,279.719, 556.591,255.329" />
  <polygon fill="#000000" points="572.953,155.966, 657.782,149.642, 693.649,220.332, 630.369,273.863, 555.247,233.197" />
  <polygon fill="#FFFFFF" points="594.585,154.354, 666.928,167.668, 677.512,233.982, 611.213,263.493, 559.762,213.503" />
  <polygon fill="#000000" points="569.161,197.539, 614.11,157.947, 669.785,185.566, 659.618,241.947, 597.326,250.001" />
  <polygon fill="#FFFFFF" points="581.962,186.263, 629.966,165.813, 666.889,201.623, 641.877,244.241, 589.305,235.06" />
  <polygon fill="#000000" points="596.349,180.134, 641.032,176.545, 659.393,214.396, 626.121,241.489, 587.104,220.435" />
  <polygon fill="#FFFFFF" points="610.406,179.005, 646.809,188.453, 648.926,222.919, 613.847,234.866, 590.013,207.757" />
  <polygon fill="#000000" points="596.732,198.283, 622.401,182.118, 647.506,199.81, 637.367,226.856, 605.993,225.933" />
  <polygon fill="#FFFFFF" points="605.573,192.716, 631.047,188.211, 644.014,209.124, 626.562,226.538, 602.804,216.41" />
  <polygon fill="#000000" points="614.726,191.097, 635.706,195.725, 637.744,215.381, 618.026,222.899, 603.799,207.897" />
  <polygon fill="#FFFFFF" points="607.888,201.611, 622.577,192.829, 636.469,203.081, 630.365,218.194, 612.702,217.285" />
  <polygon fill="#000000" points="613.603,198.194, 627.982,196.818, 634.094,208.961, 623.492,217.841, 610.829,211.186" />
  <polygon fill="#FFFFFF" points="611.95,205.937, 619.412,197.638, 630.451,201.724, 629.811,212.549, 618.376,215.152" />
  <polygon fill="#000000" points="615.076,202.461, 624.036,199.35, 630.183,206.258, 625.021,213.639, 615.684,211.292" />
  <polygon fill="#FFFFFF" points="618.963,201.111, 626.703,202.347, 627.944,209.46, 620.971,212.621, 615.42,207.461" />
</svg>
