<?xml version="1.0" standalone="no"?>
<!DOCTYPE svg PUBLIC "-//W3C//DTD SVG 1.1//EN" "http://www.w3.org/Graphics/SVG/1.1/DTD/svg11.dtd">
<svg viewBox="0, 0, 1500, 600" xmlns="http://www.w3.org/2000/svg" version="1.1">
  <!-- Shape 1 -->
  <polygon fill="#FFFFFF" points="0,0, 683.843,0, 0,600" />
  <polygon fill="#000000" points="30.7729,0, 653.07,27, 0,573" />
  <polygon fill="#FFFFFF" points="60.0831,1.2717, 622.31,52.7166, 1.4494,546.012" />
  <polygon fill="#000000" points="87.7447,3.80279, 591.764,76.9867, 4.33418,519.21" />
  <polygon fill="#FFFFFF" points="113.601,7.55712, 561.629,99.6728, 8.61314,492.77" />
  <polygon fill="#000000" points="137.526,12.4761, 532.098,120.664, 14.2195,466.86" />
  <polygon fill="#FFFFFF" points="159.424,18.4805, 503.355,139.878, 21.063,441.641" />
  <polygon fill="#000000" points="179.235,25.473, 475.575,157.26, 29.0326,417.267" />
  <polygon fill="#FFFFFF" points="196.926,33.3407, 448.917,172.782, 37.9997,393.877" />
  <polygon fill="#000000" points="212.499,41.9582, 423.522,186.446, 47.8213,371.596" />
  <polygon fill="#FFFFFF" points="225.984,51.1909, 399.515,198.277, 58.3442,350.532" />
  <polygon fill="#000000" points="237.437,60.8986, 376.998,208.326, 69.4084,330.776" />
  <polygon fill="#FFFFFF" points="246.941,70.9384, 356.051,216.665, 80.8512,312.397" />
  <polygon fill="#000000" points="254.6,81.1684, 336.732,223.385, 92.5107,295.447" />
  <polygon fill="#FFFFFF" points="260.538,91.4506, 319.075,228.595, 104.23,279.954" />
  <polygon fill="#000000" points="264.894,101.654, 303.09,232.416, 115.859,265.93" />
  <polygon fill="#FFFFFF" points="267.816,111.657, 288.767,234.98, 127.26,253.363" />
  <polygon fill="#000000" points="269.462,121.351, 276.073,236.425, 138.308,242.225" />
  <polygon fill="#FFFFFF" points="269.996,130.637, 264.955,236.893, 148.892,232.47" />
  <polygon fill="#000000" points="269.578,139.435, 255.345,236.527, 158.919,224.038" />
  <polygon fill="#FFFFFF" points="268.37,147.678, 247.158,235.466, 168.314,216.855" />
  <polygon fill="#000000" points="266.525,155.316, 240.299,233.847, 177.019,210.837" />
  <polygon fill="#FFFFFF" points="264.188,162.313, 234.661,231.797, 184.994,205.89" />
  <polygon fill="#000000" points="261.495,168.65, 230.131,229.434, 192.217,201.916" />
  <polygon fill="#FFFFFF" points="198.68,198.812, 258.569,174.321, 226.594,226.867" />
  <polygon fill="#000000" points="204.394,196.476, 255.518,179.334, 223.931,224.19" />
  <polygon fill="#FFFFFF" points="209.378,194.804, 252.439,183.707, 222.026,221.488" />
  <polygon fill="#000000" points="213.667,193.699, 249.409,187.47, 220.766,218.831" />
  <polygon fill="#FFFFFF" points="217.302,193.066, 246.496,190.66, 220.044,216.275" />
  <polygon fill="#000000" points="220.332,192.816, 243.751,193.319, 219.76,213.866" />
  <polygon fill="#FFFFFF" points="222.812,192.869, 241.21,195.494, 219.82,211.636" />
  <polygon fill="#000000" points="224.799,193.153, 238.9,197.238, 220.143,209.61" />
  <polygon fill="#FFFFFF" points="226.352,193.602, 236.835,198.6, 220.656,207.798" />
  <polygon fill="#000000" points="227.528,194.163, 235.02,199.632, 221.295,206.205" />
  <polygon fill="#FFFFFF" points="228.384,194.788, 233.451,200.383, 222.008,204.829" />
  <polygon fill="#000000" points="228.974,195.439, 232.119,200.901, 222.75,203.66" />
  <polygon fill="#FFFFFF" points="229.347,196.087, 231.009,201.228, 223.487,202.686" />
  <polygon fill="#000000" points="229.547,196.707, 230.102,201.403, 224.194,201.89" />
  <polygon fill="#FFFFFF" points="229.615,197.283, 229.377,201.463, 224.851,201.254" />
  <polygon fill="#000000" points="229.585,197.805, 228.812,201.437, 225.445,200.758" />
  <polygon fill="#FFFFFF" points="229.487,198.266, 228.385,201.351, 225.971,200.384" />
  <polygon fill="#000000" points="229.345,198.664, 228.073,201.226, 226.424,200.11" />
  <polygon fill="#FFFFFF" points="226.807,199.921, 229.178,199, 227.857,201.08" />
  <polygon fill="#000000" points="227.123,199.798, 229.002,199.277, 227.717,200.925" />
  <polygon fill="#FFFFFF" points="227.377,199.727, 228.828,199.5, 227.637,200.773" />
  <polygon fill="#000000" points="227.577,199.696, 228.665,199.675, 227.601,200.629" />
  <polygon fill="#FFFFFF" points="227.729,199.693, 228.516,199.808, 227.598,200.499" />
  <polygon fill="#000000" points="227.84,199.709, 228.386,199.906, 227.616,200.385" />
  <polygon fill="#FFFFFF" points="227.919,199.738, 228.276,199.975, 227.649,200.288" />
  <polygon fill="#000000" points="227.971,199.772, 228.184,200.02, 227.688,200.208" />
  <!-- Shape 2 -->
  <polygon fill="#000000" points="322.27,317.242, 576.419,600, 0,600" />
  <polygon fill="#FFFFFF" points="340.061,337.035, 536.07,600, 22.5589,580.207" />
  <polygon fill="#000000" points="354.095,355.863, 499.302,598.583, 45.2921,562.796" />
  <polygon fill="#FFFFFF" points="364.724,373.63, 466.069,595.963, 67.8964,547.648" />
  <polygon fill="#000000" points="372.305,390.261, 436.286,592.349, 90.0991,534.632" />
  <polygon fill="#FFFFFF" points="377.193,405.7, 409.837,587.94, 111.66,523.602" />
  <polygon fill="#000000" points="379.739,419.915, 386.579,582.921, 132.371,514.406" />
  <polygon fill="#FFFFFF" points="380.284,432.89, 366.344,577.467, 152.062,506.884" />
  <polygon fill="#000000" points="170.593,500.876, 379.152,444.63, 348.944,571.736" />
  <polygon fill="#FFFFFF" points="187.862,496.219, 376.651,455.154, 334.177,565.869" />
  <polygon fill="#000000" points="203.796,492.753, 373.066,464.499, 321.828,559.99" />
  <polygon fill="#FFFFFF" points="218.353,490.323, 368.659,472.711, 311.677,554.208" />
  <polygon fill="#000000" points="231.52,488.78, 363.668,479.85, 303.502,548.612" />
  <polygon fill="#FFFFFF" points="243.307,487.984, 358.301,485.984, 297.081,543.275" />
  <polygon fill="#000000" points="253.749,487.802, 352.742,491.186, 292.199,538.254" />
  <polygon fill="#FFFFFF" points="262.896,488.115, 347.148,495.535, 288.646,533.592" />
  <polygon fill="#000000" points="270.815,488.812, 341.649,499.112, 286.225,529.317" />
  <polygon fill="#FFFFFF" points="277.587,489.797, 336.35,502, 284.752,525.445" />
  <polygon fill="#000000" points="283.299,490.983, 331.335,504.279, 284.056,521.98" />
  <polygon fill="#FFFFFF" points="288.045,492.297, 326.664,506.028, 283.981,518.918" />
  <polygon fill="#000000" points="291.922,493.675, 322.378,507.322, 284.389,516.245" />
  <polygon fill="#FFFFFF" points="295.029,495.067, 318.503,508.232, 285.157,513.943" />
  <polygon fill="#000000" points="297.461,496.431, 315.049,508.824, 286.18,511.987" />
  <polygon fill="#FFFFFF" points="299.311,497.735, 312.012,509.156, 287.367,510.351" />
  <polygon fill="#000000" points="300.667,498.955, 309.38,509.284, 288.642,509.003" />
  <polygon fill="#FFFFFF" points="301.612,500.074, 307.132,509.254, 289.946,507.914" />
  <polygon fill="#000000" points="302.219,501.084, 305.241,509.106, 291.229,507.052" />
  <polygon fill="#FFFFFF" points="302.556,501.979, 303.678,508.877, 292.456,506.386" />
  <polygon fill="#000000" points="302.683,502.76, 302.407,508.595, 293.599,505.887" />
  <polygon fill="#FFFFFF" points="294.642,505.528, 302.652,503.43, 301.396,508.284" />
  <polygon fill="#000000" points="295.574,505.284, 302.505,503.995, 300.61,507.963" />
  <polygon fill="#FFFFFF" points="296.392,505.132, 302.282,504.463, 300.016,507.647" />
  <polygon fill="#000000" points="297.097,505.052, 302.011,504.844, 299.582,507.346" />
  <polygon fill="#FFFFFF" points="297.692,505.026, 301.716,505.147, 299.281,507.068" />
  <polygon fill="#000000" points="298.186,505.041, 301.417,505.383, 299.086,506.817" />
  <polygon fill="#FFFFFF" points="298.588,505.084, 301.127,505.562, 298.974,506.596" />
  <polygon fill="#000000" points="298.908,505.144, 300.856,505.692, 298.925,506.406" />
  <polygon fill="#FFFFFF" points="299.157,505.214, 300.61,505.783, 298.923,506.245" />
  <polygon fill="#000000" points="299.344,505.287, 300.392,505.843, 298.953,506.112" />
  <polygon fill="#FFFFFF" points="299.481,505.36, 300.204,505.878, 299.005,506.004" />
  <polygon fill="#000000" points="299.577,505.429, 300.045,505.895, 299.068,505.919" />
  <polygon fill="#FFFFFF" points="299.64,505.491, 299.914,505.898, 299.136,505.853" />
  <polygon fill="#000000" points="299.677,505.546, 299.808,505.892, 299.204,505.804" />
  <polygon fill="#FFFFFF" points="299.695,505.594, 299.726,505.88, 299.269,505.769" />
  <polygon fill="#000000" points="299.328,505.744, 299.699,505.633, 299.662,505.864" />
  <polygon fill="#FFFFFF" points="299.38,505.729, 299.694,505.666, 299.615,505.847" />
  <polygon fill="#000000" points="299.425,505.72, 299.683,505.692, 299.582,505.831" />
  <polygon fill="#FFFFFF" points="299.462,505.716, 299.668,505.711, 299.559,505.815" />
  <polygon fill="#000000" points="299.492,505.715, 299.652,505.726, 299.545,505.8" />
  <polygon fill="#FFFFFF" points="299.515,505.717, 299.637,505.737, 299.537,505.788" />
  <!-- Shape 3 -->
  <polygon fill="#FFFFFF" points="322.27,317.242, 499.7,161.566, 475.965,488.238" />
  <polygon fill="#000000" points="481.425,177.6, 478.41,454.591, 338.101,334.854" />
  <polygon fill="#FFFFFF" points="466.662,193.798, 478.721,426.061, 352.553,347.187" />
  <polygon fill="#000000" points="454.909,209.597, 477.479,402.138, 365.548,355.311" />
  <polygon fill="#FFFFFF" points="445.705,224.605, 475.154,382.306, 377.077,360.134" />
  <polygon fill="#000000" points="438.636,238.565, 472.121,366.063, 387.179,362.418" />
  <polygon fill="#FFFFFF" points="433.336,251.322, 468.672,352.931, 395.928,362.793" />
  <polygon fill="#000000" points="429.483,262.803, 465.032,342.465, 403.42,361.778" />
  <polygon fill="#FFFFFF" points="426.799,272.998, 461.371,334.26, 409.767,359.788" />
  <polygon fill="#000000" points="425.044,281.937, 457.81,327.95, 415.082,357.159" />
  <polygon fill="#FFFFFF" points="424.018,289.685, 454.435,323.21, 419.483,354.15" />
  <polygon fill="#000000" points="423.551,296.325, 451.302,319.757, 423.083,350.964" />
  <polygon fill="#FFFFFF" points="423.503,301.953, 448.444,317.344, 425.989,347.749" />
  <polygon fill="#000000" points="423.759,306.67, 445.875,315.759, 428.302,344.618" />
  <polygon fill="#FFFFFF" points="424.227,310.578, 443.597,314.822, 430.112,341.645" />
  <polygon fill="#000000" points="424.833,313.778, 441.602,314.385, 431.501,338.882" />
  <polygon fill="#FFFFFF" points="425.52,316.364, 439.875,314.323, 432.541,336.359" />
  <polygon fill="#000000" points="426.243,318.423, 438.396,314.533, 433.297,334.089" />
  <polygon fill="#FFFFFF" points="426.97,320.037, 437.144,314.934, 433.822,332.075" />
  <polygon fill="#000000" points="427.675,321.277, 436.096,315.459, 434.164,330.31" />
  <polygon fill="#FFFFFF" points="428.344,322.207, 435.229,316.059, 434.363,328.78" />
  <polygon fill="#000000" points="434.52,316.692, 434.452,327.47, 428.964,322.884" />
  <polygon fill="#FFFFFF" points="433.947,317.33, 434.459,326.36, 429.529,323.357" />
  <polygon fill="#000000" points="433.492,317.95, 434.407,325.429, 430.037,323.666" />
  <polygon fill="#FFFFFF" points="433.136,318.539, 434.312,324.659, 430.487,323.848" />
  <polygon fill="#000000" points="432.864,319.086, 434.191,324.029, 430.881,323.931" />
  <polygon fill="#FFFFFF" points="432.659,319.585, 434.055,323.52, 431.222,323.941" />
  <polygon fill="#000000" points="432.511,320.034, 433.911,323.114, 431.514,323.898" />
  <polygon fill="#FFFFFF" points="432.409,320.432, 433.767,322.797, 431.761,323.817" />
  <polygon fill="#000000" points="432.342,320.78, 433.627,322.553, 431.967,323.712" />
  <polygon fill="#FFFFFF" points="432.303,321.082, 433.494,322.371, 432.138,323.593" />
  <polygon fill="#000000" points="432.286,321.341, 433.372,322.238, 432.278,323.467" />
  <polygon fill="#FFFFFF" points="432.285,321.56, 433.26,322.146, 432.391,323.34" />
  <polygon fill="#000000" points="432.296,321.743, 433.16,322.085, 432.48,323.217" />
  <polygon fill="#FFFFFF" points="432.315,321.895, 433.071,322.05, 432.55,323.101" />
  <polygon fill="#000000" points="432.339,322.019, 432.993,322.034, 432.604,322.992" />
  <polygon fill="#FFFFFF" points="432.367,322.119, 432.926,322.033, 432.644,322.894" />
  <polygon fill="#000000" points="432.395,322.199, 432.868,322.042, 432.673,322.805" />
  <polygon fill="#FFFFFF" points="432.424,322.262, 432.819,322.058, 432.693,322.726" />
  <polygon fill="#000000" points="432.451,322.309, 432.779,322.079, 432.706,322.658" />
  <polygon fill="#FFFFFF" points="432.478,322.345, 432.745,322.103, 432.713,322.598" />
  <polygon fill="#000000" points="432.717,322.128, 432.717,322.547, 432.502,322.371" />
  <polygon fill="#FFFFFF" points="432.695,322.153, 432.717,322.504, 432.524,322.389" />
  <polygon fill="#000000" points="432.677,322.177, 432.714,322.468, 432.544,322.401" />
  <polygon fill="#FFFFFF" points="432.664,322.2, 432.711,322.438, 432.561,322.408" />
  <polygon fill="#000000" points="432.653,322.222, 432.706,322.413, 432.577,322.411" />
  <polygon fill="#FFFFFF" points="432.645,322.241, 432.7,322.393, 432.59,322.411" />
  <polygon fill="#000000" points="432.64,322.259, 432.695,322.378, 432.601,322.409" />
  <polygon fill="#FFFFFF" points="432.636,322.274, 432.689,322.365, 432.611,322.406" />
  <polygon fill="#000000" points="432.633,322.288, 432.684,322.356, 432.619,322.402" />
  <!-- Shape 4 -->
  <polygon fill="#000000" points="499.7,161.566, 683.843,0, 890.83,0, 852.014,320.373, 488.932,309.767" />
  <polygon fill="#FFFFFF" points="520.508,143.309, 707.232,0, 886.443,36.2022, 810.986,319.175, 490.149,293.021" />
  <polygon fill="#000000" points="542.019,126.8, 727.877,4.17049, 877.751,68.8006, 774.025,316.162, 493.647,275.774" />
  <polygon fill="#FFFFFF" points="563.839,112.403, 745.473,11.7581, 865.573,97.8408, 741.109,311.42, 499.325,258.284" />
  <polygon fill="#000000" points="585.562,100.366, 759.837,22.0536, 850.687,123.385, 712.191,305.065, 507.041,240.837" />
  <polygon fill="#FFFFFF" points="606.789,90.8275, 770.902,34.3957, 833.819,145.514, 687.204,297.242, 516.605,223.727" />
  <polygon fill="#000000" points="627.139,83.8299, 778.704,48.1743, 815.638,164.328, 666.05,288.126, 527.788,207.248" />
  <polygon fill="#FFFFFF" points="646.266,79.3302, 783.365,62.8329, 796.76,179.951, 648.601,277.919, 540.326,191.673" />
  <polygon fill="#000000" points="663.87,77.2119, 785.085,77.8709, 777.737,192.53, 634.699,266.845, 553.929,177.248" />
  <polygon fill="#FFFFFF" points="679.7,77.298, 784.125,92.8454, 759.056,202.236, 624.15,255.144, 568.287,164.183" />
  <polygon fill="#000000" points="583.083,152.645, 693.568,79.3627, 780.796,107.372, 741.14,209.262, 616.731,243.064" />
  <polygon fill="#FFFFFF" points="597.998,142.752, 705.344,83.144, 775.443,121.128, 724.345,213.825, 612.189,230.858" />
  <polygon fill="#000000" points="612.726,134.574, 714.961,88.3554, 768.432,133.846, 708.957,216.162, 610.242,218.77" />
  <polygon fill="#FFFFFF" points="626.978,128.131, 722.415,94.6967, 760.141,145.321, 695.196,216.526, 610.588,207.033" />
  <polygon fill="#000000" points="640.492,123.396, 727.757,101.865, 750.945,155.403, 683.216,215.181, 612.909,195.86" />
  <polygon fill="#FFFFFF" points="653.04,120.3, 731.092,109.564, 741.206,163.999, 673.106,212.403, 616.875,185.44" />
  <polygon fill="#000000" points="664.436,118.733, 732.568,117.511, 731.263,171.066, 664.896,208.466, 622.155,175.929" />
  <polygon fill="#FFFFFF" points="674.533,118.552, 732.375,125.448, 721.427,176.609, 658.562,203.644, 628.421,167.453" />
  <polygon fill="#000000" points="683.232,119.589, 730.728,133.143, 711.972,180.675, 654.029,198.201, 635.357,160.098" />
  <polygon fill="#FFFFFF" points="642.662,153.916, 690.48,121.657, 727.866,140.396, 703.13,183.35, 651.179,192.387" />
  <polygon fill="#000000" points="650.065,148.923, 696.268,124.558, 724.037,147.045, 695.088,184.749, 649.861,186.432" />
  <polygon fill="#FFFFFF" points="657.319,145.097, 700.627,128.089, 719.492,152.965, 687.988,185.013, 649.893,180.543" />
  <polygon fill="#000000" points="664.213,142.39, 703.631,132.049, 714.477,158.067, 681.923,184.301, 651.075,174.9" />
  <polygon fill="#FFFFFF" points="670.575,140.721, 705.381,136.248, 709.222,162.301, 676.944,182.784, 653.196,169.653" />
  <polygon fill="#000000" points="676.27,139.989, 706.01,140.51, 703.942,165.652, 673.059,180.636, 656.039,164.919" />
  <polygon fill="#FFFFFF" points="681.2,140.075, 705.667,144.679, 698.821,168.136, 670.237,178.03, 659.393,160.786" />
  <polygon fill="#000000" points="663.057,157.307, 685.311,140.849, 704.517,148.62, 694.019,169.798, 668.415,175.133" />
  <polygon fill="#FFFFFF" points="666.844,154.505, 688.58,142.171, 702.73,152.224, 689.661,170.706, 667.503,172.099" />
  <polygon fill="#000000" points="670.592,152.379, 691.019,143.905, 700.477,155.411, 685.841,170.946, 667.39,169.066" />
  <polygon fill="#FFFFFF" points="674.158,150.899, 692.671,145.914, 697.922,158.123, 682.62,170.618, 667.949,166.152" />
  <polygon fill="#000000" points="677.431,150.018, 693.599,148.072, 695.216,160.332, 680.026,169.828, 669.047,163.456" />
  <polygon fill="#FFFFFF" points="680.325,149.67, 693.888,150.267, 692.497,162.032, 678.061,168.688, 670.547,161.05" />
  <polygon fill="#000000" points="682.783,149.778, 693.636,152.399, 689.881,163.238, 676.699,167.304, 672.319,158.988" />
  <polygon fill="#FFFFFF" points="674.238,157.299, 684.773,150.258, 692.948,154.387, 687.464,163.984, 675.896,165.779" />
  <polygon fill="#000000" points="676.194,155.992, 686.291,151.025, 691.93,156.168, 685.317,164.317, 675.588,164.205" />
  <polygon fill="#FFFFFF" points="678.09,155.059, 687.35,151.991, 690.688,157.698, 683.49,164.296, 675.702,162.662" />
  <polygon fill="#000000" points="679.849,154.476, 687.984,153.075, 689.32,158.952, 682.01,163.985, 676.156,161.218" />
  <polygon fill="#FFFFFF" points="681.413,154.207, 688.241,154.205, 687.915,159.919, 680.885,163.454, 676.865,159.922" />
  <polygon fill="#000000" points="682.74,154.206, 688.177,155.315, 686.548,160.606, 680.103,162.767, 677.749,158.811" />
  <polygon fill="#FFFFFF" points="678.731,157.906, 683.809,154.424, 687.857,156.356, 685.281,161.031, 679.641,161.989" />
  <polygon fill="#000000" points="679.74,157.214, 684.614,154.808, 687.345,157.285, 684.16,161.222, 679.46,161.178" />
  <polygon fill="#FFFFFF" points="680.72,156.73, 685.163,155.306, 686.705,158.076, 683.215,161.213, 679.516,160.381" />
  <polygon fill="#000000" points="681.623,156.441, 685.476,155.869, 685.996,158.714, 682.464,161.044, 679.761,159.639" />
  <polygon fill="#FFFFFF" points="682.414,156.323, 685.583,156.453, 685.27,159.192, 681.908,160.755, 680.143,158.982" />
  <polygon fill="#000000" points="683.072,156.35, 685.518,157.022, 684.572,159.517, 681.542,160.387, 680.615,158.43" />
  <polygon fill="#FFFFFF" points="681.13,157.994, 683.585,156.491, 685.32,157.545, 683.937,159.699, 681.347,159.977" />
  <polygon fill="#000000" points="681.651,157.675, 683.953,156.715, 685.026,158.002, 683.388,159.758, 681.301,159.556" />
  <polygon fill="#FFFFFF" points="682.144,157.47, 684.183,156.99, 684.675,158.378, 682.941,159.715, 681.376,159.153" />
  <polygon fill="#000000" points="682.585,157.366, 684.289,157.291, 684.3,158.667, 682.602,159.593, 681.542,158.789" />
  <polygon fill="#FFFFFF" points="682.958,157.349, 684.292,157.592, 683.929,158.87, 682.37,159.417, 681.77,158.478" />
  <!-- Shape 5 -->
  <polygon fill="#FFFFFF" points="488.932,309.767, 852.014,320.373, 818.777,600, 576.419,600, 475.965,488.238" />
  <polygon fill="#000000" points="487.545,328.864, 813.164,319.238, 822.334,570.08, 602.352,600, 486.714,500.197" />
  <polygon fill="#FFFFFF" points="487.455,347.479, 777.785,320.284, 821.337,542.826, 626.253,596.749, 499.278,511.04" />
  <polygon fill="#000000" points="488.759,365.52, 745.762,323.284, 816.534,518.28, 647.77,590.801, 513.283,520.494" />
  <polygon fill="#FFFFFF" points="491.504,382.869, 716.99,328.012, 808.611,496.45, 666.663,582.683, 528.339,528.365" />
  <polygon fill="#000000" points="495.689,399.398, 691.375,334.244, 798.203,477.315, 682.789,572.887, 544.053,534.535" />
  <polygon fill="#FFFFFF" points="501.263,414.972, 668.822,341.753, 785.891,460.826, 696.09,561.872, 560.042,538.955" />
  <polygon fill="#000000" points="508.134,429.466, 649.235,350.312, 772.205,446.907, 706.588,550.06, 575.946,541.634" />
  <polygon fill="#FFFFFF" points="516.173,442.763, 632.507,359.696, 757.627,435.455, 714.367,537.831, 591.434,542.633" />
  <polygon fill="#000000" points="525.219,454.768, 618.524,369.681, 742.588,426.349, 719.567,525.525, 606.21,542.056" />
  <polygon fill="#FFFFFF" points="607.155,380.048, 727.471,419.444, 722.372,513.441, 620.023,540.042, 535.088,465.404" />
  <polygon fill="#000000" points="598.254,390.59, 712.612,414.579, 723.002,501.832, 632.663,536.757, 545.578,474.622" />
  <polygon fill="#FFFFFF" points="591.662,401.106, 698.3,411.576, 721.701,490.912, 643.969,532.386, 556.476,482.398" />
  <polygon fill="#000000" points="587.2,411.414, 684.778,410.249, 718.734,480.853, 653.825,527.127, 567.57,488.736" />
  <polygon fill="#FFFFFF" points="584.679,421.346, 672.244,410.399, 714.372,471.784, 662.163,521.183, 578.65,493.668" />
  <polygon fill="#000000" points="583.895,430.755, 660.852,411.823, 708.891,463.797, 668.955,514.756, 589.515,497.247" />
  <polygon fill="#FFFFFF" points="584.635,439.516, 650.713,414.317, 702.562,456.95, 674.217,508.042, 599.981,499.554" />
  <polygon fill="#000000" points="586.682,447.525, 641.898,417.679, 695.646,451.263, 677.998,501.227, 609.884,500.686" />
  <polygon fill="#FFFFFF" points="589.816,454.704, 634.441,421.709, 688.387,446.727, 680.381,494.479, 619.083,500.759" />
  <polygon fill="#000000" points="593.816,461, 628.341,426.22, 681.013,443.307, 681.476,487.951, 627.462,499.901" />
  <polygon fill="#FFFFFF" points="623.564,431.032, 673.725,440.943, 681.412,481.775, 634.935,498.248, 598.471,466.382" />
  <polygon fill="#000000" points="620.051,435.981, 666.703,439.555, 680.336,476.058, 641.442,495.941, 603.576,470.843" />
  <polygon fill="#FFFFFF" points="617.718,440.919, 660.095,439.049, 678.405,470.888, 646.951,493.125, 608.94,474.398" />
  <polygon fill="#000000" points="616.46,445.716, 654.022,439.317, 675.781,466.325, 651.458,489.938, 614.387,477.082" />
  <polygon fill="#FFFFFF" points="616.159,450.263, 648.577,440.245, 672.627,462.41, 654.984,486.516, 619.76,478.945" />
  <polygon fill="#000000" points="616.687,454.468, 643.825,441.713, 669.101,459.161, 657.57,482.982, 624.924,480.055" />
  <polygon fill="#FFFFFF" points="617.908,458.261, 639.802,443.604, 665.354,456.574, 659.28,479.45, 629.764,480.489" />
  <polygon fill="#000000" points="619.686,461.593, 636.52,445.801, 661.524,454.63, 660.19,476.021, 634.188,480.333" />
  <polygon fill="#FFFFFF" points="633.969,448.194, 657.734,453.292, 660.392,472.779, 638.129,479.68, 621.883,464.433" />
  <polygon fill="#000000" points="632.117,450.682, 654.093,452.511, 659.985,469.794, 641.54,478.623, 624.372,466.769" />
  <polygon fill="#FFFFFF" points="630.918,453.173, 650.69,452.228, 659.073,467.118, 644.396,477.256, 627.031,468.604" />
  <polygon fill="#000000" points="630.31,455.588, 647.596,452.376, 657.761,464.787, 646.693,475.669, 629.748,469.958" />
  <polygon fill="#FFFFFF" points="630.221,457.861, 644.862,452.884, 656.153,462.825, 648.443,473.948, 632.428,470.861" />
  <polygon fill="#000000" points="630.574,459.938, 642.523,453.679, 654.349,461.236, 649.675,472.171, 634.987,471.355" />
  <polygon fill="#FFFFFF" points="631.286,461.782, 640.593,454.69, 652.44,460.016, 650.43,470.405, 637.359,471.486" />
  <polygon fill="#000000" points="632.277,463.364, 639.075,455.846, 650.508,459.147, 650.758,468.711, 639.491,471.31" />
  <polygon fill="#FFFFFF" points="637.955,457.085, 648.624,458.603, 650.717,467.135, 641.347,470.882, 633.465,464.673" />
  <polygon fill="#000000" points="637.208,458.348, 646.849,458.351, 650.368,465.715, 642.906,470.258, 634.777,465.707" />
  <polygon fill="#FFFFFF" points="636.8,459.584, 645.229,458.35, 649.777,464.478, 644.16,469.495, 636.143,466.471" />
  <polygon fill="#000000" points="636.688,460.753, 643.798,458.56, 649.005,463.438, 645.113,468.644, 637.503,466.985" />
  <polygon fill="#FFFFFF" points="636.828,461.821, 642.58,458.936, 648.113,462.602, 645.78,467.752, 638.807,467.269" />
  <polygon fill="#000000" points="637.17,462.763, 641.585,459.435, 647.156,461.968, 646.184,466.861, 640.014,467.352" />
  <polygon fill="#FFFFFF" points="637.667,463.565, 640.814,460.016, 646.183,461.525, 646.353,466.006, 641.091,467.266" />
  <polygon fill="#000000" points="640.259,460.642, 645.236,461.259, 646.323,465.216, 642.019,467.044, 638.271,464.217" />
  <polygon fill="#FFFFFF" points="639.905,461.278, 644.351,461.149, 646.13,464.512, 642.785,466.719, 638.938,464.72" />
  <polygon fill="#000000" points="639.731,461.896, 643.552,461.172, 645.81,463.908, 643.386,466.323, 639.629,465.079" />
  <polygon fill="#FFFFFF" points="639.713,462.473, 642.86,461.304, 645.401,463.412, 643.825,465.885, 640.31,465.305" />
  <polygon fill="#000000" points="639.822,462.991, 642.284,461.518, 644.936,463.027, 644.113,465.433, 640.953,465.411" />
  <polygon fill="#FFFFFF" points="640.031,463.438, 641.83,461.789, 644.447,462.748, 644.265,464.989, 641.536,465.415" />
  <polygon fill="#000000" points="641.495,462.096, 643.959,462.57, 644.299,464.571, 642.044,465.336, 640.311,463.806" />
  <!-- Shape 6 -->
  <polygon fill="#000000" points="852.014,320.373, 1087.84,327.262, 1100.44,600, 818.777,600" />
  <polygon fill="#FFFFFF" points="871.823,320.952, 1088.9,350.172, 1076.78,600, 821.569,576.511" />
  <polygon fill="#000000" points="890.448,323.459, 1087.86,371.607, 1054.88,597.985, 825.881,554.584" />
  <polygon fill="#FFFFFF" points="907.741,327.677, 1084.97,391.438, 1034.82,594.183, 831.537,534.338" />
  <polygon fill="#000000" points="923.586,333.377, 1080.49,409.563, 1016.65,588.833, 838.35,515.862" />
  <polygon fill="#FFFFFF" points="937.895,340.325, 1074.66,425.913, 1000.39,582.178, 846.123,499.22" />
  <polygon fill="#000000" points="950.615,348.285, 1067.76,440.445, 986.039,574.463, 854.658,484.442" />
  <polygon fill="#FFFFFF" points="961.72,357.022, 1060.01,453.15, 973.585,565.929, 863.755,471.535" />
  <polygon fill="#000000" points="873.218,460.473, 971.215,366.308, 1051.66,464.045, 962.975,556.81" />
  <polygon fill="#FFFFFF" points="882.861,451.207, 979.13,375.925, 1042.93,473.173, 954.143,547.331" />
  <polygon fill="#000000" points="892.507,443.664, 985.524,385.669, 1034.04,480.603, 947,537.699" />
  <polygon fill="#FFFFFF" points="901.995,437.748, 990.472,395.352, 1025.16,486.427, 941.442,528.107" />
  <polygon fill="#000000" points="911.179,433.347, 994.073,404.806, 1016.47,490.753, 937.347,518.728" />
  <polygon fill="#FFFFFF" points="919.932,430.334, 996.438,413.882, 1008.11,493.708, 934.584,509.712" />
  <polygon fill="#000000" points="928.149,428.567, 997.692,422.455, 1000.22,495.426, 933.01,501.187" />
  <polygon fill="#FFFFFF" points="935.743,427.899, 997.968,430.424, 992.878,496.055, 932.48,493.257" />
  <polygon fill="#000000" points="942.65,428.179, 997.403,437.709, 986.174,495.745, 932.842,486.002" />
  <polygon fill="#FFFFFF" points="948.826,429.254, 996.136,444.255, 980.158,494.646, 933.948,479.48" />
  <polygon fill="#000000" points="954.248,430.973, 994.305,450.03, 974.863,492.908, 935.653,473.724" />
  <polygon fill="#FFFFFF" points="958.911,433.192, 992.042,455.021, 970.299,490.675, 937.818,468.748" />
  <polygon fill="#000000" points="962.827,435.772, 989.472,459.235, 966.459,488.083, 940.311,464.545" />
  <polygon fill="#FFFFFF" points="943.013,461.092, 966.024,438.588, 986.71,462.697, 963.322,485.258" />
  <polygon fill="#000000" points="945.816,458.351, 968.544,441.524, 983.862,465.445, 960.848,482.315" />
  <polygon fill="#FFFFFF" points="948.625,456.271, 970.437,444.481, 981.017,467.53, 958.99,479.353" />
  <polygon fill="#000000" points="951.36,454.793, 971.764,447.371, 978.255,469.013, 957.69,476.459" />
  <polygon fill="#FFFFFF" points="953.955,453.849, 972.589,450.124, 975.639,469.96, 956.885,473.703" />
  <polygon fill="#000000" points="956.359,453.368, 972.983,452.683, 973.22,470.443, 956.507,471.141" />
  <polygon fill="#FFFFFF" points="958.533,453.279, 973.014,455.006, 971.034,470.534, 956.488,468.817" />
  <polygon fill="#000000" points="960.454,453.508, 972.751,457.065, 969.105,470.306, 956.759,466.756" />
  <polygon fill="#FFFFFF" points="962.106,453.986, 972.261,458.844, 967.446,469.829, 957.255,464.976" />
  <polygon fill="#000000" points="963.489,454.647, 971.605,460.341, 966.058,469.168, 957.916,463.479" />
  <polygon fill="#FFFFFF" points="964.609,455.433, 970.84,461.559, 964.934,468.383, 958.685,462.26" />
  <polygon fill="#000000" points="959.513,461.306, 965.48,456.289, 970.014,462.513, 964.061,467.527" />
  <polygon fill="#FFFFFF" points="960.358,460.595, 966.122,457.171, 969.171,463.223, 963.417,466.646" />
  <polygon fill="#000000" points="961.185,460.104, 966.56,458.039, 968.346,463.714, 962.978,465.778" />
  <polygon fill="#FFFFFF" points="961.965,459.804, 966.819,458.863, 967.567,464.014, 962.718,464.955" />
  <polygon fill="#000000" points="962.679,459.666, 966.929,459.62, 966.854,464.152, 962.607,464.197" />
  <polygon fill="#FFFFFF" points="963.311,459.659, 966.918,460.294, 966.222,464.159, 962.618,463.523" />
  <polygon fill="#000000" points="963.854,459.755, 966.813,460.876, 965.679,464.063, 962.722,462.941" />
  <polygon fill="#FFFFFF" points="964.305,459.926, 966.64,461.362, 965.228,463.892, 962.895,462.456" />
  <polygon fill="#000000" points="964.665,460.147, 966.422,461.752, 964.869,463.671, 963.112,462.065" />
  <polygon fill="#FFFFFF" points="963.355,461.766, 964.939,460.397, 966.18,462.051, 964.595,463.42" />
  <polygon fill="#000000" points="963.605,461.55, 965.135,460.658, 965.93,462.267, 964.399,463.159" />
  <polygon fill="#FFFFFF" points="963.849,461.408, 965.262,460.915, 965.686,462.41, 964.272,462.902" />
  <polygon fill="#000000" points="964.077,461.328, 965.33,461.156, 965.457,462.489, 964.204,462.661" />
  <polygon fill="#FFFFFF" points="964.282,461.3, 965.351,461.374, 965.253,462.517, 964.183,462.444" />
  <polygon fill="#000000" points="964.458,461.312, 965.335,461.563, 965.076,462.505, 964.199,462.255" />
  <polygon fill="#FFFFFF" points="964.604,461.354, 965.292,461.72, 964.93,462.463, 964.243,462.098" />
  <polygon fill="#000000" points="964.72,461.416, 965.231,461.845, 964.814,462.402, 964.304,461.972" />
  <polygon fill="#FFFFFF" points="964.375,461.878, 964.807,461.489, 965.16,461.94, 964.727,462.329" />
  <!-- Shape 7 -->
  <polygon fill="#FFFFFF" points="1087.84,327.262, 1500,339.301, 1500,600, 1100.44,600" />
  <polygon fill="#000000" points="1088.82,348.535, 1467.85,338.362, 1500,579.666, 1131.6,600" />
  <polygon fill="#FFFFFF" points="1092.2,368.401, 1437.91,339.166, 1497.46,560.603, 1160.71,598.394" />
  <polygon fill="#000000" points="1097.68,386.801, 1410.25,341.505, 1492.7,542.888, 1187.65,595.37" />
  <polygon fill="#FFFFFF" points="1104.97,403.695, 1384.93,345.174, 1486.02,526.576, 1212.36,591.119" />
  <polygon fill="#000000" points="1113.78,419.063, 1361.98,349.972, 1477.73,511.701, 1234.8,585.827" />
  <polygon fill="#FFFFFF" points="1123.82,432.905, 1341.38,355.707, 1468.12,498.277, 1254.96,579.674" />
  <polygon fill="#000000" points="1134.84,445.233, 1323.1,362.192, 1457.48,486.301, 1272.86,572.837" />
  <polygon fill="#FFFFFF" points="1146.57,456.08, 1307.1,369.25, 1446.05,475.752, 1288.56,565.481" />
  <polygon fill="#000000" points="1158.78,465.488, 1293.29,376.717, 1434.1,466.593, 1302.1,557.765" />
  <polygon fill="#FFFFFF" points="1281.59,384.441, 1421.85,458.774, 1313.59,549.833, 1171.25,473.516" />
  <polygon fill="#000000" points="1271.88,392.279, 1409.51,452.232, 1323.11,541.819, 1183.77,480.232" />
  <polygon fill="#FFFFFF" points="1264.04,400.107, 1397.26,446.897, 1330.8,533.846, 1196.18,485.713" />
  <polygon fill="#000000" points="1257.93,407.812, 1385.27,442.685, 1336.78,526.021, 1208.29,490.045" />
  <polygon fill="#FFFFFF" points="1253.41,415.295, 1373.68,439.512, 1341.2,518.437, 1219.98,493.319" />
  <polygon fill="#000000" points="1250.34,422.473, 1362.62,437.284, 1344.18,511.176, 1231.14,495.63" />
  <polygon fill="#FFFFFF" points="1248.55,429.277, 1352.18,435.907, 1345.9,504.304, 1241.65,497.076" />
  <polygon fill="#000000" points="1247.9,435.65, 1342.44,435.283, 1346.49,497.875, 1251.45,497.755" />
  <polygon fill="#FFFFFF" points="1248.24,441.55, 1333.46,435.318, 1346.1,491.929, 1260.48,497.767" />
  <polygon fill="#000000" points="1249.42,446.947, 1325.27,435.916, 1344.89,486.494, 1268.7,497.206" />
  <polygon fill="#FFFFFF" points="1251.29,451.822, 1317.92,436.986, 1342.99,481.588, 1276.09,496.167" />
  <polygon fill="#000000" points="1253.72,456.168, 1311.39,438.44, 1340.53,477.217, 1282.64,494.738" />
  <polygon fill="#FFFFFF" points="1256.58,459.986, 1305.68,440.195, 1337.64,473.378, 1288.38,493.004" />
  <polygon fill="#000000" points="1259.76,463.288, 1300.77,442.174, 1334.45,470.06, 1293.3,491.041" />
  <polygon fill="#FFFFFF" points="1263.15,466.091, 1296.63,444.307, 1331.05,467.243, 1297.46,488.922" />
  <polygon fill="#000000" points="1293.21,446.529, 1327.54,464.904, 1300.88,486.711, 1266.65,468.42" />
  <polygon fill="#FFFFFF" points="1290.47,448.784, 1324,463.011, 1303.63,484.465, 1270.17,470.304" />
  <polygon fill="#000000" points="1288.36,451.022, 1320.51,461.532, 1305.75,482.234, 1273.65,471.776" />
  <polygon fill="#FFFFFF" points="1286.82,453.201, 1317.14,460.428, 1307.3,480.06, 1277.02,472.874" />
  <polygon fill="#000000" points="1285.78,455.286, 1313.92,459.662, 1308.34,477.979, 1280.23,473.636" />
  <polygon fill="#FFFFFF" points="1285.19,457.25, 1310.91,459.194, 1308.94,476.019, 1283.24,474.101" />
  <polygon fill="#000000" points="1284.98,459.07, 1308.13,458.984, 1309.15,474.202, 1286.02,474.308" />
  <polygon fill="#FFFFFF" points="1285.09,460.731, 1305.61,458.993, 1309.04,472.543, 1288.54,474.296" />
  <polygon fill="#000000" points="1285.47,462.223, 1303.35,459.184, 1308.66,471.053, 1290.79,474.104" />
  <polygon fill="#FFFFFF" points="1286.06,463.542, 1301.37,459.522, 1308.07,469.735, 1292.78,473.765" />
  <polygon fill="#000000" points="1286.81,464.687, 1299.65,459.972, 1307.32,468.591, 1294.49,473.314" />
  <polygon fill="#FFFFFF" points="1287.68,465.661, 1298.2,460.505, 1306.46,467.617, 1295.94,472.78" />
  <polygon fill="#000000" points="1288.62,466.473, 1297,461.092, 1305.52,466.806, 1297.14,472.191" />
  <polygon fill="#FFFFFF" points="1296.04,461.711, 1304.54,466.149, 1298.1,471.572, 1289.6,467.131" />
  <polygon fill="#000000" points="1295.29,462.34, 1303.55,465.634, 1298.85,470.943, 1290.59,467.646" />
  <polygon fill="#FFFFFF" points="1294.74,462.961, 1302.58,465.249, 1299.4,470.322, 1291.55,468.032" />
  <polygon fill="#000000" points="1294.37,463.559, 1301.66,464.979, 1299.77,469.723, 1292.48,468.302" />
  <polygon fill="#FFFFFF" points="1294.14,464.123, 1300.79,464.81, 1300,469.159, 1293.35,468.471" />
  <polygon fill="#000000" points="1294.05,464.645, 1299.99,464.728, 1300.09,468.637, 1294.15,468.554" />
  <polygon fill="#FFFFFF" points="1294.06,465.118, 1299.27,464.718, 1300.08,468.164, 1294.87,468.564" />
  <polygon fill="#000000" points="1294.16,465.538, 1298.64,464.766, 1299.98,467.743, 1295.5,468.515" />
  <polygon fill="#FFFFFF" points="1294.32,465.905, 1298.09,464.861, 1299.82,467.377, 1296.05,468.42" />
  <polygon fill="#000000" points="1294.54,466.216, 1297.62,464.991, 1299.6,467.065, 1296.52,468.291" />
  <polygon fill="#FFFFFF" points="1294.78,466.476, 1297.23,465.144, 1299.35,466.806, 1296.9,468.138" />
  <polygon fill="#000000" points="1296.93,465.312, 1299.09,466.597, 1297.21,467.97, 1295.05,466.685" />
  <!-- Shape 8 -->
  <polygon fill="#FFFFFF" points="890.83,0, 1156.77,0, 1260.05,332.292, 852.014,320.373" />
  <polygon fill="#000000" points="887.511,27.3919, 1134.03,0, 1251.22,303.881, 886.901,321.392" />
  <polygon fill="#FFFFFF" points="887.458,52.9405, 1112.61,2.38036, 1241.04,277.474, 918.561,319.871" />
  <polygon fill="#000000" points="890.204,76.5105, 1092.73,6.84482, 1229.7,253.183, 947.036,316.127" />
  <polygon fill="#FFFFFF" points="895.302,98.0041, 1074.56,13.0938, 1217.41,231.087, 972.391,310.481" />
  <polygon fill="#000000" points="902.325,117.361, 1058.23,20.8292, 1204.4,211.228, 994.712,303.248" />
  <polygon fill="#FFFFFF" points="910.871,134.555, 1043.81,29.7583, 1190.88,193.616, 1014.11,294.736" />
  <polygon fill="#000000" points="920.565,149.596, 1031.33,39.5988, 1177.07,178.23, 1030.71,285.241" />
  <polygon fill="#FFFFFF" points="931.061,162.523, 1020.77,50.0815, 1163.18,165.018, 1044.66,275.043" />
  <polygon fill="#000000" points="1012.1,60.9546, 1149.41,153.904, 1056.12,264.403, 942.046,173.404" />
  <polygon fill="#FFFFFF" points="1005.22,71.9859, 1135.94,144.785, 1065.27,253.563, 953.236,182.331" />
  <polygon fill="#000000" points="1000.05,82.9652, 1122.93,137.542, 1072.3,242.74, 964.383,189.419" />
  <polygon fill="#FFFFFF" points="996.452,93.7064, 1110.53,132.035, 1077.41,232.125, 975.272,194.799" />
  <polygon fill="#000000" points="994.286,104.048, 1098.86,128.114, 1080.8,221.886, 985.721,198.617" />
  <polygon fill="#FFFFFF" points="993.397,113.855, 1088.02,125.618, 1082.67,212.162, 995.58,201.03" />
  <polygon fill="#000000" points="993.627,123.017, 1078.07,124.382, 1083.23,203.066, 1004.73,202.2" />
  <polygon fill="#FFFFFF" points="994.81,131.45, 1069.08,124.237, 1082.68,194.686, 1013.09,202.292" />
  <polygon fill="#000000" points="996.783,139.094, 1061.07,125.015, 1081.22,187.085, 1020.6,201.472" />
  <polygon fill="#FFFFFF" points="999.386,145.912, 1054.04,126.554, 1079.01,180.301, 1027.23,199.899" />
  <polygon fill="#000000" points="1002.47,151.888, 1047.99,128.697, 1076.25,174.351, 1032.96,197.73" />
  <polygon fill="#FFFFFF" points="1005.89,157.027, 1042.89,131.297, 1073.08,169.233, 1037.81,195.109" />
  <polygon fill="#000000" points="1009.51,161.349, 1038.69,134.217, 1069.65,164.927, 1041.82,192.172" />
  <polygon fill="#FFFFFF" points="1035.33,137.334, 1066.1,161.399, 1045.01,189.042, 1013.22,164.891" />
  <polygon fill="#000000" points="1032.76,140.539, 1062.52,158.6, 1047.47,185.827, 1016.92,167.7" />
  <polygon fill="#FFFFFF" points="1030.9,143.736, 1059.02,156.474, 1049.24,182.622, 1020.51,169.833" />
  <polygon fill="#000000" points="1029.66,146.844, 1055.67,154.957, 1050.4,179.508, 1023.94,171.356" />
  <polygon fill="#FFFFFF" points="1028.97,149.798, 1052.53,153.98, 1051.04,176.55, 1027.12,172.339" />
  <polygon fill="#000000" points="1028.75,152.546, 1049.66,153.47, 1051.22,173.798, 1030.04,172.852" />
  <polygon fill="#FFFFFF" points="1028.91,155.049, 1047.08,153.356, 1051.03,171.292, 1032.65,172.969" />
  <polygon fill="#000000" points="1029.37,157.284, 1044.82,153.567, 1050.54,169.055, 1034.94,172.759" />
  <polygon fill="#FFFFFF" points="1030.08,159.235, 1042.87,154.036, 1049.81,167.102, 1036.91,172.292" />
  <polygon fill="#000000" points="1030.95,160.9, 1041.24,154.699, 1048.93,165.436, 1038.55,171.631" />
  <polygon fill="#FFFFFF" points="1031.93,162.283, 1039.91,155.498, 1047.94,164.052, 1039.89,170.832" />
  <polygon fill="#000000" points="1038.87,156.382, 1046.89,162.937, 1040.94,169.949, 1032.96,163.397" />
  <polygon fill="#FFFFFF" points="1038.09,157.306, 1045.83,162.074, 1041.72,169.025, 1034.02,164.26" />
  <polygon fill="#000000" points="1037.55,158.232, 1044.8,161.44, 1042.27,168.1, 1035.04,164.894" />
  <polygon fill="#FFFFFF" points="1037.21,159.128, 1043.83,161.008, 1042.61,167.204, 1036.01,165.325" />
  <polygon fill="#000000" points="1037.05,159.97, 1042.93,160.753, 1042.78,166.362, 1036.91,165.581" />
  <polygon fill="#FFFFFF" points="1037.03,160.74, 1042.12,160.645, 1042.8,165.592, 1037.72,165.688" />
  <polygon fill="#000000" points="1037.13,161.427, 1041.42,160.658, 1042.7,164.906, 1038.42,165.675" />
  <polygon fill="#FFFFFF" points="1037.31,162.022, 1040.82,160.766, 1042.52,164.311, 1039.02,165.567" />
  <polygon fill="#000000" points="1037.55,162.523, 1040.32,160.944, 1042.28,163.809, 1039.52,165.389" />
  <polygon fill="#FFFFFF" points="1037.83,162.933, 1039.92,161.169, 1042,163.4, 1039.91,165.163" />
  <polygon fill="#000000" points="1039.62,161.424, 1041.7,163.078, 1040.21,164.909, 1038.13,163.255" />
  <polygon fill="#FFFFFF" points="1039.4,161.691, 1041.4,162.837, 1040.43,164.642, 1038.43,163.496" />
  <polygon fill="#000000" points="1039.26,161.956, 1041.11,162.668, 1040.57,164.377, 1038.73,163.664" />
  <polygon fill="#FFFFFF" points="1039.18,162.21, 1040.83,162.563, 1040.65,164.123, 1039,163.77" />
  <polygon fill="#000000" points="1039.16,162.444, 1040.58,162.51, 1040.68,163.889, 1039.25,163.823" />
  <polygon fill="#FFFFFF" points="1039.17,162.652, 1040.37,162.5, 1040.66,163.68, 1039.47,163.833" />
  <polygon fill="#000000" points="1039.21,162.833, 1040.18,162.523, 1040.62,163.5, 1039.65,163.81" />
  <!-- Shape 9 -->
  <polygon fill="#000000" points="1156.77,0, 1500,0, 1500,339.301, 1260.05,332.292" />
  <polygon fill="#FFFFFF" points="1184.06,0, 1500,26.9745, 1480.92,338.744, 1251.84,305.875" />
  <polygon fill="#000000" points="1209.66,2.18628, 1498.45,52.2434, 1462.36,336.08, 1246.35,281.084" />
  <polygon fill="#FFFFFF" points="1233.52,6.321, 1495.47,75.6883, 1444.52,331.537, 1243.32,258.047" />
  <polygon fill="#000000" points="1255.56,12.1583, 1491.18,97.218, 1427.58,325.353, 1242.49,236.864" />
  <polygon fill="#FFFFFF" points="1275.75,19.4479, 1485.73,116.769, 1411.72,317.77, 1243.61,217.607" />
  <polygon fill="#000000" points="1294.07,27.9392, 1479.28,134.306, 1397.05,309.03, 1246.42,200.318" />
  <polygon fill="#FFFFFF" points="1310.52,37.3846, 1471.97,149.822, 1383.68,299.377, 1250.65,185.01" />
  <polygon fill="#000000" points="1325.11,47.5433, 1464,163.334, 1371.66,289.044, 1256.06,171.672" />
  <polygon fill="#FFFFFF" points="1262.4,160.265, 1337.87,58.1845, 1455.51,174.887, 1361.04,278.257" />
  <polygon fill="#000000" points="1269.46,150.725, 1348.87,69.0903, 1446.68,184.547, 1351.82,267.231" />
  <polygon fill="#FFFFFF" points="1277,142.97, 1358.16,80.0587, 1437.67,192.402, 1343.99,256.163" />
  <polygon fill="#000000" points="1284.84,136.896, 1365.83,90.9054, 1428.63,198.558, 1337.53,245.234" />
  <polygon fill="#FFFFFF" points="1292.78,132.384, 1371.99,101.466, 1419.69,203.137, 1332.36,234.606" />
  <polygon fill="#000000" points="1300.68,129.303, 1376.75,111.598, 1410.99,206.273, 1328.41,224.42" />
  <polygon fill="#FFFFFF" points="1308.37,127.512, 1380.21,121.179, 1402.63,208.109, 1325.61,214.794" />
  <polygon fill="#000000" points="1315.76,126.861, 1382.52,130.111, 1394.72,208.796, 1323.84,205.826" />
  <polygon fill="#FFFFFF" points="1322.72,127.2, 1383.79,138.318, 1387.32,208.486, 1322.99,197.59" />
  <polygon fill="#000000" points="1329.18,128.377, 1384.16,145.745, 1380.51,207.333, 1322.96,190.139" />
  <polygon fill="#FFFFFF" points="1335.09,130.242, 1383.77,152.36, 1374.33,205.486, 1323.63,183.506" />
  <polygon fill="#000000" points="1340.39,132.652, 1382.74,158.148, 1368.81,203.092, 1324.88,177.703" />
  <polygon fill="#FFFFFF" points="1345.07,135.469, 1381.2,163.114, 1363.95,200.286, 1326.59,172.724" />
  <polygon fill="#000000" points="1349.12,138.567, 1379.27,167.279, 1359.77,197.198, 1328.66,168.55" />
  <polygon fill="#FFFFFF" points="1330.99,165.144, 1352.55,141.828, 1377.05,170.678, 1356.24,193.943" />
  <polygon fill="#000000" points="1333.47,162.459, 1355.37,145.15, 1374.66,173.357, 1353.33,190.627" />
  <polygon fill="#FFFFFF" points="1336.03,160.439, 1357.62,148.442, 1372.17,175.372, 1351.01,187.34" />
  <polygon fill="#000000" points="1338.58,159.021, 1359.34,151.627, 1369.67,176.788, 1349.24,184.159" />
  <polygon fill="#FFFFFF" points="1341.07,158.135, 1360.58,154.641, 1367.22,177.671, 1347.96,181.147" />
  <polygon fill="#000000" points="1343.43,157.711, 1361.38,157.436, 1364.88,178.093, 1347.12,178.355" />
  <polygon fill="#FFFFFF" points="1345.64,157.677, 1361.81,159.974, 1362.7,178.125, 1346.67,175.818" />
  <polygon fill="#000000" points="1347.65,157.963, 1361.92,162.233, 1360.71,177.838, 1346.54,173.56" />
  <polygon fill="#FFFFFF" points="1349.45,158.501, 1361.77,164.199, 1358.92,177.299, 1346.68,171.595" />
  <polygon fill="#000000" points="1351.02,159.228, 1361.41,165.87, 1357.36,176.571, 1347.04,169.925" />
  <polygon fill="#FFFFFF" points="1352.36,160.085, 1360.88,167.252, 1356.03,175.713, 1347.55,168.544" />
  <polygon fill="#000000" points="1348.18,167.439, 1353.48,161.022, 1360.25,168.357, 1354.92,174.776" />
  <polygon fill="#FFFFFF" points="1348.88,166.59, 1354.37,161.991, 1359.54,169.206, 1354.03,173.806" />
  <polygon fill="#000000" points="1349.61,165.975, 1355.06,162.956, 1358.81,169.821, 1353.34,172.841" />
  <polygon fill="#FFFFFF" points="1350.35,165.567, 1355.57,163.885, 1358.07,170.23, 1352.84,171.912" />
  <polygon fill="#000000" points="1351.07,165.337, 1355.91,164.753, 1357.35,170.46, 1352.5,171.044" />
  <polygon fill="#FFFFFF" points="1351.74,165.256, 1356.11,165.543, 1356.68,170.541, 1352.3,170.254" />
  <polygon fill="#000000" points="1352.35,165.296, 1356.19,166.243, 1356.07,170.501, 1352.22,169.554" />
  <polygon fill="#FFFFFF" points="1352.89,165.43, 1356.17,166.845, 1355.52,170.367, 1352.24,168.952" />
  <polygon fill="#000000" points="1353.36,165.632, 1356.08,167.349, 1355.05,170.164, 1352.33,168.448" />
  <polygon fill="#FFFFFF" points="1353.75,165.881, 1355.93,167.756, 1354.66,169.916, 1352.48,168.041" />
  <polygon fill="#000000" points="1352.67,167.725, 1354.07,166.155, 1355.74,168.072, 1354.34,169.642" />
  <polygon fill="#FFFFFF" points="1352.87,167.493, 1354.32,166.438, 1355.54,168.304, 1354.09,169.359" />
  <polygon fill="#000000" points="1353.09,167.336, 1354.5,166.716, 1355.32,168.461, 1353.91,169.081" />
  <polygon fill="#FFFFFF" points="1353.3,167.242, 1354.62,166.979, 1355.11,168.555, 1353.79,168.817" />
  <polygon fill="#000000" points="1353.5,167.202, 1354.7,167.219, 1354.91,168.595, 1353.71,168.577" />
  <polygon fill="#FFFFFF" points="1353.69,167.205, 1354.73,167.431, 1354.72,168.592, 1353.68,168.366" />
</svg>
