<?xml version="1.0" standalone="no"?>
<!DOCTYPE svg PUBLIC "-//W3C//DTD SVG 1.1//EN" "http://www.w3.org/Graphics/SVG/1.1/DTD/svg11.dtd">
<svg viewBox="0, 0, 1500, 600" xmlns="http://www.w3.org/2000/svg" version="1.1">
  <!-- Shape 1 -->
  <polygon fill="#FFFFFF" points="1162.01,0, 1500,0, 1500,455.895, 1139.06,174.281" />
  <polygon fill="#000000" points="1140.61,162.517, 1184.82,0, 1500,30.7729, 1475.64,436.886" />
  <polygon fill="#FFFFFF" points="1144.02,149.979, 1209.14,2.37413, 1498.12,62.1046, 1449.79,415.719" />
  <polygon fill="#000000" points="1149.68,137.167, 1234.22,7.55873, 1493.93,92.7983, 1423.25,392.652" />
  <polygon fill="#FFFFFF" points="1157.83,124.666, 1259.27,15.7801, 1487.11,121.719, 1396.86,368.011" />
  <polygon fill="#000000" points="1168.59,113.113, 1283.44,27.0202, 1477.53,147.851, 1371.5,342.192" />
  <polygon fill="#FFFFFF" points="1181.89,103.148, 1305.91,41.0064, 1465.26,170.346, 1348.01,315.676" />
  <polygon fill="#000000" points="1197.44,95.3553, 1325.89,57.2255, 1450.56,188.57, 1327.18,289.025" />
  <polygon fill="#FFFFFF" points="1214.79,90.2059, 1342.73,74.9636, 1433.9,202.137, 1309.66,262.87" />
  <polygon fill="#000000" points="1233.3,88.0003, 1355.92,93.3655, 1415.92,210.925, 1295.93,237.885" />
  <polygon fill="#FFFFFF" points="1252.23,88.8284, 1365.18,111.511, 1397.4,215.086, 1286.26,214.751" />
  <polygon fill="#000000" points="1270.75,92.5483, 1370.47,128.497, 1379.17,215.031, 1280.68,194.099" />
  <polygon fill="#FFFFFF" points="1288.07,98.7908, 1371.98,143.524, 1362.07,211.396, 1278.96,176.465" />
  <polygon fill="#000000" points="1303.45,106.99, 1370.16,155.965, 1346.84,204.993, 1280.63,162.227" />
  <polygon fill="#FFFFFF" points="1285.03,151.569, 1316.32,116.44, 1365.66,165.425, 1334.06,196.742" />
  <polygon fill="#000000" points="1291.37,144.452, 1326.32,126.364, 1359.26,171.77, 1324.13,187.59" />
  <polygon fill="#FFFFFF" points="1298.79,140.613, 1333.31,136.002, 1351.8,175.127, 1317.17,178.434" />
  <polygon fill="#000000" points="1306.45,139.59, 1337.41,144.684, 1344.12,175.861, 1313.09,170.041" />
  <polygon fill="#FFFFFF" points="1313.62,140.769, 1338.96,151.903, 1336.93,174.514, 1311.56,162.99" />
  <polygon fill="#000000" points="1319.73,143.455, 1338.48,157.357, 1330.81,171.734, 1312.05,157.631" />
  <polygon fill="#FFFFFF" points="1313.98,154.075, 1324.43,146.942, 1336.55,160.963, 1326.11,168.196" />
  <polygon fill="#000000" points="1316.7,152.217, 1327.59,150.594, 1333.83,162.847, 1322.95,164.518" />
  <polygon fill="#FFFFFF" points="1319.64,151.778, 1329.28,153.905, 1330.89,163.299, 1321.26,161.194" />
  <polygon fill="#000000" points="1322.34,152.373, 1329.73,156.533, 1328.2,162.71, 1320.81,158.56" />
  <polygon fill="#FFFFFF" points="1321.25,156.769, 1324.48,153.577, 1329.29,158.321, 1326.06,161.509" />
  <polygon fill="#000000" points="1322.22,155.814, 1325.92,154.996, 1328.32,159.274, 1324.62,160.091" />
  <polygon fill="#FFFFFF" points="1323.36,155.562, 1326.66,156.317, 1327.18,159.526, 1323.88,158.771" />
  <polygon fill="#000000" points="1324.41,155.802, 1326.82,157.339, 1326.13,159.286, 1323.71,157.749" />
  <polygon fill="#FFFFFF" points="1323.94,157.11, 1325.2,156.306, 1326.59,157.978, 1325.33,158.782" />
  <polygon fill="#000000" points="1324.37,156.839, 1325.67,156.871, 1326.17,158.249, 1324.86,158.217" />
  <polygon fill="#FFFFFF" points="1324.82,156.85, 1325.84,157.35, 1325.72,158.238, 1324.69,157.738" />
  <polygon fill="#000000" points="1324.74,157.421, 1325.19,157.028, 1325.8,157.667, 1325.35,158.06" />
  <polygon fill="#FFFFFF" points="1324.9,157.277, 1325.41,157.262, 1325.63,157.811, 1325.13,157.826" />
  <polygon fill="#000000" points="1325.09,157.272, 1325.49,157.469, 1325.44,157.816, 1325.04,157.619" />
  <polygon fill="#FFFFFF" points="1325.06,157.485, 1325.25,157.348, 1325.47,157.603, 1325.29,157.74" />
  <polygon fill="#000000" points="1325.14,157.431, 1325.34,157.449, 1325.4,157.657, 1325.2,157.639" />
  <polygon fill="#FFFFFF" points="1325.22,157.438, 1325.36,157.533, 1325.32,157.65, 1325.17,157.555" />
  <polygon fill="#000000" points="1325.19,157.506, 1325.28,157.477, 1325.34,157.582, 1325.26,157.61" />
  <polygon fill="#FFFFFF" points="1325.23,157.494, 1325.31,157.522, 1325.31,157.594, 1325.23,157.566" />
  <polygon fill="#000000" points="1325.23,157.535, 1325.26,157.506, 1325.31,157.553, 1325.27,157.582" />
  <polygon fill="#FFFFFF" points="1325.24,157.522, 1325.28,157.527, 1325.29,157.566, 1325.25,157.561" />
  <polygon fill="#000000" points="1325.25,157.543, 1325.26,157.524, 1325.29,157.545, 1325.27,157.564" />
  <polygon fill="#FFFFFF" points="1325.25,157.535, 1325.27,157.534, 1325.28,157.553, 1325.26,157.554" />
  <polygon fill="#000000" points="1325.26,157.534, 1325.28,157.543, 1325.27,157.554, 1325.26,157.545" />
  <polygon fill="#FFFFFF" points="1325.26,157.54, 1325.27,157.538, 1325.27,157.548, 1325.27,157.55" />
  <polygon fill="#000000" points="1325.27,157.539, 1325.27,157.543, 1325.27,157.549, 1325.26,157.545" />
  <polygon fill="#FFFFFF" points="1325.26,157.542, 1325.27,157.541, 1325.27,157.546, 1325.27,157.547" />
  <polygon fill="#000000" points="1325.27,157.542, 1325.27,157.544, 1325.27,157.546, 1325.27,157.544" />
  <polygon fill="#FFFFFF" points="1325.27,157.543, 1325.27,157.543, 1325.27,157.545, 1325.27,157.545" />
  <polygon fill="#000000" points="1325.27,157.543, 1325.27,157.544, 1325.27,157.545, 1325.27,157.544" />
  <!-- Shape 2 -->
  <polygon fill="#000000" points="996.669,197.039, 1139.06,174.281, 1500,455.895, 1500,600, 1046.72,600" />
  <polygon fill="#FFFFFF" points="1000.05,224.239, 1129.45,175.817, 1475.64,436.886, 1500,590.273, 1077.32,600" />
  <polygon fill="#000000" points="1006.02,253.304, 1119.44,179.562, 1448.86,416.693, 1498.12,578.408, 1110.02,599.248" />
  <polygon fill="#FFFFFF" points="1015.09,283.47, 1109.55,185.993, 1420.13,396.015, 1493.82,564.307, 1143.86,597.43" />
  <polygon fill="#000000" points="1027.59,313.94, 1100.38,195.453, 1389.99,375.632, 1486.67,547.974, 1177.82,594.216" />
  <polygon fill="#FFFFFF" points="1043.65,343.902, 1092.6,208.119, 1359.03,356.371, 1476.33,529.551, 1210.84,589.273" />
  <polygon fill="#000000" points="1063.17,372.549, 1086.89,223.972, 1327.93,339.063, 1462.64,509.332, 1241.83,582.3" />
  <polygon fill="#FFFFFF" points="1085.79,399.103, 1083.88,242.782, 1297.41,324.492, 1445.58,487.776, 1269.79,573.062" />
  <polygon fill="#000000" points="1084.14,264.112, 1268.28,313.343, 1425.37,465.496, 1293.78,561.425, 1110.89,422.84" />
  <polygon fill="#FFFFFF" points="1088.06,287.334, 1241.34,306.14, 1402.38,443.236, 1313.03,547.391, 1137.65,443.115" />
  <polygon fill="#000000" points="1095.8,311.659, 1217.4,303.203, 1377.24,421.828, 1326.98,531.127, 1165.04,459.397" />
  <polygon fill="#FFFFFF" points="1107.29,336.183, 1197.22,304.607, 1350.7,402.137, 1335.32,512.983, 1191.92,471.305" />
  <polygon fill="#000000" points="1122.18,359.944, 1181.4,310.16, 1323.71,384.986, 1338.03,493.491, 1217.14,478.634" />
  <polygon fill="#FFFFFF" points="1139.81,381.985, 1170.41,319.405, 1297.29,371.091, 1335.37,473.341, 1239.59,481.393" />
  <polygon fill="#000000" points="1159.32,401.424, 1164.42,331.642, 1272.48,360.984, 1327.92,453.346, 1258.32,479.818" />
  <polygon fill="#FFFFFF" points="1163.37,345.976, 1250.28,354.957, 1316.53,434.375, 1272.61,474.381, 1179.65,417.526" />
  <polygon fill="#000000" points="1166.88,361.377, 1231.57,353.024, 1302.27,417.28, 1282.07,465.77, 1199.66,429.764" />
  <polygon fill="#FFFFFF" points="1174.26,376.771, 1217.01,354.904, 1286.36,402.816, 1286.62,454.855, 1218.21,437.869" />
  <polygon fill="#000000" points="1184.59,391.126, 1206.97,360.042, 1270.07,391.559, 1286.56,442.628, 1234.28,441.86" />
  <polygon fill="#FFFFFF" points="1196.75,403.546, 1201.49,367.651, 1254.62,383.844, 1282.52,430.127, 1247.08,442.048" />
  <polygon fill="#000000" points="1200.28,376.792, 1241.09,379.72, 1275.41,418.341, 1256.1,439.012, 1209.57,413.35" />
  <polygon fill="#FFFFFF" points="1202.74,386.461, 1230.3,378.946, 1266.33,408.126, 1261.21,433.545, 1221.88,420.138" />
  <polygon fill="#000000" points="1207.99,395.7, 1222.74,381.008, 1256.45,400.12, 1262.62,426.571, 1232.67,423.816" />
  <polygon fill="#FFFFFF" points="1215,403.691, 1218.54,385.183, 1246.87,394.688, 1260.86,419.054, 1241.18,424.599" />
  <polygon fill="#000000" points="1217.5,390.625, 1238.54,391.893, 1256.75,411.889, 1246.97,422.968, 1222.7,409.839" />
  <polygon fill="#FFFFFF" points="1219.08,396.464, 1232.15,391.508, 1251.21,405.812, 1249.94,419.601, 1230.08,413.829" />
  <polygon fill="#000000" points="1222.53,401.913, 1228.05,393.063, 1245.23,401.324, 1250.34,415.275, 1236.31,415.64" />
  <polygon fill="#FFFFFF" points="1226.26,395.927, 1239.67,398.651, 1248.69,410.761, 1240.85,415.522, 1226.99,406.355" />
  <polygon fill="#000000" points="1226.5,399.404, 1235.2,397.743, 1245.68,406.723, 1243.46,413.934, 1231.61,409.412" />
  <polygon fill="#FFFFFF" points="1228.26,402.84, 1232.21,398.313, 1242.08,403.64, 1244.22,411.458, 1235.68,410.964" />
  <polygon fill="#000000" points="1230.82,399.912, 1238.6,401.759, 1243.47,408.697, 1238.7,411.139, 1230.88,405.709" />
  <polygon fill="#FFFFFF" points="1230.84,402.016, 1235.77,401.088, 1241.7,406.179, 1240.43,410.252, 1233.72,407.68" />
  <polygon fill="#000000" points="1231.91,404.128, 1233.93,401.434, 1239.49,404.281, 1240.9,408.734, 1236.22,408.639" />
  <polygon fill="#FFFFFF" points="1233.16,402.465, 1237.36,403.191, 1240.36,407.029, 1238.01,408.675, 1233.56,405.854" />
  <polygon fill="#000000" points="1233.32,403.795, 1235.71,402.906, 1239.18,405.523, 1238.93,408.029, 1235.31,406.962" />
  <polygon fill="#FFFFFF" points="1234.12,405.069, 1234.75,403.264, 1237.79,404.47, 1239.03,407.021, 1236.77,407.391" />
  <polygon fill="#000000" points="1234.49,404.008, 1236.54,403.973, 1238.52,405.969, 1237.7,407.238, 1235.21,406.027" />
  <polygon fill="#FFFFFF" points="1234.79,404.86, 1235.67,403.988, 1237.68,405.126, 1238.05,406.703, 1236.26,406.538" />
  <polygon fill="#000000" points="1235.29,404.365, 1236.81,404.634, 1237.89,406.022, 1237.03,406.609, 1235.43,405.585" />
  <polygon fill="#FFFFFF" points="1235.35,404.904, 1236.14,404.515, 1237.41,405.409, 1237.41,406.35, 1236.14,406.037" />
  <polygon fill="#000000" points="1235.71,405.416, 1235.79,404.691, 1236.84,405.005, 1237.41,405.925, 1236.71,406.178" />
  <polygon fill="#FFFFFF" points="1235.75,405.025, 1236.35,404.86, 1237.15,405.5, 1237.04,406.061, 1236.17,405.768" />
  <polygon fill="#000000" points="1235.95,405.375, 1236.07,404.938, 1236.77,405.199, 1237.09,405.797, 1236.58,405.906" />
  <polygon fill="#FFFFFF" points="1236.01,405.148, 1236.43,405.073, 1236.94,405.509, 1236.82,405.854, 1236.25,405.631" />
  <polygon fill="#000000" points="1236.13,405.385, 1236.23,405.11, 1236.69,405.295, 1236.88,405.684, 1236.53,405.74" />
  <polygon fill="#FFFFFF" points="1236.18,405.248, 1236.46,405.202, 1236.78,405.489, 1236.71,405.712, 1236.33,405.563" />
  <polygon fill="#000000" points="1236.26,405.409, 1236.31,405.226, 1236.62,405.343, 1236.75,405.598, 1236.52,405.639" />
  <polygon fill="#FFFFFF" points="1236.28,405.321, 1236.46,405.282, 1236.68,405.465, 1236.64,405.618, 1236.39,405.529" />
  <polygon fill="#000000" points="1236.34,405.431, 1236.37,405.303, 1236.56,405.368, 1236.66,405.537, 1236.52,405.576" />
  <polygon fill="#FFFFFF" points="1236.35,405.372, 1236.46,405.333, 1236.61,405.446, 1236.6,405.555, 1236.44,405.509" />
  <!-- Shape 3 -->
  <polygon fill="#FFFFFF" points="171.43,328.933, 444.733,285.252, 458.515,600, 172.926,600" />
  <polygon fill="#000000" points="171.531,347.23, 426.285,288.201, 457.585,578.755, 192.203,600" />
  <polygon fill="#FFFFFF" points="173.143,366.946, 406.414,292.805, 455.144,556.091, 212.903,598.343" />
  <polygon fill="#000000" points="176.662,387.425, 385.77,299.367, 450.831,532.79, 234.341,594.604" />
  <polygon fill="#FFFFFF" points="182.372,407.935, 365.068,308.084, 444.39,509.682, 255.774,588.484" />
  <polygon fill="#000000" points="190.41,427.706, 345.063,319.018, 435.704,487.607, 276.427,579.855" />
  <polygon fill="#FFFFFF" points="200.732,445.963, 326.504,332.06, 424.827,467.376, 295.54,568.785" />
  <polygon fill="#000000" points="310.091,346.925, 411.996,449.717, 312.412,555.551, 213.104,461.992" />
  <polygon fill="#FFFFFF" points="296.416,363.149, 397.627,435.224, 326.454,540.629, 227.107,475.184" />
  <polygon fill="#000000" points="285.916,380.122, 382.294,424.304, 337.236,524.66, 242.158,485.099" />
  <polygon fill="#FFFFFF" points="278.827,397.129, 366.681,417.147, 344.536,508.402, 257.561,491.508" />
  <polygon fill="#000000" points="275.158,413.409, 351.526,413.694, 348.356,492.661, 272.564,494.422" />
  <polygon fill="#FFFFFF" points="274.684,428.234, 337.551,413.642, 348.936,478.21, 286.434,494.1" />
  <polygon fill="#000000" points="276.957,440.979, 325.386,416.465, 346.733,465.716, 298.528,491.025" />
  <polygon fill="#FFFFFF" points="281.358,451.189, 315.506,421.466, 342.378,455.669, 308.362,485.862" />
  <polygon fill="#000000" points="308.182,427.842, 336.614,448.332, 315.658,479.385, 287.15,458.626" />
  <polygon fill="#FFFFFF" points="303.449,434.768, 330.217,443.722, 320.373,472.398, 293.564,463.297" />
  <polygon fill="#000000" points="301.121,441.487, 323.913,441.613, 322.691,465.645, 299.878,465.44" />
  <polygon fill="#FFFFFF" points="300.816,447.379, 318.306,441.582, 322.992,459.733, 305.49,465.491" />
  <polygon fill="#000000" points="302.015,452.025, 313.82,443.069, 321.79,455.078, 309.979,464.014" />
  <polygon fill="#FFFFFF" points="310.668,445.46, 319.662,451.871, 313.133,461.628, 304.141,455.226" />
  <polygon fill="#000000" points="308.857,448.17, 317.166,450.092, 314.945,458.92, 306.636,457.002" />
  <polygon fill="#FFFFFF" points="308.217,450.714, 314.773,449.539, 315.584,456.378, 309.029,457.555" />
  <polygon fill="#000000" points="308.46,452.756, 312.816,449.889, 315.342,454.336, 310.986,457.204" />
  <polygon fill="#FFFFFF" points="311.47,450.775, 314.562,452.962, 312.332,456.318, 309.24,454.13" />
  <polygon fill="#000000" points="310.758,451.847, 313.574,452.264, 313.044,455.246, 310.228,454.829" />
  <polygon fill="#FFFFFF" points="310.583,452.831, 312.644,452.126, 313.219,454.261, 311.157,454.967" />
  <polygon fill="#000000" points="311.942,452.366, 313.023,453.534, 311.859,454.726, 310.778,453.558" />
  <polygon fill="#FFFFFF" points="311.534,452.785, 312.644,453.124, 312.268,454.308, 311.158,453.968" />
  <polygon fill="#000000" points="311.398,453.213, 312.243,453.002, 312.404,453.88, 311.559,454.091" />
  <polygon fill="#FFFFFF" points="311.458,453.539, 311.928,453.08, 312.344,453.553, 311.873,454.013" />
  <polygon fill="#000000" points="311.749,453.256, 312.185,453.372, 312.053,453.837, 311.617,453.72" />
  <polygon fill="#FFFFFF" points="311.697,453.438, 312.013,453.326, 312.105,453.654, 311.788,453.766" />
  <polygon fill="#000000" points="311.886,453.372, 312.068,453.522, 311.916,453.721, 311.734,453.571" />
  <polygon fill="#FFFFFF" points="311.823,453.454, 311.993,453.46, 311.979,453.639, 311.809,453.633" />
  <polygon fill="#000000" points="311.817,453.53, 311.921,453.457, 311.985,453.563, 311.881,453.635" />
  <polygon fill="#FFFFFF" points="311.876,453.489, 311.957,453.517, 311.926,453.604, 311.845,453.576" />
  <polygon fill="#000000" points="311.862,453.528, 311.921,453.504, 311.94,453.565, 311.881,453.588" />
  <polygon fill="#FFFFFF" points="311.894,453.515, 311.931,453.537, 311.908,453.578, 311.871,453.555" />
  <polygon fill="#000000" points="311.883,453.534, 311.914,453.527, 311.919,453.559, 311.888,453.566" />
  <polygon fill="#FFFFFF" points="311.899,453.53, 311.916,453.544, 311.903,453.562, 311.886,453.549" />
  <polygon fill="#000000" points="311.892,453.539, 311.908,453.537, 311.909,453.553, 311.894,453.556" />
  <polygon fill="#FFFFFF" points="311.9,453.538, 311.909,453.545, 311.902,453.554, 311.893,453.547" />
  <polygon fill="#000000" points="311.897,453.543, 311.904,453.542, 311.905,453.55, 311.898,453.551" />
  <polygon fill="#FFFFFF" points="311.9,453.542, 311.905,453.546, 311.902,453.55, 311.897,453.547" />
  <polygon fill="#000000" points="311.899,453.545, 311.902,453.544, 311.903,453.548, 311.899,453.549" />
  <polygon fill="#FFFFFF" points="311.9,453.544, 311.903,453.546, 311.902,453.548, 311.899,453.547" />
  <polygon fill="#000000" points="311.9,453.546, 311.902,453.545, 311.902,453.547, 311.9,453.548" />
  <polygon fill="#FFFFFF" points="311.9,453.547, 311.9,453.545, 311.902,453.546, 311.901,453.547" />
  <polygon fill="#000000" points="311.9,453.546, 311.901,453.546, 311.902,453.546, 311.901,453.547" />
  <!-- Shape 4 -->
  <polygon fill="#FFFFFF" points="724.434,240.549, 996.669,197.039, 1046.72,600, 750.655,600" />
  <polygon fill="#000000" points="742.81,237.612, 1000.05,224.239, 1026.74,600, 748.885,575.737" />
  <polygon fill="#FFFFFF" points="762.566,236.585, 1002.1,253.097, 1005.4,598.137, 748.419,549.769" />
  <polygon fill="#000000" points="783.189,238.007, 1002.38,282.805, 983.275,593.972, 749.637,522.804" />
  <polygon fill="#FFFFFF" points="804.1,242.28, 1000.56,312.49, 960.986,587.183, 752.838,495.634" />
  <polygon fill="#000000" points="824.67,249.631, 996.416,341.251, 939.193,577.598, 758.205,469.108" />
  <polygon fill="#FFFFFF" points="844.249,260.076, 989.893,368.194, 918.56,565.23, 765.782,444.088" />
  <polygon fill="#000000" points="862.207,273.407, 981.097,392.489, 899.722,550.293, 775.457,421.399" />
  <polygon fill="#FFFFFF" points="786.96,401.775, 877.971,289.197, 970.307,413.414, 883.245,533.202" />
  <polygon fill="#000000" points="799.874,385.801, 891.074,306.824, 957.953,430.412, 869.582,514.552" />
  <polygon fill="#FFFFFF" points="813.664,373.859, 901.186,325.51, 944.591,443.134, 859.042,495.085" />
  <polygon fill="#000000" points="827.711,366.099, 908.152,344.389, 930.86,451.472, 851.759,475.628" />
  <polygon fill="#FFFFFF" points="841.37,362.413, 912.008,362.571, 917.429,455.574, 847.676,457.03" />
  <polygon fill="#000000" points="854.021,362.441, 912.979,379.228, 904.936,455.834, 846.546,440.084" />
  <polygon fill="#FFFFFF" points="865.129,365.604, 911.464,393.661, 893.936,452.867, 847.955,425.456" />
  <polygon fill="#000000" points="874.289,371.151, 907.999,405.366, 884.845,447.448, 851.35,413.623" />
  <polygon fill="#FFFFFF" points="856.098,404.832, 881.267,378.233, 903.206,414.077, 877.912,440.446" />
  <polygon fill="#000000" points="861.542,399.078, 886.012,385.986, 897.735,419.781, 873.193,432.743" />
  <polygon fill="#FFFFFF" points="867.063,396.125, 888.657,393.61, 892.198,422.705, 870.565,425.148" />
  <polygon fill="#000000" points="872.135,395.534, 889.489,400.445, 887.116,423.279, 869.742,418.331" />
  <polygon fill="#FFFFFF" points="876.373,396.733, 888.909,406.021, 882.874,422.07, 870.327,412.764" />
  <polygon fill="#000000" points="871.859,408.7, 879.551,399.088, 887.379,410.089, 879.693,419.711" />
  <polygon fill="#FFFFFF" points="873.881,406.174, 881.608,401.979, 885.359,412.618, 877.634,416.817" />
  <polygon fill="#000000" points="875.983,405.032, 882.629,404.874, 883.257,413.761, 876.613,413.921" />
  <polygon fill="#FFFFFF" points="877.853,404.988, 882.806,407.374, 881.388,413.806, 876.436,411.42" />
  <polygon fill="#000000" points="879.293,405.682, 882.394,409.244, 879.948,413.112, 876.848,409.55" />
  <polygon fill="#FFFFFF" points="877.582,408.39, 880.223,406.75, 881.66,410.405, 879.018,412.044" />
  <polygon fill="#000000" points="878.399,407.883, 880.668,407.881, 880.843,410.911, 878.574,410.913" />
  <polygon fill="#FFFFFF" points="879.122,407.882, 880.723,408.846, 880.12,410.912, 878.518,409.948" />
  <polygon fill="#000000" points="878.716,409.27, 879.647,408.198, 880.526,409.524, 879.595,410.596" />
  <polygon fill="#FFFFFF" points="879.03,408.909, 879.943,408.645, 880.212,409.885, 879.298,410.149" />
  <polygon fill="#000000" points="879.346,408.817, 880.036,409.075, 879.895,409.977, 879.205,409.719" />
  <polygon fill="#FFFFFF" points="879.592,408.909, 879.986,409.396, 879.65,409.885, 879.255,409.398" />
  <polygon fill="#000000" points="879.378,409.22, 879.736,409.087, 879.863,409.574, 879.506,409.707" />
  <polygon fill="#FFFFFF" points="879.512,409.17, 879.783,409.269, 879.729,409.624, 879.458,409.525" />
  <polygon fill="#000000" points="879.479,409.389, 879.616,409.208, 879.763,409.405, 879.625,409.586" />
  <polygon fill="#FFFFFF" points="879.533,409.318, 879.674,409.286, 879.709,409.476, 879.568,409.508" />
  <polygon fill="#000000" points="879.589,409.305, 879.688,409.362, 879.652,409.489, 879.554,409.432" />
  <polygon fill="#FFFFFF" points="879.568,409.379, 879.63,409.328, 879.673,409.415, 879.611,409.466" />
  <polygon fill="#000000" points="879.594,409.358, 879.648,409.365, 879.647,409.436, 879.593,409.429" />
  <polygon fill="#FFFFFF" points="879.617,409.361, 879.648,409.395, 879.624,409.433, 879.594,409.399" />
  <polygon fill="#000000" points="879.604,409.382, 879.631,409.376, 879.637,409.412, 879.611,409.418" />
  <polygon fill="#FFFFFF" points="879.616,409.379, 879.634,409.392, 879.625,409.415, 879.608,409.402" />
  <polygon fill="#000000" points="879.612,409.392, 879.624,409.385, 879.63,409.402, 879.617,409.409" />
  <polygon fill="#FFFFFF" points="879.617,409.389, 879.627,409.393, 879.624,409.405, 879.615,409.401" />
  <polygon fill="#000000" points="879.616,409.395, 879.622,409.391, 879.625,409.399, 879.62,409.403" />
  <polygon fill="#FFFFFF" points="879.619,409.393, 879.624,409.395, 879.623,409.401, 879.618,409.399" />
  <polygon fill="#000000" points="879.618,409.396, 879.621,409.394, 879.623,409.398, 879.62,409.4" />
  <polygon fill="#FFFFFF" points="879.62,409.395, 879.622,409.396, 879.622,409.399, 879.619,409.398" />
  <polygon fill="#000000" points="879.62,409.396, 879.621,409.395, 879.622,409.397, 879.62,409.399" />
  <!-- Shape 5 -->
  <polygon fill="#000000" points="444.733,285.252, 724.434,240.549, 458.515,600" />
  <polygon fill="#FFFFFF" points="463.613,282.235, 706.484,264.812, 457.585,578.755" />
  <polygon fill="#000000" points="482.532,280.878, 687.095,289.268, 458.055,555.656" />
  <polygon fill="#FFFFFF" points="500.595,281.618, 666.871,312.79, 460.216,531.393" />
  <polygon fill="#000000" points="517.007,284.695, 646.474,334.366, 464.201,506.74" />
  <polygon fill="#FFFFFF" points="531.132,290.114, 626.588,353.172, 469.962,482.515" />
  <polygon fill="#000000" points="542.539,297.65, 607.871,368.629, 477.272,459.523" />
  <polygon fill="#FFFFFF" points="551.025,306.87, 590.906,380.436, 485.75,438.496" />
  <polygon fill="#000000" points="556.621,317.191, 576.153,388.582, 494.908,420.029" />
  <polygon fill="#FFFFFF" points="559.564,327.95, 563.909,393.321, 504.208,404.531" />
  <polygon fill="#000000" points="560.264,338.481, 554.292,395.127, 513.126,392.194" />
  <polygon fill="#FFFFFF" points="559.24,348.196, 547.232,394.624, 521.21,382.982" />
  <polygon fill="#000000" points="557.056,356.641, 542.498,392.506, 528.128,376.654" />
  <polygon fill="#FFFFFF" points="533.691,372.806, 554.256,363.538, 539.735,389.458" />
  <polygon fill="#000000" points="537.859,370.927, 551.313,368.792, 538.51,386.082" />
  <polygon fill="#FFFFFF" points="540.726,370.472, 548.584,372.476, 538.371,382.853" />
  <polygon fill="#000000" points="542.483,370.92, 546.302,374.796, 538.898,380.086" />
  <polygon fill="#FFFFFF" points="543.376,371.827, 544.57,376.033, 539.736,377.942" />
  <polygon fill="#000000" points="543.668,372.854, 543.389,376.499, 540.625,376.448" />
  <polygon fill="#FFFFFF" points="543.597,373.783, 542.685,376.486, 541.4,375.533" />
  <polygon fill="#000000" points="541.982,375.069, 543.355,374.499, 542.344,376.233" />
  <polygon fill="#FFFFFF" points="542.361,374.912, 543.077,374.977, 542.245,375.912" />
  <polygon fill="#000000" points="542.565,374.93, 542.839,375.244, 542.278,375.626" />
  <polygon fill="#FFFFFF" points="542.646,375.023, 542.673,375.358, 542.363,375.42" />
  <polygon fill="#000000" points="542.654,375.126, 542.578,375.377, 542.45,375.299" />
  <polygon fill="#FFFFFF" points="542.515,375.244, 542.63,375.206, 542.537,375.352" />
  <polygon fill="#000000" points="542.553,375.231, 542.6,375.253, 542.53,375.317" />
  <polygon fill="#FFFFFF" points="542.568,375.239, 542.576,375.275, 542.537,375.288" />
  <polygon fill="#000000" points="542.571,375.251, 542.563,375.279, 542.548,375.271" />
  <polygon fill="#FFFFFF" points="542.556,375.264, 542.568,375.261, 542.557,375.276" />
  <polygon fill="#000000" points="542.561,375.263, 542.564,375.267, 542.557,375.272" />
  <polygon fill="#FFFFFF" points="542.562,375.264, 542.561,375.269, 542.558,375.268" />
  <polygon fill="#000000" points="542.56,375.267, 542.562,375.266, 542.56,375.269" />
  <polygon fill="#FFFFFF" points="542.561,375.266, 542.561,375.267, 542.56,375.268" />
  <polygon fill="#000000" points="542.561,375.267, 542.561,375.267, 542.56,375.267" />
  <polygon fill="#FFFFFF" points="542.561,375.267, 542.561,375.267, 542.561,375.267" />
  <polygon fill="#000000" points="542.561,375.267, 542.561,375.267, 542.561,375.267" />
  <polygon fill="#FFFFFF" points="542.561,375.267, 542.561,375.267, 542.561,375.267" />
  <polygon fill="#000000" points="542.561,375.267, 542.561,375.267, 542.561,375.267" />
  <polygon fill="#FFFFFF" points="542.561,375.267, 542.561,375.267, 542.561,375.267" />
  <polygon fill="#000000" points="542.561,375.267, 542.561,375.267, 542.561,375.267" />
  <!-- Shape 6 -->
  <polygon fill="#000000" points="724.434,240.549, 750.655,600, 458.515,600" />
  <polygon fill="#FFFFFF" points="706.484,264.812, 748.885,575.737, 478.235,600" />
  <polygon fill="#000000" points="689.012,290.471, 745.639,551.936, 498.953,598.143" />
  <polygon fill="#FFFFFF" points="672.743,316.807, 740.792,529.554, 520.069,594.187" />
  <polygon fill="#000000" points="658.292,343.061, 734.351,509.418, 540.961,588.07" />
  <polygon fill="#FFFFFF" points="646.125,368.469, 726.464,492.167, 561.015,579.914" />
  <polygon fill="#000000" points="636.529,392.309, 717.406,478.22, 579.67,570.02" />
  <polygon fill="#FFFFFF" points="629.603,413.954, 707.555,467.756, 596.446,558.839" />
  <polygon fill="#000000" points="625.265,432.912, 697.355,460.716, 610.985,546.921" />
  <polygon fill="#FFFFFF" points="623.267,448.862, 687.27,456.826, 623.068,534.861" />
  <polygon fill="#000000" points="623.237,461.672, 677.736,455.64, 632.631,523.237" />
  <polygon fill="#FFFFFF" points="624.721,471.399, 669.125,456.593, 639.757,512.557" />
  <polygon fill="#000000" points="627.233,478.274, 661.708,459.066, 644.663,503.208" />
  <polygon fill="#FFFFFF" points="655.637,462.449, 647.665,495.435, 630.303,482.665" />
  <polygon fill="#000000" points="650.946,466.192, 649.141,489.327, 633.517,485.03" />
  <polygon fill="#FFFFFF" points="647.561,469.85, 649.491,484.835, 636.551,485.864" />
  <polygon fill="#000000" points="645.324,473.105, 649.099,481.789, 639.181,485.655" />
  <polygon fill="#FFFFFF" points="644.02,475.769, 648.298,479.945, 641.287,484.834" />
  <polygon fill="#000000" points="643.415,477.776, 647.351,479.021, 642.839,483.752" />
  <polygon fill="#FFFFFF" points="643.282,479.153, 646.444,478.734, 643.878,482.662" />
  <polygon fill="#000000" points="643.425,479.993, 645.687,478.834, 644.493,481.722" />
  <polygon fill="#FFFFFF" points="645.125,479.122, 644.789,481.004, 643.69,480.423" />
  <polygon fill="#000000" points="644.755,479.457, 644.876,480.519, 643.973,480.572" />
  <polygon fill="#FFFFFF" points="644.547,479.755, 644.844,480.236, 644.214,480.558" />
  <polygon fill="#000000" points="644.455,479.976, 644.762,480.103, 644.387,480.469" />
  <polygon fill="#FFFFFF" points="644.436,480.117, 644.674,480.067, 644.494,480.365" />
  <polygon fill="#000000" points="644.604,480.082, 644.547,480.278, 644.453,480.19" />
  <polygon fill="#FFFFFF" points="644.558,480.114, 644.564,480.218, 644.481,480.216" />
  <polygon fill="#000000" points="644.534,480.146, 644.563,480.186, 644.507,480.217" />
  <polygon fill="#FFFFFF" points="644.526,480.169, 644.554,480.173, 644.525,480.207" />
  <polygon fill="#000000" points="644.525,480.181, 644.544,480.172, 644.534,480.196" />
  <polygon fill="#FFFFFF" points="644.538,480.175, 644.538,480.188, 644.528,480.186" />
  <polygon fill="#000000" points="644.535,480.179, 644.538,480.183, 644.532,480.187" />
  <polygon fill="#FFFFFF" points="644.534,480.182, 644.537,480.182, 644.534,480.186" />
  <polygon fill="#000000" points="644.534,480.183, 644.536,480.182, 644.535,480.184" />
  <polygon fill="#FFFFFF" points="644.535,480.182, 644.535,480.183, 644.534,480.184" />
  <polygon fill="#000000" points="644.535,480.183, 644.535,480.183, 644.535,480.183" />
  <polygon fill="#FFFFFF" points="644.535,480.183, 644.535,480.183, 644.535,480.183" />
  <polygon fill="#000000" points="644.535,480.183, 644.535,480.183, 644.535,480.183" />
  <polygon fill="#FFFFFF" points="644.535,480.183, 644.535,480.183, 644.535,480.183" />
  <polygon fill="#000000" points="644.535,480.183, 644.535,480.183, 644.535,480.183" />
  <polygon fill="#FFFFFF" points="644.535,480.183, 644.535,480.183, 644.535,480.183" />
  <polygon fill="#000000" points="644.535,480.183, 644.535,480.183, 644.535,480.183" />
  <!-- Shape 7 -->
  <polygon fill="#000000" points="319.651,0, 602.62,0, 587.593,262.42, 306.364,307.367" />
  <polygon fill="#FFFFFF" points="318.754,20.7473, 583.52,0, 588.608,244.706, 325.347,304.333" />
  <polygon fill="#000000" points="319.262,42.6118, 563.106,1.59962, 588.215,225.839, 345.644,299.736" />
  <polygon fill="#FFFFFF" points="321.549,64.9044, 541.965,5.15537, 586.038,206.398, 366.675,293.329" />
  <polygon fill="#000000" points="325.895,86.9017, 520.739,10.9092, 581.794,187.018, 387.8,284.958" />
  <polygon fill="#FFFFFF" points="332.451,107.876, 500.105,18.9568, 575.328,168.368, 408.344,274.586" />
  <polygon fill="#000000" points="341.216,127.131, 480.741,29.227, 566.64,151.111, 427.631,262.318" />
  <polygon fill="#FFFFFF" points="463.286,41.4747, 555.894,135.863, 445.021,248.406, 352.027,144.043" />
  <polygon fill="#000000" points="448.3,55.2906, 543.42,123.149, 459.955,233.246, 364.553,158.1" />
  <polygon fill="#FFFFFF" points="436.215,70.1261, 529.694,113.357, 471.999,217.359, 378.32,168.944" />
  <polygon fill="#000000" points="427.305,85.3342, 515.308,106.704, 480.878,201.353, 392.737,176.395" />
  <polygon fill="#FFFFFF" points="421.653,100.223, 500.919,103.21, 486.508,185.878, 407.148,180.476" />
  <polygon fill="#000000" points="419.142,114.114, 487.198,102.693, 489.002,171.568, 420.885,181.411" />
  <polygon fill="#FFFFFF" points="419.461,126.41, 474.764,104.78, 488.673,158.985, 433.33,179.613" />
  <polygon fill="#000000" points="422.128,136.641, 464.129,108.939, 485.998,148.561, 443.973,175.646" />
  <polygon fill="#FFFFFF" points="455.649,114.532, 481.583,140.561, 452.458,170.178, 426.538,144.516" />
  <polygon fill="#000000" points="449.492,120.874, 476.098,135.056, 458.618,163.914, 432.02,149.943" />
  <polygon fill="#FFFFFF" points="445.629,127.301, 470.215,131.92, 462.482,157.533, 437.901,153.032" />
  <polygon fill="#000000" points="443.846,133.237, 464.543,130.855, 464.266,151.624, 443.572,154.071" />
  <polygon fill="#FFFFFF" points="443.78,138.243, 459.57,131.427, 464.333,146.633, 448.545,153.483" />
  <polygon fill="#000000" points="444.971,142.052, 455.624,133.131, 463.143,142.833, 452.49,151.771" />
  <polygon fill="#FFFFFF" points="452.86,135.446, 461.192,140.316, 455.255,149.452, 446.922,144.574" />
  <polygon fill="#000000" points="451.262,137.902, 458.949,139.005, 456.852,146.993, 449.164,145.887" />
  <polygon fill="#FFFFFF" points="450.677,140.127, 456.807,138.698, 457.437,144.767, 451.307,146.195" />
  <polygon fill="#000000" points="450.859,141.877, 455.04,139.11, 457.255,143.017, 453.074,145.783" />
  <polygon fill="#FFFFFF" points="453.794,139.934, 456.595,141.853, 454.32,144.959, 451.519,143.04" />
  <polygon fill="#000000" points="453.095,140.889, 455.734,141.263, 455.019,144.004, 452.38,143.63" />
  <polygon fill="#FFFFFF" points="452.868,141.758, 454.897,141.144, 455.246,143.135, 453.217,143.749" />
  <polygon fill="#000000" points="452.982,142.409, 454.234,141.345, 455.132,142.485, 453.88,143.548" />
  <polygon fill="#FFFFFF" points="453.813,141.703, 454.83,142.101, 454.301,143.191, 453.284,142.792" />
  <polygon fill="#000000" points="453.63,142.08, 454.478,141.964, 454.484,142.814, 453.636,142.93" />
  <polygon fill="#FFFFFF" points="453.632,142.382, 454.177,142.005, 454.482,142.512, 453.937,142.889" />
  <polygon fill="#000000" points="453.978,142.142, 454.37,142.327, 454.136,142.751, 453.743,142.567" />
  <polygon fill="#FFFFFF" points="453.89,142.301, 454.223,142.258, 454.224,142.592, 453.891,142.636" />
  <polygon fill="#000000" points="453.89,142.43, 454.095,142.274, 454.224,142.463, 454.019,142.619" />
  <polygon fill="#FFFFFF" points="454.015,142.336, 454.173,142.389, 454.099,142.558, 453.941,142.504" />
  <polygon fill="#000000" points="453.985,142.404, 454.109,142.367, 454.129,142.49, 454.005,142.526" />
  <polygon fill="#FFFFFF" points="454.058,142.382, 454.121,142.439, 454.056,142.511, 453.993,142.454" />
  <polygon fill="#000000" points="454.03,142.413, 454.094,142.415, 454.084,142.481, 454.02,142.478" />
  <polygon fill="#FFFFFF" points="454.026,142.441, 454.067,142.414, 454.088,142.452, 454.047,142.479" />
  <polygon fill="#000000" points="454.049,142.426, 454.079,142.435, 454.065,142.467, 454.035,142.458" />
  <polygon fill="#FFFFFF" points="454.043,142.44, 454.065,142.431, 454.071,142.453, 454.049,142.462" />
  <polygon fill="#000000" points="454.055,142.435, 454.068,142.443, 454.059,142.458, 454.046,142.45" />
  <polygon fill="#FFFFFF" points="454.05,142.443, 454.062,142.439, 454.064,142.451, 454.052,142.454" />
  <polygon fill="#000000" points="454.056,142.441, 454.063,142.445, 454.058,142.452, 454.051,142.448" />
  <polygon fill="#FFFFFF" points="454.054,142.444, 454.06,142.443, 454.06,142.449, 454.054,142.45" />
  <polygon fill="#000000" points="454.057,142.444, 454.06,142.446, 454.057,142.45, 454.054,142.447" />
  <polygon fill="#FFFFFF" points="454.055,142.446, 454.058,142.445, 454.059,142.448, 454.056,142.448" />
  <polygon fill="#000000" points="454.057,142.445, 454.058,142.446, 454.057,142.448, 454.056,142.447" />
  <polygon fill="#FFFFFF" points="454.056,142.446, 454.058,142.446, 454.058,142.447, 454.056,142.448" />
  <!-- Shape 8 -->
  <polygon fill="#FFFFFF" points="602.62,0, 881.659,0, 865.09,218.069, 587.593,262.42" />
  <polygon fill="#000000" points="621.455,0, 880.541,14.7196, 846.359,221.062, 588.608,244.706" />
  <polygon fill="#FFFFFF" points="641.444,1.13562, 877.904,30.639, 826.473,222.886, 591.142,225.827" />
  <polygon fill="#000000" points="661.968,3.69651, 873.44,47.326, 806.047,223.142, 595.508,206.324" />
  <polygon fill="#FFFFFF" points="682.365,7.90458, 866.94,64.2835, 785.74,221.52, 601.918,186.781" />
  <polygon fill="#000000" points="701.948,13.8864, 858.324,80.9662, 766.237,217.834, 610.454,167.802" />
  <polygon fill="#FFFFFF" points="720.049,21.6509, 847.665,96.8086, 748.205,212.043, 621.044,149.986" />
  <polygon fill="#000000" points="736.052,31.0757, 835.193,111.259, 732.259,204.261, 633.459,133.893" />
  <polygon fill="#FFFFFF" points="749.441,41.9044, 821.292,123.819, 718.916,194.758, 647.314,120.007" />
  <polygon fill="#000000" points="662.092,108.706, 759.838,53.7574, 806.478,134.084, 708.555,183.941" />
  <polygon fill="#FFFFFF" points="677.179,100.225, 767.037,66.1558, 791.363,141.779, 701.384,172.329" />
  <polygon fill="#000000" points="691.916,94.6373, 771.026,78.558, 776.607,146.789, 697.414,160.504" />
  <polygon fill="#FFFFFF" points="705.653,91.8451, 771.995,90.4064, 762.855,149.171, 696.459,149.066" />
  <polygon fill="#000000" points="717.814,91.5814, 770.32,101.178, 750.685,149.152, 698.145,138.577" />
  <polygon fill="#FFFFFF" points="727.945,93.4331, 766.531,110.434, 740.547,147.111, 701.94,129.509" />
  <polygon fill="#000000" points="735.762,96.8775, 761.267,117.865, 732.725,143.545, 707.208,122.2" />
  <polygon fill="#FFFFFF" points="713.269,116.826, 741.176,101.332, 755.209,123.316, 727.309,139.015" />
  <polygon fill="#000000" points="719.461,113.388, 744.29,106.21, 749.018,126.799, 724.194,134.091" />
  <polygon fill="#FFFFFF" points="725.21,111.726, 745.385,110.978, 743.27,128.488, 723.098,129.297" />
  <polygon fill="#000000" points="730.076,111.545, 744.874,115.201, 738.404,128.683, 723.607,125.059" />
  <polygon fill="#FFFFFF" points="733.789,112.462, 743.251,118.583, 734.693,127.774, 725.23,121.669" />
  <polygon fill="#000000" points="727.46,119.271, 736.254,114.057, 741.022,120.977, 732.228,126.184" />
  <polygon fill="#FFFFFF" points="729.835,117.862, 737.542,115.926, 738.646,122.384, 730.94,124.316" />
  <polygon fill="#000000" points="731.992,117.32, 737.851,117.733, 736.49,122.924, 730.631,122.51" />
  <polygon fill="#FFFFFF" points="733.688,117.44, 737.457,119.236, 734.794,122.804, 731.025,121.008" />
  <polygon fill="#000000" points="731.821,119.941, 734.815,117.977, 736.66,120.303, 733.666,122.267" />
  <polygon fill="#FFFFFF" points="732.745,119.335, 735.385,118.695, 735.736,120.91, 733.097,121.549" />
  <polygon fill="#000000" points="733.586,119.131, 735.497,119.4, 734.896,121.113, 732.985,120.844" />
  <polygon fill="#FFFFFF" points="734.213,119.219, 735.299,119.962, 734.269,121.025, 733.182,120.282" />
  <polygon fill="#000000" points="733.53,119.923, 734.58,119.47, 734.951,120.321, 733.902,120.774" />
  <polygon fill="#FFFFFF" points="733.895,119.766, 734.709,119.766, 734.587,120.478, 733.773,120.478" />
  <polygon fill="#000000" points="734.185,119.766, 734.665,120.02, 734.296,120.478, 733.816,120.224" />
  <polygon fill="#FFFFFF" points="733.951,120.056, 734.361,119.859, 734.53,120.188, 734.12,120.385" />
  <polygon fill="#000000" points="734.106,119.982, 734.425,119.983, 734.376,120.262, 734.057,120.261" />
  <polygon fill="#FFFFFF" points="734.229,119.982, 734.406,120.091, 734.253,120.262, 734.076,120.153" />
  <polygon fill="#000000" points="734.136,120.086, 734.299,120.025, 734.345,120.158, 734.183,120.219" />
  <polygon fill="#FFFFFF" points="734.202,120.061, 734.318,120.079, 734.279,120.183, 734.164,120.165" />
  <polygon fill="#000000" points="734.18,120.122, 734.25,120.069, 734.302,120.122, 734.231,120.175" />
  <polygon fill="#FFFFFF" points="734.21,120.099, 734.272,120.091, 734.272,120.145, 734.209,120.153" />
  <polygon fill="#000000" points="734.237,120.096, 734.272,120.115, 734.245,120.148, 734.209,120.13" />
  <polygon fill="#FFFFFF" points="734.222,120.115, 734.252,120.104, 734.26,120.13, 734.229,120.14" />
  <polygon fill="#000000" points="734.235,120.11, 734.256,120.116, 734.246,120.134, 734.226,120.128" />
  <polygon fill="#FFFFFF" points="734.23,120.12, 734.245,120.113, 734.251,120.124, 734.237,120.132" />
  <polygon fill="#000000" points="734.237,120.116, 734.248,120.118, 734.244,120.128, 734.234,120.126" />
  <polygon fill="#FFFFFF" points="734.235,120.121, 734.242,120.117, 734.246,120.123, 734.239,120.127" />
  <polygon fill="#000000" points="734.239,120.119, 734.244,120.12, 734.243,120.125, 734.237,120.124" />
  <polygon fill="#FFFFFF" points="734.238,120.122, 734.241,120.12, 734.243,120.122, 734.24,120.124" />
  <polygon fill="#000000" points="734.24,120.121, 734.242,120.121, 734.242,120.123, 734.239,120.123" />
  <polygon fill="#FFFFFF" points="734.239,120.122, 734.241,120.121, 734.242,120.122, 734.24,120.123" />
  <polygon fill="#000000" points="734.24,120.121, 734.242,120.122, 734.241,120.123, 734.24,120.122" />
  <!-- Shape 9 -->
  <polygon fill="#000000" points="881.659,0, 1162.01,0, 1139.06,174.281, 865.09,218.069" />
  <polygon fill="#FFFFFF" points="880.425,16.2461, 1141.12,0, 1140.77,161.297, 885.501,214.806" />
  <polygon fill="#000000" points="880.853,32.9847, 1119.15,1.36955, 1140.8,147.699, 907.02,210.296" />
  <polygon fill="#FFFFFF" points="883.315,49.6697, 1096.72,4.34454, 1138.76,133.93, 929.019,204.405" />
  <polygon fill="#000000" points="888.064,65.7467, 1074.55,9.05382, 1134.4,120.466, 950.812,197.083" />
  <polygon fill="#FFFFFF" points="895.198,80.6796, 1053.35,15.4998, 1127.59,107.798, 971.685,188.372" />
  <polygon fill="#000000" points="904.644,93.9796, 1033.81,23.5495, 1118.42,96.3995, 990.94,178.421" />
  <polygon fill="#FFFFFF" points="1016.6,32.9378, 1107.14,86.6886, 1007.93,167.487, 916.148,105.236" />
  <polygon fill="#000000" points="1002.22,43.2836, 1094.19,78.9969, 1022.13,155.925, 929.282,114.144" />
  <polygon fill="#FFFFFF" points="991.07,54.1182, 1080.13,73.5363, 1033.15,144.163, 943.479,120.532" />
  <polygon fill="#000000" points="983.327,64.9237, 1065.64,70.377, 1040.79,132.672, 958.068,124.377" />
  <polygon fill="#FFFFFF" points="978.969,75.1794, 1051.44,69.4363, 1045.08,121.926, 972.338,125.808" />
  <polygon fill="#000000" points="977.76,84.4089, 1038.23,70.4833, 1046.24,112.357, 985.598,125.1" />
  <polygon fill="#FFFFFF" points="979.266,92.2257, 1026.61,73.1584, 1044.7,104.313, 997.247,122.652" />
  <polygon fill="#000000" points="1017.05,77.0081, 1041.05,98.023, 1006.83,118.949, 982.896,98.3688" />
  <polygon fill="#FFFFFF" points="1009.82,81.5301, 1035.97,93.5741, 1014.07,114.519, 987.962,102.726" />
  <polygon fill="#000000" points="1004.98,86.225, 1030.18,90.9064, 1018.92,109.88, 993.745,105.338" />
  <polygon fill="#FFFFFF" points="1002.38,90.6458, 1024.35,89.8236, 1021.52,105.491, 999.569,106.389" />
  <polygon fill="#000000" points="1001.7,94.4414, 1019.05,90.0218, 1022.2,101.714, 1004.86,106.172" />
  <polygon fill="#FFFFFF" points="1002.5,97.3847, 1014.7,91.1307, 1021.41,98.7803, 1009.21,105.054" />
  <polygon fill="#000000" points="1011.52,92.7611, 1019.66,96.7861, 1012.39,103.418, 1004.25,99.384" />
  <polygon fill="#FFFFFF" points="1009.55,94.5526, 1017.46,95.6973, 1014.36,101.624, 1006.45,100.475" />
  <polygon fill="#000000" points="1008.68,96.2127, 1015.24,95.3764, 1015.23,99.9629, 1008.67,100.797" />
  <polygon fill="#FFFFFF" points="1008.68,97.5427, 1013.34,95.619, 1015.23,98.6324, 1010.57,100.555" />
  <polygon fill="#000000" points="1011.94,96.1959, 1014.67,97.7287, 1011.97,99.9786, 1009.25,98.4461" />
  <polygon fill="#FFFFFF" points="1011.11,96.8928, 1013.82,97.254, 1012.8,99.2818, 1010.09,98.9207" />
  <polygon fill="#000000" points="1010.78,97.5407, 1012.95,97.1386, 1013.13,98.6339, 1010.96,99.0361" />
  <polygon fill="#FFFFFF" points="1010.84,98.0332, 1012.24,97.271, 1013.07,98.1415, 1011.67,98.9036" />
  <polygon fill="#000000" points="1011.76,97.5295, 1012.79,97.8463, 1012.15,98.6452, 1011.12,98.3283" />
  <polygon fill="#FFFFFF" points="1011.54,97.8082, 1012.43,97.7358, 1012.37,98.3665, 1011.48,98.4389" />
  <polygon fill="#000000" points="1011.52,98.0344, 1012.11,97.7617, 1012.39,98.1402, 1011.8,98.4129" />
  <polygon fill="#FFFFFF" points="1011.89,97.8622, 1012.29,98.0008, 1012.02,98.3124, 1011.62,98.1739" />
  <polygon fill="#000000" points="1011.79,97.9801, 1012.14,97.9484, 1012.12,98.1945, 1011.77,98.2263" />
  <polygon fill="#FFFFFF" points="1011.78,98.0757, 1012,97.9607, 1012.13,98.099, 1011.91,98.214" />
  <polygon fill="#000000" points="1011.92,98.0064, 1012.08,98.044, 1011.99,98.1682, 1011.83,98.1307" />
  <polygon fill="#FFFFFF" points="1011.88,98.0571, 1012.01,98.0287, 1012.03,98.1176, 1011.9,98.146" />
  <polygon fill="#000000" points="1011.96,98.0405, 1012.02,98.0804, 1011.95,98.1341, 1011.89,98.0942" />
  <polygon fill="#FFFFFF" points="1011.93,98.0635, 1011.99,98.0634, 1011.98,98.1112, 1011.92,98.1113" />
  <polygon fill="#000000" points="1011.92,98.0844, 1011.97,98.0634, 1011.99,98.0903, 1011.95,98.1112" />
  <polygon fill="#FFFFFF" points="1011.95,98.0728, 1011.98,98.0783, 1011.96,98.1019, 1011.93,98.0964" />
  <polygon fill="#000000" points="1011.94,98.0836, 1011.96,98.0758, 1011.97,98.0911, 1011.95,98.0989" />
  <polygon fill="#FFFFFF" points="1011.95,98.0794, 1011.97,98.084, 1011.96,98.0953, 1011.94,98.0907" />
  <polygon fill="#000000" points="1011.95,98.0848, 1011.96,98.0818, 1011.96,98.0899, 1011.95,98.0929" />
  <polygon fill="#FFFFFF" points="1011.95,98.0832, 1011.96,98.0859, 1011.96,98.0914, 1011.95,98.0887" />
  <polygon fill="#000000" points="1011.95,98.086, 1011.96,98.0846, 1011.96,98.0887, 1011.95,98.0901" />
  <polygon fill="#FFFFFF" points="1011.95,98.0853, 1011.96,98.0866, 1011.96,98.0894, 1011.95,98.088" />
  <polygon fill="#000000" points="1011.95,98.0867, 1011.96,98.0859, 1011.96,98.088, 1011.95,98.0887" />
  <polygon fill="#FFFFFF" points="1011.95,98.0863, 1011.96,98.0869, 1011.96,98.0883, 1011.95,98.0878" />
  <!-- Shape 10 -->
  <polygon fill="#000000" points="0,0, 306.364,307.367, 0,356.332" />
  <polygon fill="#FFFFFF" points="20.6796,20.7473, 285.684,310.672, 0,332.279" />
  <polygon fill="#000000" points="41.1247,43.115, 263.644,312.339, 1.59543,308.245" />
  <polygon fill="#FFFFFF" points="60.4393,66.4837, 240.898,311.984, 5.02657,285.232" />
  <polygon fill="#000000" points="77.8446,90.1622, 218.148,309.404, 10.3711,264.133" />
  <polygon fill="#FFFFFF" points="92.7308,113.424, 196.103,304.6, 17.5301,245.675" />
  <polygon fill="#000000" points="104.696,135.552, 175.433,297.78, 26.2345,230.367" />
  <polygon fill="#FFFFFF" points="36.0736,218.477, 113.567,155.896, 156.724,289.326" />
  <polygon fill="#000000" points="46.539,210.026, 119.395,173.915, 140.43,279.758" />
  <polygon fill="#FFFFFF" points="57.0813,204.8, 122.439,189.231, 126.844,269.668" />
  <polygon fill="#000000" points="67.1692,202.397, 123.119,201.646, 116.076,259.655" />
  <polygon fill="#FFFFFF" points="76.3449,202.274, 121.964,211.16, 108.055,250.265" />
  <polygon fill="#000000" points="84.2666,203.817, 119.548,217.95, 102.549,241.931" />
  <polygon fill="#FFFFFF" points="90.7338,206.408, 116.432,222.346, 99.1977,234.945" />
  <polygon fill="#000000" points="95.6923,209.483, 113.107,224.777, 97.5646,229.439" />
  <polygon fill="#FFFFFF" points="99.2205,212.582, 109.958,225.722, 97.1852,225.396" />
  <polygon fill="#000000" points="101.5,215.371, 107.247,225.652, 97.6172,222.676" />
  <polygon fill="#FFFFFF" points="98.4787,221.055, 102.775,217.652, 105.11,224.992" />
  <polygon fill="#000000" points="99.4735,220.267, 103.316,219.352, 103.575,224.08" />
  <polygon fill="#FFFFFF" points="100.4,220.046, 103.378,220.492, 102.585,223.161" />
  <polygon fill="#000000" points="101.147,220.158, 103.179,221.162, 102.037,222.379" />
  <polygon fill="#FFFFFF" points="101.677,220.42, 102.882,221.479, 101.805,221.801" />
  <polygon fill="#000000" points="102.002,220.706, 102.591,221.566, 101.771,221.428" />
  <polygon fill="#FFFFFF" points="101.835,221.226, 102.167,220.946, 102.361,221.527" />
  <polygon fill="#000000" points="101.931,221.145, 102.223,221.114, 102.209,221.44" />
  <polygon fill="#FFFFFF" points="102.019,221.136, 102.219,221.212, 102.126,221.352" />
  <polygon fill="#000000" points="102.081,221.159, 102.19,221.255, 102.093,221.285" />
  <polygon fill="#FFFFFF" points="102.116,221.19, 102.159,221.264, 102.089,221.245" />
  <polygon fill="#000000" points="102.098,221.227, 102.13,221.214, 102.136,221.258" />
  <polygon fill="#FFFFFF" points="102.109,221.223, 102.132,221.229, 102.123,221.247" />
  <polygon fill="#000000" points="102.117,221.225, 102.129,221.235, 102.118,221.239" />
  <polygon fill="#FFFFFF" points="102.121,221.229, 102.125,221.237, 102.118,221.234" />
  <polygon fill="#000000" points="102.119,221.232, 102.123,221.232, 102.122,221.236" />
  <polygon fill="#FFFFFF" points="102.12,221.232, 102.123,221.233, 102.121,221.234" />
  <polygon fill="#000000" points="102.121,221.232, 102.122,221.234, 102.121,221.233" />
  <polygon fill="#FFFFFF" points="102.121,221.233, 102.121,221.233, 102.121,221.233" />
  <polygon fill="#000000" points="102.121,221.233, 102.121,221.233, 102.121,221.233" />
  <polygon fill="#FFFFFF" points="102.121,221.233, 102.121,221.233, 102.121,221.233" />
  <polygon fill="#000000" points="102.121,221.233, 102.121,221.233, 102.121,221.233" />
  <polygon fill="#FFFFFF" points="102.121,221.233, 102.121,221.233, 102.121,221.233" />
  <polygon fill="#000000" points="102.121,221.233, 102.121,221.233, 102.121,221.233" />
  <polygon fill="#FFFFFF" points="102.121,221.233, 102.121,221.233, 102.121,221.233" />
  <polygon fill="#000000" points="102.121,221.233, 102.121,221.233, 102.121,221.233" />
  <polygon fill="#FFFFFF" points="102.121,221.233, 102.121,221.233, 102.121,221.233" />
  <polygon fill="#000000" points="102.121,221.233, 102.121,221.233, 102.121,221.233" />
  <polygon fill="#FFFFFF" points="102.121,221.233, 102.121,221.233, 102.121,221.233" />
  <!-- Shape 11 -->
  <polygon fill="#FFFFFF" points="0,0, 319.651,0, 306.364,307.367" />
  <polygon fill="#000000" points="21.5764,0, 318.754,20.7473, 285.684,286.62" />
  <polygon fill="#FFFFFF" points="44.3996,1.59339, 316.214,41.1663, 265.401,264.607" />
  <polygon fill="#000000" points="67.8029,5.00062, 311.839,60.4046, 246.373,241.962" />
  <polygon fill="#FFFFFF" points="91.0839,10.2862, 305.594,77.7252, 229.337,219.356" />
  <polygon fill="#000000" points="113.543,17.347, 297.609,92.5539, 214.862,197.466" />
  <polygon fill="#FFFFFF" points="134.527,25.9206, 288.176,104.514, 203.312,176.933" />
  <polygon fill="#000000" points="153.472,35.6112, 277.712,113.443, 194.83,158.313" />
  <polygon fill="#FFFFFF" points="169.946,45.9317, 266.722,119.393, 189.346,142.043" />
  <polygon fill="#000000" points="183.679,56.3558, 255.743,122.607, 186.593,128.404" />
  <polygon fill="#FFFFFF" points="194.575,66.373, 245.287,123.483, 186.153,117.511" />
  <polygon fill="#000000" points="202.714,75.5392, 235.796,122.525, 187.504,109.303" />
  <polygon fill="#FFFFFF" points="208.331,83.5174, 227.596,120.28, 190.087,103.57" />
  <polygon fill="#000000" points="193.355,99.9786, 211.782,90.1015, 220.878,117.287" />
  <polygon fill="#FFFFFF" points="196.826,98.1177, 213.495,95.2233, 215.693,114.026" />
  <polygon fill="#000000" points="200.122,97.5455, 213.93,98.9406, 211.963,110.881" />
  <polygon fill="#FFFFFF" points="202.98,97.8343, 213.523,101.412, 209.512,108.121" />
  <polygon fill="#000000" points="205.26,98.6082, 212.655,102.863, 208.099,105.896" />
  <polygon fill="#FFFFFF" points="206.929,99.5682, 211.627,103.547, 207.459,104.252" />
  <polygon fill="#000000" points="208.032,100.503, 210.648,103.713, 207.334,103.151" />
  <polygon fill="#FFFFFF" points="208.671,101.287, 209.839,103.576, 207.505,102.505" />
  <polygon fill="#000000" points="207.8,102.196, 208.967,101.867, 209.247,103.304" />
  <polygon fill="#FFFFFF" points="208.107,102.109, 209.041,102.245, 208.867,103.013" />
  <polygon fill="#000000" points="208.361,102.146, 208.993,102.454, 208.66,102.767" />
  <polygon fill="#FFFFFF" points="208.539,102.233, 208.9,102.542, 208.576,102.592" />
  <polygon fill="#000000" points="208.644,102.323, 208.806,102.557, 208.565,102.488" />
  <polygon fill="#FFFFFF" points="208.589,102.438, 208.692,102.393, 208.733,102.536" />
  <polygon fill="#000000" points="208.621,102.424, 208.705,102.437, 208.689,102.506" />
  <polygon fill="#FFFFFF" points="208.648,102.428, 208.7,102.459, 208.667,102.48" />
  <polygon fill="#000000" points="208.665,102.438, 208.689,102.466, 208.661,102.463" />
  <polygon fill="#FFFFFF" points="208.662,102.455, 208.673,102.448, 208.68,102.465" />
  <polygon fill="#000000" points="208.666,102.452, 208.675,102.454, 208.673,102.461" />
  <polygon fill="#FFFFFF" points="208.669,102.453, 208.675,102.456, 208.671,102.458" />
  <polygon fill="#000000" points="208.671,102.454, 208.673,102.457, 208.67,102.456" />
  <polygon fill="#FFFFFF" points="208.671,102.455, 208.672,102.455, 208.672,102.457" />
  <polygon fill="#000000" points="208.671,102.455, 208.672,102.456, 208.671,102.456" />
  <polygon fill="#FFFFFF" points="208.671,102.455, 208.672,102.456, 208.671,102.456" />
  <polygon fill="#000000" points="208.672,102.456, 208.671,102.456, 208.672,102.456" />
  <polygon fill="#FFFFFF" points="208.671,102.456, 208.672,102.456, 208.671,102.456" />
  <polygon fill="#000000" points="208.672,102.456, 208.671,102.456, 208.672,102.456" />
  <polygon fill="#FFFFFF" points="208.671,102.456, 208.672,102.456, 208.671,102.456" />
  <polygon fill="#000000" points="208.672,102.456, 208.671,102.456, 208.672,102.456" />
  <polygon fill="#FFFFFF" points="208.672,102.456, 208.672,102.456, 208.672,102.456" />
  <polygon fill="#000000" points="208.672,102.456, 208.672,102.456, 208.672,102.456" />
  <polygon fill="#FFFFFF" points="208.672,102.456, 208.672,102.456, 208.672,102.456" />
  <polygon fill="#000000" points="208.672,102.456, 208.672,102.456, 208.672,102.456" />
  <polygon fill="#FFFFFF" points="208.672,102.456, 208.672,102.456, 208.672,102.456" />
  <polygon fill="#000000" points="208.672,102.456, 208.672,102.456, 208.672,102.456" />
  <!-- Shape 12 -->
  <polygon fill="#FFFFFF" points="0,356.332, 171.43,328.933, 172.166,462.377, 0,482.096" />
  <polygon fill="#000000" points="0,369.977, 152.83,331.906, 172.086,447.899, 18.68,479.957" />
  <polygon fill="#FFFFFF" points="2.2743,383.367, 134.223,336.541, 169.742,433.776, 37.3573,476.054" />
  <polygon fill="#000000" points="7.0105,395.88, 116.41,342.863, 164.947,420.65, 55.2292,470.346" />
  <polygon fill="#FFFFFF" points="14.1589,406.92, 100.191,350.722, 157.751,409.118, 71.4949,462.979" />
  <polygon fill="#000000" points="86.2971,359.798, 148.455,399.687, 85.4253,454.28, 23.4187,415.973" />
  <polygon fill="#FFFFFF" points="75.3091,369.615, 137.593,392.716, 96.4398,444.74, 34.2543,422.667" />
  <polygon fill="#000000" points="67.5908,379.589, 125.884,388.373, 104.177,434.96, 45.9452,426.817" />
  <polygon fill="#FFFFFF" points="63.2346,389.093, 114.152,386.605, 108.545,425.584, 57.6643,428.456" />
  <polygon fill="#000000" points="62.0398,397.537, 103.23,387.139, 109.748,417.223, 68.5782,427.84" />
  <polygon fill="#FFFFFF" points="63.5289,404.438, 93.8493,389.507, 108.264,410.371, 77.9546,425.422" />
  <polygon fill="#000000" points="86.5421,393.105, 104.79,405.343, 85.2591,421.795, 67.0055,409.495" />
  <polygon fill="#FFFFFF" points="81.5749,397.273, 100.15,402.232, 90.2247,417.612, 71.6465,412.622" />
  <polygon fill="#000000" points="78.919,401.379, 95.1813,400.905, 92.8798,413.498, 76.6161,413.957" />
  <polygon fill="#FFFFFF" points="78.2725,404.91, 90.6157,401.038, 93.526,409.962, 81.1822,413.828" />
  <polygon fill="#000000" points="86.9868,402.176, 92.6703,407.339, 84.8112,412.691, 79.1279,407.532" />
  <polygon fill="#FFFFFF" points="84.5722,403.822, 90.9241,405.752, 87.2259,411.047, 80.8741,409.117" />
  <polygon fill="#000000" points="83.3869,405.519, 88.8883,405.134, 88.4112,409.35, 82.9099,409.736" />
  <polygon fill="#FFFFFF" points="83.2277,406.926, 87.0522,405.262, 88.5704,407.943, 84.746,409.607" />
  <polygon fill="#000000" points="85.7251,405.84, 88.0436,407.013, 86.073,409.029, 83.7546,407.856" />
  <polygon fill="#FFFFFF" points="85.0152,406.566, 87.2084,406.59, 86.7829,408.303, 84.5898,408.279" />
  <polygon fill="#000000" points="84.8563,407.206, 86.3892,406.581, 86.9418,407.663, 85.4089,408.288" />
  <polygon fill="#FFFFFF" points="85.7964,406.823, 86.7281,407.245, 86.0018,408.046, 85.07,407.624" />
  <polygon fill="#000000" points="85.5058,407.143, 86.3554,407.076, 86.2923,407.726, 85.4427,407.793" />
  <polygon fill="#FFFFFF" points="85.4798,407.412, 86.0043,407.104, 86.3184,407.457, 85.7938,407.765" />
  <polygon fill="#000000" points="85.7806,407.235, 86.1844,407.306, 86.0176,407.634, 85.6137,407.563" />
  <polygon fill="#FFFFFF" points="85.7072,407.379, 86.0069,407.275, 86.0909,407.49, 85.7913,407.594" />
  <polygon fill="#000000" points="85.8711,407.322, 86.0529,407.393, 85.927,407.547, 85.7453,407.477" />
  <polygon fill="#FFFFFF" points="85.8125,407.394, 85.9681,407.36, 85.9857,407.475, 85.83,407.509" />
  <polygon fill="#000000" points="85.8935,407.376, 85.9773,407.42, 85.9047,407.493, 85.8209,407.449" />
  <polygon fill="#FFFFFF" points="85.8577,407.412, 85.936,407.398, 85.9404,407.457, 85.8622,407.471" />
  <polygon fill="#000000" points="85.8964,407.405, 85.9382,407.427, 85.9018,407.464, 85.86,407.442" />
  <polygon fill="#FFFFFF" points="85.8775,407.424, 85.9165,407.416, 85.9207,407.445, 85.8817,407.453" />
  <polygon fill="#000000" points="85.8957,407.42, 85.9184,407.429, 85.9025,407.449, 85.8797,407.44" />
  <polygon fill="#FFFFFF" points="85.887,407.431, 85.906,407.424, 85.9112,407.438, 85.8921,407.445" />
  <polygon fill="#000000" points="85.8954,407.428, 85.9083,407.431, 85.9028,407.441, 85.8899,407.439" />
  <polygon fill="#FFFFFF" points="85.8922,407.434, 85.9009,407.429, 85.9059,407.435, 85.8972,407.44" />
  <polygon fill="#000000" points="85.8958,407.432, 85.903,407.432, 85.9023,407.437, 85.8952,407.438" />
  <polygon fill="#FFFFFF" points="85.8987,407.432, 85.9027,407.434, 85.8995,407.437, 85.8954,407.435" />
  <polygon fill="#000000" points="85.8967,407.434, 85.9003,407.433, 85.9015,407.435, 85.8979,407.437" />
  <polygon fill="#FFFFFF" points="85.898,407.433, 85.9007,407.434, 85.9001,407.436, 85.8974,407.436" />
  <polygon fill="#000000" points="85.899,407.434, 85.9005,407.434, 85.8992,407.436, 85.8977,407.435" />
  <polygon fill="#FFFFFF" points="85.8981,407.434, 85.8995,407.434, 85.9,407.435, 85.8986,407.435" />
  <polygon fill="#000000" points="85.8985,407.435, 85.8986,407.434, 85.8997,407.434, 85.8996,407.435" />
  <polygon fill="#FFFFFF" points="85.8989,407.434, 85.8997,407.434, 85.8992,407.435, 85.8985,407.435" />
  <!-- Shape 13 -->
  <polygon fill="#000000" points="0,482.096, 172.166,462.377, 172.926,600, 0,600" />
  <polygon fill="#FFFFFF" points="17.561,480.085, 172.244,476.415, 155.287,600, 0,587.974" />
  <polygon fill="#000000" points="34.8236,479.675, 170.351,490.207, 137.957,598.658, 1.9598,575.933" />
  <polygon fill="#FFFFFF" points="51.2496,480.952, 166.425,503.351, 121.474,595.904, 5.94289,564.267" />
  <polygon fill="#000000" points="66.3145,483.882, 160.546,515.457, 106.363,591.766, 11.869,553.369" />
  <polygon fill="#FFFFFF" points="79.5446,488.315, 152.938,526.171, 93.0959,586.375, 19.5132,543.613" />
  <polygon fill="#000000" points="28.5179,535.318, 90.5537,493.993, 143.962,535.201, 82.0585,579.96" />
  <polygon fill="#FFFFFF" points="38.4188,528.723, 99.0776,500.57, 134.082,542.345, 73.5134,572.836" />
  <polygon fill="#000000" points="48.6823,523.959, 105,507.638, 123.834,547.504, 67.5754,565.372" />
  <polygon fill="#FFFFFF" points="58.752,521.041, 108.368,514.766, 113.775,550.699, 64.1973,557.967" />
  <polygon fill="#000000" points="68.0996,519.859, 109.387,521.536, 104.435,552.068, 63.1714,551.01" />
  <polygon fill="#FFFFFF" points="76.2744,520.191, 108.406,527.581, 96.2644,551.859, 64.1472,544.842" />
  <polygon fill="#000000" points="82.9449,521.725, 105.885,532.621, 89.5969,550.402, 66.6648,539.725" />
  <polygon fill="#FFFFFF" points="70.2008,535.815, 87.9276,524.092, 102.348,536.483, 84.616,548.083" />
  <polygon fill="#000000" points="74.2213,533.156, 91.1981,526.902, 98.3261,539.114, 81.3467,545.301" />
  <polygon fill="#FFFFFF" points="78.2346,531.678, 92.8831,529.789, 94.3121,540.577, 79.6622,542.43" />
  <polygon fill="#000000" points="81.8381,531.213, 93.2347,532.443, 90.7083,541.032, 79.311,539.785" />
  <polygon fill="#FFFFFF" points="84.7511,531.528, 92.5889,534.638, 87.7951,540.714, 79.957,537.594" />
  <polygon fill="#000000" points="81.2284,535.985, 86.8297,532.353, 91.3176,536.249, 85.7165,539.886" />
  <polygon fill="#FFFFFF" points="82.7676,534.987, 88.063,533.423, 89.7784,537.249, 84.4831,538.814" />
  <polygon fill="#000000" points="84.2736,534.542, 88.5508,534.511, 88.2724,537.694, 83.9952,537.726" />
  <polygon fill="#FFFFFF" points="85.5311,534.533, 88.469,535.447, 87.0149,537.703, 84.0771,536.79" />
  <polygon fill="#000000" points="84.5185,536.105, 86.4231,534.811, 88.0275,536.132, 86.123,537.426" />
  <polygon fill="#FFFFFF" points="85.115,535.699, 86.9256,535.225, 87.431,536.537, 85.6205,537.012" />
  <polygon fill="#000000" points="85.6995,535.546, 87.0887,535.648, 86.8466,536.691, 85.4573,536.588" />
  <polygon fill="#FFFFFF" points="86.1613,535.58, 87.0082,535.995, 86.3848,536.657, 85.5378,536.242" />
  <polygon fill="#000000" points="85.751,536.016, 86.4509,535.722, 86.795,536.221, 86.0951,536.515" />
  <polygon fill="#FFFFFF" points="85.9971,535.912, 86.5719,535.897, 86.5489,536.324, 85.9741,536.339" />
  <polygon fill="#000000" points="86.2047,535.907, 86.5636,536.052, 86.3413,536.33, 85.9824,536.185" />
  <polygon fill="#FFFFFF" points="86.0649,536.082, 86.3378,535.961, 86.4812,536.155, 86.2082,536.276" />
  <polygon fill="#000000" points="86.1687,536.036, 86.3923,536.034, 86.3774,536.201, 86.1537,536.202" />
  <polygon fill="#FFFFFF" points="86.2559,536.035, 86.3865,536.099, 86.2901,536.201, 86.1595,536.137" />
  <polygon fill="#000000" points="86.1981,536.097, 86.3081,536.061, 86.348,536.14, 86.238,536.176" />
  <polygon fill="#FFFFFF" points="86.2431,536.082, 86.3244,536.093, 86.303,536.155, 86.2216,536.143" />
  <polygon fill="#000000" points="86.2306,536.118, 86.2772,536.087, 86.3154,536.119, 86.2689,536.15" />
  <polygon fill="#FFFFFF" points="86.2506,536.104, 86.2936,536.101, 86.2955,536.132, 86.2525,536.136" />
  <polygon fill="#000000" points="86.2694,536.103, 86.2944,536.114, 86.2767,536.134, 86.2516,536.122" />
  <polygon fill="#FFFFFF" points="86.2596,536.113, 86.2806,536.108, 86.2865,536.123, 86.2655,536.129" />
  <polygon fill="#000000" points="86.2692,536.111, 86.2833,536.115, 86.2769,536.126, 86.2628,536.122" />
  <polygon fill="#FFFFFF" points="86.2658,536.117, 86.2758,536.113, 86.2803,536.12, 86.2703,536.124" />
  <polygon fill="#000000" points="86.2705,536.115, 86.2779,536.116, 86.2755,536.122, 86.2681,536.12" />
  <polygon fill="#FFFFFF" points="86.2693,536.118, 86.2741,536.116, 86.2768,536.119, 86.2719,536.121" />
  <polygon fill="#000000" points="86.2717,536.117, 86.2754,536.117, 86.2744,536.12, 86.2706,536.119" />
  <polygon fill="#FFFFFF" points="86.2712,536.118, 86.2736,536.117, 86.2749,536.119, 86.2725,536.12" />
  <polygon fill="#000000" points="86.2724,536.117, 86.2743,536.118, 86.2736,536.119, 86.2718,536.119" />
  <polygon fill="#FFFFFF" points="86.2734,536.118, 86.2739,536.119, 86.2727,536.119, 86.2721,536.118" />
  <polygon fill="#000000" points="86.2724,536.119, 86.2728,536.118, 86.2737,536.118, 86.2733,536.119" />
  <polygon fill="#FFFFFF" points="86.2733,536.118, 86.2735,536.119, 86.2728,536.119, 86.2726,536.118" />
</svg>
