<?xml version="1.0" standalone="no"?>
<!DOCTYPE svg PUBLIC "-//W3C//DTD SVG 1.1//EN" "http://www.w3.org/Graphics/SVG/1.1/DTD/svg11.dtd">
<svg viewBox="0, 0, 1500, 500" xmlns="http://www.w3.org/2000/svg" version="1.1">
  <!-- Shape 1 -->
  <polygon fill="#FFFFFF" points="227.716,0, 1176.18,0, 836.542,334.914" />
  <polygon fill="#000000" points="243.85,8.87521, 1151.05,0, 845.543,326.038" />
  <polygon fill="#FFFFFF" points="262.562,18.739, 1122.84,0.276019, 855.044,315.899" />
  <polygon fill="#000000" points="283.714,29.3476, 1092.12,0.935147, 864.604,304.631" />
  <polygon fill="#FFFFFF" points="307.124,40.4415, 1059.54,2.08017, 873.773,292.392" />
  <polygon fill="#000000" points="332.566,51.7541, 1025.76,3.80259, 882.115,279.357" />
  <polygon fill="#FFFFFF" points="359.769,63.0204, 991.448,6.17619, 889.225,265.717" />
  <polygon fill="#000000" points="388.413,73.9863, 957.274,9.25147, 894.755,251.676" />
  <polygon fill="#FFFFFF" points="418.135,84.4167, 923.882,13.0514, 898.425,237.446" />
  <polygon fill="#000000" points="448.537,94.1034, 891.868,17.5688, 900.037,223.241" />
  <polygon fill="#FFFFFF" points="479.194,102.872, 861.766,22.7655, 899.482,209.276" />
  <polygon fill="#000000" points="509.665,110.586, 834.03,28.5732, 896.748,195.754" />
  <polygon fill="#FFFFFF" points="809.021,34.8964, 891.912,182.865, 539.509,117.153" />
  <polygon fill="#000000" points="787.002,41.6168, 885.14,170.776, 568.3,122.521" />
  <polygon fill="#FFFFFF" points="768.128,48.5988, 876.671,159.629, 595.644,126.686" />
  <polygon fill="#000000" points="752.449,55.6969, 866.804,149.537, 621.189,129.68" />
  <polygon fill="#FFFFFF" points="739.914,62.7623, 855.883,140.575, 644.645,131.577" />
  <polygon fill="#000000" points="730.377,69.6506, 844.275,132.786, 665.79,132.477" />
  <polygon fill="#FFFFFF" points="723.615,76.2286, 832.35,126.176, 684.477,132.51" />
  <polygon fill="#000000" points="719.337,82.3801, 820.465,120.716, 700.64,131.817" />
  <polygon fill="#FFFFFF" points="717.208,88.011, 808.946,116.35, 714.288,130.553" />
  <polygon fill="#000000" points="716.862,93.0522, 798.075,112.992, 725.505,128.87" />
  <polygon fill="#FFFFFF" points="717.926,97.4613, 788.078,110.537, 734.438,126.915" />
  <polygon fill="#000000" points="720.034,101.223, 779.12,108.867, 741.288,124.824" />
  <polygon fill="#FFFFFF" points="722.846,104.345, 771.303,107.856, 746.293,122.713" />
  <polygon fill="#000000" points="726.056,106.86, 764.669,107.375, 749.717,120.679" />
  <polygon fill="#FFFFFF" points="729.404,108.815, 759.205,107.302, 751.833,118.796" />
  <polygon fill="#000000" points="732.681,110.273, 754.851,107.523, 752.91,117.117" />
  <polygon fill="#FFFFFF" points="735.729,111.305, 751.51,107.938, 753.202,115.671" />
  <polygon fill="#000000" points="749.059,108.461, 752.94,114.47, 738.443,111.983" />
  <polygon fill="#FFFFFF" points="747.362,109.024, 752.319,113.509, 740.761,112.381" />
  <polygon fill="#000000" points="746.276,109.576, 751.504,112.771, 742.662,112.566" />
  <polygon fill="#FFFFFF" points="745.665,110.082, 750.62,112.231, 744.157,112.601" />
  <polygon fill="#000000" points="745.403,110.519, 749.759,111.858, 745.28,112.537" />
  <polygon fill="#FFFFFF" points="745.381,110.879, 748.982,111.619, 746.079,112.416" />
  <polygon fill="#000000" points="745.509,111.16, 748.324,111.484, 746.61,112.27" />
  <polygon fill="#FFFFFF" points="745.715,111.368, 747.796,111.423, 746.931,112.123" />
  <polygon fill="#000000" points="745.949,111.513, 747.396,111.412, 747.097,111.988" />
  <polygon fill="#FFFFFF" points="746.175,111.606, 747.112,111.432, 747.156,111.875" />
  <polygon fill="#000000" points="746.923,111.467, 747.147,111.786, 746.372,111.661" />
  <polygon fill="#FFFFFF" points="746.81,111.507, 747.101,111.72, 746.532,111.686" />
  <polygon fill="#000000" points="746.751,111.545, 747.04,111.675, 746.652,111.693" />
  <polygon fill="#FFFFFF" points="746.73,111.577, 746.978,111.647, 746.735,111.69" />
  <polygon fill="#000000" points="746.731,111.602, 746.923,111.632, 746.788,111.68" />
  <polygon fill="#FFFFFF" points="746.744,111.619, 746.88,111.625, 746.819,111.669" />
  <polygon fill="#000000" points="746.761,111.631, 746.849,111.624, 746.833,111.659" />
  <polygon fill="#FFFFFF" points="746.778,111.637, 746.828,111.625, 746.836,111.651" />
  <polygon fill="#000000" points="746.816,111.628, 746.834,111.645, 746.792,111.641" />
  <polygon fill="#FFFFFF" points="746.81,111.631, 746.83,111.641, 746.802,111.642" />
  <polygon fill="#000000" points="746.808,111.634, 746.825,111.638, 746.809,111.641" />
  <!-- Shape 2 -->
  <polygon fill="#000000" points="1023.45,150.61, 1176.18,0, 1500,0, 1500,500" />
  <polygon fill="#FFFFFF" points="1036.96,137.281, 1204.84,0, 1500,44.25, 1457.83,469.079" />
  <polygon fill="#000000" points="1051.93,125.043, 1231.15,3.94489, 1496.24,82.1235, 1420.31,439.499" />
  <polygon fill="#FFFFFF" points="1068.03,114.168, 1254.96,10.9653, 1489.42,114.216, 1387.23,411.261" />
  <polygon fill="#000000" points="1084.93,104.833, 1276.17,20.3043, 1480.18,141.084, 1358.35,384.389" />
  <polygon fill="#FFFFFF" points="1102.35,97.1328, 1294.75,31.3073, 1469.08,163.249, 1333.45,358.921" />
  <polygon fill="#000000" points="1120.01,91.0934, 1310.75,43.4129, 1456.63,181.202, 1312.24,334.902" />
  <polygon fill="#FFFFFF" points="1137.63,86.6877, 1324.23,56.1446, 1443.29,195.404, 1294.48,312.374" />
  <polygon fill="#000000" points="1154.99,83.8457, 1335.31,69.1027, 1429.45,206.288, 1279.89,291.374" />
  <polygon fill="#FFFFFF" points="1171.89,82.4642, 1344.13,81.9569, 1415.43,214.26, 1268.18,271.929" />
  <polygon fill="#000000" points="1188.14,82.4164, 1350.85,94.4398, 1401.54,219.701, 1259.1,254.053" />
  <polygon fill="#FFFFFF" points="1203.6,83.5586, 1355.67,106.34, 1388.01,222.965, 1252.36,237.747" />
  <polygon fill="#000000" points="1218.14,85.7376, 1358.76,117.495, 1375.03,224.379, 1247.69,222.999" />
  <polygon fill="#FFFFFF" points="1231.69,88.7958, 1360.33,127.788, 1362.77,224.246, 1244.85,209.781" />
  <polygon fill="#000000" points="1244.16,92.5761, 1360.57,137.139, 1351.34,222.844, 1243.57,198.051" />
  <polygon fill="#FFFFFF" points="1255.52,96.9255, 1359.67,145.504, 1340.82,220.424, 1243.63,187.757" />
  <polygon fill="#000000" points="1265.75,101.698, 1357.81,152.865, 1331.27,217.214, 1244.8,178.833" />
  <polygon fill="#FFFFFF" points="1274.86,106.759, 1355.19,159.229, 1322.72,213.418, 1246.87,171.204" />
  <polygon fill="#000000" points="1282.85,111.982, 1351.96,164.624, 1315.17,209.216, 1249.66,164.789" />
  <polygon fill="#FFFFFF" points="1252.98,159.497, 1289.78,117.257, 1348.27,169.092, 1308.6,204.764" />
  <polygon fill="#000000" points="1256.69,155.237, 1295.68,122.484, 1344.27,172.689, 1302.99,200.199" />
  <polygon fill="#FFFFFF" points="1260.65,151.913, 1300.61,127.58, 1340.08,175.482, 1298.29,195.636" />
  <polygon fill="#000000" points="1264.73,149.427, 1304.64,132.473, 1335.81,177.54, 1294.45,191.169" />
  <polygon fill="#FFFFFF" points="1268.83,147.685, 1307.84,137.106, 1331.56,178.941, 1291.39,186.878" />
  <polygon fill="#000000" points="1272.87,146.59, 1310.3,141.434, 1327.4,179.762, 1289.06,182.824" />
  <polygon fill="#FFFFFF" points="1276.77,146.053, 1312.08,145.424, 1323.41,180.081, 1287.37,179.052" />
  <polygon fill="#000000" points="1280.46,145.988, 1313.27,149.054, 1319.64,179.973, 1286.26,175.595" />
  <polygon fill="#FFFFFF" points="1283.92,146.311, 1313.94,152.313, 1316.12,179.512, 1285.65,172.475" />
  <polygon fill="#000000" points="1287.11,146.947, 1314.17,155.198, 1312.89,178.766, 1285.47,169.7" />
  <polygon fill="#FFFFFF" points="1289.99,147.828, 1314.03,157.712, 1309.96,177.798, 1285.64,167.272" />
  <polygon fill="#000000" points="1292.57,148.889, 1313.6,159.869, 1307.35,176.668, 1286.11,165.185" />
  <polygon fill="#FFFFFF" points="1294.84,150.075, 1312.92,161.683, 1305.06,175.428, 1286.81,163.425" />
  <polygon fill="#000000" points="1287.68,161.974, 1296.81,151.336, 1312.07,163.176, 1303.08,174.124" />
  <polygon fill="#FFFFFF" points="1288.68,160.812, 1298.48,152.63, 1311.08,164.373, 1301.39,172.796" />
  <polygon fill="#000000" points="1289.76,159.912, 1299.86,153.921, 1310.02,165.299, 1299.99,171.478" />
  <polygon fill="#FFFFFF" points="1290.87,159.249, 1300.99,155.18, 1308.91,165.982, 1298.86,170.199" />
  <polygon fill="#000000" points="1292,158.797, 1301.87,156.381, 1307.79,166.452, 1297.97,168.981" />
  <polygon fill="#FFFFFF" points="1293.1,158.526, 1302.53,157.508, 1306.69,166.735, 1297.3,167.841" />
  <polygon fill="#000000" points="1294.16,158.412, 1303,158.547, 1305.64,166.859, 1296.83,166.793" />
  <polygon fill="#FFFFFF" points="1295.16,158.427, 1303.3,159.488, 1304.64,166.852, 1296.53,165.844" />
  <polygon fill="#000000" points="1296.09,158.548, 1303.45,160.326, 1303.72,166.737, 1296.37,165" />
  <polygon fill="#FFFFFF" points="1296.93,158.751, 1303.48,161.06, 1302.88,166.538, 1296.34,164.261" />
  <polygon fill="#000000" points="1297.69,159.017, 1303.41,161.691, 1302.12,166.276, 1296.41,163.627" />
  <polygon fill="#FFFFFF" points="1298.35,159.327, 1303.26,162.222, 1301.46,165.969, 1296.56,163.093" />
  <polygon fill="#000000" points="1298.92,159.664, 1303.05,162.658, 1300.89,165.634, 1296.77,162.654" />
  <polygon fill="#FFFFFF" points="1297.02,162.304, 1299.41,160.015, 1302.8,163.007, 1300.41,165.285" />
  <polygon fill="#000000" points="1297.3,162.034, 1299.8,160.367, 1302.52,163.275, 1300.01,164.934" />
  <polygon fill="#FFFFFF" points="1297.6,161.837, 1300.13,160.711, 1302.22,163.471, 1299.69,164.591" />
  <polygon fill="#000000" points="1297.9,161.703, 1300.38,161.04, 1301.92,163.605, 1299.44,164.263" />
  <polygon fill="#FFFFFF" points="1298.19,161.624, 1300.56,161.347, 1301.62,163.683, 1299.25,163.957" />
  <!-- Shape 3 -->
  <polygon fill="#FFFFFF" points="836.542,334.914, 1023.45,150.61, 1500,500, 856.546,500" />
  <polygon fill="#000000" points="838.313,349.524, 1006.91,166.921, 1457.83,469.079, 913.492,500" />
  <polygon fill="#FFFFFF" points="845.128,363.164, 991.623,183.474, 1416.95,441.688, 962.835,497.197" />
  <polygon fill="#000000" points="978.029,200.149, 1377.48,417.726, 1004.98,492.046, 856.051,375.603" />
  <polygon fill="#FFFFFF" points="966.447,216.809, 1339.55,397.067, 1040.35,484.989, 870.192,386.659" />
  <polygon fill="#000000" points="957.1,233.301, 1303.32,379.564, 1069.4,476.452, 886.714,396.207" />
  <polygon fill="#FFFFFF" points="950.114,249.47, 1268.96,365.048, 1092.62,466.836, 904.845,404.171" />
  <polygon fill="#000000" points="945.524,265.156, 1236.63,353.328, 1110.5,456.514, 923.885,410.525" />
  <polygon fill="#FFFFFF" points="943.283,280.209, 1206.49,344.198, 1123.56,445.83, 943.209,415.288" />
  <polygon fill="#000000" points="943.276,294.487, 1178.66,337.434, 1132.32,435.087, 962.272,418.516" />
  <polygon fill="#FFFFFF" points="945.324,307.864, 1153.28,332.802, 1137.32,424.555, 980.612,420.303" />
  <polygon fill="#000000" points="949.206,320.232, 1130.4,330.059, 1139.08,414.462, 997.85,420.771" />
  <polygon fill="#FFFFFF" points="954.661,331.507, 1110.08,328.957, 1138.1,404.997, 1013.69,420.063" />
  <polygon fill="#000000" points="961.408,341.629, 1092.32,329.248, 1134.9,396.305, 1027.91,418.341" />
  <polygon fill="#FFFFFF" points="969.152,350.562, 1077.07,330.69, 1129.94,388.496, 1040.37,415.775" />
  <polygon fill="#000000" points="977.598,358.297, 1064.27,333.047, 1123.67,381.641, 1050.99,412.54" />
  <polygon fill="#FFFFFF" points="986.461,364.846, 1053.81,336.096, 1116.5,375.773, 1059.77,408.809" />
  <polygon fill="#000000" points="995.47,370.249, 1045.53,339.629, 1108.79,370.897, 1066.74,404.749" />
  <polygon fill="#FFFFFF" points="1039.27,343.458, 1100.88,366.987, 1072,400.515, 1004.38,374.564" />
  <polygon fill="#000000" points="1034.83,347.415, 1093.05,363.994, 1075.67,396.251, 1012.98,377.865" />
  <polygon fill="#FFFFFF" points="1032.01,351.354, 1085.52,361.849, 1077.92,392.078, 1021.09,380.243" />
  <polygon fill="#000000" points="1030.57,355.153, 1078.48,360.469, 1078.92,388.103, 1028.57,381.799" />
  <polygon fill="#FFFFFF" points="1030.3,358.714, 1072.08,359.759, 1078.86,384.41, 1035.3,382.642" />
  <polygon fill="#000000" points="1030.98,361.963, 1066.4,359.617, 1077.94,381.062, 1041.21,382.882" />
  <polygon fill="#FFFFFF" points="1032.39,364.849, 1061.52,359.94, 1076.35,378.104, 1046.28,382.631" />
  <polygon fill="#000000" points="1034.34,367.34, 1057.44,360.628, 1074.27,375.559, 1050.49,381.997" />
  <polygon fill="#FFFFFF" points="1036.64,369.425, 1054.15,361.583, 1071.88,373.435, 1053.87,381.081" />
  <polygon fill="#000000" points="1039.12,371.108, 1051.62,362.715, 1069.32,371.724, 1056.47,379.977" />
  <polygon fill="#FFFFFF" points="1049.79,363.945, 1066.72,370.404, 1058.36,378.767, 1041.67,372.408" />
  <polygon fill="#000000" points="1048.58,365.204, 1064.21,369.443, 1059.6,377.524, 1044.15,373.354" />
  <polygon fill="#FFFFFF" points="1047.91,366.433, 1061.85,368.804, 1060.29,376.305, 1046.48,373.983" />
  <polygon fill="#000000" points="1047.69,367.588, 1059.72,368.441, 1060.53,375.157, 1048.59,374.338" />
  <polygon fill="#FFFFFF" points="1047.83,368.635, 1057.85,368.309, 1060.41,374.115, 1050.45,374.465" />
  <polygon fill="#000000" points="1048.24,369.552, 1056.28,368.36, 1060,373.202, 1052.01,374.41" />
  <polygon fill="#FFFFFF" points="1048.85,370.327, 1054.99,368.55, 1059.41,372.43, 1053.29,374.217" />
  <polygon fill="#000000" points="1049.56,370.956, 1054,368.837, 1058.7,371.803, 1054.28,373.928" />
  <polygon fill="#FFFFFF" points="1053.27,369.184, 1057.93,371.317, 1055,373.58, 1050.33,371.442" />
  <polygon fill="#000000" points="1052.79,369.559, 1057.16,370.963, 1055.49,373.205, 1051.11,371.797" />
  <polygon fill="#FFFFFF" points="1052.5,369.935, 1056.42,370.727, 1055.77,372.828, 1051.84,372.034" />
  <polygon fill="#000000" points="1052.39,370.292, 1055.75,370.592, 1055.88,372.471, 1052.51,372.169" />
  <polygon fill="#FFFFFF" points="1052.41,370.616, 1055.18,370.541, 1055.86,372.147, 1053.09,372.221" />
  <polygon fill="#000000" points="1052.53,370.896, 1054.69,370.554, 1055.74,371.867, 1053.57,372.208" />
  <polygon fill="#FFFFFF" points="1052.72,371.128, 1054.31,370.614, 1055.55,371.635, 1053.96,372.148" />
  <polygon fill="#000000" points="1052.94,371.31, 1054.03,370.706, 1055.33,371.452, 1054.24,372.056" />
  <polygon fill="#FFFFFF" points="1053.83,370.815, 1055.09,371.317, 1054.44,371.947, 1053.17,371.445" />
  <polygon fill="#000000" points="1053.71,370.931, 1054.86,371.225, 1054.56,371.831, 1053.41,371.537" />
  <polygon fill="#FFFFFF" points="1053.65,371.043, 1054.65,371.171, 1054.62,371.719, 1053.62,371.591" />
  <polygon fill="#000000" points="1053.65,371.146, 1054.46,371.147, 1054.62,371.616, 1053.81,371.615" />
  <polygon fill="#FFFFFF" points="1053.68,371.235, 1054.31,371.147, 1054.59,371.527, 1053.96,371.616" />
  <polygon fill="#000000" points="1053.73,371.308, 1054.19,371.163, 1054.54,371.454, 1054.08,371.599" />
  <!-- Shape 4 -->
  <polygon fill="#FFFFFF" points="0,0, 227.716,0, 0,500" />
  <polygon fill="#000000" points="20.1529,0, 207.563,44.25, 0,455.75" />
  <polygon fill="#FFFFFF" points="36.7387,3.91612, 189.194,80.6677, 1.78353,415.416" />
  <polygon fill="#000000" points="50.2309,10.7086, 172.608,110.293, 4.87706,378.998" />
  <polygon fill="#FFFFFF" points="61.0613,19.5219, 157.764,134.073, 8.89087,346.405" />
  <polygon fill="#000000" points="69.6195,29.6597, 144.588,152.865, 13.508,317.476" />
  <polygon fill="#FFFFFF" points="76.2542,40.5633, 132.988,167.433, 18.4738,292.004" />
  <polygon fill="#000000" points="81.2751,51.7913, 122.853,178.457, 23.5874,269.751" />
  <polygon fill="#FFFFFF" points="84.9548,63.0012, 114.068,186.537, 28.6928,250.462" />
  <polygon fill="#000000" points="87.5314,73.9341, 106.513,192.194, 33.6719,233.872" />
  <polygon fill="#FFFFFF" points="89.2112,84.4001, 100.066,195.883, 38.4385,219.717" />
  <polygon fill="#000000" points="90.1719,94.2663, 94.6121,197.992, 42.9319,207.742" />
  <polygon fill="#FFFFFF" points="90.5648,103.446, 90.0384,198.855, 47.1126,197.699" />
  <polygon fill="#000000" points="90.5182,111.89, 86.2395,198.753, 50.9581,189.358" />
  <polygon fill="#FFFFFF" points="90.1396,119.577, 83.1171,197.921, 54.4592,182.502" />
  <polygon fill="#000000" points="89.5181,126.511, 80.5809,196.557, 57.6169,176.933" />
  <polygon fill="#FFFFFF" points="88.7271,132.71, 78.5486,194.82, 60.4402,172.471" />
  <polygon fill="#000000" points="87.8263,138.206, 76.946,192.842, 62.9436,168.952" />
  <polygon fill="#FFFFFF" points="65.1457,166.231, 86.8634,143.042, 75.7068,190.728" />
  <polygon fill="#000000" points="67.0677,164.179, 85.8761,147.262, 74.7721,188.56" />
  <polygon fill="#FFFFFF" points="68.7323,162.681, 84.8934,150.917, 74.0903,186.402" />
  <polygon fill="#000000" points="70.1625,161.64, 83.9373,154.057, 73.6161,184.303" />
  <polygon fill="#FFFFFF" points="71.3816,160.969, 83.0239,156.734, 73.3104,182.297" />
  <polygon fill="#000000" points="72.4119,160.594, 82.1642,158.996, 73.1397,180.41" />
  <polygon fill="#FFFFFF" points="73.275,160.453, 81.3656,160.891, 73.0753,178.656" />
  <polygon fill="#000000" points="73.991,160.492, 80.6319,162.463, 73.093,177.045" />
  <polygon fill="#FFFFFF" points="74.5787,160.666, 79.9647,163.754, 73.1725,175.58" />
  <polygon fill="#000000" points="75.0554,160.939, 79.3636,164.801, 73.2969,174.26" />
  <polygon fill="#FFFFFF" points="75.4367,161.281, 78.8267,165.638, 73.4525,173.081" />
  <polygon fill="#000000" points="75.7367,161.667, 78.3511,166.296, 73.6281,172.037" />
  <polygon fill="#FFFFFF" points="75.968,162.076, 77.9331,166.804, 73.8147,171.119" />
  <polygon fill="#000000" points="76.142,162.495, 77.5686,167.186, 74.0053,170.319" />
  <polygon fill="#FFFFFF" points="76.2682,162.91, 77.2533,167.464, 74.1944,169.626" />
  <polygon fill="#000000" points="76.3554,163.313, 76.9825,167.655, 74.3779,169.032" />
  <polygon fill="#FFFFFF" points="76.4109,163.697, 76.752,167.777, 74.5529,168.526" />
  <polygon fill="#000000" points="76.4411,164.058, 76.5574,167.843, 74.7174,168.099" />
  <polygon fill="#FFFFFF" points="76.4514,164.393, 76.3946,167.866, 74.8699,167.741" />
  <polygon fill="#000000" points="76.4464,164.701, 76.2596,167.855, 75.0099,167.445" />
  <polygon fill="#FFFFFF" points="76.4298,164.98, 76.149,167.818, 75.137,167.202" />
  <polygon fill="#000000" points="76.405,165.231, 76.0595,167.764, 75.2514,167.005" />
  <polygon fill="#FFFFFF" points="76.3744,165.455, 75.988,167.697, 75.3535,166.848" />
  <polygon fill="#000000" points="76.3402,165.653, 75.9318,167.622, 75.4439,166.725" />
  <polygon fill="#FFFFFF" points="75.5232,166.63, 76.3041,165.828, 75.8886,167.542" />
  <polygon fill="#000000" points="75.5923,166.559, 76.2673,165.979, 75.8563,167.462" />
  <polygon fill="#FFFFFF" points="75.652,166.508, 76.2309,166.111, 75.8329,167.382" />
  <polygon fill="#000000" points="75.7033,166.473, 76.1957,166.223, 75.8169,167.304" />
  <polygon fill="#FFFFFF" points="75.7468,166.451, 76.1622,166.319, 75.8069,167.231" />
  <polygon fill="#000000" points="75.7836,166.439, 76.1307,166.399, 75.8015,167.162" />
  <polygon fill="#FFFFFF" points="75.8143,166.435, 76.1016,166.467, 75.8,167.098" />
  <polygon fill="#000000" points="75.8397,166.438, 76.0749,166.523, 75.8012,167.039" />
  <!-- Shape 5 -->
  <polygon fill="#000000" points="227.716,0, 836.542,334.914, 856.546,500, 0,500" />
  <polygon fill="#FFFFFF" points="271.551,24.1138, 837.983,346.8, 794.875,500, 16.3955,464" />
  <polygon fill="#000000" points="312.844,47.6376, 834.84,357.968, 738.124,497.376, 34.9964,431.932" />
  <polygon fill="#FFFFFF" points="351.368,70.54, 827.702,368.256, 686.233,492.546, 55.5016,403.571" />
  <polygon fill="#000000" points="386.95,92.7794, 817.135,377.541, 639.117,485.899, 77.6028,378.694" />
  <polygon fill="#FFFFFF" points="419.472,114.307, 803.677,385.733, 596.667,477.795, 100.989,357.079" />
  <polygon fill="#000000" points="448.863,135.071, 787.84,392.776, 558.747,468.56, 125.353,338.507" />
  <polygon fill="#FFFFFF" points="475.1,155.018, 770.108,398.641, 525.203,458.494, 150.393,322.761" />
  <polygon fill="#000000" points="175.818,309.627, 498.199,174.093, 750.932,403.328, 495.855,447.866" />
  <polygon fill="#FFFFFF" points="201.35,298.892, 518.216,192.249, 730.73,406.855, 470.508,436.917" />
  <polygon fill="#000000" points="226.731,290.35, 535.238,209.439, 709.886,409.263, 448.949,425.862" />
  <polygon fill="#FFFFFF" points="251.72,283.796, 549.385,225.625, 688.75,410.608, 430.949,414.885" />
  <polygon fill="#000000" points="276.099,279.032, 560.799,240.775, 667.637,410.958, 416.27,404.149" />
  <polygon fill="#FFFFFF" points="299.672,275.864, 569.645,254.866, 646.823,410.394, 404.664,393.789" />
  <polygon fill="#000000" points="322.269,274.107, 576.105,267.884, 626.555,409.004, 395.876,383.919" />
  <polygon fill="#FFFFFF" points="343.743,273.58, 580.373,279.822, 607.039,406.882, 389.649,374.629" />
  <polygon fill="#000000" points="363.975,274.114, 582.653,290.686, 588.452,404.124, 385.724,365.989" />
  <polygon fill="#FFFFFF" points="382.869,275.546, 583.154,300.487, 570.937,400.83, 383.845,358.051" />
  <polygon fill="#000000" points="400.354,277.723, 582.087,309.247, 554.604,397.095, 383.76,350.848" />
  <polygon fill="#FFFFFF" points="416.383,280.504, 579.663,316.995, 539.535,393.016, 385.223,344.399" />
  <polygon fill="#000000" points="430.931,283.755, 576.088,323.769, 525.786,388.684, 388,338.706" />
  <polygon fill="#FFFFFF" points="391.863,333.76, 443.995,287.356, 571.561,329.611, 513.385,384.186" />
  <polygon fill="#000000" points="396.602,329.542, 455.591,291.197, 566.273,334.572, 502.339,379.602" />
  <polygon fill="#FFFFFF" points="402.017,326.022, 465.751,295.179, 560.403,338.706, 492.632,375.007" />
  <polygon fill="#000000" points="407.925,323.163, 474.526,299.214, 554.121,342.071, 484.232,370.466" />
  <polygon fill="#FFFFFF" points="414.159,320.921, 481.976,303.225, 547.579,344.729, 477.09,366.038" />
  <polygon fill="#000000" points="420.568,319.249, 488.175,307.147, 540.918,346.742, 471.143,361.775" />
  <polygon fill="#FFFFFF" points="427.018,318.094, 493.207,310.925, 534.262,348.177, 466.318,357.718" />
  <polygon fill="#000000" points="433.392,317.404, 497.161,314.512, 527.719,349.095, 462.533,353.902" />
  <polygon fill="#FFFFFF" points="439.59,317.123, 500.131,317.874, 521.383,349.563, 459.701,350.355" />
  <polygon fill="#000000" points="445.529,317.197, 502.216,320.982, 515.332,349.64, 457.728,347.095" />
  <polygon fill="#FFFFFF" points="451.141,317.571, 503.514,323.819, 509.629,349.388, 456.52,344.135" />
  <polygon fill="#000000" points="456.373,318.196, 504.125,326.374, 504.323,348.863, 455.983,341.481" />
  <polygon fill="#FFFFFF" points="461.186,319.02, 504.145,328.641, 499.451,348.119, 456.022,339.134" />
  <polygon fill="#000000" points="465.555,319.998, 503.668,330.622, 495.034,347.205, 456.547,337.088" />
  <polygon fill="#FFFFFF" points="469.466,321.088, 502.782,332.323, 491.085,346.167, 457.472,335.335" />
  <polygon fill="#000000" points="472.914,322.251, 501.571,333.756, 487.606,345.046, 458.713,333.86" />
  <polygon fill="#FFFFFF" points="460.196,332.648, 475.906,323.452, 500.113,334.935, 484.59,343.878" />
  <polygon fill="#000000" points="461.85,331.68, 478.455,324.661, 498.479,335.877, 482.021,342.696" />
  <polygon fill="#FFFFFF" points="463.613,330.935, 480.581,325.852, 496.731,336.601, 479.879,341.526" />
  <polygon fill="#000000" points="465.431,330.39, 482.311,327.004, 494.926,337.128, 478.137,340.392" />
  <polygon fill="#FFFFFF" points="467.254,330.024, 483.673,328.097, 493.113,337.481, 476.765,339.312" />
  <polygon fill="#000000" points="469.042,329.815, 484.701,329.119, 491.332,337.68, 475.729,338.3" />
  <polygon fill="#FFFFFF" points="470.761,329.738, 485.429,330.059, 489.619,337.748, 474.995,337.368" />
  <polygon fill="#000000" points="472.385,329.774, 485.893,330.91, 488,337.706, 474.526,336.524" />
  <polygon fill="#FFFFFF" points="473.892,329.901, 486.128,331.669, 486.496,337.574, 474.287,335.77" />
  <polygon fill="#000000" points="475.269,330.099, 486.17,332.333, 485.123,337.371, 474.243,335.11" />
  <polygon fill="#FFFFFF" points="476.505,330.353, 486.051,332.904, 483.889,337.115, 474.359,334.542" />
  <polygon fill="#000000" points="477.596,330.644, 485.804,333.386, 482.8,336.821, 474.604,334.063" />
  <polygon fill="#FFFFFF" points="474.949,333.669, 478.542,330.96, 485.458,333.781, 481.856,336.503" />
  <polygon fill="#000000" points="475.366,333.355, 479.345,331.288, 485.04,334.097, 481.054,336.174" />
  <polygon fill="#FFFFFF" points="475.832,333.113, 480.011,331.616, 484.573,334.34, 480.388,335.844" />
  <polygon fill="#000000" points="476.324,332.936, 480.549,331.938, 484.08,334.518, 479.851,335.522" />
</svg>
