<?xml version="1.0" standalone="no"?>
<!DOCTYPE svg PUBLIC "-//W3C//DTD SVG 1.1//EN" "http://www.w3.org/Graphics/SVG/1.1/DTD/svg11.dtd">
<svg viewBox="0, 0, 1500, 600" xmlns="http://www.w3.org/2000/svg" version="1.1">
  <!-- Shape 1 -->
  <polygon fill="#FFFFFF" points="1.11808,20.819, 28.5368,20.819, 1.11808,531.362" />
  <polygon fill="#FFFFFF" points="77.1113,0.981, 658.997,0.981, 631.578,25.038" />
  <polygon fill="#FFFFFF" points="605.613,67.657, 23.7282,578.2, 23.7282,554.143" />
  <polygon fill="#000000" points="30.7724,19.8846, 56.8878,21.0177, 4.64518,506.381" />
  <polygon fill="#000000" points="102.056,4.07566, 630.407,26.9996, 603,49.9131" />
  <polygon fill="#000000" points="577.142,89.5433, 22.6633,553.116, 23.9547,529.069" />
  <polygon fill="#FFFFFF" points="59.0626,20.1821, 83.7091,22.4373, 9.39031,481.666" />
  <polygon fill="#FFFFFF" points="125.48,8.23901, 601.778,51.8212, 574.561,73.4459" />
  <polygon fill="#FFFFFF" points="548.973,110.095, 23.0023,527.997, 25.5727,504.117" />
  <polygon fill="#000000" points="85.809,21.705, 108.847,25.0501, 15.3028,457.375" />
  <polygon fill="#000000" points="147.252,13.4266, 573.296,75.2884, 546.445,95.5017" />
  <polygon fill="#000000" points="521.288,129.199, 24.738,503.007, 28.5506,479.448" />
  <polygon fill="#FFFFFF" points="110.859,24.4238, 132.176,28.8066, 22.3105,433.662" />
  <polygon fill="#FFFFFF" points="167.271,19.5751, 545.147,97.2673, 518.835,115.971" />
  <polygon fill="#FFFFFF" points="494.262,146.762, 27.8368,478.309, 32.832,455.223" />
  <polygon fill="#000000" points="134.09,28.2873, 153.602,33.6372, 30.3216,410.674" />
  <polygon fill="#000000" points="185.461,26.604, 517.513,117.65, 491.904,134.769" />
  <polygon fill="#000000" points="468.06,162.722, 32.2401,454.063, 38.3376,431.594" />
  <polygon fill="#FFFFFF" points="155.407,33.2239, 173.058,39.4542, 39.2275,388.543" />
  <polygon fill="#FFFFFF" points="201.778,34.418, 490.57,136.353, 465.818,151.84" />
  <polygon fill="#FFFFFF" points="442.837,177.039, 37.8665,430.423, 44.9674,408.706" />
  <polygon fill="#000000" points="174.746,39.1442, 190.509,46.1543, 48.9055,367.392" />
  <polygon fill="#000000" points="216.206,42.9095, 464.483,153.321, 440.73,167.152" />
  <polygon fill="#000000" points="418.731,189.698, 44.6142,407.535, 52.6038,386.694" />
  <polygon fill="#FFFFFF" points="192.075,45.9437, 205.95,53.6219, 59.2221,347.329" />
  <polygon fill="#FFFFFF" points="228.756,51.9612, 439.404,168.525, 416.778,180.7" />
  <polygon fill="#FFFFFF" points="395.864,200.71, 52.3638,385.531, 61.1149,365.678" />
  <polygon fill="#000000" points="207.388,53.5052, 219.403,61.7315, 70.0361,328.445" />
  <polygon fill="#000000" points="239.466,61.4493, 415.473,181.961, 394.082,192.503" />
  <polygon fill="#000000" points="374.341,210.106, 60.9819,364.533, 70.3578,345.766" />
  <polygon fill="#FFFFFF" points="220.711,61.7019, 230.916,70.3514, 81.2024,310.812" />
  <polygon fill="#FFFFFF" points="248.396,71.2465, 392.808,193.651, 372.745,202.604" />
  <polygon fill="#FFFFFF" points="354.244,217.942, 70.324,344.648, 80.1822,327.044" />
  <polygon fill="#000000" points="232.093,70.4012, 240.561,79.3466, 92.575,294.486" />
  <polygon fill="#000000" points="255.631,81.2248, 371.511,203.637, 352.848,211.067" />
  <polygon fill="#000000" points="335.637,224.289, 80.2389,325.962, 90.4343,309.587" />
  <polygon fill="#FFFFFF" points="241.608,79.4672, 248.433,88.5821, 104.011,279.504" />
  <polygon fill="#FFFFFF" points="261.27,91.2586, 351.663,211.986, 334.45,217.974" />
  <polygon fill="#FFFFFF" points="318.561,229.237, 90.5718,308.547, 100.96,293.444" />
  <polygon fill="#000000" points="249.353,88.7645, 254.643,97.926, 115.372,265.883" />
  <polygon fill="#000000" points="265.434,101.227, 333.322,218.781, 317.589,223.423" />
  <polygon fill="#000000" points="303.037,232.89, 101.168,292.455, 111.61,278.651" />
  <polygon fill="#FFFFFF" points="255.44,98.1608, 259.32,107.252, 126.531,253.622" />
  <polygon fill="#FFFFFF" points="268.25,111.017, 316.525,224.122, 302.283,227.526" />
  <polygon fill="#FFFFFF" points="289.062,235.361, 111.878,277.718, 122.239,265.222" />
  <polygon fill="#000000" points="258.787,108.985, 261.311,117.628, 139.871,240.061" />
  <polygon fill="#000000" points="270.364,122.722, 300.842,227.058, 288.466,229.273" />
  <polygon fill="#000000" points="273.607,237.216, 124.214,263.957, 134.065,253.099" />
  <polygon fill="#FFFFFF" points="260.868,119.278, 262.247,127.391, 152.471,228.563" />
  <polygon fill="#FFFFFF" points="270.87,133.777, 287.028,228.885, 276.403,230.094" />
  <polygon fill="#FFFFFF" points="145.193,242.515, 260.502,237.66, 135.946,251.837" />
  <polygon fill="#000000" points="261.86,128.976, 262.292,136.498, 164.198,218.983" />
  <polygon fill="#000000" points="270.061,144.067, 274.984,229.755, 265.978,230.134" />
  <polygon fill="#000000" points="155.572,233.368, 249.583,236.95, 146.999,241.269" />
  <polygon fill="#FFFFFF" points="261.931,138.03, 261.604,144.918, 174.958,211.163" />
  <polygon fill="#FFFFFF" points="268.214,153.507, 264.594,229.817, 257.07,229.53" />
  <polygon fill="#FFFFFF" points="165.169,225.551, 240.67,235.33, 157.317,232.154" />
  <polygon fill="#000000" points="261.244,146.402, 260.33,152.634, 184.688,204.932" />
  <polygon fill="#000000" points="265.585,162.045, 255.738,229.214, 249.549,228.413" />
  <polygon fill="#000000" points="166.86,224.384, 173.963,218.953, 233.569,233.023" />
  <polygon fill="#FFFFFF" points="259.951,154.073, 258.606,159.641, 193.357,200.116" />
  <polygon fill="#FFFFFF" points="262.406,169.65, 248.288,228.08, 243.288,226.899" />
  <polygon fill="#FFFFFF" points="175.603,217.847, 181.949,213.459, 228.08,230.234" />
  <polygon fill="#000000" points="258.194,161.034, 256.553,165.947, 200.959,196.538" />
  <polygon fill="#000000" points="258.882,176.321, 242.112,226.538, 238.154,225.099" />
  <polygon fill="#000000" points="183.537,212.428, 189.136,208.955, 224.001,227.142" />
  <polygon fill="#FFFFFF" points="256.099,167.29, 254.282,171.567, 207.519,194.022" />
  <polygon fill="#FFFFFF" points="255.19,182.076, 237.077,224.7, 234.02,223.105" />
  <polygon fill="#FFFFFF" points="190.666,208.01, 195.542,205.328, 221.134,223.903" />
  <polygon fill="#000000" points="253.781,172.854, 251.885,176.529, 213.077,192.399" />
  <polygon fill="#000000" points="251.48,186.953, 233.053,222.666, 230.761,221.003" />
  <polygon fill="#000000" points="197.009,204.479, 201.197,202.468, 219.285,220.648" />
  <polygon fill="#FFFFFF" points="251.339,177.753, 249.445,180.866, 217.697,191.511" />
  <polygon fill="#FFFFFF" points="247.874,191.006, 229.911,220.524, 228.258,218.862" />
  <polygon fill="#FFFFFF" points="202.592,201.723, 206.14,200.272, 218.273,217.483" />
  <polygon fill="#000000" points="248.857,182.019, 247.028,184.617, 221.45,191.209" />
  <polygon fill="#000000" points="244.465,194.299, 227.531,218.346, 226.4,216.741" />
  <polygon fill="#000000" points="207.454,199.635, 210.415,198.642, 217.928,214.492" />
  <!-- Shape 2 -->
  <polygon fill="#000000" points="308.456,331.097, 323.631,347.98, 52.8024,555.406" />
  <polygon fill="#000000" points="361.247,362.805, 562.861,587.115, 528.443,587.115" />
  <polygon fill="#000000" points="46.6156,582.147, 484.64,599.03, 27.3728,599.03" />
  <polygon fill="#FFFFFF" points="323.03,351.873, 334.51,367.275, 81.9087,536.546" />
  <polygon fill="#FFFFFF" points="373.944,385.399, 522.8,585.103, 492.724,583.944" />
  <polygon fill="#FFFFFF" points="52.8605,580.265, 71.4562,566.023, 442.837,595.297" />
  <polygon fill="#000000" points="334.162,371.021, 342.485,384.932, 110.069,521.189" />
  <polygon fill="#000000" points="381.789,405.984, 487.164,582.122, 461.142,580.071" />
  <polygon fill="#000000" points="77.3633,564.099, 95.0625,552.239, 406.832,590.069" />
  <polygon fill="#FFFFFF" points="342.292,388.551, 347.963,400.991, 136.873,508.98" />
  <polygon fill="#FFFFFF" points="385.555,424.515, 455.691,578.381, 433.413,575.677" />
  <polygon fill="#FFFFFF" points="100.706,550.31, 117.314,540.573, 376.261,583.746" />
  <polygon fill="#000000" points="347.837,404.494, 351.323,415.502, 161.997,499.566" />
  <polygon fill="#000000" points="385.969,440.991, 428.102,574.071, 409.244,570.927" />
  <polygon fill="#000000" points="122.75,538.676, 138.123,530.812, 350.723,576.685" />
  <polygon fill="#FFFFFF" points="351.189,418.894, 352.915,428.531, 185.2,492.596" />
  <polygon fill="#FFFFFF" points="383.704,455.446, 404.11,569.366, 388.341,565.964" />
  <polygon fill="#FFFFFF" points="143.391,528.982, 157.433,522.747, 329.786,569.2" />
  <polygon fill="#000000" points="352.71,431.808, 353.06,440.151, 206.314,487.729" />
  <polygon fill="#000000" points="379.374,467.949, 383.422,564.419, 370.411,560.912" />
  <polygon fill="#000000" points="162.557,521.015, 175.218,516.179, 313.002,561.564" />
  <polygon fill="#FFFFFF" points="352.736,443.308, 352.048,450.445, 225.245,484.643" />
  <polygon fill="#FFFFFF" points="373.531,478.596, 365.744,559.361, 355.165,555.876" />
  <polygon fill="#FFFFFF" points="180.209,514.573, 191.476,510.92, 299.914,554.003" />
  <polygon fill="#000000" points="351.569,453.471, 350.136,459.501, 241.96,483.031" />
  <polygon fill="#000000" points="366.662,487.506, 350.786,554.307, 342.324,550.946" />
  <polygon fill="#000000" points="196.335,509.464, 206.23,506.795, 290.068,546.705" />
  <polygon fill="#FFFFFF" points="349.479,462.384, 347.55,467.411, 256.483,482.611" />
  <polygon fill="#FFFFFF" points="359.186,494.815, 338.264,549.353, 331.62,546.19" />
  <polygon fill="#FFFFFF" points="210.947,505.506, 219.519,503.641, 283.02,539.815" />
  <polygon fill="#000000" points="346.705,470.137, 344.489,474.268, 268.884,483.127" />
  <polygon fill="#000000" points="351.461,500.672, 327.905,544.573, 322.799,541.665" />
  <polygon fill="#000000" points="224.08,502.531, 231.402,501.309, 278.344,533.443" />
  <polygon fill="#FFFFFF" points="343.455,476.827, 341.119,480.168, 279.273,484.347" />
  <polygon fill="#FFFFFF" points="343.779,505.23, 319.447,540.029, 315.621,537.41" />
  <polygon fill="#FFFFFF" points="235.788,500.386, 241.95,499.664, 275.637,527.665" />
  <polygon fill="#000000" points="339.905,482.547, 337.581,485.202, 287.789,486.068" />
  <polygon fill="#000000" points="336.373,508.648, 312.645,535.766, 309.865,533.455" />
  <polygon fill="#000000" points="246.139,498.929, 251.243,498.584, 274.527,522.525" />
  <polygon fill="#FFFFFF" points="294.594,488.116, 336.205,487.392, 333.993,489.463" />
  <polygon fill="#FFFFFF" points="329.424,511.083, 307.271,531.815, 305.327,529.817" />
  <polygon fill="#FFFFFF" points="255.213,498.035, 259.369,497.962, 274.672,518.042" />
  <polygon fill="#000000" points="299.863,490.342, 332.477,491.457, 330.446,493.036" />
  <polygon fill="#000000" points="323.058,512.686, 303.112,528.194, 301.822,526.501" />
  <polygon fill="#000000" points="263.101,497.591, 266.421,497.705, 275.768,514.213" />
  <polygon fill="#FFFFFF" points="303.781,492.625, 328.818,494.83, 327.014,496.004" />
  <polygon fill="#FFFFFF" points="317.361,513.602, 299.976,524.911, 299.182,523.509" />
  <polygon fill="#FFFFFF" points="269.896,497.5, 272.493,497.729, 277.548,511.015" />
  <polygon fill="#000000" points="306.533,494.868, 325.303,497.597, 323.75,498.443" />
  <polygon fill="#000000" points="312.378,513.963, 297.691,521.967, 297.259,520.832" />
  <polygon fill="#000000" points="275.696,497.677, 277.68,497.966, 279.779,508.411" />
  <polygon fill="#FFFFFF" points="308.301,496.996, 321.988,499.839, 320.694,500.427" />
  <polygon fill="#FFFFFF" points="308.12,513.892, 296.101,519.353, 295.922,518.459" />
  <polygon fill="#FFFFFF" points="280.6,498.05, 282.073,498.356, 282.269,506.353" />
  <!-- Shape 3 -->
  <polygon fill="#FFFFFF" points="462.57,196.107, 346.048,323.954, 333.178,309.635" />
  <polygon fill="#FFFFFF" points="482.376,193.867, 497.234,180.831, 479.925,419.06" />
  <polygon fill="#FFFFFF" points="355.44,351.879, 469.512,449.225, 467.524,476.58" />
  <polygon fill="#000000" points="468.674,210.003, 480.115,197.45, 478.019,390.007" />
  <polygon fill="#000000" points="371.455,361.158, 469.235,422.285, 468.994,444.396" />
  <polygon fill="#000000" points="448.462,215.881, 360.027,334.758, 348.827,325.2" />
  <polygon fill="#FFFFFF" points="385.282,365.619, 467.775,400.13, 468.69,417.761" />
  <polygon fill="#FFFFFF" points="438.102,234.433, 372.243,341.825, 362.665,335.837" />
  <polygon fill="#FFFFFF" points="457.918,225.091, 466.58,213.447, 474.552,366.994" />
  <polygon fill="#000000" points="430.777,251.318, 382.806,346.052, 374.747,342.681" />
  <polygon fill="#000000" points="449.583,238.922, 456.017,228.431, 470.168,349.155" />
  <polygon fill="#000000" points="396.991,366.573, 465.547,382.071, 467.172,395.934" />
  <polygon fill="#FFFFFF" points="443.219,251.395, 447.891,242.167, 465.352,335.671" />
  <polygon fill="#FFFFFF" points="406.718,365.077, 462.865,367.487, 464.87,378.223" />
  <polygon fill="#FFFFFF" points="425.865,266.298, 391.852,348.165, 385.175,346.655" />
  <polygon fill="#000000" points="459.964,355.82, 462.112,364.002, 414.644,361.965" />
  <polygon fill="#000000" points="422.835,279.291, 399.529,348.738, 394.079,348.504" />
  <polygon fill="#000000" points="438.443,262.487, 441.745,254.54, 460.457,325.79" />
  <polygon fill="#FFFFFF" points="421.236,290.327, 405.989,348.227, 401.606,348.821" />
  <polygon fill="#FFFFFF" points="434.934,272.235, 437.188,265.518, 455.73,318.837" />
  <polygon fill="#FFFFFF" points="457.013,346.584, 459.142,352.707, 420.97,357.882" />
  <polygon fill="#000000" points="432.424,280.709, 433.893,275.133, 451.335,314.219" />
  <polygon fill="#000000" points="454.131,339.354, 456.134,343.842, 425.904,353.318" />
  <polygon fill="#000000" points="420.697,299.509, 411.38,346.983, 407.909,348.071" />
  <polygon fill="#FFFFFF" points="451.399,333.763, 453.212,336.975, 429.651,348.631" />
  <polygon fill="#FFFFFF" points="420.913,306.99, 415.842,345.278, 413.137,346.616" />
  <polygon fill="#FFFFFF" points="430.694,288.005, 431.587,283.455, 447.372,311.425" />
  <polygon fill="#000000" points="421.643,312.95, 419.506,343.314, 417.434,344.731" />
  <polygon fill="#000000" points="429.563,294.23, 430.046,290.581, 443.889,310.021" />
  <polygon fill="#000000" points="448.867,329.502, 450.456,331.734, 432.404,344.075" />
  <polygon fill="#FFFFFF" points="428.884,299.499, 429.087,296.624, 440.9,309.645" />
  <polygon fill="#FFFFFF" points="446.561,326.308, 447.917,327.803, 434.342,339.82" />
  <polygon fill="#FFFFFF" points="422.694,317.581, 422.491,341.239, 420.932,342.619" />
  <polygon fill="#000000" points="444.492,323.962, 445.621,324.916, 435.622,335.973" />
  <polygon fill="#000000" points="423.92,321.072, 424.902,339.162, 423.754,340.432" />
  <polygon fill="#000000" points="428.542,303.922, 428.561,301.699, 438.394,310.001" />
  <polygon fill="#FFFFFF" points="425.211,323.608, 426.833,337.155, 426.007,338.273" />
  <polygon fill="#FFFFFF" points="428.444,307.607, 428.353,305.923, 436.34,310.851" />
  <polygon fill="#FFFFFF" points="442.659,322.284, 443.576,322.85, 436.386,332.586" />
  <!-- Shape 4 -->
  <polygon fill="#000000" points="500.289,167.49, 517.83,152.099, 492.238,278.306" />
  <polygon fill="#000000" points="676.519,7.49983, 696.236,7.49983, 538.828,128.309" />
  <polygon fill="#000000" points="726.219,1.89458, 880.992,1.89458, 877.294,32.413" />
  <polygon fill="#000000" points="880.693,65.8827, 851.668,305.439, 817.082,304.429" />
  <polygon fill="#000000" points="506.876,295.266, 777.341,317.314, 505.85,309.383" />
  <polygon fill="#FFFFFF" points="520.228,149.377, 538.362,135.46, 497.584,261.045" />
  <polygon fill="#FFFFFF" points="699.667,6.85411, 717.07,10.3698, 560.392,113.746" />
  <polygon fill="#FFFFFF" points="744.019,9.22912, 877.69,36.2318, 870.362,63.7123" />
  <polygon fill="#FFFFFF" points="868.828,94.8488, 812.545,305.914, 781.388,303.374" />
  <polygon fill="#FFFFFF" points="505.188,293.329, 508.137,278.79, 744.496,312.837" />
  <polygon fill="#000000" points="540.926,132.927, 559.321,120.791, 504.936,243.769" />
  <polygon fill="#000000" points="720.214,10.2317, 735.046,16.6281, 581.929,101.472" />
  <polygon fill="#000000" points="758.68,19.2483, 870.191,67.3352, 859.925,91.816" />
  <polygon fill="#000000" points="854.269,120.444, 777.094,304.488, 749.345,300.491" />
  <polygon fill="#000000" points="506.894,276.724, 511.682,261.98, 715.505,306.774" />
  <polygon fill="#FFFFFF" points="562.003,118.494, 580.316,108.347, 514.123,226.764" />
  <polygon fill="#FFFFFF" points="737.856,16.934, 749.965,25.6131, 603.051,91.6304" />
  <polygon fill="#FFFFFF" points="770.125,31.3228, 859.261,95.2114, 846.712,116.745" />
  <polygon fill="#FFFFFF" points="837.705,142.733, 745.33,301.247, 720.953,295.89" />
  <polygon fill="#FFFFFF" points="510.869,259.819, 517.374,245.111, 690.315,299.256" />
  <polygon fill="#000000" points="583.064,106.323, 600.958,98.2817, 524.933,210.316" />
  <polygon fill="#000000" points="752.406,26.2986, 761.735,36.7031, 623.387,84.275" />
  <polygon fill="#000000" points="778.37,44.868, 845.629,119.886, 831.409,138.54" />
  <polygon fill="#000000" points="819.781,161.804, 717.249,296.306, 696.185,289.711" />
  <polygon fill="#000000" points="516.97,242.893, 525.033,228.47, 668.848,290.443" />
  <polygon fill="#FFFFFF" points="603.719,96.5539, 620.874,90.655, 537.122,194.696" />
  <polygon fill="#FFFFFF" points="763.787,37.7039, 770.364,49.3192, 642.594,79.3769" />
  <polygon fill="#FFFFFF" points="783.521,59.3471, 829.983,141.404, 814.657,157.265" />
  <polygon fill="#FFFFFF" points="801.089,177.763, 692.818,289.809, 674.985,282.125" />
  <polygon fill="#FFFFFF" points="525.011,226.235, 534.438,212.343, 650.993,280.523" />
  <polygon fill="#000000" points="622.897,90.3061, 638.429,86.6523, 552.405,177.874" />
  <polygon fill="#000000" points="770.697,51.0454, 774.481,62.9481, 663.157,76.3439" />
  <polygon fill="#000000" points="786.227,76.5327, 812.433,158.947, 797.104,171.633" />
  <polygon fill="#000000" points="779.284,192.87, 673.148,280.708, 658.979,272.42" />
  <polygon fill="#000000" points="536.144,210.701, 546.325,198.053, 634.245,268.086" />
  <polygon fill="#FFFFFF" points="640.811,86.3235, 654.559,84.6692, 568.695,162.797" />
  <polygon fill="#FFFFFF" points="774.767,64.9804, 776.111,76.725, 681.442,76.2104" />
  <polygon fill="#FFFFFF" points="785.401,93.6929, 794.519,173.418, 779.662,183.242" />
  <polygon fill="#FFFFFF" points="757.868,204.189, 657.013,270.878, 646.155,262.229" />
  <polygon fill="#FFFFFF" points="548.208,196.107, 558.832,184.841, 621.913,254.817" />
  <polygon fill="#000000" points="657.224,84.4667, 669.097,84.5313, 585.537,149.695" />
  <polygon fill="#000000" points="697.185,78.6414, 776.223,79.071, 775.503,90.3019" />
  <polygon fill="#000000" points="781.504,110.268, 776.712,185.032, 762.702,192.311" />
  <polygon fill="#000000" points="737.451,212.029, 644.183,260.486, 636.271,251.71" />
  <polygon fill="#000000" points="560.977,182.65, 571.746,172.852, 613.643,241.073" />
  <polygon fill="#FFFFFF" points="671.95,84.5489, 681.92,86.0334, 602.481,138.723" />
  <polygon fill="#FFFFFF" points="710.221,83.2492, 775.331,92.9433, 772.938,103.388" />
  <polygon fill="#FFFFFF" points="775.045,125.802, 759.414,194.008, 746.533,199.06" />
  <polygon fill="#FFFFFF" points="718.529,216.726, 634.413,249.715, 629.079,241.03" />
  <polygon fill="#FFFFFF" points="574.21,170.491, 584.849,162.195, 609.042,227.206" />
  <polygon fill="#000000" points="684.853,86.3484, 692.955,88.95, 619.101,129.96" />
  <polygon fill="#000000" points="720.481,89.6141, 772.392,106.283, 768.709,115.747" />
  <polygon fill="#000000" points="766.561,139.934, 742.961,200.571, 731.406,203.71" />
  <polygon fill="#000000" points="701.489,218.638, 627.451,238.754, 624.326,230.356" />
  <polygon fill="#000000" points="587.661,159.75, 597.923,152.944, 607.686,213.561" />
  <polygon fill="#FFFFFF" points="695.854,89.62, 702.173,93.0438, 635.004,123.409" />
  <polygon fill="#FFFFFF" points="727.99,97.3034, 767.726,118.835, 763.12,127.191" />
  <polygon fill="#FFFFFF" points="756.591,152.402, 727.626,204.948, 717.517,206.484" />
  <polygon fill="#FFFFFF" points="621.751,219.854, 686.607,218.141, 623.03,227.795" />
  <polygon fill="#FFFFFF" points="601.082,150.508, 610.758,145.135, 609.126,200.452" />
  <polygon fill="#000000" points="704.922,94.1046, 709.588,98.0743, 649.844,119.004" />
  <polygon fill="#000000" points="732.855,105.888, 761.662,130.396, 756.472,137.579" />
  <polygon fill="#000000" points="745.664,163.029, 713.623,207.376, 705.008,207.603" />
  <polygon fill="#000000" points="621.093,209.679, 674.058,215.622, 620.876,217.027" />
  <polygon fill="#000000" points="614.236,142.804, 623.158,138.77, 612.898,188.163" />
  <polygon fill="#FFFFFF" points="712.077,99.5389, 715.255,103.804, 663.332,116.615" />
  <polygon fill="#FFFFFF" points="735.259,114.959, 754.528,140.815, 749.056,146.814" />
  <polygon fill="#FFFFFF" points="734.276,171.725, 701.105,208.093, 693.977,207.293" />
  <polygon fill="#FFFFFF" points="622.087,199.977, 663.92,211.473, 620.706,206.624" />
  <polygon fill="#FFFFFF" points="626.903,136.635, 634.944,133.818, 618.532,176.934" />
  <polygon fill="#000000" points="717.383,105.663, 719.264,110.005, 675.243,116.061" />
  <polygon fill="#000000" points="735.447,124.137, 746.644,149.991, 741.151,154.839" />
  <polygon fill="#000000" points="722.881,178.473, 690.174,207.339, 684.472,205.772" />
  <polygon fill="#000000" points="622.234,196.75, 624.471,190.873, 656.185,206.08" />
  <polygon fill="#000000" points="638.883,131.963, 645.961,130.217, 625.564,166.956" />
  <polygon fill="#FFFFFF" points="720.945,112.228, 721.732,116.464, 685.418,117.115" />
  <polygon fill="#FFFFFF" points="733.71,133.085, 738.313,157.863, 733.014,161.63" />
  <polygon fill="#FFFFFF" points="711.879,183.323, 680.881,205.356, 676.505,203.257" />
  <polygon fill="#FFFFFF" points="625.172,187.544, 627.987,182.475, 650.768,199.817" />
  <polygon fill="#FFFFFF" points="650.007,128.716, 656.08,127.88, 633.545,158.366" />
  <polygon fill="#000000" points="693.769,119.524, 722.902,119.002, 722.805,122.986" />
  <polygon fill="#000000" points="730.373,141.514, 729.815,164.414, 724.877,167.196" />
  <polygon fill="#000000" points="701.608,186.385, 673.229,202.378, 670.049,199.957" />
  <polygon fill="#000000" points="629.239,179.123, 632.385,174.868, 647.515,193.036" />
  <polygon fill="#000000" points="660.134,126.79, 665.202,126.699, 642.054,151.248" />
  <polygon fill="#FFFFFF" points="700.273,123.012, 723.419,125.772, 722.644,129.396" />
  <polygon fill="#FFFFFF" points="725.781,149.189, 721.4,169.661, 716.947,171.577" />
  <polygon fill="#FFFFFF" points="692.337,187.816, 667.181,198.634, 665.046,196.071" />
  <polygon fill="#FFFFFF" points="634.16,171.578, 637.426,168.114, 646.221,186.06" />
  <polygon fill="#FFFFFF" points="669.159,126.061, 673.256,126.549, 650.707,145.629" />
  <polygon fill="#000000" points="704.972,127.299, 722.681,132.353, 721.422,135.544" />
  <polygon fill="#000000" points="720.282,155.933, 713.289,173.656, 709.398,174.832" />
  <polygon fill="#000000" points="684.267,187.809, 662.663,194.344, 661.409,191.785" />
  <polygon fill="#000000" points="639.674,164.971, 642.889,162.251, 646.636,179.178" />
  <polygon fill="#000000" points="677.012,126.383, 680.201,127.293, 659.162,141.487" />
  <polygon fill="#FFFFFF" points="707.963,132.108, 720.887,138.586, 719.321,141.306" />
  <polygon fill="#FFFFFF" points="714.216,161.625, 705.665,176.473, 702.375,177.045" />
  <polygon fill="#FFFFFF" points="659.03,187.273, 677.528,186.585, 659.57,189.709" />
  <polygon fill="#FFFFFF" points="645.539,159.338, 648.566,157.296, 648.483,172.637" />
  <polygon fill="#FFFFFF" points="683.659,127.6, 686.026,128.786, 667.129,138.752" />
  <polygon fill="#000000" points="709.392,137.177, 718.241,144.342, 716.523,146.58" />
  <polygon fill="#000000" points="707.9,166.199, 698.676,178.214, 695.992,178.313" />
  <polygon fill="#000000" points="657.785,182.69, 672.184,184.38, 657.773,184.916" />
  <polygon fill="#000000" points="651.533,154.685, 654.275,153.24, 651.468,166.638" />
  <polygon fill="#000000" points="689.096,129.549, 690.744,130.883, 674.373,137.312" />
  <polygon fill="#FFFFFF" points="709.444,142.265, 714.948,149.523, 713.208,151.293" />
  <polygon fill="#FFFFFF" points="701.625,169.642, 692.433,178.993, 690.329,178.746" />
  <polygon fill="#FFFFFF" points="657.532,178.174, 668.237,181.437, 657.122,180.132" />
  <polygon fill="#FFFFFF" points="657.46,150.995, 659.853,150.055, 655.294,161.336" />
  <polygon fill="#FFFFFF" points="693.355,132.063, 694.397,133.438, 680.719,137.026" />
  <polygon fill="#000000" points="708.331,147.163, 711.205,154.058, 709.545,155.396" />
  <polygon fill="#000000" points="695.639,171.987, 687.012,178.939, 685.439,178.46" />
  <polygon fill="#000000" points="657.457,175.501, 658.127,173.843, 665.631,177.992" />
  <polygon fill="#000000" points="663.152,148.225, 665.162,147.698, 659.67,156.84" />
  <polygon fill="#000000" points="696.493,134.984, 697.046,136.31, 686.048,137.724" />
  <polygon fill="#FFFFFF" points="706.283,151.696, 707.198,157.906, 705.693,158.861" />
  <polygon fill="#FFFFFF" points="690.147,173.306, 682.453,178.189, 681.345,177.576" />
  <polygon fill="#FFFFFF" points="658.607,171.142, 659.418,169.793, 664.268,174.272" />
  <polygon fill="#FFFFFF" points="668.468,146.314, 670.091,146.105, 664.325,153.21" />
  <polygon fill="#FFFFFF" points="698.593,138.156, 698.772,139.37, 690.296,139.222" />
  <polygon fill="#000000" points="703.536,155.727, 703.097,161.054, 701.797,161.685" />
  <polygon fill="#000000" points="685.307,173.705, 678.763,176.879, 678.047,176.218" />
  <polygon fill="#000000" points="660.404,167.152, 661.256,166.102, 664.01,170.482" />
  <polygon fill="#000000" points="673.299,145.182, 674.552,145.204, 669.013,150.464" />
  <polygon fill="#000000" points="693.454,141.328, 699.755,141.439, 699.668,142.498" />
  <!-- Shape 5 -->
  <polygon fill="#FFFFFF" points="505.72,311.253, 779.372,319.246, 504.549,327.37" />
  <polygon fill="#FFFFFF" points="815.661,332.341, 848.45,333.299, 823.4,544.051" />
  <polygon fill="#FFFFFF" points="810.71,573.192, 807.708,598.444, 625.045,598.444" />
  <polygon fill="#FFFFFF" points="497.392,510.576, 594.99,594.81, 573.103,594.81" />
  <polygon fill="#FFFFFF" points="486.9,346.061, 486.198,490.666, 477.127,480.573" />
  <polygon fill="#000000" points="781.89,331.802, 811.749,330.919, 818.648,519.627" />
  <polygon fill="#000000" points="811.245,547.047, 812.086,570.05, 646.593,592.558" />
  <polygon fill="#000000" points="511.241,520.123, 618.407,592.461, 598.235,595.205" />
  <polygon fill="#000000" points="488.031,363.926, 498.01,501.971, 487.406,492.819" />
  <polygon fill="#000000" points="502.633,329.386, 747.596,322.144, 502.557,345.097" />
  <polygon fill="#FFFFFF" points="808.008,523.327, 812.062,544.044, 665.572,584.536" />
  <polygon fill="#FFFFFF" points="526.151,528.115, 639.658,587.455, 621.497,592.475" />
  <polygon fill="#FFFFFF" points="490.581,381.146, 511.28,511.944, 499.459,503.965" />
  <polygon fill="#FFFFFF" points="718.966,326.738, 502.055,362.385, 500.954,347.159" />
  <polygon fill="#FFFFFF" points="751.107,333.268, 778.135,330.736, 810.839,497.844" />
  <polygon fill="#000000" points="541.742,534.436, 658.488,580.28, 642.542,587.133" />
  <polygon fill="#000000" points="494.552,397.591, 525.641,520.39, 512.934,513.747" />
  <polygon fill="#000000" points="693.397,332.815, 503.087,379.114, 500.77,364.472" />
  <polygon fill="#000000" points="723.251,336.525, 747.534,332.534, 800.578,478.686" />
  <polygon fill="#000000" points="801.641,502.069, 808.328,520.493, 681.838,574.85" />
  <polygon fill="#FFFFFF" points="499.901,413.131, 540.721,527.187, 527.458,521.98" />
  <polygon fill="#FFFFFF" points="670.806,340.16, 505.647,395.15, 502.115,381.2" />
  <polygon fill="#FFFFFF" points="698.262,341.36, 719.882,336.1, 788.425,462.112" />
  <polygon fill="#FFFFFF" points="792.742,483.28, 801.527,499.43, 695.333,563.942" />
  <polygon fill="#FFFFFF" points="557.643,539.033, 674.736,571.402, 661.126,579.67" />
  <polygon fill="#000000" points="651.106,348.558, 509.686,410.355, 504.982,397.21" />
  <polygon fill="#000000" points="676.083,347.554, 695.117,341.217, 774.888,448.052" />
  <polygon fill="#000000" points="781.861,466.938, 792.253,480.855, 706.07,552.221" />
  <polygon fill="#000000" points="573.499,541.912, 688.324,561.253, 677.098,570.549" />
  <polygon fill="#000000" points="506.544,427.637, 556.154,532.278, 542.659,528.548" />
  <polygon fill="#FFFFFF" points="656.648,354.89, 673.18,347.666, 760.435,436.416" />
  <polygon fill="#FFFFFF" points="769.505,452.994, 781.055,464.743, 714.124,540.056" />
  <polygon fill="#FFFFFF" points="588.987,543.125, 699.249,550.236, 690.389,560.205" />
  <polygon fill="#FFFFFF" points="514.359,440.992, 571.593,535.662, 558.17,533.401" />
  <polygon fill="#FFFFFF" points="634.203,357.79, 515.114,424.596, 509.315,412.364" />
  <polygon fill="#000000" points="756.136,441.374, 768.44,451.039, 719.624,527.779" />
  <polygon fill="#000000" points="603.814,542.77, 707.57,538.717, 701.004,549.038" />
  <polygon fill="#000000" points="523.195,453.098, 586.715,537.388, 573.643,536.545" />
  <polygon fill="#000000" points="619.99,367.643, 521.804,437.752, 515.019,426.529" />
  <polygon fill="#000000" points="639.883,363.147, 654.001,355.228, 745.485,427.088" />
  <polygon fill="#FFFFFF" points="712.335,527.284, 708.086,537.338, 619.723,540.79" />
  <polygon fill="#FFFFFF" points="534.199,465.452, 600.368,536.767, 588.296,537.238" />
  <polygon fill="#FFFFFF" points="606.589,379.329, 530.359,448.845, 522.968,439.038" />
  <polygon fill="#FFFFFF" points="626.945,372.528, 638.369,364.371, 728.305,418.826" />
  <polygon fill="#FFFFFF" points="742.101,432.954, 754.388,440.394, 723.293,513.981" />
  <polygon fill="#000000" points="546.012,475.994, 613.11,534.958, 602.199,536.549" />
  <polygon fill="#000000" points="596.375,391.254, 539.442,458.684, 531.646,450.282" />
  <polygon fill="#000000" points="616.373,382.08, 625.354,373.89, 711.422,413.203" />
  <polygon fill="#000000" points="728.172,426.507, 740.115,431.962, 724.144,500.765" />
  <polygon fill="#000000" points="715.011,516.149, 712.795,525.696, 634.155,537.164" />
  <polygon fill="#FFFFFF" points="589.103,403.139, 548.91,467.255, 540.907,460.222" />
  <polygon fill="#FFFFFF" points="607.992,391.652, 614.783,383.609, 695.246,409.956" />
  <polygon fill="#FFFFFF" points="714.606,421.856, 725.944,425.568, 722.534,488.43" />
  <polygon fill="#FFFFFF" points="715.815,505.508, 715.335,514.366, 646.887,532.156" />
  <polygon fill="#FFFFFF" points="558.338,484.698, 624.785,532.107, 615.14,534.614" />
  <polygon fill="#000000" points="606.478,393.362, 680.112,408.808, 601.626,401.102" />
  <polygon fill="#000000" points="701.619,418.822, 712.152,421.032, 718.842,477.213" />
  <polygon fill="#000000" points="714.975,495.523, 715.932,503.56, 657.764,526.047" />
  <polygon fill="#000000" points="570.88,491.58, 635.274,528.371, 626.953,531.588" />
  <polygon fill="#000000" points="584.51,414.729, 558.614,474.56, 550.592,468.837" />
  <polygon fill="#FFFFFF" points="689.383,417.226, 698.97,418.167, 713.458,467.284" />
  <polygon fill="#FFFFFF" points="712.726,486.317, 714.829,493.449, 666.705,519.125" />
  <polygon fill="#FFFFFF" points="583.348,496.694, 644.502,523.913, 637.514,527.642" />
  <polygon fill="#FFFFFF" points="582.316,425.8, 568.398,480.621, 560.533,476.127" />
  <polygon fill="#FFFFFF" points="600.261,402.993, 666.281,409.475, 597.098,410.301" />
  <polygon fill="#000000" points="709.3,477.981, 712.275,484.166, 673.693,511.672" />
  <polygon fill="#000000" points="595.471,500.131, 652.427,518.896, 646.74,522.95" />
  <polygon fill="#000000" points="582.226,436.156, 578.114,485.479, 570.558,482.116" />
  <polygon fill="#000000" points="595.948,412.359, 653.948,411.667, 594.228,419.133" />
  <polygon fill="#000000" points="678.038,416.889, 686.587,416.787, 706.77,458.754" />
  <polygon fill="#FFFFFF" points="607.005,502.013, 659.038,513.482, 654.589,517.691" />
  <polygon fill="#FFFFFF" points="583.938,445.637, 587.619,489.189, 580.502,486.844" />
  <polygon fill="#FFFFFF" points="643.242,415.095, 592.835,427.496, 593.349,421.333" />
  <polygon fill="#FFFFFF" points="667.687,417.636, 675.149,416.703, 699.152,451.679" />
  <polygon fill="#FFFFFF" points="704.929,470.576, 708.519,475.807, 678.771,503.954" />
  <polygon fill="#000000" points="587.143,454.119, 596.78,491.823, 590.208,490.375" />
  <polygon fill="#000000" points="634.234,419.48, 592.737,435.305, 592.272,429.803" />
  <polygon fill="#000000" points="658.399,419.294, 664.767,417.728, 690.961,446.068" />
  <polygon fill="#000000" points="699.832,464.134, 703.807,468.435, 682.031,496.22" />
  <polygon fill="#000000" points="617.739,502.492, 664.359,507.822, 661.055,512.039" />
  <polygon fill="#FFFFFF" points="626.938,424.552, 593.754,442.49, 592.523,437.676" />
  <polygon fill="#FFFFFF" points="650.219,421.698, 655.517,419.678, 682.521,441.882" />
  <polygon fill="#FFFFFF" points="694.218,458.664, 698.375,462.082, 683.612,488.693" />
  <polygon fill="#FFFFFF" points="627.5,501.737, 668.436,502.061, 666.163,506.157" />
  <polygon fill="#FFFFFF" points="591.537,461.515, 605.481,493.465, 599.529,492.785" />
  <polygon fill="#000000" points="643.16,424.689, 647.441,422.376, 674.125,439.05" />
  <polygon fill="#000000" points="688.281,454.152, 692.447,456.755, 683.686,481.561" />
  <polygon fill="#000000" points="671.339,496.329, 669.971,500.202, 636.153,499.934" />
  <polygon fill="#000000" points="596.821,467.773, 613.621,494.209, 608.341,494.167" />
  <polygon fill="#000000" points="621.323,430.06, 595.707,448.999, 593.909,444.878" />
  <polygon fill="#FFFFFF" points="682.196,450.565, 686.23,452.435, 682.449,474.985" />
  <polygon fill="#FFFFFF" points="673.154,490.741, 672.556,494.312, 643.609,497.278" />
  <polygon fill="#FFFFFF" points="602.712,472.878, 621.117,494.156, 616.533,494.626" />
  <polygon fill="#FFFFFF" points="617.31,435.773, 598.426,454.797, 596.237,451.354" />
  <polygon fill="#FFFFFF" points="637.215,428.119, 640.552,425.652, 666.027,437.466" />
  <polygon fill="#000000" points="673.986,485.399, 674.019,488.61, 649.818,493.965" />
  <polygon fill="#000000" points="608.944,476.843, 627.905,493.414, 624.019,494.273" />
  <polygon fill="#000000" points="614.79,441.483, 601.741,459.865, 599.321,457.066" />
  <polygon fill="#000000" points="632.354,431.848, 634.838,429.345, 658.438,437.001" />
  <polygon fill="#000000" points="676.121,447.854, 679.91,449.084, 680.118,469.087" />
  <polygon fill="#FFFFFF" points="615.275,479.716, 633.943,492.09, 630.735,493.226" />
  <polygon fill="#FFFFFF" points="613.62,447.01, 605.498,464.197, 602.981,461.998" />
  <polygon fill="#FFFFFF" points="630.261,433.308, 651.528,437.511, 628.529,435.748" />
  <polygon fill="#FFFFFF" points="670.194,445.959, 673.656,446.643, 676.915,463.955" />
  <polygon fill="#FFFFFF" points="673.944,480.385, 674.475,483.203, 654.77,490.187" />
  <polygon fill="#000000" points="613.638,452.205, 609.548,467.806, 607.048,466.149" />
  <polygon fill="#000000" points="626.764,437.406, 645.424,438.836, 625.676,439.707" />
  <polygon fill="#000000" points="664.53,444.806, 667.61,445.042, 673.062,459.643" />
  <polygon fill="#000000" points="673.15,475.766, 674.049,478.176, 658.492,486.129" />
  <polygon fill="#000000" points="621.491,481.566, 639.205,490.293, 636.637,491.605" />
  <polygon fill="#FFFFFF" points="624.271,441.516, 640.209,440.813, 623.719,443.623" />
  <polygon fill="#FFFFFF" points="659.227,444.317, 661.892,444.2, 668.779,456.174" />
  <polygon fill="#FFFFFF" points="671.723,471.594, 672.875,473.597, 661.046,481.96" />
  <polygon fill="#FFFFFF" points="627.409,482.486, 643.683,488.13, 641.705,489.529" />
  <polygon fill="#FFFFFF" points="614.666,456.945, 613.756,470.715, 611.365,469.537" />
  <polygon fill="#000000" points="654.358,444.407, 656.601,444.025, 664.267,453.54" />
  <polygon fill="#000000" points="669.787,467.902, 671.086,469.515, 662.518,477.834" />
  <polygon fill="#000000" points="632.877,482.584, 647.389,485.703, 645.937,487.113" />
  <polygon fill="#000000" points="616.518,461.141, 618.001,472.958, 615.788,472.191" />
  <polygon fill="#000000" points="635.928,443.281, 622.572,447.408, 622.696,445.535" />
  <polygon fill="#FFFFFF" points="667.46,464.71, 668.817,465.961, 663.021,473.881" />
  <polygon fill="#FFFFFF" points="637.779,481.979, 650.348,483.106, 649.352,484.467" />
  <polygon fill="#FFFFFF" points="619.006,464.731, 622.177,474.582, 620.189,474.155" />
  <polygon fill="#FFFFFF" points="632.59,446.081, 622.142,450.991, 621.939,449.372" />
  <polygon fill="#FFFFFF" points="649.981,444.989, 651.811,444.424, 659.712,451.706" />
  <polygon fill="#000000" points="642.031,480.8, 652.598,480.428, 651.986,481.693" />
  <polygon fill="#000000" points="621.947,467.682, 626.191,475.639, 624.459,475.484" />
  <polygon fill="#000000" points="630.17,449.066, 622.332,454.313, 621.895,452.955" />
  <polygon fill="#000000" points="646.131,445.975, 647.571,445.298, 655.279,450.618" />
  <polygon fill="#000000" points="664.856,462.023, 666.198,462.949, 662.681,470.213" />
  <polygon fill="#FFFFFF" points="625.167,469.986, 629.968,476.189, 628.503,476.24" />
  <polygon fill="#FFFFFF" points="628.616,452.101, 623.043,457.328, 622.455,456.226" />
  <polygon fill="#FFFFFF" points="642.828,447.28, 643.914,446.553, 651.104,450.202" />
  <polygon fill="#FFFFFF" points="662.081,459.834, 663.348,460.477, 661.639,466.914" />
  <polygon fill="#FFFFFF" points="654.189,477.747, 653.887,478.883, 645.582,479.175" />
  <!-- Shape 6 -->
  <polygon fill="#000000" points="851.595,330.471, 869.067,330.981, 824.743,556.385" />
  <polygon fill="#000000" points="888.858,322.349, 1079.39,327.915, 1080.32,348.121" />
  <polygon fill="#000000" points="1088.88,369.825, 1099.05,590.173, 1078.18,590.173" />
  <polygon fill="#000000" points="831.498,578.359, 1056.59,599.076, 829.035,599.076" />
  <polygon fill="#FFFFFF" points="870.749,330.24, 887.176,332.451, 830.228,536.304" />
  <polygon fill="#FFFFFF" points="906.019,326.403, 1081.05,349.964, 1080.14,368.87" />
  <polygon fill="#FFFFFF" points="1086.13,389.495, 1076.35,590.937, 1057.04,589.16" />
  <polygon fill="#FFFFFF" points="834.719,557.154, 1036.7,595.433, 830.916,576.494" />
  <polygon fill="#000000" points="888.811,331.919, 904.064,335.639, 836.852,517.915" />
  <polygon fill="#000000" points="921.797,331.913, 1080.66,370.659, 1078.11,388.15" />
  <polygon fill="#000000" points="1081.81,407.537, 1055.27,589.711, 1037.58,586.358" />
  <polygon fill="#000000" points="834.322,555.346, 839.31,537.488, 1018.61,590.271" />
  <polygon fill="#FFFFFF" points="905.635,335.303, 919.61,340.33, 844.432,501.283" />
  <polygon fill="#FFFFFF" points="936.105,338.657, 1078.45,389.867, 1074.49,405.854" />
  <polygon fill="#FFFFFF" points="1076.18,423.876, 1035.9,586.711, 1019.87,581.992" />
  <polygon fill="#FFFFFF" points="839.086,535.755, 845.095,519.459, 1002.35,583.819" />
  <polygon fill="#000000" points="921.102,340.173, 933.723,346.302, 852.78,486.447" />
  <polygon fill="#000000" points="948.883,346.415, 1074.65,407.483, 1069.51,421.903" />
  <polygon fill="#000000" points="1069.46,438.467, 1018.29,582.163, 1003.95,576.293" />
  <polygon fill="#000000" points="845.029,517.816, 851.885,503.137, 987.945,576.306" />
  <polygon fill="#FFFFFF" points="935.121,346.307, 946.34,353.327, 861.706,473.418" />
  <polygon fill="#FFFFFF" points="960.102,354.963, 1069.51,423.431, 1063.42,436.249" />
  <polygon fill="#FFFFFF" points="1061.89,451.291, 1002.47,576.299, 989.818,569.495" />
  <polygon fill="#FFFFFF" points="851.962,501.598, 859.49,488.564, 975.368,567.962" />
  <polygon fill="#000000" points="947.635,353.476, 957.43,361.182, 871.024,462.183" />
  <polygon fill="#000000" points="969.757,364.084, 1063.28,437.664, 1056.45,448.869" />
  <polygon fill="#000000" points="1053.7,462.358, 988.459,569.355, 977.474,561.828" />
  <polygon fill="#000000" points="859.694,487.14, 867.717,475.755, 964.587,559.011" />
  <polygon fill="#FFFFFF" points="957.611,362.884, 965.625,370.721, 882.916,450.197" />
  <polygon fill="#FFFFFF" points="980.015,375.906, 1054.96,449.201, 1047.91,458.396" />
  <polygon fill="#FFFFFF" points="1042.99,474.166, 977.093,560.157, 968.138,552.461" />
  <polygon fill="#FFFFFF" points="869.406,475.394, 877.393,466.057, 953.148,547.366" />
  <polygon fill="#000000" points="966.013,372.42, 972.393,380.171, 894.8,440.848" />
  <polygon fill="#000000" points="987.947,387.912, 1046.41,458.936, 1039.37,466.294" />
  <polygon fill="#000000" points="1032.02,483.377, 967.575,550.789, 960.456,543.148" />
  <polygon fill="#000000" points="879.075,465.49, 886.847,458.022, 944.3,535.498" />
  <polygon fill="#FFFFFF" points="972.926,381.917, 977.836,389.4, 906.399,433.94" />
  <polygon fill="#FFFFFF" points="993.715,399.778, 1037.81,466.98, 1030.97,472.687" />
  <polygon fill="#FFFFFF" points="1021.13,490.179, 959.769,541.426, 954.284,534.028" />
  <polygon fill="#FFFFFF" points="888.567,457.312, 895.975,451.519, 937.826,523.738" />
  <polygon fill="#000000" points="978.451,391.228, 982.064,398.297, 917.475,429.245" />
  <polygon fill="#000000" points="997.515,411.222, 1029.32,473.455, 1022.84,477.706" />
  <polygon fill="#000000" points="1010.59,494.793, 953.535,532.221, 949.477,525.219" />
  <polygon fill="#000000" points="897.765,450.731, 904.691,446.413, 933.488,512.375" />
  <polygon fill="#FFFFFF" points="982.701,400.224, 985.193,406.766, 927.83,426.516" />
  <polygon fill="#FFFFFF" points="999.564,422.01, 1021.08,478.491, 1015.06,481.485" />
  <polygon fill="#FFFFFF" points="1000.64,497.461, 948.725,523.309, 945.891,516.819" />
  <polygon fill="#FFFFFF" points="906.567,445.61, 912.923,442.565, 931.031,501.648" />
  <polygon fill="#000000" points="985.795,408.797, 987.341,414.733, 937.307,425.492" />
  <polygon fill="#000000" points="1000.09,431.954, 1013.2,482.228, 1007.73,484.16" />
  <polygon fill="#000000" points="991.472,498.439, 945.191,514.803, 943.383,508.906" />
  <polygon fill="#000000" points="914.888,441.807, 920.613,439.836, 930.195,491.75" />
  <polygon fill="#FFFFFF" points="987.857,416.859, 988.63,422.14, 945.791,425.905" />
  <polygon fill="#FFFFFF" points="999.349,440.916, 1005.77,484.807, 1000.9,485.866" />
  <polygon fill="#FFFFFF" points="941.814,501.541, 983.214,497.992, 942.784,506.792" />
  <polygon fill="#FFFFFF" points="922.658,439.177, 927.72,438.088, 930.714,482.822" />
  <polygon fill="#000000" points="989.016,424.342, 989.176,428.948, 953.21,427.489" />
  <polygon fill="#000000" points="997.568,448.8, 998.869,486.371, 994.627,486.735" />
  <polygon fill="#000000" points="941.05,494.766, 975.961,496.384, 941.357,499.349" />
  <polygon fill="#000000" points="929.826,437.572, 934.216,437.187, 932.33,474.963" />
  <polygon fill="#FFFFFF" points="959.527,429.985, 989.399,431.197, 989.094,435.131" />
  <polygon fill="#FFFFFF" points="994.987,455.554, 992.544,487.061, 988.924,486.894" />
  <polygon fill="#FFFFFF" points="940.964,488.608, 969.763,493.869, 940.768,492.526" />
  <polygon fill="#FFFFFF" points="936.357,436.851, 940.087,437.003, 934.791,468.227" />
  <polygon fill="#000000" points="964.743,433.148, 989.129,437.392, 988.493,440.678" />
  <polygon fill="#000000" points="991.83,461.167, 986.829,487.015, 983.809,486.463" />
  <polygon fill="#000000" points="940.88,486.354, 941.435,483.08, 964.633,490.693" />
  <polygon fill="#000000" points="942.231,436.874, 945.331,437.413, 937.862,462.626" />
  <polygon fill="#FFFFFF" points="968.889,436.751, 988.325,442.914, 987.475,445.594" />
  <polygon fill="#FFFFFF" points="988.304,465.662, 981.74,486.364, 979.282,485.557" />
  <polygon fill="#FFFFFF" points="941.563,480.85, 942.354,478.18, 960.547,487.081" />
  <polygon fill="#FFFFFF" points="947.441,437.507, 949.957,438.304, 941.329,458.141" />
  <polygon fill="#000000" points="972.022,440.59, 987.1,447.763, 986.136,449.889" />
  <polygon fill="#000000" points="984.595,469.092, 977.276,485.232, 975.332,484.28" />
  <polygon fill="#000000" points="942.696,476.015, 943.618,473.895, 957.455,483.236" />
  <polygon fill="#000000" points="951.996,438.625, 953.983,439.57, 944.997,454.717" />
  <polygon fill="#FFFFFF" points="974.222,444.485, 985.558,451.954, 984.561,453.589" />
  <polygon fill="#FFFFFF" points="980.866,471.534, 973.427,483.732, 971.937,482.727" />
  <polygon fill="#FFFFFF" points="944.169,471.835, 945.137,470.204, 955.282,479.337" />
  <polygon fill="#FFFFFF" points="955.915,440.114, 957.435,441.115, 948.698,452.279" />
  <polygon fill="#000000" points="975.586,448.285, 983.793,455.512, 982.827,456.723" />
  <polygon fill="#000000" points="977.255,473.086, 970.167,481.971, 969.069,480.982" />
  <polygon fill="#000000" points="945.882,468.285, 946.828,467.076, 953.936,475.534" />
  <polygon fill="#000000" points="959.226,441.868, 960.346,442.853, 952.292,450.73" />
  <polygon fill="#FFFFFF" points="976.223,451.866, 981.891,458.472, 981.002,459.329" />
  <polygon fill="#FFFFFF" points="973.873,473.858, 967.465,480.039, 966.693,479.121" />
  <polygon fill="#FFFFFF" points="947.746,465.331, 948.62,464.475, 953.31,471.952" />
  <polygon fill="#FFFFFF" points="961.967,443.793, 962.754,444.71, 955.662,449.96" />
  <!-- Shape 7 -->
  <polygon fill="#FFFFFF" points="1104.35,328.665, 1434.96,338.322, 1105.21,347.173" />
  <polygon fill="#FFFFFF" points="1470.64,348.859, 1498.61,349.676, 1498.61,558.793" />
  <polygon fill="#FFFFFF" points="1484.04,581.428, 1484.04,599.119, 1163.53,599.119" />
  <polygon fill="#FFFFFF" points="1091.18,370.329, 1128.4,589.103, 1101.28,589.103" />
  <polygon fill="#000000" points="1441.79,348.727, 1467.84,348.027, 1493.6,541.377" />
  <polygon fill="#000000" points="1482.98,563.066, 1485.19,579.651, 1190,595.944" />
  <polygon fill="#000000" points="1096.88,388.403, 1156.48,588.497, 1131.16,589.894" />
  <polygon fill="#000000" points="1104.1,348.99, 1407.8,340.839, 1107.04,366.273" />
  <polygon fill="#FFFFFF" points="1479.68,545.93, 1483.83,561.341, 1214.29,591.589" />
  <polygon fill="#FFFFFF" points="1104.31,405.008, 1182.58,586.463, 1159.14,589.094" />
  <polygon fill="#FFFFFF" points="1382.93,344.633, 1110.99,384.04, 1106.22,368.033" />
  <polygon fill="#FFFFFF" points="1415.02,350.13, 1439.08,348.095, 1486.75,525.333" />
  <polygon fill="#000000" points="1113.21,420.122, 1206.63,583.182, 1185.13,586.88" />
  <polygon fill="#000000" points="1360.35,349.513, 1116.79,400.427, 1110.45,385.729" />
  <polygon fill="#000000" points="1390.41,352.875, 1412.44,349.683, 1478.35,510.695" />
  <polygon fill="#000000" points="1474.45,530.079, 1480.26,544.271, 1236.36,586.232" />
  <polygon fill="#FFFFFF" points="1340.08,355.294, 1124.15,415.404, 1116.49,402.033" />
  <polygon fill="#FFFFFF" points="1367.99,356.773, 1387.96,352.598, 1468.69,497.476" />
  <polygon fill="#FFFFFF" points="1467.56,515.557, 1474.77,528.499, 1256.21,580.047" />
  <polygon fill="#FFFFFF" points="1123.29,433.746, 1228.58,578.83, 1209.06,583.434" />
  <polygon fill="#000000" points="1347.76,361.637, 1365.68,356.647, 1458.03,485.673" />
  <polygon fill="#000000" points="1459.3,502.386, 1467.66,514.064, 1273.85,573.201" />
  <polygon fill="#000000" points="1134.31,445.891, 1248.4,573.581, 1230.86,578.933" />
  <polygon fill="#000000" points="1322.09,361.798, 1132.81,428.96, 1124.07,416.918" />
  <polygon fill="#FFFFFF" points="1449.94,490.57, 1459.2,500.989, 1289.33,565.856" />
  <polygon fill="#FFFFFF" points="1146.02,456.589, 1266.11,567.604, 1250.53,573.552" />
  <polygon fill="#FFFFFF" points="1306.31,368.854, 1142.52,441.101, 1132.93,430.375" />
  <polygon fill="#FFFFFF" points="1329.72,367.289, 1345.62,361.647, 1446.62,475.264" />
  <polygon fill="#000000" points="1158.19,465.88, 1281.72,561.059, 1268.07,567.459" />
  <polygon fill="#000000" points="1292.68,376.305, 1153.02,451.847, 1142.81,442.411" />
  <polygon fill="#000000" points="1313.81,373.559, 1327.74,367.418, 1434.7,466.216" />
  <polygon fill="#000000" points="1439.72,480.097, 1449.66,489.275, 1302.7,558.162" />
  <polygon fill="#FFFFFF" points="1281.11,384.003, 1164.08,461.234, 1153.46,453.048" />
  <polygon fill="#FFFFFF" points="1299.99,380.289, 1312,373.792, 1422.5,458.48" />
  <polygon fill="#FFFFFF" points="1428.9,470.94, 1439.3,478.909, 1314.06,550.26" />
  <polygon fill="#FFFFFF" points="1170.61,473.82, 1295.3,554.1, 1283.52,560.814" />
  <polygon fill="#000000" points="1288.18,387.327, 1298.36,380.608, 1410.2,451.997" />
  <polygon fill="#000000" points="1417.69,463.058, 1428.35,469.861, 1323.5,542.28" />
  <polygon fill="#000000" points="1183.09,480.474, 1306.92,546.869, 1296.93,553.77" />
  <polygon fill="#000000" points="1271.49,391.813, 1175.49,469.308, 1164.64,462.324" />
  <polygon fill="#FFFFFF" points="1406.3,456.398, 1417.04,462.089, 1331.14,534.339" />
  <polygon fill="#FFFFFF" points="1195.44,485.917, 1316.66,539.498, 1308.37,546.469" />
  <polygon fill="#FFFFFF" points="1263.7,399.611, 1187.05,476.13, 1176.15,470.287" />
  <polygon fill="#FFFFFF" points="1278.27,394.538, 1286.71,387.718, 1398,446.697" />
  <polygon fill="#000000" points="1207.51,490.23, 1324.64,532.106, 1317.95,539.043" />
  <polygon fill="#000000" points="1257.62,407.289, 1198.58,481.766, 1187.79,476.998" />
  <polygon fill="#000000" points="1270.15,401.795, 1276.97,394.985, 1386.05,442.502" />
  <polygon fill="#000000" points="1394.91,450.896, 1405.57,455.538, 1337.09,526.542" />
  <polygon fill="#FFFFFF" points="1251.88,416.512, 1210.33,485.342, 1200.19,481.716" />
  <polygon fill="#FFFFFF" points="1265.18,409.288, 1270.29,402.839, 1371.77,438.477" />
  <polygon fill="#FFFFFF" points="1383.29,447.442, 1393.32,450.967, 1342.7,517.194" />
  <polygon fill="#FFFFFF" points="1221.93,494.38, 1329.48,524.491, 1324.47,531.041" />
  <polygon fill="#000000" points="1261.57,416.388, 1265.2,410.372, 1358.26,435.859" />
  <polygon fill="#000000" points="1372.32,444.876, 1381.63,447.427, 1346.2,508.332" />
  <polygon fill="#000000" points="1235.53,497.097, 1332.99,517.292, 1329.44,523.389" />
  <polygon fill="#000000" points="1248.28,425.276, 1221.4,488.008, 1212,485.376" />
  <polygon fill="#FFFFFF" points="1362.06,443.094, 1370.59,444.812, 1347.84,500.065" />
  <polygon fill="#FFFFFF" points="1248.17,498.558, 1335.33,510.544, 1333.02,516.142" />
  <polygon fill="#FFFFFF" points="1246.56,433.465, 1231.75,489.869, 1223.15,488.088" />
  <polygon fill="#FFFFFF" points="1259.14,423.056, 1261.52,417.521, 1345.71,434.475" />
  <polygon fill="#000000" points="1259.71,498.938, 1336.64,504.273, 1335.38,509.345" />
  <polygon fill="#000000" points="1246.43,440.993, 1241.33,491.028, 1233.58,489.961" />
  <polygon fill="#000000" points="1259.08,424.24, 1334.23,434.154, 1257.76,429.262" />
  <polygon fill="#000000" points="1352.54,442, 1360.25,443.017, 1347.91,492.478" />
  <polygon fill="#FFFFFF" points="1247.64,447.797, 1250.14,491.581, 1243.23,491.102" />
  <polygon fill="#FFFFFF" points="1257.72,430.494, 1323.91,434.729, 1257.26,434.987" />
  <polygon fill="#FFFFFF" points="1343.79,441.499, 1350.66,441.939, 1346.65,485.626" />
  <polygon fill="#FFFFFF" points="1270.08,498.411, 1337.09,498.495, 1336.67,503.028" />
  <polygon fill="#000000" points="1257.29,436.259, 1314.78,436.036, 1257.52,440.223" />
  <polygon fill="#000000" points="1335.82,441.504, 1341.85,441.48, 1344.32,479.546" />
  <polygon fill="#000000" points="1336.78,493.217, 1337.04,497.213, 1279.24,497.14" />
  <polygon fill="#000000" points="1249.93,453.841, 1258.15,491.619, 1252.09,491.611" />
  <polygon fill="#FFFFFF" points="1328.62,441.931, 1333.85,441.548, 1341.15,474.25" />
  <polygon fill="#FFFFFF" points="1335.87,488.437, 1336.64,491.91, 1287.18,495.282" />
  <polygon fill="#FFFFFF" points="1253.07,459.11, 1265.39,491.226, 1260.14,491.584" />
  <polygon fill="#FFFFFF" points="1306.88,437.922, 1258.4,444.97, 1257.65,441.521" />
  <polygon fill="#000000" points="1334.45,484.147, 1335.6,487.12, 1293.91,492.982" />
  <polygon fill="#000000" points="1256.83,463.606, 1271.86,490.48, 1267.38,491.109" />
  <polygon fill="#000000" points="1300.17,440.243, 1259.79,449.233, 1258.66,446.279" />
  <polygon fill="#000000" points="1322.18,442.704, 1326.63,442.055, 1337.37,469.732" />
  <polygon fill="#FFFFFF" points="1261.02,467.351, 1277.59,489.452, 1273.84,490.27" />
  <polygon fill="#FFFFFF" points="1294.62,442.868, 1261.58,453.026, 1260.19,450.536" />
  <polygon fill="#FFFFFF" points="1316.46,443.753, 1320.21,442.919, 1333.16,465.972" />
  <polygon fill="#FFFFFF" points="1332.64,480.333, 1334.05,482.838, 1299.47,490.373" />
  <polygon fill="#000000" points="1290.18,445.679, 1263.67,456.366, 1262.12,454.304" />
  <polygon fill="#000000" points="1311.45,445.014, 1314.54,444.066, 1328.72,462.933" />
  <polygon fill="#000000" points="1330.53,476.976, 1332.09,479.049, 1303.93,487.574" />
  <polygon fill="#000000" points="1265.45,470.378, 1282.62,488.207, 1279.53,489.144" />
  <polygon fill="#FFFFFF" points="1307.11,446.432, 1309.6,445.428, 1324.19,460.57" />
  <polygon fill="#FFFFFF" points="1328.21,474.053, 1329.83,475.735, 1307.35,484.691" />
  <polygon fill="#FFFFFF" points="1269.97,472.732, 1286.98,486.803, 1284.48,487.798" />
  <polygon fill="#FFFFFF" points="1286.77,448.571, 1265.98,459.276, 1264.36,457.602" />
  <polygon fill="#000000" points="1325.75,471.538, 1327.37,472.873, 1309.83,481.814" />
  <polygon fill="#000000" points="1274.45,474.469, 1290.71,485.291, 1288.74,486.295" />
  <polygon fill="#000000" points="1284.29,451.454, 1268.42,461.78, 1266.82,460.451" />
  <polygon fill="#000000" points="1303.39,447.954, 1305.35,446.944, 1319.7,458.826" />
  <polygon fill="#FFFFFF" points="1278.77,475.648, 1293.87,483.715, 1292.36,484.69" />
  <polygon fill="#FFFFFF" points="1282.66,454.253, 1270.94,463.907, 1269.4,462.88" />
  <polygon fill="#FFFFFF" points="1300.24,449.539, 1301.75,448.559, 1315.38,457.642" />
  <polygon fill="#FFFFFF" points="1323.22,469.403, 1324.77,470.435, 1311.47,479.02" />
  <polygon fill="#000000" points="1281.77,456.905, 1273.48,465.685, 1272.05,464.917" />
  <polygon fill="#000000" points="1297.63,451.146, 1298.75,450.226, 1311.31,456.951" />
  <polygon fill="#000000" points="1320.68,467.618, 1322.12,468.39, 1312.37,476.371" />
  <polygon fill="#000000" points="1282.84,476.336, 1296.49,482.113, 1295.37,483.03" />
  <polygon fill="#FFFFFF" points="1295.5,452.745, 1296.29,451.906, 1307.56,456.686" />
  <polygon fill="#FFFFFF" points="1318.16,466.153, 1319.47,466.708, 1312.63,473.916" />
  <polygon fill="#FFFFFF" points="1286.58,476.598, 1298.62,480.52, 1297.83,481.356" />
  <polygon fill="#FFFFFF" points="1281.51,459.363, 1275.99,467.146, 1274.69,466.593" />
  <polygon fill="#000000" points="1315.72,464.976, 1316.87,465.353, 1312.35,471.69" />
  <polygon fill="#000000" points="1289.96,476.503, 1300.32,478.961, 1299.79,479.704" />
  <polygon fill="#000000" points="1281.78,461.59, 1278.43,468.319, 1277.28,467.943" />
  <polygon fill="#000000" points="1293.81,454.308, 1294.34,453.563, 1304.18,456.78" />
  <!-- Shape 8 -->
  <polygon fill="#FFFFFF" points="900.105,1.05915, 1115.09,1.05915, 897.171,25.2736" />
  <polygon fill="#FFFFFF" points="1139.44,11.7501, 1159.54,11.7501, 1243.04,280.381" />
  <polygon fill="#FFFFFF" points="1237.48,305.657, 1245.28,330.772, 915.417,321.137" />
  <polygon fill="#FFFFFF" points="886.115,50.0885, 885.576,309.985, 854.735,309.084" />
  <polygon fill="#000000" points="1118.4,12.9253, 1137.34,10.821, 1231.94,256.108" />
  <polygon fill="#000000" points="1228.96,280.134, 1237.97,303.479, 943.893,317.613" />
  <polygon fill="#000000" points="888.639,73.642, 916.134,309.608, 888.147,310.953" />
  <polygon fill="#000000" points="896.213,27.4127, 1095.2,5.30246, 896.166,49.9977" />
  <polygon fill="#FFFFFF" points="1219.21,256.556, 1229.23,278.029, 969.334,312.199" />
  <polygon fill="#FFFFFF" points="893.498,95.1856, 943.737,307.007, 918.565,310.316" />
  <polygon fill="#FFFFFF" points="1076.96,11.3209, 897.929,72.9054, 895.501,52.0695" />
  <polygon fill="#FFFFFF" points="1098.79,16.1973, 1116.37,12.2507, 1219.88,233.96" />
  <polygon fill="#000000" points="900.283,114.654, 968.43,302.483, 946.016,307.475" />
  <polygon fill="#000000" points="1060.5,18.8291, 902.036,93.8898, 897.53,74.8894" />
  <polygon fill="#000000" points="1080.79,21.2813, 1096.85,15.7571, 1207.07,213.987" />
  <polygon fill="#000000" points="1208.41,235.011, 1219.27,254.544, 991.814,305.196" />
  <polygon fill="#FFFFFF" points="1045.9,27.5458, 908.082,112.88, 901.874,95.7684" />
  <polygon fill="#FFFFFF" points="1064.51,27.8921, 1078.95,21.0541, 1193.73,196.204" />
  <polygon fill="#FFFFFF" points="1196.79,215.554, 1208.3,233.109, 1011.43,296.9" />
  <polygon fill="#FFFFFF" points="908.606,132.016, 990.277,296.34, 970.545,302.734" />
  <polygon fill="#000000" points="1050.05,35.7489, 1062.8,27.8555, 1180.06,180.599" />
  <polygon fill="#000000" points="1184.57,198.207, 1196.52,213.776, 1028.3,287.597" />
  <polygon fill="#000000" points="918.104,147.272, 1009.37,288.872, 992.22,296.396" />
  <polygon fill="#000000" points="1033.2,37.1978, 915.681,129.838, 908.126,114.638" />
  <polygon fill="#FFFFFF" points="1171.94,182.962, 1184.15,196.564, 1042.56,277.56" />
  <polygon fill="#FFFFFF" points="928.441,160.453, 1025.81,280.363, 1011.13,288.757" />
  <polygon fill="#FFFFFF" points="1022.39,47.5236, 924.473,144.761, 915.903,131.465" />
  <polygon fill="#FFFFFF" points="1037.44,44.5786, 1048.48,35.8797, 1166.28,167.128" />
  <polygon fill="#000000" points="939.307,171.619, 1039.72,271.086, 1027.39,280.102" />
  <polygon fill="#000000" points="1013.43,58.2772, 934.124,157.676, 924.845,146.248" />
  <polygon fill="#000000" points="1026.69,54.1204, 1036.02,44.8536, 1152.57,155.724" />
  <polygon fill="#000000" points="1159.13,169.783, 1171.41,181.462, 1054.36,267.045" />
  <polygon fill="#FFFFFF" points="1004.79,71.2988, 944.901,167.443, 935.509,158.14" />
  <polygon fill="#FFFFFF" points="1019.15,64.9216, 1026.57,55.6251, 1136.55,144.393" />
  <polygon fill="#FFFFFF" points="1145.57,159.782, 1157.34,169.284, 1065.8,254.259" />
  <polygon fill="#FFFFFF" points="952.519,182.715, 1050.05,260.519, 1040.25,269.616" />
  <polygon fill="#000000" points="1013.2,75.5685, 1018.88,66.4566, 1121.17,135.701" />
  <polygon fill="#000000" points="1132.62,151.623, 1143.75,159.155, 1074.25,241.474" />
  <polygon fill="#000000" points="965.701,191.223, 1058.24,250.061, 1050.68,259.014" />
  <polygon fill="#000000" points="998.544,84.2682, 955.602,175.413, 946.359,168.039" />
  <polygon fill="#FFFFFF" points="1120.39,145.15, 1130.75,150.923, 1080.03,228.993" />
  <polygon fill="#FFFFFF" points="978.512,197.367, 1064.52,239.864, 1058.92,248.491" />
  <polygon fill="#FFFFFF" points="994.47,96.8923, 966.043,181.736, 957.158,176.087" />
  <polygon fill="#FFFFFF" points="1008.72,85.9153, 1012.84,77.1648, 1106.65,129.413" />
  <polygon fill="#000000" points="990.674,201.393, 1069.12,230.06, 1065.19,238.212" />
  <polygon fill="#000000" points="992.334,108.926, 976.068,186.565, 967.705,182.433" />
  <polygon fill="#000000" points="1005.55,95.8398, 1008.32,87.5906, 1093.17,125.276" />
  <polygon fill="#000000" points="1108.93,140.201, 1118.45,144.43, 1083.49,217.071" />
  <polygon fill="#FFFFFF" points="991.886,120.171, 985.557,190.057, 977.835,187.236" />
  <polygon fill="#FFFFFF" points="1003.57,105.242, 1005.17,97.5996, 1080.85,123.027" />
  <polygon fill="#FFFFFF" points="1098.31,136.613, 1106.93,139.511, 1084.96,205.911" />
  <polygon fill="#FFFFFF" points="1001.97,203.557, 1072.23,220.753, 1069.73,228.319" />
  <polygon fill="#000000" points="1002.63,114.044, 1003.26,107.081, 1069.81,122.396" />
  <polygon fill="#000000" points="1088.55,134.226, 1096.25,135.997, 1084.75,195.672" />
  <polygon fill="#000000" points="1012.24,204.122, 1074.07,212.026, 1072.74,218.93" />
  <polygon fill="#000000" points="992.866,130.476, 994.416,192.37, 987.416,190.657" />
  <polygon fill="#FFFFFF" points="1079.68,132.88, 1086.45,133.722, 1083.19,186.464" />
  <polygon fill="#FFFFFF" points="1021.37,203.352, 1074.83,203.941, 1074.44,210.136" />
  <polygon fill="#FFFFFF" points="995.016,139.732, 1002.58,193.656, 996.346,192.859" />
  <polygon fill="#FFFFFF" points="1002.43,115.949, 1060.09,123.118, 1002.58,122.188" />
  <polygon fill="#000000" points="1074.67,196.541, 1075.03,202.004, 1029.3,201.5" />
  <polygon fill="#000000" points="998.082,147.875, 1010,194.064, 1004.55,194.004" />
  <polygon fill="#000000" points="1002.52,124.137, 1051.71,124.932, 1003.29,129.635" />
  <polygon fill="#000000" points="1071.7,132.426, 1077.57,132.52, 1080.57,178.359" />
  <polygon fill="#FFFFFF" points="1001.83,154.875, 1016.67,193.736, 1011.99,194.247" />
  <polygon fill="#FFFFFF" points="1003.38,131.602, 1044.66,127.593, 1004.61,136.364" />
  <polygon fill="#FFFFFF" points="1064.61,132.717, 1069.6,132.232, 1077.16,171.387" />
  <polygon fill="#FFFFFF" points="1073.78,189.848, 1074.7,194.584, 1036.02,198.811" />
  <polygon fill="#000000" points="1038.89,130.871, 1006.43,142.369, 1004.88,138.32" />
  <polygon fill="#000000" points="1058.37,133.619, 1062.54,132.705, 1073.2,165.545" />
  <polygon fill="#000000" points="1072.3,183.871, 1073.61,187.901, 1041.54,195.513" />
  <polygon fill="#000000" points="1006.03,160.737, 1022.56,192.806, 1018.63,193.74" />
  <polygon fill="#FFFFFF" points="1052.96,135.006, 1056.38,133.795, 1068.93,160.8" />
  <polygon fill="#FFFFFF" points="1070.37,178.604, 1071.93,181.965, 1045.91,191.813" />
  <polygon fill="#FFFFFF" points="1010.48,165.497, 1027.71,191.397, 1024.47,192.623" />
  <polygon fill="#FFFFFF" points="1034.34,134.556, 1008.62,147.659, 1006.88,144.282" />
  <polygon fill="#000000" points="1068.12,174.027, 1069.81,176.77, 1049.21,187.896" />
  <polygon fill="#000000" points="1015.01,169.212, 1032.12,189.624, 1029.52,191.029" />
  <polygon fill="#000000" points="1030.91,138.461, 1011.08,152.253, 1009.25,149.498" />
  <polygon fill="#000000" points="1048.35,136.762, 1051.08,135.368, 1064.53,157.096" />
  <polygon fill="#FFFFFF" points="1019.47,171.962, 1035.85,187.589, 1033.82,189.078" />
  <polygon fill="#FFFFFF" points="1028.5,142.424, 1013.71,156.18, 1011.87,153.989" />
  <polygon fill="#FFFFFF" points="1044.47,138.784, 1046.6,137.303, 1060.17,154.354" />
  <polygon fill="#FFFFFF" points="1065.64,170.112, 1067.38,172.295, 1051.53,183.925" />
  <polygon fill="#000000" points="1026.99,146.308, 1016.42,159.48, 1014.65,157.787" />
  <polygon fill="#000000" points="1041.27,140.979, 1042.87,139.489, 1055.97,152.482" />
  <polygon fill="#000000" points="1063.05,166.822, 1064.75,168.509, 1052.97,180.036" />
  <polygon fill="#000000" points="1023.73,173.84, 1038.93,185.384, 1037.4,186.88" />
  <polygon fill="#FFFFFF" points="1038.7,143.268, 1039.86,141.829, 1052.06,151.377" />
  <polygon fill="#FFFFFF" points="1060.41,164.115, 1062.02,165.371, 1053.65,176.339" />
  <polygon fill="#FFFFFF" points="1027.69,174.949, 1041.41,183.088, 1040.3,184.531" />
  <polygon fill="#FFFFFF" points="1026.26,150, 1019.15,162.195, 1017.49,160.934" />
  <polygon fill="#000000" points="1057.8,161.94, 1059.27,162.833, 1053.7,172.923" />
  <polygon fill="#000000" points="1031.28,175.398, 1043.34,180.769, 1042.6,182.115" />
  <polygon fill="#000000" points="1026.19,153.414, 1021.83,164.375, 1020.32,163.479" />
  <polygon fill="#000000" points="1036.69,145.581, 1037.48,144.238, 1048.5,150.931" />
  <polygon fill="#FFFFFF" points="1034.44,175.298, 1044.79,178.485, 1044.34,179.703" />
  <polygon fill="#FFFFFF" points="1026.64,156.487, 1024.4,166.071, 1023.07,165.476" />
  <polygon fill="#FFFFFF" points="1035.19,147.86, 1035.68,146.645, 1045.36,151.032" />
  <polygon fill="#FFFFFF" points="1055.28,160.249, 1056.59,160.842, 1053.22,169.848" />
  <polygon fill="#000000" points="1027.51,159.176, 1026.84,167.336, 1025.68,166.98" />
  <polygon fill="#000000" points="1034.13,150.059, 1034.38,148.99, 1042.66,151.573" />
  <polygon fill="#000000" points="1052.88,158.987, 1054.02,159.341, 1052.34,167.158" />
  <polygon fill="#000000" points="1037.16,174.759, 1045.82,176.283, 1045.59,177.354" />
  <!-- Shape 9 -->
  <polygon fill="#000000" points="1161.3,11.3174, 1185.55,11.3174, 1245.82,283.24" />
  <polygon fill="#000000" points="1207.44,0.998055, 1488.31,0.998055, 1488.31,24.9783" />
  <polygon fill="#000000" points="1499.29,50.066, 1499.29,327.725, 1482.34,327.229" />
  <polygon fill="#000000" points="1260.62,308.069, 1464.28,337.289, 1267.92,331.554" />
  <polygon fill="#FFFFFF" points="1187.31,10.481, 1210.07,12.4246, 1242.69,260.365" />
  <polygon fill="#FFFFFF" points="1231.09,4.95555, 1489.2,26.9922, 1487.83,49.4563" />
  <polygon fill="#FFFFFF" points="1496.47,73.3459, 1480.89,328.045, 1464.38,325.677" />
  <polygon fill="#FFFFFF" points="1259.43,306.075, 1254.54,284.036, 1446.58,332.928" />
  <polygon fill="#000000" points="1211.79,11.8061, 1233,15.4819, 1241.71,239.266" />
  <polygon fill="#000000" points="1253.01,10.5867, 1488.54,51.4117, 1485.89,72.2542" />
  <polygon fill="#000000" points="1492.36,94.7892, 1462.92,326.277, 1447.06,322.239" />
  <polygon fill="#000000" points="1253.57,282.098, 1250.88,261.618, 1429.74,326.951" />
  <polygon fill="#FFFFFF" points="1234.66,15.0671, 1254.26,20.2564, 1242.65,220.02" />
  <polygon fill="#FFFFFF" points="1273.16,17.6561, 1486.44,74.1343, 1482.62,93.2742" />
  <polygon fill="#FFFFFF" points="1487.1,114.329, 1445.62,322.639, 1430.56,317.141" />
  <polygon fill="#FFFFFF" points="1250.11,259.754, 1249.37,240.922, 1413.92,319.589" />
  <polygon fill="#000000" points="1255.87,20.0296, 1273.82,26.51, 1245.25,202.673" />
  <polygon fill="#000000" points="1291.49,25.9263, 1483.01,95.0639, 1478.17,112.445" />
  <polygon fill="#000000" points="1480.84,131.924, 1429.15,317.355, 1415.05,310.613" />
  <polygon fill="#000000" points="1248.8,239.145, 1249.79,222.025, 1399.24,311.07" />
  <polygon fill="#FFFFFF" points="1275.35,26.4542, 1291.63,34.003, 1249.27,187.247" />
  <polygon fill="#FFFFFF" points="1308.02,35.1615, 1478.4,114.131, 1472.66,129.722" />
  <polygon fill="#FFFFFF" points="1473.73,147.559, 1413.68,310.658, 1400.64,302.889" />
  <polygon fill="#FFFFFF" points="1249.39,220.35, 1251.89,204.98, 1385.8,301.625" />
  <polygon fill="#000000" points="1292.82,35.7099, 1306.96,43.833, 1255.47,170.791" />
  <polygon fill="#000000" points="1325.93,47.1547, 1471.06,130.508, 1464.78,143.851" />
  <polygon fill="#000000" points="1464.36,164.231, 1399.93,301.15, 1388.42,292.848" />
  <polygon fill="#000000" points="1253.02,204.226, 1256.66,191.062, 1371.06,289.417" />
  <polygon fill="#FFFFFF" points="1308.27,45.5217, 1320.4,53.9636, 1263.02,157.115" />
  <polygon fill="#FFFFFF" points="1341.21,59.8279, 1463.25,144.821, 1456.62,156.05" />
  <polygon fill="#FFFFFF" points="1454.27,178.08, 1387.53,291.131, 1377.54,282.544" />
  <polygon fill="#FFFFFF" points="1257.77,190.12, 1262.27,179.036, 1358.33,276.571" />
  <polygon fill="#000000" points="1321.81,55.6852, 1332.05,64.2195, 1271.52,146.088" />
  <polygon fill="#000000" points="1353.96,72.8267, 1455.11,157.157, 1448.31,166.422" />
  <polygon fill="#000000" points="1443.74,189.244, 1376.49,280.798, 1367.97,272.147" />
  <polygon fill="#000000" points="1263.41,177.954, 1268.5,168.805, 1347.6,263.435" />
  <polygon fill="#FFFFFF" points="1333.53,66.012, 1342.02,74.4422, 1280.64,137.546" />
  <polygon fill="#FFFFFF" points="1364.34,85.8318, 1446.77,167.613, 1439.95,175.08" />
  <polygon fill="#FFFFFF" points="1433.02,197.894, 1366.82,270.332, 1359.69,261.809" />
  <polygon fill="#FFFFFF" points="1269.7,167.637, 1275.16,160.263, 1338.82,250.322" />
  <polygon fill="#000000" points="1343.53,76.3307, 1350.44,84.4912, 1290.06,131.297" />
  <polygon fill="#000000" points="1372.5,98.5616, 1438.36,176.301, 1431.65,182.145" />
  <polygon fill="#000000" points="1422.35,204.228, 1358.48,259.901, 1352.66,251.666" />
  <polygon fill="#000000" points="1276.46,159.061, 1282.07,153.291, 1331.92,237.506" />
  <polygon fill="#FFFFFF" points="1351.92,86.4887, 1357.41,94.2441, 1299.5,127.127" />
  <polygon fill="#FFFFFF" points="1378.62,110.775, 1429.99,183.345, 1423.52,187.746" />
  <polygon fill="#FFFFFF" points="1411.93,208.465, 1351.42,249.652, 1346.79,241.838" />
  <polygon fill="#FFFFFF" points="1283.5,152.108, 1289.1,147.765, 1326.77,225.227" />
  <polygon fill="#000000" points="1358.83,96.3523, 1363.06,103.597, 1308.72,124.807" />
  <polygon fill="#000000" points="1382.91,122.27, 1421.76,188.875, 1415.63,192.016" />
  <polygon fill="#000000" points="1401.95,210.837, 1345.58,239.716, 1342.04,232.425" />
  <polygon fill="#000000" points="1290.64,146.651, 1296.09,143.556, 1323.24,213.68" />
  <polygon fill="#FFFFFF" points="1364.38,105.807, 1367.51,112.464, 1317.53,124.096" />
  <polygon fill="#FFFFFF" points="1385.57,132.888, 1413.78,193.029, 1408.07,195.09" />
  <polygon fill="#FFFFFF" points="1392.56,211.587, 1340.9,230.202, 1338.31,223.51" />
  <polygon fill="#FFFFFF" points="1297.76,142.555, 1302.94,140.531, 1321.17,203.022" />
  <polygon fill="#000000" points="1368.7,114.759, 1370.87,120.776, 1325.76,124.753" />
  <polygon fill="#000000" points="1386.81,142.51, 1406.13,195.949, 1400.89,197.102" />
  <polygon fill="#000000" points="1335.51,215.159, 1383.88,210.961, 1337.27,221.204" />
  <polygon fill="#000000" points="1304.72,139.682, 1309.56,138.557, 1320.38,193.37" />
  <polygon fill="#FFFFFF" points="1371.9,123.132, 1373.28,128.483, 1333.3,126.536" />
  <polygon fill="#FFFFFF" points="1386.84,151.054, 1398.88,197.775, 1394.14,198.187" />
  <polygon fill="#FFFFFF" points="1333.55,207.422, 1376,209.201, 1334.61,212.794" />
  <polygon fill="#FFFFFF" points="1311.43,137.893, 1315.85,137.503, 1320.69,184.803" />
  <polygon fill="#000000" points="1340.04,129.211, 1374.13,130.87, 1374.85,135.548" />
  <polygon fill="#000000" points="1385.86,158.477, 1392.09,198.65, 1387.88,198.473" />
  <polygon fill="#000000" points="1332.33,200.332, 1369,206.543, 1332.81,205.027" />
  <polygon fill="#000000" points="1317.79,137.047, 1321.76,137.24, 1321.92,177.363" />
  <polygon fill="#FFFFFF" points="1345.95,132.555, 1375.49,137.933, 1375.69,141.951" />
  <polygon fill="#FFFFFF" points="1384.09,164.767, 1385.8,198.71, 1382.11,198.086" />
  <polygon fill="#FFFFFF" points="1331.79,197.94, 1331.77,193.91, 1362.91,203.212" />
  <polygon fill="#FFFFFF" points="1323.75,137.01, 1327.24,137.646, 1323.88,171.06" />
  <polygon fill="#000000" points="1350.99,136.362, 1376.12,144.299, 1375.92,147.686" />
  <polygon fill="#000000" points="1381.71,169.944, 1380.04,198.09, 1376.87,197.145" />
  <polygon fill="#000000" points="1331.43,191.556, 1331.77,188.16, 1357.73,199.414" />
  <polygon fill="#000000" points="1329.24,137.648, 1332.26,138.603, 1326.4,165.874" />
  <polygon fill="#FFFFFF" points="1355.17,140.442, 1376.12,149.961, 1375.62,152.756" />
  <polygon fill="#FFFFFF" points="1378.89,174.051, 1374.83,196.916, 1372.16,195.759" />
  <polygon fill="#FFFFFF" points="1331.63,185.881, 1332.24,183.078, 1353.45,195.341" />
  <polygon fill="#FFFFFF" points="1334.24,138.836, 1336.8,140, 1329.31,161.76" />
  <polygon fill="#000000" points="1358.5,144.628, 1375.61,154.924, 1374.91,157.179" />
  <polygon fill="#000000" points="1375.81,177.155, 1370.18,195.305, 1367.98,194.031" />
  <polygon fill="#000000" points="1332.3,180.907, 1333.08,178.647, 1350.04,191.16" />
  <polygon fill="#000000" points="1338.73,140.458, 1340.86,141.737, 1332.47,158.651" />
  <polygon fill="#FFFFFF" points="1361.05,148.775, 1374.68,159.207, 1373.86,160.978" />
  <polygon fill="#FFFFFF" points="1372.6,179.34, 1366.09,193.368, 1364.31,192.055" />
  <polygon fill="#FFFFFF" points="1333.35,176.615, 1334.23,174.841, 1347.45,187.016" />
  <polygon fill="#FFFFFF" points="1342.7,142.403, 1344.42,143.72, 1335.73,156.463" />
  <polygon fill="#000000" points="1362.86,152.761, 1373.44,162.839, 1372.57,164.185" />
  <polygon fill="#000000" points="1369.38,180.701, 1362.54,191.203, 1361.14,189.914" />
  <polygon fill="#000000" points="1334.68,172.977, 1335.6,171.628, 1345.6,183.033" />
  <polygon fill="#000000" points="1346.16,144.574, 1347.52,145.866, 1338.98,155.099" />
  <polygon fill="#FFFFFF" points="1364.01,156.488, 1371.97,165.857, 1371.09,166.84" />
  <polygon fill="#FFFFFF" points="1366.27,181.345, 1359.51,188.9, 1358.44,187.683" />
  <polygon fill="#FFFFFF" points="1336.23,169.954, 1337.14,168.969, 1344.42,179.307" />
  <polygon fill="#FFFFFF" points="1349.12,146.882, 1350.15,148.102, 1342.12,154.454" />
  <polygon fill="#000000" points="1364.59,159.883, 1370.35,168.304, 1369.51,168.985" />
  <polygon fill="#000000" points="1363.34,181.379, 1356.97,186.536, 1356.19,185.424" />
  <polygon fill="#000000" points="1337.9,167.504, 1338.77,166.821, 1343.83,175.913" />
  <polygon fill="#000000" points="1351.6,149.251, 1352.36,150.363, 1345.06,154.418" />
</svg>
