<?xml version="1.0" standalone="no"?>
<!DOCTYPE svg PUBLIC "-//W3C//DTD SVG 1.1//EN" "http://www.w3.org/Graphics/SVG/1.1/DTD/svg11.dtd">
<svg viewBox="0, 0, 1500, 500" xmlns="http://www.w3.org/2000/svg" version="1.1">
  <!-- Shape 1 -->
  <polygon fill="#000000" points="756.267,0, 1245.13,0, 1500,233.983, 1500,500" />
  <polygon fill="#FFFFFF" points="831.384,50.5, 1195.75,0, 1474.26,210.351, 1500,473.132" />
  <polygon fill="#000000" points="898.915,93.1859, 1158.95,5.1005, 1446.13,189.106, 1497.4,446.591" />
  <polygon fill="#FFFFFF" points="959.362,128.88, 1132.69,13.9971, 1417.12,170.521, 1492.22,420.585" />
  <polygon fill="#000000" points="1013.18,158.342, 1115.18,25.6003, 1388.4,154.712, 1484.64,395.329" />
  <polygon fill="#FFFFFF" points="1060.8,182.278, 1104.88,39.0072, 1360.8,141.672, 1474.92,371.027" />
  <polygon fill="#000000" points="1100.43,53.4775, 1334.95,131.303, 1463.39,347.862, 1102.62,201.341" />
  <polygon fill="#FFFFFF" points="1100.65,68.4118, 1311.27,123.442, 1450.42,325.989, 1139.06,216.14" />
  <polygon fill="#000000" points="1104.53,83.3323, 1289.99,117.884, 1436.36,305.532, 1170.51,227.235" />
  <polygon fill="#FFFFFF" points="1111.19,97.8665, 1271.26,114.395, 1421.58,286.58, 1197.36,235.143" />
  <polygon fill="#000000" points="1119.89,111.731, 1255.09,112.725, 1406.4,269.189, 1220.01,240.338" />
  <polygon fill="#FFFFFF" points="1130.01,124.721, 1241.44,112.625, 1391.12,253.386, 1238.83,243.252" />
  <polygon fill="#000000" points="1141,136.692, 1230.18,113.846, 1376,239.169, 1254.21,244.275" />
  <polygon fill="#FFFFFF" points="1152.43,147.558, 1221.18,116.154, 1361.27,226.512, 1266.51,243.76" />
  <polygon fill="#000000" points="1163.95,157.275, 1214.23,119.326, 1347.12,215.365, 1276.08,242.018" />
  <polygon fill="#FFFFFF" points="1175.28,165.834, 1209.15,123.159, 1333.7,205.665, 1283.26,239.326" />
  <polygon fill="#000000" points="1186.19,173.256, 1205.73,127.469, 1321.12,197.332, 1288.35,235.926" />
  <polygon fill="#FFFFFF" points="1196.5,179.586, 1203.76,132.093, 1309.47,190.276, 1291.66,232.028" />
  <polygon fill="#000000" points="1203.03,136.89, 1298.79,184.4, 1293.46,227.811, 1206.12,184.883" />
  <polygon fill="#FFFFFF" points="1203.34,141.737, 1289.12,179.601, 1294,223.427, 1214.94,189.218" />
  <polygon fill="#000000" points="1204.51,146.533, 1280.45,175.777, 1293.51,219, 1222.92,192.673" />
  <polygon fill="#FFFFFF" points="1206.37,151.193, 1272.78,172.823, 1292.19,214.635, 1230.05,195.332" />
  <polygon fill="#000000" points="1208.76,155.651, 1266.08,170.639, 1290.23,210.412, 1236.33,197.282" />
  <polygon fill="#FFFFFF" points="1211.55,159.856, 1260.29,169.125, 1287.79,206.395, 1241.77,198.608" />
  <polygon fill="#000000" points="1214.6,163.77, 1255.36,168.189, 1285.01,202.63, 1246.42,199.394" />
  <polygon fill="#FFFFFF" points="1217.81,167.368, 1251.25,167.742, 1282.02,199.152, 1250.32,199.721" />
  <polygon fill="#000000" points="1221.1,170.636, 1247.87,167.705, 1278.91,195.979, 1253.52,199.664" />
  <polygon fill="#FFFFFF" points="1224.37,173.567, 1245.17,168.001, 1275.77,193.124, 1256.08,199.292" />
  <polygon fill="#000000" points="1227.57,176.166, 1243.07,168.563, 1272.68,190.586, 1258.07,198.669" />
  <polygon fill="#FFFFFF" points="1230.65,178.438, 1241.5,169.331, 1269.69,188.362, 1259.55,197.852" />
  <polygon fill="#000000" points="1233.57,180.399, 1240.41,170.251, 1266.84,186.44, 1260.57,196.894" />
  <polygon fill="#FFFFFF" points="1236.3,182.065, 1239.71,171.276, 1264.17,184.805, 1261.21,195.838" />
  <polygon fill="#000000" points="1238.81,183.456, 1239.37,172.365, 1261.7,183.438, 1261.51,194.724" />
  <polygon fill="#FFFFFF" points="1239.31,173.486, 1259.45,182.32, 1261.53,193.584, 1241.11,184.594" />
  <polygon fill="#000000" points="1239.49,174.607, 1257.41,181.428, 1261.32,192.446, 1243.17,185.502" />
  <polygon fill="#FFFFFF" points="1239.87,175.708, 1255.6,180.739, 1260.92,191.333, 1245,186.203" />
  <polygon fill="#000000" points="1240.38,176.768, 1254.01,180.231, 1260.38,190.263, 1246.61,186.722" />
  <polygon fill="#FFFFFF" points="1241.01,177.773, 1252.64,179.881, 1259.74,189.25, 1248,187.079" />
  <polygon fill="#000000" points="1241.72,178.713, 1251.46,179.668, 1259.02,188.304, 1249.19,187.299" />
  <polygon fill="#FFFFFF" points="1242.47,179.58, 1250.48,179.572, 1258.26,187.431, 1250.18,187.4" />
  <polygon fill="#000000" points="1243.25,180.37, 1249.67,179.572, 1257.47,186.638, 1251,187.403" />
  <polygon fill="#FFFFFF" points="1244.03,181.08, 1249.02,179.653, 1256.69,185.924, 1251.65,187.326" />
  <polygon fill="#000000" points="1244.8,181.711, 1248.52,179.797, 1255.91,185.291, 1252.16,187.184" />
  <polygon fill="#FFFFFF" points="1245.55,182.264, 1248.14,179.99, 1255.17,184.736, 1252.54,186.993" />
  <polygon fill="#000000" points="1246.25,182.742, 1247.88,180.22, 1254.46,184.257, 1252.8,186.765" />
  <polygon fill="#FFFFFF" points="1246.91,183.148, 1247.72,180.475, 1253.79,183.849, 1252.97,186.512" />
  <polygon fill="#000000" points="1247.53,183.488, 1247.64,180.745, 1253.18,183.508, 1253.05,186.243" />
  <polygon fill="#FFFFFF" points="1247.62,181.022, 1252.62,183.229, 1253.07,185.967, 1248.08,183.766" />
  <polygon fill="#000000" points="1247.67,181.299, 1252.11,183.006, 1253.02,185.69, 1248.59,183.988" />
  <polygon fill="#FFFFFF" points="1247.76,181.571, 1251.67,182.834, 1252.93,185.419, 1249.03,184.16" />
  <polygon fill="#000000" points="1247.89,181.832, 1251.27,182.706, 1252.8,185.158, 1249.43,184.287" />
  <polygon fill="#FFFFFF" points="1248.05,182.08, 1250.93,182.618, 1252.65,184.91, 1249.77,184.375" />
  <polygon fill="#000000" points="1248.22,182.312, 1250.64,182.563, 1252.47,184.679, 1250.06,184.429" />
  <polygon fill="#FFFFFF" points="1248.41,182.526, 1250.39,182.538, 1252.29,184.465, 1250.3,184.454" />
  <polygon fill="#000000" points="1248.6,182.721, 1250.19,182.537, 1252.1,184.27, 1250.5,184.455" />
  <polygon fill="#FFFFFF" points="1248.79,182.896, 1250.03,182.555, 1251.9,184.095, 1250.66,184.437" />
  <polygon fill="#000000" points="1248.98,183.051, 1249.91,182.59, 1251.72,183.94, 1250.79,184.402" />
  <polygon fill="#FFFFFF" points="1249.16,183.188, 1249.81,182.636, 1251.53,183.803, 1250.88,184.356" />
  <polygon fill="#000000" points="1249.34,183.306, 1249.75,182.692, 1251.36,183.686, 1250.95,184.3" />
  <polygon fill="#FFFFFF" points="1249.5,183.406, 1249.71,182.754, 1251.2,183.585, 1250.99,184.238" />
  <polygon fill="#000000" points="1249.65,183.49, 1249.69,182.82, 1251.05,183.501, 1251.01,184.172" />
  <polygon fill="#FFFFFF" points="1249.68,182.888, 1250.91,183.432, 1251.01,184.104, 1249.79,183.559" />
  <polygon fill="#000000" points="1249.69,182.955, 1250.78,183.377, 1251,184.036, 1249.91,183.614" />
  <polygon fill="#FFFFFF" points="1249.71,183.022, 1250.67,183.335, 1250.98,183.97, 1250.02,183.657" />
  <!-- Shape 2 -->
  <polygon fill="#FFFFFF" points="1245.13,0, 1500,0, 1500,233.983" />
  <polygon fill="#000000" points="1270.87,0, 1500,23.6323, 1474.26,210.351" />
  <polygon fill="#FFFFFF" points="1294.01,2.38686, 1497.4,42.4909, 1453.72,189.106" />
  <polygon fill="#000000" points="1314.55,6.43737, 1492.99,57.299, 1437.59,170.247" />
  <polygon fill="#FFFFFF" points="1332.57,11.5744, 1487.39,68.7067, 1425.16,153.702" />
  <polygon fill="#000000" points="1348.21,17.3448, 1481.11,77.2913, 1415.81,139.347" />
  <polygon fill="#FFFFFF" points="1361.63,23.3994, 1474.51,83.5589, 1408.98,127.025" />
  <polygon fill="#000000" points="1373.03,29.4755, 1467.89,87.949, 1404.2,116.559" />
  <polygon fill="#FFFFFF" points="1382.61,35.3813, 1461.46,90.8386, 1401.05,107.763" />
  <polygon fill="#000000" points="1390.58,40.9825, 1455.36,92.548, 1399.19,100.453" />
  <polygon fill="#FFFFFF" points="1397.12,46.1906, 1449.69,93.3464, 1398.32,94.4463" />
  <polygon fill="#000000" points="1402.43,50.9533, 1444.5,93.4575, 1398.2,89.5725" />
  <polygon fill="#FFFFFF" points="1406.68,55.2463, 1439.82,93.0651, 1398.63,85.6719" />
  <polygon fill="#000000" points="1410.03,59.066, 1435.66,92.3184, 1399.44,82.599" />
  <polygon fill="#FFFFFF" points="1412.62,62.4244, 1432,91.3367, 1400.51,80.2221" />
  <polygon fill="#000000" points="1414.57,65.3446, 1428.82,90.2141, 1401.73,78.4246" />
  <polygon fill="#FFFFFF" points="1403.03,77.1035, 1416.01,67.8564, 1426.08,89.0234" />
  <polygon fill="#000000" points="1404.34,76.1695, 1417.03,69.9943, 1423.76,87.8195" />
  <polygon fill="#FFFFFF" points="1405.62,75.5458, 1417.71,71.7946, 1421.8,86.6428" />
  <polygon fill="#000000" points="1406.84,75.167, 1418.12,73.2943, 1420.16,85.522" />
  <polygon fill="#FFFFFF" points="1407.98,74.9778, 1418.33,74.5293, 1418.82,84.4762" />
  <polygon fill="#000000" points="1409.03,74.9325, 1418.38,75.5339, 1417.72,83.5168" />
  <polygon fill="#FFFFFF" points="1409.97,74.9933, 1418.31,76.3402, 1416.84,82.6498" />
  <polygon fill="#000000" points="1410.81,75.1293, 1418.16,76.9775, 1416.15,81.8765" />
  <polygon fill="#FFFFFF" points="1411.56,75.316, 1417.96,77.4723, 1415.61,81.195" />
  <polygon fill="#000000" points="1412.2,75.5338, 1417.72,77.8483, 1415.2,80.6013" />
  <polygon fill="#FFFFFF" points="1412.76,75.7675, 1417.47,78.1263, 1414.9,80.0894" />
  <polygon fill="#000000" points="1413.24,76.0058, 1417.21,78.3246, 1414.68,79.6529" />
  <polygon fill="#FFFFFF" points="1413.64,76.24, 1416.95,78.4588, 1414.54,79.2846" />
  <polygon fill="#000000" points="1413.97,76.4641, 1416.71,78.5422, 1414.45,78.9771" />
  <polygon fill="#FFFFFF" points="1414.25,76.674, 1416.48,78.5861, 1414.4,78.7232" />
  <polygon fill="#000000" points="1414.47,76.8671, 1416.27,78.5999, 1414.38,78.5163" />
  <polygon fill="#FFFFFF" points="1414.65,77.0421, 1416.08,78.5915, 1414.39,78.3497" />
  <polygon fill="#000000" points="1414.8,77.1986, 1415.91,78.5671, 1414.42,78.2176" />
  <polygon fill="#FFFFFF" points="1414.91,77.3368, 1415.76,78.5318, 1414.46,78.1147" />
  <polygon fill="#000000" points="1415,77.4575, 1415.63,78.4897, 1414.5,78.0361" />
  <polygon fill="#FFFFFF" points="1414.55,77.9777, 1415.06,77.5617, 1415.51,78.4438" />
  <polygon fill="#000000" points="1414.6,77.9357, 1415.11,77.6508, 1415.42,78.3968" />
  <polygon fill="#FFFFFF" points="1414.65,77.9069, 1415.14,77.7262, 1415.33,78.3502" />
  <polygon fill="#000000" points="1414.7,77.8887, 1415.16,77.7892, 1415.27,78.3054" />
  <polygon fill="#FFFFFF" points="1414.75,77.8786, 1415.17,77.8413, 1415.21,78.2633" />
  <polygon fill="#000000" points="1414.79,77.8748, 1415.17,77.884, 1415.16,78.2245" />
  <polygon fill="#FFFFFF" points="1414.83,77.8758, 1415.17,77.9184, 1415.12,78.1892" />
  <polygon fill="#000000" points="1414.86,77.8801, 1415.17,77.9457, 1415.09,78.1575" />
  <polygon fill="#FFFFFF" points="1414.89,77.8867, 1415.16,77.9671, 1415.07,78.1295" />
  <polygon fill="#000000" points="1414.92,77.8948, 1415.15,77.9835, 1415.05,78.105" />
  <polygon fill="#FFFFFF" points="1414.94,77.9038, 1415.14,77.9958, 1415.04,78.0837" />
  <polygon fill="#000000" points="1414.96,77.9131, 1415.13,78.0047, 1415.03,78.0656" />
  <polygon fill="#FFFFFF" points="1414.98,77.9223, 1415.12,78.0108, 1415.02,78.0502" />
  <polygon fill="#000000" points="1415,77.9313, 1415.11,78.0148, 1415.02,78.0373" />
  <!-- Shape 3 -->
  <polygon fill="#FFFFFF" points="1234.57,321.558, 1500,500, 1003.83,500" />
  <polygon fill="#000000" points="1211.27,339.581, 1473.19,481.977, 1053.94,500" />
  <polygon fill="#FFFFFF" points="1195.38,355.783, 1446.74,467.595, 1096.29,498.18" />
  <polygon fill="#000000" points="1185.37,370.165, 1421.35,456.302, 1131.68,495.091" />
  <polygon fill="#FFFFFF" points="1179.95,382.783, 1397.52,447.602, 1160.94,491.173" />
  <polygon fill="#000000" points="1178.03,393.73, 1375.54,441.056, 1184.83,486.772" />
  <polygon fill="#FFFFFF" points="1178.72,403.127, 1355.59,436.276, 1204.1,482.155" />
  <polygon fill="#000000" points="1181.28,411.109, 1337.73,432.928, 1219.4,477.521" />
  <polygon fill="#FFFFFF" points="1185.13,417.817, 1321.93,430.724, 1231.35,473.017" />
  <polygon fill="#000000" points="1189.8,423.392, 1308.11,429.42, 1240.5,468.746" />
  <polygon fill="#FFFFFF" points="1194.92,427.973, 1296.16,428.812, 1247.33,464.774" />
  <polygon fill="#000000" points="1200.21,431.69, 1285.94,428.727, 1252.26,461.142" />
  <polygon fill="#FFFFFF" points="1205.47,434.664, 1277.28,429.026, 1255.66,457.868" />
  <polygon fill="#000000" points="1210.54,437.008, 1270.02,429.596, 1257.84,454.955" />
  <polygon fill="#FFFFFF" points="1215.31,438.821, 1264.02,430.344, 1259.07,452.393" />
  <polygon fill="#000000" points="1219.73,440.191, 1259.1,431.2, 1259.57,450.167" />
  <polygon fill="#FFFFFF" points="1255.12,432.108, 1259.52,448.251, 1223.76,441.199" />
  <polygon fill="#000000" points="1251.95,433.027, 1259.08,446.621, 1227.37,441.911" />
  <polygon fill="#FFFFFF" points="1249.47,433.924, 1258.36,445.248, 1230.57,442.387" />
  <polygon fill="#000000" points="1247.56,434.779, 1257.46,444.104, 1233.38,442.676" />
  <polygon fill="#FFFFFF" points="1246.13,435.576, 1256.46,443.162, 1235.81,442.82" />
  <polygon fill="#000000" points="1245.09,436.308, 1255.42,442.396, 1237.9,442.855" />
  <polygon fill="#FFFFFF" points="1244.36,436.969, 1254.38,441.781, 1239.67,442.808" />
  <polygon fill="#000000" points="1243.89,437.559, 1253.36,441.295, 1241.15,442.704" />
  <polygon fill="#FFFFFF" points="1243.61,438.079, 1252.41,440.918, 1242.39,442.562" />
  <polygon fill="#000000" points="1243.49,438.531, 1251.52,440.631, 1243.4,442.396" />
  <polygon fill="#FFFFFF" points="1243.48,438.922, 1250.71,440.419, 1244.22,442.218" />
  <polygon fill="#000000" points="1243.55,439.255, 1249.98,440.268, 1244.87,442.036" />
  <polygon fill="#FFFFFF" points="1243.69,439.536, 1249.33,440.165, 1245.39,441.857" />
  <polygon fill="#000000" points="1243.86,439.77, 1248.76,440.102, 1245.79,441.687" />
  <polygon fill="#FFFFFF" points="1244.05,439.964, 1248.26,440.068, 1246.09,441.526" />
  <polygon fill="#000000" points="1244.26,440.121, 1247.84,440.058, 1246.31,441.379" />
  <polygon fill="#FFFFFF" points="1244.47,440.248, 1247.48,440.064, 1246.46,441.246" />
  <polygon fill="#000000" points="1244.67,440.349, 1247.17,440.083, 1246.56,441.126" />
  <polygon fill="#FFFFFF" points="1244.86,440.428, 1246.92,440.11, 1246.63,441.021" />
  <polygon fill="#000000" points="1245.04,440.488, 1246.71,440.142, 1246.66,440.929" />
  <polygon fill="#FFFFFF" points="1246.54,440.177, 1246.66,440.849, 1245.2,440.532" />
  <polygon fill="#000000" points="1246.41,440.213, 1246.65,440.781, 1245.35,440.564" />
  <polygon fill="#FFFFFF" points="1246.3,440.248, 1246.62,440.724, 1245.48,440.586" />
  <polygon fill="#000000" points="1246.22,440.282, 1246.59,440.676, 1245.6,440.6" />
  <polygon fill="#FFFFFF" points="1246.15,440.314, 1246.55,440.636, 1245.7,440.608" />
  <polygon fill="#000000" points="1246.11,440.344, 1246.51,440.604, 1245.78,440.611" />
  <polygon fill="#FFFFFF" points="1246.08,440.371, 1246.47,440.577, 1245.86,440.61" />
  <polygon fill="#000000" points="1246.05,440.395, 1246.43,440.557, 1245.92,440.607" />
  <polygon fill="#FFFFFF" points="1246.04,440.416, 1246.39,440.54, 1245.97,440.602" />
  <polygon fill="#000000" points="1246.03,440.435, 1246.36,440.528, 1246.01,440.595" />
  <polygon fill="#FFFFFF" points="1246.03,440.451, 1246.33,440.518, 1246.05,440.589" />
  <polygon fill="#000000" points="1246.03,440.465, 1246.3,440.512, 1246.08,440.581" />
  <polygon fill="#FFFFFF" points="1246.04,440.477, 1246.27,440.507, 1246.1,440.574" />
  <polygon fill="#000000" points="1246.04,440.487, 1246.25,440.504, 1246.12,440.568" />
  <!-- Shape 4 -->
  <polygon fill="#000000" points="0,0, 115.947,0, 0,96.1003" />
  <polygon fill="#FFFFFF" points="0,9.70613, 104.236,0, 11.7107,86.3942" />
  <polygon fill="#000000" points="1.18278,17.4516, 93.7085,0.980319, 21.0558,77.6683" />
  <polygon fill="#FFFFFF" points="3.18995,23.5335, 84.3634,2.64392, 28.3937,69.9229" />
  <polygon fill="#000000" points="5.73553,28.2188, 76.1649,4.75377, 34.0466,63.1277" />
  <polygon fill="#FFFFFF" points="8.59495,31.7446, 69.0515,7.12374, 38.3006,57.2319" />
  <polygon fill="#000000" points="62.9454,9.61045, 41.4064,52.171, 11.5952,34.3188" />
  <polygon fill="#FFFFFF" points="57.7591,12.106, 43.5819,47.8724, 14.6061,36.1219" />
  <polygon fill="#000000" points="53.4006,14.5316, 45.0138,44.26, 17.5327,37.3087" />
  <polygon fill="#FFFFFF" points="49.778,16.8321, 45.8608,41.2574, 20.3083,38.0108" />
  <polygon fill="#000000" points="46.8015,18.9711, 46.2565,38.7904, 22.8891,38.3387" />
  <polygon fill="#FFFFFF" points="44.3864,20.9273, 46.3115,36.7887, 25.2492,38.3843" />
  <polygon fill="#000000" points="42.4535,22.6904, 46.1171,35.1867, 27.3765,38.2232" />
  <polygon fill="#FFFFFF" points="40.9307,24.2592, 45.7471,33.9246, 29.2693,37.9165" />
  <polygon fill="#000000" points="39.7529,25.6386, 45.2606,32.9484, 30.9335,37.5133" />
  <polygon fill="#FFFFFF" points="38.8622,26.838, 44.7043,32.2101, 32.3806,37.0522" />
  <polygon fill="#000000" points="38.2075,27.8696, 44.1143,31.6675, 33.6253,36.5632" />
  <polygon fill="#FFFFFF" points="37.7447,28.7477, 43.5177,31.2839, 34.6847,36.0687" />
  <polygon fill="#000000" points="37.4357,29.4871, 42.9346,31.0277, 35.5768,35.5855" />
  <polygon fill="#FFFFFF" points="37.2479,30.103, 42.3792,30.8721, 36.3199,35.1251" />
  <polygon fill="#000000" points="37.1542,30.6102, 41.861,30.7945, 36.9319,34.6956" />
  <polygon fill="#FFFFFF" points="37.1317,31.0229, 41.3856,30.7759, 37.4298,34.3016" />
  <polygon fill="#000000" points="37.1618,31.354, 40.9559,30.8008, 37.8293,33.9455" />
  <polygon fill="#FFFFFF" points="37.2293,31.6157, 40.5727,30.8567, 38.1451,33.6279" />
  <polygon fill="#000000" points="37.3218,31.819, 40.235,30.9333, 38.3903,33.348" />
  <polygon fill="#FFFFFF" points="37.4297,31.9734, 39.9408,31.0228, 38.5766,33.1041" />
  <polygon fill="#000000" points="39.6872,31.1188, 38.7144,32.8939, 37.5455,32.0876" />
  <polygon fill="#FFFFFF" points="39.4709,31.2167, 38.8126,32.7146, 37.6636,32.169" />
  <polygon fill="#000000" points="39.2883,31.3128, 38.8791,32.5633, 37.7796,32.2241" />
  <polygon fill="#FFFFFF" points="39.136,31.4049, 38.9204,32.437, 37.8907,32.2584" />
  <polygon fill="#000000" points="39.0102,31.4911, 38.9422,32.3328, 37.9947,32.2764" />
  <polygon fill="#FFFFFF" points="38.9076,31.5704, 38.9491,32.2478, 38.0904,32.2821" />
  <polygon fill="#000000" points="38.8251,31.6423, 38.9449,32.1793, 38.1771,32.2786" />
  <polygon fill="#FFFFFF" points="38.7596,31.7066, 38.9328,32.1251, 38.2547,32.2686" />
  <polygon fill="#000000" points="38.7086,31.7633, 38.9153,32.0828, 38.3231,32.2541" />
  <polygon fill="#FFFFFF" points="38.6697,31.8129, 38.8944,32.0506, 38.383,32.2368" />
  <polygon fill="#000000" points="38.6407,31.8557, 38.8717,32.0266, 38.4346,32.218" />
  <polygon fill="#FFFFFF" points="38.6199,31.8923, 38.8484,32.0093, 38.4788,32.1987" />
  <polygon fill="#000000" points="38.6057,31.9233, 38.8253,31.9975, 38.5161,32.1795" />
  <polygon fill="#FFFFFF" points="38.5966,31.9491, 38.8031,31.99, 38.5473,32.1612" />
  <polygon fill="#000000" points="38.5916,31.9706, 38.7823,31.9859, 38.5732,32.1439" />
  <polygon fill="#FFFFFF" points="38.5898,31.9881, 38.763,31.9843, 38.5943,32.1279" />
  <polygon fill="#000000" points="38.5902,32.0022, 38.7455,31.9847, 38.6113,32.1134" />
  <polygon fill="#FFFFFF" points="38.5924,32.0134, 38.7298,31.9865, 38.6249,32.1004" />
  <polygon fill="#000000" points="38.5956,32.0222, 38.716,31.9892, 38.6355,32.0889" />
  <polygon fill="#FFFFFF" points="38.5997,32.0289, 38.7038,31.9925, 38.6436,32.0788" />
  <polygon fill="#000000" points="38.6933,31.9962, 38.6497,32.0701, 38.6041,32.034" />
  <polygon fill="#FFFFFF" points="38.6843,32, 38.6541,32.0626, 38.6087,32.0376" />
  <polygon fill="#000000" points="38.6766,32.0038, 38.6571,32.0563, 38.6133,32.0402" />
  <polygon fill="#FFFFFF" points="38.6702,32.0075, 38.6591,32.051, 38.6177,32.0418" />
  <!-- Shape 5 -->
  <polygon fill="#FFFFFF" points="0,96.1003, 163.121,161.734, 0,290.39" />
  <polygon fill="#000000" points="0,115.724, 146.646,155.105, 16.4753,277.396" />
  <polygon fill="#FFFFFF" points="1.664,132.052, 131.835,151.127, 29.6225,265.044" />
  <polygon fill="#000000" points="4.48781,145.485, 118.688,149.201, 39.946,253.539" />
  <polygon fill="#FFFFFF" points="8.06909,156.398, 107.153,148.825, 47.8989,243.001" />
  <polygon fill="#000000" points="12.0919,165.145, 97.1459,149.59, 53.8836,233.489" />
  <polygon fill="#FFFFFF" points="16.3129,172.048, 88.5555,151.161, 58.2531,225.015" />
  <polygon fill="#000000" points="20.5488,177.397, 81.259,153.271, 61.3136,217.556" />
  <polygon fill="#FFFFFF" points="24.6661,181.453, 75.1272,155.707, 63.3281,211.063" />
  <polygon fill="#000000" points="70.0307,158.308, 64.5198,205.472, 28.5709,184.444" />
  <polygon fill="#FFFFFF" points="65.8432,160.948, 65.0764,200.709, 32.2018,186.568" />
  <polygon fill="#000000" points="62.4454,163.535, 65.1539,196.693, 35.5221,187.996" />
  <polygon fill="#FFFFFF" points="59.7262,166.006, 64.8803,193.344, 38.5149,188.874" />
  <polygon fill="#000000" points="57.5838,168.315, 64.3597,190.583, 41.1778,189.326" />
  <polygon fill="#FFFFFF" points="55.9268,170.438, 63.6754,188.334, 43.5192,189.453" />
  <polygon fill="#000000" points="54.6737,172.358, 62.8928,186.526, 45.555,189.34" />
  <polygon fill="#FFFFFF" points="53.7527,174.073, 62.0626,185.095, 47.3061,189.056" />
  <polygon fill="#000000" points="53.1016,175.586, 61.2233,183.982, 48.7965,188.656" />
  <polygon fill="#FFFFFF" points="52.6668,176.906, 60.403,183.134, 50.0516,188.183" />
  <polygon fill="#000000" points="52.4026,178.045, 59.6217,182.505, 51.0971,187.673" />
  <polygon fill="#FFFFFF" points="52.2708,179.018, 58.8926,182.055, 51.9581,187.151" />
  <polygon fill="#000000" points="52.2392,179.839, 58.2238,181.748, 52.6585,186.637" />
  <polygon fill="#FFFFFF" points="52.2815,180.526, 57.6193,181.555, 53.2206,186.143" />
  <polygon fill="#000000" points="52.3764,181.093, 57.0802,181.451, 53.6648,185.68" />
  <polygon fill="#FFFFFF" points="52.5065,181.556, 56.6051,181.415, 54.0098,185.252" />
  <polygon fill="#000000" points="52.6583,181.93, 56.1912,181.429, 54.2719,184.865" />
  <polygon fill="#FFFFFF" points="52.8213,182.226, 55.8343,181.48, 54.4658,184.518" />
  <polygon fill="#000000" points="52.9874,182.458, 55.53,181.555, 54.604,184.211" />
  <polygon fill="#FFFFFF" points="53.1507,182.635, 55.2732,181.646, 54.6975,183.943" />
  <polygon fill="#000000" points="55.0588,181.746, 54.7557,183.711, 53.3069,182.767" />
  <polygon fill="#FFFFFF" points="54.8819,181.849, 54.7863,183.512, 53.4532,182.862" />
  <polygon fill="#000000" points="54.7376,181.952, 54.7959,183.344, 53.5879,182.928" />
  <polygon fill="#FFFFFF" points="54.6215,182.05, 54.79,183.204, 53.7099,182.97" />
  <polygon fill="#000000" points="54.5294,182.143, 54.773,183.087, 53.819,182.994" />
  <polygon fill="#FFFFFF" points="54.4577,182.229, 54.7484,182.992, 53.9153,183.003" />
  <polygon fill="#000000" points="54.4029,182.307, 54.719,182.915, 53.9995,183.002" />
  <polygon fill="#FFFFFF" points="54.3621,182.377, 54.6871,182.853, 54.0722,182.993" />
  <polygon fill="#000000" points="54.3328,182.439, 54.6543,182.805, 54.1343,182.979" />
  <polygon fill="#FFFFFF" points="54.3128,182.494, 54.6218,182.768, 54.1868,182.961" />
  <polygon fill="#000000" points="54.3001,182.541, 54.5906,182.741, 54.2307,182.942" />
  <polygon fill="#FFFFFF" points="54.2931,182.582, 54.5613,182.721, 54.2671,182.922" />
  <polygon fill="#000000" points="54.2904,182.616, 54.5342,182.707, 54.2968,182.901" />
  <polygon fill="#FFFFFF" points="54.2911,182.645, 54.5096,182.697, 54.3208,182.882" />
  <polygon fill="#000000" points="54.2941,182.669, 54.4875,182.692, 54.3398,182.863" />
  <polygon fill="#FFFFFF" points="54.2987,182.688, 54.468,182.69, 54.3547,182.846" />
  <polygon fill="#000000" points="54.3044,182.704, 54.4509,182.69, 54.3662,182.83" />
  <polygon fill="#FFFFFF" points="54.3106,182.717, 54.4361,182.691, 54.3747,182.816" />
  <polygon fill="#000000" points="54.3171,182.727, 54.4234,182.694, 54.3809,182.803" />
  <polygon fill="#FFFFFF" points="54.3235,182.735, 54.4127,182.697, 54.3852,182.792" />
  <polygon fill="#000000" points="54.3298,182.74, 54.4037,182.701, 54.388,182.783" />
  <!-- Shape 6 -->
  <polygon fill="#FFFFFF" points="0,290.39, 163.121,161.734, 359.438,240.723, 0,500" />
  <polygon fill="#000000" points="146.646,174.728, 339.61,232.745, 36.3033,473.813, 0,311.561" />
  <polygon fill="#FFFFFF" points="131.835,188.548, 320.121,226.886, 66.9373,449.465, 3.66663,327.948" />
  <polygon fill="#000000" points="118.89,202.627, 301.104,223.014, 92.5088,426.985, 10.057,340.221" />
  <polygon fill="#FFFFFF" points="107.898,216.524, 282.7,220.955, 113.577,406.384, 18.3846,348.984" />
  <polygon fill="#000000" points="98.8569,229.903, 265.045,220.507, 130.658,387.655, 27.999,354.782" />
  <polygon fill="#FFFFFF" points="91.7003,242.516, 248.26,221.456, 144.232,370.773, 38.3676,358.102" />
  <polygon fill="#000000" points="86.3137,254.19, 232.448,223.583, 154.738,355.692, 49.0599,359.382" />
  <polygon fill="#FFFFFF" points="82.5511,264.814, 217.688,226.674, 162.587,342.349, 59.7334,359.009" />
  <polygon fill="#000000" points="80.2465,274.328, 204.039,230.527, 168.152,330.666, 70.1216,357.326" />
  <polygon fill="#FFFFFF" points="79.2239,282.711, 191.536,234.95, 171.777,320.552, 80.0227,354.634" />
  <polygon fill="#000000" points="79.3046,289.975, 180.193,239.774, 173.773,311.906, 89.2899,351.192" />
  <polygon fill="#FFFFFF" points="80.3131,296.158, 170.003,244.845, 174.421,304.621, 97.8227,347.224" />
  <polygon fill="#000000" points="160.944,250.027, 173.975,298.583, 105.559,342.921, 82.0815,301.316" />
  <polygon fill="#FFFFFF" points="152.979,255.207, 172.659,293.679, 112.469,338.443, 84.4528,305.518" />
  <polygon fill="#000000" points="146.058,260.289, 170.671,289.794, 118.548,333.922, 87.2824,308.843" />
  <polygon fill="#FFFFFF" points="140.122,265.193, 168.185,286.814, 123.813,329.465, 90.4403,311.376" />
  <polygon fill="#000000" points="135.104,269.857, 165.351,284.63, 128.294,325.157, 93.8109,313.203" />
  <polygon fill="#FFFFFF" points="130.933,274.235, 162.296,283.138, 132.037,321.064, 97.2937,314.41" />
  <polygon fill="#000000" points="127.536,278.293, 159.128,282.239, 135.093,317.233, 100.803,315.082" />
  <polygon fill="#FFFFFF" points="124.836,282.009, 155.937,281.84, 137.521,313.699, 104.266,315.3" />
  <polygon fill="#000000" points="122.758,285.371, 152.796,281.857, 139.381,310.481, 107.625,315.138" />
  <polygon fill="#FFFFFF" points="121.23,288.377, 149.762,282.212, 140.736,307.59, 110.832,314.668" />
  <polygon fill="#000000" points="120.18,291.033, 146.88,282.835, 141.647,305.027, 113.852,313.953" />
  <polygon fill="#FFFFFF" points="119.54,293.348, 144.184,283.663, 142.176,302.785, 116.66,313.051" />
  <polygon fill="#000000" points="119.25,295.338, 141.695,284.641, 142.379,300.854, 119.237,312.014" />
  <polygon fill="#FFFFFF" points="119.248,297.022, 139.428,285.721, 142.31,299.217, 121.574,310.887" />
  <polygon fill="#000000" points="137.39,286.863, 142.019,297.854, 123.668,309.708, 119.483,298.422" />
  <polygon fill="#FFFFFF" points="135.581,288.03, 141.551,296.743, 125.522,308.511, 119.906,299.562" />
  <polygon fill="#000000" points="133.998,289.195, 140.948,295.863, 127.141,307.323, 120.473,300.466" />
  <polygon fill="#FFFFFF" points="132.632,290.333, 140.246,295.19, 128.535,306.165, 121.147,301.159" />
  <polygon fill="#000000" points="131.472,291.427, 139.477,294.699, 129.718,305.057, 121.893,301.664" />
  <polygon fill="#FFFFFF" points="130.504,292.461, 138.669,294.369, 130.704,304.011, 122.683,302.007" />
  <polygon fill="#000000" points="129.714,293.425, 137.844,294.176, 131.508,303.037, 123.493,302.209" />
  <polygon fill="#FFFFFF" points="129.086,294.312, 137.023,294.1, 132.148,302.142, 124.303,302.293" />
  <polygon fill="#000000" points="128.603,295.118, 136.221,294.122, 132.64,301.33, 125.095,302.278" />
  <polygon fill="#FFFFFF" points="128.249,295.841, 135.452,294.222, 133.002,300.602, 125.857,302.182" />
  <polygon fill="#000000" points="128.007,296.482, 134.724,294.386, 133.25,299.957, 126.579,302.022" />
  <polygon fill="#FFFFFF" points="127.863,297.041, 134.046,294.597, 133.398,299.395, 127.253,301.814" />
  <polygon fill="#000000" points="127.801,297.523, 133.421,294.844, 133.464,298.91, 127.873,301.569" />
  <polygon fill="#FFFFFF" points="127.809,297.932, 132.854,295.115, 133.46,298.499, 128.438,301.301" />
  <polygon fill="#000000" points="132.344,295.399, 133.398,298.158, 128.945,301.018, 127.872,298.272" />
  <polygon fill="#FFFFFF" points="131.892,295.69, 133.292,297.879, 129.395,300.729, 127.98,298.549" />
  <polygon fill="#000000" points="131.497,295.978, 133.151,297.658, 129.789,300.441, 128.123,298.77" />
  <polygon fill="#FFFFFF" points="131.157,296.26, 132.984,297.488, 130.128,300.16, 128.292,298.938" />
  <polygon fill="#000000" points="130.867,296.531, 132.799,297.364, 130.416,299.89, 128.477,299.062" />
  <polygon fill="#FFFFFF" points="130.626,296.786, 132.604,297.28, 130.657,299.635, 128.673,299.145" />
  <polygon fill="#000000" points="130.429,297.025, 132.404,297.23, 130.854,299.397, 128.873,299.195" />
  <polygon fill="#FFFFFF" points="130.271,297.244, 132.205,297.209, 131.01,299.178, 129.073,299.215" />
  <polygon fill="#000000" points="130.15,297.443, 132.009,297.213, 131.131,298.979, 129.269,299.212" />
  <!-- Shape 7 -->
  <polygon fill="#000000" points="359.438,240.723, 658.769,361.162, 472.145,500, 0,500" />
  <polygon fill="#FFFFFF" points="389.671,252.888, 639.92,375.185, 424.458,500, 36.3033,473.813" />
  <polygon fill="#000000" points="414.946,265.24, 618.159,387.791, 385.255,497.355, 71.9934,451.5" />
  <polygon fill="#FFFFFF" points="435.47,277.617, 594.635,398.857, 353.615,492.724, 106.632,432.687" />
  <polygon fill="#000000" points="451.546,289.863, 570.292,408.337, 328.67,486.66, 139.844,417.025" />
  <polygon fill="#FFFFFF" points="463.54,301.829, 545.888,416.248, 309.598,479.627, 171.326,404.182" />
  <polygon fill="#000000" points="200.84,393.844, 471.857,313.385, 522.023,422.649, 295.633,472.007" />
  <polygon fill="#FFFFFF" points="228.212,385.718, 476.924,324.421, 499.158,427.634, 286.059,464.113" />
  <polygon fill="#000000" points="253.332,379.527, 479.169,334.845, 477.635,431.319, 280.216,456.195" />
  <polygon fill="#FFFFFF" points="276.142,375.014, 479.014,344.589, 457.696,433.831, 277.501,448.451" />
  <polygon fill="#000000" points="296.632,371.941, 476.861,353.602, 439.496,435.308, 277.364,441.034" />
  <polygon fill="#FFFFFF" points="314.835,370.089, 473.087,361.855, 423.121,435.886, 279.31,434.056" />
  <polygon fill="#000000" points="330.819,369.257, 468.041,369.332, 408.596,435.701, 282.898,427.595" />
  <polygon fill="#FFFFFF" points="344.678,369.265, 462.037,376.035, 395.9,434.883, 287.738,421.703" />
  <polygon fill="#000000" points="356.531,369.949, 455.357,381.979, 384.976,433.551, 293.489,416.407" />
  <polygon fill="#FFFFFF" points="366.513,371.164, 448.248,387.188, 375.736,431.82, 299.856,411.714" />
  <polygon fill="#000000" points="374.768,372.782, 440.925,391.695, 368.072,429.789, 306.588,407.619" />
  <polygon fill="#FFFFFF" points="381.45,374.692, 433.566,395.543, 361.862,427.55, 313.475,404.1" />
  <polygon fill="#000000" points="386.713,376.798, 426.324,398.776, 356.975,425.181, 320.34,401.13" />
  <polygon fill="#FFFFFF" points="327.044,398.672, 390.714,379.018, 419.32,401.443, 353.275,422.752" />
  <polygon fill="#000000" points="333.474,396.687, 393.603,381.283, 412.649,403.595, 350.625,420.32" />
  <polygon fill="#FFFFFF" points="339.547,395.132, 395.527,383.536, 406.385,405.284, 348.893,417.933" />
  <polygon fill="#000000" points="345.201,393.96, 396.624,385.733, 400.578,406.562, 347.949,415.63" />
  <polygon fill="#FFFFFF" points="350.395,393.129, 397.023,387.837, 395.263,407.478, 347.672,413.442" />
  <polygon fill="#000000" points="355.105,392.595, 396.845,389.82, 390.456,408.08, 347.947,411.39" />
  <polygon fill="#FFFFFF" points="359.32,392.315, 396.2,391.665, 386.163,408.414, 348.67,409.492" />
  <polygon fill="#000000" points="363.045,392.249, 395.186,393.356, 382.376,408.523, 349.745,407.757" />
  <polygon fill="#FFFFFF" points="366.291,392.361, 393.892,394.888, 379.08,408.446, 351.089,406.191" />
  <polygon fill="#000000" points="369.079,392.616, 392.396,396.257, 376.253,408.218, 352.624,404.794" />
  <polygon fill="#FFFFFF" points="371.434,392.984, 390.766,397.465, 373.867,407.872, 354.286,403.564" />
  <polygon fill="#000000" points="373.387,393.436, 389.059,398.517, 371.889,407.437, 356.018,402.495" />
  <polygon fill="#FFFFFF" points="374.97,393.95, 387.325,399.418, 370.286,406.938, 357.772,401.58" />
  <polygon fill="#000000" points="376.217,394.502, 385.604,400.177, 369.022,406.397, 359.509,400.81" />
  <polygon fill="#FFFFFF" points="361.197,400.173, 377.165,395.075, 383.929,400.805, 368.061,405.832" />
  <polygon fill="#000000" points="362.81,399.658, 377.849,395.654, 382.326,401.313, 367.368,405.261" />
  <polygon fill="#FFFFFF" points="364.329,399.253, 378.301,396.225, 380.816,401.712, 366.908,404.695" />
  <polygon fill="#000000" points="365.74,398.947, 378.555,396.779, 379.411,402.013, 366.647,404.145" />
  <polygon fill="#FFFFFF" points="367.034,398.728, 378.641,397.308, 378.122,402.228, 366.555,403.62" />
  <polygon fill="#000000" points="368.206,398.585, 378.589,397.805, 376.954,402.369, 366.604,403.126" />
  <polygon fill="#FFFFFF" points="369.255,398.506, 378.424,398.266, 375.908,402.445, 366.766,402.668" />
  <polygon fill="#000000" points="370.181,398.482, 378.17,398.688, 374.985,402.468, 367.017,402.247" />
  <polygon fill="#FFFFFF" points="370.988,398.503, 377.848,399.07, 374.18,402.446, 367.337,401.867" />
  <polygon fill="#000000" points="371.681,398.56, 377.478,399.411, 373.489,402.387, 367.705,401.527" />
  <polygon fill="#FFFFFF" points="372.266,398.646, 377.075,399.711, 372.905,402.3, 368.107,401.228" />
  <polygon fill="#000000" points="372.752,398.754, 376.654,399.973, 372.42,402.192, 368.527,400.967" />
  <polygon fill="#FFFFFF" points="373.146,398.877, 376.226,400.197, 372.027,402.068, 368.954,400.743" />
  <polygon fill="#000000" points="373.457,399.01, 375.802,400.386, 371.717,401.934, 369.377,400.555" />
  <polygon fill="#FFFFFF" points="369.789,400.399, 373.694,399.149, 375.389,400.542, 371.48,401.795" />
  <polygon fill="#000000" points="370.184,400.273, 373.865,399.29, 374.994,400.669, 371.31,401.654" />
  <polygon fill="#FFFFFF" points="370.555,400.173, 373.979,399.429, 374.622,400.768, 371.196,401.514" />
  <!-- Shape 8 -->
  <polygon fill="#FFFFFF" points="658.769,361.162, 1003.83,500, 472.145,500" />
  <polygon fill="#000000" points="639.92,375.185, 968.979,485.977, 525.845,500" />
  <polygon fill="#FFFFFF" points="628.399,387.791, 935.744,474.787, 570.602,498.584" />
  <polygon fill="#000000" points="622.561,398.981, 904.702,466.001, 607.481,496.18" />
  <polygon fill="#FFFFFF" points="621.038,408.798, 876.206,459.232, 637.5,493.132" />
  <polygon fill="#000000" points="622.701,417.316, 850.434,454.138, 661.61,489.708" />
  <polygon fill="#FFFFFF" points="626.631,424.627, 827.433,450.419, 680.681,486.116" />
  <polygon fill="#000000" points="632.09,430.838, 807.152,447.814, 695.503,482.51" />
  <polygon fill="#FFFFFF" points="638.494,436.057, 789.471,446.099, 706.779,479.006" />
  <polygon fill="#000000" points="645.391,440.395, 774.222,445.085, 715.131,475.682" />
  <polygon fill="#FFFFFF" points="652.435,443.959, 761.21,444.611, 721.099,472.592" />
  <polygon fill="#000000" points="659.37,446.851, 750.224,444.545, 725.151,469.766" />
  <polygon fill="#FFFFFF" points="666.014,449.165, 741.048,444.778, 727.683,467.219" />
  <polygon fill="#000000" points="672.242,450.988, 733.469,445.221, 729.033,464.952" />
  <polygon fill="#FFFFFF" points="677.978,452.399, 727.285,445.804, 729.481,462.959" />
  <polygon fill="#000000" points="683.18,453.465, 722.305,446.47, 729.259,461.227" />
  <polygon fill="#FFFFFF" points="718.354,447.176, 728.557,459.736, 687.834,454.249" />
  <polygon fill="#000000" points="715.271,447.891, 727.526,458.468, 691.947,454.803" />
  <polygon fill="#FFFFFF" points="712.915,448.589, 726.288,457.399, 695.541,455.174" />
  <polygon fill="#000000" points="711.161,449.254, 724.938,456.51, 698.646,455.398" />
  <polygon fill="#FFFFFF" points="709.897,449.875, 723.546,455.777, 701.302,455.511" />
  <polygon fill="#000000" points="709.028,450.444, 722.168,455.181, 703.548,455.537" />
  <polygon fill="#FFFFFF" points="708.475,450.958, 720.841,454.702, 705.429,455.501" />
  <polygon fill="#000000" points="708.167,451.417, 719.592,454.324, 706.985,455.421" />
  <polygon fill="#FFFFFF" points="708.048,451.821, 718.438,454.03, 708.259,455.31" />
  <polygon fill="#000000" points="708.069,452.174, 717.388,453.807, 709.287,455.181" />
  <polygon fill="#FFFFFF" points="708.192,452.478, 716.447,453.642, 710.105,455.042" />
  <polygon fill="#000000" points="708.385,452.737, 715.613,453.525, 710.746,454.901" />
  <polygon fill="#FFFFFF" points="708.624,452.955, 714.883,453.445, 711.237,454.762" />
  <polygon fill="#000000" points="708.888,453.138, 714.251,453.396, 711.605,454.629" />
  <polygon fill="#FFFFFF" points="709.162,453.288, 713.709,453.37, 711.873,454.504" />
  <polygon fill="#000000" points="709.436,453.411, 713.25,453.361, 712.058,454.39" />
  <polygon fill="#FFFFFF" points="709.701,453.51, 712.865,453.366, 712.179,454.286" />
  <polygon fill="#000000" points="709.951,453.588, 712.545,453.381, 712.248,454.193" />
  <polygon fill="#FFFFFF" points="710.183,453.649, 712.283,453.402, 712.278,454.111" />
  <polygon fill="#000000" points="710.395,453.696, 712.071,453.427, 712.279,454.039" />
  <polygon fill="#FFFFFF" points="711.902,453.454, 712.258,453.977, 710.585,453.731" />
  <polygon fill="#000000" points="711.769,453.482, 712.222,453.924, 710.754,453.755" />
  <polygon fill="#FFFFFF" points="711.666,453.51, 712.176,453.88, 710.902,453.773" />
  <polygon fill="#000000" points="711.589,453.536, 712.124,453.842, 711.031,453.783" />
  <polygon fill="#FFFFFF" points="711.533,453.561, 712.07,453.811, 711.141,453.789" />
  <polygon fill="#000000" points="711.493,453.584, 712.016,453.786, 711.235,453.792" />
  <polygon fill="#FFFFFF" points="711.467,453.605, 711.963,453.766, 711.314,453.791" />
  <polygon fill="#000000" points="711.452,453.624, 711.913,453.75, 711.38,453.788" />
  <polygon fill="#FFFFFF" points="711.444,453.64, 711.867,453.737, 711.433,453.785" />
  <polygon fill="#000000" points="711.443,453.655, 711.824,453.727, 711.477,453.78" />
  <polygon fill="#FFFFFF" points="711.447,453.668, 711.785,453.72, 711.512,453.774" />
  <polygon fill="#000000" points="711.453,453.678, 711.751,453.715, 711.54,453.769" />
  <polygon fill="#FFFFFF" points="711.462,453.688, 711.721,453.711, 711.561,453.763" />
  <polygon fill="#000000" points="711.472,453.695, 711.695,453.709, 711.577,453.758" />
  <!-- Shape 9 -->
  <polygon fill="#000000" points="981.084,151.14, 1234.57,321.558, 1003.83,500, 658.769,361.162" />
  <polygon fill="#FFFFFF" points="1006.69,168.353, 1211.27,339.581, 968.979,485.977, 691.323,339.95" />
  <polygon fill="#000000" points="723.175,322.618, 1027.35,185.647, 1186.8,354.367, 940.936,471.229" />
  <polygon fill="#FFFFFF" points="753.896,308.784, 1043.45,202.687, 1161.97,366.17, 918.942,456.219" />
  <polygon fill="#000000" points="783.142,298.068, 1055.42,219.199, 1137.42,375.265, 902.272,441.328" />
  <polygon fill="#FFFFFF" points="810.642,290.103, 1063.7,234.962, 1113.67,381.937, 890.24,426.859" />
  <polygon fill="#000000" points="836.201,284.533, 1068.75,249.806, 1091.1,386.474, 882.201,413.046" />
  <polygon fill="#FFFFFF" points="859.689,281.026, 1071.01,263.61, 1070,389.158, 877.555,400.067" />
  <polygon fill="#000000" points="881.032,279.267, 1070.91,276.29, 1050.57,390.26, 875.75,388.044" />
  <polygon fill="#FFFFFF" points="900.21,278.966, 1068.85,287.801, 1032.91,390.036, 876.284,377.057" />
  <polygon fill="#000000" points="917.243,279.859, 1065.22,298.127, 1017.09,388.725, 878.7,367.15" />
  <polygon fill="#FFFFFF" points="932.189,281.704, 1060.36,307.277, 1003.11,386.546, 882.593,358.334" />
  <polygon fill="#000000" points="945.134,284.287, 1054.58,315.283, 990.941,383.697, 887.602,350.594" />
  <polygon fill="#FFFFFF" points="956.188,287.417, 1048.15,322.193, 980.504,380.353, 893.413,343.897" />
  <polygon fill="#000000" points="965.476,290.93, 1041.32,328.067, 971.708,376.671, 899.753,338.192" />
  <polygon fill="#FFFFFF" points="906.391,333.419, 973.137,294.681, 1034.29,332.976, 964.44,372.785" />
  <polygon fill="#000000" points="913.133,329.506, 979.313,298.548, 1027.23,336.997, 958.577,368.809" />
  <polygon fill="#FFFFFF" points="919.817,326.38, 984.153,302.432, 1020.3,340.21, 953.988,364.839" />
  <polygon fill="#000000" points="926.315,323.961, 987.804,306.247, 1013.6,342.698, 950.536,360.955" />
  <polygon fill="#FFFFFF" points="932.525,322.172, 990.41,309.929, 1007.23,344.542, 948.09,357.218" />
  <polygon fill="#000000" points="938.371,320.935, 992.109,313.425, 1001.26,345.822, 946.518,353.679" />
  <polygon fill="#FFFFFF" points="943.799,320.177, 993.033,316.697, 995.73,346.615, 945.695,350.372" />
  <polygon fill="#000000" points="948.772,319.825, 993.305,319.719, 990.677,346.995, 945.504,347.322" />
  <polygon fill="#FFFFFF" points="953.269,319.814, 993.04,322.473, 986.114,347.028, 945.834,344.545" />
  <polygon fill="#000000" points="957.286,320.083, 992.34,324.953, 982.046,346.777, 946.585,342.047" />
  <polygon fill="#FFFFFF" points="960.827,320.575, 991.301,327.158, 978.464,346.299, 947.666,339.829" />
  <polygon fill="#000000" points="963.905,321.24, 990.004,329.091, 975.354,345.646, 948.995,337.884" />
  <polygon fill="#FFFFFF" points="966.541,322.033, 988.524,330.763, 972.691,344.862, 950.501,336.203" />
  <polygon fill="#000000" points="968.761,322.915, 986.925,332.187, 970.45,343.987, 952.121,334.772" />
  <polygon fill="#FFFFFF" points="970.596,323.851, 985.261,333.379, 968.599,343.057, 953.801,333.574" />
  <polygon fill="#000000" points="955.498,332.592, 972.077,324.813, 983.578,334.356, 967.104,342.099" />
  <polygon fill="#FFFFFF" points="957.172,331.806, 973.238,325.777, 981.915,335.138, 965.932,341.139" />
  <polygon fill="#000000" points="958.795,331.198, 974.115,326.723, 980.3,335.744, 965.047,340.196" />
  <polygon fill="#FFFFFF" points="960.342,330.746, 974.74,327.634, 978.76,336.194, 964.416,339.287" />
  <polygon fill="#000000" points="961.796,330.431, 975.146,328.498, 977.311,336.506, 964.004,338.425" />
  <polygon fill="#FFFFFF" points="963.145,330.236, 975.364,329.307, 975.967,336.7, 963.781,337.617" />
  <polygon fill="#000000" points="964.379,330.142, 975.425,330.054, 974.736,336.793, 963.717,336.872" />
  <polygon fill="#FFFFFF" points="965.494,330.133, 975.356,330.735, 973.623,336.801, 963.784,336.192" />
  <polygon fill="#000000" points="966.49,330.194, 975.181,331.347, 972.63,336.739, 963.957,335.58" />
  <polygon fill="#FFFFFF" points="967.368,330.311, 974.923,331.892, 971.754,336.622, 964.213,335.036" />
  <polygon fill="#000000" points="968.131,330.47, 974.603,332.37, 970.992,336.462, 964.531,334.559" />
  <polygon fill="#FFFFFF" points="968.785,330.662, 974.238,332.783, 970.339,336.27, 964.895,334.146" />
  <polygon fill="#000000" points="969.336,330.876, 973.844,333.135, 969.79,336.055, 965.288,333.794" />
  <polygon fill="#FFFFFF" points="969.791,331.104, 973.435,333.43, 969.335,335.827, 965.697,333.499" />
  <polygon fill="#000000" points="966.11,333.257, 970.159,331.339, 973.021,333.672, 968.967,335.592" />
  <polygon fill="#FFFFFF" points="966.519,333.064, 970.448,331.575, 972.611,333.866, 968.679,335.356" />
  <polygon fill="#000000" points="966.916,332.913, 970.667,331.806, 972.214,334.016, 968.461,335.124" />
  <polygon fill="#FFFFFF" points="967.295,332.802, 970.823,332.03, 971.835,334.128, 968.305,334.901" />
  <polygon fill="#000000" points="967.651,332.724, 970.925,332.242, 971.478,334.206, 968.203,334.689" />
  <polygon fill="#FFFFFF" points="967.982,332.675, 970.981,332.44, 971.148,334.255, 968.147,334.491" />
  <!-- Shape 10 -->
  <polygon fill="#000000" points="115.947,0, 163.121,161.734, 0,96.1003" />
  <polygon fill="#FFFFFF" points="120.712,16.3351, 146.646,155.105, 11.7107,86.3942" />
  <polygon fill="#000000" points="22.7198,79.3182, 123.331,30.3508, 133.018,148.165" />
  <polygon fill="#FFFFFF" points="32.8815,74.3725, 124.309,42.25, 121.878,141.211" />
  <polygon fill="#000000" points="42.1157,71.1281, 124.064,52.2451, 112.889,134.461" />
  <polygon fill="#FFFFFF" points="50.3925,69.2209, 122.935,60.5489, 105.741,128.064" />
  <polygon fill="#000000" points="57.7193,68.3451, 121.199,67.3679, 100.151,122.121" />
  <polygon fill="#FFFFFF" points="64.1307,68.2464, 119.073,72.898, 95.8651,116.69" />
  <polygon fill="#000000" points="69.6798,68.7162, 116.729,77.3209, 92.6599,111.797" />
  <polygon fill="#FFFFFF" points="74.4318,69.5853, 114.298,80.803, 90.3389,107.446" />
  <polygon fill="#000000" points="78.4582,70.7182, 111.878,83.4939, 88.7323,103.622" />
  <polygon fill="#FFFFFF" points="81.8336,72.0086, 109.54,85.5268, 87.6946,100.298" />
  <polygon fill="#000000" points="84.632,73.3739, 107.334,87.0187, 87.1027,97.4412" />
  <polygon fill="#FFFFFF" points="86.9249,74.7521, 105.29,88.0714, 86.8531,95.0104" />
  <polygon fill="#000000" points="88.7798,76.0973, 103.428,88.7722, 86.8604,92.9643" />
  <polygon fill="#FFFFFF" points="90.2593,77.3775, 101.755,89.1956, 87.0542,91.2607" />
  <polygon fill="#000000" points="91.4204,78.5711, 100.27,89.4042, 87.378,89.8585" />
  <polygon fill="#FFFFFF" points="92.3142,79.6653, 98.9681,89.4501, 87.7862,88.7185" />
  <polygon fill="#000000" points="92.9862,80.6535, 97.8387,89.3762, 88.2436,87.8041" />
  <polygon fill="#FFFFFF" points="93.4763,81.5345, 96.8696,89.2174, 88.7226,87.0819" />
  <polygon fill="#000000" points="93.819,82.3105, 96.0467,89.0017, 89.2027,86.5216" />
  <polygon fill="#FFFFFF" points="94.044,82.9863, 95.3555,88.7513, 89.6689,86.0963" />
  <polygon fill="#000000" points="90.1108,85.7822, 94.1765,83.5686, 94.7811,88.4831" />
  <polygon fill="#FFFFFF" points="90.5215,85.5586, 94.2376,84.0649, 94.3094,88.2103" />
  <polygon fill="#000000" points="90.8968,85.4078, 94.2448,84.4836, 93.9269,87.9425" />
  <polygon fill="#FFFFFF" points="91.2349,85.3144, 94.2127,84.833, 93.6208,87.6865" />
  <polygon fill="#000000" points="91.5357,85.2658, 94.1529,85.1212, 93.3798,87.4469" />
  <polygon fill="#FFFFFF" points="91.8,85.2512, 94.0749,85.3561, 93.1936,87.2266" />
  <polygon fill="#000000" points="92.0298,85.2618, 93.9858,85.545, 93.0528,87.0271" />
  <polygon fill="#FFFFFF" points="92.2274,85.2904, 93.8916,85.6947, 92.9495,86.8488" />
  <polygon fill="#000000" points="92.3954,85.3312, 93.7965,85.8113, 92.8766,86.6914" />
  <polygon fill="#FFFFFF" points="92.5369,85.3797, 93.7036,85.9001, 92.828,86.554" />
  <polygon fill="#000000" points="92.6548,85.4323, 93.6151,85.9662, 92.7986,86.4354" />
  <polygon fill="#FFFFFF" points="92.7518,85.4862, 93.5326,86.0136, 92.7841,86.3341" />
  <polygon fill="#000000" points="92.8306,85.5395, 93.457,86.046, 92.7808,86.2485" />
  <polygon fill="#FFFFFF" points="92.8939,85.5906, 93.3887,86.0664, 92.7858,86.1768" />
  <polygon fill="#000000" points="92.9439,85.6387, 93.3278,86.0776, 92.7967,86.1176" />
  <polygon fill="#FFFFFF" points="92.9827,85.683, 93.2742,86.0816, 92.8116,86.0693" />
  <polygon fill="#000000" points="93.0121,85.7233, 93.2275,86.0804, 92.8289,86.0302" />
  <polygon fill="#FFFFFF" points="93.0339,85.7593, 93.1872,86.0753, 92.8474,85.9992" />
  <polygon fill="#000000" points="93.0494,85.7912, 93.1529,86.0676, 92.8662,85.975" />
  <polygon fill="#FFFFFF" points="93.0598,85.8192, 93.1239,86.0583, 92.8847,85.9565" />
  <polygon fill="#000000" points="92.9024,85.9426, 93.0663,85.8433, 93.0998,86.048" />
  <polygon fill="#FFFFFF" points="92.919,85.9326, 93.0697,85.864, 93.0799,86.0373" />
  <polygon fill="#000000" points="92.9342,85.9256, 93.0707,85.8815, 93.0636,86.0268" />
  <polygon fill="#FFFFFF" points="92.948,85.9212, 93.07,85.8962, 93.0505,86.0165" />
  <polygon fill="#000000" points="92.9603,85.9186, 93.068,85.9083, 93.0402,86.0069" />
  <polygon fill="#FFFFFF" points="92.9712,85.9176, 93.0652,85.9183, 93.0321,85.998" />
  <polygon fill="#000000" points="92.9807,85.9177, 93.0619,85.9263, 93.0259,85.9899" />
  <polygon fill="#FFFFFF" points="92.9889,85.9185, 93.0582,85.9327, 93.0214,85.9826" />
  <!-- Shape 11 -->
  <polygon fill="#FFFFFF" points="115.947,0, 383.357,0, 163.121,161.734" />
  <polygon fill="#000000" points="120.712,16.3351, 356.348,0, 185.365,145.398" />
  <polygon fill="#FFFFFF" points="127.242,29.3705, 332.549,1.64984, 202.634,130.713" />
  <polygon fill="#000000" points="134.856,39.6061, 311.813,4.44963, 215.756,117.678" />
  <polygon fill="#FFFFFF" points="143.027,47.4914, 293.94,8.00044, 225.458,106.242" />
  <polygon fill="#000000" points="151.353,53.4252, 278.698,11.989, 232.374,96.3194" />
  <polygon fill="#FFFFFF" points="265.836,16.1741, 237.053,87.802, 159.536,57.7575" />
  <polygon fill="#000000" points="255.1,20.374, 239.96,80.5676, 167.365,60.792" />
  <polygon fill="#FFFFFF" points="246.239,24.4562, 241.489,74.4881, 174.697,62.7893" />
  <polygon fill="#000000" points="239.013,28.3279, 241.969,69.4348, 181.443,63.9709" />
  <polygon fill="#FFFFFF" points="233.198,31.9278, 241.67,65.283, 187.556,64.5227" />
  <polygon fill="#000000" points="228.589,35.2199, 240.815,61.9142, 193.022,64.5995" />
  <polygon fill="#FFFFFF" points="224.996,38.1872, 239.58,59.218, 197.849,64.3283" />
  <polygon fill="#000000" points="222.254,40.8275, 238.107,57.0939, 202.064,63.8122" />
  <polygon fill="#FFFFFF" points="220.215,43.1489, 236.506,55.451, 205.704,63.1336" />
  <polygon fill="#000000" points="218.75,45.1674, 234.86,54.2085, 208.815,62.3577" />
  <polygon fill="#FFFFFF" points="217.746,46.9036, 233.233,53.2954, 211.446,61.5346" />
  <polygon fill="#000000" points="217.11,48.3813, 231.669,52.6498, 213.646,60.7025" />
  <polygon fill="#FFFFFF" points="216.76,49.6258, 230.199,52.2187, 215.466,59.8891" />
  <polygon fill="#000000" points="216.629,50.6624, 228.841,51.9568, 216.954,59.1144" />
  <polygon fill="#FFFFFF" points="216.662,51.516, 227.608,51.8261, 218.155,58.3915" />
  <polygon fill="#000000" points="216.813,52.2105, 226.502,51.7947, 219.11,57.7284" />
  <polygon fill="#FFFFFF" points="217.045,52.7678, 225.524,51.8367, 219.856,57.1291" />
  <polygon fill="#000000" points="217.329,53.2083, 224.667,51.9308, 220.429,56.5946" />
  <polygon fill="#FFFFFF" points="217.642,53.5503, 223.926,52.0598, 220.857,56.1235" />
  <polygon fill="#000000" points="217.967,53.8102, 223.291,52.2103, 221.167,55.7131" />
  <polygon fill="#FFFFFF" points="222.754,52.3719, 221.381,55.3593, 218.29,54.0024" />
  <polygon fill="#000000" points="222.303,52.5366, 221.52,55.0576, 218.602,54.1394" />
  <polygon fill="#FFFFFF" points="221.929,52.6985, 221.599,54.803, 218.897,54.2322" />
  <polygon fill="#000000" points="221.623,52.8534, 221.632,54.5904, 219.17,54.2898" />
  <polygon fill="#FFFFFF" points="221.375,52.9985, 221.631,54.415, 219.419,54.3202" />
  <polygon fill="#000000" points="221.177,53.1319, 221.606,54.2719, 219.642,54.3297" />
  <polygon fill="#FFFFFF" points="221.022,53.2529, 221.562,54.1568, 219.84,54.3239" />
  <polygon fill="#000000" points="220.903,53.3611, 221.508,54.0655, 220.014,54.307" />
  <polygon fill="#FFFFFF" points="220.813,53.4566, 221.447,53.9943, 220.165,54.2826" />
  <polygon fill="#000000" points="220.748,53.5401, 221.383,53.94, 220.295,54.2535" />
  <polygon fill="#FFFFFF" points="220.702,53.6121, 221.319,53.8996, 220.404,54.2218" />
  <polygon fill="#000000" points="220.672,53.6737, 221.256,53.8706, 220.497,54.1893" />
  <polygon fill="#FFFFFF" points="220.654,53.7258, 221.197,53.8507, 220.573,54.1571" />
  <polygon fill="#000000" points="220.646,53.7693, 221.142,53.8381, 220.636,54.1262" />
  <polygon fill="#FFFFFF" points="220.645,53.8054, 221.092,53.8311, 220.688,54.0971" />
  <polygon fill="#000000" points="220.649,53.8348, 221.047,53.8285, 220.728,54.0702" />
  <polygon fill="#FFFFFF" points="220.657,53.8586, 221.007,53.8292, 220.761,54.0458" />
  <polygon fill="#000000" points="220.668,53.8775, 220.972,53.8321, 220.786,54.0239" />
  <polygon fill="#FFFFFF" points="220.68,53.8923, 220.941,53.8367, 220.804,54.0046" />
  <polygon fill="#000000" points="220.692,53.9036, 220.915,53.8423, 220.818,53.9876" />
  <polygon fill="#FFFFFF" points="220.892,53.8485, 220.828,53.9729, 220.705,53.9121" />
  <polygon fill="#000000" points="220.873,53.855, 220.834,53.9604, 220.717,53.9183" />
  <polygon fill="#FFFFFF" points="220.858,53.8614, 220.838,53.9497, 220.729,53.9225" />
  <polygon fill="#000000" points="220.845,53.8675, 220.84,53.9408, 220.74,53.9253" />
  <!-- Shape 12 -->
  <polygon fill="#000000" points="383.357,0, 359.438,240.723, 163.121,161.734" />
  <polygon fill="#FFFFFF" points="380.941,24.3131, 339.61,232.745, 185.365,145.398" />
  <polygon fill="#000000" points="205.118,133.169, 376.766,45.3647, 324.032,223.923" />
  <polygon fill="#FFFFFF" points="222.455,124.301, 371.44,63.3992, 312.021,214.757" />
  <polygon fill="#000000" points="237.502,118.15, 365.439,78.6863, 302.975,205.621" />
  <polygon fill="#FFFFFF" points="250.424,114.164, 359.13,91.5067, 296.362,196.786" />
  <polygon fill="#000000" points="261.403,111.875, 352.791,102.14, 291.723,188.442" />
  <polygon fill="#FFFFFF" points="270.633,110.892, 346.623,110.856, 288.66,180.708" />
  <polygon fill="#000000" points="278.308,110.889, 340.768,117.911, 286.84,173.657" />
  <polygon fill="#FFFFFF" points="284.617,111.598, 335.322,123.542, 285.978,167.317" />
  <polygon fill="#000000" points="289.738,112.804, 330.338,127.963, 285.84,161.69" />
  <polygon fill="#FFFFFF" points="293.839,114.335, 325.844,131.37, 286.234,156.752" />
  <polygon fill="#000000" points="297.071,116.056, 321.843,133.933, 287.002,152.468" />
  <polygon fill="#FFFFFF" points="299.573,117.861, 318.324,135.805, 288.019,148.79" />
  <polygon fill="#000000" points="301.467,119.674, 315.263,137.117, 289.186,145.667" />
  <polygon fill="#FFFFFF" points="302.86,121.435, 312.63,137.98, 290.426,143.041" />
  <polygon fill="#000000" points="303.847,123.106, 310.387,138.491, 291.682,140.859" />
  <polygon fill="#FFFFFF" points="304.508,124.66, 308.498,138.731, 292.911,139.066" />
  <polygon fill="#000000" points="304.911,126.081, 306.924,138.764, 294.082,137.611" />
  <polygon fill="#FFFFFF" points="305.114,127.362, 305.627,138.648, 295.176,136.447" />
  <polygon fill="#000000" points="305.166,128.502, 304.571,138.426, 296.18,135.529" />
  <polygon fill="#FFFFFF" points="305.106,129.505, 303.724,138.133, 297.087,134.819" />
  <polygon fill="#000000" points="304.966,130.376, 303.053,137.798, 297.897,134.283" />
  <polygon fill="#FFFFFF" points="298.611,133.888, 304.773,131.126, 302.532,137.443" />
  <polygon fill="#000000" points="299.233,133.609, 304.547,131.764, 302.136,137.084" />
  <polygon fill="#FFFFFF" points="299.77,133.423, 304.303,132.301, 301.843,136.733" />
  <polygon fill="#000000" points="300.228,133.309, 304.055,132.749, 301.634,136.399" />
  <polygon fill="#FFFFFF" points="300.614,133.253, 303.81,133.117, 301.492,136.087" />
  <polygon fill="#000000" points="300.937,133.239, 303.576,133.417, 301.403,135.801" />
  <polygon fill="#FFFFFF" points="301.204,133.257, 303.357,133.658, 301.356,135.542" />
  <polygon fill="#000000" points="301.421,133.298, 303.155,133.848, 301.341,135.311" />
  <polygon fill="#FFFFFF" points="301.596,133.353, 302.971,133.996, 301.349,135.108" />
  <polygon fill="#000000" points="301.735,133.418, 302.807,134.108, 301.374,134.931" />
  <polygon fill="#FFFFFF" points="301.843,133.488, 302.663,134.191, 301.41,134.778" />
  <polygon fill="#000000" points="301.926,133.559, 302.536,134.251, 301.454,134.648" />
  <polygon fill="#FFFFFF" points="301.988,133.629, 302.427,134.291, 301.502,134.538" />
  <polygon fill="#000000" points="302.032,133.696, 302.333,134.316, 301.551,134.446" />
  <polygon fill="#FFFFFF" points="302.063,133.758, 302.254,134.329, 301.599,134.37" />
  <polygon fill="#000000" points="302.082,133.816, 302.188,134.333, 301.646,134.308" />
  <polygon fill="#FFFFFF" points="302.093,133.868, 302.133,134.33, 301.69,134.258" />
  <polygon fill="#000000" points="302.097,133.915, 302.089,134.323, 301.731,134.219" />
  <polygon fill="#FFFFFF" points="302.096,133.956, 302.053,134.313, 301.768,134.188" />
  <polygon fill="#000000" points="302.092,133.992, 302.024,134.3, 301.801,134.165" />
  <polygon fill="#FFFFFF" points="301.83,134.147, 302.085,134.023, 302.001,134.286" />
  <polygon fill="#000000" points="301.856,134.135, 302.076,134.05, 301.984,134.272" />
  <polygon fill="#FFFFFF" points="301.878,134.126, 302.067,134.072, 301.971,134.259" />
  <polygon fill="#000000" points="301.897,134.121, 302.057,134.091, 301.962,134.245" />
  <polygon fill="#FFFFFF" points="301.913,134.118, 302.048,134.107, 301.955,134.233" />
  <polygon fill="#000000" points="301.927,134.117, 302.038,134.119, 301.951,134.221" />
  <polygon fill="#FFFFFF" points="301.938,134.117, 302.029,134.13, 301.949,134.21" />
  <!-- Shape 13 -->
  <polygon fill="#FFFFFF" points="383.357,0, 756.267,0, 359.438,240.723" />
  <polygon fill="#000000" points="380.941,24.3131, 718.603,0, 399.518,216.41" />
  <polygon fill="#FFFFFF" points="382.817,43.7149, 684.499,2.45562, 431.746,194.553" />
  <polygon fill="#000000" points="387.759,58.9495, 654.03,6.62281, 457.274,175.151" />
  <polygon fill="#FFFFFF" points="394.78,70.6859, 627.136,11.9078, 477.146,158.13" />
  <polygon fill="#000000" points="403.099,79.5177, 603.668,17.8444, 492.295,143.361" />
  <polygon fill="#FFFFFF" points="583.411,24.0734, 503.544,130.684, 412.108,85.9659" />
  <polygon fill="#000000" points="566.109,30.3245, 511.61,119.916, 421.343,90.4825" />
  <polygon fill="#FFFFFF" points="551.488,36.4005, 517.115,110.868, 430.46,93.4553" />
  <polygon fill="#000000" points="539.264,42.163, 520.586,103.346, 439.212,95.2139" />
  <polygon fill="#FFFFFF" points="529.159,47.5212, 522.473,97.1669, 447.431,96.0353" />
  <polygon fill="#000000" points="520.904,52.4211, 523.148,92.1527, 455.01,96.1496" />
  <polygon fill="#FFFFFF" points="514.249,56.8377, 522.921,88.1398, 461.892,95.7459" />
  <polygon fill="#000000" points="508.961,60.7674, 522.046,84.9783, 468.056,94.9777" />
  <polygon fill="#FFFFFF" points="504.829,64.2226, 520.724,82.533, 473.509,93.9678" />
  <polygon fill="#000000" points="501.666,67.2269, 519.119,80.6837, 478.278,92.8129" />
  <polygon fill="#FFFFFF" points="499.304,69.8111, 517.356,79.3245, 482.403,91.5878" />
  <polygon fill="#000000" points="497.597,72.0105, 515.533,78.3637, 485.933,90.3492" />
  <polygon fill="#FFFFFF" points="496.419,73.8627, 513.721,77.722, 488.922,89.1387" />
  <polygon fill="#000000" points="495.662,75.4056, 511.974,77.3322, 491.427,87.9856" />
  <polygon fill="#FFFFFF" points="495.234,76.6762, 510.326,77.1376, 493.502,86.9096" />
  <polygon fill="#000000" points="495.059,77.7098, 508.802,77.091, 495.202,85.9226" />
  <polygon fill="#FFFFFF" points="495.073,78.5393, 507.414,77.1535, 496.575,85.0306" />
  <polygon fill="#000000" points="495.225,79.1949, 506.167,77.2935, 497.67,84.235" />
  <polygon fill="#FFFFFF" points="495.472,79.7039, 505.062,77.4855, 498.528,83.534" />
  <polygon fill="#000000" points="495.781,80.0908, 504.094,77.7096, 499.188,82.9231" />
  <polygon fill="#FFFFFF" points="503.254,77.9501, 499.684,82.3965, 496.125,80.3768" />
  <polygon fill="#000000" points="502.534,78.1952, 500.044,81.9474, 496.484,80.5808" />
  <polygon fill="#FFFFFF" points="501.923,78.4361, 500.296,81.5684, 496.844,80.7188" />
  <polygon fill="#000000" points="501.41,78.6667, 500.46,81.2521, 497.192,80.8047" />
  <polygon fill="#FFFFFF" points="500.984,78.8826, 500.556,80.9909, 497.522,80.8498" />
  <polygon fill="#000000" points="500.634,79.0813, 500.599,80.778, 497.829,80.8641" />
  <polygon fill="#FFFFFF" points="500.351,79.2614, 500.603,80.6066, 498.109,80.8554" />
  <polygon fill="#000000" points="500.125,79.4224, 500.577,80.4708, 498.361,80.8303" />
  <polygon fill="#FFFFFF" points="499.946,79.5646, 500.532,80.3649, 498.584,80.794" />
  <polygon fill="#000000" points="499.809,79.6887, 500.472,80.2841, 498.781,80.7506" />
  <polygon fill="#FFFFFF" points="499.705,79.796, 500.405,80.2239, 498.952,80.7035" />
  <polygon fill="#000000" points="499.629,79.8876, 500.335,80.1807, 499.099,80.6551" />
  <polygon fill="#FFFFFF" points="499.575,79.9652, 500.263,80.1511, 499.224,80.6072" />
  <polygon fill="#000000" points="499.54,80.03, 500.194,80.1323, 499.329,80.5611" />
  <polygon fill="#FFFFFF" points="499.519,80.0836, 500.128,80.122, 499.416,80.5178" />
  <polygon fill="#000000" points="499.508,80.1275, 500.066,80.1181, 499.488,80.4778" />
  <polygon fill="#FFFFFF" points="499.506,80.1629, 500.01,80.1191, 499.546,80.4415" />
  <polygon fill="#000000" points="499.51,80.191, 499.959,80.1235, 499.593,80.4089" />
  <polygon fill="#FFFFFF" points="499.519,80.213, 499.914,80.1303, 499.63,80.3801" />
  <polygon fill="#000000" points="499.53,80.2299, 499.874,80.1387, 499.659,80.3549" />
  <polygon fill="#FFFFFF" points="499.839,80.1479, 499.68,80.333, 499.543,80.2425" />
  <polygon fill="#000000" points="499.809,80.1574, 499.696,80.3143, 499.557,80.2517" />
  <polygon fill="#FFFFFF" points="499.784,80.167, 499.708,80.2985, 499.571,80.258" />
  <polygon fill="#000000" points="499.762,80.1761, 499.716,80.2852, 499.585,80.2621" />
  <!-- Shape 14 -->
  <polygon fill="#000000" points="756.267,0, 658.769,361.162, 359.438,240.723" />
  <polygon fill="#FFFFFF" points="746.42,36.4773, 628.537,348.998, 399.518,216.41" />
  <polygon fill="#000000" points="434.555,198.237, 734.514,68.0419, 605.406,335.606" />
  <polygon fill="#FFFFFF" points="464.851,185.087, 721.474,95.0659, 588.15,321.732" />
  <polygon fill="#000000" points="490.77,175.995, 708.008,117.959, 575.697,307.931" />
  <polygon fill="#FFFFFF" points="512.711,170.134, 694.645,137.146, 567.119,294.605" />
  <polygon fill="#000000" points="531.086,166.802, 681.765,153.05, 561.624,282.034" />
  <polygon fill="#FFFFFF" points="546.305,165.413, 669.631,166.077, 558.54,270.395" />
  <polygon fill="#000000" points="558.761,165.48, 658.41,176.613, 557.304,259.792" />
  <polygon fill="#FFFFFF" points="568.825,166.604, 648.199,185.014, 557.451,250.267" />
  <polygon fill="#000000" points="576.842,168.464, 639.033,191.605, 558.6,241.817" />
  <polygon fill="#FFFFFF" points="583.123,170.801, 630.909,196.676, 560.442,234.408" />
  <polygon fill="#000000" points="587.95,173.414, 623.792,200.487, 562.733,227.984" />
  <polygon fill="#FFFFFF" points="591.57,176.149, 617.625,203.264, 565.28,222.472" />
  <polygon fill="#000000" points="594.201,178.887, 612.338,205.204, 567.935,217.794" />
  <polygon fill="#FFFFFF" points="596.033,181.545, 607.854,206.476, 570.588,213.864" />
  <polygon fill="#000000" points="597.227,184.063, 604.09,207.222, 573.158,210.6" />
  <polygon fill="#FFFFFF" points="597.92,186.402, 600.966,207.563, 575.589,207.92" />
  <polygon fill="#000000" points="598.228,188.54, 598.403,207.599, 577.845,205.746" />
  <polygon fill="#FFFFFF" points="598.246,190.465, 596.326,207.412, 579.903,204.009" />
  <polygon fill="#000000" points="598.052,192.176, 594.668,207.068, 581.756,202.641" />
  <polygon fill="#FFFFFF" points="597.71,193.68, 593.364,206.621, 583.402,201.584" />
  <polygon fill="#000000" points="597.271,194.987, 592.357,206.112, 584.847,200.786" />
  <polygon fill="#FFFFFF" points="586.102,200.2, 596.775,196.111, 591.599,205.574" />
  <polygon fill="#000000" points="587.18,199.787, 596.252,197.067, 591.044,205.032" />
  <polygon fill="#FFFFFF" points="588.096,199.512, 595.726,197.871, 590.653,204.502" />
  <polygon fill="#000000" points="588.867,199.346, 595.214,198.541, 590.395,203.998" />
  <polygon fill="#FFFFFF" points="589.508,199.265, 594.727,199.092, 590.241,203.528" />
  <polygon fill="#000000" points="590.035,199.248, 594.274,199.54, 590.167,203.098" />
  <polygon fill="#FFFFFF" points="590.463,199.277, 593.859,199.899, 590.153,202.709" />
  <polygon fill="#000000" points="590.806,199.34, 593.485,200.183, 590.185,202.362" />
  <polygon fill="#FFFFFF" points="591.076,199.425, 593.151,200.403, 590.247,202.057" />
  <polygon fill="#000000" points="591.286,199.524, 592.858,200.57, 590.331,201.791" />
  <polygon fill="#FFFFFF" points="591.445,199.63, 592.603,200.694, 590.428,201.562" />
  <polygon fill="#000000" points="591.562,199.737, 592.383,200.781, 590.53,201.367" />
  <polygon fill="#FFFFFF" points="591.645,199.843, 592.196,200.84, 590.634,201.202" />
  <polygon fill="#000000" points="591.7,199.943, 592.038,200.877, 590.737,201.065" />
  <polygon fill="#FFFFFF" points="591.735,200.038, 591.907,200.896, 590.834,200.952" />
  <polygon fill="#000000" points="591.752,200.124, 591.798,200.902, 590.925,200.859" />
  <polygon fill="#FFFFFF" points="591.757,200.203, 591.71,200.897, 591.008,200.785" />
  <polygon fill="#000000" points="591.752,200.273, 591.639,200.886, 591.084,200.726" />
  <polygon fill="#FFFFFF" points="591.741,200.335, 591.583,200.87, 591.151,200.681" />
  <polygon fill="#000000" points="591.725,200.389, 591.54,200.851, 591.211,200.646" />
  <polygon fill="#FFFFFF" points="591.263,200.62, 591.706,200.436, 591.506,200.83" />
  <polygon fill="#000000" points="591.308,200.601, 591.686,200.475, 591.482,200.809" />
  <polygon fill="#FFFFFF" points="591.346,200.588, 591.665,200.509, 591.464,200.788" />
  <polygon fill="#000000" points="591.378,200.58, 591.645,200.537, 591.452,200.768" />
  <polygon fill="#FFFFFF" points="591.405,200.576, 591.625,200.561, 591.445,200.749" />
  <polygon fill="#000000" points="591.427,200.574, 591.607,200.58, 591.441,200.731" />
  <polygon fill="#FFFFFF" points="591.445,200.575, 591.59,200.595, 591.439,200.715" />
  <!-- Shape 15 -->
  <polygon fill="#FFFFFF" points="756.267,0, 981.084,151.14, 658.769,361.162" />
  <polygon fill="#000000" points="746.42,36.4773, 958.377,135.875, 691.323,339.95" />
  <polygon fill="#FFFFFF" points="740.855,67.1281, 936.97,125.836, 718.296,319.338" />
  <polygon fill="#000000" points="738.577,92.6013, 917.162,119.907, 740.382,299.794" />
  <polygon fill="#FFFFFF" points="738.759,113.528, 899.125,117.149, 758.236,281.626" />
  <polygon fill="#000000" points="740.726,130.506, 882.928,116.783, 772.466,265.014" />
  <polygon fill="#FFFFFF" points="743.932,144.091, 868.566,118.169, 783.623,250.042" />
  <polygon fill="#000000" points="747.941,154.792, 855.978,120.787, 792.202,236.723" />
  <polygon fill="#FFFFFF" points="752.411,163.067, 845.066,124.222, 798.643,225.014" />
  <polygon fill="#000000" points="757.081,169.324, 835.708,128.145, 803.332,214.834" />
  <polygon fill="#FFFFFF" points="827.766,132.304, 806.602,206.078, 761.752,173.92" />
  <polygon fill="#000000" points="821.099,136.507, 808.74,198.627, 766.282,177.168" />
  <polygon fill="#FFFFFF" points="815.562,140.614, 809.988,192.353, 770.57,179.335" />
  <polygon fill="#000000" points="811.018,144.525, 810.551,187.127, 774.551,180.65" />
  <polygon fill="#FFFFFF" points="807.335,148.174, 810.598,182.824, 778.187,181.304" />
  <polygon fill="#000000" points="804.391,151.52, 810.269,179.325, 781.461,181.458" />
  <polygon fill="#FFFFFF" points="802.075,154.544, 809.675,176.516, 784.37,181.242" />
  <polygon fill="#000000" points="800.287,157.24, 808.907,174.297, 786.926,180.765" />
  <polygon fill="#FFFFFF" points="798.938,159.616, 808.037,172.574, 789.146,180.112" />
  <polygon fill="#000000" points="797.949,161.686, 807.118,171.266, 791.054,179.351" />
  <polygon fill="#FFFFFF" points="797.252,163.47, 806.192,170.298, 792.677,178.534" />
  <polygon fill="#000000" points="796.79,164.992, 805.289,169.608, 794.042,177.702" />
  <polygon fill="#FFFFFF" points="796.513,166.275, 804.43,169.142, 795.178,176.885" />
  <polygon fill="#000000" points="796.378,167.347, 803.631,168.853, 796.112,176.103" />
  <polygon fill="#FFFFFF" points="796.351,168.231, 802.898,168.701, 796.871,175.37" />
  <polygon fill="#000000" points="796.403,168.952, 802.237,168.653, 797.48,174.697" />
  <polygon fill="#FFFFFF" points="796.512,169.533, 801.648,168.683, 797.961,174.086" />
  <polygon fill="#000000" points="796.658,169.993, 801.129,168.769, 798.333,173.541" />
  <polygon fill="#FFFFFF" points="796.828,170.351, 800.677,168.893, 798.615,173.059" />
  <polygon fill="#000000" points="797.008,170.624, 800.289,169.04, 798.824,172.638" />
  <polygon fill="#FFFFFF" points="799.957,169.2, 798.972,172.275, 797.192,170.828" />
  <polygon fill="#000000" points="799.678,169.364, 799.071,171.964, 797.371,170.974" />
  <polygon fill="#FFFFFF" points="799.445,169.527, 799.132,171.701, 797.543,171.074" />
  <polygon fill="#000000" points="799.253,169.683, 799.164,171.482, 797.704,171.137" />
  <polygon fill="#FFFFFF" points="799.096,169.83, 799.173,171.3, 797.851,171.172" />
  <polygon fill="#000000" points="798.971,169.966, 799.165,171.152, 797.985,171.185" />
  <polygon fill="#FFFFFF" points="798.871,170.089, 799.146,171.032, 798.104,171.182" />
  <polygon fill="#000000" points="798.794,170.199, 799.118,170.937, 798.209,171.167" />
  <polygon fill="#FFFFFF" points="798.735,170.297, 799.085,170.862, 798.301,171.143" />
  <polygon fill="#000000" points="798.691,170.382, 799.05,170.805, 798.38,171.115" />
  <polygon fill="#FFFFFF" points="798.659,170.456, 799.013,170.762, 798.448,171.084" />
  <polygon fill="#000000" points="798.638,170.52, 798.978,170.731, 798.505,171.051" />
  <polygon fill="#FFFFFF" points="798.625,170.573, 798.943,170.71, 798.553,171.019" />
  <polygon fill="#000000" points="798.617,170.618, 798.911,170.696, 798.592,170.988" />
  <polygon fill="#FFFFFF" points="798.615,170.656, 798.881,170.688, 798.624,170.958" />
  <polygon fill="#000000" points="798.616,170.686, 798.855,170.685, 798.65,170.931" />
  <polygon fill="#FFFFFF" points="798.619,170.711, 798.83,170.685, 798.671,170.906" />
  <polygon fill="#000000" points="798.624,170.731, 798.809,170.688, 798.687,170.884" />
  <polygon fill="#FFFFFF" points="798.631,170.746, 798.79,170.692, 798.699,170.864" />
  <polygon fill="#000000" points="798.638,170.758, 798.774,170.698, 798.709,170.847" />
</svg>
