<?xml version="1.0" standalone="no"?>
<!DOCTYPE svg PUBLIC "-//W3C//DTD SVG 1.1//EN" "http://www.w3.org/Graphics/SVG/1.1/DTD/svg11.dtd">
<svg viewBox="0, 0, 1500, 600" xmlns="http://www.w3.org/2000/svg" version="1.1">
  <!-- Shape 1 -->
  <polygon fill="#000000" points="0,0, 311.79,0, 428.384,600, 0,600" />
  <polygon fill="#FFFFFF" points="27.5934,0, 322.109,53.1, 390.472,600, 0,546.9" />
  <polygon fill="#000000" points="54.792,4.90379, 328.422,103.606, 354.412,595.096, 2.54826,496.394" />
  <polygon fill="#FFFFFF" points="81.1152,14.399, 330.923,150.888, 320.563,585.601, 7.5741,449.112" />
  <polygon fill="#000000" points="106.108,28.0546, 329.886,194.381, 289.248,571.945, 14.9319,405.619" />
  <polygon fill="#FFFFFF" points="129.359,45.3359, 325.664,233.61, 260.747,554.664, 24.4051,366.39" />
  <polygon fill="#000000" points="150.511,65.6224, 318.669,268.203, 235.281,534.378, 35.7139,331.797" />
  <polygon fill="#FFFFFF" points="169.277,88.2304, 309.363,297.908, 213.009,511.77, 48.5252,302.092" />
  <polygon fill="#000000" points="62.466,277.401, 185.45,112.438, 298.239,322.599, 194.02,487.562" />
  <polygon fill="#FFFFFF" points="77.138,257.721, 198.906,137.51, 285.806,342.279, 178.325,462.49" />
  <polygon fill="#000000" points="92.1337,242.917, 209.608,162.727, 272.569,357.083, 165.864,437.273" />
  <polygon fill="#FFFFFF" points="107.053,232.733, 217.604,187.41, 259.018,367.267, 156.5,412.59" />
  <polygon fill="#000000" points="121.518,226.803, 223.023,210.945, 245.603,373.197, 150.03,389.055" />
  <polygon fill="#FFFFFF" points="135.191,224.667, 226.064,232.8, 232.73,375.333, 146.19,367.2" />
  <polygon fill="#000000" points="147.782,225.793, 226.988,252.548, 220.74,374.207, 144.666,347.452" />
  <polygon fill="#FFFFFF" points="159.061,229.603, 226.098,269.872, 209.907,370.397, 145.109,330.128" />
  <polygon fill="#000000" points="168.865,235.493, 223.73,284.574, 200.43,364.507, 147.15,315.426" />
  <polygon fill="#FFFFFF" points="177.1,242.86, 220.233,296.572, 192.433,357.14, 150.409,303.428" />
  <polygon fill="#000000" points="154.518,294.104, 183.74,251.129, 215.953,305.896, 185.963,348.871" />
  <polygon fill="#FFFFFF" points="159.13,287.322, 188.823,259.771, 211.221,312.678, 181.001,340.229" />
  <polygon fill="#000000" points="163.93,282.869, 192.444,268.323, 206.336,317.131, 177.466,331.677" />
  <polygon fill="#FFFFFF" points="168.649,280.461, 194.743,276.401, 201.558,319.539, 175.225,323.599" />
  <polygon fill="#000000" points="173.068,279.774, 195.897,283.707, 197.098,320.226, 174.112,316.293" />
  <polygon fill="#FFFFFF" points="177.022,280.455, 196.105,290.032, 193.117,319.545, 173.931,309.968" />
  <polygon fill="#000000" points="180.4,282.15, 195.576,295.257, 189.72,317.85, 174.478,304.743" />
  <polygon fill="#FFFFFF" points="183.146,284.521, 194.517,299.344, 186.963,315.479, 175.549,300.656" />
  <polygon fill="#000000" points="176.953,297.675, 185.247,287.26, 193.121,302.325, 184.854,312.74" />
  <polygon fill="#FFFFFF" points="178.517,295.711, 186.732,290.101, 191.562,304.289, 183.364,309.899" />
  <polygon fill="#000000" points="180.098,294.631, 187.661,292.832, 189.984,305.369, 182.431,307.168" />
  <polygon fill="#FFFFFF" points="181.583,294.278, 188.117,295.293, 188.502,305.722, 181.973,304.707" />
  <polygon fill="#000000" points="182.891,294.481, 188.194,297.38, 187.195,305.519, 181.895,302.62" />
  <polygon fill="#FFFFFF" points="183.972,295.072, 187.99,299.04, 186.114,304.928, 182.098,300.96" />
  <polygon fill="#000000" points="182.488,299.736, 184.808,295.897, 187.6,300.264, 185.279,304.103" />
  <polygon fill="#FFFFFF" points="182.979,298.923, 185.399,296.822, 187.109,301.077, 184.688,303.178" />
  <polygon fill="#000000" points="183.5,298.47, 185.767,297.739, 186.587,301.53, 184.32,302.261" />
  <polygon fill="#FFFFFF" points="183.998,298.31, 185.947,298.571, 186.09,301.69, 184.14,301.429" />
  <polygon fill="#000000" points="184.433,298.368, 185.979,299.267, 185.654,301.632, 184.108,300.733" />
  <polygon fill="#FFFFFF" points="184.784,298.572, 185.905,299.804, 185.303,301.428, 184.182,300.196" />
  <polygon fill="#000000" points="184.321,299.821, 185.043,298.857, 185.766,300.179, 185.044,301.143" />
  <polygon fill="#FFFFFF" points="184.491,299.595, 185.213,299.167, 185.597,300.405, 184.874,300.833" />
  <polygon fill="#000000" points="184.663,299.493, 185.304,299.463, 185.424,300.507, 184.783,300.537" />
  <polygon fill="#FFFFFF" points="184.819,299.485, 185.334,299.716, 185.269,300.515, 184.754,300.284" />
  <polygon fill="#000000" points="184.945,299.542, 185.318,299.913, 185.142,300.458, 184.77,300.087" />
  <polygon fill="#FFFFFF" points="184.814,299.951, 185.039,299.635, 185.274,300.049, 185.049,300.365" />
  <polygon fill="#000000" points="184.871,299.871, 185.098,299.74, 185.217,300.129, 184.989,300.26" />
  <polygon fill="#FFFFFF" points="184.929,299.837, 185.129,299.841, 185.158,300.163, 184.959,300.159" />
  <polygon fill="#000000" points="184.982,299.838, 185.136,299.925, 185.106,300.162, 184.951,300.075" />
  <polygon fill="#FFFFFF" points="185.023,299.861, 185.128,299.988, 185.065,300.139, 184.959,300.012" />
  <polygon fill="#000000" points="184.976,299.971, 185.051,299.895, 185.111,300.029, 185.036,300.105" />
  <polygon fill="#FFFFFF" points="184.997,299.951, 185.068,299.932, 185.091,300.049, 185.02,300.068" />
  <!-- Shape 2 -->
  <polygon fill="#000000" points="1164.63,0, 1500,0, 1500,600, 902.62,600" />
  <polygon fill="#FFFFFF" points="1141.97,51.9, 1470.99,0, 1500,548.1, 954.293,600" />
  <polygon fill="#000000" points="1125.22,100.818, 1441.62,4.63207, 1497.41,499.182, 1003,595.368" />
  <polygon fill="#FFFFFF" points="1113.97,146.317, 1412.52,13.4812, 1492.28,453.683, 1048.48,586.519" />
  <polygon fill="#000000" points="1107.77,188.026, 1384.23,26.0673, 1484.72,411.974, 1090.53,573.933" />
  <polygon fill="#FFFFFF" points="1106.09,225.652, 1357.27,41.8583, 1474.92,374.348, 1128.97,558.142" />
  <polygon fill="#000000" points="1108.38,258.984, 1332.09,60.2835, 1463.13,341.016, 1163.65,539.716" />
  <polygon fill="#FFFFFF" points="1114.07,287.899, 1309.05,80.7497, 1449.63,312.101, 1194.5,519.25" />
  <polygon fill="#000000" points="1288.43,102.656, 1434.77,287.635, 1221.48,497.344, 1122.58,312.365" />
  <polygon fill="#FFFFFF" points="1270.44,125.409, 1418.89,267.565, 1244.62,474.591, 1133.31,332.435" />
  <polygon fill="#000000" points="1255.18,148.441, 1402.37,251.75, 1264.01,451.559, 1145.69,348.25" />
  <polygon fill="#FFFFFF" points="1242.7,171.219, 1385.59,239.973, 1279.78,428.781, 1159.18,360.027" />
  <polygon fill="#000000" points="1232.95,193.262, 1368.91,231.946, 1292.13,406.738, 1173.26,368.054" />
  <polygon fill="#FFFFFF" points="1225.81,214.15, 1352.66,227.323, 1301.31,385.85, 1187.46,372.677" />
  <polygon fill="#000000" points="1221.13,233.53, 1337.16,225.713, 1307.59,366.47, 1201.38,374.287" />
  <polygon fill="#FFFFFF" points="1218.66,251.125, 1322.65,226.69, 1311.28,348.875, 1214.66,373.31" />
  <polygon fill="#000000" points="1218.15,266.734, 1309.37,229.811, 1312.73,333.266, 1227,370.189" />
  <polygon fill="#FFFFFF" points="1219.3,280.235, 1297.46,234.63, 1312.29,319.765, 1238.19,365.37" />
  <polygon fill="#000000" points="1221.82,291.579, 1287.05,240.707, 1310.32,308.421, 1248.06,359.293" />
  <polygon fill="#FFFFFF" points="1278.18,247.625, 1307.15,299.212, 1256.53,352.375, 1225.39,300.788" />
  <polygon fill="#000000" points="1270.85,255.002, 1303.13,292.054, 1263.55,344.998, 1229.71,307.946" />
  <polygon fill="#FFFFFF" points="1265.03,262.493, 1298.57,286.811, 1269.15,337.507, 1234.5,313.189" />
  <polygon fill="#000000" points="1260.63,269.806, 1293.73,283.303, 1273.4,330.194, 1239.5,316.697" />
  <polygon fill="#FFFFFF" points="1257.52,276.699, 1288.86,281.319, 1276.39,323.301, 1244.48,318.681" />
  <polygon fill="#000000" points="1255.57,282.986, 1284.17,280.627, 1278.25,317.014, 1249.26,319.373" />
  <polygon fill="#FFFFFF" points="1254.61,288.535, 1279.81,280.987, 1279.16,311.465, 1253.68,319.013" />
  <polygon fill="#000000" points="1254.46,293.266, 1275.89,282.159, 1279.26,306.734, 1257.64,317.841" />
  <polygon fill="#FFFFFF" points="1254.96,297.149, 1272.51,283.914, 1278.73,302.851, 1261.05,316.086" />
  <polygon fill="#000000" points="1269.69,286.041, 1277.73,299.807, 1263.89,313.959, 1255.94,300.193" />
  <polygon fill="#FFFFFF" points="1267.44,288.355, 1276.41,297.556, 1266.15,311.645, 1257.24,302.444" />
  <polygon fill="#000000" points="1265.74,290.698, 1274.92,296.026, 1267.86,309.302, 1258.72,303.974" />
  <polygon fill="#FFFFFF" points="1264.56,292.941, 1273.37,295.126, 1269.05,307.059, 1260.27,304.874" />
  <polygon fill="#000000" points="1263.82,294.991, 1271.86,294.751, 1269.79,305.009, 1261.78,305.249" />
  <polygon fill="#FFFFFF" points="1263.46,296.781, 1270.45,294.792, 1270.15,303.219, 1263.18,305.208" />
  <polygon fill="#000000" points="1263.41,298.274, 1269.22,295.145, 1270.21,301.726, 1264.41,304.855" />
  <polygon fill="#FFFFFF" points="1263.59,299.459, 1268.17,295.708, 1270.03,300.541, 1265.46,304.292" />
  <polygon fill="#000000" points="1267.33,296.394, 1269.69,299.658, 1266.29,303.606, 1263.93,300.342" />
  <polygon fill="#FFFFFF" points="1266.7,297.126, 1269.25,299.052, 1266.92,302.874, 1264.37,300.948" />
  <polygon fill="#000000" points="1266.26,297.846, 1268.77,298.69, 1267.36,302.154, 1264.85,301.31" />
  <polygon fill="#FFFFFF" points="1265.99,298.507, 1268.29,298.528, 1267.63,301.493, 1265.33,301.472" />
  <polygon fill="#000000" points="1265.87,299.082, 1267.85,298.524, 1267.76,300.918, 1265.78,301.476" />
  <polygon fill="#FFFFFF" points="1265.85,299.552, 1267.46,298.634, 1267.78,300.448, 1266.17,301.366" />
  <polygon fill="#000000" points="1265.91,299.913, 1267.14,298.817, 1267.71,300.087, 1266.49,301.183" />
  <polygon fill="#FFFFFF" points="1266.89,299.038, 1267.6,299.83, 1266.73,300.962, 1266.03,300.17" />
  <polygon fill="#000000" points="1266.71,299.27, 1267.45,299.668, 1266.91,300.73, 1266.17,300.332" />
  <polygon fill="#FFFFFF" points="1266.6,299.49, 1267.3,299.585, 1267.02,300.51, 1266.33,300.415" />
  <polygon fill="#000000" points="1266.54,299.685, 1267.15,299.565, 1267.08,300.315, 1266.47,300.435" />
  <polygon fill="#FFFFFF" points="1266.53,299.844, 1267.02,299.591, 1267.1,300.156, 1266.6,300.409" />
  <polygon fill="#000000" points="1266.54,299.966, 1266.92,299.646, 1267.08,300.034, 1266.71,300.354" />
  <polygon fill="#FFFFFF" points="1266.83,299.716, 1267.04,299.949, 1266.79,300.284, 1266.58,300.051" />
  <!-- Shape 3 -->
  <polygon fill="#FFFFFF" points="405.993,484.771, 992.62,393.9, 902.62,600, 428.384,600" />
  <polygon fill="#000000" points="457.323,476.82, 984.745,411.934, 861.124,600, 426.425,589.917" />
  <polygon fill="#FFFFFF" points="505.951,470.837, 973.347,429.273, 821.045,599.07, 429.274,579.49" />
  <polygon fill="#000000" points="551.242,466.81, 958.589,445.727, 783.083,597.173, 436.704,568.961" />
  <polygon fill="#FFFFFF" points="592.628,464.668, 940.758,461.114, 747.89,594.307, 448.341,558.583" />
  <polygon fill="#000000" points="629.634,464.29, 920.256,475.272, 716.048,590.509, 463.679,548.6" />
  <polygon fill="#FFFFFF" points="661.893,465.509, 897.589,488.063, 688.035,585.857, 482.1,539.241" />
  <polygon fill="#000000" points="689.163,468.119, 873.344,499.378, 664.209,580.464, 502.902,530.71" />
  <polygon fill="#FFFFFF" points="711.339,471.882, 848.164,509.141, 644.787,574.474, 525.328,523.174" />
  <polygon fill="#000000" points="548.598,516.758, 728.455,476.543, 822.721,517.314, 629.843,568.056" />
  <polygon fill="#FFFFFF" points="571.943,511.538, 740.691,481.835, 797.686,523.9, 619.297,561.397" />
  <polygon fill="#000000" points="594.64,507.543, 748.357,487.493, 773.692,528.944, 612.928,554.691" />
  <polygon fill="#FFFFFF" points="616.037,504.752, 751.884,493.263, 751.314,532.528, 610.382,548.128" />
  <polygon fill="#000000" points="635.585,503.099, 751.802,498.913, 731.034,534.773, 611.196,541.886" />
  <polygon fill="#FFFFFF" points="652.855,502.477, 748.716,504.242, 713.226,535.83, 614.82,536.123" />
  <polygon fill="#000000" points="667.551,502.747, 743.275,509.084, 698.14,535.875, 620.651,530.965" />
  <polygon fill="#FFFFFF" points="679.515,503.749, 736.144,513.317, 685.897,535.099, 628.061,526.506" />
  <polygon fill="#000000" points="688.729,505.305, 727.969,516.861, 676.487,533.701, 636.433,522.804" />
  <polygon fill="#FFFFFF" points="695.297,507.24, 719.351,519.68, 669.782,531.877, 645.187,519.874" />
  <polygon fill="#000000" points="653.811,517.7, 699.437,509.381, 710.82,521.779, 665.549,529.811" />
  <polygon fill="#FFFFFF" points="661.878,516.229, 701.449,511.573, 702.816,523.199, 663.474,527.67" />
  <polygon fill="#000000" points="669.06,515.384, 701.697,513.683, 695.675,524.011, 663.184,525.593" />
  <polygon fill="#FFFFFF" points="675.137,515.067, 700.576,515.606, 689.626,524.305, 664.278,523.692" />
  <polygon fill="#000000" points="679.993,515.17, 698.486,517.267, 684.787,524.188, 666.351,522.046" />
  <polygon fill="#FFFFFF" points="683.61,515.58, 695.806,518.621, 681.181,523.769, 669.02,520.701" />
  <polygon fill="#000000" points="686.053,516.189, 692.877,519.652, 678.745,523.155, 671.942,519.675" />
  <polygon fill="#FFFFFF" points="674.835,518.961, 687.452,516.899, 689.98,520.37, 677.35,522.441" />
  <polygon fill="#000000" points="677.481,518.528, 687.982,517.627, 687.331,520.804, 676.823,521.711" />
  <polygon fill="#FFFFFF" points="679.732,518.335, 687.843,518.308, 685.078,520.999, 676.964,521.029" />
  <polygon fill="#000000" points="681.509,518.329, 687.237,518.898, 683.3,521.005, 677.57,520.439" />
  <polygon fill="#FFFFFF" points="682.791,518.456, 686.356,519.369, 682.018,520.879, 678.452,519.967" />
  <polygon fill="#000000" points="679.443,519.622, 683.606,518.665, 685.365,519.714, 681.203,520.67" />
  <polygon fill="#FFFFFF" points="680.414,519.398, 684.016,518.91, 684.394,519.937, 680.793,520.426" />
  <polygon fill="#000000" points="681.271,519.282, 684.106,519.154, 683.538,520.053, 680.703,520.181" />
  <polygon fill="#FFFFFF" points="681.959,519.251, 683.968,519.372, 682.85,520.084, 680.841,519.963" />
  <polygon fill="#000000" points="682.456,519.281, 683.691,519.548, 682.353,520.054, 681.117,519.787" />
  <polygon fill="#FFFFFF" points="681.454,519.66, 682.767,519.348, 683.354,519.676, 682.042,519.987" />
  <polygon fill="#000000" points="681.791,519.58, 682.918,519.432, 683.017,519.756, 681.891,519.903" />
  <polygon fill="#FFFFFF" points="682.086,519.541, 682.944,519.517, 682.723,519.794, 681.865,519.818" />
  <polygon fill="#000000" points="682.314,519.535, 682.885,519.591, 682.494,519.801, 681.924,519.745" />
  <polygon fill="#FFFFFF" points="682.469,519.55, 682.779,519.648, 682.34,519.786, 682.029,519.688" />
  <polygon fill="#000000" points="682.15,519.65, 682.554,519.577, 682.658,519.686, 682.254,519.759" />
  <polygon fill="#FFFFFF" points="682.264,519.629, 682.583,519.607, 682.545,519.706, 682.225,519.728" />
  <polygon fill="#000000" points="682.355,519.623, 682.572,519.635, 682.454,519.712, 682.236,519.7" />
  <polygon fill="#FFFFFF" points="682.418,519.627, 682.538,519.658, 682.391,519.709, 682.27,519.678" />
  <polygon fill="#000000" points="682.314,519.663, 682.453,519.636, 682.495,519.673, 682.355,519.7" />
  <polygon fill="#FFFFFF" points="682.355,519.655, 682.466,519.647, 682.453,519.681, 682.343,519.689" />
  <polygon fill="#000000" points="682.389,519.652, 682.462,519.657, 682.42,519.683, 682.347,519.678" />
  <polygon fill="#FFFFFF" points="682.411,519.654, 682.449,519.665, 682.397,519.682, 682.36,519.67" />
  <polygon fill="#000000" points="682.376,519.665, 682.423,519.657, 682.433,519.67, 682.385,519.678" />
  <!-- Shape 4 -->
  <polygon fill="#FFFFFF" points="311.79,0, 690.393,0, 365.961,278.764" />
  <polygon fill="#000000" points="315.853,20.9073, 661.998,0, 390.293,257.857" />
  <polygon fill="#FFFFFF" points="321.853,40.0055, 634.099,1.68513, 412.193,237.074" />
  <polygon fill="#000000" points="329.64,56.9927, 607.183,4.98834, 431.321,216.783" />
  <polygon fill="#FFFFFF" points="338.975,71.6615, 581.705,9.76235, 447.465,197.34" />
  <polygon fill="#000000" points="349.542,83.9026, 558.063,15.7913, 460.54,179.07" />
  <polygon fill="#FFFFFF" points="536.585,22.8068, 470.585,162.253, 360.974,93.7049" />
  <polygon fill="#000000" points="517.514,30.5063, 477.752,147.109, 372.878,101.149" />
  <polygon fill="#FFFFFF" points="500.996,38.5737, 482.293,133.793, 384.855,106.398" />
  <polygon fill="#000000" points="487.083,46.6991, 484.534,122.386, 396.528,109.68" />
  <polygon fill="#FFFFFF" points="475.727,54.5968, 484.853,112.894, 407.564,111.273" />
  <polygon fill="#000000" points="466.798,62.0214, 483.658,105.257, 417.689,111.485" />
  <polygon fill="#FFFFFF" points="460.089,68.7782, 481.355,99.3514, 426.7,110.635" />
  <polygon fill="#000000" points="455.341,74.7302, 478.331,95.0039, 434.472,109.03" />
  <polygon fill="#FFFFFF" points="452.257,79.7997, 474.933,92.0074, 440.954,106.957" />
  <polygon fill="#000000" points="450.523,83.9657, 471.454,90.1348, 446.167,104.664" />
  <polygon fill="#FFFFFF" points="449.83,87.2567, 468.126,89.1539, 450.187,102.354" />
  <polygon fill="#000000" points="449.889,89.7416, 465.115,88.8416, 453.14,100.181" />
  <polygon fill="#FFFFFF" points="450.442,91.5184, 462.523,88.9948, 455.178,98.2511" />
  <polygon fill="#000000" points="451.275,92.702, 460.4,89.4384, 456.47,96.6238" />
  <polygon fill="#FFFFFF" points="458.744,90.0305, 457.182,95.3204, 452.217,93.4134" />
  <polygon fill="#000000" points="457.524,90.6631, 457.475,94.3312, 453.146,93.77" />
  <polygon fill="#FFFFFF" points="456.681,91.2615, 457.484,93.6247, 453.98,93.8781" />
  <polygon fill="#000000" points="456.145,91.7801, 457.325,93.1563, 454.674,93.8279" />
  <polygon fill="#FFFFFF" points="455.845,92.1974, 457.084,92.8758, 455.214,93.691" />
  <polygon fill="#000000" points="455.713,92.5102, 456.825,92.7338, 455.606,93.5203" />
  <polygon fill="#FFFFFF" points="455.69,92.7274, 456.586,92.6857, 455.868,93.3512" />
  <polygon fill="#000000" points="455.729,92.865, 456.388,92.6949, 456.026,93.2044" />
  <polygon fill="#FFFFFF" points="456.239,92.7334, 456.108,93.0891, 455.797,92.9418" />
  <polygon fill="#000000" points="456.137,92.7817, 456.139,93.0067, 455.869,92.9759" />
  <polygon fill="#FFFFFF" points="456.073,92.8278, 456.138,92.9533, 455.933,92.9832" />
  <polygon fill="#000000" points="456.039,92.8656, 456.122,92.9228, 455.983,92.9759" />
  <polygon fill="#FFFFFF" points="456.025,92.893, 456.102,92.9085, 456.017,92.9627" />
  <polygon fill="#000000" points="456.023,92.9107, 456.082,92.9046, 456.039,92.949" />
  <polygon fill="#FFFFFF" points="456.027,92.9207, 456.067,92.9062, 456.05,92.9374" />
  <polygon fill="#000000" points="456.056,92.91, 456.055,92.9291, 456.033,92.9251" />
  <polygon fill="#FFFFFF" points="456.05,92.9141, 456.055,92.924, 456.039,92.9262" />
  <polygon fill="#000000" points="456.047,92.9175, 456.054,92.9212, 456.043,92.9256" />
  <polygon fill="#FFFFFF" points="456.046,92.9197, 456.052,92.9202, 456.046,92.9244" />
  <polygon fill="#000000" points="456.046,92.9211, 456.05,92.92, 456.048,92.9231" />
  <polygon fill="#FFFFFF" points="456.049,92.9203, 456.049,92.9222, 456.047,92.9217" />
  <polygon fill="#000000" points="456.048,92.9207, 456.049,92.9217, 456.047,92.9218" />
  <polygon fill="#FFFFFF" points="456.048,92.9218, 456.049,92.9214, 456.048,92.9211" />
  <polygon fill="#000000" points="456.048,92.9216, 456.048,92.9215, 456.048,92.9212" />
  <polygon fill="#FFFFFF" points="456.048,92.9213, 456.048,92.9214, 456.048,92.9215" />
  <polygon fill="#000000" points="456.048,92.9214, 456.048,92.9214, 456.048,92.9215" />
  <polygon fill="#FFFFFF" points="456.048,92.9215, 456.048,92.9214, 456.048,92.9214" />
  <polygon fill="#000000" points="456.048,92.9214, 456.048,92.9214, 456.048,92.9214" />
  <polygon fill="#FFFFFF" points="456.048,92.9214, 456.048,92.9214, 456.048,92.9214" />
  <polygon fill="#000000" points="456.048,92.9214, 456.048,92.9214, 456.048,92.9214" />
  <!-- Shape 5 -->
  <polygon fill="#000000" points="830.568,0, 1164.63,0, 992.62,393.9, 885.492,410.494" />
  <polygon fill="#FFFFFF" points="872.993,0, 1142.78,50.0253, 979.015,396.007, 878.517,358.362" />
  <polygon fill="#000000" points="908.849,6.64836, 1121.02,96.0063, 965.659,391.004, 877.783,310.735" />
  <polygon fill="#FFFFFF" points="938.298,19.0512, 1099.45,136.952, 953.462,379.863, 882.095,268.528" />
  <polygon fill="#000000" points="961.617,36.1115, 1078.33,172.101, 943.135,363.753, 890.227,232.429" />
  <polygon fill="#FFFFFF" points="979.194,56.5915, 1057.97,200.964, 935.167,343.975, 900.979,202.863" />
  <polygon fill="#000000" points="913.219,179.972, 991.522,79.1858, 1038.75,223.345, 929.817,321.891" />
  <polygon fill="#FFFFFF" points="925.936,163.604, 999.192,102.597, 1021.06,239.349, 927.121,298.844" />
  <polygon fill="#000000" points="938.265,153.337, 1002.87,125.613, 1005.25,249.362, 926.922,276.083" />
  <polygon fill="#FFFFFF" points="949.52,148.507, 1003.29,147.17, 991.605,254.017, 928.898,254.7" />
  <polygon fill="#000000" points="959.203,148.266, 1001.18,166.413, 980.312,254.14, 932.612,235.575" />
  <polygon fill="#FFFFFF" points="967.011,151.642, 997.301,182.73, 971.439,250.687, 937.558,219.336" />
  <polygon fill="#000000" points="972.824,157.607, 992.338,195.771, 964.937,244.671, 943.21,206.345" />
  <polygon fill="#FFFFFF" points="949.067,196.705, 976.684,165.156, 986.918,205.443, 960.64,237.09" />
  <polygon fill="#000000" points="954.693,190.278, 978.769,173.363, 981.565,211.89, 958.282,228.863" />
  <polygon fill="#FFFFFF" points="959.739,186.733, 979.355,181.438, 976.685,215.447, 957.53,220.776" />
  <polygon fill="#000000" points="963.966,185.592, 978.779,188.767, 972.557,216.596, 958.006,213.44" />
  <polygon fill="#FFFFFF" points="967.246,186.295, 977.402,194.928, 969.336,215.897, 959.326,207.274" />
  <polygon fill="#000000" points="969.554,188.257, 975.568,199.694, 967.06,213.937, 961.126,202.506" />
  <polygon fill="#FFFFFF" points="963.091,199.183, 970.957,190.924, 973.584,203.016, 965.676,211.271" />
  <polygon fill="#000000" points="964.972,197.208, 971.585,193.815, 971.694,204.99, 965.058,208.381" />
  <polygon fill="#FFFFFF" points="966.592,196.377, 971.612,196.553, 970.068,205.821, 965.037,205.644" />
  <polygon fill="#000000" points="967.852,196.421, 971.224,198.878, 968.806,205.776, 965.427,203.319" />
  <polygon fill="#FFFFFF" points="968.718,197.052, 970.603,200.65, 967.938,205.145, 966.05,201.547" />
  <polygon fill="#000000" points="966.751,200.366, 969.213,197.997, 969.903,201.831, 967.442,204.2" />
  <polygon fill="#FFFFFF" points="967.412,199.73, 969.398,199.027, 969.242,202.467, 967.256,203.17" />
  <polygon fill="#000000" points="967.957,199.537, 969.356,199.971, 968.697,202.66, 967.299,202.226" />
  <polygon fill="#FFFFFF" points="968.349,199.659, 969.171,200.725, 968.305,202.538, 967.484,201.472" />
  <polygon fill="#000000" points="967.732,200.953, 968.585,199.964, 968.923,201.244, 968.07,202.233" />
  <polygon fill="#FFFFFF" points="967.981,200.664, 968.683,200.338, 968.674,201.533, 967.971,201.859" />
  <polygon fill="#000000" points="968.19,200.567, 968.681,200.694, 968.464,201.63, 967.974,201.503" />
  <polygon fill="#FFFFFF" points="968.339,200.606, 968.615,200.979, 968.315,201.592, 968.04,201.218" />
  <polygon fill="#000000" points="968.133,201.028, 968.425,200.721, 968.522,201.169, 968.23,201.476" />
  <polygon fill="#FFFFFF" points="968.225,200.931, 968.455,200.863, 968.43,201.266, 968.199,201.335" />
  <polygon fill="#000000" points="968.299,200.909, 968.447,200.992, 968.356,201.288, 968.207,201.205" />
  <polygon fill="#FFFFFF" points="968.348,200.936, 968.417,201.089, 968.307,201.261, 968.237,201.108" />
  <polygon fill="#000000" points="968.274,201.051, 968.371,200.987, 968.38,201.146, 968.284,201.21" />
  <polygon fill="#FFFFFF" points="968.307,201.029, 968.374,201.041, 968.348,201.168, 968.281,201.156" />
  <polygon fill="#000000" points="968.33,201.033, 968.365,201.085, 968.324,201.164, 968.29,201.112" />
  <polygon fill="#FFFFFF" points="968.304,201.084, 968.342,201.052, 968.351,201.113, 968.312,201.146" />
  <polygon fill="#000000" points="968.318,201.073, 968.345,201.073, 968.337,201.124, 968.309,201.124" />
  <polygon fill="#FFFFFF" points="968.328,201.073, 968.342,201.092, 968.327,201.124, 968.312,201.105" />
  <polygon fill="#000000" points="968.318,201.093, 968.333,201.08, 968.337,201.104, 968.322,201.117" />
  <polygon fill="#FFFFFF" points="968.324,201.088, 968.334,201.089, 968.331,201.109, 968.32,201.108" />
  <polygon fill="#000000" points="968.328,201.089, 968.333,201.096, 968.327,201.109, 968.321,201.101" />
  <polygon fill="#FFFFFF" points="968.324,201.096, 968.33,201.092, 968.331,201.101, 968.325,201.106" />
  <polygon fill="#000000" points="968.326,201.094, 968.33,201.095, 968.328,201.103, 968.324,201.102" />
  <polygon fill="#FFFFFF" points="968.328,201.095, 968.329,201.098, 968.327,201.102, 968.325,201.099" />
  <polygon fill="#000000" points="968.326,201.097, 968.328,201.096, 968.328,201.1, 968.326,201.101" />
  <polygon fill="#FFFFFF" points="968.327,201.097, 968.328,201.098, 968.327,201.1, 968.326,201.099" />
  <!-- Shape 6 -->
  <polygon fill="#FFFFFF" points="365.961,278.764, 462.093,196.164, 700.042,439.221, 405.993,484.771" />
  <polygon fill="#000000" points="370.424,301.734, 451.374,205.374, 673.511,412.121, 438.779,479.692" />
  <polygon fill="#FFFFFF" points="378.425,322.564, 441.899,216.653, 647.51,387.921, 466.255,471.783" />
  <polygon fill="#000000" points="389.193,340.858, 434.117,229.637, 622.302,366.923, 488.476,461.502" />
  <polygon fill="#FFFFFF" points="428.36,243.89, 598.186,349.33, 505.626,449.381, 401.916,356.319" />
  <polygon fill="#000000" points="424.825,258.922, 575.481,335.233, 518.002,436.004, 415.782,368.761" />
  <polygon fill="#FFFFFF" points="423.566,274.217, 554.502,324.607, 526.005,421.972, 430.016,378.125" />
  <polygon fill="#000000" points="424.5,289.263, 535.542,317.31, 530.132,407.874, 443.916,384.474" />
  <polygon fill="#FFFFFF" points="427.419,303.578, 518.847,313.093, 530.945,394.257, 456.878,387.992" />
  <polygon fill="#000000" points="432.012,316.738, 504.593,311.61, 529.059,381.604, 468.425,388.969" />
  <polygon fill="#FFFFFF" points="437.891,328.4, 492.875,312.438, 525.109,370.303, 478.215,387.78" />
  <polygon fill="#000000" points="444.625,338.316, 483.693,315.103, 519.726,360.64, 486.046,384.861" />
  <polygon fill="#FFFFFF" points="451.772,346.348, 476.951,319.109, 513.508,352.782, 491.857,380.682" />
  <polygon fill="#000000" points="472.467,323.96, 506.998,346.785, 495.713,375.713, 458.911,352.462" />
  <polygon fill="#FFFFFF" points="469.977,329.194, 500.656,342.593, 497.786,370.4, 465.67,356.732" />
  <polygon fill="#000000" points="469.162,334.405, 494.852,340.058, 498.329,365.139, 471.746,359.318" />
  <polygon fill="#FFFFFF" points="469.666,339.257, 489.849,338.957, 497.652,360.255, 476.923,360.452" />
  <polygon fill="#000000" points="471.119,343.502, 485.806,339.017, 496.089,355.989, 481.075,360.412" />
  <polygon fill="#FFFFFF" points="473.169,346.983, 482.783,339.94, 493.972,352.495, 484.166,359.502" />
  <polygon fill="#000000" points="475.493,349.63, 480.75,341.429, 491.607,349.841, 486.239,358.021" />
  <polygon fill="#FFFFFF" points="479.61,343.208, 489.251,348.016, 487.403,356.246, 477.825,351.45" />
  <polygon fill="#000000" points="479.213,345.042, 487.106,346.946, 487.814,354.415, 479.956,352.517" />
  <polygon fill="#FFFFFF" points="479.382,346.747, 485.306,346.512, 487.653,352.712, 481.748,352.95" />
  <polygon fill="#000000" points="479.935,348.196, 483.922,346.567, 487.105,351.264, 483.127,352.894" />
  <polygon fill="#FFFFFF" points="480.698,349.319, 482.969,346.956, 486.344,350.14, 484.079,352.504" />
  <polygon fill="#000000" points="482.413,347.535, 485.518,349.361, 484.633,351.926, 481.525,350.099" />
  <polygon fill="#FFFFFF" points="482.191,348.176, 484.741,348.904, 484.854,351.284, 482.303,350.556" />
  <polygon fill="#000000" points="482.22,348.785, 484.089,348.718, 484.825,350.675, 482.956,350.742" />
  <polygon fill="#FFFFFF" points="482.412,349.297, 483.6,348.736, 484.633,350.164, 483.444,350.725" />
  <polygon fill="#000000" points="482.688,349.678, 483.283,348.885, 484.357,349.783, 483.761,350.575" />
  <polygon fill="#FFFFFF" points="483.121,349.101, 484.064,349.538, 483.924,350.359, 482.98,349.922" />
  <polygon fill="#000000" points="483.082,349.329, 483.802,349.417, 483.963,350.131, 483.242,350.044" />
  <polygon fill="#FFFFFF" points="483.127,349.532, 483.598,349.392, 483.917,349.928, 483.447,350.068" />
  <polygon fill="#000000" points="483.22,349.687, 483.462,349.432, 483.825,349.773, 483.583,350.028" />
  <polygon fill="#FFFFFF" points="483.39,349.507, 483.718,349.673, 483.654,349.953, 483.327,349.787" />
  <polygon fill="#000000" points="483.371,349.591, 483.62,349.623, 483.673,349.869, 483.425,349.837" />
  <polygon fill="#FFFFFF" points="483.388,349.667, 483.544,349.613, 483.657,349.794, 483.501,349.847" />
  <polygon fill="#000000" points="483.423,349.723, 483.495,349.63, 483.622,349.738, 483.549,349.83" />
  <polygon fill="#FFFFFF" points="483.472,349.659, 483.582,349.703, 483.572,349.801, 483.463,349.757" />
  <polygon fill="#000000" points="483.469,349.691, 483.546,349.689, 483.575,349.769, 483.498,349.771" />
  <polygon fill="#FFFFFF" points="483.479,349.717, 483.521,349.69, 483.566,349.743, 483.523,349.771" />
  <polygon fill="#000000" points="483.507,349.699, 483.551,349.725, 483.538,349.761, 483.494,349.735" />
  <polygon fill="#FFFFFF" points="483.502,349.711, 483.536,349.716, 483.542,349.749, 483.509,349.744" />
  <polygon fill="#000000" points="483.505,349.722, 483.524,349.715, 483.54,349.738, 483.52,349.746" />
  <polygon fill="#FFFFFF" points="483.517,349.717, 483.535,349.73, 483.527,349.743, 483.51,349.731" />
  <polygon fill="#000000" points="483.515,349.722, 483.528,349.725, 483.53,349.738, 483.516,349.735" />
  <polygon fill="#FFFFFF" points="483.515,349.727, 483.524,349.724, 483.529,349.734, 483.521,349.736" />
  <polygon fill="#000000" points="483.52,349.725, 483.527,349.73, 483.524,349.735, 483.517,349.73" />
  <polygon fill="#FFFFFF" points="483.519,349.727, 483.525,349.728, 483.525,349.733, 483.52,349.732" />
  <polygon fill="#000000" points="483.52,349.729, 483.523,349.728, 483.525,349.731, 483.522,349.733" />
  <!-- Shape 7 -->
  <polygon fill="#FFFFFF" points="690.393,0, 830.568,0, 863.998,249.851, 556.504,115.043" />
  <polygon fill="#000000" points="677.874,10.7565, 817.461,0, 860.872,226.49, 585.254,127.647" />
  <polygon fill="#FFFFFF" points="668.51,22.5741, 803.349,1.08748, 856.483,203.592, 613.119,137.64" />
  <polygon fill="#000000" points="662.489,35.0818, 788.692,3.42308, 850.708,181.579, 639.573,144.809" />
  <polygon fill="#FFFFFF" points="659.824,47.8431, 774.015,7.10499, 843.495,160.86, 664.128,149.085" />
  <polygon fill="#000000" points="660.358,60.387, 759.867,12.1524, 834.887,141.81, 686.352,150.544" />
  <polygon fill="#FFFFFF" points="663.776,72.2427, 746.781,18.4953, 825.022,124.76, 705.884,149.396" />
  <polygon fill="#000000" points="669.633,82.9747, 735.235,25.9716, 814.138,109.978, 722.456,145.969" />
  <polygon fill="#FFFFFF" points="725.611,34.3339, 802.563,97.6545, 735.906,140.689, 677.382,92.2159" />
  <polygon fill="#000000" points="718.17,43.2651, 790.69,87.8841, 746.191,134.049, 686.412,99.6953" />
  <polygon fill="#FFFFFF" points="713.028,52.4012, 778.949,80.6603, 753.395,126.575, 696.091,105.257" />
  <polygon fill="#000000" points="710.157,61.3603, 767.775,75.8704, 757.727,118.792, 705.804,108.87" />
  <polygon fill="#FFFFFF" points="709.386,69.7743, 757.571,73.3006, 759.506,111.191, 714.999,110.628" />
  <polygon fill="#000000" points="710.423,77.3199, 748.671,72.6493, 759.149,104.192, 723.22,110.732" />
  <polygon fill="#FFFFFF" points="712.884,83.745, 741.316,73.5475, 757.134,98.1267, 730.129,109.474" />
  <polygon fill="#000000" points="716.331,88.8883, 735.632,75.586, 753.972,93.2133, 735.527,107.206" />
  <polygon fill="#FFFFFF" points="731.627,78.3462, 750.166,89.5557, 739.354,104.302, 720.314,92.6892" />
  <polygon fill="#000000" points="729.194,81.4314, 746.179,87.1445, 741.68,101.13, 724.41,95.1872" />
  <polygon fill="#FFFFFF" points="728.128,84.4948, 742.396,85.8722, 742.682,98.0157, 728.256,96.5107" />
  <polygon fill="#000000" points="728.158,87.262, 739.11,85.555, 742.616,95.2191, 731.578,96.8573" />
  <polygon fill="#FFFFFF" points="728.972,89.5448, 736.505,85.9611, 741.782,92.92, 734.204,96.4676" />
  <polygon fill="#000000" points="734.655,86.8409, 740.487,91.2116, 736.065,95.5966, 730.256,91.2443" />
  <polygon fill="#FFFFFF" points="733.542,87.9554, 739.011,90.1053, 737.184,94.4868, 731.726,92.3459" />
  <polygon fill="#000000" points="733.069,89.1, 737.585,89.5448, 737.66,93.3445, 733.149,92.904" />
  <polygon fill="#FFFFFF" points="733.09,90.1206, 736.373,89.4255, 737.64,92.3251, 734.359,93.0222" />
  <polygon fill="#000000" points="733.44,90.9212, 735.467,89.6173, 737.29,91.5251, 735.264,92.8299" />
  <polygon fill="#FFFFFF" points="734.893,89.9869, 736.774,90.9842, 735.839,92.46, 733.957,91.4623" />
  <polygon fill="#000000" points="734.62,90.4164, 736.226,90.6939, 736.111,92.0304, 734.505,91.7527" />
  <polygon fill="#FFFFFF" points="734.586,90.8156, 735.746,90.611, 736.145,91.6312, 734.985,91.8356" />
  <polygon fill="#000000" points="734.708,91.128, 735.391,90.6737, 736.023,91.3187, 735.34,91.773" />
  <polygon fill="#FFFFFF" points="735.177,90.8163, 735.825,91.1162, 735.555,91.6304, 734.907,91.3305" />
  <polygon fill="#000000" points="735.09,90.9816, 735.616,91.0198, 735.641,91.4651, 735.115,91.4269" />
  <polygon fill="#FFFFFF" points="735.098,91.1281, 735.443,91.0072, 735.633,91.3185, 735.288,91.4395" />
  <polygon fill="#000000" points="735.327,91.0479, 735.569,91.2137, 735.404,91.3988, 735.162,91.233" />
  <polygon fill="#FFFFFF" points="735.27,91.1116, 735.486,91.1566, 735.461,91.335, 735.245,91.29" />
  <polygon fill="#000000" points="735.261,91.1744, 735.41,91.1408, 735.47,91.2723, 735.321,91.3059" />
  <polygon fill="#FFFFFF" points="735.283,91.2217, 735.357,91.1529, 735.448,91.225, 735.375,91.2938" />
  <polygon fill="#000000" points="735.33,91.1781, 735.415,91.1985, 735.402,91.2685, 735.317,91.2482" />
  <polygon fill="#FFFFFF" points="735.325,91.2044, 735.383,91.1909, 735.407,91.2423, 735.349,91.2558" />
  <polygon fill="#000000" points="735.361,91.196, 735.397,91.2227, 735.371,91.2506, 735.334,91.224" />
  <polygon fill="#FFFFFF" points="735.35,91.207, 735.383,91.2123, 735.381,91.2397, 735.348,91.2344" />
  <polygon fill="#000000" points="735.349,91.2179, 735.37,91.2102, 735.382,91.2288, 735.361,91.2365" />
  <polygon fill="#FFFFFF" points="735.362,91.2133, 735.377,91.2213, 735.37,91.2334, 735.354,91.2254" />
  <polygon fill="#000000" points="735.359,91.2183, 735.371,91.218, 735.373,91.2284, 735.361,91.2287" />
  <polygon fill="#FFFFFF" points="735.359,91.2227, 735.366,91.2181, 735.372,91.224, 735.366,91.2286" />
  <polygon fill="#000000" points="735.363,91.2201, 735.369,91.2215, 735.368,91.2266, 735.362,91.2252" />
  <polygon fill="#FFFFFF" points="735.363,91.2223, 735.366,91.2209, 735.369,91.2244, 735.365,91.2258" />
  <polygon fill="#000000" points="735.365,91.2215, 735.368,91.2228, 735.367,91.2252, 735.364,91.2239" />
  <polygon fill="#FFFFFF" points="735.364,91.2226, 735.366,91.2222, 735.367,91.2241, 735.365,91.2245" />
  <polygon fill="#000000" points="735.365,91.2224, 735.367,91.2233, 735.366,91.2243, 735.365,91.2234" />
  <!-- Shape 8 -->
  <polygon fill="#000000" points="556.504,115.043, 642.377,152.69, 545.76,281.626, 462.093,196.164" />
  <polygon fill="#FFFFFF" points="473.234,186.591, 566.637,119.485, 630.976,167.905, 535.887,271.542" />
  <polygon fill="#000000" points="484.881,178.223, 574.66,125.523, 619.119,180.828, 528.074,260.948" />
  <polygon fill="#FFFFFF" points="496.678,171.298, 580.502,132.79, 607.155,191.356, 522.398,250.078" />
  <polygon fill="#000000" points="508.254,165.98, 584.183,140.878, 595.45,199.466, 518.846,239.199" />
  <polygon fill="#FFFFFF" points="519.249,162.346, 585.814,149.362, 584.358,205.219, 517.313,228.597" />
  <polygon fill="#000000" points="529.333,160.379, 585.594,157.824, 574.201,208.761, 517.606,218.56" />
  <polygon fill="#FFFFFF" points="538.234,159.974, 583.791,165.882, 565.248,210.311, 519.461,209.355" />
  <polygon fill="#000000" points="545.746,160.949, 580.733,173.208, 557.697,210.153, 522.557,201.213" />
  <polygon fill="#FFFFFF" points="551.75,163.052, 576.78,179.548, 551.667,208.619, 526.536,194.303" />
  <polygon fill="#000000" points="556.213,165.994, 572.303,184.732, 547.186,206.067, 531.032,188.731" />
  <polygon fill="#FFFFFF" points="535.69,184.525, 559.189,169.46, 567.656,188.679, 544.198,202.86" />
  <polygon fill="#000000" points="540.195,181.637, 560.813,173.144, 563.159,191.397, 542.567,199.345" />
  <polygon fill="#FFFFFF" points="544.286,179.952, 561.278,176.766, 559.074,192.974, 542.096,195.832" />
  <polygon fill="#000000" points="547.771,179.298, 560.826,180.09, 555.592,193.56, 542.545,192.575" />
  <polygon fill="#FFFFFF" points="550.536,179.466, 559.717,182.943, 552.828,193.351, 543.652,189.763" />
  <polygon fill="#000000" points="552.542,180.226, 558.212,185.217, 550.823,192.567, 545.156,187.513" />
  <polygon fill="#FFFFFF" points="546.819,185.872, 553.819,181.35, 556.548,186.872, 549.547,191.429" />
  <polygon fill="#000000" points="548.443,184.823, 554.452,182.63, 554.925,187.929, 548.915,190.14" />
  <polygon fill="#FFFFFF" points="549.876,184.3, 554.565,183.895, 553.491,188.457, 548.802,188.872" />
  <polygon fill="#000000" points="551.026,184.201, 554.301,185.014, 552.341,188.558, 549.066,187.75" />
  <polygon fill="#FFFFFF" points="551.852,184.405, 553.807,185.907, 551.515,188.355, 549.56,186.856" />
  <polygon fill="#000000" points="550.153,186.222, 552.358,184.794, 553.214,186.54, 551.009,187.967" />
  <polygon fill="#FFFFFF" points="550.738,185.843, 552.585,185.257, 552.629,186.919, 550.782,187.504" />
  <polygon fill="#000000" points="551.24,185.684, 552.597,185.709, 552.126,187.078, 550.77,187.052" />
  <polygon fill="#FFFFFF" points="551.619,185.691, 552.466,186.091, 551.748,187.071, 550.901,186.67" />
  <polygon fill="#000000" points="551.86,185.805, 552.261,186.371, 551.506,186.956, 551.106,186.391" />
  <polygon fill="#FFFFFF" points="551.326,186.22, 551.977,185.97, 552.04,186.542, 551.389,186.791" />
  <polygon fill="#000000" points="551.521,186.145, 551.996,186.141, 551.846,186.616, 551.371,186.62" />
  <polygon fill="#FFFFFF" points="551.666,186.144, 551.95,186.286, 551.701,186.618, 551.417,186.475" />
  <polygon fill="#000000" points="551.495,186.372, 551.755,186.188, 551.872,186.39, 551.612,186.573" />
  <polygon fill="#FFFFFF" points="551.578,186.313, 551.792,186.253, 551.789,186.448, 551.574,186.509" />
  <polygon fill="#000000" points="551.648,186.293, 551.791,186.316, 551.719,186.468, 551.575,186.445" />
  <polygon fill="#FFFFFF" points="551.695,186.301, 551.767,186.367, 551.671,186.46, 551.599,186.395" />
  <polygon fill="#000000" points="551.632,186.363, 551.72,186.323, 551.735,186.399, 551.647,186.438" />
  <polygon fill="#FFFFFF" points="551.662,186.349, 551.725,186.349, 551.705,186.412, 551.642,186.412" />
  <polygon fill="#000000" points="551.684,186.349, 551.718,186.372, 551.682,186.412, 551.649,186.39" />
  <polygon fill="#FFFFFF" points="551.662,186.375, 551.696,186.357, 551.705,186.386, 551.67,186.404" />
  <polygon fill="#000000" points="551.674,186.369, 551.7,186.368, 551.692,186.393, 551.667,186.394" />
  <polygon fill="#FFFFFF" points="551.684,186.368, 551.697,186.377, 551.683,186.393, 551.67,186.384" />
  <polygon fill="#000000" points="551.675,186.378, 551.689,186.372, 551.692,186.383, 551.678,186.39" />
  <polygon fill="#FFFFFF" points="551.68,186.376, 551.69,186.376, 551.686,186.386, 551.677,186.385" />
  <polygon fill="#000000" points="551.684,186.376, 551.689,186.38, 551.683,186.386, 551.678,186.382" />
  <polygon fill="#FFFFFF" points="551.681,186.379, 551.686,186.377, 551.686,186.382, 551.681,186.384" />
  <polygon fill="#000000" points="551.683,186.379, 551.686,186.379, 551.684,186.383, 551.681,186.382" />
  <polygon fill="#FFFFFF" points="551.682,186.381, 551.684,186.379, 551.685,186.381, 551.683,186.383" />
  <polygon fill="#000000" points="551.683,186.38, 551.685,186.38, 551.684,186.382, 551.682,186.382" />
  <polygon fill="#FFFFFF" points="551.683,186.38, 551.684,186.38, 551.683,186.382, 551.682,186.381" />
  <!-- Shape 9 -->
  <polygon fill="#000000" points="753.197,201.275, 863.998,249.851, 885.492,410.494, 700.042,439.221, 619.003,356.442" />
  <polygon fill="#FFFFFF" points="737.631,219.274, 851.145,244.216, 882.999,391.86, 721.555,435.889, 628.404,366.045" />
  <polygon fill="#000000" points="724.196,237.327, 837.183,241.148, 879.081,373.7, 741.412,430.474, 639.861,374.636" />
  <polygon fill="#FFFFFF" points="713.232,255.177, 822.495,240.651, 873.634,356.468, 759.309,423.093, 653.063,381.895" />
  <polygon fill="#000000" points="704.989,272.537, 807.526,242.641, 866.628,340.601, 774.972,413.965, 667.619,387.539" />
  <polygon fill="#FFFFFF" points="699.608,289.098, 792.76,246.946, 858.117,326.495, 788.17,403.401, 683.078,391.344" />
  <polygon fill="#000000" points="697.112,304.537, 778.694,253.311, 848.249,314.483, 798.732,391.788, 698.947,393.165" />
  <polygon fill="#FFFFFF" points="697.402,318.54, 765.804,261.405, 837.259,304.818, 806.556,379.574, 714.713,392.947" />
  <polygon fill="#000000" points="700.258,330.817, 754.518,270.832, 825.469,297.655, 811.622,367.239, 729.867,390.741" />
  <polygon fill="#FFFFFF" points="745.185,281.15, 813.265,293.041, 814.004,355.271, 743.929,386.698, 705.351,341.124" />
  <polygon fill="#000000" points="738.055,291.885, 801.079,290.913, 813.871,344.132, 756.472,381.073, 712.256,349.282" />
  <polygon fill="#FFFFFF" points="733.256,302.561, 789.357,291.094, 811.492,334.233, 767.148,374.202, 720.48,355.195" />
  <polygon fill="#000000" points="730.791,312.719, 778.529,293.307, 807.22,325.907, 775.707,366.488, 729.487,358.863" />
  <polygon fill="#FFFFFF" points="730.53,321.948, 768.981,297.189, 801.482,319.387, 782.009,358.372, 738.731,360.388" />
  <polygon fill="#000000" points="732.228,329.905, 761.022,302.314, 794.754,314.792, 786.04,350.302, 747.69,359.971" />
  <polygon fill="#FFFFFF" points="754.86,308.219, 787.536,312.122, 787.905,342.703, 755.897,357.902, 735.536,336.339" />
  <polygon fill="#000000" points="750.589,314.433, 780.314,311.259, 787.823,335.944, 762.971,354.543, 740.036,341.104" />
  <polygon fill="#FFFFFF" points="748.183,320.514, 773.537,311.983, 786.111,330.316, 768.637,350.302, 745.265,344.168" />
  <polygon fill="#000000" points="747.498,326.073, 767.579,313.988, 783.156,326.008, 772.743,345.605, 750.758,345.61" />
  <polygon fill="#FFFFFF" points="748.286,330.801, 762.719,316.912, 779.387,323.099, 775.263,340.863, 756.078,345.609" />
  <polygon fill="#000000" points="759.125,320.371, 775.236,321.558, 776.29,336.44, 760.855,344.427, 750.227,334.488" />
  <polygon fill="#FFFFFF" points="756.847,323.985, 771.112,321.254, 776.02,332.63, 764.807,342.382, 752.948,337.032" />
  <polygon fill="#000000" points="755.822,327.416, 767.36,321.972, 774.729,329.638, 767.756,339.817, 756.066,338.439" />
  <polygon fill="#FFFFFF" points="755.888,330.393, 764.245,323.442, 772.74,327.568, 769.639,337.069, 759.223,338.811" />
  <polygon fill="#000000" points="761.93,325.368, 770.387,326.426, 770.498,334.437, 762.108,338.329, 756.812,332.725" />
  <polygon fill="#FFFFFF" points="760.476,327.457, 767.985,326.125, 770.466,332.162, 764.491,337.224, 758.316,334.316" />
  <polygon fill="#000000" points="759.848,329.453, 765.8,326.513, 769.744,330.405, 766.229,335.751, 760.113,335.162" />
  <polygon fill="#FFFFFF" points="759.927,331.154, 764.026,327.389, 768.569,329.245, 767.277,334.158, 761.935,335.338" />
  <polygon fill="#000000" points="762.776,328.537, 767.183,328.679, 767.671,332.659, 763.565,334.978, 760.539,332.43" />
  <polygon fill="#FFFFFF" points="762.078,329.752, 765.808,328.635, 767.519,331.418, 764.846,334.254, 761.483,333.225" />
  <polygon fill="#000000" points="761.888,330.86, 764.618,328.991, 766.973,330.53, 765.698,333.349, 762.556,333.553" />
  <polygon fill="#FFFFFF" points="763.728,329.6, 766.205,330.028, 766.114,332.43, 763.58,333.487, 762.106,331.738" />
  <polygon fill="#000000" points="763.188,330.312, 765.38,329.886, 766.144,331.63, 764.424,333.135, 762.597,332.32" />
  <polygon fill="#FFFFFF" points="762.987,330.995, 764.635,330.031, 765.885,331.037, 765.009,332.623, 763.218,332.597" />
  <polygon fill="#000000" points="764.063,330.365, 765.451,330.688, 765.313,332.073, 763.839,332.606, 763.067,331.551" />
  <polygon fill="#FFFFFF" points="763.711,330.785, 764.96,330.574, 765.362,331.583, 764.361,332.418, 763.341,331.925" />
  <polygon fill="#000000" points="763.577,331.196, 764.509,330.65, 765.217,331.219, 764.722,332.116, 763.709,332.103" />
  <polygon fill="#FFFFFF" points="764.166,330.851, 764.956,331.009, 764.904,331.786, 764.082,332.108, 763.626,331.53" />
  <polygon fill="#000000" points="763.963,331.106, 764.66,330.95, 764.924,331.495, 764.39,331.987, 763.797,331.747" />
  <polygon fill="#FFFFFF" points="763.9,331.35, 764.394,331.009, 764.823,331.287, 764.594,331.799, 764.023,331.838" />
  <polygon fill="#000000" points="764.202,331.142, 764.656,331.179, 764.683,331.6, 764.245,331.823, 763.948,331.54" />
  <polygon fill="#FFFFFF" points="764.101,331.3, 764.476,331.164, 764.672,331.433, 764.419,331.735, 764.066,331.652" />
  <polygon fill="#000000" points="764.087,331.442, 764.325,331.219, 764.593,331.325, 764.521,331.613, 764.208,331.685" />
  <polygon fill="#FFFFFF" points="764.227,331.31, 764.483,331.281, 764.551,331.495, 764.336,331.656, 764.136,331.542" />
  <polygon fill="#000000" points="764.189,331.407, 764.376,331.293, 764.522,331.406, 764.426,331.589, 764.22,331.589" />
  <polygon fill="#FFFFFF" points="764.297,331.341, 764.461,331.358, 764.467,331.511, 764.307,331.589, 764.202,331.484" />
  <polygon fill="#000000" points="764.256,331.403, 764.39,331.351, 764.464,331.445, 764.376,331.555, 764.247,331.529" />
  <polygon fill="#FFFFFF" points="764.331,331.374, 764.432,331.404, 764.414,331.507, 764.304,331.541, 764.252,331.458" />
  <polygon fill="#000000" points="764.296,331.411, 764.387,331.39, 764.422,331.461, 764.353,331.526, 764.275,331.495" />
  <polygon fill="#FFFFFF" points="764.287,331.449, 764.346,331.4, 764.406,331.429, 764.384,331.497, 764.31,331.509" />
  <!-- Shape 10 -->
  <polygon fill="#000000" points="603.75,204.239, 642.377,152.69, 753.197,201.275, 702.108,260.349" />
  <polygon fill="#FFFFFF" points="608.076,198.465, 654.789,158.132, 747.475,207.891, 691.092,254.065" />
  <polygon fill="#000000" points="613.691,193.617, 665.93,164.113, 740.698,213.441, 681.113,247.382" />
  <polygon fill="#FFFFFF" points="620.398,189.829, 675.53,170.447, 733.047,217.799, 672.456,240.479" />
  <polygon fill="#000000" points="627.929,187.181, 683.387,176.915, 724.771,220.897, 665.345,233.56" />
  <polygon fill="#FFFFFF" points="635.96,185.695, 689.379,183.284, 716.166,222.731, 659.927,226.844" />
  <polygon fill="#000000" points="644.133,185.326, 693.478,189.319, 707.561,223.36, 656.26,220.548" />
  <polygon fill="#FFFFFF" points="652.087,185.969, 695.748,194.806, 699.291,222.907, 654.305,214.87" />
  <polygon fill="#000000" points="659.483,187.466, 696.348,199.567, 691.671,221.545, 653.93,209.975" />
  <polygon fill="#FFFFFF" points="666.031,189.615, 695.517,203.47, 684.968,219.49, 654.916,205.977" />
  <polygon fill="#000000" points="656.981,202.937, 671.509,192.19, 693.557,206.447, 679.384,216.98" />
  <polygon fill="#FFFFFF" points="659.799,200.852, 675.787,194.955, 690.808,208.49, 675.038,214.255" />
  <polygon fill="#000000" points="663.032,199.66, 678.824,197.692, 687.619,209.656, 671.957,211.545" />
  <polygon fill="#FFFFFF" points="666.355,199.246, 680.674,200.209, 684.324,210.053, 670.079,209.045" />
  <polygon fill="#000000" points="669.485,199.456, 681.472,202.361, 681.21,209.833, 669.265,206.903" />
  <polygon fill="#FFFFFF" points="672.204,200.115, 681.413,204.056, 678.501,209.168, 669.315,205.214" />
  <polygon fill="#000000" points="669.994,204.016, 674.368,201.041, 680.728,205.257, 676.342,208.239" />
  <polygon fill="#FFFFFF" points="671.057,203.292, 675.915,202.067, 679.662,205.982, 674.798,207.212" />
  <polygon fill="#000000" points="672.279,202.984, 676.857,203.051, 678.439,206.291, 673.858,206.226" />
  <polygon fill="#FFFFFF" points="673.467,203.001, 677.267,203.892, 677.25,206.275, 673.448,205.385" />
  <polygon fill="#000000" points="674.485,203.24, 677.263,204.53, 676.232,206.036, 673.453,204.747" />
  <polygon fill="#FFFFFF" points="673.738,204.331, 675.251,203.596, 676.978,204.946, 675.465,205.68" />
  <polygon fill="#000000" points="674.168,204.122, 675.742,203.98, 676.548,205.155, 674.974,205.297" />
  <polygon fill="#FFFFFF" points="674.628,204.08, 675.978,204.323, 676.088,205.196, 674.738,204.953" />
  <polygon fill="#000000" points="675.034,204.153, 676.011,204.586, 675.682,205.123, 674.705,204.691" />
  <polygon fill="#FFFFFF" points="674.807,204.525, 675.336,204.287, 675.909,204.752, 675.38,204.99" />
  <polygon fill="#000000" points="674.974,204.449, 675.517,204.434, 675.742,204.827, 675.199,204.842" />
  <polygon fill="#FFFFFF" points="675.151,204.444, 675.59,204.562, 675.565,204.832, 675.126,204.715" />
  <polygon fill="#000000" points="675.134,204.625, 675.297,204.484, 675.582,204.652, 675.419,204.793" />
  <polygon fill="#FFFFFF" points="675.19,204.576, 675.395,204.541, 675.526,204.7, 675.321,204.735" />
  <polygon fill="#000000" points="675.262,204.564, 675.441,204.597, 675.454,204.712, 675.275,204.68" />
  <polygon fill="#FFFFFF" points="675.326,204.576, 675.446,204.638, 675.39,204.701, 675.27,204.638" />
  <polygon fill="#000000" points="675.291,204.615, 675.37,204.599, 675.425,204.661, 675.346,204.678" />
  <polygon fill="#FFFFFF" points="675.32,204.609, 675.39,204.622, 675.396,204.667, 675.326,204.655" />
  <polygon fill="#000000" points="675.323,204.637, 675.347,204.614, 675.392,204.639, 675.369,204.662" />
  <polygon fill="#FFFFFF" points="675.333,204.628, 675.365,204.624, 675.383,204.648, 675.351,204.653" />
  <polygon fill="#000000" points="675.346,204.626, 675.372,204.634, 675.37,204.65, 675.344,204.643" />
  <polygon fill="#FFFFFF" points="675.344,204.636, 675.356,204.629, 675.371,204.64, 675.36,204.647" />
  <polygon fill="#000000" points="675.349,204.633, 675.363,204.634, 675.367,204.643, 675.353,204.643" />
  <polygon fill="#FFFFFF" points="675.355,204.634, 675.364,204.638, 675.361,204.643, 675.352,204.639" />
  <polygon fill="#000000" points="675.353,204.636, 675.359,204.635, 675.363,204.64, 675.357,204.641" />
  <polygon fill="#FFFFFF" points="675.356,204.636, 675.361,204.637, 675.36,204.641, 675.355,204.639" />
  <polygon fill="#000000" points="675.355,204.638, 675.358,204.637, 675.361,204.639, 675.358,204.64" />
  <polygon fill="#FFFFFF" points="675.357,204.637, 675.359,204.638, 675.359,204.639, 675.357,204.639" />
  <polygon fill="#000000" points="675.357,204.638, 675.358,204.637, 675.359,204.638, 675.358,204.639" />
  <polygon fill="#FFFFFF" points="675.357,204.638, 675.358,204.638, 675.359,204.639, 675.358,204.639" />
  <!-- Shape 11 -->
  <polygon fill="#FFFFFF" points="603.75,204.239, 647.264,229.063, 619.003,356.442, 545.76,281.626" />
  <polygon fill="#000000" points="608.515,206.957, 644.17,243.011, 610.983,348.25, 552.109,273.152" />
  <polygon fill="#FFFFFF" points="558.574,265.566, 612.601,211.089, 640.366,255.071, 604.236,339.644" />
  <polygon fill="#000000" points="565.041,259.045, 615.924,216.353, 636.042,265.194, 598.77,330.777" />
  <polygon fill="#FFFFFF" points="571.391,253.717, 618.435,222.449, 631.39,273.379, 594.561,321.825" />
  <polygon fill="#000000" points="577.502,249.656, 620.118,229.064, 626.606,279.672, 591.551,312.978" />
  <polygon fill="#FFFFFF" points="583.255,246.876, 620.994,235.897, 621.874,284.168, 589.654,304.429" />
  <polygon fill="#000000" points="588.542,245.338, 621.117,242.659, 617.36,287.007, 588.758,296.366" />
  <polygon fill="#FFFFFF" points="593.272,244.949, 620.571,249.099, 613.207,288.366, 588.727,288.957" />
  <polygon fill="#000000" points="597.375,245.572, 619.465,255.001, 609.527,288.455, 589.41,282.342" />
  <polygon fill="#FFFFFF" points="600.808,247.038, 617.92,260.199, 606.401,287.505, 590.648,276.628" />
  <polygon fill="#000000" points="603.554,249.15, 616.071,264.582, 603.873,285.759, 592.278,271.879" />
  <polygon fill="#FFFFFF" points="605.627,251.706, 614.051,268.089, 601.953,283.461, 594.146,268.115" />
  <polygon fill="#000000" points="596.106,265.314, 607.065,254.502, 611.986,270.713, 600.62,280.841" />
  <polygon fill="#FFFFFF" points="598.032,263.413, 607.93,257.352, 609.988,272.493, 599.826,278.111" />
  <polygon fill="#000000" points="599.823,262.317, 608.303,260.091, 608.15,273.51, 599.502,275.452" />
  <polygon fill="#FFFFFF" points="601.4,261.903, 608.274,262.587, 606.541,273.871, 599.561,273.009" />
  <polygon fill="#000000" points="602.714,262.033, 607.943,264.743, 605.207,273.706, 599.913,270.887" />
  <polygon fill="#FFFFFF" points="603.74,262.565, 607.406,266.502, 604.169,273.153, 600.462,269.15" />
  <polygon fill="#000000" points="601.122,267.824, 604.478,263.358, 606.754,267.841, 603.423,272.347" />
  <polygon fill="#FFFFFF" points="601.815,266.902, 604.948,264.283, 606.067,268.771, 602.948,271.414" />
  <polygon fill="#000000" points="602.477,266.348, 605.184,265.232, 605.407,269.33, 602.708,270.46" />
  <polygon fill="#FFFFFF" points="603.064,266.107, 605.233,266.12, 604.822,269.575, 602.658,269.569" />
  <polygon fill="#000000" points="603.545,266.109, 605.142,266.886, 604.343,269.573, 602.748,268.801" />
  <polygon fill="#FFFFFF" points="603.907,266.285, 604.96,267.495, 603.981,269.398, 602.929,268.191" />
  <polygon fill="#000000" points="603.155,267.749, 604.151,266.566, 604.733,267.936, 603.737,269.118" />
  <polygon fill="#FFFFFF" points="603.391,267.469, 604.289,266.891, 604.497,268.217, 603.599,268.794" />
  <polygon fill="#000000" points="603.609,267.329, 604.339,267.212, 604.28,268.356, 603.549,268.473" />
  <polygon fill="#FFFFFF" points="603.789,267.3, 604.325,267.495, 604.099,268.385, 603.564,268.19" />
  <polygon fill="#000000" points="603.924,267.349, 604.268,267.719, 603.964,268.336, 603.621,267.965" />
  <polygon fill="#FFFFFF" points="603.699,267.807, 604.013,267.444, 604.19,267.878, 603.876,268.241" />
  <polygon fill="#000000" points="603.781,267.712, 604.059,267.558, 604.107,267.973, 603.829,268.127" />
  <polygon fill="#FFFFFF" points="603.856,267.671, 604.072,267.669, 604.033,268.014, 603.816,268.016" />
  <polygon fill="#000000" points="603.915,267.67, 604.061,267.763, 603.974,268.015, 603.827,267.922" />
  <polygon fill="#FFFFFF" points="603.955,267.696, 604.037,267.833, 603.933,267.989, 603.851,267.852" />
  <polygon fill="#000000" points="603.881,267.808, 603.978,267.735, 604.008,267.877, 603.91,267.95" />
  <polygon fill="#FFFFFF" points="603.909,267.787, 603.987,267.776, 603.979,267.898, 603.902,267.909" />
  <polygon fill="#000000" points="603.932,267.784, 603.985,267.812, 603.957,267.901, 603.904,267.873" />
  <polygon fill="#FFFFFF" points="603.948,267.792, 603.976,267.838, 603.941,267.893, 603.912,267.846" />
  <polygon fill="#000000" points="603.923,267.83, 603.956,267.806, 603.966,267.855, 603.932,267.879" />
  <polygon fill="#FFFFFF" points="603.933,267.823, 603.959,267.821, 603.955,267.862, 603.929,267.864" />
  <polygon fill="#000000" points="603.941,267.822, 603.958,267.834, 603.947,267.863, 603.93,267.851" />
  <polygon fill="#FFFFFF" points="603.934,267.842, 603.947,267.826, 603.954,267.843, 603.942,267.859" />
  <polygon fill="#000000" points="603.938,267.837, 603.949,267.832, 603.95,267.848, 603.939,267.853" />
  <polygon fill="#FFFFFF" points="603.942,267.835, 603.95,267.837, 603.947,267.85, 603.939,267.848" />
  <polygon fill="#000000" points="603.944,267.836, 603.949,267.841, 603.944,267.849, 603.94,267.844" />
  <polygon fill="#FFFFFF" points="603.941,267.841, 603.946,267.838, 603.947,267.844, 603.943,267.847" />
  <polygon fill="#000000" points="603.943,267.84, 603.946,267.84, 603.946,267.845, 603.942,267.845" />
  <polygon fill="#FFFFFF" points="603.944,267.84, 603.946,267.842, 603.944,267.845, 603.942,267.843" />
  <polygon fill="#000000" points="603.943,267.842, 603.945,267.84, 603.945,267.843, 603.944,267.844" />
  <!-- Shape 12 -->
  <polygon fill="#000000" points="647.264,229.063, 702.108,260.349, 636.169,279.073" />
  <polygon fill="#FFFFFF" points="654.312,233.083, 693.634,262.755, 637.594,272.647" />
  <polygon fill="#000000" points="659.64,237.104, 686.041,264.096, 639.86,267.286" />
  <polygon fill="#FFFFFF" points="663.402,240.95, 679.46,264.55, 642.678,262.985" />
  <polygon fill="#000000" points="665.803,244.478, 673.961,264.316, 645.776,259.691" />
  <polygon fill="#FFFFFF" points="667.08,247.583, 669.55,263.592, 648.911,257.31" />
  <polygon fill="#000000" points="651.881,255.719, 667.483,250.2, 666.176,262.565" />
  <polygon fill="#FFFFFF" points="654.541,254.778, 667.261,252.309, 663.739,261.398" />
  <polygon fill="#000000" points="656.799,254.34, 666.635,253.922, 662.106,260.223" />
  <polygon fill="#FFFFFF" points="658.614,254.263, 665.8,255.085, 661.127,259.138" />
  <polygon fill="#000000" points="659.99,254.42, 664.905,255.861, 660.646,258.204" />
  <polygon fill="#FFFFFF" points="660.966,254.706, 664.059,256.326, 660.516,257.453" />
  <polygon fill="#000000" points="661.601,255.039, 663.331,256.557, 660.608,256.889" />
  <polygon fill="#FFFFFF" points="661.969,255.362, 662.752,256.628, 660.819,256.496" />
  <polygon fill="#000000" points="662.141,255.64, 662.328,256.599, 661.071,256.247" />
  <polygon fill="#FFFFFF" points="661.314,256.109, 662.183,255.857, 662.043,256.519" />
  <polygon fill="#000000" points="661.517,256.05, 662.151,256.011, 661.873,256.423" />
  <polygon fill="#FFFFFF" points="661.669,256.041, 662.084,256.111, 661.787,256.334" />
  <polygon fill="#000000" points="661.772,256.058, 662.011,256.166, 661.758,256.261" />
  <polygon fill="#FFFFFF" points="661.833,256.086, 661.946,256.19, 661.762,256.209" />
  <polygon fill="#000000" points="661.862,256.113, 661.898,256.195, 661.78,256.177" />
  <polygon fill="#FFFFFF" points="661.802,256.16, 661.872,256.135, 661.866,256.19" />
  <polygon fill="#000000" points="661.821,256.153, 661.87,256.15, 661.849,256.182" />
  <polygon fill="#FFFFFF" points="661.835,256.152, 661.864,256.159, 661.841,256.174" />
  <polygon fill="#000000" points="661.844,256.154, 661.858,256.163, 661.839,256.167" />
  <polygon fill="#FFFFFF" points="661.848,256.157, 661.852,256.165, 661.841,256.164" />
  <polygon fill="#000000" points="661.843,256.162, 661.849,256.159, 661.849,256.164" />
  <polygon fill="#FFFFFF" points="661.845,256.161, 661.849,256.161, 661.847,256.163" />
  <polygon fill="#000000" points="661.846,256.161, 661.848,256.162, 661.846,256.163" />
  <polygon fill="#FFFFFF" points="661.847,256.161, 661.848,256.162, 661.846,256.162" />
  <polygon fill="#000000" points="661.847,256.162, 661.846,256.162, 661.847,256.161" />
  <polygon fill="#FFFFFF" points="661.847,256.162, 661.847,256.162, 661.847,256.162" />
  <polygon fill="#000000" points="661.847,256.162, 661.847,256.162, 661.847,256.162" />
  <polygon fill="#FFFFFF" points="661.847,256.162, 661.847,256.162, 661.847,256.162" />
  <polygon fill="#000000" points="661.847,256.162, 661.847,256.162, 661.847,256.162" />
  <polygon fill="#FFFFFF" points="661.847,256.162, 661.847,256.162, 661.847,256.162" />
  <polygon fill="#000000" points="661.847,256.162, 661.847,256.162, 661.847,256.162" />
  <polygon fill="#FFFFFF" points="661.847,256.162, 661.847,256.162, 661.847,256.162" />
  <!-- Shape 13 -->
  <polygon fill="#FFFFFF" points="636.169,279.073, 702.108,260.349, 619.003,356.442" />
  <polygon fill="#000000" points="644.147,276.807, 692.052,271.977, 621.08,347.081" />
  <polygon fill="#FFFFFF" points="650.32,276.185, 682.907,281.654, 624.053,338.026" />
  <polygon fill="#000000" points="654.775,276.933, 674.862,289.36, 627.643,329.572" />
  <polygon fill="#FFFFFF" points="657.678,278.729, 668.036,295.173, 631.565,321.963" />
  <polygon fill="#000000" points="659.257,281.235, 662.478,299.256, 635.545,315.374" />
  <polygon fill="#FFFFFF" points="659.773,284.123, 658.162,301.839, 639.345,309.904" />
  <polygon fill="#000000" points="659.502,287.101, 654.999,303.194, 642.779,305.57" />
  <polygon fill="#FFFFFF" points="658.71,289.932, 652.849,303.612, 645.721,302.32" />
  <polygon fill="#000000" points="657.633,292.447, 651.539,303.375, 648.108,300.043" />
  <polygon fill="#FFFFFF" points="649.934,298.587, 656.465,294.541, 650.881,302.736" />
  <polygon fill="#000000" points="651.237,297.78, 655.351,296.176, 650.692,301.909" />
  <polygon fill="#FFFFFF" points="652.09,297.448, 654.385,297.365, 650.805,301.053" />
  <polygon fill="#000000" points="652.584,297.43, 653.614,298.158, 651.082,300.277" />
  <polygon fill="#FFFFFF" points="652.814,297.592, 653.049,298.631, 651.417,299.642" />
  <polygon fill="#000000" points="652.868,297.832, 652.672,298.864, 651.739,299.169" />
  <polygon fill="#FFFFFF" points="652.821,298.079, 652.45,298.937, 652.009,298.849" />
  <polygon fill="#000000" points="652.73,298.29, 652.341,298.915, 652.209,298.659" />
  <polygon fill="#FFFFFF" points="652.342,298.565, 652.631,298.449, 652.307,298.85" />
  <polygon fill="#000000" points="652.417,298.535, 652.546,298.554, 652.316,298.776" />
  <polygon fill="#FFFFFF" points="652.452,298.54, 652.484,298.614, 652.344,298.711" />
  <polygon fill="#000000" points="652.461,298.561, 652.445,298.641, 652.374,298.663" />
  <polygon fill="#FFFFFF" points="652.456,298.584, 652.425,298.647, 652.399,298.634" />
  <polygon fill="#000000" points="652.416,298.619, 652.447,298.602, 652.417,298.643" />
  <polygon fill="#FFFFFF" points="652.425,298.614, 652.438,298.615, 652.417,298.636" />
  <polygon fill="#000000" points="652.429,298.614, 652.431,298.621, 652.419,298.629" />
  <polygon fill="#FFFFFF" points="652.43,298.617, 652.427,298.624, 652.422,298.625" />
  <polygon fill="#000000" points="652.429,298.619, 652.426,298.624, 652.425,298.622" />
  <polygon fill="#FFFFFF" points="652.426,298.621, 652.428,298.621, 652.425,298.623" />
  <polygon fill="#000000" points="652.427,298.621, 652.427,298.622, 652.426,298.623" />
  <polygon fill="#FFFFFF" points="652.427,298.621, 652.427,298.622, 652.426,298.622" />
  <polygon fill="#000000" points="652.426,298.622, 652.426,298.622, 652.427,298.621" />
  <polygon fill="#FFFFFF" points="652.427,298.622, 652.427,298.622, 652.426,298.622" />
  <polygon fill="#000000" points="652.427,298.622, 652.426,298.622, 652.427,298.622" />
  <polygon fill="#FFFFFF" points="652.427,298.622, 652.427,298.622, 652.427,298.622" />
  <polygon fill="#000000" points="652.427,298.622, 652.427,298.622, 652.427,298.622" />
  <polygon fill="#FFFFFF" points="652.427,298.622, 652.427,298.622, 652.427,298.622" />
  <polygon fill="#000000" points="652.427,298.622, 652.427,298.622, 652.427,298.622" />
</svg>
