<?xml version="1.0" standalone="no"?>
<!DOCTYPE svg PUBLIC "-//W3C//DTD SVG 1.1//EN" "http://www.w3.org/Graphics/SVG/1.1/DTD/svg11.dtd">
<svg viewBox="0, 0, 500, 500" xmlns="http://www.w3.org/2000/svg" version="1.1">
  <!-- Shape 1 -->
  <polygon fill="#000000" points="0,0, 92.5,0, 0,407.5" />
  <polygon fill="#000000" points="500,0, 500,92.5, 92.5,0" />
  <polygon fill="#000000" points="500,500, 407.5,500, 500,92.5" />
  <polygon fill="#000000" points="0,500, 0,407.5, 407.5,500" />
  <polygon fill="#FFFFFF" points="92.5,0, 167.887,17.1125, 17.1125,332.113" />
  <polygon fill="#FFFFFF" points="500,92.5, 482.887,167.887, 167.887,17.1125" />
  <polygon fill="#FFFFFF" points="407.5,500, 332.113,482.887, 482.887,167.887" />
  <polygon fill="#FFFFFF" points="0,407.5, 17.1125,332.113, 332.113,482.887" />
  <polygon fill="#000000" points="167.887,17.1125, 226.162,45.0059, 45.0059,273.838" />
  <polygon fill="#000000" points="482.887,167.887, 454.994,226.162, 226.162,45.0059" />
  <polygon fill="#000000" points="332.113,482.887, 273.838,454.994, 454.994,226.162" />
  <polygon fill="#000000" points="17.1125,332.113, 45.0059,273.838, 273.838,454.994" />
  <polygon fill="#FFFFFF" points="226.162,45.0059, 268.496,78.5199, 78.5199,231.504" />
  <polygon fill="#FFFFFF" points="454.994,226.162, 421.48,268.496, 268.496,78.5199" />
  <polygon fill="#FFFFFF" points="273.838,454.994, 231.504,421.48, 421.48,268.496" />
  <polygon fill="#FFFFFF" points="45.0059,273.838, 78.5199,231.504, 231.504,421.48" />
  <polygon fill="#000000" points="268.496,78.5199, 296.798,113.666, 113.666,203.202" />
  <polygon fill="#000000" points="421.48,268.496, 386.334,296.798, 296.798,113.666" />
  <polygon fill="#000000" points="231.504,421.48, 203.202,386.334, 386.334,296.798" />
  <polygon fill="#000000" points="78.5199,231.504, 113.666,203.202, 203.202,386.334" />
  <polygon fill="#FFFFFF" points="296.798,113.666, 313.363,147.545, 147.545,186.637" />
  <polygon fill="#FFFFFF" points="386.334,296.798, 352.455,313.363, 313.363,147.545" />
  <polygon fill="#FFFFFF" points="203.202,386.334, 186.637,352.455, 352.455,313.363" />
  <polygon fill="#FFFFFF" points="113.666,203.202, 147.545,186.637, 186.637,352.455" />
  <polygon fill="#000000" points="313.363,147.545, 320.595,178.221, 178.221,179.405" />
  <polygon fill="#000000" points="352.455,313.363, 321.779,320.595, 320.595,178.221" />
  <polygon fill="#000000" points="186.637,352.455, 179.405,321.779, 321.779,320.595" />
  <polygon fill="#000000" points="147.545,186.637, 178.221,179.405, 179.405,321.779" />
  <polygon fill="#FFFFFF" points="320.595,178.221, 320.814,204.56, 204.56,179.186" />
  <polygon fill="#FFFFFF" points="321.779,320.595, 295.44,320.814, 320.814,204.56" />
  <polygon fill="#FFFFFF" points="179.405,321.779, 179.186,295.44, 295.44,320.814" />
  <polygon fill="#FFFFFF" points="178.221,179.405, 204.56,179.186, 179.186,295.44" />
</svg>
